M48
; DRILL file {KiCad 9.0.6} date 2026-01-26T21:26:14+0100
; FORMAT={-:-/ absolute / metric / decimal}
; #@! TF.CreationDate,2026-01-26T21:26:14+01:00
; #@! TF.GenerationSoftware,Kicad,Pcbnew,9.0.6
; #@! TF.FileFunction,Plated,1,8,PTH
FMAT,2
METRIC
; #@! TA.AperFunction,Plated,PTH,ViaDrill
T1C0.300
; #@! TA.AperFunction,Plated,PTH,ViaDrill
T2C0.400
; #@! TA.AperFunction,Plated,PTH,ViaDrill
T3C0.500
%
G90
G05
T1
X82.673Y-51.534
X82.673Y-53.534
X83.906Y-49.945
X88.28Y-48.985
X89.028Y-63.539
X90.008Y-76.584
X91.666Y-53.603
X92.626Y-48.203
X92.831Y-42.153
X93.023Y-63.583
X93.638Y-56.271
X93.668Y-57.251
X94.153Y-40.653
X94.381Y-42.153
X94.403Y-76.584
X94.626Y-46.923
X94.626Y-47.883
X94.626Y-53.723
X94.628Y-54.624
X94.628Y-59.211
X95.003Y-41.153
X97.151Y-36.707
X97.151Y-37.667
X97.303Y-41.653
X97.358Y-44.114
X97.358Y-44.71
X97.358Y-45.306
X97.358Y-45.902
X97.358Y-46.498
X97.358Y-47.094
X97.358Y-52.154
X97.358Y-53.174
X97.358Y-53.734
X97.55Y-74.962
X97.6Y-51.317
X98.336Y-60.593
X98.56Y-36.46
X99.296Y-60.593
X99.538Y-74.002
X99.566Y-57.915
X99.943Y-38.889
X100.026Y-36.213
X100.318Y-48.409
X100.566Y-60.215
X101.079Y-73.954
X101.203Y-76.332
X101.203Y-78.384
X101.248Y-46.424
X101.248Y-47.384
X101.248Y-50.394
X101.278Y-48.409
X101.566Y-38.991
X101.752Y-77.6
X102.066Y-36.386
X102.703Y-78.451
X103.203Y-68.822
X103.203Y-77.9
X103.316Y-41.536
X103.616Y-46.003
X103.616Y-46.803
X103.616Y-50.003
X103.616Y-50.803
X103.618Y-51.604
X104.008Y-57.934
X104.058Y-38.874
X104.336Y-36.213
X104.416Y-45.203
X104.416Y-46.003
X104.416Y-46.803
X104.416Y-50.003
X104.416Y-50.803
X104.416Y-51.603
X104.558Y-57.934
X104.678Y-48.884
X104.703Y-78.384
X104.836Y-60.593
X104.853Y-41.524
X105.216Y-45.203
X105.216Y-46.003
X105.216Y-46.803
X105.216Y-50.003
X105.216Y-50.803
X105.216Y-51.603
X105.296Y-36.213
X105.703Y-80.384
X105.742Y-57.934
X105.796Y-60.593
X106.016Y-45.203
X106.016Y-46.003
X106.016Y-46.803
X106.016Y-50.003
X106.016Y-51.603
X106.203Y-75.81
X106.203Y-78.384
X106.35Y-57.934
X106.703Y-80.384
X106.816Y-45.203
X106.816Y-46.003
X106.816Y-50.003
X106.958Y-57.934
X107.203Y-73.052
X107.203Y-78.384
X107.566Y-57.934
X107.616Y-45.203
X107.616Y-46.003
X107.616Y-46.803
X107.703Y-80.384
X108.066Y-38.89
X108.163Y-81.247
X108.174Y-57.934
X108.203Y-78.384
X108.416Y-45.203
X108.416Y-46.003
X108.418Y-50.004
X108.703Y-80.384
X109.203Y-78.384
X109.216Y-45.203
X109.216Y-46.003
X109.218Y-46.814
X109.336Y-36.213
X109.703Y-80.384
X109.836Y-60.593
X110.008Y-42.854
X110.016Y-46.003
X110.016Y-50.003
X110.016Y-51.603
X110.296Y-36.213
X110.796Y-60.593
X110.968Y-42.854
X111.168Y-57.934
X111.566Y-38.89
X111.748Y-57.934
X112.087Y-63.649
X112.348Y-57.934
X112.368Y-46.424
X112.378Y-47.384
X112.948Y-57.934
X113.107Y-63.649
X113.548Y-57.934
X113.698Y-49.139
X113.708Y-51.724
X114.138Y-63.649
X115.158Y-63.649
X115.239Y-62.369
X115.566Y-38.849
X116.199Y-56.653
X116.278Y-46.153
X116.308Y-47.184
X116.308Y-48.514
X116.308Y-49.124
X116.308Y-50.154
X116.308Y-54.074
X116.308Y-54.624
X116.308Y-55.154
X116.328Y-45.153
X116.36Y-41.153
X116.488Y-59.143
X116.488Y-60.103
X117.478Y-57.649
X118.628Y-43.653
X118.628Y-44.653
X118.628Y-45.653
X118.678Y-46.653
X119.006Y-39.02
X119.006Y-39.98
X119.006Y-51.423
X119.006Y-52.383
X119.283Y-44.153
X119.883Y-56.653
X119.883Y-57.649
X120.262Y-39.089
X120.587Y-74.388
X123.063Y-58.534
X123.063Y-61.534
X124.088Y-74.388
X126.088Y-45.219
X127.233Y-58.534
X127.233Y-61.534
T2
X87.808Y-71.751
X89.328Y-53.539
X89.328Y-59.539
X89.328Y-61.539
X89.328Y-67.539
X89.358Y-71.751
X89.833Y-80.591
X92.203Y-71.751
X92.678Y-80.591
X93.753Y-71.751
X94.228Y-80.591
X97.503Y-76.704
X98.71Y-82.129
X100.26Y-83.679
X101.678Y-82.129
X104.646Y-84.14
X106.196Y-82.59
X110.673Y-83.272
X112.403Y-76.704
X119.812Y-72.606
X119.812Y-78.446
X121.362Y-78.446
X123.313Y-72.606
X123.313Y-78.446
X124.863Y-78.446
T3
X82.673Y-59.534
X82.673Y-67.534
X82.673Y-69.534
X86.343Y-57.534
X86.343Y-59.534
X86.343Y-67.534
X86.343Y-69.534
X123.063Y-63.534
X123.063Y-65.534
X127.233Y-63.534
X127.233Y-65.534
M30
