%TF.GenerationSoftware,KiCad,Pcbnew,9.0.4*%
%TF.CreationDate,2025-10-08T12:20:31+02:00*%
%TF.ProjectId,cansat-camera-pcb,63616e73-6174-42d6-9361-6d6572612d70,1.0*%
%TF.SameCoordinates,Original*%
%TF.FileFunction,Copper,L1,Top*%
%TF.FilePolarity,Positive*%
%FSLAX46Y46*%
G04 Gerber Fmt 4.6, Leading zero omitted, Abs format (unit mm)*
G04 Created by KiCad (PCBNEW 9.0.4) date 2025-10-08 12:20:31*
%MOMM*%
%LPD*%
G01*
G04 APERTURE LIST*
G04 Aperture macros list*
%AMRoundRect*
0 Rectangle with rounded corners*
0 $1 Rounding radius*
0 $2 $3 $4 $5 $6 $7 $8 $9 X,Y pos of 4 corners*
0 Add a 4 corners polygon primitive as box body*
4,1,4,$2,$3,$4,$5,$6,$7,$8,$9,$2,$3,0*
0 Add four circle primitives for the rounded corners*
1,1,$1+$1,$2,$3*
1,1,$1+$1,$4,$5*
1,1,$1+$1,$6,$7*
1,1,$1+$1,$8,$9*
0 Add four rect primitives between the rounded corners*
20,1,$1+$1,$2,$3,$4,$5,0*
20,1,$1+$1,$4,$5,$6,$7,0*
20,1,$1+$1,$6,$7,$8,$9,0*
20,1,$1+$1,$8,$9,$2,$3,0*%
G04 Aperture macros list end*
%TA.AperFunction,SMDPad,CuDef*%
%ADD10RoundRect,0.250000X-0.350000X0.450000X-0.350000X-0.450000X0.350000X-0.450000X0.350000X0.450000X0*%
%TD*%
%TA.AperFunction,SMDPad,CuDef*%
%ADD11RoundRect,0.075000X0.662500X0.075000X-0.662500X0.075000X-0.662500X-0.075000X0.662500X-0.075000X0*%
%TD*%
%TA.AperFunction,SMDPad,CuDef*%
%ADD12RoundRect,0.075000X0.075000X0.662500X-0.075000X0.662500X-0.075000X-0.662500X0.075000X-0.662500X0*%
%TD*%
%TA.AperFunction,SMDPad,CuDef*%
%ADD13RoundRect,0.150000X-0.150000X0.512500X-0.150000X-0.512500X0.150000X-0.512500X0.150000X0.512500X0*%
%TD*%
%TA.AperFunction,SMDPad,CuDef*%
%ADD14RoundRect,0.140000X-0.140000X-0.170000X0.140000X-0.170000X0.140000X0.170000X-0.140000X0.170000X0*%
%TD*%
%TA.AperFunction,SMDPad,CuDef*%
%ADD15RoundRect,0.140000X-0.170000X0.140000X-0.170000X-0.140000X0.170000X-0.140000X0.170000X0.140000X0*%
%TD*%
%TA.AperFunction,SMDPad,CuDef*%
%ADD16R,0.800000X0.900000*%
%TD*%
%TA.AperFunction,SMDPad,CuDef*%
%ADD17RoundRect,0.140000X0.140000X0.170000X-0.140000X0.170000X-0.140000X-0.170000X0.140000X-0.170000X0*%
%TD*%
%TA.AperFunction,SMDPad,CuDef*%
%ADD18RoundRect,0.135000X0.185000X-0.135000X0.185000X0.135000X-0.185000X0.135000X-0.185000X-0.135000X0*%
%TD*%
%TA.AperFunction,SMDPad,CuDef*%
%ADD19RoundRect,0.140000X0.170000X-0.140000X0.170000X0.140000X-0.170000X0.140000X-0.170000X-0.140000X0*%
%TD*%
%TA.AperFunction,SMDPad,CuDef*%
%ADD20RoundRect,0.135000X-0.185000X0.135000X-0.185000X-0.135000X0.185000X-0.135000X0.185000X0.135000X0*%
%TD*%
%TA.AperFunction,SMDPad,CuDef*%
%ADD21RoundRect,0.225000X-0.225000X-0.250000X0.225000X-0.250000X0.225000X0.250000X-0.225000X0.250000X0*%
%TD*%
%TA.AperFunction,SMDPad,CuDef*%
%ADD22R,2.580000X1.000000*%
%TD*%
%TA.AperFunction,SMDPad,CuDef*%
%ADD23R,1.700000X1.300000*%
%TD*%
%TA.AperFunction,SMDPad,CuDef*%
%ADD24RoundRect,0.225000X0.225000X0.250000X-0.225000X0.250000X-0.225000X-0.250000X0.225000X-0.250000X0*%
%TD*%
%TA.AperFunction,SMDPad,CuDef*%
%ADD25RoundRect,0.225000X0.250000X-0.225000X0.250000X0.225000X-0.250000X0.225000X-0.250000X-0.225000X0*%
%TD*%
%TA.AperFunction,SMDPad,CuDef*%
%ADD26RoundRect,0.135000X-0.135000X-0.185000X0.135000X-0.185000X0.135000X0.185000X-0.135000X0.185000X0*%
%TD*%
%TA.AperFunction,SMDPad,CuDef*%
%ADD27RoundRect,0.135000X0.135000X0.185000X-0.135000X0.185000X-0.135000X-0.185000X0.135000X-0.185000X0*%
%TD*%
%TA.AperFunction,ViaPad*%
%ADD28C,0.600000*%
%TD*%
%TA.AperFunction,ViaPad*%
%ADD29C,0.500000*%
%TD*%
%TA.AperFunction,ViaPad*%
%ADD30C,1.000000*%
%TD*%
%TA.AperFunction,ViaPad*%
%ADD31C,0.800000*%
%TD*%
%TA.AperFunction,Conductor*%
%ADD32C,0.500000*%
%TD*%
%TA.AperFunction,Conductor*%
%ADD33C,0.300000*%
%TD*%
%TA.AperFunction,Conductor*%
%ADD34C,0.400000*%
%TD*%
%TA.AperFunction,Conductor*%
%ADD35C,0.600000*%
%TD*%
%TA.AperFunction,Conductor*%
%ADD36C,1.000000*%
%TD*%
%TA.AperFunction,Conductor*%
%ADD37C,0.900000*%
%TD*%
%TA.AperFunction,Conductor*%
%ADD38C,0.250000*%
%TD*%
%TA.AperFunction,Conductor*%
%ADD39C,0.200000*%
%TD*%
%TA.AperFunction,Conductor*%
%ADD40C,0.130000*%
%TD*%
%TA.AperFunction,Conductor*%
%ADD41C,0.126200*%
%TD*%
G04 APERTURE END LIST*
D10*
%TO.P,Y1,1,1*%
%TO.N,Net-(U4-PH1)*%
X87292000Y-112491000D03*
%TO.P,Y1,2,2*%
%TO.N,GND*%
X87292000Y-114691000D03*
%TO.P,Y1,3,3*%
%TO.N,Net-(U4-PH0)*%
X88992000Y-114691000D03*
%TO.P,Y1,4,4*%
%TO.N,GND*%
X88992000Y-112491000D03*
%TD*%
D11*
%TO.P,U4,1,PE2*%
%TO.N,/LTE_reset*%
X84134512Y-124841000D03*
%TO.P,U4,2,PE3*%
%TO.N,/LTE_pwrkey*%
X84134512Y-124341000D03*
%TO.P,U4,3,PE4*%
%TO.N,/DCMI_D4*%
X84134512Y-123841000D03*
%TO.P,U4,4,PE5*%
%TO.N,/DCMI_D6*%
X84134512Y-123341000D03*
%TO.P,U4,5,PE6*%
%TO.N,/DCMI_D7*%
X84134512Y-122841000D03*
%TO.P,U4,6,VBAT*%
%TO.N,+3.3V*%
X84134512Y-122341000D03*
%TO.P,U4,7,PC13*%
%TO.N,unconnected-(U4-PC13-Pad7)*%
X84134512Y-121841000D03*
%TO.P,U4,8,PC14*%
%TO.N,unconnected-(U4-PC14-Pad8)*%
X84134512Y-121341000D03*
%TO.P,U4,9,PC15*%
%TO.N,unconnected-(U4-PC15-Pad9)*%
X84134512Y-120841000D03*
%TO.P,U4,10,PF0*%
%TO.N,/FMC_A0*%
X84134512Y-120341000D03*
%TO.P,U4,11,PF1*%
%TO.N,/FMC_A1*%
X84134512Y-119841000D03*
%TO.P,U4,12,PF2*%
%TO.N,/FMC_A2*%
X84134512Y-119341000D03*
%TO.P,U4,13,PF3*%
%TO.N,/FMC_A3*%
X84134512Y-118841000D03*
%TO.P,U4,14,PF4*%
%TO.N,/FMC_A4*%
X84134512Y-118341000D03*
%TO.P,U4,15,PF5*%
%TO.N,/FMC_A5*%
X84134512Y-117841000D03*
%TO.P,U4,16,VSS*%
%TO.N,GND*%
X84134512Y-117341000D03*
%TO.P,U4,17,VDD*%
%TO.N,+3.3V*%
X84134512Y-116841000D03*
%TO.P,U4,18,PF6*%
%TO.N,unconnected-(U4-PF6-Pad18)*%
X84134512Y-116341000D03*
%TO.P,U4,19,PF7*%
%TO.N,unconnected-(U4-PF7-Pad19)*%
X84134512Y-115841000D03*
%TO.P,U4,20,PF8*%
%TO.N,unconnected-(U4-PF8-Pad20)*%
X84134512Y-115341000D03*
%TO.P,U4,21,PF9*%
%TO.N,unconnected-(U4-PF9-Pad21)*%
X84134512Y-114841000D03*
%TO.P,U4,22,PF10*%
%TO.N,unconnected-(U4-PF10-Pad22)*%
X84134512Y-114341000D03*
%TO.P,U4,23,PH0*%
%TO.N,Net-(U4-PH0)*%
X84134512Y-113841000D03*
%TO.P,U4,24,PH1*%
%TO.N,Net-(U4-PH1)*%
X84134512Y-113341000D03*
%TO.P,U4,25,NRST*%
%TO.N,/RST*%
X84134512Y-112841000D03*
%TO.P,U4,26,PC0*%
%TO.N,/FMC_SDNWE*%
X84134512Y-112341000D03*
%TO.P,U4,27,PC1*%
%TO.N,unconnected-(U4-PC1-Pad27)*%
X84134512Y-111841000D03*
%TO.P,U4,28,PC2_C*%
%TO.N,/FMC_SDNE0*%
X84134512Y-111341000D03*
%TO.P,U4,29,PC3_C*%
%TO.N,/FMC_SDCKE0*%
X84134512Y-110841000D03*
%TO.P,U4,30,VDD*%
%TO.N,+3.3V*%
X84134512Y-110341000D03*
%TO.P,U4,31,VSSA*%
%TO.N,GND*%
X84134512Y-109841000D03*
%TO.P,U4,32,VREF+*%
%TO.N,/VREF_PIN*%
X84134512Y-109341000D03*
%TO.P,U4,33,VDDA*%
%TO.N,/VDDA_PIN*%
X84134512Y-108841000D03*
%TO.P,U4,34,PA0*%
%TO.N,unconnected-(U4-PA0-Pad34)*%
X84134512Y-108341000D03*
%TO.P,U4,35,PA1*%
%TO.N,unconnected-(U4-PA1-Pad35)*%
X84134512Y-107841000D03*
%TO.P,U4,36,PA2*%
%TO.N,unconnected-(U4-PA2-Pad36)*%
X84134512Y-107341000D03*
D12*
%TO.P,U4,37,PA3*%
%TO.N,unconnected-(U4-PA3-Pad37)*%
X82222012Y-105428500D03*
%TO.P,U4,38,VSS*%
%TO.N,GND*%
X81722012Y-105428500D03*
%TO.P,U4,39,VDD*%
%TO.N,+3.3V*%
X81222012Y-105428500D03*
%TO.P,U4,40,PA4*%
%TO.N,/DCMI_HYSNC*%
X80722012Y-105428500D03*
%TO.P,U4,41,PA5*%
%TO.N,unconnected-(U4-PA5-Pad41)*%
X80222012Y-105428500D03*
%TO.P,U4,42,PA6*%
%TO.N,/DCMI_PIXCLK*%
X79722012Y-105428500D03*
%TO.P,U4,43,PA7*%
%TO.N,unconnected-(U4-PA7-Pad43)*%
X79222012Y-105428500D03*
%TO.P,U4,44,PC4*%
%TO.N,unconnected-(U4-PC4-Pad44)*%
X78722012Y-105428500D03*
%TO.P,U4,45,PC5*%
%TO.N,unconnected-(U4-PC5-Pad45)*%
X78222012Y-105428500D03*
%TO.P,U4,46,PB0*%
%TO.N,unconnected-(U4-PB0-Pad46)*%
X77722012Y-105428500D03*
%TO.P,U4,47,PB1*%
%TO.N,unconnected-(U4-PB1-Pad47)*%
X77222012Y-105428500D03*
%TO.P,U4,48,PB2*%
%TO.N,unconnected-(U4-PB2-Pad48)*%
X76722012Y-105428500D03*
%TO.P,U4,49,PF11*%
%TO.N,/FMC_SDNRAS*%
X76222012Y-105428500D03*
%TO.P,U4,50,PF12*%
%TO.N,/FMC_A6*%
X75722012Y-105428500D03*
%TO.P,U4,51,VSS*%
%TO.N,GND*%
X75222012Y-105428500D03*
%TO.P,U4,52,VDD*%
%TO.N,+3.3V*%
X74722012Y-105428500D03*
%TO.P,U4,53,PF13*%
%TO.N,/FMC_A7*%
X74222012Y-105428500D03*
%TO.P,U4,54,PF14*%
%TO.N,/FMC_A8*%
X73722012Y-105428500D03*
%TO.P,U4,55,PF15*%
%TO.N,/FMC_A9*%
X73222012Y-105428500D03*
%TO.P,U4,56,PG0*%
%TO.N,/FMC_A10*%
X72722012Y-105428500D03*
%TO.P,U4,57,PG1*%
%TO.N,/FMC_A11*%
X72222012Y-105428500D03*
%TO.P,U4,58,PE7*%
%TO.N,/FMC_D4*%
X71722012Y-105428500D03*
%TO.P,U4,59,PE8*%
%TO.N,/FMC_D5*%
X71222012Y-105428500D03*
%TO.P,U4,60,PE9*%
%TO.N,/FMC_D6*%
X70722012Y-105428500D03*
%TO.P,U4,61,VSS*%
%TO.N,GND*%
X70222012Y-105428500D03*
%TO.P,U4,62,VDD*%
%TO.N,+3.3V*%
X69722012Y-105428500D03*
%TO.P,U4,63,PE10*%
%TO.N,/FMC_D7*%
X69222012Y-105428500D03*
%TO.P,U4,64,PE11*%
%TO.N,/FMC_D8*%
X68722012Y-105428500D03*
%TO.P,U4,65,PE12*%
%TO.N,/FMC_D9*%
X68222012Y-105428500D03*
%TO.P,U4,66,PE13*%
%TO.N,/FMC_D10*%
X67722012Y-105428500D03*
%TO.P,U4,67,PE14*%
%TO.N,/FMC_D11*%
X67222012Y-105428500D03*
%TO.P,U4,68,PE15*%
%TO.N,/FMC_D12*%
X66722012Y-105428500D03*
%TO.P,U4,69,PB10*%
%TO.N,unconnected-(U4-PB10-Pad69)*%
X66222012Y-105428500D03*
%TO.P,U4,70,PB11*%
%TO.N,unconnected-(U4-PB11-Pad70)*%
X65722012Y-105428500D03*
%TO.P,U4,71,VCAP*%
%TO.N,Net-(C35-Pad1)*%
X65222012Y-105428500D03*
%TO.P,U4,72,VDD*%
%TO.N,+3.3V*%
X64722012Y-105428500D03*
D11*
%TO.P,U4,73,PB12*%
%TO.N,unconnected-(U4-PB12-Pad73)*%
X62809512Y-107341000D03*
%TO.P,U4,74,PB13*%
%TO.N,unconnected-(U4-PB13-Pad74)*%
X62809512Y-107841000D03*
%TO.P,U4,75,PB14*%
%TO.N,/usb_DN*%
X62809512Y-108341000D03*
%TO.P,U4,76,PB15*%
%TO.N,/usb_DP*%
X62809512Y-108841000D03*
%TO.P,U4,77,PD8*%
%TO.N,/FMC_D13*%
X62809512Y-109341000D03*
%TO.P,U4,78,PD9*%
%TO.N,/FMC_D14*%
X62809512Y-109841000D03*
%TO.P,U4,79,PD10*%
%TO.N,/FMC_D15*%
X62809512Y-110341000D03*
%TO.P,U4,80,PD11*%
%TO.N,unconnected-(U4-PD11-Pad80)*%
X62809512Y-110841000D03*
%TO.P,U4,81,PD12*%
%TO.N,/I2C4_SCL*%
X62809512Y-111341000D03*
%TO.P,U4,82,PD13*%
%TO.N,/I2C4_SDA*%
X62809512Y-111841000D03*
%TO.P,U4,83,VSS*%
%TO.N,GND*%
X62809512Y-112341000D03*
%TO.P,U4,84,VDD*%
%TO.N,+3.3V*%
X62809512Y-112841000D03*
%TO.P,U4,85,PD14*%
%TO.N,/FMC_D0*%
X62809512Y-113341000D03*
%TO.P,U4,86,PD15*%
%TO.N,/FMC_D1*%
X62809512Y-113841000D03*
%TO.P,U4,87,PG2*%
%TO.N,/FMC_A12*%
X62809512Y-114341000D03*
%TO.P,U4,88,PG3*%
%TO.N,unconnected-(U4-PG3-Pad88)*%
X62809512Y-114841000D03*
%TO.P,U4,89,PG4*%
%TO.N,/FMC_BS0*%
X62809512Y-115341000D03*
%TO.P,U4,90,PG5*%
%TO.N,/FMC_BS1*%
X62809512Y-115841000D03*
%TO.P,U4,91,PG6*%
%TO.N,unconnected-(U4-PG6-Pad91)*%
X62809512Y-116341000D03*
%TO.P,U4,92,PG7*%
%TO.N,unconnected-(U4-PG7-Pad92)*%
X62809512Y-116841000D03*
%TO.P,U4,93,PG8*%
%TO.N,/FMC_SDCLK*%
X62809512Y-117341000D03*
%TO.P,U4,94,VSS*%
%TO.N,GND*%
X62809512Y-117841000D03*
%TO.P,U4,95,VDD33_USB*%
%TO.N,+3.3V*%
X62809512Y-118341000D03*
%TO.P,U4,96,PC6*%
%TO.N,/DCMI_D0*%
X62809512Y-118841000D03*
%TO.P,U4,97,PC7*%
%TO.N,/DCMI_D1*%
X62809512Y-119341000D03*
%TO.P,U4,98,PC8*%
%TO.N,unconnected-(U4-PC8-Pad98)*%
X62809512Y-119841000D03*
%TO.P,U4,99,PC9*%
%TO.N,unconnected-(U4-PC9-Pad99)*%
X62809512Y-120341000D03*
%TO.P,U4,100,PA8*%
%TO.N,/OV5640_PWDN*%
X62809512Y-120841000D03*
%TO.P,U4,101,PA9*%
%TO.N,/OV5640_RESET*%
X62809512Y-121341000D03*
%TO.P,U4,102,PA10*%
%TO.N,unconnected-(U4-PA10-Pad102)*%
X62809512Y-121841000D03*
%TO.P,U4,103,PA11*%
%TO.N,/UART4_RX*%
X62809512Y-122341000D03*
%TO.P,U4,104,PA12*%
%TO.N,/UART4_TX*%
X62809512Y-122841000D03*
%TO.P,U4,105,PA13*%
%TO.N,/SWDIO*%
X62809512Y-123341000D03*
%TO.P,U4,106,VCAP*%
%TO.N,Net-(C36-Pad2)*%
X62809512Y-123841000D03*
%TO.P,U4,107,VSS*%
%TO.N,GND*%
X62809512Y-124341000D03*
%TO.P,U4,108,VDD*%
%TO.N,+3.3V*%
X62809512Y-124841000D03*
D12*
%TO.P,U4,109,PA14*%
%TO.N,/SWCLK*%
X64722012Y-126753500D03*
%TO.P,U4,110,PA15*%
%TO.N,unconnected-(U4-PA15-Pad110)*%
X65222012Y-126753500D03*
%TO.P,U4,111,PC10*%
%TO.N,unconnected-(U4-PC10-Pad111)*%
X65722012Y-126753500D03*
%TO.P,U4,112,PC11*%
%TO.N,unconnected-(U4-PC11-Pad112)*%
X66222012Y-126753500D03*
%TO.P,U4,113,PC12*%
%TO.N,unconnected-(U4-PC12-Pad113)*%
X66722012Y-126753500D03*
%TO.P,U4,114,PD0*%
%TO.N,/FMC_D2*%
X67222012Y-126753500D03*
%TO.P,U4,115,PD1*%
%TO.N,/FMC_D3*%
X67722012Y-126753500D03*
%TO.P,U4,116,PD2*%
%TO.N,unconnected-(U4-PD2-Pad116)*%
X68222012Y-126753500D03*
%TO.P,U4,117,PD3*%
%TO.N,/DCMI_D5*%
X68722012Y-126753500D03*
%TO.P,U4,118,PD4*%
%TO.N,unconnected-(U4-PD4-Pad118)*%
X69222012Y-126753500D03*
%TO.P,U4,119,PD5*%
%TO.N,unconnected-(U4-PD5-Pad119)*%
X69722012Y-126753500D03*
%TO.P,U4,120,VSS*%
%TO.N,GND*%
X70222012Y-126753500D03*
%TO.P,U4,121,VDD*%
%TO.N,+3.3V*%
X70722012Y-126753500D03*
%TO.P,U4,122,PD6*%
%TO.N,unconnected-(U4-PD6-Pad122)*%
X71222012Y-126753500D03*
%TO.P,U4,123,PD7*%
%TO.N,unconnected-(U4-PD7-Pad123)*%
X71722012Y-126753500D03*
%TO.P,U4,124,PG9*%
%TO.N,/DCMI_VSYNC*%
X72222012Y-126753500D03*
%TO.P,U4,125,PG10*%
%TO.N,/DCMI_D2*%
X72722012Y-126753500D03*
%TO.P,U4,126,PG11*%
%TO.N,/DCMI_D3*%
X73222012Y-126753500D03*
%TO.P,U4,127,PG12*%
%TO.N,unconnected-(U4-PG12-Pad127)*%
X73722012Y-126753500D03*
%TO.P,U4,128,PG13*%
%TO.N,unconnected-(U4-PG13-Pad128)*%
X74222012Y-126753500D03*
%TO.P,U4,129,PG14*%
%TO.N,unconnected-(U4-PG14-Pad129)*%
X74722012Y-126753500D03*
%TO.P,U4,130,VSS*%
%TO.N,GND*%
X75222012Y-126753500D03*
%TO.P,U4,131,VDD*%
%TO.N,+3.3V*%
X75722012Y-126753500D03*
%TO.P,U4,132,PG15*%
%TO.N,/FMC_SDNCAS*%
X76222012Y-126753500D03*
%TO.P,U4,133,PB3*%
%TO.N,unconnected-(U4-PB3-Pad133)*%
X76722012Y-126753500D03*
%TO.P,U4,134,PB4*%
%TO.N,unconnected-(U4-PB4-Pad134)*%
X77222012Y-126753500D03*
%TO.P,U4,135,PB5*%
%TO.N,unconnected-(U4-PB5-Pad135)*%
X77722012Y-126753500D03*
%TO.P,U4,136,PB6*%
%TO.N,/I2C1_SCL*%
X78222012Y-126753500D03*
%TO.P,U4,137,PB7*%
%TO.N,/I2C1_SDA*%
X78722012Y-126753500D03*
%TO.P,U4,138,BOOT0*%
%TO.N,/BOOT0*%
X79222012Y-126753500D03*
%TO.P,U4,139,PB8*%
%TO.N,unconnected-(U4-PB8-Pad139)*%
X79722012Y-126753500D03*
%TO.P,U4,140,PB9*%
%TO.N,unconnected-(U4-PB9-Pad140)*%
X80222012Y-126753500D03*
%TO.P,U4,141,PE0*%
%TO.N,/FMC_NBL0*%
X80722012Y-126753500D03*
%TO.P,U4,142,PE1*%
%TO.N,/FMC_NBL1*%
X81222012Y-126753500D03*
%TO.P,U4,143,PDR_ON*%
%TO.N,GND*%
X81722012Y-126753500D03*
%TO.P,U4,144,VDD*%
%TO.N,+3.3V*%
X82222012Y-126753500D03*
%TD*%
D13*
%TO.P,U2,1,VIN*%
%TO.N,VCC*%
X88363000Y-128594500D03*
%TO.P,U2,2,GND*%
%TO.N,GND*%
X87413000Y-128594500D03*
%TO.P,U2,3,EN*%
%TO.N,VCC*%
X86463000Y-128594500D03*
%TO.P,U2,4,NC*%
%TO.N,unconnected-(U2-NC-Pad4)*%
X86463000Y-130869500D03*
%TO.P,U2,5,VOUT*%
%TO.N,+3.3V*%
X88363000Y-130869500D03*
%TD*%
D14*
%TO.P,C7,1*%
%TO.N,GND*%
X62862000Y-105315000D03*
%TO.P,C7,2*%
%TO.N,+3.3V*%
X63822000Y-105315000D03*
%TD*%
D15*
%TO.P,C8,1*%
%TO.N,GND*%
X86582012Y-109611000D03*
%TO.P,C8,2*%
%TO.N,+3.3V*%
X86582012Y-110571000D03*
%TD*%
%TO.P,C10,1*%
%TO.N,GND*%
X61362012Y-124461000D03*
%TO.P,C10,2*%
%TO.N,+3.3V*%
X61362012Y-125421000D03*
%TD*%
D16*
%TO.P,Y2,1,TRI-STATE*%
%TO.N,+3.3VA*%
X72305000Y-146237000D03*
%TO.P,Y2,2,GND*%
%TO.N,GND*%
X72305000Y-148087000D03*
%TO.P,Y2,3,OUTPUT*%
%TO.N,/camera/XCLK*%
X73755000Y-148087000D03*
%TO.P,Y2,4,VDD*%
%TO.N,+3.3VA*%
X73755000Y-146237000D03*
%TD*%
D17*
%TO.P,C19,1*%
%TO.N,GND*%
X70452012Y-103981000D03*
%TO.P,C19,2*%
%TO.N,+3.3V*%
X69492012Y-103981000D03*
%TD*%
D18*
%TO.P,R1,1*%
%TO.N,+3.3V*%
X86337000Y-108218000D03*
%TO.P,R1,2*%
%TO.N,/VDDA_PIN*%
X86337000Y-107198000D03*
%TD*%
D14*
%TO.P,C9,1*%
%TO.N,GND*%
X69992012Y-128201000D03*
%TO.P,C9,2*%
%TO.N,+3.3V*%
X70952012Y-128201000D03*
%TD*%
D19*
%TO.P,C4,1*%
%TO.N,GND*%
X87317000Y-108188000D03*
%TO.P,C4,2*%
%TO.N,/VDDA_PIN*%
X87317000Y-107228000D03*
%TD*%
%TO.P,C20,1*%
%TO.N,GND*%
X83137000Y-127787000D03*
%TO.P,C20,2*%
%TO.N,+3.3V*%
X83137000Y-126827000D03*
%TD*%
D15*
%TO.P,C3,1*%
%TO.N,GND*%
X89277000Y-107228000D03*
%TO.P,C3,2*%
%TO.N,/VREF_PIN*%
X89277000Y-108188000D03*
%TD*%
D20*
%TO.P,R2,1*%
%TO.N,/VDDA_PIN*%
X88297000Y-107198000D03*
%TO.P,R2,2*%
%TO.N,/VREF_PIN*%
X88297000Y-108218000D03*
%TD*%
D17*
%TO.P,C18,1*%
%TO.N,GND*%
X81952012Y-103981000D03*
%TO.P,C18,2*%
%TO.N,+3.3V*%
X80992012Y-103981000D03*
%TD*%
%TO.P,C34,1*%
%TO.N,GND*%
X88622000Y-110891000D03*
%TO.P,C34,2*%
%TO.N,Net-(U4-PH1)*%
X87662000Y-110891000D03*
%TD*%
D18*
%TO.P,R3,1*%
%TO.N,+3.3VA*%
X77922012Y-130510000D03*
%TO.P,R3,2*%
%TO.N,/I2C1_SCL*%
X77922012Y-129490000D03*
%TD*%
D21*
%TO.P,C15,1*%
%TO.N,GND*%
X86798000Y-132842000D03*
%TO.P,C15,2*%
%TO.N,+3.3V*%
X88348000Y-132842000D03*
%TD*%
D20*
%TO.P,R15,1*%
%TO.N,/I2C1_SDA*%
X79022012Y-129490000D03*
%TO.P,R15,2*%
%TO.N,+3.3VA*%
X79022012Y-130510000D03*
%TD*%
D21*
%TO.P,C35,1*%
%TO.N,Net-(C35-Pad1)*%
X65442012Y-103711000D03*
%TO.P,C35,2*%
%TO.N,GND*%
X66992012Y-103711000D03*
%TD*%
D22*
%TO.P,J4,1,Pin_1*%
%TO.N,/I2C4_SDA*%
X51645000Y-118620000D03*
%TO.P,J4,2,Pin_2*%
%TO.N,unconnected-(J4-Pin_2-Pad2)*%
X55815000Y-118620000D03*
%TO.P,J4,3,Pin_3*%
%TO.N,/I2C4_SCL*%
X51645000Y-120620000D03*
%TO.P,J4,4,Pin_4*%
%TO.N,unconnected-(J4-Pin_4-Pad4)*%
X55815000Y-120620000D03*
%TO.P,J4,5,Pin_5*%
%TO.N,unconnected-(J4-Pin_5-Pad5)*%
X51645000Y-122620000D03*
%TO.P,J4,6,Pin_6*%
%TO.N,unconnected-(J4-Pin_6-Pad6)*%
X55815000Y-122620000D03*
%TO.P,J4,7,Pin_7*%
%TO.N,unconnected-(J4-Pin_7-Pad7)*%
X51645000Y-124620000D03*
%TO.P,J4,8,Pin_8*%
%TO.N,GND*%
X55815000Y-124620000D03*
%TO.P,J4,9,Pin_9*%
%TO.N,unconnected-(J4-Pin_9-Pad9)*%
X51645000Y-126620000D03*
%TO.P,J4,10,Pin_10*%
%TO.N,GND*%
X55815000Y-126620000D03*
%TO.P,J4,11,Pin_11*%
%TO.N,unconnected-(J4-Pin_11-Pad11)*%
X51645000Y-128620000D03*
%TO.P,J4,12,Pin_12*%
%TO.N,/UART4_TX*%
X55815000Y-128620000D03*
%TO.P,J4,13,Pin_13*%
%TO.N,unconnected-(J4-Pin_13-Pad13)*%
X51645000Y-130620000D03*
%TO.P,J4,14,Pin_14*%
%TO.N,/UART4_RX*%
X55815000Y-130620000D03*
%TO.P,J4,15,Pin_15*%
%TO.N,/usb_DN*%
X51645000Y-132620000D03*
%TO.P,J4,16,Pin_16*%
%TO.N,/usb_DP*%
X55815000Y-132620000D03*
%TO.P,J4,17,Pin_17*%
%TO.N,GND*%
X51645000Y-134620000D03*
%TO.P,J4,18,Pin_18*%
X55815000Y-134620000D03*
%TO.P,J4,19,Pin_19*%
X51645000Y-136620000D03*
%TO.P,J4,20,Pin_20*%
X55815000Y-136620000D03*
%TD*%
D23*
%TO.P,SW2,1,1*%
%TO.N,GND*%
X92035000Y-110441000D03*
%TO.P,SW2,2,2*%
%TO.N,/RST*%
X92035000Y-114759000D03*
%TD*%
D22*
%TO.P,J5,1,Pin_1*%
%TO.N,unconnected-(J5-Pin_1-Pad1)*%
X92035000Y-118620000D03*
%TO.P,J5,2,Pin_2*%
%TO.N,unconnected-(J5-Pin_2-Pad2)*%
X96205000Y-118620000D03*
%TO.P,J5,3,Pin_3*%
%TO.N,unconnected-(J5-Pin_3-Pad3)*%
X92035000Y-120620000D03*
%TO.P,J5,4,Pin_4*%
%TO.N,unconnected-(J5-Pin_4-Pad4)*%
X96205000Y-120620000D03*
%TO.P,J5,5,Pin_5*%
%TO.N,unconnected-(J5-Pin_5-Pad5)*%
X92035000Y-122620000D03*
%TO.P,J5,6,Pin_6*%
%TO.N,unconnected-(J5-Pin_6-Pad6)*%
X96205000Y-122620000D03*
%TO.P,J5,7,Pin_7*%
%TO.N,unconnected-(J5-Pin_7-Pad7)*%
X92035000Y-124620000D03*
%TO.P,J5,8,Pin_8*%
%TO.N,unconnected-(J5-Pin_8-Pad8)*%
X96205000Y-124620000D03*
%TO.P,J5,9,Pin_9*%
%TO.N,VCC*%
X92035000Y-126620000D03*
%TO.P,J5,10,Pin_10*%
X96205000Y-126620000D03*
%TO.P,J5,11,Pin_11*%
%TO.N,/LTE_pwrkey*%
X92035000Y-128620000D03*
%TO.P,J5,12,Pin_12*%
%TO.N,/LTE_reset*%
X96205000Y-128620000D03*
%TO.P,J5,13,Pin_13*%
%TO.N,GND*%
X92035000Y-130620000D03*
%TO.P,J5,14,Pin_14*%
X96205000Y-130620000D03*
%TO.P,J5,15,Pin_15*%
X92035000Y-132620000D03*
%TO.P,J5,16,Pin_16*%
X96205000Y-132620000D03*
%TO.P,J5,17,Pin_17*%
%TO.N,unconnected-(J5-Pin_17-Pad17)*%
X92035000Y-134620000D03*
%TO.P,J5,18,Pin_18*%
%TO.N,unconnected-(J5-Pin_18-Pad18)*%
X96205000Y-134620000D03*
%TO.P,J5,19,Pin_19*%
%TO.N,unconnected-(J5-Pin_19-Pad19)*%
X92035000Y-136620000D03*
%TO.P,J5,20,Pin_20*%
%TO.N,unconnected-(J5-Pin_20-Pad20)*%
X96205000Y-136620000D03*
%TD*%
D19*
%TO.P,C21,1*%
%TO.N,GND*%
X85582012Y-117571000D03*
%TO.P,C21,2*%
%TO.N,+3.3V*%
X85582012Y-116611000D03*
%TD*%
D24*
%TO.P,C13,1*%
%TO.N,GND*%
X87467012Y-122341000D03*
%TO.P,C13,2*%
%TO.N,+3.3V*%
X85917012Y-122341000D03*
%TD*%
D17*
%TO.P,C1,1*%
%TO.N,Net-(U4-PH0)*%
X88622000Y-116291000D03*
%TO.P,C1,2*%
%TO.N,GND*%
X87662000Y-116291000D03*
%TD*%
D25*
%TO.P,C36,1*%
%TO.N,GND*%
X60097000Y-125500000D03*
%TO.P,C36,2*%
%TO.N,Net-(C36-Pad2)*%
X60097000Y-123950000D03*
%TD*%
D14*
%TO.P,C41,1*%
%TO.N,/OV5640_RESET*%
X77266000Y-150113000D03*
%TO.P,C41,2*%
%TO.N,GND*%
X78226000Y-150113000D03*
%TD*%
D15*
%TO.P,C11,1*%
%TO.N,GND*%
X61362012Y-112111000D03*
%TO.P,C11,2*%
%TO.N,+3.3V*%
X61362012Y-113071000D03*
%TD*%
D26*
%TO.P,R16,1*%
%TO.N,/OV5640_RESET*%
X77236000Y-151140000D03*
%TO.P,R16,2*%
%TO.N,+3.3VA*%
X78256000Y-151140000D03*
%TD*%
D27*
%TO.P,R17,1*%
%TO.N,/OV5640_PWDN*%
X76181000Y-151140000D03*
%TO.P,R17,2*%
%TO.N,GND*%
X75161000Y-151140000D03*
%TD*%
%TO.P,R14,1*%
%TO.N,GND*%
X80805000Y-128290000D03*
%TO.P,R14,2*%
%TO.N,/BOOT0*%
X79785000Y-128290000D03*
%TD*%
D24*
%TO.P,C14,1*%
%TO.N,VCC*%
X88333000Y-126622000D03*
%TO.P,C14,2*%
%TO.N,GND*%
X86783000Y-126622000D03*
%TD*%
D14*
%TO.P,C22,1*%
%TO.N,GND*%
X74992012Y-128201000D03*
%TO.P,C22,2*%
%TO.N,+3.3V*%
X75952012Y-128201000D03*
%TD*%
%TO.P,C40,1*%
%TO.N,/DCMI_PIXCLK*%
X71695000Y-151140000D03*
%TO.P,C40,2*%
%TO.N,GND*%
X72655000Y-151140000D03*
%TD*%
D17*
%TO.P,C12,1*%
%TO.N,GND*%
X75452012Y-103981000D03*
%TO.P,C12,2*%
%TO.N,+3.3V*%
X74492012Y-103981000D03*
%TD*%
%TO.P,C2,1*%
%TO.N,/RST*%
X92515000Y-116130000D03*
%TO.P,C2,2*%
%TO.N,GND*%
X91555000Y-116130000D03*
%TD*%
D28*
%TO.N,GND*%
X60070000Y-118695000D03*
X92590000Y-108615000D03*
D29*
X73472012Y-114491000D03*
D28*
X60070000Y-121290000D03*
X50210000Y-115420000D03*
D29*
X87662000Y-116291000D03*
D28*
X89010000Y-140895000D03*
D30*
X55815000Y-134620000D03*
D29*
X71452954Y-117130292D03*
D28*
X72200000Y-124400000D03*
X62330000Y-138490000D03*
X75400000Y-124400000D03*
X51830000Y-112110000D03*
X76500000Y-130200000D03*
X85798000Y-142945000D03*
X75000000Y-130200000D03*
X93140000Y-140895000D03*
X79189000Y-151111000D03*
X87413000Y-128382000D03*
X60073000Y-109990000D03*
X89010000Y-144900000D03*
D29*
X62862000Y-105315000D03*
D28*
X89010000Y-148905000D03*
X86840000Y-138600000D03*
X74000000Y-128400000D03*
D29*
X83137000Y-127787000D03*
D28*
X77200000Y-125200000D03*
X55210000Y-116120000D03*
D29*
X68490000Y-111130000D03*
D30*
X92035000Y-110441000D03*
D28*
X62234500Y-141359500D03*
D29*
X61779000Y-132961500D03*
D28*
X61934500Y-142947500D03*
X89391000Y-122436000D03*
D29*
X91555000Y-116130000D03*
D31*
X87868000Y-136287000D03*
D28*
X70600000Y-125200000D03*
D31*
X60097000Y-125500000D03*
D28*
X55305000Y-140770000D03*
D31*
X59990000Y-126856500D03*
D29*
X80805000Y-128290000D03*
D28*
X56620000Y-146210000D03*
X81300000Y-122510000D03*
X70600000Y-124400000D03*
D29*
X81200000Y-118127000D03*
X75452012Y-103981000D03*
D28*
X57500000Y-106270000D03*
X60070000Y-116100000D03*
X74600000Y-124400000D03*
D30*
X55815000Y-126620000D03*
D29*
X66640000Y-119770000D03*
X72672012Y-117691000D03*
X69354000Y-128933000D03*
X67860000Y-116400000D03*
D30*
X51645000Y-134620000D03*
D28*
X83402084Y-147260833D03*
X66992012Y-103711000D03*
X57760000Y-113790000D03*
D29*
X72655000Y-151140000D03*
D28*
X70600000Y-130200000D03*
X62330000Y-135930000D03*
X74200000Y-130200000D03*
D29*
X70452012Y-103981000D03*
D28*
X86353000Y-147042000D03*
D29*
X71872012Y-114491000D03*
D28*
X87378000Y-120465000D03*
X91540000Y-146235000D03*
D29*
X61530000Y-117854000D03*
D28*
X86783000Y-126622000D03*
D29*
X74409000Y-151140000D03*
D28*
X76500000Y-129400000D03*
X86097000Y-141359000D03*
D29*
X81952012Y-103981000D03*
D28*
X66680000Y-142160000D03*
X89500000Y-105915000D03*
X77100000Y-128400000D03*
D30*
X96205000Y-130620000D03*
D28*
X80850000Y-142160000D03*
X87560000Y-117955000D03*
X70600000Y-131000000D03*
X94450000Y-143585000D03*
X74200000Y-131000000D03*
X66475000Y-147215000D03*
D29*
X63875000Y-147668000D03*
D28*
X59310000Y-144900000D03*
X73000000Y-125200000D03*
D29*
X86582012Y-109611000D03*
X79060000Y-114590000D03*
D28*
X81310000Y-107820000D03*
D30*
X92035000Y-132620000D03*
D28*
X59310000Y-140770000D03*
X73140000Y-122510000D03*
D29*
X66640000Y-112370000D03*
D28*
X71400000Y-125200000D03*
D30*
X55815000Y-136620000D03*
D28*
X62489500Y-147041500D03*
X67450000Y-129930000D03*
X71400000Y-124400000D03*
X75000000Y-131000000D03*
D29*
X85582012Y-117571000D03*
D28*
X72200000Y-125200000D03*
D29*
X61362012Y-124461000D03*
D28*
X75400000Y-125200000D03*
X77200000Y-124400000D03*
X73800000Y-125200000D03*
D30*
X92035000Y-130620000D03*
D29*
X77210000Y-112880000D03*
D28*
X65190000Y-111920000D03*
X71400000Y-131000000D03*
D29*
X74992012Y-128201000D03*
D28*
X65190000Y-107820000D03*
X87467012Y-122341000D03*
X81920000Y-130180000D03*
X73760000Y-138650000D03*
X59310000Y-149030000D03*
X97270000Y-140895000D03*
X66670000Y-138520000D03*
D29*
X88622000Y-110891000D03*
X89277000Y-107228000D03*
D28*
X62890000Y-128720000D03*
D31*
X86798000Y-132842000D03*
D28*
X97520000Y-115215000D03*
X51300000Y-140770000D03*
X74200000Y-129400000D03*
X61130000Y-104090000D03*
X76500000Y-131000000D03*
X86190000Y-104295000D03*
X53970000Y-143300000D03*
D29*
X74880000Y-109720000D03*
D28*
X74600000Y-125200000D03*
D30*
X55815000Y-124620000D03*
D29*
X67850000Y-120170000D03*
D28*
X75000000Y-129400000D03*
D30*
X96205000Y-132620000D03*
D29*
X81772012Y-125610000D03*
D31*
X94094000Y-135072000D03*
D28*
X73000000Y-124400000D03*
X89626000Y-135667000D03*
X54530000Y-109020000D03*
D29*
X87317000Y-108188000D03*
X61362012Y-112111000D03*
D28*
X71400000Y-129400000D03*
D29*
X83970000Y-149684000D03*
D30*
X51645000Y-136620000D03*
D28*
X71400000Y-130200000D03*
X73800000Y-124400000D03*
X95340000Y-111585000D03*
X80850000Y-138700000D03*
D29*
%TO.N,/RST*%
X85537000Y-112677000D03*
D28*
X92035000Y-114759000D03*
D29*
%TO.N,+3.3V*%
X63822000Y-105315000D03*
X69357000Y-129739000D03*
X86337000Y-108218000D03*
X61362012Y-113071000D03*
X69492012Y-103981000D03*
X61779000Y-130419000D03*
X86582012Y-110571000D03*
X61362012Y-125421000D03*
D31*
X88348000Y-132842000D03*
D29*
X80992012Y-103981000D03*
X64032000Y-118332000D03*
X74492012Y-103981000D03*
D31*
X59990000Y-137026500D03*
D29*
X85582012Y-116611000D03*
X75816952Y-132198952D03*
D28*
X85917012Y-122341000D03*
D29*
X83137000Y-126827000D03*
D31*
%TO.N,VCC*%
X87868000Y-134737000D03*
D29*
%TO.N,/camera/2.8V_camera*%
X83970000Y-148724000D03*
X78378000Y-148376000D03*
%TO.N,/DCMI_PIXCLK*%
X71695000Y-151140000D03*
X79722012Y-104116000D03*
X72175000Y-145118000D03*
%TO.N,/OV5640_RESET*%
X64917000Y-120941000D03*
X77775000Y-145118000D03*
X77236000Y-151140000D03*
%TO.N,/SWCLK*%
X61779000Y-131941500D03*
%TO.N,/BOOT0*%
X79785000Y-128290000D03*
%TO.N,/SWDIO*%
X61779000Y-129399000D03*
%TO.N,/LTE_reset*%
X86778000Y-125227000D03*
D30*
X96205000Y-128620000D03*
%TO.N,/LTE_pwrkey*%
X92035000Y-128620000D03*
D29*
X86754000Y-124285000D03*
%TO.N,/DCMI_VSYNC*%
X77075000Y-145118000D03*
X72022012Y-132736000D03*
%TO.N,/DCMI_D7*%
X74975000Y-145118000D03*
X83134512Y-122841000D03*
%TO.N,/I2C1_SCL*%
X78475000Y-145118000D03*
%TO.N,/DCMI_D2*%
X68675000Y-145118000D03*
X71592000Y-135824000D03*
X72722012Y-132736000D03*
D28*
%TO.N,/OV5640_PWDN*%
X68950000Y-135938000D03*
X70079500Y-134785500D03*
D29*
X64917000Y-120241000D03*
X76181000Y-151140000D03*
X76375000Y-145118000D03*
D28*
%TO.N,/camera/DATA1*%
X62804500Y-150443000D03*
X68675000Y-150984000D03*
D29*
%TO.N,/DCMI_D4*%
X71475000Y-145118000D03*
X81230500Y-145609500D03*
X83134512Y-123841000D03*
%TO.N,/DCMI_D6*%
X73575000Y-145118000D03*
X85134512Y-123346000D03*
%TO.N,/DCMI_D1*%
X64917000Y-119541000D03*
X69375000Y-145118000D03*
%TO.N,/DCMI_HYSNC*%
X75675000Y-145118000D03*
X80722012Y-106547000D03*
%TO.N,/DCMI_D0*%
X70775000Y-145118000D03*
X64917000Y-118841000D03*
%TO.N,/DCMI_D3*%
X70075000Y-145118000D03*
X72087000Y-136733000D03*
X73422012Y-132736000D03*
%TO.N,/DCMI_D5*%
X72875000Y-145118000D03*
D28*
X68722012Y-128120000D03*
D29*
%TO.N,/I2C1_SDA*%
X79175000Y-145118000D03*
%TO.N,/FMC_SDCKE0*%
X82920000Y-110841000D03*
%TO.N,/FMC_A3*%
X76672012Y-117691000D03*
%TO.N,/FMC_A9*%
X73222012Y-108210000D03*
X75072012Y-114491000D03*
%TO.N,/FMC_D10*%
X67723012Y-107090000D03*
%TO.N,/FMC_D1*%
X69305765Y-119842268D03*
X64977057Y-113790000D03*
%TO.N,/FMC_A6*%
X76680000Y-112140000D03*
%TO.N,/FMC_D6*%
X72672012Y-118491000D03*
X70604544Y-108210000D03*
X70121862Y-106790000D03*
%TO.N,/FMC_D12*%
X66623012Y-107090000D03*
%TO.N,/FMC_A8*%
X75872012Y-112891000D03*
%TO.N,/FMC_NBL1*%
X79730000Y-123440000D03*
X78380000Y-110680000D03*
X76430000Y-110680000D03*
%TO.N,/FMC_D0*%
X64250000Y-113260000D03*
%TO.N,/FMC_SDNRAS*%
X74272012Y-118491000D03*
X76340000Y-107430000D03*
X77405000Y-111355000D03*
%TO.N,/FMC_D2*%
X71070000Y-118500000D03*
%TO.N,/FMC_D11*%
X71872012Y-113691000D03*
%TO.N,/FMC_SDNE0*%
X82920000Y-111842629D03*
X80860384Y-114930384D03*
X75072012Y-119291000D03*
%TO.N,/FMC_A1*%
X75872012Y-118491000D03*
%TO.N,/FMC_SDNWE*%
X76660000Y-120630000D03*
X82920000Y-112606003D03*
X81660000Y-114930384D03*
%TO.N,/FMC_D3*%
X67772012Y-124830000D03*
%TO.N,/FMC_A4*%
X76672012Y-114491000D03*
%TO.N,/FMC_A10*%
X75872012Y-119291000D03*
X73311597Y-111908403D03*
X72460000Y-108210000D03*
X75490000Y-117140000D03*
%TO.N,/FMC_A11*%
X75070000Y-113680000D03*
%TO.N,/FMC_D15*%
X64940000Y-110450000D03*
%TO.N,/FMC_D8*%
X68824012Y-106790000D03*
%TO.N,/FMC_SDNCAS*%
X76230000Y-122750000D03*
X74272012Y-117691000D03*
%TO.N,/FMC_A5*%
X76672012Y-113691000D03*
%TO.N,/FMC_D14*%
X64160000Y-109890000D03*
%TO.N,/FMC_D13*%
X71072012Y-113691000D03*
%TO.N,/FMC_A7*%
X75872012Y-113691000D03*
%TO.N,/FMC_A0*%
X76210000Y-117160000D03*
X77590000Y-121140000D03*
%TO.N,/FMC_D5*%
X71206732Y-106693268D03*
X72672012Y-119291000D03*
%TO.N,/FMC_D4*%
X71330000Y-108210000D03*
X72280000Y-104080000D03*
X71872012Y-118491000D03*
%TO.N,/FMC_NBL0*%
X73472012Y-118491000D03*
%TO.N,/FMC_D7*%
X73472012Y-119291000D03*
X68630000Y-103640000D03*
X69460000Y-107090000D03*
%TO.N,/FMC_A2*%
X77253183Y-118691000D03*
%TO.N,/FMC_SDCLK*%
X74272012Y-115400000D03*
X74272012Y-113691000D03*
D30*
%TO.N,/UART4_RX*%
X55815000Y-130620000D03*
D28*
X57607000Y-127621000D03*
D29*
%TO.N,/FMC_A12*%
X75072012Y-112891000D03*
X61240000Y-114340000D03*
%TO.N,/FMC_D9*%
X72672012Y-113691000D03*
%TO.N,/FMC_BS1*%
X64917000Y-116240000D03*
X66560000Y-116220000D03*
X75072012Y-118491000D03*
%TO.N,/FMC_BS0*%
X64917000Y-115512706D03*
%TO.N,/I2C4_SDA*%
X64160000Y-111860000D03*
D30*
X51645000Y-118620000D03*
D29*
%TO.N,/I2C4_SCL*%
X58005000Y-120620000D03*
D30*
X51645000Y-120620000D03*
D29*
%TO.N,/camera/XCLK*%
X73755000Y-148087000D03*
D28*
%TO.N,+3.3VA*%
X60684500Y-141359500D03*
D29*
X66640000Y-118810000D03*
X67850000Y-119210000D03*
X80290000Y-121440000D03*
X73221013Y-110262183D03*
D31*
X94094000Y-136622000D03*
D28*
X61504500Y-150443000D03*
D29*
X78256000Y-151140000D03*
D28*
X62884500Y-142947500D03*
X86748000Y-142945000D03*
D29*
X73472012Y-117691000D03*
D28*
X84547000Y-141359000D03*
X84848000Y-142945000D03*
D29*
X79060000Y-115550000D03*
X79022012Y-130510000D03*
D28*
X60984500Y-142947500D03*
D29*
X75111000Y-148669000D03*
X66670000Y-114755000D03*
X67860000Y-117340000D03*
X71872012Y-117691000D03*
%TD*%
D32*
%TO.N,VCC*%
X88363000Y-126652000D02*
X88333000Y-126622000D01*
X88363000Y-128594500D02*
X88363000Y-126652000D01*
X88363000Y-129256999D02*
X88363000Y-128594500D01*
X87009900Y-129708000D02*
X87911999Y-129708000D01*
X86463000Y-129161100D02*
X87009900Y-129708000D01*
X87911999Y-129708000D02*
X88363000Y-129256999D01*
X86463000Y-128594500D02*
X86463000Y-129161100D01*
D33*
%TO.N,GND*%
X62809512Y-112341000D02*
X61592012Y-112341000D01*
X75222012Y-127971000D02*
X74992012Y-128201000D01*
X81772012Y-125610000D02*
X81754024Y-125610000D01*
X81722012Y-104211000D02*
X81952012Y-103981000D01*
X69992012Y-128280988D02*
X69992012Y-128201000D01*
D32*
X72305000Y-149668000D02*
X72655000Y-150018000D01*
D34*
X75161000Y-151140000D02*
X74409000Y-151140000D01*
D33*
X87662000Y-115061000D02*
X87292000Y-114691000D01*
X75222012Y-126753500D02*
X75222012Y-127971000D01*
X88622000Y-110891000D02*
X88622000Y-112121000D01*
X87662000Y-115061000D02*
X87662000Y-116291000D01*
X69354000Y-128933000D02*
X69354000Y-128919000D01*
X61592012Y-112341000D02*
X61362012Y-112111000D01*
X69992012Y-128201000D02*
X70222012Y-127971000D01*
X70222012Y-105428500D02*
X70222012Y-104211000D01*
X81722012Y-105428500D02*
X81722012Y-104211000D01*
X84134512Y-117341000D02*
X85352012Y-117341000D01*
D32*
X72655000Y-150018000D02*
X72655000Y-151140000D01*
D33*
X88622000Y-112121000D02*
X88992000Y-112491000D01*
X61543000Y-117841000D02*
X61530000Y-117854000D01*
D34*
X78226000Y-150113000D02*
X78816000Y-150113000D01*
D33*
X70222012Y-127971000D02*
X70222012Y-126753500D01*
X81722012Y-125642012D02*
X81722012Y-126753500D01*
X81754024Y-125610000D02*
X81722012Y-125642012D01*
X70222012Y-104211000D02*
X70452012Y-103981000D01*
X85352012Y-117341000D02*
X85582012Y-117571000D01*
X84134512Y-109841000D02*
X86352012Y-109841000D01*
X62809512Y-124341000D02*
X61482012Y-124341000D01*
X62809512Y-117841000D02*
X61543000Y-117841000D01*
D34*
X78816000Y-150113000D02*
X79189000Y-150486000D01*
D33*
X61482012Y-124341000D02*
X61362012Y-124461000D01*
X75222012Y-105428500D02*
X75222012Y-104211000D01*
D32*
X72305000Y-148087000D02*
X72305000Y-149668000D01*
D33*
X75222012Y-104211000D02*
X75452012Y-103981000D01*
D34*
X79189000Y-150486000D02*
X79189000Y-151111000D01*
D33*
X86352012Y-109841000D02*
X86582012Y-109611000D01*
X69354000Y-128919000D02*
X69992012Y-128280988D01*
%TO.N,Net-(U4-PH0)*%
X86550000Y-113592000D02*
X86301000Y-113841000D01*
X88992000Y-114389000D02*
X88195000Y-113592000D01*
X88622000Y-116291000D02*
X88622000Y-115061000D01*
X86301000Y-113841000D02*
X84134512Y-113841000D01*
X88992000Y-114691000D02*
X88992000Y-114389000D01*
X88195000Y-113592000D02*
X86550000Y-113592000D01*
X88622000Y-115061000D02*
X88992000Y-114691000D01*
D32*
%TO.N,/RST*%
X92515000Y-115239000D02*
X92035000Y-114759000D01*
D33*
X84134512Y-112841000D02*
X85373000Y-112841000D01*
X85373000Y-112841000D02*
X85537000Y-112677000D01*
D32*
X92515000Y-116130000D02*
X92515000Y-115239000D01*
D33*
%TO.N,/VREF_PIN*%
X85777000Y-109341000D02*
X86151000Y-108967000D01*
D32*
X89277000Y-108188000D02*
X89256000Y-108209000D01*
D33*
X88297000Y-108676000D02*
X88297000Y-108218000D01*
D32*
X89256000Y-108209000D02*
X88306000Y-108209000D01*
D33*
X84134512Y-109341000D02*
X85777000Y-109341000D01*
X88006000Y-108967000D02*
X88297000Y-108676000D01*
D32*
X88306000Y-108209000D02*
X88297000Y-108218000D01*
D33*
X86151000Y-108967000D02*
X88006000Y-108967000D01*
%TO.N,/VDDA_PIN*%
X84134512Y-108841000D02*
X85245000Y-108841000D01*
D32*
X88288000Y-107207000D02*
X87338000Y-107207000D01*
X86350000Y-107211000D02*
X86337000Y-107198000D01*
X87338000Y-107207000D02*
X87317000Y-107228000D01*
D33*
X85245000Y-108841000D02*
X85497000Y-108589000D01*
X85816000Y-107198000D02*
X86337000Y-107198000D01*
D32*
X87300000Y-107211000D02*
X86350000Y-107211000D01*
X88297000Y-107198000D02*
X88288000Y-107207000D01*
X87317000Y-107228000D02*
X87300000Y-107211000D01*
D33*
X85497000Y-108589000D02*
X85497000Y-107517000D01*
X85497000Y-107517000D02*
X85816000Y-107198000D01*
%TO.N,+3.3V*%
X84134512Y-116841000D02*
X85352012Y-116841000D01*
X75816952Y-128336060D02*
X75952012Y-128201000D01*
X75722012Y-127971000D02*
X75952012Y-128201000D01*
X75722012Y-126753500D02*
X75722012Y-127971000D01*
X83063500Y-126753500D02*
X83137000Y-126827000D01*
X74722012Y-105428500D02*
X74722012Y-104211000D01*
D35*
X88363000Y-131082000D02*
X88363000Y-132827000D01*
D33*
X62809512Y-112841000D02*
X61592012Y-112841000D01*
X61990272Y-124841000D02*
X61410272Y-125421000D01*
X81222012Y-104211000D02*
X80992012Y-103981000D01*
X62809512Y-124841000D02*
X61990272Y-124841000D01*
X70952012Y-128201000D02*
X70722012Y-127971000D01*
X84134512Y-110341000D02*
X86352012Y-110341000D01*
X69357000Y-129739000D02*
X70051000Y-129739000D01*
X75816952Y-132198952D02*
X75816952Y-128336060D01*
X84134512Y-122341000D02*
X85917012Y-122341000D01*
X85352012Y-116841000D02*
X85582012Y-116611000D01*
D35*
X88363000Y-132827000D02*
X88348000Y-132842000D01*
D33*
X74722012Y-104211000D02*
X74492012Y-103981000D01*
X64608512Y-105315000D02*
X64722012Y-105428500D01*
X61410272Y-125421000D02*
X61362012Y-125421000D01*
X62809512Y-118341000D02*
X64023000Y-118341000D01*
X69722012Y-104211000D02*
X69722012Y-105428500D01*
X63822000Y-105315000D02*
X64608512Y-105315000D01*
X86352012Y-110341000D02*
X86582012Y-110571000D01*
X69492012Y-103981000D02*
X69722012Y-104211000D01*
X61592012Y-112841000D02*
X61362012Y-113071000D01*
X81222012Y-105428500D02*
X81222012Y-104211000D01*
X70952012Y-128837988D02*
X70952012Y-128201000D01*
X70051000Y-129739000D02*
X70952012Y-128837988D01*
X70722012Y-127971000D02*
X70722012Y-126753500D01*
X82222012Y-126753500D02*
X83063500Y-126753500D01*
X64023000Y-118341000D02*
X64032000Y-118332000D01*
D36*
%TO.N,VCC*%
X96205000Y-126620000D02*
X92035000Y-126620000D01*
D37*
X92022000Y-126633000D02*
X92035000Y-126620000D01*
X89985000Y-126620000D02*
X89985000Y-133644000D01*
X89985000Y-133644000D02*
X88892000Y-134737000D01*
X92035000Y-126620000D02*
X89985000Y-126620000D01*
X88892000Y-134737000D02*
X87868000Y-134737000D01*
X89985000Y-126620000D02*
X88335000Y-126620000D01*
X88335000Y-126620000D02*
X88333000Y-126622000D01*
D33*
%TO.N,Net-(U4-PH1)*%
X87662000Y-112121000D02*
X87292000Y-112491000D01*
X87662000Y-110891000D02*
X87662000Y-112121000D01*
X86185000Y-113041000D02*
X86742000Y-113041000D01*
X84134512Y-113341000D02*
X85885000Y-113341000D01*
X85885000Y-113341000D02*
X86185000Y-113041000D01*
D38*
%TO.N,Net-(C35-Pad1)*%
X65222012Y-103931000D02*
X65442012Y-103711000D01*
X65222012Y-105428500D02*
X65222012Y-103931000D01*
D33*
%TO.N,Net-(C36-Pad2)*%
X61884478Y-123758000D02*
X61967478Y-123841000D01*
X60289000Y-123758000D02*
X61884478Y-123758000D01*
X60097000Y-123950000D02*
X60289000Y-123758000D01*
X61967478Y-123841000D02*
X62809512Y-123841000D01*
%TO.N,/camera/2.8V_camera*%
X83622000Y-148376000D02*
X83970000Y-148724000D01*
X78378000Y-148376000D02*
X83622000Y-148376000D01*
D39*
%TO.N,/DCMI_PIXCLK*%
X79722012Y-105428500D02*
X79722012Y-104116000D01*
%TO.N,/OV5640_RESET*%
X62809512Y-121341000D02*
X63911000Y-121341000D01*
D34*
X77266000Y-151110000D02*
X77236000Y-151140000D01*
D39*
X63911000Y-121341000D02*
X64311000Y-120941000D01*
X64311000Y-120941000D02*
X64917000Y-120941000D01*
D34*
X77266000Y-150113000D02*
X77266000Y-151110000D01*
D33*
%TO.N,/SWCLK*%
X64722012Y-130029988D02*
X62810500Y-131941500D01*
X64722012Y-126753500D02*
X64722012Y-130029988D01*
X62810500Y-131941500D02*
X61779000Y-131941500D01*
%TO.N,/BOOT0*%
X79222012Y-127727012D02*
X79785000Y-128290000D01*
X79222012Y-126753500D02*
X79222012Y-127727012D01*
%TO.N,/SWDIO*%
X64261000Y-125226000D02*
X61779000Y-127708000D01*
X63922000Y-123341000D02*
X64261000Y-123680000D01*
X61779000Y-127708000D02*
X61779000Y-129399000D01*
X64261000Y-123680000D02*
X64261000Y-125226000D01*
X62809512Y-123341000D02*
X63922000Y-123341000D01*
%TO.N,/LTE_reset*%
X84134512Y-124841000D02*
X86392000Y-124841000D01*
X86392000Y-124841000D02*
X86778000Y-125227000D01*
%TO.N,/LTE_pwrkey*%
X84134512Y-124341000D02*
X86698000Y-124341000D01*
X86698000Y-124341000D02*
X86754000Y-124285000D01*
D39*
%TO.N,/DCMI_VSYNC*%
X72222012Y-126753500D02*
X72222012Y-128957232D01*
X72222012Y-128957232D02*
X72022012Y-129157232D01*
X72022012Y-129157232D02*
X72022012Y-132736000D01*
%TO.N,/DCMI_D7*%
X83134512Y-122841000D02*
X84134512Y-122841000D01*
D33*
%TO.N,/I2C1_SCL*%
X78222012Y-126753500D02*
X78222012Y-129190000D01*
D39*
X77177000Y-129827000D02*
X77514000Y-129490000D01*
X77514000Y-129490000D02*
X77922012Y-129490000D01*
X77177000Y-131063000D02*
X77177000Y-129827000D01*
D33*
X78222012Y-129190000D02*
X77922012Y-129490000D01*
D39*
X78475000Y-132361000D02*
X77177000Y-131063000D01*
X78475000Y-145118000D02*
X78475000Y-132361000D01*
%TO.N,/DCMI_D2*%
X72722012Y-126753500D02*
X72722012Y-132736000D01*
%TO.N,/OV5640_PWDN*%
X63635000Y-120841000D02*
X64235000Y-120241000D01*
X64235000Y-120241000D02*
X64917000Y-120241000D01*
X62809512Y-120841000D02*
X63635000Y-120841000D01*
D33*
%TO.N,/camera/DATA1*%
X68134000Y-150443000D02*
X62804500Y-150443000D01*
X68675000Y-150984000D02*
X68134000Y-150443000D01*
D39*
%TO.N,/DCMI_D4*%
X84134512Y-123841000D02*
X83134512Y-123841000D01*
%TO.N,/DCMI_D6*%
X84139512Y-123346000D02*
X84134512Y-123341000D01*
X85134512Y-123346000D02*
X84139512Y-123346000D01*
%TO.N,/DCMI_D1*%
X64917000Y-119541000D02*
X64431000Y-119541000D01*
X64431000Y-119541000D02*
X64231000Y-119341000D01*
X64231000Y-119341000D02*
X62809512Y-119341000D01*
%TO.N,/DCMI_HYSNC*%
X80722012Y-105428500D02*
X80722012Y-106547000D01*
%TO.N,/DCMI_D0*%
X62851512Y-118883000D02*
X64875000Y-118883000D01*
X62809512Y-118841000D02*
X62851512Y-118883000D01*
X64875000Y-118883000D02*
X64917000Y-118841000D01*
%TO.N,/DCMI_D3*%
X73222012Y-128970012D02*
X73422012Y-129170012D01*
X73422012Y-129170012D02*
X73422012Y-132736000D01*
X73222012Y-126753500D02*
X73222012Y-128970012D01*
%TO.N,/DCMI_D5*%
X68722012Y-128120000D02*
X68722012Y-126753500D01*
%TO.N,/I2C1_SDA*%
X79175000Y-145118000D02*
X79175000Y-132358000D01*
X79897000Y-129731000D02*
X79656000Y-129490000D01*
X79175000Y-132358000D02*
X79897000Y-131636000D01*
D33*
X78722012Y-126753500D02*
X78722012Y-129190000D01*
X78722012Y-129190000D02*
X79022012Y-129490000D01*
D39*
X79897000Y-131636000D02*
X79897000Y-129731000D01*
X79656000Y-129490000D02*
X79022012Y-129490000D01*
%TO.N,/FMC_SDCKE0*%
X82920000Y-110841000D02*
X84134512Y-110841000D01*
%TO.N,/FMC_A3*%
X82528700Y-118850000D02*
X84125512Y-118850000D01*
X77031000Y-117691000D02*
X78819000Y-119479000D01*
X76672012Y-117691000D02*
X77031000Y-117691000D01*
X78819000Y-119479000D02*
X81899700Y-119479000D01*
X84125512Y-118850000D02*
X84134512Y-118841000D01*
X81899700Y-119479000D02*
X82528700Y-118850000D01*
%TO.N,/FMC_A9*%
X73222012Y-108210000D02*
X73222012Y-105428500D01*
%TO.N,/FMC_D10*%
X67723012Y-107110000D02*
X67723012Y-105429500D01*
X67723012Y-105429500D02*
X67722012Y-105428500D01*
%TO.N,/FMC_D1*%
X64977057Y-113790000D02*
X64877057Y-113890000D01*
X64877057Y-113890000D02*
X62858512Y-113890000D01*
X62858512Y-113890000D02*
X62809512Y-113841000D01*
%TO.N,/FMC_A6*%
X76680000Y-112140000D02*
X75722012Y-111182012D01*
X75722012Y-111182012D02*
X75722012Y-105428500D01*
%TO.N,/FMC_D6*%
X70128276Y-106793560D02*
X70722012Y-106199824D01*
X70121862Y-106793560D02*
X70128276Y-106793560D01*
X70722012Y-106199824D02*
X70722012Y-105428500D01*
%TO.N,/FMC_D12*%
X66673012Y-105477500D02*
X66722012Y-105428500D01*
X66673012Y-107040000D02*
X66673012Y-105477500D01*
X66623012Y-107090000D02*
X66673012Y-107040000D01*
%TO.N,/FMC_A8*%
X73773012Y-108438232D02*
X73771012Y-108440232D01*
X73771012Y-110790000D02*
X75872012Y-112891000D01*
X73773012Y-107981768D02*
X73773012Y-108438232D01*
X73771012Y-108440232D02*
X73771012Y-110790000D01*
X73771012Y-105477500D02*
X73771012Y-107979768D01*
X73771012Y-107979768D02*
X73773012Y-107981768D01*
X73722012Y-105428500D02*
X73771012Y-105477500D01*
%TO.N,/FMC_NBL1*%
X79730000Y-123440000D02*
X79730000Y-123480000D01*
X76580000Y-110670000D02*
X76520000Y-110610000D01*
X81222012Y-124972012D02*
X81222012Y-126753500D01*
X79730000Y-123480000D02*
X81222012Y-124972012D01*
X78380000Y-110680000D02*
X78370000Y-110670000D01*
X78370000Y-110670000D02*
X76580000Y-110670000D01*
X76430000Y-110680000D02*
X76520000Y-110770000D01*
%TO.N,/FMC_D0*%
X64232000Y-113260000D02*
X64151000Y-113341000D01*
X64151000Y-113341000D02*
X62809512Y-113341000D01*
X64250000Y-113260000D02*
X64232000Y-113260000D01*
%TO.N,/FMC_SDNRAS*%
X76340000Y-107430000D02*
X76222012Y-107312012D01*
X76222012Y-107312012D02*
X76222012Y-105428500D01*
%TO.N,/FMC_D2*%
X71070000Y-119272244D02*
X71070000Y-118500000D01*
X67222012Y-126753500D02*
X67222012Y-123120232D01*
X67222012Y-123120232D02*
X71070000Y-119272244D01*
%TO.N,/FMC_D11*%
X71872012Y-112152012D02*
X71872012Y-113691000D01*
X67173012Y-107453012D02*
X71872012Y-112152012D01*
X67173012Y-105477500D02*
X67173012Y-107453012D01*
X67222012Y-105428500D02*
X67173012Y-105477500D01*
D40*
X67214000Y-105436512D02*
X67222012Y-105428500D01*
D39*
%TO.N,/FMC_SDNE0*%
X82957354Y-111784634D02*
X82957354Y-111746834D01*
X82957354Y-111746834D02*
X83363188Y-111341000D01*
X82899359Y-111842629D02*
X82957354Y-111784634D01*
X83363188Y-111341000D02*
X84134512Y-111341000D01*
%TO.N,/FMC_A1*%
X82212900Y-120300000D02*
X82672900Y-119840000D01*
X75872012Y-118491000D02*
X76208000Y-118491000D01*
X78017000Y-120300000D02*
X82212900Y-120300000D01*
X84133512Y-119840000D02*
X84134512Y-119841000D01*
X76208000Y-118491000D02*
X78017000Y-120300000D01*
X82672900Y-119840000D02*
X84133512Y-119840000D01*
%TO.N,/FMC_SDNWE*%
X82920000Y-112606003D02*
X83185003Y-112341000D01*
X83185003Y-112341000D02*
X84134512Y-112341000D01*
%TO.N,/FMC_D3*%
X67724024Y-124830000D02*
X67722012Y-124832012D01*
X67772012Y-124830000D02*
X67724024Y-124830000D01*
X67722012Y-124832012D02*
X67722012Y-126753500D01*
%TO.N,/FMC_A4*%
X81733600Y-119078000D02*
X82470600Y-118341000D01*
X76672012Y-114491000D02*
X76672012Y-116496012D01*
X76672012Y-116496012D02*
X79254000Y-119078000D01*
X79254000Y-119078000D02*
X81733600Y-119078000D01*
X82470600Y-118341000D02*
X84134512Y-118341000D01*
%TO.N,/FMC_A10*%
X72673012Y-106315924D02*
X72673012Y-105477500D01*
X73311597Y-113511597D02*
X75490000Y-115690000D01*
X72460000Y-108270000D02*
X72390000Y-108200000D01*
X72390000Y-106598936D02*
X72673012Y-106315924D01*
X75490000Y-115690000D02*
X75490000Y-117140000D01*
X73311597Y-111908403D02*
X73311597Y-113511597D01*
X72390000Y-108200000D02*
X72390000Y-106598936D01*
X72673012Y-105477500D02*
X72722012Y-105428500D01*
%TO.N,/FMC_A11*%
X75070000Y-113680000D02*
X74450000Y-113060000D01*
X71910000Y-109728988D02*
X71910000Y-106511836D01*
X72173012Y-105477500D02*
X72222012Y-105428500D01*
X74450000Y-113060000D02*
X74450000Y-112268988D01*
X74450000Y-112268988D02*
X71910000Y-109728988D01*
X71910000Y-106511836D02*
X72173012Y-106248824D01*
X72173012Y-106248824D02*
X72173012Y-105477500D01*
%TO.N,/FMC_D15*%
X63679836Y-110440000D02*
X64930000Y-110440000D01*
X64930000Y-110440000D02*
X64940000Y-110450000D01*
X63580836Y-110341000D02*
X63679836Y-110440000D01*
X62809512Y-110341000D02*
X63580836Y-110341000D01*
%TO.N,/FMC_D8*%
X68722012Y-106638000D02*
X68722012Y-105428500D01*
X68824012Y-106740000D02*
X68722012Y-106638000D01*
%TO.N,/FMC_SDNCAS*%
X76222012Y-124152012D02*
X76222012Y-126753500D01*
X76230000Y-122920000D02*
X76220000Y-122930000D01*
X76220000Y-122930000D02*
X76220000Y-124150000D01*
X76220000Y-124150000D02*
X76222012Y-124152012D01*
X76230000Y-122750000D02*
X76230000Y-122920000D01*
%TO.N,/FMC_A5*%
X77223012Y-114242000D02*
X77223012Y-116263012D01*
X82403500Y-117841000D02*
X84134512Y-117841000D01*
X79637000Y-118677000D02*
X81567500Y-118677000D01*
X81567500Y-118677000D02*
X82403500Y-117841000D01*
X77223012Y-116263012D02*
X79637000Y-118677000D01*
X76672012Y-113691000D02*
X77223012Y-114242000D01*
%TO.N,/FMC_D14*%
X62809512Y-109841000D02*
X64111000Y-109841000D01*
X64111000Y-109841000D02*
X64160000Y-109890000D01*
%TO.N,/FMC_D13*%
X62850512Y-109300000D02*
X62809512Y-109341000D01*
X67460244Y-109300000D02*
X62850512Y-109300000D01*
X71072012Y-113691000D02*
X71072012Y-112911768D01*
X71072012Y-112911768D02*
X67460244Y-109300000D01*
%TO.N,/FMC_A7*%
X74222012Y-110461768D02*
X74222012Y-105428500D01*
X75872012Y-113670232D02*
X76196122Y-113346122D01*
X76196122Y-113346122D02*
X76423012Y-113119232D01*
X76100244Y-113442000D02*
X76196122Y-113346122D01*
X75872012Y-113691000D02*
X75872012Y-113670232D01*
X76423012Y-113119232D02*
X76423012Y-112662768D01*
X76423012Y-112662768D02*
X74222012Y-110461768D01*
%TO.N,/FMC_A0*%
X84133512Y-120340000D02*
X84134512Y-120341000D01*
X82740000Y-120340000D02*
X84133512Y-120340000D01*
X77590000Y-121140000D02*
X78010000Y-120720000D01*
X82360000Y-120720000D02*
X82740000Y-120340000D01*
X78010000Y-120720000D02*
X82360000Y-120720000D01*
%TO.N,/FMC_D5*%
X71222012Y-105428500D02*
X71206732Y-105428500D01*
X71206732Y-105428500D02*
X71206732Y-106693268D01*
%TO.N,/FMC_D4*%
X71722012Y-104507988D02*
X71722012Y-105428500D01*
X72150000Y-104080000D02*
X71722012Y-104507988D01*
X72280000Y-104080000D02*
X72150000Y-104080000D01*
%TO.N,/FMC_NBL0*%
X80722012Y-126632012D02*
X80722012Y-126753500D01*
X80673012Y-125713012D02*
X80673012Y-126583012D01*
X80673012Y-126583012D02*
X80722012Y-126632012D01*
X73472012Y-118512012D02*
X80673012Y-125713012D01*
X73472012Y-118491000D02*
X73472012Y-118512012D01*
%TO.N,/FMC_D7*%
X68660000Y-103670000D02*
X68660000Y-104095164D01*
X68630000Y-103640000D02*
X68660000Y-103670000D01*
X68660000Y-104095164D02*
X69222012Y-104657176D01*
X69222012Y-104657176D02*
X69222012Y-105428500D01*
%TO.N,/FMC_A2*%
X82065800Y-119880000D02*
X82605800Y-119340000D01*
X82605800Y-119340000D02*
X84133512Y-119340000D01*
X78415000Y-119880000D02*
X82065800Y-119880000D01*
X77253183Y-118718183D02*
X78415000Y-119880000D01*
X77253183Y-118691000D02*
X77253183Y-118718183D01*
X84133512Y-119340000D02*
X84134512Y-119341000D01*
%TO.N,/FMC_SDCLK*%
X62858512Y-117292000D02*
X62809512Y-117341000D01*
X66536232Y-115400000D02*
X64644232Y-117292000D01*
X74272012Y-115400000D02*
X66536232Y-115400000D01*
X64644232Y-117292000D02*
X62858512Y-117292000D01*
D33*
%TO.N,/UART4_TX*%
X59219000Y-122841000D02*
X58934000Y-123126000D01*
X57861000Y-128620000D02*
X55815000Y-128620000D01*
X58934000Y-127547000D02*
X57861000Y-128620000D01*
X62809512Y-122841000D02*
X59219000Y-122841000D01*
X58934000Y-123126000D02*
X58934000Y-127547000D01*
%TO.N,/UART4_RX*%
X58323000Y-126905000D02*
X57607000Y-127621000D01*
X58979000Y-122341000D02*
X58323000Y-122997000D01*
X58323000Y-122997000D02*
X58323000Y-126905000D01*
X62809512Y-122341000D02*
X58979000Y-122341000D01*
X56605000Y-130620000D02*
X55815000Y-130620000D01*
D39*
%TO.N,/FMC_A12*%
X61240000Y-114340000D02*
X62808512Y-114340000D01*
X62808512Y-114340000D02*
X62809512Y-114341000D01*
%TO.N,/FMC_D9*%
X68274012Y-107304012D02*
X68274012Y-106861768D01*
X72672012Y-113691000D02*
X72672012Y-111702012D01*
X68222012Y-106809768D02*
X68222012Y-105428500D01*
X68274012Y-106861768D02*
X68222012Y-106809768D01*
X68271012Y-105477500D02*
X68222012Y-105428500D01*
X72672012Y-111702012D02*
X68274012Y-107304012D01*
%TO.N,/FMC_BS1*%
X75072012Y-117711768D02*
X73209244Y-115849000D01*
X66931000Y-115849000D02*
X66560000Y-116220000D01*
X64151000Y-115841000D02*
X62809512Y-115841000D01*
X73209244Y-115849000D02*
X66931000Y-115849000D01*
X75072012Y-118491000D02*
X75072012Y-117711768D01*
X64520000Y-116210000D02*
X64151000Y-115841000D01*
X64820000Y-116210000D02*
X64520000Y-116210000D01*
X64850000Y-116240000D02*
X64820000Y-116210000D01*
%TO.N,/FMC_BS0*%
X62858512Y-115390000D02*
X62809512Y-115341000D01*
X64848474Y-115512706D02*
X64826666Y-115534514D01*
X64725768Y-115390000D02*
X62858512Y-115390000D01*
X64826666Y-115534514D02*
X64826666Y-115490898D01*
X64826666Y-115490898D02*
X64725768Y-115390000D01*
D33*
%TO.N,/I2C4_SDA*%
X64141000Y-111841000D02*
X64160000Y-111860000D01*
X62809512Y-111841000D02*
X64141000Y-111841000D01*
%TO.N,/I2C4_SCL*%
X58758000Y-113530000D02*
X58758000Y-119867000D01*
X60947000Y-111341000D02*
X58758000Y-113530000D01*
X58758000Y-119867000D02*
X58005000Y-120620000D01*
X62809512Y-111341000D02*
X60947000Y-111341000D01*
D41*
%TO.N,/usb_DN*%
X53564300Y-114575778D02*
X53564300Y-119599055D01*
X62724212Y-108426300D02*
X59713778Y-108426300D01*
X53564300Y-119599055D02*
X53565300Y-119600055D01*
X59713778Y-108426300D02*
X53564300Y-114575778D01*
X52365300Y-132620000D02*
X51645000Y-132620000D01*
X53565300Y-119600055D02*
X53565300Y-131420000D01*
X62809512Y-108341000D02*
X62724212Y-108426300D01*
X53565300Y-131420000D02*
X52365300Y-132620000D01*
%TO.N,/usb_DP*%
X53893700Y-119473000D02*
X53893700Y-114712222D01*
X53894700Y-119474000D02*
X53893700Y-119473000D01*
X53894700Y-131420000D02*
X53894700Y-119474000D01*
X62724212Y-108755700D02*
X62809512Y-108841000D01*
X57197571Y-112084461D02*
X57283780Y-111998251D01*
X59850222Y-108755700D02*
X62724212Y-108755700D01*
X57283780Y-111322140D02*
X57397966Y-111207956D01*
X53893700Y-114712222D02*
X56521461Y-112084461D01*
X55094700Y-132620000D02*
X55815000Y-132620000D01*
X53894700Y-131420000D02*
X55094700Y-132620000D01*
X57397966Y-111207956D02*
X59850222Y-108755700D01*
X56521461Y-112084461D02*
G75*
G02*
X56859516Y-112084460I169028J-169029D01*
G01*
X56859516Y-112084461D02*
G75*
G03*
X57197571Y-112084462I169028J169029D01*
G01*
X57283780Y-111998251D02*
G75*
G03*
X57283804Y-111660172I-168980J169051D01*
G01*
X57283780Y-111660196D02*
G75*
G02*
X57283812Y-111322172I169020J168996D01*
G01*
D32*
%TO.N,+3.3VA*%
X74012000Y-146237000D02*
X75111000Y-147336000D01*
X72305000Y-146237000D02*
X73755000Y-146237000D01*
X75111000Y-147336000D02*
X75111000Y-148669000D01*
X73755000Y-146237000D02*
X74012000Y-146237000D01*
X77922012Y-130510000D02*
X79022012Y-130510000D01*
%TD*%
M02*
