%TF.GenerationSoftware,KiCad,Pcbnew,9.0.6*%
%TF.CreationDate,2026-03-02T09:31:00+01:00*%
%TF.ProjectId,cansat-camera-pcb,63616e73-6174-42d6-9361-6d6572612d70,1.1*%
%TF.SameCoordinates,Original*%
%TF.FileFunction,Copper,L3,Inr*%
%TF.FilePolarity,Positive*%
%FSLAX46Y46*%
G04 Gerber Fmt 4.6, Leading zero omitted, Abs format (unit mm)*
G04 Created by KiCad (PCBNEW 9.0.6) date 2026-03-02 09:31:00*
%MOMM*%
%LPD*%
G01*
G04 APERTURE LIST*
%TA.AperFunction,ViaPad*%
%ADD10C,0.400000*%
%TD*%
%TA.AperFunction,ViaPad*%
%ADD11C,0.800000*%
%TD*%
%TA.AperFunction,ViaPad*%
%ADD12C,0.500000*%
%TD*%
%TA.AperFunction,ViaPad*%
%ADD13C,1.000000*%
%TD*%
%TA.AperFunction,ViaPad*%
%ADD14C,0.600000*%
%TD*%
%TA.AperFunction,ViaPad*%
%ADD15C,0.450000*%
%TD*%
%TA.AperFunction,ViaPad*%
%ADD16C,0.750000*%
%TD*%
%TA.AperFunction,Conductor*%
%ADD17C,1.000000*%
%TD*%
%TA.AperFunction,Conductor*%
%ADD18C,0.110000*%
%TD*%
G04 APERTURE END LIST*
D10*
%TO.N,GND*%
X107615988Y-46803000D03*
D11*
X123313500Y-78446000D03*
D12*
X97151000Y-36707000D03*
D13*
X86343000Y-67534000D03*
D12*
X91666000Y-53603000D03*
D14*
X113703000Y-51739000D03*
D12*
X92626000Y-48203000D03*
D11*
X89327999Y-61539000D03*
D12*
X106898000Y-73034000D03*
D11*
X119812000Y-72606000D03*
D12*
X118678488Y-46653000D03*
D10*
X110015988Y-50003000D03*
D11*
X103733000Y-82204000D03*
D14*
X83906000Y-49945000D03*
D11*
X89327999Y-53539000D03*
D12*
X92830988Y-42153000D03*
X98335988Y-60593000D03*
D11*
X97503000Y-76704000D03*
X111538000Y-82184000D03*
X93678300Y-73876500D03*
D14*
X124088500Y-74388500D03*
D13*
X86343000Y-59534000D03*
D12*
X105295988Y-36213000D03*
D13*
X82673000Y-67534000D03*
D12*
X119005988Y-39980000D03*
X93668000Y-57251000D03*
D14*
X120587000Y-74388500D03*
D12*
X94625988Y-46923000D03*
X107988000Y-73024000D03*
X120262000Y-39089000D03*
D14*
X104853000Y-41524000D03*
D12*
X119005988Y-52383000D03*
D14*
X126088000Y-45219000D03*
D10*
X103618000Y-51604000D03*
D12*
X112368000Y-46424000D03*
D11*
X94153000Y-82716500D03*
D13*
X82673000Y-59534000D03*
D12*
X98560000Y-36460000D03*
D13*
X127233000Y-63534000D03*
D11*
X103733000Y-83774000D03*
D12*
X88280000Y-48985000D03*
X109835988Y-60593000D03*
D11*
X117693000Y-82854000D03*
X112403000Y-76704000D03*
D12*
X100318000Y-48409000D03*
X101128000Y-82034000D03*
D10*
X108418000Y-50004000D03*
D12*
X94628000Y-59211000D03*
D13*
X123063000Y-65534000D03*
D14*
X111903000Y-67889000D03*
D11*
X117218000Y-74014000D03*
D13*
X86343000Y-69534000D03*
X123063000Y-63534000D03*
D12*
X104835988Y-60593000D03*
D11*
X108408000Y-82194000D03*
D12*
X94628000Y-54624000D03*
X115239000Y-62369000D03*
D11*
X108398000Y-83794000D03*
D12*
X100026000Y-36213000D03*
X116488000Y-60103000D03*
D11*
X119812000Y-78446000D03*
D12*
X110295988Y-36213000D03*
D11*
X111528000Y-83784000D03*
X123313500Y-72606000D03*
D13*
X86343000Y-57534000D03*
D12*
X101248000Y-50394000D03*
D13*
X127233000Y-65534000D03*
D10*
X110015988Y-51603000D03*
X106815988Y-50003000D03*
D13*
X82673000Y-69534000D03*
D10*
X109218000Y-46814000D03*
D12*
X101248000Y-46424000D03*
X112353000Y-43609000D03*
%TO.N,/RST*%
X97600000Y-51317000D03*
D10*
X88280000Y-49945000D03*
D12*
%TO.N,+3.3V*%
X94380988Y-42153000D03*
X94625988Y-47883000D03*
X104335988Y-36213000D03*
X97151000Y-37667000D03*
X105795988Y-60593000D03*
X119005988Y-51423000D03*
X119005988Y-39020000D03*
X116278488Y-46153000D03*
X93638000Y-56271000D03*
D11*
X89327999Y-59539000D03*
D12*
X116488000Y-59143000D03*
X110795988Y-60593000D03*
X94625988Y-53723000D03*
D11*
X121362000Y-78446000D03*
D12*
X109335988Y-36213000D03*
X99295988Y-60593000D03*
D11*
%TO.N,VCC*%
X89327999Y-67539000D03*
X125153000Y-67514000D03*
D12*
%TO.N,/SWCLK*%
X115565988Y-38849000D03*
%TO.N,/SWDIO*%
X116360000Y-41153000D03*
%TO.N,/LTE_reset*%
X127233000Y-58534000D03*
X116199000Y-56653000D03*
D14*
X127233000Y-61534000D03*
D12*
X121778000Y-56639000D03*
%TO.N,/LTE_pwrkey*%
X121703000Y-58464000D03*
D14*
X123063000Y-61534000D03*
D12*
X117478488Y-57649000D03*
X123063000Y-58534000D03*
D15*
%TO.N,/DCMI_VSYNC*%
X108065988Y-38890500D03*
D14*
%TO.N,/DCMI_D7*%
X104662100Y-69339000D03*
D15*
X97303488Y-41653000D03*
%TO.N,/DCMI_D4*%
X94153488Y-40653000D03*
%TO.N,/DCMI_D6*%
X95003488Y-41153000D03*
%TO.N,/DCMI_D0*%
X118628488Y-45653000D03*
X121123657Y-45643343D03*
%TO.N,/DCMI_D5*%
X111565988Y-38890500D03*
D14*
X107128000Y-68539000D03*
D10*
%TO.N,/FMC_SDCKE0*%
X97358000Y-53734000D03*
%TO.N,/FMC_A3*%
X92853000Y-45700000D03*
X103615988Y-46803000D03*
%TO.N,/FMC_A9*%
X106953000Y-61739000D03*
X105215988Y-50003000D03*
%TO.N,/FMC_D10*%
X111940500Y-62401500D03*
%TO.N,/FMC_D1*%
X114154274Y-46090274D03*
%TO.N,/FMC_A6*%
X104553000Y-57869000D03*
X104415988Y-50003000D03*
%TO.N,/FMC_D6*%
X109553000Y-57789000D03*
%TO.N,/FMC_D12*%
X115153000Y-56389000D03*
%TO.N,/FMC_A8*%
X104415988Y-51603000D03*
X104378000Y-55264000D03*
%TO.N,/FMC_NBL1*%
X106015988Y-51603000D03*
%TO.N,/FMC_D0*%
X116228000Y-51089000D03*
%TO.N,/FMC_SDNRAS*%
X104008000Y-57934000D03*
X106015988Y-46003000D03*
%TO.N,/FMC_D2*%
X109954274Y-42437726D03*
%TO.N,/FMC_D11*%
X113028000Y-60214000D03*
%TO.N,/FMC_SDNE0*%
X97358000Y-53174000D03*
X105215988Y-45203000D03*
%TO.N,/FMC_A1*%
X92828000Y-44639000D03*
X104415988Y-46003000D03*
%TO.N,/FMC_SDNWE*%
X97358000Y-52154000D03*
X106015988Y-45203000D03*
%TO.N,/FMC_D3*%
X108403001Y-42374000D03*
%TO.N,/FMC_A4*%
X103615988Y-50003000D03*
X92916743Y-46195923D03*
%TO.N,/FMC_A10*%
X104415988Y-45203000D03*
%TO.N,/FMC_A11*%
X105215988Y-50803000D03*
X108128000Y-62039000D03*
%TO.N,/FMC_D15*%
X113065500Y-51976500D03*
%TO.N,/FMC_D8*%
X111578000Y-61289000D03*
%TO.N,/FMC_SDNCAS*%
X107167153Y-43396798D03*
X106015988Y-46803000D03*
%TO.N,/FMC_A5*%
X103615988Y-50803000D03*
X93255501Y-46716501D03*
%TO.N,/FMC_D14*%
X112940500Y-52826500D03*
%TO.N,/FMC_D13*%
X118678000Y-55154000D03*
%TO.N,/FMC_A7*%
X106453385Y-61758674D03*
X104415988Y-50803000D03*
%TO.N,/FMC_A0*%
X104415988Y-46803000D03*
X97403000Y-44139000D03*
%TO.N,/FMC_D5*%
X108253000Y-56839000D03*
%TO.N,/FMC_D4*%
X106353000Y-55109000D03*
%TO.N,/FMC_NBL0*%
X106815988Y-46003000D03*
%TO.N,/FMC_D7*%
X110554274Y-54465274D03*
%TO.N,/FMC_A2*%
X103615988Y-46003000D03*
X92853000Y-45164000D03*
%TO.N,/FMC_SDCLK*%
X116308000Y-47254000D03*
D14*
%TO.N,/CAM_SCL*%
X108678000Y-77339000D03*
D12*
X113107000Y-63649000D03*
%TO.N,/CAM_SDA*%
X114138000Y-63649000D03*
D14*
X109703000Y-76514000D03*
D10*
%TO.N,/FMC_A12*%
X105215988Y-51603000D03*
X116303000Y-50164000D03*
%TO.N,/FMC_D9*%
X111748000Y-57934000D03*
%TO.N,/FMC_BS1*%
X116378000Y-48639000D03*
X105215988Y-46003000D03*
%TO.N,/FMC_BS0*%
X105215988Y-46803000D03*
X116325657Y-49136255D03*
D12*
%TO.N,+3.3VA*%
X112378000Y-47384000D03*
X112087000Y-63649000D03*
D14*
X113698000Y-49139000D03*
D11*
X115668000Y-74014000D03*
D14*
X103453000Y-41489000D03*
X117868000Y-78846500D03*
D11*
X105298000Y-83794000D03*
D16*
X110078000Y-65589000D03*
D11*
X124863500Y-78446000D03*
D12*
X112353000Y-44569000D03*
X101278000Y-48409000D03*
D14*
X94328000Y-78709000D03*
D10*
X105718000Y-78324000D03*
D11*
X97918000Y-82784000D03*
D12*
X101248000Y-47384000D03*
D11*
X92128300Y-73876500D03*
D12*
X115158000Y-63649000D03*
D10*
X105808000Y-73984000D03*
D12*
%TO.N,/I2C1_SDA*%
X101565988Y-38991000D03*
D14*
X82673000Y-51534000D03*
D12*
%TO.N,/I2C1_SCL*%
X102065988Y-36386000D03*
D14*
X82673000Y-53534000D03*
D12*
%TO.N,/DCMI_HSYNC*%
X99565988Y-57915500D03*
D14*
X106153000Y-65339000D03*
%TO.N,/USART2_TX*%
X96078000Y-57989000D03*
X89253000Y-63539000D03*
%TO.N,/USART2_RX*%
X89228000Y-65564000D03*
X97428000Y-59264000D03*
D10*
%TO.N,/camera/reset*%
X108198000Y-78324000D03*
%TO.N,/camera/pwdnb*%
X107968000Y-74024000D03*
D11*
%TO.N,CAMERA_2.8V*%
X109958000Y-83824000D03*
X116143000Y-82854000D03*
D16*
%TO.N,Net-(JP2-A)*%
X111928000Y-65589000D03*
D10*
%TO.N,Net-(J2-D9)*%
X105128000Y-78324000D03*
D14*
%TO.N,Net-(J2-PCLK)*%
X100553000Y-62039000D03*
D10*
%TO.N,Net-(J2-D7)*%
X103238000Y-78324000D03*
%TO.N,Net-(J2-D4)*%
X100103000Y-80504000D03*
%TO.N,Net-(J2-D5)*%
X101228000Y-80504000D03*
%TO.N,Net-(J2-D2)*%
X101718000Y-80863100D03*
%TO.N,Net-(J2-D3)*%
X100703000Y-78339000D03*
D14*
%TO.N,Net-(J2-HSYNC)*%
X106153000Y-67989000D03*
%TO.N,Net-(JP2-B)*%
X120278000Y-43714000D03*
D10*
%TO.N,Net-(IC1-DQ5)*%
X107615988Y-45203000D03*
X107801726Y-56387726D03*
%TO.N,Net-(IC1-DQ4)*%
X106353000Y-54469000D03*
X106459988Y-48914000D03*
%TO.N,Net-(IC1-DQ0)*%
X110015988Y-46003000D03*
X115588000Y-51089000D03*
%TO.N,Net-(IC1-DQ6)*%
X107615988Y-46003000D03*
X109553000Y-57144000D03*
%TO.N,Net-(IC1-DQ7)*%
X106815988Y-45203000D03*
X110115500Y-54026500D03*
%TD*%
D17*
%TO.N,VCC*%
X124278000Y-66639000D02*
X90227999Y-66639000D01*
X90227999Y-66639000D02*
X89327999Y-67539000D01*
X125153000Y-67514000D02*
X124278000Y-66639000D01*
D18*
%TO.N,/FMC_SDNRAS*%
X105638000Y-46380988D02*
X106015988Y-46003000D01*
X105093000Y-55291772D02*
X105593000Y-55291772D01*
X104008000Y-57934000D02*
X104008000Y-57534000D01*
X105593000Y-54691772D02*
X105093000Y-54691772D01*
X105833000Y-55051772D02*
X105833000Y-54931772D01*
X104853000Y-56689000D02*
X104853000Y-55531772D01*
X104853000Y-54451772D02*
X104853000Y-49619000D01*
X105638000Y-48834000D02*
X105638000Y-46380988D01*
X104853000Y-49619000D02*
X105638000Y-48834000D01*
X104008000Y-57534000D02*
X104853000Y-56689000D01*
X104853000Y-55531772D02*
G75*
G02*
X105093000Y-55291800I240000J-28D01*
G01*
X105093000Y-54691772D02*
G75*
G02*
X104853028Y-54451772I0J239972D01*
G01*
X105833000Y-54931772D02*
G75*
G03*
X105593000Y-54691800I-240000J-28D01*
G01*
X105593000Y-55291772D02*
G75*
G03*
X105832972Y-55051772I0J239972D01*
G01*
%TO.N,/FMC_SDNE0*%
X99896774Y-51959543D02*
X100179617Y-52242386D01*
X99248000Y-53174000D02*
X99585645Y-52836355D01*
X100179616Y-52242384D02*
X100462458Y-52525226D01*
X99585646Y-52496943D02*
X99472509Y-52383806D01*
X104859988Y-45559000D02*
X105215988Y-45203000D01*
X97358000Y-53174000D02*
X99248000Y-53174000D01*
X104859988Y-47562012D02*
X104859988Y-45559000D01*
X100801869Y-52525226D02*
X100886721Y-52440373D01*
X100179617Y-52242386D02*
X100179616Y-52242384D01*
X100886721Y-52100961D02*
X100773583Y-51987823D01*
X100773583Y-51648412D02*
X100858438Y-51563561D01*
X100858438Y-51563561D02*
X104859988Y-47562012D01*
X99472508Y-52044396D02*
X99557362Y-51959543D01*
X100773583Y-51987823D02*
G75*
G02*
X100773565Y-51648395I169717J169723D01*
G01*
X99585645Y-52836355D02*
G75*
G03*
X99585695Y-52496895I-169745J169755D01*
G01*
X99557362Y-51959543D02*
G75*
G02*
X99896774Y-51959543I169706J-169708D01*
G01*
X99472509Y-52383806D02*
G75*
G02*
X99472507Y-52044395I169691J169706D01*
G01*
X100886721Y-52440373D02*
G75*
G03*
X100886688Y-52100994I-169721J169673D01*
G01*
X100462458Y-52525226D02*
G75*
G03*
X100801869Y-52525227I169706J169707D01*
G01*
%TO.N,/FMC_SDNWE*%
X106015988Y-45203000D02*
X105586988Y-44774000D01*
X105586988Y-44774000D02*
X104218000Y-44774000D01*
X103198000Y-45794000D02*
X103198000Y-47474000D01*
X98518000Y-52154000D02*
X99765383Y-50906618D01*
X100917968Y-51040968D02*
X100833115Y-51125822D01*
X99850236Y-50821767D02*
X99765383Y-50906618D01*
X103198000Y-47474000D02*
X100613912Y-50058088D01*
X100613912Y-50397500D02*
X100917968Y-50701556D01*
X104218000Y-44774000D02*
X103198000Y-45794000D01*
X98518000Y-52154000D02*
X97358000Y-52154000D01*
X100493703Y-51125822D02*
X100189648Y-50821767D01*
X100189648Y-50821767D02*
G75*
G03*
X99850236Y-50821767I-169706J-169701D01*
G01*
X100917968Y-50701556D02*
G75*
G02*
X100918006Y-51041006I-169668J-169744D01*
G01*
X100833115Y-51125822D02*
G75*
G02*
X100493703Y-51125822I-169706J169708D01*
G01*
X100613912Y-50058088D02*
G75*
G03*
X100613906Y-50397506I169688J-169712D01*
G01*
%TO.N,/FMC_SDNCAS*%
X107171988Y-46150461D02*
X106519449Y-46803000D01*
X107167153Y-43396798D02*
X107171988Y-43401633D01*
X107171988Y-43401633D02*
X107171988Y-46150461D01*
X106519449Y-46803000D02*
X106015988Y-46803000D01*
%TO.N,/FMC_A12*%
X105868527Y-49647000D02*
X113416083Y-49647000D01*
X105578000Y-51240988D02*
X105215988Y-51603000D01*
X116303000Y-50164000D02*
X116298000Y-50159000D01*
X105578000Y-49937527D02*
X105578000Y-51240988D01*
X105868527Y-49647000D02*
X105578000Y-49937527D01*
X116298000Y-50154000D02*
X115791000Y-49647000D01*
X114256083Y-49377000D02*
X114256083Y-49917000D01*
X114616083Y-49137000D02*
X114496083Y-49137000D01*
X115791000Y-49647000D02*
X115096083Y-49647000D01*
X116298000Y-50159000D02*
X116298000Y-50154000D01*
X114016083Y-50157000D02*
X113896083Y-50157000D01*
X113656083Y-49917000D02*
X113656083Y-49887000D01*
X114856083Y-49407000D02*
X114856083Y-49377000D01*
X114496083Y-49137000D02*
G75*
G03*
X114256100Y-49377000I17J-240000D01*
G01*
X113896083Y-50157000D02*
G75*
G02*
X113656100Y-49917000I17J240000D01*
G01*
X114256083Y-49917000D02*
G75*
G02*
X114016083Y-50156983I-239983J0D01*
G01*
X113656083Y-49887000D02*
G75*
G03*
X113416083Y-49647017I-239983J0D01*
G01*
X115096083Y-49647000D02*
G75*
G02*
X114856100Y-49407000I17J240000D01*
G01*
X114856083Y-49377000D02*
G75*
G03*
X114616083Y-49137017I-239983J0D01*
G01*
%TD*%
M02*
