%TF.GenerationSoftware,KiCad,Pcbnew,9.0.6*%
%TF.CreationDate,2026-01-26T21:26:12+01:00*%
%TF.ProjectId,cansat-camera-pcb,63616e73-6174-42d6-9361-6d6572612d70,1.1*%
%TF.SameCoordinates,Original*%
%TF.FileFunction,Paste,Bot*%
%TF.FilePolarity,Positive*%
%FSLAX46Y46*%
G04 Gerber Fmt 4.6, Leading zero omitted, Abs format (unit mm)*
G04 Created by KiCad (PCBNEW 9.0.6) date 2026-01-26 21:26:12*
%MOMM*%
%LPD*%
G01*
G04 APERTURE LIST*
G04 Aperture macros list*
%AMRoundRect*
0 Rectangle with rounded corners*
0 $1 Rounding radius*
0 $2 $3 $4 $5 $6 $7 $8 $9 X,Y pos of 4 corners*
0 Add a 4 corners polygon primitive as box body*
4,1,4,$2,$3,$4,$5,$6,$7,$8,$9,$2,$3,0*
0 Add four circle primitives for the rounded corners*
1,1,$1+$1,$2,$3*
1,1,$1+$1,$4,$5*
1,1,$1+$1,$6,$7*
1,1,$1+$1,$8,$9*
0 Add four rect primitives between the rounded corners*
20,1,$1+$1,$2,$3,$4,$5,0*
20,1,$1+$1,$4,$5,$6,$7,0*
20,1,$1+$1,$6,$7,$8,$9,0*
20,1,$1+$1,$8,$9,$2,$3,0*%
G04 Aperture macros list end*
%ADD10RoundRect,0.140000X-0.140000X-0.170000X0.140000X-0.170000X0.140000X0.170000X-0.140000X0.170000X0*%
%ADD11RoundRect,0.140000X-0.170000X0.140000X-0.170000X-0.140000X0.170000X-0.140000X0.170000X0.140000X0*%
%ADD12RoundRect,0.140000X0.140000X0.170000X-0.140000X0.170000X-0.140000X-0.170000X0.140000X-0.170000X0*%
%ADD13RoundRect,0.135000X-0.135000X-0.185000X0.135000X-0.185000X0.135000X0.185000X-0.135000X0.185000X0*%
%ADD14RoundRect,0.225000X-0.225000X-0.250000X0.225000X-0.250000X0.225000X0.250000X-0.225000X0.250000X0*%
%ADD15RoundRect,0.225000X-0.250000X0.225000X-0.250000X-0.225000X0.250000X-0.225000X0.250000X0.225000X0*%
%ADD16RoundRect,0.225000X0.225000X0.250000X-0.225000X0.250000X-0.225000X-0.250000X0.225000X-0.250000X0*%
%ADD17R,2.200000X0.900000*%
%ADD18RoundRect,0.140000X0.170000X-0.140000X0.170000X0.140000X-0.170000X0.140000X-0.170000X-0.140000X0*%
%ADD19R,0.300000X1.300000*%
%ADD20R,2.000000X1.600000*%
%ADD21RoundRect,0.150000X-0.150000X0.512500X-0.150000X-0.512500X0.150000X-0.512500X0.150000X0.512500X0*%
%ADD22R,1.300000X1.700000*%
%ADD23C,0.360000*%
G04 APERTURE END LIST*
D10*
%TO.C,C25*%
X103598000Y-42854000D03*
X104558000Y-42854000D03*
%TD*%
D11*
%TO.C,C32*%
X101248000Y-49434000D03*
X101248000Y-50394000D03*
%TD*%
D10*
%TO.C,C26*%
X110008000Y-42854000D03*
X110968000Y-42854000D03*
%TD*%
D12*
%TO.C,C39*%
X105331000Y-81310000D03*
X104371000Y-81310000D03*
%TD*%
D13*
%TO.C,R4*%
X114138000Y-63649000D03*
X115158000Y-63649000D03*
%TD*%
D14*
%TO.C,C37*%
X98710000Y-82129000D03*
X100260000Y-82129000D03*
%TD*%
D15*
%TO.C,C28*%
X113698000Y-49139000D03*
X113698000Y-50689000D03*
%TD*%
D16*
%TO.C,C23*%
X89358300Y-73301500D03*
X87808300Y-73301500D03*
%TD*%
D13*
%TO.C,R5*%
X112087000Y-63649000D03*
X113107000Y-63649000D03*
%TD*%
D16*
%TO.C,C40*%
X106196000Y-82590000D03*
X104646000Y-82590000D03*
%TD*%
D10*
%TO.C,C42*%
X102543000Y-80849000D03*
X103503000Y-80849000D03*
%TD*%
D17*
%TO.C,J1*%
X88728000Y-67539000D03*
X88728000Y-65539000D03*
X88728000Y-63539000D03*
X88728000Y-61539000D03*
X88728000Y-59539000D03*
X88728000Y-57539000D03*
X88728000Y-55539000D03*
X88728000Y-53539000D03*
%TD*%
D18*
%TO.C,C29*%
X112368000Y-47384000D03*
X112368000Y-46424000D03*
%TD*%
D16*
%TO.C,C6*%
X89358300Y-74851500D03*
X87808300Y-74851500D03*
%TD*%
D12*
%TO.C,C31*%
X101278000Y-48409000D03*
X100318000Y-48409000D03*
%TD*%
D16*
%TO.C,C47*%
X93753000Y-71751500D03*
X92203000Y-71751500D03*
%TD*%
D11*
%TO.C,C27*%
X112368000Y-49434000D03*
X112368000Y-50394000D03*
%TD*%
D16*
%TO.C,C41*%
X106196000Y-84140000D03*
X104646000Y-84140000D03*
%TD*%
D10*
%TO.C,C24*%
X99575000Y-80849000D03*
X100535000Y-80849000D03*
%TD*%
%TO.C,C51*%
X107203000Y-81247000D03*
X108163000Y-81247000D03*
%TD*%
D16*
%TO.C,C48*%
X93753000Y-74851500D03*
X92203000Y-74851500D03*
%TD*%
D19*
%TO.C,J2*%
X99203000Y-79384000D03*
X99703000Y-79384000D03*
X100203000Y-79384000D03*
X100703000Y-79384000D03*
X101203000Y-79384000D03*
X101703000Y-79384000D03*
X102203000Y-79384000D03*
X102703000Y-79384000D03*
X103203000Y-79384000D03*
X103703000Y-79384000D03*
X104203000Y-79384000D03*
X104703000Y-79384000D03*
X105203000Y-79384000D03*
X105703000Y-79384000D03*
X106203000Y-79384000D03*
X106703000Y-79384000D03*
X107203000Y-79384000D03*
X107703000Y-79384000D03*
X108203000Y-79384000D03*
X108703000Y-79384000D03*
X109203000Y-79384000D03*
X109703000Y-79384000D03*
X110203000Y-79384000D03*
X110703000Y-79384000D03*
D20*
X97503000Y-76704000D03*
X112403000Y-76704000D03*
%TD*%
D14*
%TO.C,C44*%
X101678000Y-83679000D03*
X103228000Y-83679000D03*
%TD*%
D16*
%TO.C,C45*%
X89358300Y-71751500D03*
X87808300Y-71751500D03*
%TD*%
D18*
%TO.C,C30*%
X101248000Y-47384000D03*
X101248000Y-46424000D03*
%TD*%
D21*
%TO.C,U3*%
X92503000Y-76584000D03*
X93453000Y-76584000D03*
X94403000Y-76584000D03*
X94403000Y-78859000D03*
X92503000Y-78859000D03*
%TD*%
D22*
%TO.C,SW2*%
X82562000Y-49945000D03*
X86880000Y-49945000D03*
%TD*%
D14*
%TO.C,C33*%
X103303000Y-41524000D03*
X104853000Y-41524000D03*
%TD*%
D21*
%TO.C,U5*%
X88108000Y-76584000D03*
X89058000Y-76584000D03*
X90008000Y-76584000D03*
X90008000Y-78859000D03*
X88108000Y-78859000D03*
%TD*%
D14*
%TO.C,C50*%
X92678000Y-80591500D03*
X94228000Y-80591500D03*
%TD*%
D16*
%TO.C,C46*%
X93753000Y-73301500D03*
X92203000Y-73301500D03*
%TD*%
D23*
%TO.C,IC1*%
X110015988Y-51603000D03*
X110015988Y-50803000D03*
X110015988Y-50003000D03*
X110015988Y-46803000D03*
X110015988Y-46003000D03*
X110015988Y-45203000D03*
X109215988Y-51603000D03*
X109215988Y-50803000D03*
X109215988Y-50003000D03*
X109215988Y-46803000D03*
X109215988Y-46003000D03*
X109215988Y-45203000D03*
X108415988Y-51603000D03*
X108415988Y-50803000D03*
X108415988Y-50003000D03*
X108415988Y-46803000D03*
X108415988Y-46003000D03*
X108415988Y-45203000D03*
X107615988Y-51603000D03*
X107615988Y-50803000D03*
X107615988Y-50003000D03*
X107615988Y-46803000D03*
X107615988Y-46003000D03*
X107615988Y-45203000D03*
X106815988Y-51603000D03*
X106815988Y-50803000D03*
X106815988Y-50003000D03*
X106815988Y-46803000D03*
X106815988Y-46003000D03*
X106815988Y-45203000D03*
X106015988Y-51603000D03*
X106015988Y-50803000D03*
X106015988Y-50003000D03*
X106015988Y-46803000D03*
X106015988Y-46003000D03*
X106015988Y-45203000D03*
X105215988Y-51603000D03*
X105215988Y-50803000D03*
X105215988Y-50003000D03*
X105215988Y-46803000D03*
X105215988Y-46003000D03*
X105215988Y-45203000D03*
X104415988Y-51603000D03*
X104415988Y-50803000D03*
X104415988Y-50003000D03*
X104415988Y-46803000D03*
X104415988Y-46003000D03*
X104415988Y-45203000D03*
X103615988Y-51603000D03*
X103615988Y-50803000D03*
X103615988Y-50003000D03*
X103615988Y-46803000D03*
X103615988Y-46003000D03*
X103615988Y-45203000D03*
%TD*%
D14*
%TO.C,C38*%
X98710000Y-83679000D03*
X100260000Y-83679000D03*
%TD*%
%TO.C,C43*%
X101678000Y-82129000D03*
X103228000Y-82129000D03*
%TD*%
%TO.C,C49*%
X88283000Y-80591500D03*
X89833000Y-80591500D03*
%TD*%
D18*
%TO.C,C2*%
X88280000Y-49945000D03*
X88280000Y-48985000D03*
%TD*%
M02*
