%TF.GenerationSoftware,KiCad,Pcbnew,9.0.6*%
%TF.CreationDate,2026-01-26T21:26:12+01:00*%
%TF.ProjectId,cansat-camera-pcb,63616e73-6174-42d6-9361-6d6572612d70,1.1*%
%TF.SameCoordinates,Original*%
%TF.FileFunction,Legend,Bot*%
%TF.FilePolarity,Positive*%
%FSLAX46Y46*%
G04 Gerber Fmt 4.6, Leading zero omitted, Abs format (unit mm)*
G04 Created by KiCad (PCBNEW 9.0.6) date 2026-01-26 21:26:12*
%MOMM*%
%LPD*%
G01*
G04 APERTURE LIST*
%ADD10C,0.000000*%
%ADD11C,0.017999*%
%ADD12C,0.200000*%
%ADD13C,0.150000*%
%ADD14C,0.120000*%
%ADD15C,0.250000*%
%ADD16C,0.254000*%
G04 APERTURE END LIST*
D10*
G36*
X125963437Y-65035599D02*
G01*
X126146660Y-65035599D01*
X126146660Y-65121921D01*
X126095066Y-65121921D01*
X126098690Y-65124598D01*
X126102203Y-65127336D01*
X126105605Y-65130137D01*
X126108896Y-65133000D01*
X126112075Y-65135925D01*
X126115144Y-65138912D01*
X126118101Y-65141961D01*
X126120947Y-65145072D01*
X126123682Y-65148245D01*
X126126306Y-65151480D01*
X126128819Y-65154777D01*
X126131220Y-65158136D01*
X126133511Y-65161557D01*
X126135690Y-65165040D01*
X126137758Y-65168585D01*
X126139715Y-65172192D01*
X126141517Y-65175874D01*
X126143203Y-65179562D01*
X126144773Y-65183254D01*
X126146226Y-65186951D01*
X126147563Y-65190654D01*
X126148784Y-65194362D01*
X126149889Y-65198075D01*
X126150877Y-65201793D01*
X126151749Y-65205516D01*
X126152505Y-65209244D01*
X126153144Y-65212978D01*
X126153667Y-65216717D01*
X126154074Y-65220461D01*
X126154365Y-65224210D01*
X126154539Y-65227964D01*
X126154597Y-65231724D01*
X126154408Y-65239300D01*
X126153838Y-65246731D01*
X126152888Y-65254017D01*
X126151559Y-65261159D01*
X126149850Y-65268156D01*
X126147760Y-65275008D01*
X126145292Y-65281716D01*
X126142443Y-65288279D01*
X126139214Y-65294697D01*
X126135606Y-65300970D01*
X126131618Y-65307099D01*
X126127250Y-65313083D01*
X126122503Y-65318922D01*
X126117375Y-65324617D01*
X126111868Y-65330167D01*
X126105981Y-65335572D01*
X126099742Y-65340778D01*
X126093181Y-65345649D01*
X126086296Y-65350184D01*
X126079089Y-65354382D01*
X126071558Y-65358245D01*
X126063705Y-65361772D01*
X126055528Y-65364963D01*
X126047028Y-65367818D01*
X126038206Y-65370337D01*
X126029061Y-65372521D01*
X126019592Y-65374368D01*
X126009801Y-65375880D01*
X125999686Y-65377055D01*
X125989249Y-65377895D01*
X125978488Y-65378399D01*
X125967405Y-65378567D01*
X125956692Y-65378403D01*
X125946296Y-65377911D01*
X125936218Y-65377090D01*
X125926458Y-65375942D01*
X125917016Y-65374465D01*
X125907891Y-65372661D01*
X125899084Y-65370528D01*
X125890595Y-65368067D01*
X125882424Y-65365277D01*
X125874571Y-65362160D01*
X125867035Y-65358714D01*
X125859817Y-65354941D01*
X125852917Y-65350839D01*
X125846334Y-65346409D01*
X125840070Y-65341651D01*
X125834123Y-65336564D01*
X125828476Y-65331227D01*
X125823193Y-65325717D01*
X125818275Y-65320034D01*
X125813721Y-65314178D01*
X125809532Y-65308149D01*
X125805707Y-65301946D01*
X125802246Y-65295571D01*
X125799149Y-65289022D01*
X125796417Y-65282300D01*
X125794049Y-65275405D01*
X125792045Y-65268337D01*
X125790406Y-65261096D01*
X125789131Y-65253682D01*
X125788220Y-65246094D01*
X125787673Y-65238334D01*
X125787491Y-65230400D01*
X125787682Y-65223103D01*
X125788256Y-65215930D01*
X125789212Y-65208882D01*
X125789847Y-65205595D01*
X125858596Y-65205595D01*
X125858701Y-65209805D01*
X125859015Y-65213920D01*
X125859538Y-65217939D01*
X125860271Y-65221863D01*
X125861213Y-65225691D01*
X125862364Y-65229423D01*
X125863724Y-65233060D01*
X125865294Y-65236602D01*
X125867073Y-65240047D01*
X125869061Y-65243397D01*
X125871259Y-65246652D01*
X125873666Y-65249811D01*
X125876282Y-65252874D01*
X125879108Y-65255841D01*
X125882143Y-65258713D01*
X125885387Y-65261489D01*
X125888825Y-65264132D01*
X125892528Y-65266605D01*
X125896494Y-65268907D01*
X125900723Y-65271039D01*
X125905216Y-65273000D01*
X125909973Y-65274790D01*
X125914993Y-65276411D01*
X125920277Y-65277860D01*
X125925825Y-65279139D01*
X125931636Y-65280248D01*
X125937710Y-65281186D01*
X125944048Y-65281953D01*
X125950650Y-65282550D01*
X125957515Y-65282976D01*
X125964644Y-65283232D01*
X125972036Y-65283317D01*
X125978988Y-65283232D01*
X125985704Y-65282976D01*
X125992186Y-65282550D01*
X125998432Y-65281953D01*
X126004444Y-65281186D01*
X126010220Y-65280248D01*
X126015761Y-65279139D01*
X126021067Y-65277860D01*
X126026137Y-65276411D01*
X126030973Y-65274790D01*
X126035574Y-65273000D01*
X126039939Y-65271039D01*
X126044070Y-65268907D01*
X126047965Y-65266605D01*
X126051625Y-65264132D01*
X126055050Y-65261489D01*
X126058214Y-65258766D01*
X126061174Y-65255970D01*
X126063929Y-65253101D01*
X126066480Y-65250161D01*
X126068827Y-65247148D01*
X126070971Y-65244063D01*
X126072910Y-65240905D01*
X126074644Y-65237675D01*
X126076175Y-65234373D01*
X126077502Y-65230998D01*
X126078625Y-65227552D01*
X126079543Y-65224032D01*
X126080257Y-65220441D01*
X126080768Y-65216777D01*
X126081074Y-65213041D01*
X126081176Y-65209233D01*
X126081031Y-65204293D01*
X126080597Y-65199476D01*
X126080272Y-65197115D01*
X126079874Y-65194784D01*
X126079404Y-65192485D01*
X126078861Y-65190216D01*
X126078246Y-65187979D01*
X126077559Y-65185772D01*
X126076799Y-65183597D01*
X126075968Y-65181452D01*
X126075063Y-65179339D01*
X126074087Y-65177256D01*
X126073038Y-65175204D01*
X126071916Y-65173184D01*
X126070723Y-65171194D01*
X126069457Y-65169236D01*
X126068118Y-65167308D01*
X126066708Y-65165412D01*
X126065225Y-65163547D01*
X126063669Y-65161712D01*
X126060341Y-65158136D01*
X126056724Y-65154684D01*
X126052817Y-65151356D01*
X126048621Y-65148153D01*
X126044135Y-65145073D01*
X126040758Y-65142990D01*
X126037159Y-65141041D01*
X126033337Y-65139227D01*
X126029294Y-65137547D01*
X126025028Y-65136002D01*
X126020539Y-65134591D01*
X126015829Y-65133315D01*
X126010897Y-65132173D01*
X126005742Y-65131165D01*
X126000365Y-65130292D01*
X125994766Y-65129553D01*
X125988944Y-65128948D01*
X125982901Y-65128478D01*
X125976635Y-65128142D01*
X125970147Y-65127941D01*
X125963437Y-65127874D01*
X125956928Y-65127960D01*
X125950631Y-65128220D01*
X125944546Y-65128653D01*
X125938673Y-65129259D01*
X125933012Y-65130038D01*
X125927563Y-65130990D01*
X125922325Y-65132115D01*
X125917300Y-65133413D01*
X125912486Y-65134885D01*
X125907885Y-65136530D01*
X125903495Y-65138347D01*
X125899317Y-65140338D01*
X125895351Y-65142502D01*
X125891597Y-65144839D01*
X125888054Y-65147350D01*
X125884724Y-65150033D01*
X125881560Y-65152847D01*
X125878600Y-65155749D01*
X125875844Y-65158738D01*
X125873293Y-65161815D01*
X125870945Y-65164981D01*
X125868802Y-65168234D01*
X125866863Y-65171575D01*
X125865128Y-65175003D01*
X125863597Y-65178520D01*
X125862270Y-65182124D01*
X125861148Y-65185816D01*
X125860229Y-65189596D01*
X125859515Y-65193464D01*
X125859005Y-65197420D01*
X125858699Y-65201463D01*
X125858596Y-65205595D01*
X125789847Y-65205595D01*
X125790550Y-65201957D01*
X125792271Y-65195157D01*
X125794374Y-65188480D01*
X125796860Y-65181928D01*
X125799727Y-65175499D01*
X125802978Y-65169195D01*
X125806610Y-65163015D01*
X125810625Y-65156958D01*
X125815023Y-65151026D01*
X125819803Y-65145218D01*
X125824965Y-65139533D01*
X125830510Y-65133973D01*
X125836437Y-65128536D01*
X125661813Y-65128536D01*
X125661813Y-65035599D01*
X125963437Y-65035599D01*
G37*
G36*
X126147652Y-65542939D02*
G01*
X126151291Y-65541877D01*
X126154846Y-65540758D01*
X126158319Y-65539582D01*
X126161710Y-65538349D01*
X126165017Y-65537060D01*
X126168242Y-65535714D01*
X126171384Y-65534311D01*
X126174444Y-65532851D01*
X126177420Y-65531334D01*
X126180314Y-65529760D01*
X126183126Y-65528130D01*
X126185854Y-65526443D01*
X126188500Y-65524699D01*
X126191063Y-65522898D01*
X126193543Y-65521040D01*
X126195941Y-65519126D01*
X126198264Y-65517117D01*
X126200437Y-65514976D01*
X126202460Y-65512704D01*
X126204333Y-65510299D01*
X126206056Y-65507763D01*
X126207629Y-65505095D01*
X126209053Y-65502296D01*
X126210327Y-65499364D01*
X126211450Y-65496301D01*
X126212424Y-65493106D01*
X126213248Y-65489780D01*
X126213923Y-65486322D01*
X126214447Y-65482731D01*
X126214822Y-65479010D01*
X126215046Y-65475156D01*
X126215121Y-65471171D01*
X126215054Y-65466721D01*
X126214853Y-65462138D01*
X126214517Y-65457419D01*
X126214047Y-65452567D01*
X126213443Y-65447580D01*
X126212704Y-65442459D01*
X126211831Y-65437204D01*
X126210824Y-65431814D01*
X126283582Y-65440083D01*
X126284901Y-65446548D01*
X126286043Y-65453044D01*
X126287010Y-65459571D01*
X126287800Y-65466128D01*
X126288415Y-65472717D01*
X126288854Y-65479336D01*
X126289118Y-65485987D01*
X126289206Y-65492669D01*
X126289118Y-65499196D01*
X126288854Y-65505547D01*
X126288415Y-65511722D01*
X126287800Y-65517721D01*
X126287010Y-65523545D01*
X126286043Y-65529193D01*
X126284901Y-65534665D01*
X126283582Y-65539962D01*
X126282862Y-65542580D01*
X126282105Y-65545144D01*
X126281311Y-65547654D01*
X126280482Y-65550110D01*
X126279616Y-65552512D01*
X126278715Y-65554859D01*
X126277777Y-65557152D01*
X126276803Y-65559391D01*
X126275792Y-65561576D01*
X126274746Y-65563706D01*
X126273663Y-65565782D01*
X126272544Y-65567804D01*
X126271389Y-65569772D01*
X126270198Y-65571686D01*
X126268971Y-65573545D01*
X126267707Y-65575350D01*
X126266443Y-65577155D01*
X126265129Y-65578931D01*
X126263766Y-65580679D01*
X126262354Y-65582399D01*
X126260893Y-65584089D01*
X126259383Y-65585752D01*
X126257824Y-65587386D01*
X126256216Y-65588992D01*
X126254558Y-65590569D01*
X126252852Y-65592118D01*
X126251096Y-65593638D01*
X126249291Y-65595130D01*
X126247438Y-65596594D01*
X126245535Y-65598029D01*
X126243583Y-65599436D01*
X126241582Y-65600815D01*
X126237302Y-65603642D01*
X126232568Y-65606500D01*
X126227380Y-65609389D01*
X126221737Y-65612309D01*
X126215639Y-65615260D01*
X126209086Y-65618242D01*
X126202079Y-65621255D01*
X126194617Y-65624298D01*
X126133432Y-65646456D01*
X125795429Y-65770479D01*
X125795429Y-65674237D01*
X126044796Y-65592216D01*
X125795429Y-65508213D01*
X125795429Y-65409325D01*
X126147652Y-65542939D01*
G37*
G36*
X125701360Y-68183131D02*
G01*
X125533086Y-68183131D01*
X125533086Y-67979216D01*
X125617223Y-67979216D01*
X125701360Y-67979216D01*
X125701360Y-68183131D01*
G37*
G36*
X125730494Y-72513909D02*
G01*
X125533088Y-72513909D01*
X125533088Y-71782390D01*
X125631830Y-71782390D01*
X125730494Y-71782390D01*
X125730494Y-72513909D01*
G37*
G36*
X125603016Y-70517468D02*
G01*
X125686836Y-70518343D01*
X125689297Y-70537789D01*
X125690960Y-70550148D01*
X125692717Y-70561719D01*
X125694585Y-70572547D01*
X125696580Y-70582678D01*
X125698720Y-70592159D01*
X125701023Y-70601036D01*
X125703505Y-70609355D01*
X125706185Y-70617164D01*
X125709078Y-70624507D01*
X125712202Y-70631431D01*
X125715574Y-70637983D01*
X125719212Y-70644208D01*
X125723133Y-70650154D01*
X125727354Y-70655866D01*
X125731891Y-70661390D01*
X125736764Y-70666774D01*
X125741824Y-70671848D01*
X125747143Y-70676650D01*
X125752703Y-70681170D01*
X125758487Y-70685402D01*
X125764477Y-70689338D01*
X125770656Y-70692971D01*
X125777008Y-70696294D01*
X125783514Y-70699298D01*
X125790158Y-70701977D01*
X125796923Y-70704322D01*
X125803791Y-70706327D01*
X125810745Y-70707985D01*
X125817768Y-70709287D01*
X125824842Y-70710226D01*
X125831951Y-70710795D01*
X125839077Y-70710986D01*
X125840779Y-70710997D01*
X125842454Y-70711030D01*
X125844094Y-70711082D01*
X125845688Y-70711154D01*
X125847227Y-70711244D01*
X125848702Y-70711350D01*
X125850103Y-70711473D01*
X125851421Y-70711611D01*
X125852645Y-70711763D01*
X125853767Y-70711928D01*
X125854777Y-70712104D01*
X125855665Y-70712292D01*
X125856421Y-70712489D01*
X125857037Y-70712695D01*
X125857503Y-70712909D01*
X125857677Y-70713018D01*
X125857809Y-70713129D01*
X125857819Y-70713118D01*
X125857829Y-70713108D01*
X125857849Y-70713088D01*
X125857868Y-70713068D01*
X125857888Y-70713048D01*
X125858322Y-70715526D01*
X125858725Y-70721791D01*
X125859405Y-70744003D01*
X125859863Y-70776336D01*
X125860030Y-70815441D01*
X125860030Y-70915691D01*
X125825266Y-70913388D01*
X125809925Y-70912164D01*
X125795085Y-70910511D01*
X125780730Y-70908424D01*
X125766846Y-70905896D01*
X125753415Y-70902921D01*
X125740423Y-70899493D01*
X125727853Y-70895606D01*
X125715689Y-70891253D01*
X125703916Y-70886429D01*
X125692518Y-70881126D01*
X125681479Y-70875340D01*
X125670783Y-70869064D01*
X125660414Y-70862292D01*
X125650357Y-70855017D01*
X125640596Y-70847233D01*
X125631115Y-70838935D01*
X125618685Y-70826902D01*
X125607020Y-70814221D01*
X125596116Y-70800879D01*
X125585967Y-70786865D01*
X125576569Y-70772165D01*
X125567917Y-70756768D01*
X125560005Y-70740661D01*
X125552830Y-70723832D01*
X125546386Y-70706270D01*
X125540668Y-70687962D01*
X125535671Y-70668895D01*
X125531391Y-70649058D01*
X125527823Y-70628438D01*
X125524961Y-70607023D01*
X125522801Y-70584800D01*
X125521338Y-70561759D01*
X125519196Y-70516594D01*
X125603016Y-70517468D01*
G37*
G36*
X126090846Y-69303043D02*
G01*
X126090836Y-69303052D01*
X126090815Y-69303071D01*
X126090795Y-69303091D01*
X126090774Y-69303110D01*
X126461933Y-69303110D01*
X126461933Y-69500516D01*
X126003860Y-69500516D01*
X125863128Y-69403044D01*
X125763334Y-69333849D01*
X125721048Y-69304302D01*
X125829127Y-69303400D01*
X126090857Y-69303034D01*
X126090846Y-69303043D01*
G37*
G36*
X126000525Y-67360887D02*
G01*
X126000516Y-67360877D01*
X126000507Y-67360868D01*
X126000488Y-67360848D01*
X126000469Y-67360829D01*
X126000450Y-67360810D01*
X126461936Y-67669817D01*
X126461936Y-67859364D01*
X125533009Y-67859364D01*
X125533009Y-67665133D01*
X125794391Y-67664815D01*
X125898089Y-67664486D01*
X125987232Y-67663912D01*
X126052324Y-67663174D01*
X126083871Y-67662354D01*
X126111971Y-67660290D01*
X125823363Y-67460978D01*
X125534754Y-67261668D01*
X125533881Y-67155701D01*
X125533738Y-67132525D01*
X125533724Y-67111824D01*
X125533833Y-67093799D01*
X125534059Y-67078648D01*
X125534396Y-67066570D01*
X125534840Y-67057764D01*
X125535100Y-67054651D01*
X125535384Y-67052430D01*
X125535692Y-67051127D01*
X125535855Y-67050828D01*
X125536023Y-67050767D01*
X126000525Y-67360887D01*
G37*
G36*
X126462013Y-72251656D02*
G01*
X125814631Y-72251656D01*
X125814631Y-72047741D01*
X126138321Y-72047741D01*
X126462013Y-72047741D01*
X126462013Y-72251656D01*
G37*
G36*
X126000130Y-69594338D02*
G01*
X126000132Y-69594338D01*
X126461854Y-69903425D01*
X126462013Y-69998118D01*
X126462013Y-70092811D01*
X125533088Y-70092811D01*
X125533088Y-69902788D01*
X125562694Y-69900725D01*
X125594747Y-69899934D01*
X125660047Y-69899277D01*
X125852413Y-69898661D01*
X125953372Y-69898466D01*
X126036018Y-69897937D01*
X126091829Y-69897154D01*
X126107010Y-69896693D01*
X126110953Y-69896450D01*
X126112287Y-69896200D01*
X126089457Y-69879534D01*
X126027395Y-69835975D01*
X125823442Y-69694669D01*
X125534754Y-69495595D01*
X125533881Y-69389313D01*
X125533760Y-69367994D01*
X125533752Y-69348144D01*
X125533851Y-69330195D01*
X125534049Y-69314580D01*
X125534340Y-69301734D01*
X125534718Y-69292090D01*
X125535175Y-69286081D01*
X125535432Y-69284575D01*
X125535567Y-69284221D01*
X125535706Y-69284141D01*
X126000130Y-69594338D01*
G37*
G36*
X126462013Y-68179877D02*
G01*
X125788755Y-68179877D01*
X125788755Y-67979216D01*
X126125383Y-67979216D01*
X126125385Y-67979216D01*
X126462013Y-67979216D01*
X126462013Y-68179877D01*
G37*
G36*
X126462013Y-67267062D02*
G01*
X126004814Y-67267062D01*
X125879796Y-67180623D01*
X125737240Y-67081882D01*
X125719698Y-67069658D01*
X126090857Y-67069658D01*
X126090857Y-67069656D01*
X126462013Y-67069656D01*
X126462013Y-67267062D01*
G37*
G36*
X126458364Y-70905774D02*
G01*
X126458940Y-70906382D01*
X126459456Y-70907598D01*
X126459916Y-70909496D01*
X126460678Y-70915644D01*
X126461249Y-70925432D01*
X126461653Y-70939465D01*
X126461912Y-70958349D01*
X126462092Y-71013092D01*
X126462092Y-71121516D01*
X126117209Y-71236373D01*
X125983530Y-71281084D01*
X125874430Y-71317900D01*
X125801153Y-71343003D01*
X125781462Y-71349970D01*
X125774943Y-71352577D01*
X126119747Y-71475051D01*
X126462013Y-71596177D01*
X126462013Y-71710477D01*
X126462008Y-71729470D01*
X126461989Y-71746238D01*
X126461949Y-71760915D01*
X126461881Y-71773637D01*
X126461834Y-71779307D01*
X126461777Y-71784538D01*
X126461711Y-71789348D01*
X126461633Y-71793754D01*
X126461542Y-71797772D01*
X126461439Y-71801420D01*
X126461322Y-71804714D01*
X126461190Y-71807671D01*
X126461042Y-71810308D01*
X126460879Y-71812642D01*
X126460697Y-71814690D01*
X126460498Y-71816468D01*
X126460280Y-71817994D01*
X126460163Y-71818668D01*
X126460041Y-71819285D01*
X126459915Y-71819847D01*
X126459782Y-71820357D01*
X126459645Y-71820816D01*
X126459502Y-71821227D01*
X126459353Y-71821591D01*
X126459199Y-71821912D01*
X126459039Y-71822190D01*
X126458873Y-71822429D01*
X126458700Y-71822630D01*
X126458522Y-71822795D01*
X126458338Y-71822927D01*
X126458147Y-71823027D01*
X126457949Y-71823098D01*
X126457745Y-71823142D01*
X126457535Y-71823161D01*
X126457317Y-71823156D01*
X126457093Y-71823131D01*
X126456861Y-71823087D01*
X126456377Y-71822951D01*
X125992749Y-71645388D01*
X125534756Y-71469732D01*
X125533961Y-71350112D01*
X125533167Y-71230495D01*
X125993225Y-71068650D01*
X126457648Y-70905772D01*
X126457667Y-70905753D01*
X126457687Y-70905734D01*
X126457697Y-70905725D01*
X126457706Y-70905715D01*
X126457717Y-70905706D01*
X126457727Y-70905697D01*
X126458364Y-70905774D01*
G37*
G36*
X126150169Y-70164523D02*
G01*
X126162541Y-70165274D01*
X126174706Y-70166263D01*
X126186646Y-70167487D01*
X126198342Y-70168942D01*
X126209775Y-70170625D01*
X126220929Y-70172532D01*
X126231785Y-70174659D01*
X126242324Y-70177003D01*
X126252529Y-70179559D01*
X126262382Y-70182326D01*
X126271864Y-70185298D01*
X126280957Y-70188473D01*
X126289643Y-70191847D01*
X126297904Y-70195415D01*
X126305722Y-70199175D01*
X126316368Y-70204713D01*
X126321136Y-70207315D01*
X126325600Y-70209855D01*
X126329813Y-70212371D01*
X126333825Y-70214899D01*
X126337688Y-70217476D01*
X126341452Y-70220141D01*
X126345169Y-70222929D01*
X126348889Y-70225877D01*
X126352664Y-70229024D01*
X126356544Y-70232406D01*
X126360582Y-70236060D01*
X126364827Y-70240023D01*
X126374145Y-70249024D01*
X126383996Y-70259250D01*
X126393341Y-70270046D01*
X126402181Y-70281416D01*
X126410517Y-70293362D01*
X126418350Y-70305888D01*
X126425682Y-70318996D01*
X126432513Y-70332690D01*
X126438846Y-70346972D01*
X126444681Y-70361846D01*
X126450019Y-70377315D01*
X126454863Y-70393381D01*
X126459212Y-70410048D01*
X126463069Y-70427318D01*
X126466435Y-70445196D01*
X126469311Y-70463682D01*
X126471698Y-70482782D01*
X126471613Y-70482943D01*
X126472850Y-70499088D01*
X126473490Y-70518697D01*
X126473568Y-70540594D01*
X126473120Y-70563598D01*
X126472181Y-70586531D01*
X126470786Y-70608215D01*
X126468971Y-70627472D01*
X126466770Y-70643122D01*
X126462089Y-70666351D01*
X126456454Y-70688749D01*
X126449888Y-70710282D01*
X126442416Y-70730917D01*
X126434059Y-70750622D01*
X126424841Y-70769362D01*
X126414786Y-70787104D01*
X126409451Y-70795591D01*
X126403915Y-70803816D01*
X126398182Y-70811774D01*
X126392253Y-70819463D01*
X126386133Y-70826877D01*
X126379823Y-70834013D01*
X126373327Y-70840866D01*
X126366648Y-70847432D01*
X126359787Y-70853708D01*
X126352750Y-70859688D01*
X126345537Y-70865369D01*
X126338153Y-70870746D01*
X126330600Y-70875816D01*
X126322880Y-70880574D01*
X126314998Y-70885017D01*
X126306955Y-70889139D01*
X126298754Y-70892937D01*
X126290399Y-70896406D01*
X126284554Y-70898632D01*
X126278841Y-70900671D01*
X126273230Y-70902526D01*
X126267688Y-70904205D01*
X126262184Y-70905713D01*
X126256684Y-70907056D01*
X126251158Y-70908238D01*
X126245573Y-70909266D01*
X126239896Y-70910145D01*
X126234096Y-70910881D01*
X126228141Y-70911479D01*
X126221998Y-70911945D01*
X126215636Y-70912285D01*
X126209022Y-70912503D01*
X126194912Y-70912600D01*
X126173931Y-70911696D01*
X126153784Y-70909334D01*
X126144019Y-70907603D01*
X126134457Y-70905503D01*
X126125097Y-70903033D01*
X126115936Y-70900192D01*
X126106974Y-70896978D01*
X126098209Y-70893390D01*
X126089639Y-70889427D01*
X126081262Y-70885087D01*
X126073077Y-70880369D01*
X126065082Y-70875272D01*
X126057275Y-70869794D01*
X126049656Y-70863934D01*
X126042221Y-70857690D01*
X126034970Y-70851062D01*
X126027900Y-70844047D01*
X126021011Y-70836645D01*
X126007766Y-70820672D01*
X125995222Y-70803134D01*
X125983365Y-70784018D01*
X125972182Y-70763315D01*
X125961660Y-70741012D01*
X125951786Y-70717100D01*
X125941657Y-70689580D01*
X125936521Y-70674422D01*
X125931000Y-70657260D01*
X125917797Y-70613704D01*
X125900033Y-70552476D01*
X125895464Y-70536835D01*
X125891006Y-70522156D01*
X125886642Y-70508406D01*
X125882360Y-70495552D01*
X125878143Y-70483561D01*
X125873978Y-70472400D01*
X125869849Y-70462034D01*
X125865743Y-70452433D01*
X125861644Y-70443561D01*
X125857538Y-70435387D01*
X125853410Y-70427876D01*
X125849245Y-70420997D01*
X125845030Y-70414715D01*
X125840748Y-70408997D01*
X125836386Y-70403811D01*
X125831929Y-70399123D01*
X125829217Y-70396515D01*
X125826587Y-70394127D01*
X125823999Y-70391938D01*
X125821411Y-70389931D01*
X125818780Y-70388087D01*
X125816066Y-70386385D01*
X125813228Y-70384808D01*
X125810222Y-70383337D01*
X125807008Y-70381952D01*
X125803544Y-70380634D01*
X125799788Y-70379365D01*
X125795699Y-70378126D01*
X125791235Y-70376898D01*
X125786354Y-70375661D01*
X125775177Y-70373087D01*
X125773732Y-70372745D01*
X125772452Y-70372383D01*
X125771325Y-70371970D01*
X125770338Y-70371474D01*
X125769478Y-70370864D01*
X125769092Y-70370507D01*
X125768734Y-70370109D01*
X125768091Y-70369177D01*
X125767537Y-70368038D01*
X125767059Y-70366659D01*
X125766645Y-70365011D01*
X125766282Y-70363060D01*
X125765957Y-70360777D01*
X125765657Y-70358129D01*
X125765369Y-70355086D01*
X125764779Y-70347689D01*
X125763939Y-70332872D01*
X125762943Y-70309826D01*
X125761933Y-70281719D01*
X125761049Y-70251723D01*
X125759143Y-70179175D01*
X125791291Y-70181160D01*
X125805361Y-70182175D01*
X125811717Y-70182774D01*
X125817696Y-70183451D01*
X125823356Y-70184220D01*
X125828754Y-70185096D01*
X125833948Y-70186092D01*
X125838996Y-70187222D01*
X125843954Y-70188500D01*
X125848880Y-70189940D01*
X125853831Y-70191556D01*
X125858866Y-70193360D01*
X125864042Y-70195368D01*
X125869415Y-70197593D01*
X125880985Y-70202750D01*
X125891596Y-70208003D01*
X125901827Y-70213803D01*
X125911694Y-70220167D01*
X125921210Y-70227109D01*
X125930388Y-70234648D01*
X125939242Y-70242798D01*
X125947786Y-70251577D01*
X125956033Y-70261001D01*
X125963997Y-70271087D01*
X125971693Y-70281850D01*
X125979133Y-70293307D01*
X125986331Y-70305475D01*
X125993302Y-70318370D01*
X126000059Y-70332008D01*
X126006614Y-70346405D01*
X126012984Y-70361579D01*
X126017940Y-70374624D01*
X126023685Y-70391006D01*
X126030018Y-70410080D01*
X126036738Y-70431201D01*
X126050535Y-70477007D01*
X126063468Y-70523267D01*
X126068627Y-70541518D01*
X126074573Y-70560815D01*
X126081029Y-70580388D01*
X126087717Y-70599466D01*
X126094361Y-70617278D01*
X126100683Y-70633056D01*
X126106406Y-70646028D01*
X126108956Y-70651222D01*
X126111253Y-70655425D01*
X126113982Y-70659859D01*
X126116890Y-70664193D01*
X126119961Y-70668412D01*
X126123178Y-70672501D01*
X126126526Y-70676445D01*
X126129987Y-70680230D01*
X126133547Y-70683841D01*
X126137188Y-70687263D01*
X126140893Y-70690481D01*
X126144648Y-70693481D01*
X126148435Y-70696248D01*
X126152239Y-70698766D01*
X126156043Y-70701022D01*
X126159830Y-70703000D01*
X126163585Y-70704686D01*
X126167290Y-70706065D01*
X126170459Y-70707054D01*
X126173652Y-70707924D01*
X126180095Y-70709312D01*
X126186588Y-70710235D01*
X126193097Y-70710702D01*
X126199592Y-70710720D01*
X126206040Y-70710296D01*
X126212408Y-70709440D01*
X126218666Y-70708158D01*
X126224780Y-70706459D01*
X126230719Y-70704350D01*
X126236451Y-70701838D01*
X126241943Y-70698933D01*
X126247163Y-70695640D01*
X126249662Y-70693852D01*
X126252080Y-70691969D01*
X126254414Y-70689994D01*
X126256661Y-70687927D01*
X126258815Y-70685770D01*
X126260874Y-70683522D01*
X126266792Y-70676088D01*
X126272331Y-70667746D01*
X126277470Y-70658585D01*
X126282190Y-70648693D01*
X126286473Y-70638160D01*
X126290299Y-70627075D01*
X126293649Y-70615526D01*
X126296504Y-70603602D01*
X126298844Y-70591393D01*
X126300651Y-70578987D01*
X126301905Y-70566474D01*
X126302587Y-70553942D01*
X126302678Y-70541480D01*
X126302159Y-70529177D01*
X126301010Y-70517122D01*
X126299212Y-70505405D01*
X126295926Y-70489853D01*
X126291985Y-70475310D01*
X126287377Y-70461764D01*
X126284820Y-70455363D01*
X126282093Y-70449207D01*
X126279194Y-70443296D01*
X126276122Y-70437628D01*
X126272876Y-70432203D01*
X126269455Y-70427019D01*
X126265857Y-70422074D01*
X126262081Y-70417368D01*
X126258125Y-70412899D01*
X126253989Y-70408666D01*
X126249671Y-70404668D01*
X126245170Y-70400904D01*
X126240485Y-70397372D01*
X126235614Y-70394072D01*
X126230556Y-70391001D01*
X126225310Y-70388159D01*
X126219874Y-70385545D01*
X126214247Y-70383157D01*
X126208429Y-70380994D01*
X126202417Y-70379055D01*
X126196210Y-70377339D01*
X126189808Y-70375844D01*
X126183208Y-70374569D01*
X126176410Y-70373514D01*
X126162213Y-70372055D01*
X126135146Y-70370150D01*
X126135146Y-70267042D01*
X126135197Y-70246343D01*
X126135341Y-70227035D01*
X126135569Y-70209538D01*
X126135871Y-70194275D01*
X126136235Y-70181669D01*
X126136653Y-70172142D01*
X126137114Y-70166116D01*
X126137357Y-70164548D01*
X126137481Y-70164148D01*
X126137607Y-70164014D01*
X126150169Y-70164523D01*
G37*
G36*
X126022096Y-66040684D02*
G01*
X126037582Y-66041707D01*
X126054475Y-66043304D01*
X126072085Y-66045384D01*
X126089726Y-66047858D01*
X126106708Y-66050638D01*
X126122343Y-66053633D01*
X126135943Y-66056755D01*
X126145997Y-66059439D01*
X126155950Y-66062313D01*
X126165801Y-66065376D01*
X126175547Y-66068628D01*
X126185188Y-66072068D01*
X126194723Y-66075696D01*
X126204151Y-66079511D01*
X126213470Y-66083514D01*
X126222680Y-66087704D01*
X126231778Y-66092080D01*
X126240765Y-66096643D01*
X126249638Y-66101392D01*
X126258397Y-66106326D01*
X126267040Y-66111446D01*
X126275567Y-66116750D01*
X126283976Y-66122239D01*
X126290097Y-66126559D01*
X126296811Y-66131710D01*
X126304014Y-66137590D01*
X126311603Y-66144094D01*
X126319473Y-66151117D01*
X126327519Y-66158557D01*
X126343725Y-66174268D01*
X126359388Y-66190397D01*
X126366755Y-66198357D01*
X126373674Y-66206110D01*
X126380041Y-66213552D01*
X126385750Y-66220577D01*
X126390699Y-66227084D01*
X126394782Y-66232966D01*
X126402272Y-66244840D01*
X126409436Y-66257024D01*
X126416267Y-66269497D01*
X126422759Y-66282240D01*
X126428904Y-66295234D01*
X126434695Y-66308458D01*
X126440124Y-66321893D01*
X126445185Y-66335518D01*
X126449870Y-66349315D01*
X126454172Y-66363264D01*
X126458084Y-66377344D01*
X126461599Y-66391535D01*
X126464708Y-66405819D01*
X126467406Y-66420175D01*
X126469686Y-66434584D01*
X126471538Y-66449025D01*
X126471538Y-66449104D01*
X126472914Y-66466315D01*
X126473611Y-66486823D01*
X126473666Y-66509570D01*
X126473116Y-66533500D01*
X126471996Y-66557557D01*
X126470344Y-66580684D01*
X126468195Y-66601823D01*
X126465586Y-66619919D01*
X126463044Y-66633436D01*
X126460104Y-66646939D01*
X126456776Y-66660395D01*
X126453076Y-66673774D01*
X126449015Y-66687044D01*
X126444608Y-66700173D01*
X126439868Y-66713131D01*
X126434807Y-66725886D01*
X126429440Y-66738407D01*
X126423778Y-66750661D01*
X126417836Y-66762619D01*
X126411627Y-66774248D01*
X126405164Y-66785517D01*
X126398461Y-66796394D01*
X126391529Y-66806849D01*
X126384384Y-66816849D01*
X126376661Y-66826846D01*
X126368429Y-66836725D01*
X126359723Y-66846458D01*
X126350580Y-66856017D01*
X126341035Y-66865374D01*
X126331124Y-66874500D01*
X126320883Y-66883367D01*
X126310347Y-66891948D01*
X126299553Y-66900213D01*
X126288536Y-66908134D01*
X126277332Y-66915683D01*
X126265977Y-66922833D01*
X126254506Y-66929554D01*
X126242956Y-66935819D01*
X126231363Y-66941599D01*
X126219761Y-66946865D01*
X126206531Y-66952417D01*
X126193711Y-66957476D01*
X126181197Y-66962061D01*
X126168886Y-66966191D01*
X126156673Y-66969885D01*
X126144455Y-66973161D01*
X126132128Y-66976038D01*
X126119589Y-66978536D01*
X126106734Y-66980673D01*
X126093458Y-66982468D01*
X126079659Y-66983939D01*
X126065232Y-66985106D01*
X126050075Y-66985988D01*
X126034082Y-66986603D01*
X125999178Y-66987108D01*
X125976533Y-66987107D01*
X125957997Y-66986951D01*
X125942742Y-66986588D01*
X125936087Y-66986314D01*
X125929943Y-66985968D01*
X125924207Y-66985545D01*
X125918774Y-66985039D01*
X125913542Y-66984442D01*
X125908408Y-66983749D01*
X125898020Y-66982049D01*
X125886784Y-66979887D01*
X125870855Y-66976348D01*
X125854375Y-66972121D01*
X125837682Y-66967319D01*
X125821118Y-66962056D01*
X125805024Y-66956448D01*
X125789738Y-66950608D01*
X125775602Y-66944651D01*
X125762957Y-66938691D01*
X125745531Y-66929403D01*
X125728600Y-66919354D01*
X125712185Y-66908569D01*
X125696310Y-66897073D01*
X125680996Y-66884890D01*
X125666266Y-66872044D01*
X125652142Y-66858560D01*
X125638645Y-66844463D01*
X125625799Y-66829778D01*
X125613625Y-66814528D01*
X125602146Y-66798738D01*
X125591384Y-66782433D01*
X125581360Y-66765637D01*
X125572098Y-66748375D01*
X125563620Y-66730671D01*
X125555947Y-66712551D01*
X125552079Y-66702331D01*
X125548370Y-66691598D01*
X125544833Y-66680417D01*
X125541480Y-66668855D01*
X125535377Y-66644848D01*
X125530160Y-66620099D01*
X125525929Y-66595136D01*
X125522784Y-66570481D01*
X125521649Y-66558433D01*
X125520824Y-66546659D01*
X125520319Y-66535225D01*
X125520148Y-66524196D01*
X125520148Y-66496810D01*
X125712951Y-66496810D01*
X125716840Y-66539674D01*
X125718673Y-66558007D01*
X125719651Y-66566231D01*
X125720696Y-66573921D01*
X125721825Y-66581148D01*
X125723056Y-66587985D01*
X125724408Y-66594502D01*
X125725899Y-66600771D01*
X125727547Y-66606864D01*
X125729370Y-66612851D01*
X125731387Y-66618804D01*
X125733617Y-66624794D01*
X125736076Y-66630894D01*
X125738784Y-66637173D01*
X125741758Y-66643704D01*
X125745018Y-66650559D01*
X125751220Y-66662500D01*
X125758003Y-66673944D01*
X125765362Y-66684885D01*
X125773289Y-66695317D01*
X125781779Y-66705237D01*
X125790826Y-66714639D01*
X125800422Y-66723518D01*
X125810563Y-66731869D01*
X125821241Y-66739686D01*
X125832451Y-66746966D01*
X125844186Y-66753703D01*
X125856439Y-66759892D01*
X125869205Y-66765528D01*
X125882478Y-66770606D01*
X125896250Y-66775121D01*
X125910516Y-66779067D01*
X125919232Y-66781133D01*
X125927425Y-66782774D01*
X125935663Y-66784038D01*
X125944519Y-66784970D01*
X125954561Y-66785616D01*
X125966360Y-66786020D01*
X125980487Y-66786230D01*
X125997511Y-66786289D01*
X126014536Y-66786233D01*
X126028669Y-66786030D01*
X126040483Y-66785632D01*
X126045700Y-66785345D01*
X126050554Y-66784990D01*
X126055115Y-66784561D01*
X126059457Y-66784053D01*
X126063649Y-66783459D01*
X126067766Y-66782774D01*
X126071877Y-66781990D01*
X126076056Y-66781101D01*
X126084902Y-66778987D01*
X126108628Y-66772008D01*
X126119974Y-66767893D01*
X126130969Y-66763369D01*
X126141609Y-66758441D01*
X126151891Y-66753117D01*
X126161810Y-66747401D01*
X126171361Y-66741300D01*
X126180541Y-66734820D01*
X126189346Y-66727968D01*
X126197771Y-66720749D01*
X126205812Y-66713168D01*
X126213466Y-66705234D01*
X126220728Y-66696950D01*
X126227593Y-66688324D01*
X126234059Y-66679362D01*
X126240120Y-66670069D01*
X126245772Y-66660452D01*
X126251012Y-66650516D01*
X126255834Y-66640268D01*
X126260236Y-66629714D01*
X126264213Y-66618860D01*
X126270875Y-66596275D01*
X126275787Y-66572563D01*
X126278915Y-66547771D01*
X126280227Y-66521948D01*
X126279690Y-66495142D01*
X126279168Y-66486838D01*
X126278493Y-66478757D01*
X126277659Y-66470883D01*
X126276663Y-66463196D01*
X126275500Y-66455676D01*
X126274164Y-66448305D01*
X126272652Y-66441064D01*
X126270958Y-66433935D01*
X126269078Y-66426897D01*
X126267008Y-66419933D01*
X126264742Y-66413022D01*
X126262277Y-66406147D01*
X126259606Y-66399289D01*
X126256727Y-66392427D01*
X126253633Y-66385545D01*
X126250321Y-66378621D01*
X126242359Y-66363826D01*
X126233456Y-66349838D01*
X126223632Y-66336669D01*
X126212906Y-66324331D01*
X126201299Y-66312834D01*
X126188830Y-66302191D01*
X126175517Y-66292412D01*
X126161382Y-66283509D01*
X126146443Y-66275494D01*
X126130720Y-66268377D01*
X126114232Y-66262171D01*
X126096999Y-66256886D01*
X126079040Y-66252534D01*
X126060376Y-66249127D01*
X126041025Y-66246675D01*
X126021007Y-66245190D01*
X125982986Y-66243286D01*
X125982986Y-66040323D01*
X126008705Y-66040323D01*
X126022096Y-66040684D01*
G37*
G36*
X126013842Y-68274052D02*
G01*
X126027476Y-68274830D01*
X126042404Y-68276052D01*
X126058095Y-68277658D01*
X126074017Y-68279589D01*
X126089637Y-68281782D01*
X126104424Y-68284179D01*
X126117845Y-68286718D01*
X126142918Y-68292608D01*
X126167363Y-68299754D01*
X126191142Y-68308128D01*
X126214218Y-68317702D01*
X126236556Y-68328449D01*
X126258116Y-68340339D01*
X126278863Y-68353345D01*
X126298760Y-68367440D01*
X126317769Y-68382596D01*
X126335854Y-68398783D01*
X126352978Y-68415976D01*
X126369103Y-68434145D01*
X126384193Y-68453263D01*
X126398211Y-68473301D01*
X126411119Y-68494233D01*
X126422882Y-68516030D01*
X126427339Y-68525212D01*
X126431656Y-68534756D01*
X126435822Y-68544625D01*
X126439827Y-68554783D01*
X126447315Y-68575821D01*
X126454036Y-68597578D01*
X126459908Y-68619762D01*
X126464851Y-68642084D01*
X126466947Y-68653205D01*
X126468781Y-68664251D01*
X126470341Y-68675185D01*
X126471617Y-68685972D01*
X126471621Y-68686049D01*
X126473009Y-68701488D01*
X126473965Y-68717198D01*
X126474493Y-68733122D01*
X126474600Y-68749204D01*
X126474292Y-68765388D01*
X126473575Y-68781617D01*
X126472454Y-68797833D01*
X126470935Y-68813982D01*
X126469025Y-68830006D01*
X126466729Y-68845849D01*
X126464054Y-68861454D01*
X126461005Y-68876765D01*
X126457588Y-68891726D01*
X126453809Y-68906279D01*
X126449674Y-68920368D01*
X126445190Y-68933937D01*
X126432840Y-68965539D01*
X126418560Y-68995464D01*
X126402393Y-69023684D01*
X126384380Y-69050168D01*
X126364563Y-69074888D01*
X126342985Y-69097812D01*
X126319688Y-69118913D01*
X126294713Y-69138159D01*
X126268103Y-69155522D01*
X126239900Y-69170971D01*
X126210145Y-69184478D01*
X126178882Y-69196012D01*
X126146152Y-69205544D01*
X126111997Y-69213044D01*
X126076460Y-69218482D01*
X126039582Y-69221830D01*
X126020558Y-69222734D01*
X126001783Y-69223113D01*
X125983264Y-69222968D01*
X125965007Y-69222303D01*
X125947016Y-69221120D01*
X125929299Y-69219422D01*
X125911860Y-69217212D01*
X125894706Y-69214493D01*
X125877843Y-69211267D01*
X125861276Y-69207538D01*
X125845011Y-69203308D01*
X125829055Y-69198580D01*
X125813412Y-69193356D01*
X125798089Y-69187640D01*
X125783093Y-69181434D01*
X125768427Y-69174741D01*
X125754099Y-69167564D01*
X125740114Y-69159906D01*
X125726479Y-69151769D01*
X125713198Y-69143156D01*
X125700279Y-69134070D01*
X125687726Y-69124514D01*
X125675545Y-69114491D01*
X125663743Y-69104003D01*
X125652325Y-69093053D01*
X125641298Y-69081644D01*
X125630666Y-69069779D01*
X125620436Y-69057461D01*
X125610614Y-69044691D01*
X125601206Y-69031474D01*
X125592216Y-69017812D01*
X125583653Y-69003707D01*
X125576611Y-68990999D01*
X125569903Y-68977650D01*
X125563547Y-68963723D01*
X125557556Y-68949280D01*
X125551949Y-68934384D01*
X125546740Y-68919097D01*
X125541947Y-68903483D01*
X125537585Y-68887603D01*
X125533670Y-68871521D01*
X125530219Y-68855298D01*
X125527248Y-68838997D01*
X125524772Y-68822682D01*
X125522809Y-68806414D01*
X125521373Y-68790256D01*
X125520482Y-68774270D01*
X125520152Y-68758520D01*
X125520152Y-68730183D01*
X125712954Y-68730183D01*
X125716765Y-68773044D01*
X125717658Y-68782336D01*
X125718647Y-68791212D01*
X125719739Y-68799702D01*
X125720942Y-68807836D01*
X125722264Y-68815644D01*
X125723713Y-68823157D01*
X125725297Y-68830405D01*
X125727024Y-68837418D01*
X125728901Y-68844226D01*
X125730938Y-68850860D01*
X125733140Y-68857350D01*
X125735517Y-68863725D01*
X125738077Y-68870017D01*
X125740826Y-68876256D01*
X125743774Y-68882471D01*
X125746928Y-68888693D01*
X125751775Y-68897628D01*
X125756801Y-68906165D01*
X125762024Y-68914320D01*
X125767459Y-68922110D01*
X125773122Y-68929549D01*
X125779030Y-68936653D01*
X125785199Y-68943439D01*
X125791644Y-68949922D01*
X125798382Y-68956118D01*
X125805430Y-68962041D01*
X125812803Y-68967709D01*
X125820517Y-68973136D01*
X125828590Y-68978339D01*
X125837036Y-68983332D01*
X125845872Y-68988133D01*
X125855114Y-68992756D01*
X125871768Y-69000423D01*
X125879474Y-69003654D01*
X125886918Y-69006513D01*
X125894216Y-69009019D01*
X125901481Y-69011196D01*
X125908828Y-69013064D01*
X125916372Y-69014644D01*
X125924225Y-69015958D01*
X125932505Y-69017028D01*
X125941323Y-69017874D01*
X125950796Y-69018518D01*
X125961036Y-69018982D01*
X125972160Y-69019287D01*
X125997513Y-69019506D01*
X126016794Y-69019456D01*
X126032460Y-69019272D01*
X126039147Y-69019112D01*
X126045183Y-69018899D01*
X126050651Y-69018626D01*
X126055634Y-69018286D01*
X126060218Y-69017872D01*
X126064486Y-69017379D01*
X126068522Y-69016798D01*
X126072409Y-69016125D01*
X126076233Y-69015351D01*
X126080076Y-69014470D01*
X126084023Y-69013476D01*
X126088158Y-69012363D01*
X126094498Y-69010512D01*
X126100939Y-69008451D01*
X126107454Y-69006193D01*
X126114013Y-69003752D01*
X126120590Y-69001139D01*
X126127157Y-68998369D01*
X126133686Y-68995455D01*
X126140150Y-68992410D01*
X126146521Y-68989246D01*
X126152771Y-68985977D01*
X126158873Y-68982617D01*
X126164798Y-68979177D01*
X126170520Y-68975673D01*
X126176011Y-68972115D01*
X126181242Y-68968519D01*
X126186187Y-68964896D01*
X126197919Y-68955313D01*
X126208934Y-68944865D01*
X126219219Y-68933588D01*
X126228758Y-68921521D01*
X126237537Y-68908700D01*
X126245540Y-68895162D01*
X126252754Y-68880944D01*
X126259163Y-68866084D01*
X126264752Y-68850618D01*
X126269507Y-68834584D01*
X126273413Y-68818018D01*
X126276456Y-68800958D01*
X126278619Y-68783441D01*
X126279890Y-68765504D01*
X126280252Y-68747184D01*
X126279691Y-68728518D01*
X126279156Y-68720199D01*
X126278468Y-68712107D01*
X126277624Y-68704222D01*
X126276619Y-68696526D01*
X126275448Y-68689000D01*
X126274106Y-68681625D01*
X126272589Y-68674381D01*
X126270891Y-68667251D01*
X126269008Y-68660214D01*
X126266935Y-68653252D01*
X126264667Y-68646346D01*
X126262200Y-68639478D01*
X126259529Y-68632627D01*
X126256649Y-68625776D01*
X126253555Y-68618905D01*
X126250243Y-68611995D01*
X126244826Y-68601669D01*
X126238989Y-68591761D01*
X126232730Y-68582268D01*
X126226042Y-68573186D01*
X126218923Y-68564512D01*
X126211367Y-68556241D01*
X126203370Y-68548370D01*
X126194929Y-68540896D01*
X126186038Y-68533814D01*
X126176694Y-68527120D01*
X126166891Y-68520812D01*
X126156627Y-68514886D01*
X126145896Y-68509336D01*
X126134694Y-68504161D01*
X126123017Y-68499356D01*
X126110861Y-68494918D01*
X126105542Y-68493194D01*
X126099776Y-68491511D01*
X126087136Y-68488308D01*
X126073407Y-68485386D01*
X126059058Y-68482823D01*
X126044556Y-68480694D01*
X126030370Y-68479078D01*
X126016967Y-68478052D01*
X126010706Y-68477784D01*
X126004815Y-68477693D01*
X125982986Y-68477693D01*
X125982986Y-68273779D01*
X126002036Y-68273779D01*
X126013842Y-68274052D01*
G37*
G36*
X123525851Y-70086125D02*
G01*
X123582043Y-70089386D01*
X123638075Y-70094821D01*
X123693949Y-70102432D01*
X123749667Y-70112219D01*
X123805230Y-70124185D01*
X123860641Y-70138328D01*
X123915901Y-70154652D01*
X123943330Y-70163663D01*
X123970401Y-70173314D01*
X123997116Y-70183605D01*
X124023474Y-70194535D01*
X124049474Y-70206104D01*
X124075117Y-70218312D01*
X124100403Y-70231159D01*
X124125332Y-70244644D01*
X124149903Y-70258766D01*
X124174117Y-70273527D01*
X124197975Y-70288926D01*
X124221475Y-70304961D01*
X124244617Y-70321634D01*
X124267403Y-70338944D01*
X124289832Y-70356890D01*
X124311903Y-70375473D01*
X124333547Y-70394740D01*
X124354665Y-70414737D01*
X124375256Y-70435466D01*
X124395322Y-70456926D01*
X124414861Y-70479117D01*
X124433875Y-70502039D01*
X124452363Y-70525693D01*
X124470325Y-70550077D01*
X124487761Y-70575193D01*
X124504672Y-70601040D01*
X124521058Y-70627617D01*
X124536919Y-70654926D01*
X124552254Y-70682966D01*
X124567065Y-70711738D01*
X124581351Y-70741240D01*
X124595112Y-70771473D01*
X124608189Y-70802503D01*
X124620424Y-70834395D01*
X124631815Y-70867148D01*
X124642364Y-70900764D01*
X124652069Y-70935241D01*
X124660931Y-70970581D01*
X124668950Y-71006784D01*
X124676125Y-71043850D01*
X124682456Y-71081779D01*
X124687944Y-71120571D01*
X124692587Y-71160227D01*
X124696387Y-71200747D01*
X124699342Y-71242131D01*
X124701453Y-71284379D01*
X124703142Y-71371470D01*
X124702749Y-71412030D01*
X124701568Y-71452123D01*
X124699601Y-71491749D01*
X124696846Y-71530907D01*
X124693303Y-71569597D01*
X124688973Y-71607819D01*
X124683856Y-71645573D01*
X124677951Y-71682858D01*
X124671257Y-71719674D01*
X124663776Y-71756022D01*
X124655507Y-71791900D01*
X124646450Y-71827308D01*
X124636604Y-71862247D01*
X124625970Y-71896716D01*
X124614547Y-71930714D01*
X124602336Y-71964243D01*
X124589168Y-71997371D01*
X124574877Y-72030140D01*
X124559462Y-72062551D01*
X124542923Y-72094604D01*
X124525260Y-72126299D01*
X124506472Y-72157637D01*
X124486560Y-72188619D01*
X124465524Y-72219243D01*
X124443363Y-72249512D01*
X124420077Y-72279424D01*
X124395667Y-72308981D01*
X124370131Y-72338183D01*
X124343470Y-72367030D01*
X124315684Y-72395523D01*
X124286773Y-72423661D01*
X124256737Y-72451446D01*
X123863117Y-72048220D01*
X123867131Y-72044094D01*
X123871970Y-72038918D01*
X123884121Y-72025419D01*
X123899560Y-72007723D01*
X123918281Y-71985831D01*
X123928602Y-71973284D01*
X123939147Y-71959695D01*
X123949914Y-71945062D01*
X123960905Y-71929385D01*
X123972120Y-71912662D01*
X123983557Y-71894893D01*
X123995218Y-71876076D01*
X124007102Y-71856210D01*
X124018911Y-71835307D01*
X124030348Y-71813436D01*
X124041410Y-71790595D01*
X124052098Y-71766784D01*
X124062409Y-71742002D01*
X124072345Y-71716248D01*
X124081902Y-71689521D01*
X124091081Y-71661820D01*
X124099535Y-71633041D01*
X124106858Y-71603139D01*
X124113052Y-71572115D01*
X124118118Y-71539970D01*
X124122056Y-71506705D01*
X124124868Y-71472321D01*
X124126554Y-71436820D01*
X124127116Y-71400201D01*
X124126940Y-71380031D01*
X124126409Y-71360330D01*
X124125524Y-71341098D01*
X124124284Y-71322335D01*
X124122689Y-71304042D01*
X124120738Y-71286218D01*
X124118431Y-71268863D01*
X124115767Y-71251978D01*
X124112746Y-71235563D01*
X124109367Y-71219617D01*
X124105630Y-71204142D01*
X124101534Y-71189137D01*
X124097080Y-71174602D01*
X124092265Y-71160537D01*
X124087091Y-71146943D01*
X124081556Y-71133819D01*
X124075772Y-71121085D01*
X124069821Y-71108689D01*
X124063701Y-71096631D01*
X124057414Y-71084912D01*
X124050958Y-71073531D01*
X124044333Y-71062488D01*
X124037540Y-71051782D01*
X124030577Y-71041415D01*
X124023446Y-71031385D01*
X124016145Y-71021693D01*
X124008674Y-71012339D01*
X124001033Y-71003321D01*
X123993222Y-70994641D01*
X123985240Y-70986298D01*
X123977088Y-70978292D01*
X123968765Y-70970623D01*
X123960333Y-70963262D01*
X123951825Y-70956183D01*
X123943241Y-70949384D01*
X123934581Y-70942867D01*
X123925845Y-70936632D01*
X123917033Y-70930677D01*
X123908146Y-70925005D01*
X123899183Y-70919614D01*
X123890145Y-70914505D01*
X123881032Y-70909678D01*
X123871844Y-70905133D01*
X123862581Y-70900870D01*
X123853242Y-70896889D01*
X123843830Y-70893191D01*
X123834342Y-70889776D01*
X123824780Y-70886643D01*
X123805804Y-70881010D01*
X123787276Y-70876134D01*
X123769196Y-70872013D01*
X123751566Y-70868646D01*
X123734386Y-70866030D01*
X123717657Y-70864164D01*
X123709462Y-70863511D01*
X123701380Y-70863045D01*
X123693411Y-70862766D01*
X123685556Y-70862673D01*
X123685556Y-70862678D01*
X123685556Y-72513837D01*
X123604237Y-72513230D01*
X123523522Y-72511417D01*
X123443416Y-72508413D01*
X123363929Y-72504233D01*
X123324527Y-72501413D01*
X123285496Y-72497773D01*
X123246838Y-72493312D01*
X123208552Y-72488030D01*
X123170638Y-72481927D01*
X123133096Y-72474999D01*
X123095926Y-72467248D01*
X123059128Y-72458671D01*
X123022706Y-72449094D01*
X122986662Y-72438398D01*
X122950997Y-72426583D01*
X122915708Y-72413646D01*
X122880794Y-72399585D01*
X122846256Y-72384398D01*
X122812091Y-72368084D01*
X122778299Y-72350641D01*
X122761535Y-72341449D01*
X122744846Y-72331882D01*
X122728233Y-72321939D01*
X122711696Y-72311621D01*
X122695234Y-72300928D01*
X122678848Y-72289861D01*
X122662536Y-72278419D01*
X122646299Y-72266603D01*
X122630136Y-72254413D01*
X122614047Y-72241850D01*
X122582092Y-72215602D01*
X122550430Y-72187863D01*
X122519060Y-72158633D01*
X122494489Y-72133370D01*
X122471196Y-72107948D01*
X122449182Y-72082369D01*
X122428444Y-72056637D01*
X122408983Y-72030756D01*
X122399731Y-72017761D01*
X122390797Y-72004731D01*
X122382182Y-71991664D01*
X122373885Y-71978563D01*
X122365907Y-71965428D01*
X122358247Y-71952258D01*
X122343698Y-71925830D01*
X122330055Y-71899409D01*
X122317314Y-71872996D01*
X122305472Y-71846590D01*
X122294527Y-71820191D01*
X122284476Y-71793801D01*
X122275317Y-71767417D01*
X122267045Y-71741041D01*
X122259548Y-71714716D01*
X122252652Y-71688547D01*
X122246358Y-71662529D01*
X122240663Y-71636663D01*
X122235567Y-71610945D01*
X122231070Y-71585374D01*
X122227169Y-71559949D01*
X122223865Y-71534666D01*
X122221071Y-71509756D01*
X122218644Y-71485449D01*
X122216585Y-71461744D01*
X122214896Y-71438642D01*
X122213579Y-71416143D01*
X122212636Y-71394247D01*
X122212069Y-71372953D01*
X122211880Y-71352262D01*
X122212186Y-71323445D01*
X122759090Y-71323445D01*
X122759334Y-71343554D01*
X122760068Y-71363103D01*
X122761290Y-71382092D01*
X122763000Y-71400520D01*
X122765198Y-71418387D01*
X122767884Y-71435693D01*
X122771057Y-71452438D01*
X122774717Y-71468621D01*
X122778863Y-71484243D01*
X122783495Y-71499302D01*
X122788614Y-71513799D01*
X122794217Y-71527734D01*
X122800306Y-71541106D01*
X122806879Y-71553915D01*
X122813937Y-71566160D01*
X122821479Y-71577842D01*
X122829357Y-71589064D01*
X122837363Y-71599928D01*
X122845498Y-71610436D01*
X122853762Y-71620588D01*
X122862156Y-71630383D01*
X122870679Y-71639822D01*
X122879331Y-71648905D01*
X122888114Y-71657633D01*
X122897027Y-71666005D01*
X122906071Y-71674023D01*
X122915245Y-71681686D01*
X122924550Y-71688994D01*
X122933986Y-71695947D01*
X122943554Y-71702547D01*
X122953253Y-71708792D01*
X122963084Y-71714685D01*
X122972958Y-71720230D01*
X122982755Y-71725496D01*
X122992477Y-71730484D01*
X123002122Y-71735191D01*
X123011690Y-71739620D01*
X123021183Y-71743768D01*
X123030599Y-71747637D01*
X123039939Y-71751226D01*
X123049202Y-71754535D01*
X123058390Y-71757564D01*
X123067501Y-71760313D01*
X123076536Y-71762781D01*
X123085494Y-71764969D01*
X123094376Y-71766876D01*
X123103182Y-71768503D01*
X123111912Y-71769849D01*
X123143582Y-71774028D01*
X123157051Y-71775678D01*
X123168942Y-71777032D01*
X123179256Y-71778088D01*
X123187992Y-71778845D01*
X123195151Y-71779300D01*
X123200733Y-71779453D01*
X123200733Y-70862673D01*
X123195115Y-70862896D01*
X123187844Y-70863567D01*
X123178922Y-70864686D01*
X123168348Y-70866255D01*
X123156122Y-70868273D01*
X123142244Y-70870743D01*
X123109532Y-70877039D01*
X123100509Y-70878980D01*
X123091449Y-70881203D01*
X123082351Y-70883706D01*
X123073217Y-70886490D01*
X123064045Y-70889554D01*
X123054837Y-70892900D01*
X123045591Y-70896527D01*
X123036307Y-70900435D01*
X123026987Y-70904623D01*
X123017630Y-70909093D01*
X123008235Y-70913843D01*
X122998803Y-70918875D01*
X122989334Y-70924187D01*
X122979828Y-70929780D01*
X122970284Y-70935654D01*
X122960703Y-70941809D01*
X122951160Y-70948268D01*
X122941728Y-70955025D01*
X122932407Y-70962080D01*
X122923199Y-70969434D01*
X122914103Y-70977086D01*
X122905120Y-70985037D01*
X122896248Y-70993287D01*
X122887489Y-71001836D01*
X122878843Y-71010685D01*
X122870309Y-71019834D01*
X122861888Y-71029282D01*
X122853580Y-71039031D01*
X122845385Y-71049080D01*
X122837303Y-71059430D01*
X122829334Y-71070081D01*
X122821479Y-71081033D01*
X122813937Y-71092388D01*
X122806879Y-71104247D01*
X122800306Y-71116611D01*
X122794217Y-71129480D01*
X122788614Y-71142855D01*
X122783495Y-71156736D01*
X122778863Y-71171123D01*
X122774717Y-71186016D01*
X122771057Y-71201417D01*
X122767884Y-71217325D01*
X122765198Y-71233740D01*
X122763000Y-71250664D01*
X122761290Y-71268096D01*
X122760068Y-71286036D01*
X122759334Y-71304486D01*
X122759090Y-71323445D01*
X122212186Y-71323445D01*
X122212329Y-71310038D01*
X122213677Y-71268584D01*
X122215924Y-71227900D01*
X122219071Y-71187987D01*
X122223117Y-71148843D01*
X122228062Y-71110470D01*
X122233908Y-71072866D01*
X122240653Y-71036033D01*
X122248299Y-70999970D01*
X122256846Y-70964678D01*
X122266294Y-70930155D01*
X122276642Y-70896403D01*
X122287892Y-70863420D01*
X122300044Y-70831208D01*
X122313098Y-70799767D01*
X122327053Y-70769095D01*
X122341712Y-70739137D01*
X122356875Y-70709894D01*
X122372542Y-70681367D01*
X122388715Y-70653555D01*
X122405392Y-70626458D01*
X122422575Y-70600076D01*
X122440263Y-70574408D01*
X122458458Y-70549453D01*
X122477158Y-70525212D01*
X122496364Y-70501684D01*
X122516077Y-70478869D01*
X122536297Y-70456766D01*
X122557024Y-70435376D01*
X122578258Y-70414697D01*
X122599999Y-70394729D01*
X122622248Y-70375473D01*
X122644919Y-70356890D01*
X122667927Y-70338944D01*
X122691272Y-70321634D01*
X122714954Y-70304961D01*
X122738973Y-70288926D01*
X122763330Y-70273527D01*
X122788024Y-70258766D01*
X122813055Y-70244644D01*
X122838425Y-70231159D01*
X122864132Y-70218312D01*
X122890177Y-70206104D01*
X122916559Y-70194535D01*
X122943281Y-70183605D01*
X122970340Y-70173314D01*
X122997737Y-70163663D01*
X123025473Y-70154652D01*
X123081110Y-70138328D01*
X123136476Y-70124185D01*
X123191687Y-70112219D01*
X123200733Y-70110615D01*
X123246860Y-70102432D01*
X123302112Y-70094821D01*
X123357557Y-70089386D01*
X123413314Y-70086125D01*
X123469497Y-70085039D01*
X123525851Y-70086125D01*
G37*
G36*
X124626306Y-68141140D02*
G01*
X123479099Y-68141140D01*
X123443198Y-68141363D01*
X123407527Y-68142034D01*
X123372084Y-68143153D01*
X123336870Y-68144721D01*
X123301882Y-68146740D01*
X123267121Y-68149210D01*
X123232584Y-68152131D01*
X123198272Y-68155506D01*
X123181350Y-68157606D01*
X123164785Y-68160306D01*
X123148577Y-68163605D01*
X123132726Y-68167503D01*
X123117232Y-68172001D01*
X123102094Y-68177098D01*
X123087313Y-68182795D01*
X123072888Y-68189092D01*
X123058820Y-68195989D01*
X123045107Y-68203486D01*
X123031751Y-68211583D01*
X123018751Y-68220281D01*
X123006106Y-68229579D01*
X122993817Y-68239477D01*
X122981884Y-68249976D01*
X122970305Y-68261076D01*
X122962638Y-68268945D01*
X122955233Y-68276985D01*
X122948090Y-68285196D01*
X122941210Y-68293578D01*
X122934592Y-68302130D01*
X122928236Y-68310853D01*
X122922142Y-68319747D01*
X122916311Y-68328811D01*
X122910742Y-68338046D01*
X122905436Y-68347450D01*
X122900392Y-68357024D01*
X122895610Y-68366769D01*
X122891090Y-68376683D01*
X122886832Y-68386767D01*
X122882837Y-68397020D01*
X122879104Y-68407443D01*
X122872351Y-68428393D01*
X122866498Y-68449275D01*
X122861546Y-68470087D01*
X122857494Y-68490826D01*
X122855806Y-68501167D01*
X122854343Y-68511490D01*
X122853105Y-68521794D01*
X122852092Y-68532079D01*
X122851304Y-68542344D01*
X122850741Y-68552589D01*
X122850403Y-68562814D01*
X122850291Y-68573019D01*
X122850592Y-68593074D01*
X122851495Y-68612458D01*
X122852999Y-68631170D01*
X122855104Y-68649210D01*
X122857807Y-68666576D01*
X122859383Y-68675007D01*
X122861108Y-68683268D01*
X122862982Y-68691361D01*
X122865006Y-68699285D01*
X122867179Y-68707040D01*
X122869500Y-68714626D01*
X122871948Y-68722042D01*
X122874468Y-68729289D01*
X122877061Y-68736367D01*
X122879728Y-68743276D01*
X122882468Y-68750016D01*
X122885281Y-68756587D01*
X122888169Y-68762990D01*
X122891130Y-68769225D01*
X122894167Y-68775291D01*
X122897277Y-68781189D01*
X122900463Y-68786918D01*
X122903723Y-68792480D01*
X122907059Y-68797874D01*
X122910471Y-68803100D01*
X122913958Y-68808158D01*
X122917522Y-68813049D01*
X122925480Y-68824735D01*
X122933758Y-68835801D01*
X122942356Y-68846249D01*
X122951273Y-68856078D01*
X122960509Y-68865288D01*
X122970064Y-68873880D01*
X122979938Y-68881854D01*
X122990130Y-68889209D01*
X123000640Y-68895948D01*
X123011468Y-68902068D01*
X123022613Y-68907572D01*
X123034076Y-68912458D01*
X123045857Y-68916728D01*
X123057954Y-68920382D01*
X123070368Y-68923419D01*
X123083098Y-68925840D01*
X123109169Y-68929777D01*
X123135766Y-68933192D01*
X123162888Y-68936084D01*
X123190533Y-68938452D01*
X123218698Y-68940296D01*
X123247383Y-68941614D01*
X123276584Y-68942405D01*
X123306300Y-68942669D01*
X124626308Y-68942669D01*
X124626306Y-68942825D01*
X124626306Y-69710857D01*
X123171917Y-69710857D01*
X123121785Y-69710292D01*
X123072174Y-69708597D01*
X123023087Y-69705775D01*
X122974522Y-69701828D01*
X122926482Y-69696757D01*
X122878968Y-69690564D01*
X122831980Y-69683251D01*
X122785519Y-69674820D01*
X122762593Y-69669889D01*
X122739982Y-69664116D01*
X122717686Y-69657499D01*
X122695707Y-69650040D01*
X122674043Y-69641739D01*
X122652696Y-69632594D01*
X122631666Y-69622607D01*
X122610954Y-69611777D01*
X122590560Y-69600104D01*
X122570485Y-69587589D01*
X122550728Y-69574231D01*
X122531291Y-69560030D01*
X122512175Y-69544986D01*
X122493378Y-69529100D01*
X122474903Y-69512370D01*
X122456749Y-69494798D01*
X122439688Y-69477330D01*
X122423303Y-69459753D01*
X122407593Y-69442065D01*
X122392558Y-69424267D01*
X122378197Y-69406357D01*
X122364512Y-69388337D01*
X122351501Y-69370206D01*
X122339164Y-69351963D01*
X122327502Y-69333609D01*
X122316514Y-69315143D01*
X122306201Y-69296565D01*
X122296561Y-69277874D01*
X122287595Y-69259071D01*
X122279304Y-69240156D01*
X122271685Y-69221127D01*
X122264741Y-69201985D01*
X122258353Y-69182625D01*
X122252377Y-69162983D01*
X122241658Y-69122908D01*
X122232586Y-69081867D01*
X122225162Y-69039970D01*
X122219386Y-68997324D01*
X122215259Y-68954040D01*
X122212782Y-68910226D01*
X122211956Y-68865990D01*
X122212153Y-68843936D01*
X122212744Y-68822182D01*
X122213730Y-68800730D01*
X122215110Y-68779579D01*
X122216883Y-68758729D01*
X122219051Y-68738180D01*
X122221612Y-68717931D01*
X122224567Y-68697983D01*
X122227915Y-68678335D01*
X122231656Y-68658988D01*
X122235791Y-68639941D01*
X122240319Y-68621194D01*
X122245240Y-68602747D01*
X122250554Y-68584600D01*
X122256260Y-68566752D01*
X122262359Y-68549205D01*
X122275102Y-68515060D01*
X122288150Y-68482275D01*
X122301500Y-68450848D01*
X122315153Y-68420777D01*
X122329108Y-68392061D01*
X122343362Y-68364697D01*
X122357917Y-68338683D01*
X122372770Y-68314019D01*
X122387697Y-68290674D01*
X122402475Y-68268685D01*
X122417102Y-68248049D01*
X122424358Y-68238240D01*
X122431577Y-68228769D01*
X122438757Y-68219636D01*
X122445900Y-68210842D01*
X122453003Y-68202387D01*
X122460069Y-68194271D01*
X122467096Y-68186493D01*
X122474084Y-68179053D01*
X122481033Y-68171953D01*
X122487943Y-68165190D01*
X122531758Y-68123160D01*
X122545093Y-68110271D01*
X122552713Y-68102799D01*
X122303079Y-68093195D01*
X122303079Y-67373186D01*
X124626306Y-67373186D01*
X124626306Y-68141140D01*
G37*
G36*
X123682874Y-64517564D02*
G01*
X123741979Y-64518438D01*
X123800475Y-64519923D01*
X123858352Y-64522040D01*
X123887051Y-64523532D01*
X123915519Y-64525627D01*
X123943759Y-64528324D01*
X123971770Y-64531624D01*
X123999555Y-64535527D01*
X124027113Y-64540032D01*
X124054447Y-64545141D01*
X124081556Y-64550852D01*
X124108405Y-64557251D01*
X124134955Y-64564483D01*
X124161205Y-64572544D01*
X124187155Y-64581432D01*
X124212803Y-64591147D01*
X124238149Y-64601686D01*
X124263192Y-64613046D01*
X124287931Y-64625227D01*
X124300190Y-64631663D01*
X124312354Y-64638380D01*
X124324421Y-64645378D01*
X124336393Y-64652657D01*
X124348269Y-64660218D01*
X124360051Y-64668060D01*
X124371737Y-64676184D01*
X124383330Y-64684590D01*
X124394828Y-64693277D01*
X124406233Y-64702246D01*
X124417545Y-64711498D01*
X124428764Y-64721031D01*
X124439890Y-64730847D01*
X124450924Y-64740946D01*
X124461866Y-64751327D01*
X124472717Y-64761990D01*
X124499461Y-64791407D01*
X124524480Y-64822061D01*
X124547772Y-64853953D01*
X124569337Y-64887082D01*
X124589177Y-64921449D01*
X124607292Y-64957053D01*
X124623680Y-64993895D01*
X124638343Y-65031975D01*
X124651280Y-65071293D01*
X124662492Y-65111849D01*
X124671979Y-65153644D01*
X124679741Y-65196677D01*
X124685777Y-65240948D01*
X124690089Y-65286458D01*
X124692676Y-65333207D01*
X124693539Y-65381195D01*
X124692787Y-65426059D01*
X124690533Y-65469507D01*
X124688843Y-65490699D01*
X124686778Y-65511537D01*
X124684338Y-65532020D01*
X124681523Y-65552148D01*
X124678333Y-65571921D01*
X124674768Y-65591338D01*
X124670828Y-65610400D01*
X124666514Y-65629105D01*
X124661826Y-65647454D01*
X124656763Y-65665447D01*
X124651326Y-65683083D01*
X124645515Y-65700362D01*
X124633293Y-65733848D01*
X124620618Y-65765907D01*
X124607491Y-65796539D01*
X124593912Y-65825745D01*
X124579884Y-65853525D01*
X124565406Y-65879882D01*
X124557999Y-65892527D01*
X124550480Y-65904816D01*
X124542849Y-65916749D01*
X124535106Y-65928326D01*
X124519621Y-65950454D01*
X124504358Y-65971233D01*
X124496811Y-65981117D01*
X124489319Y-65990663D01*
X124481883Y-65999872D01*
X124474503Y-66008744D01*
X124467178Y-66017278D01*
X124459910Y-66025474D01*
X124452697Y-66033332D01*
X124445540Y-66040852D01*
X124438440Y-66048034D01*
X124431395Y-66054878D01*
X124424405Y-66061384D01*
X124417472Y-66067551D01*
X124392752Y-66089146D01*
X124373717Y-66105948D01*
X124366332Y-66112552D01*
X124360367Y-66117958D01*
X124355824Y-66122166D01*
X124352702Y-66125176D01*
X124626308Y-66144385D01*
X124626386Y-66144387D01*
X124626386Y-66854793D01*
X122303160Y-66854793D01*
X122303160Y-66086760D01*
X123445525Y-66086760D01*
X123486762Y-66086496D01*
X123526414Y-66085705D01*
X123564484Y-66084386D01*
X123600971Y-66082542D01*
X123635877Y-66080174D01*
X123669202Y-66077282D01*
X123700948Y-66073867D01*
X123731116Y-66069931D01*
X123745697Y-66067548D01*
X123760034Y-66064625D01*
X123774125Y-66061162D01*
X123787971Y-66057157D01*
X123801572Y-66052612D01*
X123814929Y-66047524D01*
X123828042Y-66041894D01*
X123840911Y-66035721D01*
X123853537Y-66029005D01*
X123865919Y-66021746D01*
X123878057Y-66013942D01*
X123889953Y-66005593D01*
X123901606Y-65996700D01*
X123913016Y-65987261D01*
X123924184Y-65977275D01*
X123935110Y-65966744D01*
X123942778Y-65958861D01*
X123950183Y-65950808D01*
X123957326Y-65942587D01*
X123964206Y-65934197D01*
X123970824Y-65925638D01*
X123977180Y-65916910D01*
X123983274Y-65908013D01*
X123989105Y-65898948D01*
X123994674Y-65889715D01*
X123999981Y-65880313D01*
X124005025Y-65870744D01*
X124009807Y-65861006D01*
X124014326Y-65851100D01*
X124018584Y-65841027D01*
X124022579Y-65830786D01*
X124026311Y-65820377D01*
X124033064Y-65799403D01*
X124038916Y-65778511D01*
X124043868Y-65757698D01*
X124047920Y-65736964D01*
X124049608Y-65726627D01*
X124051071Y-65716308D01*
X124052309Y-65706009D01*
X124053322Y-65695730D01*
X124054110Y-65685469D01*
X124054673Y-65675227D01*
X124055010Y-65665004D01*
X124055123Y-65654800D01*
X124054785Y-65635713D01*
X124053770Y-65616850D01*
X124052080Y-65598213D01*
X124049716Y-65579801D01*
X124046678Y-65561617D01*
X124042968Y-65543660D01*
X124038586Y-65525932D01*
X124033533Y-65508433D01*
X124030685Y-65499788D01*
X124027558Y-65491236D01*
X124024151Y-65482777D01*
X124020464Y-65474411D01*
X124016497Y-65466138D01*
X124012250Y-65457958D01*
X124007723Y-65449871D01*
X124002915Y-65441877D01*
X123997826Y-65433976D01*
X123992456Y-65426169D01*
X123986804Y-65418454D01*
X123980871Y-65410832D01*
X123974656Y-65403303D01*
X123968159Y-65395868D01*
X123961380Y-65388525D01*
X123954318Y-65381275D01*
X123945830Y-65373073D01*
X123937154Y-65365286D01*
X123928291Y-65357914D01*
X123919239Y-65350956D01*
X123909999Y-65344411D01*
X123900572Y-65338280D01*
X123890957Y-65332563D01*
X123881154Y-65327259D01*
X123871162Y-65322368D01*
X123860984Y-65317890D01*
X123850617Y-65313824D01*
X123840062Y-65310171D01*
X123829319Y-65306929D01*
X123818389Y-65304100D01*
X123807271Y-65301682D01*
X123795965Y-65299676D01*
X123772963Y-65296301D01*
X123749502Y-65293380D01*
X123725584Y-65290910D01*
X123701210Y-65288891D01*
X123676383Y-65287323D01*
X123651103Y-65286204D01*
X123625373Y-65285533D01*
X123599194Y-65285310D01*
X122303159Y-65285310D01*
X122303159Y-64517277D01*
X123623166Y-64517277D01*
X123682874Y-64517564D01*
G37*
G36*
X123464734Y-54527059D02*
G01*
X125519198Y-54527059D01*
X125519198Y-55295013D01*
X124396042Y-55295013D01*
X124404699Y-55302625D01*
X124413884Y-55311058D01*
X124423596Y-55320314D01*
X124433834Y-55330394D01*
X124444596Y-55341299D01*
X124455881Y-55353033D01*
X124467689Y-55365596D01*
X124480019Y-55378991D01*
X124492600Y-55393264D01*
X124505099Y-55408517D01*
X124517517Y-55424751D01*
X124529857Y-55441965D01*
X124542119Y-55460157D01*
X124554303Y-55479327D01*
X124566411Y-55499474D01*
X124578444Y-55520596D01*
X124590216Y-55542741D01*
X124601541Y-55566017D01*
X124612418Y-55590422D01*
X124622845Y-55615955D01*
X124632822Y-55642616D01*
X124642347Y-55670403D01*
X124651421Y-55699315D01*
X124660041Y-55729353D01*
X124667888Y-55760588D01*
X124674698Y-55793097D01*
X124680467Y-55826880D01*
X124685194Y-55861939D01*
X124688875Y-55898273D01*
X124691508Y-55935885D01*
X124693089Y-55974775D01*
X124693617Y-56014943D01*
X124693195Y-56050054D01*
X124691928Y-56084603D01*
X124689817Y-56118590D01*
X124686862Y-56152016D01*
X124683062Y-56184880D01*
X124678418Y-56217183D01*
X124672931Y-56248925D01*
X124666600Y-56280106D01*
X124659425Y-56310726D01*
X124651406Y-56340785D01*
X124642544Y-56370284D01*
X124632839Y-56399222D01*
X124622290Y-56427599D01*
X124610899Y-56455417D01*
X124598664Y-56482674D01*
X124585587Y-56509371D01*
X124571822Y-56535502D01*
X124557552Y-56561089D01*
X124542778Y-56586132D01*
X124527499Y-56610632D01*
X124511716Y-56634589D01*
X124495428Y-56658001D01*
X124478635Y-56680870D01*
X124461337Y-56703194D01*
X124443534Y-56724975D01*
X124425226Y-56746211D01*
X124406412Y-56766903D01*
X124387093Y-56787050D01*
X124367268Y-56806653D01*
X124346938Y-56825711D01*
X124326102Y-56844224D01*
X124304760Y-56862192D01*
X124282973Y-56879607D01*
X124260833Y-56896460D01*
X124238338Y-56912751D01*
X124215489Y-56928481D01*
X124192285Y-56943648D01*
X124168726Y-56958254D01*
X124144811Y-56972297D01*
X124120540Y-56985779D01*
X124095913Y-56998699D01*
X124070930Y-57011058D01*
X124045589Y-57022854D01*
X124019891Y-57034089D01*
X123993836Y-57044762D01*
X123967423Y-57054873D01*
X123940651Y-57064422D01*
X123913520Y-57073409D01*
X123858892Y-57089709D01*
X123804190Y-57103842D01*
X123749410Y-57115805D01*
X123694554Y-57125598D01*
X123639620Y-57133218D01*
X123584606Y-57138663D01*
X123529513Y-57141931D01*
X123474338Y-57143021D01*
X123474417Y-57143100D01*
X123432792Y-57142715D01*
X123391918Y-57141560D01*
X123351793Y-57139635D01*
X123312417Y-57136941D01*
X123273792Y-57133478D01*
X123235916Y-57129245D01*
X123198790Y-57124244D01*
X123162414Y-57118474D01*
X123126787Y-57111936D01*
X123091911Y-57104630D01*
X123057783Y-57096556D01*
X123024406Y-57087714D01*
X122991778Y-57078105D01*
X122959900Y-57067728D01*
X122928771Y-57056585D01*
X122898393Y-57044675D01*
X122868750Y-57032152D01*
X122839799Y-57019199D01*
X122811541Y-57005817D01*
X122783975Y-56992004D01*
X122757101Y-56977761D01*
X122730920Y-56963087D01*
X122705432Y-56947983D01*
X122680637Y-56932449D01*
X122656535Y-56916484D01*
X122633126Y-56900088D01*
X122610410Y-56883261D01*
X122588387Y-56866004D01*
X122567058Y-56848315D01*
X122546423Y-56830194D01*
X122526481Y-56811643D01*
X122507233Y-56792660D01*
X122488641Y-56773316D01*
X122470669Y-56753711D01*
X122453317Y-56733846D01*
X122436583Y-56713720D01*
X122420468Y-56693333D01*
X122404973Y-56672685D01*
X122390096Y-56651776D01*
X122375838Y-56630606D01*
X122362198Y-56609174D01*
X122349177Y-56587481D01*
X122336774Y-56565526D01*
X122324989Y-56543310D01*
X122313823Y-56520831D01*
X122303274Y-56498091D01*
X122293343Y-56475088D01*
X122284030Y-56451824D01*
X122275308Y-56428447D01*
X122267149Y-56405106D01*
X122259554Y-56381804D01*
X122252522Y-56358538D01*
X122246053Y-56335309D01*
X122240148Y-56312118D01*
X122234805Y-56288964D01*
X122230026Y-56265847D01*
X122225809Y-56242768D01*
X122222154Y-56219726D01*
X122219063Y-56196721D01*
X122216533Y-56173753D01*
X122214566Y-56150822D01*
X122213161Y-56127929D01*
X122212318Y-56105073D01*
X122212037Y-56082254D01*
X122212262Y-56056663D01*
X122212938Y-56031506D01*
X122214063Y-56006782D01*
X122215639Y-55982491D01*
X122217665Y-55958632D01*
X122220141Y-55935206D01*
X122223068Y-55912212D01*
X122226444Y-55889649D01*
X122230271Y-55867519D01*
X122234548Y-55845819D01*
X122239275Y-55824551D01*
X122240860Y-55818174D01*
X122816795Y-55818174D01*
X122817011Y-55834831D01*
X122817658Y-55851228D01*
X122818737Y-55867364D01*
X122820247Y-55883240D01*
X122822188Y-55898855D01*
X122824560Y-55914208D01*
X122827363Y-55929301D01*
X122830596Y-55944132D01*
X122834261Y-55958702D01*
X122838356Y-55973010D01*
X122842881Y-55987057D01*
X122847837Y-56000842D01*
X122853222Y-56014365D01*
X122859038Y-56027626D01*
X122865284Y-56040625D01*
X122871960Y-56053362D01*
X122878997Y-56065835D01*
X122886296Y-56078045D01*
X122893857Y-56089992D01*
X122901680Y-56101674D01*
X122909765Y-56113094D01*
X122918112Y-56124250D01*
X122926720Y-56135144D01*
X122935590Y-56145775D01*
X122944721Y-56156143D01*
X122954113Y-56166250D01*
X122963766Y-56176095D01*
X122973681Y-56185678D01*
X122983856Y-56195000D01*
X122994292Y-56204060D01*
X123004989Y-56212860D01*
X123015946Y-56221399D01*
X123027162Y-56229662D01*
X123038602Y-56237662D01*
X123050267Y-56245401D01*
X123062157Y-56252877D01*
X123074271Y-56260092D01*
X123086610Y-56267045D01*
X123099173Y-56273736D01*
X123111961Y-56280166D01*
X123124973Y-56286334D01*
X123138208Y-56292241D01*
X123151668Y-56297888D01*
X123165351Y-56303273D01*
X123179259Y-56308397D01*
X123193389Y-56313260D01*
X123207743Y-56317862D01*
X123222321Y-56322204D01*
X123251841Y-56330051D01*
X123281585Y-56336860D01*
X123311552Y-56342630D01*
X123341742Y-56347356D01*
X123372155Y-56351038D01*
X123402792Y-56353671D01*
X123433651Y-56355252D01*
X123464734Y-56355780D01*
X123495780Y-56355256D01*
X123526526Y-56353682D01*
X123556973Y-56351059D01*
X123587120Y-56347386D01*
X123616965Y-56342665D01*
X123646508Y-56336894D01*
X123675748Y-56330074D01*
X123704683Y-56322204D01*
X123718976Y-56317862D01*
X123733042Y-56313260D01*
X123746882Y-56308397D01*
X123760496Y-56303273D01*
X123773884Y-56297888D01*
X123787045Y-56292242D01*
X123799982Y-56286335D01*
X123812692Y-56280166D01*
X123825178Y-56273736D01*
X123837439Y-56267045D01*
X123849475Y-56260092D01*
X123861287Y-56252878D01*
X123872875Y-56245401D01*
X123884239Y-56237663D01*
X123895378Y-56229662D01*
X123906295Y-56221399D01*
X123916969Y-56212847D01*
X123927380Y-56204038D01*
X123937529Y-56194970D01*
X123947415Y-56185644D01*
X123957039Y-56176059D01*
X123966399Y-56166215D01*
X123975497Y-56156110D01*
X123984331Y-56145744D01*
X123992903Y-56135118D01*
X124001210Y-56124229D01*
X124009255Y-56113077D01*
X124017035Y-56101663D01*
X124024552Y-56089984D01*
X124031805Y-56078042D01*
X124038794Y-56065834D01*
X124045519Y-56053362D01*
X124051920Y-56040639D01*
X124057906Y-56027652D01*
X124063477Y-56014401D01*
X124068634Y-56000886D01*
X124073378Y-55987108D01*
X124077708Y-55973066D01*
X124081624Y-55958760D01*
X124085127Y-55944191D01*
X124088217Y-55929359D01*
X124090894Y-55914264D01*
X124093159Y-55898906D01*
X124095011Y-55883285D01*
X124096452Y-55867401D01*
X124097480Y-55851254D01*
X124098097Y-55834845D01*
X124098303Y-55818174D01*
X124098097Y-55801503D01*
X124097480Y-55785096D01*
X124096452Y-55768953D01*
X124095011Y-55753074D01*
X124093159Y-55737457D01*
X124090894Y-55722104D01*
X124088217Y-55707013D01*
X124085127Y-55692185D01*
X124081624Y-55677620D01*
X124077708Y-55663316D01*
X124073378Y-55649274D01*
X124068634Y-55635494D01*
X124063477Y-55621976D01*
X124057906Y-55608718D01*
X124051920Y-55595721D01*
X124045519Y-55582986D01*
X124038794Y-55570525D01*
X124031805Y-55558325D01*
X124024552Y-55546386D01*
X124017035Y-55534708D01*
X124009255Y-55523291D01*
X124001210Y-55512136D01*
X123992903Y-55501243D01*
X123984331Y-55490612D01*
X123975497Y-55480244D01*
X123966399Y-55470138D01*
X123957039Y-55460294D01*
X123947415Y-55450714D01*
X123937529Y-55441397D01*
X123927380Y-55432343D01*
X123916969Y-55423553D01*
X123906295Y-55415028D01*
X123895378Y-55406751D01*
X123884239Y-55398738D01*
X123872875Y-55390990D01*
X123861287Y-55383505D01*
X123849475Y-55376284D01*
X123837439Y-55369326D01*
X123825178Y-55362632D01*
X123812692Y-55356201D01*
X123799982Y-55350034D01*
X123787045Y-55344129D01*
X123773884Y-55338488D01*
X123760496Y-55333109D01*
X123746882Y-55327993D01*
X123733042Y-55323140D01*
X123718976Y-55318550D01*
X123704683Y-55314222D01*
X123675748Y-55306353D01*
X123646508Y-55299533D01*
X123616965Y-55293762D01*
X123587120Y-55289040D01*
X123556973Y-55285368D01*
X123526526Y-55282745D01*
X123495780Y-55281171D01*
X123464734Y-55280646D01*
X123433651Y-55281171D01*
X123402792Y-55282745D01*
X123372155Y-55285368D01*
X123341742Y-55289040D01*
X123311552Y-55293762D01*
X123281585Y-55299533D01*
X123251841Y-55306353D01*
X123222321Y-55314222D01*
X123207743Y-55318550D01*
X123193389Y-55323140D01*
X123179259Y-55327993D01*
X123165351Y-55333109D01*
X123151668Y-55338487D01*
X123138208Y-55344129D01*
X123124973Y-55350033D01*
X123111961Y-55356201D01*
X123099173Y-55362632D01*
X123086610Y-55369326D01*
X123074271Y-55376283D01*
X123062157Y-55383504D01*
X123050267Y-55390989D01*
X123038602Y-55398738D01*
X123027162Y-55406751D01*
X123015946Y-55415028D01*
X123004989Y-55423553D01*
X122994292Y-55432340D01*
X122983856Y-55441390D01*
X122973681Y-55450703D01*
X122963766Y-55460278D01*
X122954113Y-55470117D01*
X122944721Y-55480218D01*
X122935590Y-55490583D01*
X122926720Y-55501211D01*
X122918112Y-55512102D01*
X122909765Y-55523256D01*
X122901680Y-55534675D01*
X122893857Y-55546356D01*
X122886296Y-55558302D01*
X122878997Y-55570512D01*
X122871960Y-55582986D01*
X122865284Y-55595722D01*
X122859038Y-55608721D01*
X122853222Y-55621982D01*
X122847837Y-55635506D01*
X122842881Y-55649290D01*
X122838356Y-55663337D01*
X122834261Y-55677645D01*
X122830596Y-55692215D01*
X122827363Y-55707046D01*
X122824560Y-55722139D01*
X122822188Y-55737492D01*
X122820247Y-55753107D01*
X122818737Y-55768983D01*
X122817658Y-55785119D01*
X122817011Y-55801516D01*
X122816795Y-55818174D01*
X122240860Y-55818174D01*
X122244453Y-55803714D01*
X122250080Y-55783307D01*
X122256158Y-55763331D01*
X122262686Y-55743785D01*
X122269664Y-55724669D01*
X122284294Y-55687655D01*
X122299371Y-55652218D01*
X122314897Y-55618357D01*
X122330871Y-55586070D01*
X122347297Y-55555357D01*
X122364173Y-55526217D01*
X122372781Y-55512237D01*
X122381501Y-55498649D01*
X122390335Y-55485455D01*
X122399283Y-55472653D01*
X122417142Y-55448193D01*
X122434702Y-55425237D01*
X122443369Y-55414322D01*
X122451960Y-55403783D01*
X122460475Y-55393620D01*
X122468915Y-55383833D01*
X122477278Y-55374421D01*
X122485565Y-55365386D01*
X122493775Y-55356726D01*
X122501908Y-55348442D01*
X122509963Y-55340533D01*
X122517942Y-55333001D01*
X122525842Y-55325844D01*
X122533665Y-55319063D01*
X122561568Y-55295340D01*
X122582877Y-55277034D01*
X122591055Y-55269913D01*
X122597579Y-55264145D01*
X122602447Y-55259733D01*
X122605658Y-55256674D01*
X122303239Y-55247069D01*
X122303239Y-54527059D01*
X123464734Y-54527059D01*
G37*
G36*
X123525851Y-51696125D02*
G01*
X123582043Y-51699386D01*
X123638075Y-51704821D01*
X123693949Y-51712432D01*
X123749667Y-51722219D01*
X123805230Y-51734184D01*
X123860641Y-51748327D01*
X123915901Y-51764650D01*
X123943330Y-51773662D01*
X123970401Y-51783313D01*
X123997116Y-51793604D01*
X124023474Y-51804534D01*
X124049474Y-51816103D01*
X124075117Y-51828311D01*
X124100403Y-51841157D01*
X124125332Y-51854642D01*
X124149903Y-51868765D01*
X124174117Y-51883525D01*
X124197975Y-51898924D01*
X124221475Y-51914959D01*
X124244617Y-51931632D01*
X124267403Y-51948942D01*
X124289832Y-51966889D01*
X124311903Y-51985472D01*
X124333547Y-52004738D01*
X124354665Y-52024736D01*
X124375256Y-52045465D01*
X124395322Y-52066925D01*
X124414861Y-52089117D01*
X124433875Y-52112039D01*
X124452363Y-52135692D01*
X124470325Y-52160077D01*
X124487761Y-52185193D01*
X124504672Y-52211039D01*
X124521058Y-52237617D01*
X124536919Y-52264926D01*
X124552254Y-52292966D01*
X124567065Y-52321738D01*
X124581351Y-52351240D01*
X124595112Y-52381473D01*
X124608189Y-52412503D01*
X124620424Y-52444394D01*
X124631815Y-52477148D01*
X124642364Y-52510763D01*
X124652069Y-52545240D01*
X124660931Y-52580580D01*
X124668950Y-52616783D01*
X124676125Y-52653848D01*
X124682456Y-52691777D01*
X124687944Y-52730570D01*
X124692587Y-52770226D01*
X124696387Y-52810746D01*
X124699342Y-52852130D01*
X124701453Y-52894378D01*
X124703142Y-52981469D01*
X124702749Y-53022029D01*
X124701568Y-53062122D01*
X124699601Y-53101748D01*
X124696846Y-53140906D01*
X124693303Y-53179596D01*
X124688973Y-53217818D01*
X124683856Y-53255572D01*
X124677951Y-53292857D01*
X124671257Y-53329673D01*
X124663776Y-53366021D01*
X124655507Y-53401899D01*
X124646450Y-53437307D01*
X124636604Y-53472246D01*
X124625970Y-53506715D01*
X124614547Y-53540714D01*
X124602336Y-53574242D01*
X124589168Y-53607370D01*
X124574877Y-53640140D01*
X124559462Y-53672551D01*
X124542923Y-53704604D01*
X124525260Y-53736300D01*
X124506472Y-53767638D01*
X124486560Y-53798619D01*
X124465524Y-53829244D01*
X124443363Y-53859512D01*
X124420077Y-53889425D01*
X124395667Y-53918982D01*
X124370131Y-53948184D01*
X124343470Y-53977031D01*
X124315684Y-54005523D01*
X124286773Y-54033661D01*
X124256737Y-54061446D01*
X123863117Y-53658220D01*
X123867131Y-53654094D01*
X123871970Y-53648919D01*
X123884121Y-53635420D01*
X123899560Y-53617725D01*
X123918281Y-53595832D01*
X123928602Y-53583285D01*
X123939147Y-53569696D01*
X123949914Y-53555064D01*
X123960905Y-53539386D01*
X123972120Y-53522663D01*
X123983557Y-53504894D01*
X123995218Y-53486077D01*
X124007102Y-53466212D01*
X124018911Y-53445309D01*
X124030348Y-53423438D01*
X124041410Y-53400597D01*
X124052098Y-53376787D01*
X124062409Y-53352005D01*
X124072345Y-53326251D01*
X124081902Y-53299524D01*
X124091081Y-53271823D01*
X124099535Y-53243044D01*
X124106858Y-53213141D01*
X124113052Y-53182118D01*
X124118118Y-53149973D01*
X124122056Y-53116708D01*
X124124868Y-53082325D01*
X124126554Y-53046823D01*
X124127116Y-53010204D01*
X124126940Y-52990034D01*
X124126409Y-52970333D01*
X124125524Y-52951101D01*
X124124284Y-52932338D01*
X124122689Y-52914044D01*
X124120738Y-52896220D01*
X124118431Y-52878866D01*
X124115767Y-52861981D01*
X124112746Y-52845565D01*
X124109367Y-52829620D01*
X124105630Y-52814144D01*
X124101534Y-52799139D01*
X124097080Y-52784604D01*
X124092265Y-52770539D01*
X124087091Y-52756945D01*
X124081556Y-52743821D01*
X124075772Y-52731087D01*
X124069821Y-52718691D01*
X124063701Y-52706634D01*
X124057414Y-52694915D01*
X124050958Y-52683534D01*
X124044333Y-52672491D01*
X124037540Y-52661786D01*
X124030577Y-52651419D01*
X124023446Y-52641389D01*
X124016145Y-52631697D01*
X124008674Y-52622342D01*
X124001033Y-52613325D01*
X123993222Y-52604645D01*
X123985240Y-52596302D01*
X123977088Y-52588296D01*
X123968765Y-52580626D01*
X123960333Y-52573266D01*
X123951825Y-52566186D01*
X123943241Y-52559388D01*
X123934581Y-52552871D01*
X123925845Y-52546635D01*
X123917033Y-52540681D01*
X123908146Y-52535008D01*
X123899183Y-52529618D01*
X123890145Y-52524509D01*
X123881032Y-52519682D01*
X123871844Y-52515137D01*
X123862581Y-52510874D01*
X123853242Y-52506894D01*
X123843830Y-52503196D01*
X123834342Y-52499780D01*
X123824780Y-52496648D01*
X123805804Y-52491014D01*
X123787276Y-52486137D01*
X123769196Y-52482016D01*
X123751566Y-52478649D01*
X123734386Y-52476033D01*
X123717657Y-52474166D01*
X123709462Y-52473514D01*
X123701380Y-52473048D01*
X123693411Y-52472769D01*
X123685556Y-52472676D01*
X123685556Y-54123834D01*
X123604237Y-54123226D01*
X123523522Y-54121413D01*
X123443416Y-54118409D01*
X123363929Y-54114229D01*
X123324527Y-54111409D01*
X123285496Y-54107769D01*
X123246838Y-54103309D01*
X123208552Y-54098027D01*
X123170638Y-54091923D01*
X123133096Y-54084996D01*
X123095926Y-54077244D01*
X123059128Y-54068668D01*
X123022706Y-54059090D01*
X122986662Y-54048395D01*
X122950997Y-54036580D01*
X122915708Y-54023643D01*
X122880794Y-54009582D01*
X122846256Y-53994396D01*
X122812091Y-53978082D01*
X122778299Y-53960639D01*
X122761535Y-53951447D01*
X122744846Y-53941880D01*
X122728233Y-53931937D01*
X122711696Y-53921619D01*
X122695234Y-53910926D01*
X122678848Y-53899859D01*
X122662536Y-53888417D01*
X122646299Y-53876601D01*
X122630136Y-53864411D01*
X122614047Y-53851847D01*
X122582092Y-53825600D01*
X122550430Y-53797860D01*
X122519060Y-53768631D01*
X122494489Y-53743368D01*
X122471196Y-53717945D01*
X122449182Y-53692366D01*
X122428444Y-53666634D01*
X122408983Y-53640754D01*
X122399731Y-53627759D01*
X122390797Y-53614728D01*
X122382182Y-53601662D01*
X122373885Y-53588561D01*
X122365907Y-53575426D01*
X122358247Y-53562257D01*
X122343698Y-53535828D01*
X122330055Y-53509407D01*
X122317314Y-53482994D01*
X122305472Y-53456588D01*
X122294527Y-53430190D01*
X122284476Y-53403799D01*
X122275317Y-53377416D01*
X122267045Y-53351040D01*
X122259548Y-53324715D01*
X122252652Y-53298545D01*
X122246358Y-53272528D01*
X122240663Y-53246661D01*
X122235567Y-53220944D01*
X122231070Y-53195373D01*
X122227169Y-53169947D01*
X122223865Y-53144664D01*
X122221071Y-53119754D01*
X122218644Y-53095447D01*
X122216585Y-53071743D01*
X122214896Y-53048641D01*
X122213579Y-53026142D01*
X122212636Y-53004245D01*
X122212069Y-52982952D01*
X122211880Y-52962261D01*
X122212186Y-52933449D01*
X122759090Y-52933449D01*
X122759334Y-52953558D01*
X122760068Y-52973107D01*
X122761290Y-52992096D01*
X122763000Y-53010524D01*
X122765198Y-53028392D01*
X122767884Y-53045698D01*
X122771057Y-53062443D01*
X122774717Y-53078626D01*
X122778863Y-53094247D01*
X122783495Y-53109306D01*
X122788614Y-53123803D01*
X122794217Y-53137738D01*
X122800306Y-53151110D01*
X122806879Y-53163918D01*
X122813937Y-53176164D01*
X122821479Y-53187846D01*
X122829357Y-53199068D01*
X122837363Y-53209932D01*
X122845498Y-53220440D01*
X122853762Y-53230592D01*
X122862156Y-53240387D01*
X122870679Y-53249826D01*
X122879331Y-53258910D01*
X122888114Y-53267638D01*
X122897027Y-53276010D01*
X122906071Y-53284028D01*
X122915245Y-53291690D01*
X122924550Y-53298998D01*
X122933986Y-53305952D01*
X122943554Y-53312551D01*
X122953253Y-53318796D01*
X122963084Y-53324688D01*
X122972958Y-53330234D01*
X122982755Y-53335500D01*
X122992477Y-53340488D01*
X123002122Y-53345195D01*
X123011690Y-53349624D01*
X123021183Y-53353772D01*
X123030599Y-53357641D01*
X123039939Y-53361230D01*
X123049202Y-53364539D01*
X123058390Y-53367568D01*
X123067501Y-53370317D01*
X123076536Y-53372785D01*
X123085494Y-53374973D01*
X123094376Y-53376881D01*
X123103182Y-53378507D01*
X123111912Y-53379853D01*
X123143582Y-53384033D01*
X123157051Y-53385683D01*
X123168942Y-53387037D01*
X123179256Y-53388093D01*
X123187992Y-53388850D01*
X123195151Y-53389305D01*
X123200733Y-53389457D01*
X123200733Y-52472677D01*
X123195115Y-52472901D01*
X123187844Y-52473572D01*
X123178922Y-52474691D01*
X123168348Y-52476259D01*
X123156122Y-52478278D01*
X123142244Y-52480747D01*
X123109532Y-52487044D01*
X123100509Y-52488985D01*
X123091449Y-52491207D01*
X123082351Y-52493711D01*
X123073217Y-52496495D01*
X123064045Y-52499560D01*
X123054837Y-52502905D01*
X123045591Y-52506532D01*
X123036307Y-52510440D01*
X123026987Y-52514628D01*
X123017630Y-52519098D01*
X123008235Y-52523848D01*
X122998803Y-52528880D01*
X122989334Y-52534192D01*
X122979828Y-52539785D01*
X122970284Y-52545659D01*
X122960703Y-52551814D01*
X122951160Y-52558273D01*
X122941728Y-52565030D01*
X122932407Y-52572085D01*
X122923199Y-52579439D01*
X122914103Y-52587091D01*
X122905120Y-52595042D01*
X122896248Y-52603292D01*
X122887489Y-52611841D01*
X122878843Y-52620690D01*
X122870309Y-52629838D01*
X122861888Y-52639287D01*
X122853580Y-52649036D01*
X122845385Y-52659085D01*
X122837303Y-52669435D01*
X122829334Y-52680086D01*
X122821479Y-52691038D01*
X122813937Y-52702392D01*
X122806879Y-52714252D01*
X122800306Y-52726615D01*
X122794217Y-52739485D01*
X122788614Y-52752859D01*
X122783495Y-52766740D01*
X122778863Y-52781127D01*
X122774717Y-52796021D01*
X122771057Y-52811421D01*
X122767884Y-52827329D01*
X122765198Y-52843744D01*
X122763000Y-52860668D01*
X122761290Y-52878100D01*
X122760068Y-52896040D01*
X122759334Y-52914490D01*
X122759090Y-52933449D01*
X122212186Y-52933449D01*
X122212329Y-52920037D01*
X122213677Y-52878582D01*
X122215924Y-52837898D01*
X122219071Y-52797984D01*
X122223117Y-52758841D01*
X122228062Y-52720467D01*
X122233908Y-52682864D01*
X122240653Y-52646031D01*
X122248299Y-52609968D01*
X122256846Y-52574675D01*
X122266294Y-52540152D01*
X122276642Y-52506400D01*
X122287892Y-52473418D01*
X122300044Y-52441206D01*
X122313098Y-52409764D01*
X122327053Y-52379092D01*
X122341712Y-52349134D01*
X122356875Y-52319892D01*
X122372542Y-52291365D01*
X122388715Y-52263553D01*
X122405392Y-52236456D01*
X122422575Y-52210074D01*
X122440263Y-52184406D01*
X122458458Y-52159452D01*
X122477158Y-52135211D01*
X122496364Y-52111683D01*
X122516077Y-52088868D01*
X122536297Y-52066765D01*
X122557024Y-52045375D01*
X122578258Y-52024696D01*
X122599999Y-52004728D01*
X122622248Y-51985472D01*
X122644919Y-51966889D01*
X122667927Y-51948942D01*
X122691272Y-51931632D01*
X122714954Y-51914959D01*
X122738973Y-51898924D01*
X122763330Y-51883525D01*
X122788024Y-51868765D01*
X122813055Y-51854642D01*
X122838425Y-51841157D01*
X122864132Y-51828311D01*
X122890177Y-51816103D01*
X122916559Y-51804534D01*
X122943281Y-51793604D01*
X122970340Y-51783313D01*
X122997737Y-51773662D01*
X123025473Y-51764650D01*
X123081110Y-51748327D01*
X123136476Y-51734184D01*
X123191687Y-51722219D01*
X123200733Y-51720614D01*
X123246860Y-51712431D01*
X123302112Y-51704821D01*
X123357557Y-51699385D01*
X123413314Y-51696125D01*
X123469497Y-51695039D01*
X123525851Y-51696125D01*
G37*
G36*
X124626308Y-49317281D02*
G01*
X122634313Y-49317281D01*
X124626308Y-50661259D01*
X124626308Y-51472472D01*
X121371933Y-51472472D01*
X121371933Y-50709281D01*
X123363927Y-50709281D01*
X121371933Y-49365303D01*
X121371933Y-48554091D01*
X124626308Y-48554091D01*
X124626308Y-49317281D01*
G37*
G36*
X124594953Y-60724343D02*
G01*
X124626699Y-60807547D01*
X124684125Y-60988779D01*
X124716268Y-61111590D01*
X124747390Y-61253428D01*
X124775013Y-61412467D01*
X124796655Y-61586881D01*
X124809838Y-61774843D01*
X124812081Y-61974526D01*
X124800904Y-62184104D01*
X124773827Y-62401751D01*
X124728370Y-62625639D01*
X124697974Y-62739354D01*
X124662053Y-62853943D01*
X124620297Y-62969181D01*
X124572397Y-63084836D01*
X124518041Y-63200683D01*
X124456920Y-63316492D01*
X124395249Y-63046752D01*
X124345744Y-62754665D01*
X124323757Y-62580280D01*
X124306446Y-62391176D01*
X124295934Y-62190486D01*
X124294346Y-61981343D01*
X124303805Y-61766877D01*
X124326435Y-61550221D01*
X124364360Y-61334508D01*
X124419704Y-61122869D01*
X124454571Y-61019556D01*
X124494590Y-60918436D01*
X124540025Y-60819901D01*
X124591142Y-60724343D01*
X124593286Y-60720532D01*
X124594953Y-60724343D01*
G37*
G36*
X124122273Y-61889296D02*
G01*
X124139447Y-61921141D01*
X124154369Y-61952836D01*
X124167139Y-61984345D01*
X124177853Y-62015627D01*
X124186612Y-62046646D01*
X124193512Y-62077363D01*
X124198653Y-62107739D01*
X124202132Y-62137737D01*
X124204049Y-62167318D01*
X124204501Y-62196444D01*
X124203586Y-62225077D01*
X124201404Y-62253177D01*
X124198053Y-62280708D01*
X124193630Y-62307631D01*
X124188235Y-62333908D01*
X124178307Y-62372596D01*
X124166220Y-62410400D01*
X124152043Y-62447260D01*
X124135847Y-62483120D01*
X124117700Y-62517921D01*
X124097673Y-62551607D01*
X124075835Y-62584120D01*
X124052256Y-62615402D01*
X124027005Y-62645396D01*
X124000153Y-62674043D01*
X123971768Y-62701288D01*
X123941921Y-62727071D01*
X123910681Y-62751336D01*
X123878118Y-62774025D01*
X123844301Y-62795080D01*
X123809300Y-62814444D01*
X123785251Y-62826545D01*
X123760917Y-62838022D01*
X123736312Y-62848874D01*
X123711452Y-62859102D01*
X123686351Y-62868704D01*
X123661024Y-62877679D01*
X123635486Y-62886028D01*
X123609750Y-62893750D01*
X123583832Y-62900844D01*
X123557747Y-62907309D01*
X123531509Y-62913146D01*
X123505132Y-62918352D01*
X123478631Y-62922929D01*
X123452022Y-62926875D01*
X123425318Y-62930189D01*
X123398534Y-62932871D01*
X123360939Y-62935542D01*
X123323680Y-62936915D01*
X123286733Y-62937036D01*
X123250071Y-62935948D01*
X123213670Y-62933696D01*
X123177503Y-62930325D01*
X123141544Y-62925878D01*
X123105769Y-62920399D01*
X123070150Y-62913934D01*
X123034663Y-62906526D01*
X122999282Y-62898220D01*
X122963981Y-62889060D01*
X122893517Y-62868355D01*
X122823065Y-62844764D01*
X122703443Y-62801469D01*
X122584348Y-62756738D01*
X122346904Y-62665258D01*
X122109058Y-62574910D01*
X121989461Y-62531592D01*
X121869136Y-62490276D01*
X121784218Y-62463432D01*
X121698105Y-62438973D01*
X121610956Y-62417069D01*
X121522933Y-62397887D01*
X121434196Y-62381598D01*
X121344906Y-62368370D01*
X121255223Y-62358374D01*
X121165308Y-62351777D01*
X121075321Y-62348749D01*
X120985423Y-62349459D01*
X120895775Y-62354077D01*
X120806536Y-62362771D01*
X120717869Y-62375711D01*
X120629932Y-62393066D01*
X120542888Y-62415006D01*
X120456895Y-62441698D01*
X120411351Y-62457993D01*
X120366279Y-62475703D01*
X120321773Y-62494861D01*
X120277925Y-62515498D01*
X120234829Y-62537645D01*
X120192577Y-62561334D01*
X120151263Y-62586597D01*
X120130987Y-62599829D01*
X120110980Y-62613466D01*
X120106944Y-62616583D01*
X120101786Y-62621031D01*
X120088729Y-62633074D01*
X120056023Y-62663829D01*
X120047384Y-62671674D01*
X120038872Y-62679159D01*
X120030644Y-62686072D01*
X120022855Y-62692203D01*
X120015663Y-62697339D01*
X120009222Y-62701269D01*
X120006332Y-62702716D01*
X120003689Y-62703782D01*
X120001312Y-62704441D01*
X119999221Y-62704667D01*
X120086319Y-62599660D01*
X120175792Y-62506029D01*
X120267302Y-62423244D01*
X120360511Y-62350780D01*
X120455084Y-62288109D01*
X120550683Y-62234703D01*
X120646970Y-62190034D01*
X120743609Y-62153577D01*
X120840263Y-62124803D01*
X120936596Y-62103185D01*
X121032268Y-62088196D01*
X121126945Y-62079308D01*
X121220289Y-62075994D01*
X121311962Y-62077727D01*
X121488950Y-62094223D01*
X121655213Y-62124578D01*
X121808056Y-62164573D01*
X121944780Y-62209989D01*
X122062692Y-62256608D01*
X122231291Y-62336579D01*
X122292284Y-62370736D01*
X122355903Y-62406537D01*
X122418681Y-62440158D01*
X122480443Y-62471657D01*
X122541014Y-62501090D01*
X122657880Y-62553985D01*
X122767880Y-62599296D01*
X122869612Y-62637480D01*
X122961676Y-62668988D01*
X123042671Y-62694275D01*
X123111196Y-62713795D01*
X123132249Y-62719250D01*
X123153403Y-62724242D01*
X123174649Y-62728764D01*
X123195979Y-62732811D01*
X123217382Y-62736376D01*
X123238852Y-62739454D01*
X123260378Y-62742039D01*
X123281952Y-62744125D01*
X123303565Y-62745706D01*
X123325208Y-62746775D01*
X123346873Y-62747328D01*
X123368550Y-62747358D01*
X123390231Y-62746860D01*
X123411907Y-62745826D01*
X123433568Y-62744252D01*
X123455207Y-62742132D01*
X123505791Y-62735046D01*
X123553693Y-62725429D01*
X123598987Y-62713416D01*
X123641744Y-62699145D01*
X123682037Y-62682752D01*
X123719939Y-62664373D01*
X123755522Y-62644146D01*
X123788859Y-62622206D01*
X123820022Y-62598691D01*
X123849083Y-62573737D01*
X123876115Y-62547480D01*
X123901191Y-62520057D01*
X123924383Y-62491604D01*
X123945763Y-62462258D01*
X123965404Y-62432157D01*
X123983379Y-62401435D01*
X123999759Y-62370230D01*
X124014618Y-62338679D01*
X124028028Y-62306917D01*
X124040061Y-62275082D01*
X124060287Y-62211737D01*
X124075876Y-62149737D01*
X124087409Y-62090174D01*
X124095464Y-62034140D01*
X124100622Y-61982729D01*
X124103463Y-61937032D01*
X124103842Y-61927060D01*
X124104088Y-61917089D01*
X124104200Y-61907121D01*
X124104178Y-61897155D01*
X124104022Y-61887193D01*
X124103731Y-61877236D01*
X124103307Y-61867284D01*
X124102749Y-61857341D01*
X124122273Y-61889296D01*
G37*
G36*
X124626699Y-60807547D02*
G01*
X124684125Y-60988779D01*
X124716268Y-61111590D01*
X124747390Y-61253428D01*
X124775013Y-61412467D01*
X124796655Y-61586881D01*
X124809838Y-61774843D01*
X124812081Y-61974526D01*
X124800904Y-62184104D01*
X124773827Y-62401751D01*
X124728370Y-62625639D01*
X124697974Y-62739354D01*
X124662053Y-62853943D01*
X124620297Y-62969181D01*
X124572397Y-63084836D01*
X124518041Y-63200683D01*
X124456920Y-63316492D01*
X124395249Y-63046752D01*
X124345744Y-62754665D01*
X124323757Y-62580280D01*
X124306446Y-62391176D01*
X124295934Y-62190486D01*
X124294346Y-61981343D01*
X124303805Y-61766877D01*
X124326435Y-61550221D01*
X124364360Y-61334508D01*
X124419704Y-61122869D01*
X124454571Y-61019556D01*
X124494590Y-60918436D01*
X124540025Y-60819901D01*
X124591142Y-60724343D01*
X124594953Y-60724343D01*
X124626699Y-60807547D01*
G37*
G36*
X124540025Y-60819901D02*
G01*
X124494590Y-60918436D01*
X124454571Y-61019556D01*
X124419704Y-61122869D01*
X124389722Y-61227983D01*
X124364360Y-61334508D01*
X124343353Y-61442051D01*
X124326435Y-61550222D01*
X124313341Y-61658628D01*
X124303805Y-61766877D01*
X124294346Y-61981344D01*
X124295934Y-62190488D01*
X124306446Y-62391178D01*
X124323757Y-62580281D01*
X124345744Y-62754667D01*
X124370282Y-62911201D01*
X124395249Y-63046754D01*
X124437971Y-63242381D01*
X124456920Y-63316492D01*
X124456920Y-63316571D01*
X124456919Y-63316567D01*
X124380749Y-63372876D01*
X124303832Y-63423216D01*
X124226318Y-63467829D01*
X124148357Y-63506961D01*
X124070100Y-63540853D01*
X123991697Y-63569751D01*
X123913299Y-63593897D01*
X123835055Y-63613535D01*
X123757117Y-63628909D01*
X123679633Y-63640262D01*
X123602756Y-63647839D01*
X123526635Y-63651881D01*
X123451420Y-63652634D01*
X123377262Y-63650341D01*
X123304311Y-63645245D01*
X123232718Y-63637590D01*
X123094205Y-63615577D01*
X122962926Y-63586251D01*
X122840084Y-63551561D01*
X122726881Y-63513456D01*
X122624520Y-63473884D01*
X122534205Y-63434795D01*
X122394518Y-63365859D01*
X122311301Y-63322366D01*
X122269377Y-63301247D01*
X122227236Y-63280570D01*
X122184871Y-63260355D01*
X122142277Y-63240619D01*
X122099449Y-63221382D01*
X122056381Y-63202662D01*
X121916020Y-63144610D01*
X121783648Y-63093537D01*
X121659242Y-63049002D01*
X121542777Y-63010562D01*
X121434230Y-62977776D01*
X121333578Y-62950203D01*
X121240796Y-62927400D01*
X121155862Y-62908926D01*
X121078752Y-62894340D01*
X121009442Y-62883199D01*
X120947908Y-62875061D01*
X120894127Y-62869486D01*
X120848076Y-62866031D01*
X120809730Y-62864254D01*
X120756060Y-62863970D01*
X120742356Y-62864295D01*
X120728636Y-62864537D01*
X120714917Y-62864675D01*
X120701212Y-62864686D01*
X120637487Y-62866173D01*
X120575448Y-62870808D01*
X120515116Y-62878383D01*
X120456512Y-62888690D01*
X120399657Y-62901522D01*
X120344572Y-62916670D01*
X120291277Y-62933927D01*
X120239794Y-62953086D01*
X120190143Y-62973937D01*
X120142346Y-62996275D01*
X120096422Y-63019890D01*
X120052394Y-63044575D01*
X120010281Y-63070123D01*
X119970104Y-63096325D01*
X119931886Y-63122974D01*
X119895645Y-63149861D01*
X119829183Y-63203522D01*
X119770884Y-63255646D01*
X119720915Y-63304569D01*
X119679444Y-63348631D01*
X119646637Y-63386168D01*
X119622661Y-63415519D01*
X119601869Y-63443012D01*
X119623736Y-63386314D01*
X119646052Y-63331104D01*
X119668805Y-63277364D01*
X119691983Y-63225077D01*
X119715576Y-63174226D01*
X119739572Y-63124793D01*
X119763959Y-63076762D01*
X119788728Y-63030114D01*
X119813865Y-62984832D01*
X119839361Y-62940900D01*
X119865203Y-62898299D01*
X119891381Y-62857013D01*
X119917883Y-62817024D01*
X119944697Y-62778315D01*
X119971814Y-62740868D01*
X119999221Y-62704667D01*
X120001312Y-62704441D01*
X120003689Y-62703782D01*
X120006332Y-62702716D01*
X120009222Y-62701269D01*
X120015663Y-62697339D01*
X120022855Y-62692203D01*
X120030644Y-62686072D01*
X120038872Y-62679159D01*
X120047384Y-62671674D01*
X120056023Y-62663829D01*
X120088729Y-62633074D01*
X120101786Y-62621031D01*
X120106944Y-62616583D01*
X120110980Y-62613466D01*
X120130987Y-62599829D01*
X120151263Y-62586597D01*
X120192577Y-62561334D01*
X120234829Y-62537645D01*
X120277925Y-62515498D01*
X120321773Y-62494861D01*
X120366279Y-62475703D01*
X120411351Y-62457993D01*
X120456895Y-62441698D01*
X120542888Y-62415006D01*
X120629932Y-62393066D01*
X120717869Y-62375711D01*
X120806536Y-62362771D01*
X120895775Y-62354077D01*
X120985423Y-62349459D01*
X121075321Y-62348749D01*
X121165308Y-62351777D01*
X121255223Y-62358374D01*
X121344906Y-62368370D01*
X121434196Y-62381598D01*
X121522933Y-62397887D01*
X121610956Y-62417069D01*
X121698105Y-62438973D01*
X121784218Y-62463432D01*
X121869136Y-62490276D01*
X121989461Y-62531592D01*
X122109058Y-62574910D01*
X122346904Y-62665258D01*
X122584348Y-62756738D01*
X122703443Y-62801469D01*
X122823065Y-62844764D01*
X122893517Y-62868355D01*
X122963981Y-62889060D01*
X122999282Y-62898220D01*
X123034663Y-62906526D01*
X123070150Y-62913934D01*
X123105768Y-62920399D01*
X123141544Y-62925878D01*
X123177503Y-62930325D01*
X123213670Y-62933696D01*
X123250071Y-62935948D01*
X123286733Y-62937036D01*
X123323680Y-62936915D01*
X123360939Y-62935542D01*
X123398534Y-62932871D01*
X123425318Y-62930189D01*
X123452022Y-62926875D01*
X123478631Y-62922929D01*
X123505132Y-62918352D01*
X123531509Y-62913146D01*
X123557747Y-62907309D01*
X123583832Y-62900844D01*
X123609750Y-62893750D01*
X123635486Y-62886028D01*
X123661024Y-62877679D01*
X123686351Y-62868704D01*
X123711452Y-62859102D01*
X123736312Y-62848874D01*
X123760917Y-62838022D01*
X123785251Y-62826545D01*
X123809300Y-62814444D01*
X123844301Y-62795080D01*
X123878118Y-62774025D01*
X123910681Y-62751336D01*
X123941921Y-62727071D01*
X123971768Y-62701288D01*
X124000153Y-62674043D01*
X124027005Y-62645396D01*
X124052256Y-62615402D01*
X124075835Y-62584120D01*
X124097673Y-62551607D01*
X124117700Y-62517921D01*
X124135847Y-62483120D01*
X124152043Y-62447260D01*
X124166220Y-62410400D01*
X124178307Y-62372596D01*
X124188235Y-62333908D01*
X124193630Y-62307631D01*
X124198053Y-62280708D01*
X124201404Y-62253177D01*
X124203586Y-62225077D01*
X124204501Y-62196444D01*
X124204049Y-62167318D01*
X124202132Y-62137737D01*
X124198653Y-62107739D01*
X124193512Y-62077363D01*
X124186612Y-62046646D01*
X124177853Y-62015627D01*
X124167139Y-61984345D01*
X124154369Y-61952836D01*
X124139447Y-61921141D01*
X124122273Y-61889296D01*
X124102749Y-61857341D01*
X124100823Y-61833057D01*
X124098071Y-61808862D01*
X124094478Y-61784783D01*
X124090029Y-61760851D01*
X124084710Y-61737093D01*
X124078505Y-61713539D01*
X124071400Y-61690218D01*
X124063379Y-61667158D01*
X124045557Y-61623739D01*
X124025379Y-61583033D01*
X124003036Y-61544952D01*
X123978719Y-61509409D01*
X123952621Y-61476316D01*
X123924933Y-61445585D01*
X123895847Y-61417130D01*
X123865554Y-61390863D01*
X123834246Y-61366696D01*
X123802114Y-61344541D01*
X123769351Y-61324312D01*
X123736147Y-61305921D01*
X123702695Y-61289279D01*
X123669187Y-61274301D01*
X123635813Y-61260897D01*
X123602765Y-61248982D01*
X123538416Y-61229263D01*
X123477673Y-61214445D01*
X123422069Y-61203827D01*
X123373136Y-61196709D01*
X123301419Y-61190175D01*
X123274788Y-61189242D01*
X121656570Y-61131377D01*
X121555226Y-61127693D01*
X121451831Y-61126086D01*
X121347568Y-61126303D01*
X121243625Y-61128089D01*
X121041435Y-61135355D01*
X120854744Y-61145853D01*
X120693034Y-61157553D01*
X120565787Y-61168424D01*
X120452611Y-61179558D01*
X120282031Y-61129574D01*
X120018102Y-61063726D01*
X119353327Y-60912213D01*
X118478000Y-60724343D01*
X124591142Y-60724343D01*
X124540025Y-60819901D01*
G37*
G36*
X124457001Y-63316494D02*
G01*
X124457001Y-63316492D01*
X124457003Y-63316490D01*
X124457001Y-63316494D01*
G37*
G36*
X126453103Y-60760143D02*
G01*
X126465913Y-60797844D01*
X126477406Y-60837247D01*
X126487642Y-60878154D01*
X126504589Y-60963681D01*
X126517240Y-61052831D01*
X126526082Y-61144009D01*
X126531602Y-61235622D01*
X126534286Y-61326076D01*
X126534621Y-61413776D01*
X126533094Y-61497129D01*
X126530191Y-61574539D01*
X126522206Y-61705159D01*
X126511146Y-61824959D01*
X126489945Y-61769422D01*
X126467373Y-61717138D01*
X126443565Y-61668007D01*
X126418654Y-61621932D01*
X126392774Y-61578816D01*
X126366061Y-61538561D01*
X126338646Y-61501070D01*
X126310666Y-61466244D01*
X126282252Y-61433986D01*
X126253541Y-61404200D01*
X126224665Y-61376786D01*
X126195759Y-61351647D01*
X126166956Y-61328686D01*
X126138391Y-61307806D01*
X126110198Y-61288908D01*
X126082510Y-61271894D01*
X126055462Y-61256669D01*
X126029188Y-61243133D01*
X125979497Y-61220739D01*
X125934510Y-61203933D01*
X125895298Y-61191934D01*
X125862933Y-61183960D01*
X125838488Y-61179232D01*
X125817645Y-61176386D01*
X125786232Y-61175225D01*
X125755861Y-61175011D01*
X125726512Y-61175710D01*
X125698168Y-61177290D01*
X125670813Y-61179718D01*
X125644428Y-61182963D01*
X125618996Y-61186992D01*
X125594500Y-61191772D01*
X125570922Y-61197270D01*
X125548244Y-61203456D01*
X125526449Y-61210294D01*
X125505520Y-61217755D01*
X125485438Y-61225804D01*
X125466187Y-61234410D01*
X125447749Y-61243539D01*
X125430106Y-61253160D01*
X125413241Y-61263241D01*
X125397136Y-61273747D01*
X125381774Y-61284648D01*
X125367138Y-61295911D01*
X125353209Y-61307503D01*
X125339971Y-61319391D01*
X125327405Y-61331544D01*
X125315495Y-61343928D01*
X125304222Y-61356512D01*
X125293570Y-61369262D01*
X125274056Y-61395134D01*
X125256812Y-61421283D01*
X125241700Y-61447450D01*
X125233299Y-61463701D01*
X125225506Y-61480207D01*
X125218319Y-61496951D01*
X125211732Y-61513917D01*
X125205743Y-61531087D01*
X125200349Y-61548445D01*
X125195544Y-61565974D01*
X125191327Y-61583658D01*
X125187693Y-61601479D01*
X125184638Y-61619421D01*
X125182159Y-61637468D01*
X125180253Y-61655601D01*
X125178915Y-61673806D01*
X125178143Y-61692064D01*
X125177932Y-61710360D01*
X125178279Y-61728676D01*
X125179412Y-61821355D01*
X125176510Y-61911295D01*
X125169836Y-61998483D01*
X125159653Y-62082905D01*
X125146221Y-62164547D01*
X125129805Y-62243397D01*
X125110665Y-62319442D01*
X125089064Y-62392667D01*
X125065264Y-62463060D01*
X125039527Y-62530607D01*
X125012116Y-62595296D01*
X124983293Y-62657112D01*
X124953320Y-62716042D01*
X124922459Y-62772073D01*
X124890973Y-62825193D01*
X124859123Y-62875386D01*
X124827172Y-62922641D01*
X124795382Y-62966943D01*
X124733334Y-63046638D01*
X124675077Y-63114365D01*
X124622708Y-63170016D01*
X124578325Y-63213486D01*
X124544026Y-63244668D01*
X124514070Y-63269741D01*
X124499839Y-63281767D01*
X124485594Y-63293562D01*
X124471320Y-63305135D01*
X124457003Y-63316490D01*
X124518114Y-63200685D01*
X124572463Y-63084838D01*
X124620357Y-62969182D01*
X124662106Y-62853945D01*
X124698021Y-62739356D01*
X124728412Y-62625641D01*
X124753588Y-62513031D01*
X124773859Y-62401753D01*
X124789536Y-62292035D01*
X124800929Y-62184106D01*
X124808346Y-62078194D01*
X124812099Y-61974528D01*
X124812497Y-61873335D01*
X124809851Y-61774845D01*
X124796664Y-61586883D01*
X124775018Y-61412469D01*
X124747393Y-61253430D01*
X124716269Y-61111592D01*
X124684125Y-60988781D01*
X124653442Y-60886825D01*
X124626699Y-60807549D01*
X124594953Y-60724345D01*
X126438914Y-60724345D01*
X126453103Y-60760143D01*
G37*
G36*
X126438914Y-60724343D02*
G01*
X127988075Y-60724343D01*
X127881012Y-60762299D01*
X127778889Y-60801884D01*
X127681607Y-60842911D01*
X127589063Y-60885194D01*
X127417787Y-60972787D01*
X127264252Y-61063176D01*
X127127649Y-61154875D01*
X127007168Y-61246398D01*
X126902002Y-61336259D01*
X126811341Y-61422971D01*
X126734375Y-61505048D01*
X126670296Y-61581003D01*
X126618296Y-61649351D01*
X126577564Y-61708605D01*
X126526670Y-61793886D01*
X126511144Y-61824955D01*
X126522204Y-61705156D01*
X126530189Y-61574536D01*
X126533092Y-61497125D01*
X126534619Y-61413773D01*
X126534284Y-61326072D01*
X126531600Y-61235619D01*
X126526080Y-61144006D01*
X126517238Y-61052827D01*
X126504587Y-60963677D01*
X126487640Y-60878150D01*
X126477404Y-60837243D01*
X126465911Y-60797840D01*
X126453101Y-60760139D01*
X126438914Y-60724343D01*
G37*
G36*
X124518114Y-58248318D02*
G01*
X124572463Y-58364165D01*
X124620357Y-58479821D01*
X124662106Y-58595058D01*
X124698021Y-58709648D01*
X124728412Y-58823362D01*
X124753588Y-58935973D01*
X124773859Y-59047251D01*
X124789536Y-59156969D01*
X124800929Y-59264898D01*
X124808346Y-59370810D01*
X124812099Y-59474476D01*
X124812497Y-59575669D01*
X124809851Y-59674159D01*
X124796664Y-59862121D01*
X124775018Y-60036535D01*
X124747393Y-60195574D01*
X124716269Y-60337412D01*
X124684125Y-60460223D01*
X124653442Y-60562180D01*
X124626699Y-60641455D01*
X124594953Y-60724659D01*
X124593286Y-60728470D01*
X124591142Y-60724659D01*
X124540025Y-60629100D01*
X124494590Y-60530565D01*
X124454571Y-60429446D01*
X124419704Y-60326133D01*
X124389722Y-60221018D01*
X124364361Y-60114493D01*
X124343354Y-60006950D01*
X124326437Y-59898780D01*
X124313343Y-59790374D01*
X124303808Y-59682124D01*
X124294350Y-59467658D01*
X124295941Y-59258514D01*
X124306456Y-59057824D01*
X124323771Y-58868720D01*
X124345763Y-58694335D01*
X124370308Y-58537800D01*
X124395283Y-58402248D01*
X124438025Y-58206621D01*
X124457001Y-58132510D01*
X124518114Y-58248318D01*
G37*
G36*
X123323680Y-58512085D02*
G01*
X123360939Y-58513459D01*
X123398534Y-58516129D01*
X123425318Y-58518812D01*
X123452022Y-58522126D01*
X123478631Y-58526072D01*
X123505132Y-58530649D01*
X123531509Y-58535855D01*
X123557747Y-58541692D01*
X123583832Y-58548157D01*
X123609750Y-58555251D01*
X123635486Y-58562973D01*
X123661024Y-58571322D01*
X123686351Y-58580298D01*
X123711452Y-58589900D01*
X123736312Y-58600127D01*
X123760917Y-58610979D01*
X123785251Y-58622456D01*
X123809300Y-58634556D01*
X123844301Y-58653921D01*
X123878118Y-58674976D01*
X123910681Y-58697665D01*
X123941921Y-58721930D01*
X123971768Y-58747713D01*
X124000153Y-58774958D01*
X124027005Y-58803606D01*
X124052256Y-58833599D01*
X124075835Y-58864881D01*
X124097673Y-58897394D01*
X124117700Y-58931080D01*
X124135847Y-58965882D01*
X124152043Y-59001741D01*
X124166220Y-59038601D01*
X124178307Y-59076404D01*
X124188235Y-59115093D01*
X124193630Y-59141370D01*
X124198053Y-59168293D01*
X124201404Y-59195824D01*
X124203586Y-59223925D01*
X124204501Y-59252558D01*
X124204049Y-59281684D01*
X124202132Y-59311265D01*
X124198653Y-59341263D01*
X124193512Y-59371639D01*
X124186612Y-59402356D01*
X124177853Y-59433375D01*
X124167139Y-59464657D01*
X124154369Y-59496166D01*
X124139447Y-59527861D01*
X124122273Y-59559706D01*
X124102749Y-59591661D01*
X124103307Y-59581716D01*
X124103731Y-59571764D01*
X124104022Y-59561806D01*
X124104178Y-59551844D01*
X124104200Y-59541878D01*
X124104088Y-59531910D01*
X124103842Y-59521940D01*
X124103463Y-59511968D01*
X124100622Y-59466271D01*
X124095464Y-59414860D01*
X124087409Y-59358826D01*
X124075876Y-59299263D01*
X124060287Y-59237263D01*
X124040061Y-59173918D01*
X124028028Y-59142083D01*
X124014618Y-59110321D01*
X123999759Y-59078769D01*
X123983379Y-59047565D01*
X123965404Y-59016843D01*
X123945763Y-58986741D01*
X123924383Y-58957396D01*
X123901191Y-58928943D01*
X123876115Y-58901520D01*
X123849083Y-58875263D01*
X123820022Y-58850308D01*
X123788859Y-58826793D01*
X123755522Y-58804853D01*
X123719939Y-58784626D01*
X123682037Y-58766248D01*
X123641744Y-58749855D01*
X123598987Y-58735583D01*
X123553693Y-58723571D01*
X123505791Y-58713953D01*
X123455207Y-58706867D01*
X123433568Y-58704746D01*
X123411907Y-58703172D01*
X123390231Y-58702138D01*
X123368550Y-58701639D01*
X123346873Y-58701669D01*
X123325208Y-58702222D01*
X123303565Y-58703292D01*
X123281952Y-58704872D01*
X123260378Y-58706958D01*
X123238852Y-58709543D01*
X123217382Y-58712622D01*
X123195979Y-58716187D01*
X123174649Y-58720234D01*
X123153403Y-58724757D01*
X123132249Y-58729748D01*
X123111196Y-58735204D01*
X123042671Y-58754724D01*
X122961676Y-58780011D01*
X122869612Y-58811519D01*
X122767880Y-58849702D01*
X122657880Y-58895014D01*
X122541014Y-58947908D01*
X122480443Y-58977341D01*
X122418681Y-59008840D01*
X122355903Y-59042461D01*
X122292284Y-59078262D01*
X122231291Y-59112419D01*
X122062692Y-59192390D01*
X121944780Y-59239009D01*
X121808056Y-59284425D01*
X121655213Y-59324420D01*
X121488950Y-59354775D01*
X121311962Y-59371271D01*
X121220289Y-59373004D01*
X121126945Y-59369690D01*
X121032268Y-59360803D01*
X120936596Y-59345813D01*
X120840263Y-59324195D01*
X120743609Y-59295421D01*
X120646970Y-59258964D01*
X120550683Y-59214296D01*
X120455084Y-59160890D01*
X120360511Y-59098218D01*
X120267302Y-59025754D01*
X120175792Y-58942970D01*
X120086319Y-58849338D01*
X119999221Y-58744332D01*
X120001312Y-58744557D01*
X120003689Y-58745216D01*
X120006332Y-58746283D01*
X120009222Y-58747730D01*
X120015663Y-58751660D01*
X120022855Y-58756796D01*
X120030644Y-58762927D01*
X120038872Y-58769840D01*
X120047384Y-58777325D01*
X120056023Y-58785170D01*
X120088729Y-58815926D01*
X120101786Y-58827969D01*
X120106944Y-58832417D01*
X120110980Y-58835534D01*
X120130987Y-58849171D01*
X120151263Y-58862403D01*
X120192577Y-58887666D01*
X120234829Y-58911355D01*
X120277925Y-58933503D01*
X120321773Y-58954139D01*
X120366279Y-58973297D01*
X120411351Y-58991007D01*
X120456895Y-59007301D01*
X120542888Y-59033994D01*
X120629932Y-59055933D01*
X120717869Y-59073288D01*
X120806536Y-59086229D01*
X120895775Y-59094923D01*
X120985423Y-59099541D01*
X121075321Y-59100251D01*
X121165308Y-59097223D01*
X121255223Y-59090626D01*
X121344906Y-59080629D01*
X121434196Y-59067402D01*
X121522933Y-59051113D01*
X121610956Y-59031931D01*
X121698105Y-59010026D01*
X121784218Y-58985567D01*
X121869136Y-58958724D01*
X121989461Y-58917408D01*
X122109058Y-58874090D01*
X122346904Y-58783742D01*
X122584348Y-58692262D01*
X122703443Y-58647530D01*
X122823065Y-58604235D01*
X122893517Y-58580645D01*
X122963981Y-58559940D01*
X122999282Y-58550780D01*
X123034663Y-58542474D01*
X123070150Y-58535066D01*
X123105769Y-58528601D01*
X123141544Y-58523122D01*
X123177503Y-58518675D01*
X123213670Y-58515304D01*
X123250071Y-58513052D01*
X123286733Y-58511964D01*
X123323680Y-58512085D01*
G37*
G36*
X124518114Y-58248318D02*
G01*
X124572463Y-58364165D01*
X124620357Y-58479821D01*
X124662106Y-58595058D01*
X124698021Y-58709648D01*
X124728412Y-58823362D01*
X124753588Y-58935973D01*
X124773859Y-59047251D01*
X124789536Y-59156969D01*
X124800929Y-59264898D01*
X124808346Y-59370810D01*
X124812099Y-59474476D01*
X124812497Y-59575669D01*
X124809851Y-59674159D01*
X124796664Y-59862121D01*
X124775018Y-60036535D01*
X124747393Y-60195574D01*
X124716269Y-60337412D01*
X124684125Y-60460223D01*
X124653442Y-60562180D01*
X124626699Y-60641455D01*
X124594953Y-60724659D01*
X124591142Y-60724659D01*
X124540025Y-60629100D01*
X124494590Y-60530565D01*
X124454571Y-60429446D01*
X124419704Y-60326133D01*
X124389722Y-60221018D01*
X124364361Y-60114493D01*
X124343354Y-60006950D01*
X124326437Y-59898780D01*
X124313343Y-59790374D01*
X124303808Y-59682124D01*
X124294350Y-59467658D01*
X124295941Y-59258514D01*
X124306456Y-59057824D01*
X124323771Y-58868720D01*
X124345763Y-58694335D01*
X124370308Y-58537800D01*
X124395283Y-58402248D01*
X124438025Y-58206621D01*
X124457001Y-58132510D01*
X124518114Y-58248318D01*
G37*
G36*
X118478001Y-60724661D02*
G01*
X118478000Y-60724661D01*
X118478000Y-60724660D01*
X118478000Y-60724659D01*
X118478010Y-60724659D01*
X118478001Y-60724661D01*
G37*
G36*
X123679635Y-57808736D02*
G01*
X123757118Y-57820089D01*
X123835057Y-57835463D01*
X123913301Y-57855101D01*
X123991699Y-57879247D01*
X124070102Y-57908145D01*
X124148359Y-57942037D01*
X124226319Y-57981169D01*
X124303833Y-58025782D01*
X124380751Y-58076122D01*
X124456920Y-58132431D01*
X124456920Y-58132510D01*
X124395249Y-58402248D01*
X124345744Y-58694335D01*
X124323757Y-58868720D01*
X124306446Y-59057824D01*
X124295934Y-59258514D01*
X124294346Y-59467658D01*
X124303805Y-59682124D01*
X124326435Y-59898780D01*
X124364360Y-60114494D01*
X124419704Y-60326133D01*
X124454571Y-60429446D01*
X124494590Y-60530565D01*
X124540025Y-60629101D01*
X124591142Y-60724659D01*
X118478010Y-60724659D01*
X119353329Y-60536791D01*
X120018104Y-60385278D01*
X120282033Y-60319430D01*
X120452613Y-60269446D01*
X120565789Y-60280580D01*
X120854746Y-60303150D01*
X121041437Y-60313648D01*
X121243626Y-60320914D01*
X121451832Y-60322917D01*
X121656572Y-60317627D01*
X123274790Y-60259762D01*
X123301421Y-60258829D01*
X123373138Y-60252295D01*
X123422070Y-60245177D01*
X123477675Y-60234559D01*
X123538418Y-60219741D01*
X123602767Y-60200022D01*
X123669188Y-60174703D01*
X123736149Y-60143083D01*
X123769353Y-60124692D01*
X123802116Y-60104462D01*
X123834247Y-60082308D01*
X123865556Y-60058141D01*
X123895849Y-60031873D01*
X123924935Y-60003418D01*
X123952623Y-59972688D01*
X123978721Y-59939595D01*
X124003038Y-59904052D01*
X124025381Y-59865970D01*
X124045559Y-59825264D01*
X124063381Y-59781845D01*
X124071401Y-59758785D01*
X124078506Y-59735464D01*
X124084711Y-59711911D01*
X124090030Y-59688153D01*
X124094479Y-59664221D01*
X124098072Y-59640143D01*
X124100824Y-59615947D01*
X124102751Y-59591663D01*
X124122274Y-59559708D01*
X124139448Y-59527863D01*
X124154371Y-59496168D01*
X124167140Y-59464660D01*
X124177855Y-59433377D01*
X124186613Y-59402358D01*
X124193514Y-59371641D01*
X124198655Y-59341265D01*
X124202134Y-59311267D01*
X124204051Y-59281686D01*
X124204502Y-59252560D01*
X124203588Y-59223928D01*
X124201406Y-59195827D01*
X124198055Y-59168295D01*
X124193632Y-59141372D01*
X124188237Y-59115096D01*
X124178309Y-59076407D01*
X124166222Y-59038604D01*
X124152045Y-59001743D01*
X124135848Y-58965884D01*
X124117702Y-58931082D01*
X124097675Y-58897396D01*
X124075837Y-58864883D01*
X124052258Y-58833601D01*
X124027007Y-58803608D01*
X124000155Y-58774960D01*
X123971770Y-58747716D01*
X123941923Y-58721932D01*
X123910683Y-58697667D01*
X123878120Y-58674978D01*
X123844303Y-58653923D01*
X123809302Y-58634559D01*
X123785253Y-58622458D01*
X123760918Y-58610981D01*
X123736314Y-58600129D01*
X123711454Y-58589901D01*
X123686353Y-58580299D01*
X123661026Y-58571324D01*
X123635487Y-58562975D01*
X123609752Y-58555253D01*
X123583834Y-58548159D01*
X123557748Y-58541693D01*
X123531510Y-58535857D01*
X123505133Y-58530650D01*
X123478632Y-58526074D01*
X123452022Y-58522128D01*
X123425318Y-58518814D01*
X123398534Y-58516131D01*
X123360939Y-58513460D01*
X123323681Y-58512087D01*
X123286734Y-58511966D01*
X123250072Y-58513054D01*
X123213671Y-58515305D01*
X123177504Y-58518677D01*
X123141546Y-58523124D01*
X123105770Y-58528602D01*
X123070152Y-58535068D01*
X123034665Y-58542475D01*
X122999284Y-58550782D01*
X122963983Y-58559942D01*
X122893519Y-58580647D01*
X122823067Y-58604237D01*
X122703444Y-58647532D01*
X122584349Y-58692264D01*
X122346905Y-58783744D01*
X122109059Y-58874093D01*
X121989462Y-58917410D01*
X121869137Y-58958726D01*
X121784219Y-58985570D01*
X121698106Y-59010029D01*
X121610957Y-59031933D01*
X121522934Y-59051115D01*
X121434197Y-59067404D01*
X121344907Y-59080631D01*
X121255224Y-59090628D01*
X121165309Y-59097225D01*
X121075322Y-59100253D01*
X120985424Y-59099543D01*
X120895776Y-59094925D01*
X120806537Y-59086230D01*
X120717870Y-59073290D01*
X120629933Y-59055935D01*
X120542889Y-59033996D01*
X120456896Y-59007303D01*
X120411352Y-58991009D01*
X120366280Y-58973299D01*
X120321774Y-58954141D01*
X120277926Y-58933504D01*
X120234830Y-58911357D01*
X120213593Y-58899707D01*
X120192578Y-58887668D01*
X120171798Y-58875235D01*
X120151264Y-58862404D01*
X120130988Y-58849173D01*
X120110981Y-58835536D01*
X120106945Y-58832419D01*
X120101787Y-58827971D01*
X120088729Y-58815928D01*
X120056014Y-58785172D01*
X120038854Y-58769842D01*
X120030619Y-58762929D01*
X120022823Y-58756798D01*
X120015621Y-58751662D01*
X120009169Y-58747732D01*
X120006274Y-58746285D01*
X120003624Y-58745218D01*
X120001241Y-58744559D01*
X119999142Y-58744334D01*
X119944645Y-58670685D01*
X119891348Y-58591987D01*
X119839342Y-58508100D01*
X119788719Y-58418886D01*
X119739568Y-58324207D01*
X119691983Y-58223923D01*
X119646053Y-58117896D01*
X119601870Y-58005987D01*
X119622662Y-58033481D01*
X119679445Y-58100369D01*
X119720916Y-58144431D01*
X119770885Y-58193354D01*
X119829184Y-58245478D01*
X119895646Y-58299139D01*
X119970105Y-58352675D01*
X120052394Y-58404425D01*
X120142347Y-58452726D01*
X120239795Y-58495915D01*
X120291278Y-58515073D01*
X120344573Y-58532330D01*
X120399658Y-58547479D01*
X120456513Y-58560310D01*
X120515117Y-58570617D01*
X120575449Y-58578192D01*
X120637488Y-58582827D01*
X120701213Y-58584314D01*
X120714918Y-58584325D01*
X120728637Y-58584462D01*
X120742357Y-58584704D01*
X120756061Y-58585028D01*
X120809731Y-58584744D01*
X120894129Y-58579512D01*
X121009443Y-58565799D01*
X121155864Y-58540072D01*
X121240798Y-58521598D01*
X121333580Y-58498795D01*
X121434232Y-58471221D01*
X121542779Y-58438435D01*
X121659243Y-58399996D01*
X121783650Y-58355460D01*
X121916022Y-58304387D01*
X122056383Y-58246334D01*
X122099451Y-58227615D01*
X122142279Y-58208378D01*
X122184873Y-58188642D01*
X122227238Y-58168427D01*
X122269379Y-58147750D01*
X122311303Y-58126631D01*
X122353015Y-58105088D01*
X122394520Y-58083139D01*
X122534206Y-58014203D01*
X122624522Y-57975114D01*
X122726883Y-57935542D01*
X122840086Y-57897437D01*
X122962928Y-57862747D01*
X123094207Y-57833421D01*
X123232720Y-57811408D01*
X123377264Y-57798657D01*
X123526637Y-57797117D01*
X123679635Y-57808736D01*
G37*
G36*
X124471320Y-58143866D02*
G01*
X124485594Y-58155438D01*
X124499839Y-58167234D01*
X124514070Y-58179261D01*
X124544026Y-58204334D01*
X124622708Y-58278986D01*
X124675077Y-58334637D01*
X124733334Y-58402364D01*
X124795382Y-58482059D01*
X124859123Y-58573616D01*
X124922459Y-58676929D01*
X124983293Y-58791890D01*
X125039527Y-58918395D01*
X125089064Y-59056335D01*
X125110665Y-59129560D01*
X125129805Y-59205605D01*
X125146221Y-59284455D01*
X125159653Y-59366098D01*
X125169836Y-59450520D01*
X125176510Y-59537707D01*
X125179412Y-59627648D01*
X125178279Y-59720327D01*
X125177932Y-59738643D01*
X125178143Y-59756939D01*
X125178915Y-59775197D01*
X125180253Y-59793402D01*
X125182159Y-59811535D01*
X125184638Y-59829582D01*
X125187693Y-59847524D01*
X125191327Y-59865345D01*
X125195544Y-59883029D01*
X125200349Y-59900558D01*
X125205743Y-59917916D01*
X125211732Y-59935086D01*
X125218319Y-59952052D01*
X125225506Y-59968796D01*
X125233299Y-59985302D01*
X125241700Y-60001553D01*
X125256812Y-60027720D01*
X125274056Y-60053870D01*
X125293570Y-60079741D01*
X125315495Y-60105075D01*
X125339971Y-60129612D01*
X125367138Y-60153092D01*
X125397137Y-60175256D01*
X125430107Y-60195843D01*
X125466188Y-60214594D01*
X125505521Y-60231248D01*
X125548245Y-60245548D01*
X125594501Y-60257232D01*
X125644429Y-60266040D01*
X125698169Y-60271714D01*
X125755861Y-60273993D01*
X125817645Y-60272618D01*
X125838488Y-60269772D01*
X125862933Y-60265044D01*
X125895298Y-60257070D01*
X125934510Y-60245071D01*
X125979497Y-60228265D01*
X126029188Y-60205872D01*
X126082510Y-60177110D01*
X126138391Y-60141199D01*
X126166956Y-60120319D01*
X126195759Y-60097358D01*
X126224665Y-60072219D01*
X126253541Y-60044805D01*
X126282252Y-60015018D01*
X126310666Y-59982761D01*
X126338646Y-59947935D01*
X126366061Y-59910444D01*
X126392774Y-59870189D01*
X126418654Y-59827072D01*
X126443565Y-59780998D01*
X126467373Y-59731867D01*
X126489945Y-59679582D01*
X126511146Y-59624045D01*
X126522206Y-59743845D01*
X126530191Y-59874465D01*
X126534621Y-60035228D01*
X126534286Y-60122928D01*
X126531602Y-60213382D01*
X126526082Y-60304995D01*
X126517240Y-60396173D01*
X126504589Y-60485323D01*
X126487642Y-60570850D01*
X126465913Y-60651160D01*
X126438914Y-60724659D01*
X124594953Y-60724659D01*
X124594953Y-60724658D01*
X124626699Y-60641454D01*
X124684126Y-60460221D01*
X124716270Y-60337411D01*
X124747395Y-60195573D01*
X124775020Y-60036533D01*
X124796666Y-59862120D01*
X124809852Y-59674158D01*
X124812100Y-59474475D01*
X124800930Y-59264897D01*
X124773860Y-59047250D01*
X124728413Y-58823361D01*
X124698022Y-58709647D01*
X124662107Y-58595057D01*
X124620357Y-58479820D01*
X124572463Y-58364164D01*
X124518114Y-58248318D01*
X124457001Y-58132509D01*
X124471320Y-58143866D01*
G37*
G36*
X126526670Y-59655115D02*
G01*
X126577564Y-59740396D01*
X126618296Y-59799650D01*
X126670296Y-59867998D01*
X126734375Y-59943954D01*
X126811341Y-60026031D01*
X126902002Y-60112743D01*
X127007168Y-60202604D01*
X127127649Y-60294127D01*
X127264252Y-60385827D01*
X127417787Y-60476216D01*
X127589063Y-60563809D01*
X127681607Y-60606092D01*
X127778889Y-60647119D01*
X127881012Y-60686703D01*
X127988075Y-60724659D01*
X126438914Y-60724659D01*
X126438913Y-60724659D01*
X126453101Y-60688861D01*
X126465911Y-60651160D01*
X126477404Y-60611757D01*
X126487640Y-60570850D01*
X126504587Y-60485323D01*
X126517238Y-60396173D01*
X126526080Y-60304995D01*
X126531600Y-60213382D01*
X126534284Y-60122928D01*
X126534619Y-60035228D01*
X126533092Y-59951875D01*
X126530189Y-59874465D01*
X126522204Y-59743845D01*
X126511144Y-59624045D01*
X126526670Y-59655115D01*
G37*
D11*
X86444675Y-41314000D02*
X87174562Y-41622337D01*
X86444675Y-41930674D01*
X86136338Y-42660562D01*
X85828000Y-41930674D01*
X85098113Y-41622337D01*
X85828000Y-41314000D01*
X86136338Y-40584112D01*
X86444675Y-41314000D01*
G36*
X86444675Y-41314000D02*
G01*
X87174562Y-41622337D01*
X86444675Y-41930674D01*
X86136338Y-42660562D01*
X85828000Y-41930674D01*
X85098113Y-41622337D01*
X85828000Y-41314000D01*
X86136338Y-40584112D01*
X86444675Y-41314000D01*
G37*
D12*
X111989666Y-81638504D02*
X111513476Y-81638504D01*
X112084904Y-81924219D02*
X111751571Y-80924219D01*
X111751571Y-80924219D02*
X111418238Y-81924219D01*
X110751571Y-81400409D02*
X111084904Y-81400409D01*
X111084904Y-81924219D02*
X111084904Y-80924219D01*
X111084904Y-80924219D02*
X110608714Y-80924219D01*
D13*
X80549835Y-51034285D02*
X80906978Y-51284285D01*
X80549835Y-51462856D02*
X81299835Y-51462856D01*
X81299835Y-51462856D02*
X81299835Y-51177142D01*
X81299835Y-51177142D02*
X81264121Y-51105713D01*
X81264121Y-51105713D02*
X81228407Y-51069999D01*
X81228407Y-51069999D02*
X81156978Y-51034285D01*
X81156978Y-51034285D02*
X81049835Y-51034285D01*
X81049835Y-51034285D02*
X80978407Y-51069999D01*
X80978407Y-51069999D02*
X80942692Y-51105713D01*
X80942692Y-51105713D02*
X80906978Y-51177142D01*
X80906978Y-51177142D02*
X80906978Y-51462856D01*
X80942692Y-50712856D02*
X80942692Y-50462856D01*
X80549835Y-50355713D02*
X80549835Y-50712856D01*
X80549835Y-50712856D02*
X81299835Y-50712856D01*
X81299835Y-50712856D02*
X81299835Y-50355713D01*
X80585550Y-50069999D02*
X80549835Y-49962857D01*
X80549835Y-49962857D02*
X80549835Y-49784285D01*
X80549835Y-49784285D02*
X80585550Y-49712857D01*
X80585550Y-49712857D02*
X80621264Y-49677142D01*
X80621264Y-49677142D02*
X80692692Y-49641428D01*
X80692692Y-49641428D02*
X80764121Y-49641428D01*
X80764121Y-49641428D02*
X80835550Y-49677142D01*
X80835550Y-49677142D02*
X80871264Y-49712857D01*
X80871264Y-49712857D02*
X80906978Y-49784285D01*
X80906978Y-49784285D02*
X80942692Y-49927142D01*
X80942692Y-49927142D02*
X80978407Y-49998571D01*
X80978407Y-49998571D02*
X81014121Y-50034285D01*
X81014121Y-50034285D02*
X81085550Y-50069999D01*
X81085550Y-50069999D02*
X81156978Y-50069999D01*
X81156978Y-50069999D02*
X81228407Y-50034285D01*
X81228407Y-50034285D02*
X81264121Y-49998571D01*
X81264121Y-49998571D02*
X81299835Y-49927142D01*
X81299835Y-49927142D02*
X81299835Y-49748571D01*
X81299835Y-49748571D02*
X81264121Y-49641428D01*
X80942692Y-49319999D02*
X80942692Y-49069999D01*
X80549835Y-48962856D02*
X80549835Y-49319999D01*
X80549835Y-49319999D02*
X81299835Y-49319999D01*
X81299835Y-49319999D02*
X81299835Y-48962856D01*
X81299835Y-48748571D02*
X81299835Y-48320000D01*
X80549835Y-48534285D02*
X81299835Y-48534285D01*
X92117160Y-61163878D02*
X92188589Y-61128164D01*
X92188589Y-61128164D02*
X92295731Y-61128164D01*
X92295731Y-61128164D02*
X92402874Y-61163878D01*
X92402874Y-61163878D02*
X92474303Y-61235307D01*
X92474303Y-61235307D02*
X92510017Y-61306735D01*
X92510017Y-61306735D02*
X92545731Y-61449592D01*
X92545731Y-61449592D02*
X92545731Y-61556735D01*
X92545731Y-61556735D02*
X92510017Y-61699592D01*
X92510017Y-61699592D02*
X92474303Y-61771021D01*
X92474303Y-61771021D02*
X92402874Y-61842450D01*
X92402874Y-61842450D02*
X92295731Y-61878164D01*
X92295731Y-61878164D02*
X92224303Y-61878164D01*
X92224303Y-61878164D02*
X92117160Y-61842450D01*
X92117160Y-61842450D02*
X92081446Y-61806735D01*
X92081446Y-61806735D02*
X92081446Y-61556735D01*
X92081446Y-61556735D02*
X92224303Y-61556735D01*
X91760017Y-61878164D02*
X91760017Y-61128164D01*
X91760017Y-61128164D02*
X91331446Y-61878164D01*
X91331446Y-61878164D02*
X91331446Y-61128164D01*
X90974303Y-61878164D02*
X90974303Y-61128164D01*
X90974303Y-61128164D02*
X90795732Y-61128164D01*
X90795732Y-61128164D02*
X90688589Y-61163878D01*
X90688589Y-61163878D02*
X90617160Y-61235307D01*
X90617160Y-61235307D02*
X90581446Y-61306735D01*
X90581446Y-61306735D02*
X90545732Y-61449592D01*
X90545732Y-61449592D02*
X90545732Y-61556735D01*
X90545732Y-61556735D02*
X90581446Y-61699592D01*
X90581446Y-61699592D02*
X90617160Y-61771021D01*
X90617160Y-61771021D02*
X90688589Y-61842450D01*
X90688589Y-61842450D02*
X90795732Y-61878164D01*
X90795732Y-61878164D02*
X90974303Y-61878164D01*
X92117160Y-53163878D02*
X92188589Y-53128164D01*
X92188589Y-53128164D02*
X92295731Y-53128164D01*
X92295731Y-53128164D02*
X92402874Y-53163878D01*
X92402874Y-53163878D02*
X92474303Y-53235307D01*
X92474303Y-53235307D02*
X92510017Y-53306735D01*
X92510017Y-53306735D02*
X92545731Y-53449592D01*
X92545731Y-53449592D02*
X92545731Y-53556735D01*
X92545731Y-53556735D02*
X92510017Y-53699592D01*
X92510017Y-53699592D02*
X92474303Y-53771021D01*
X92474303Y-53771021D02*
X92402874Y-53842450D01*
X92402874Y-53842450D02*
X92295731Y-53878164D01*
X92295731Y-53878164D02*
X92224303Y-53878164D01*
X92224303Y-53878164D02*
X92117160Y-53842450D01*
X92117160Y-53842450D02*
X92081446Y-53806735D01*
X92081446Y-53806735D02*
X92081446Y-53556735D01*
X92081446Y-53556735D02*
X92224303Y-53556735D01*
X91760017Y-53878164D02*
X91760017Y-53128164D01*
X91760017Y-53128164D02*
X91331446Y-53878164D01*
X91331446Y-53878164D02*
X91331446Y-53128164D01*
X90974303Y-53878164D02*
X90974303Y-53128164D01*
X90974303Y-53128164D02*
X90795732Y-53128164D01*
X90795732Y-53128164D02*
X90688589Y-53163878D01*
X90688589Y-53163878D02*
X90617160Y-53235307D01*
X90617160Y-53235307D02*
X90581446Y-53306735D01*
X90581446Y-53306735D02*
X90545732Y-53449592D01*
X90545732Y-53449592D02*
X90545732Y-53556735D01*
X90545732Y-53556735D02*
X90581446Y-53699592D01*
X90581446Y-53699592D02*
X90617160Y-53771021D01*
X90617160Y-53771021D02*
X90688589Y-53842450D01*
X90688589Y-53842450D02*
X90795732Y-53878164D01*
X90795732Y-53878164D02*
X90974303Y-53878164D01*
X92367161Y-59128164D02*
X91902875Y-59128164D01*
X91902875Y-59128164D02*
X92152875Y-59413878D01*
X92152875Y-59413878D02*
X92045732Y-59413878D01*
X92045732Y-59413878D02*
X91974304Y-59449592D01*
X91974304Y-59449592D02*
X91938589Y-59485307D01*
X91938589Y-59485307D02*
X91902875Y-59556735D01*
X91902875Y-59556735D02*
X91902875Y-59735307D01*
X91902875Y-59735307D02*
X91938589Y-59806735D01*
X91938589Y-59806735D02*
X91974304Y-59842450D01*
X91974304Y-59842450D02*
X92045732Y-59878164D01*
X92045732Y-59878164D02*
X92260018Y-59878164D01*
X92260018Y-59878164D02*
X92331446Y-59842450D01*
X92331446Y-59842450D02*
X92367161Y-59806735D01*
X91688589Y-59128164D02*
X91438589Y-59878164D01*
X91438589Y-59878164D02*
X91188589Y-59128164D01*
X91010018Y-59128164D02*
X90545732Y-59128164D01*
X90545732Y-59128164D02*
X90795732Y-59413878D01*
X90795732Y-59413878D02*
X90688589Y-59413878D01*
X90688589Y-59413878D02*
X90617161Y-59449592D01*
X90617161Y-59449592D02*
X90581446Y-59485307D01*
X90581446Y-59485307D02*
X90545732Y-59556735D01*
X90545732Y-59556735D02*
X90545732Y-59735307D01*
X90545732Y-59735307D02*
X90581446Y-59806735D01*
X90581446Y-59806735D02*
X90617161Y-59842450D01*
X90617161Y-59842450D02*
X90688589Y-59878164D01*
X90688589Y-59878164D02*
X90902875Y-59878164D01*
X90902875Y-59878164D02*
X90974303Y-59842450D01*
X90974303Y-59842450D02*
X91010018Y-59806735D01*
X93724303Y-55842450D02*
X93617161Y-55878164D01*
X93617161Y-55878164D02*
X93438589Y-55878164D01*
X93438589Y-55878164D02*
X93367161Y-55842450D01*
X93367161Y-55842450D02*
X93331446Y-55806735D01*
X93331446Y-55806735D02*
X93295732Y-55735307D01*
X93295732Y-55735307D02*
X93295732Y-55663878D01*
X93295732Y-55663878D02*
X93331446Y-55592450D01*
X93331446Y-55592450D02*
X93367161Y-55556735D01*
X93367161Y-55556735D02*
X93438589Y-55521021D01*
X93438589Y-55521021D02*
X93581446Y-55485307D01*
X93581446Y-55485307D02*
X93652875Y-55449592D01*
X93652875Y-55449592D02*
X93688589Y-55413878D01*
X93688589Y-55413878D02*
X93724303Y-55342450D01*
X93724303Y-55342450D02*
X93724303Y-55271021D01*
X93724303Y-55271021D02*
X93688589Y-55199592D01*
X93688589Y-55199592D02*
X93652875Y-55163878D01*
X93652875Y-55163878D02*
X93581446Y-55128164D01*
X93581446Y-55128164D02*
X93402875Y-55128164D01*
X93402875Y-55128164D02*
X93295732Y-55163878D01*
X93045732Y-55128164D02*
X92867160Y-55878164D01*
X92867160Y-55878164D02*
X92724303Y-55342450D01*
X92724303Y-55342450D02*
X92581446Y-55878164D01*
X92581446Y-55878164D02*
X92402875Y-55128164D01*
X92117160Y-55878164D02*
X92117160Y-55128164D01*
X92117160Y-55128164D02*
X91938589Y-55128164D01*
X91938589Y-55128164D02*
X91831446Y-55163878D01*
X91831446Y-55163878D02*
X91760017Y-55235307D01*
X91760017Y-55235307D02*
X91724303Y-55306735D01*
X91724303Y-55306735D02*
X91688589Y-55449592D01*
X91688589Y-55449592D02*
X91688589Y-55556735D01*
X91688589Y-55556735D02*
X91724303Y-55699592D01*
X91724303Y-55699592D02*
X91760017Y-55771021D01*
X91760017Y-55771021D02*
X91831446Y-55842450D01*
X91831446Y-55842450D02*
X91938589Y-55878164D01*
X91938589Y-55878164D02*
X92117160Y-55878164D01*
X91367160Y-55878164D02*
X91367160Y-55128164D01*
X90867160Y-55128164D02*
X90724303Y-55128164D01*
X90724303Y-55128164D02*
X90652874Y-55163878D01*
X90652874Y-55163878D02*
X90581446Y-55235307D01*
X90581446Y-55235307D02*
X90545731Y-55378164D01*
X90545731Y-55378164D02*
X90545731Y-55628164D01*
X90545731Y-55628164D02*
X90581446Y-55771021D01*
X90581446Y-55771021D02*
X90652874Y-55842450D01*
X90652874Y-55842450D02*
X90724303Y-55878164D01*
X90724303Y-55878164D02*
X90867160Y-55878164D01*
X90867160Y-55878164D02*
X90938589Y-55842450D01*
X90938589Y-55842450D02*
X91010017Y-55771021D01*
X91010017Y-55771021D02*
X91045731Y-55628164D01*
X91045731Y-55628164D02*
X91045731Y-55378164D01*
X91045731Y-55378164D02*
X91010017Y-55235307D01*
X91010017Y-55235307D02*
X90938589Y-55163878D01*
X90938589Y-55163878D02*
X90867160Y-55128164D01*
X93938589Y-57842450D02*
X93831447Y-57878164D01*
X93831447Y-57878164D02*
X93652875Y-57878164D01*
X93652875Y-57878164D02*
X93581447Y-57842450D01*
X93581447Y-57842450D02*
X93545732Y-57806735D01*
X93545732Y-57806735D02*
X93510018Y-57735307D01*
X93510018Y-57735307D02*
X93510018Y-57663878D01*
X93510018Y-57663878D02*
X93545732Y-57592450D01*
X93545732Y-57592450D02*
X93581447Y-57556735D01*
X93581447Y-57556735D02*
X93652875Y-57521021D01*
X93652875Y-57521021D02*
X93795732Y-57485307D01*
X93795732Y-57485307D02*
X93867161Y-57449592D01*
X93867161Y-57449592D02*
X93902875Y-57413878D01*
X93902875Y-57413878D02*
X93938589Y-57342450D01*
X93938589Y-57342450D02*
X93938589Y-57271021D01*
X93938589Y-57271021D02*
X93902875Y-57199592D01*
X93902875Y-57199592D02*
X93867161Y-57163878D01*
X93867161Y-57163878D02*
X93795732Y-57128164D01*
X93795732Y-57128164D02*
X93617161Y-57128164D01*
X93617161Y-57128164D02*
X93510018Y-57163878D01*
X93260018Y-57128164D02*
X93081446Y-57878164D01*
X93081446Y-57878164D02*
X92938589Y-57342450D01*
X92938589Y-57342450D02*
X92795732Y-57878164D01*
X92795732Y-57878164D02*
X92617161Y-57128164D01*
X91902875Y-57806735D02*
X91938589Y-57842450D01*
X91938589Y-57842450D02*
X92045732Y-57878164D01*
X92045732Y-57878164D02*
X92117160Y-57878164D01*
X92117160Y-57878164D02*
X92224303Y-57842450D01*
X92224303Y-57842450D02*
X92295732Y-57771021D01*
X92295732Y-57771021D02*
X92331446Y-57699592D01*
X92331446Y-57699592D02*
X92367160Y-57556735D01*
X92367160Y-57556735D02*
X92367160Y-57449592D01*
X92367160Y-57449592D02*
X92331446Y-57306735D01*
X92331446Y-57306735D02*
X92295732Y-57235307D01*
X92295732Y-57235307D02*
X92224303Y-57163878D01*
X92224303Y-57163878D02*
X92117160Y-57128164D01*
X92117160Y-57128164D02*
X92045732Y-57128164D01*
X92045732Y-57128164D02*
X91938589Y-57163878D01*
X91938589Y-57163878D02*
X91902875Y-57199592D01*
X91224303Y-57878164D02*
X91581446Y-57878164D01*
X91581446Y-57878164D02*
X91581446Y-57128164D01*
X90974303Y-57878164D02*
X90974303Y-57128164D01*
X90545732Y-57878164D02*
X90867160Y-57449592D01*
X90545732Y-57128164D02*
X90974303Y-57556735D01*
X91260018Y-65878164D02*
X91510018Y-65521021D01*
X91688589Y-65878164D02*
X91688589Y-65128164D01*
X91688589Y-65128164D02*
X91402875Y-65128164D01*
X91402875Y-65128164D02*
X91331446Y-65163878D01*
X91331446Y-65163878D02*
X91295732Y-65199592D01*
X91295732Y-65199592D02*
X91260018Y-65271021D01*
X91260018Y-65271021D02*
X91260018Y-65378164D01*
X91260018Y-65378164D02*
X91295732Y-65449592D01*
X91295732Y-65449592D02*
X91331446Y-65485307D01*
X91331446Y-65485307D02*
X91402875Y-65521021D01*
X91402875Y-65521021D02*
X91688589Y-65521021D01*
X91010018Y-65128164D02*
X90510018Y-65878164D01*
X90510018Y-65128164D02*
X91010018Y-65878164D01*
X99235142Y-69610450D02*
X99128000Y-69646164D01*
X99128000Y-69646164D02*
X98949428Y-69646164D01*
X98949428Y-69646164D02*
X98878000Y-69610450D01*
X98878000Y-69610450D02*
X98842285Y-69574735D01*
X98842285Y-69574735D02*
X98806571Y-69503307D01*
X98806571Y-69503307D02*
X98806571Y-69431878D01*
X98806571Y-69431878D02*
X98842285Y-69360450D01*
X98842285Y-69360450D02*
X98878000Y-69324735D01*
X98878000Y-69324735D02*
X98949428Y-69289021D01*
X98949428Y-69289021D02*
X99092285Y-69253307D01*
X99092285Y-69253307D02*
X99163714Y-69217592D01*
X99163714Y-69217592D02*
X99199428Y-69181878D01*
X99199428Y-69181878D02*
X99235142Y-69110450D01*
X99235142Y-69110450D02*
X99235142Y-69039021D01*
X99235142Y-69039021D02*
X99199428Y-68967592D01*
X99199428Y-68967592D02*
X99163714Y-68931878D01*
X99163714Y-68931878D02*
X99092285Y-68896164D01*
X99092285Y-68896164D02*
X98913714Y-68896164D01*
X98913714Y-68896164D02*
X98806571Y-68931878D01*
X98592285Y-68896164D02*
X98163714Y-68896164D01*
X98377999Y-69646164D02*
X98377999Y-68896164D01*
X97485142Y-69646164D02*
X97735142Y-69289021D01*
X97913713Y-69646164D02*
X97913713Y-68896164D01*
X97913713Y-68896164D02*
X97627999Y-68896164D01*
X97627999Y-68896164D02*
X97556570Y-68931878D01*
X97556570Y-68931878D02*
X97520856Y-68967592D01*
X97520856Y-68967592D02*
X97485142Y-69039021D01*
X97485142Y-69039021D02*
X97485142Y-69146164D01*
X97485142Y-69146164D02*
X97520856Y-69217592D01*
X97520856Y-69217592D02*
X97556570Y-69253307D01*
X97556570Y-69253307D02*
X97627999Y-69289021D01*
X97627999Y-69289021D02*
X97913713Y-69289021D01*
X97020856Y-68896164D02*
X96877999Y-68896164D01*
X96877999Y-68896164D02*
X96806570Y-68931878D01*
X96806570Y-68931878D02*
X96735142Y-69003307D01*
X96735142Y-69003307D02*
X96699427Y-69146164D01*
X96699427Y-69146164D02*
X96699427Y-69396164D01*
X96699427Y-69396164D02*
X96735142Y-69539021D01*
X96735142Y-69539021D02*
X96806570Y-69610450D01*
X96806570Y-69610450D02*
X96877999Y-69646164D01*
X96877999Y-69646164D02*
X97020856Y-69646164D01*
X97020856Y-69646164D02*
X97092285Y-69610450D01*
X97092285Y-69610450D02*
X97163713Y-69539021D01*
X97163713Y-69539021D02*
X97199427Y-69396164D01*
X97199427Y-69396164D02*
X97199427Y-69146164D01*
X97199427Y-69146164D02*
X97163713Y-69003307D01*
X97163713Y-69003307D02*
X97092285Y-68931878D01*
X97092285Y-68931878D02*
X97020856Y-68896164D01*
X96127999Y-69253307D02*
X96020856Y-69289021D01*
X96020856Y-69289021D02*
X95985142Y-69324735D01*
X95985142Y-69324735D02*
X95949428Y-69396164D01*
X95949428Y-69396164D02*
X95949428Y-69503307D01*
X95949428Y-69503307D02*
X95985142Y-69574735D01*
X95985142Y-69574735D02*
X96020856Y-69610450D01*
X96020856Y-69610450D02*
X96092285Y-69646164D01*
X96092285Y-69646164D02*
X96377999Y-69646164D01*
X96377999Y-69646164D02*
X96377999Y-68896164D01*
X96377999Y-68896164D02*
X96127999Y-68896164D01*
X96127999Y-68896164D02*
X96056571Y-68931878D01*
X96056571Y-68931878D02*
X96020856Y-68967592D01*
X96020856Y-68967592D02*
X95985142Y-69039021D01*
X95985142Y-69039021D02*
X95985142Y-69110450D01*
X95985142Y-69110450D02*
X96020856Y-69181878D01*
X96020856Y-69181878D02*
X96056571Y-69217592D01*
X96056571Y-69217592D02*
X96127999Y-69253307D01*
X96127999Y-69253307D02*
X96377999Y-69253307D01*
X95627999Y-69253307D02*
X95377999Y-69253307D01*
X95270856Y-69646164D02*
X95627999Y-69646164D01*
X95627999Y-69646164D02*
X95627999Y-68896164D01*
X95627999Y-68896164D02*
X95270856Y-68896164D01*
X92474303Y-67128164D02*
X92224303Y-67878164D01*
X92224303Y-67878164D02*
X91974303Y-67128164D01*
X91295732Y-67806735D02*
X91331446Y-67842450D01*
X91331446Y-67842450D02*
X91438589Y-67878164D01*
X91438589Y-67878164D02*
X91510017Y-67878164D01*
X91510017Y-67878164D02*
X91617160Y-67842450D01*
X91617160Y-67842450D02*
X91688589Y-67771021D01*
X91688589Y-67771021D02*
X91724303Y-67699592D01*
X91724303Y-67699592D02*
X91760017Y-67556735D01*
X91760017Y-67556735D02*
X91760017Y-67449592D01*
X91760017Y-67449592D02*
X91724303Y-67306735D01*
X91724303Y-67306735D02*
X91688589Y-67235307D01*
X91688589Y-67235307D02*
X91617160Y-67163878D01*
X91617160Y-67163878D02*
X91510017Y-67128164D01*
X91510017Y-67128164D02*
X91438589Y-67128164D01*
X91438589Y-67128164D02*
X91331446Y-67163878D01*
X91331446Y-67163878D02*
X91295732Y-67199592D01*
X90545732Y-67806735D02*
X90581446Y-67842450D01*
X90581446Y-67842450D02*
X90688589Y-67878164D01*
X90688589Y-67878164D02*
X90760017Y-67878164D01*
X90760017Y-67878164D02*
X90867160Y-67842450D01*
X90867160Y-67842450D02*
X90938589Y-67771021D01*
X90938589Y-67771021D02*
X90974303Y-67699592D01*
X90974303Y-67699592D02*
X91010017Y-67556735D01*
X91010017Y-67556735D02*
X91010017Y-67449592D01*
X91010017Y-67449592D02*
X90974303Y-67306735D01*
X90974303Y-67306735D02*
X90938589Y-67235307D01*
X90938589Y-67235307D02*
X90867160Y-67163878D01*
X90867160Y-67163878D02*
X90760017Y-67128164D01*
X90760017Y-67128164D02*
X90688589Y-67128164D01*
X90688589Y-67128164D02*
X90581446Y-67163878D01*
X90581446Y-67163878D02*
X90545732Y-67199592D01*
X91617161Y-63128164D02*
X91188590Y-63128164D01*
X91402875Y-63878164D02*
X91402875Y-63128164D01*
X91010018Y-63128164D02*
X90510018Y-63878164D01*
X90510018Y-63128164D02*
X91010018Y-63878164D01*
D14*
%TO.C,C25*%
X103970164Y-42494000D02*
X104185836Y-42494000D01*
X103970164Y-43214000D02*
X104185836Y-43214000D01*
%TO.C,C32*%
X100888000Y-49806164D02*
X100888000Y-50021836D01*
X101608000Y-49806164D02*
X101608000Y-50021836D01*
%TO.C,C26*%
X110380164Y-42494000D02*
X110595836Y-42494000D01*
X110380164Y-43214000D02*
X110595836Y-43214000D01*
%TO.C,TP1*%
X96303000Y-70157000D02*
X96303000Y-72057000D01*
X96303000Y-72057000D02*
X98203000Y-72057000D01*
X98203000Y-70157000D02*
X96303000Y-70157000D01*
X98203000Y-72057000D02*
X98203000Y-70157000D01*
%TO.C,C39*%
X104958836Y-80950000D02*
X104743164Y-80950000D01*
X104958836Y-81670000D02*
X104743164Y-81670000D01*
%TO.C,R4*%
X114494359Y-63269000D02*
X114801641Y-63269000D01*
X114494359Y-64029000D02*
X114801641Y-64029000D01*
%TO.C,C37*%
X99344420Y-81619000D02*
X99625580Y-81619000D01*
X99344420Y-82639000D02*
X99625580Y-82639000D01*
%TO.C,C28*%
X113188000Y-49773420D02*
X113188000Y-50054580D01*
X114208000Y-49773420D02*
X114208000Y-50054580D01*
%TO.C,C23*%
X88723880Y-72791500D02*
X88442720Y-72791500D01*
X88723880Y-73811500D02*
X88442720Y-73811500D01*
%TO.C,R5*%
X112443359Y-63269000D02*
X112750641Y-63269000D01*
X112443359Y-64029000D02*
X112750641Y-64029000D01*
%TO.C,C40*%
X105561580Y-82080000D02*
X105280420Y-82080000D01*
X105561580Y-83100000D02*
X105280420Y-83100000D01*
%TO.C,C42*%
X102915164Y-80489000D02*
X103130836Y-80489000D01*
X102915164Y-81209000D02*
X103130836Y-81209000D01*
D15*
%TO.C,J1*%
X80078000Y-52339000D02*
X86428000Y-52339000D01*
X80078000Y-68729000D02*
X80078000Y-52339000D01*
X86428000Y-52339000D02*
X86428000Y-68729000D01*
X86428000Y-68729000D02*
X80078000Y-68729000D01*
D14*
%TO.C,C29*%
X112008000Y-47011836D02*
X112008000Y-46796164D01*
X112728000Y-47011836D02*
X112728000Y-46796164D01*
%TO.C,C6*%
X88723880Y-74341500D02*
X88442720Y-74341500D01*
X88723880Y-75361500D02*
X88442720Y-75361500D01*
%TO.C,C31*%
X100905836Y-48049000D02*
X100690164Y-48049000D01*
X100905836Y-48769000D02*
X100690164Y-48769000D01*
%TO.C,C47*%
X93118580Y-71241500D02*
X92837420Y-71241500D01*
X93118580Y-72261500D02*
X92837420Y-72261500D01*
%TO.C,C27*%
X112008000Y-49806164D02*
X112008000Y-50021836D01*
X112728000Y-49806164D02*
X112728000Y-50021836D01*
%TO.C,C41*%
X105561580Y-83630000D02*
X105280420Y-83630000D01*
X105561580Y-84650000D02*
X105280420Y-84650000D01*
%TO.C,C24*%
X99947164Y-80489000D02*
X100162836Y-80489000D01*
X99947164Y-81209000D02*
X100162836Y-81209000D01*
%TO.C,C51*%
X107575164Y-80887000D02*
X107790836Y-80887000D01*
X107575164Y-81607000D02*
X107790836Y-81607000D01*
%TO.C,C48*%
X93118580Y-74341500D02*
X92837420Y-74341500D01*
X93118580Y-75361500D02*
X92837420Y-75361500D01*
D12*
%TO.C,J2*%
X96753000Y-73784000D02*
X113153000Y-73784000D01*
X96753000Y-75334000D02*
X96753000Y-73784000D01*
X96753000Y-79134000D02*
X96753000Y-77934000D01*
X98603000Y-79134000D02*
X96753000Y-79134000D01*
X113153000Y-73784000D02*
X113153000Y-75334000D01*
X113153000Y-77934000D02*
X113153000Y-79134000D01*
X113153000Y-79134000D02*
X111403000Y-79134000D01*
D14*
%TO.C,C44*%
X102312420Y-83169000D02*
X102593580Y-83169000D01*
X102312420Y-84189000D02*
X102593580Y-84189000D01*
%TO.C,C45*%
X88723880Y-71241500D02*
X88442720Y-71241500D01*
X88723880Y-72261500D02*
X88442720Y-72261500D01*
%TO.C,C30*%
X100888000Y-47011836D02*
X100888000Y-46796164D01*
X101608000Y-47011836D02*
X101608000Y-46796164D01*
%TO.C,U3*%
X91893000Y-77721500D02*
X91893000Y-76921500D01*
X91893000Y-77721500D02*
X91893000Y-78521500D01*
X95013000Y-77721500D02*
X95013000Y-76921500D01*
X95013000Y-77721500D02*
X95013000Y-78521500D01*
%TO.C,JP1*%
X109923000Y-82272000D02*
X109923000Y-84272000D01*
X109923000Y-84272000D02*
X112723000Y-84272000D01*
X112723000Y-82272000D02*
X109923000Y-82272000D01*
X112723000Y-84272000D02*
X112723000Y-82272000D01*
D16*
%TO.C,SW2*%
X82689000Y-48421000D02*
X82689000Y-48864000D01*
X82689000Y-51026000D02*
X82689000Y-51469000D01*
X82689000Y-51469000D02*
X86753000Y-51469000D01*
X83514500Y-48929000D02*
X83514500Y-50961000D01*
X83514500Y-50961000D02*
X85927500Y-50961000D01*
X85927500Y-48929000D02*
X83514500Y-48929000D01*
X85927500Y-50961000D02*
X85927500Y-48929000D01*
X86753000Y-48421000D02*
X82689000Y-48421000D01*
X86753000Y-48864000D02*
X86753000Y-48421000D01*
X86753000Y-51469000D02*
X86753000Y-51026000D01*
X85340500Y-49943000D02*
G75*
G02*
X84090500Y-49943000I-625000J0D01*
G01*
X84090500Y-49943000D02*
G75*
G02*
X85340500Y-49943000I625000J0D01*
G01*
D14*
%TO.C,C33*%
X103937420Y-41014000D02*
X104218580Y-41014000D01*
X103937420Y-42034000D02*
X104218580Y-42034000D01*
%TO.C,U5*%
X87498000Y-77721500D02*
X87498000Y-76921500D01*
X87498000Y-77721500D02*
X87498000Y-78521500D01*
X90618000Y-77721500D02*
X90618000Y-76921500D01*
X90618000Y-77721500D02*
X90618000Y-78521500D01*
%TO.C,C50*%
X93312420Y-80081500D02*
X93593580Y-80081500D01*
X93312420Y-81101500D02*
X93593580Y-81101500D01*
%TO.C,C46*%
X93118580Y-72791500D02*
X92837420Y-72791500D01*
X93118580Y-73811500D02*
X92837420Y-73811500D01*
%TO.C,IC1*%
X102705988Y-44293000D02*
X102705988Y-52513000D01*
X102705988Y-52513000D02*
X110925988Y-52513000D01*
X110925988Y-44293000D02*
X102705988Y-44293000D01*
X110925988Y-44293000D02*
X110925988Y-52513000D01*
X110925988Y-52513000D02*
X110265988Y-52503000D01*
X110915988Y-51778000D01*
X110925988Y-52513000D01*
G36*
X110925988Y-52513000D02*
G01*
X110265988Y-52503000D01*
X110915988Y-51778000D01*
X110925988Y-52513000D01*
G37*
%TO.C,C38*%
X99344420Y-83169000D02*
X99625580Y-83169000D01*
X99344420Y-84189000D02*
X99625580Y-84189000D01*
%TO.C,C43*%
X102312420Y-81619000D02*
X102593580Y-81619000D01*
X102312420Y-82639000D02*
X102593580Y-82639000D01*
%TO.C,C49*%
X88917420Y-80081500D02*
X89198580Y-80081500D01*
X88917420Y-81101500D02*
X89198580Y-81101500D01*
%TO.C,C2*%
X87920000Y-49572836D02*
X87920000Y-49357164D01*
X88640000Y-49572836D02*
X88640000Y-49357164D01*
%TD*%
M02*
