%TF.GenerationSoftware,KiCad,Pcbnew,9.0.6*%
%TF.CreationDate,2026-03-02T09:31:00+01:00*%
%TF.ProjectId,cansat-camera-pcb,63616e73-6174-42d6-9361-6d6572612d70,1.1*%
%TF.SameCoordinates,Original*%
%TF.FileFunction,Soldermask,Bot*%
%TF.FilePolarity,Negative*%
%FSLAX46Y46*%
G04 Gerber Fmt 4.6, Leading zero omitted, Abs format (unit mm)*
G04 Created by KiCad (PCBNEW 9.0.6) date 2026-03-02 09:31:00*
%MOMM*%
%LPD*%
G01*
G04 APERTURE LIST*
G04 Aperture macros list*
%AMRoundRect*
0 Rectangle with rounded corners*
0 $1 Rounding radius*
0 $2 $3 $4 $5 $6 $7 $8 $9 X,Y pos of 4 corners*
0 Add a 4 corners polygon primitive as box body*
4,1,4,$2,$3,$4,$5,$6,$7,$8,$9,$2,$3,0*
0 Add four circle primitives for the rounded corners*
1,1,$1+$1,$2,$3*
1,1,$1+$1,$4,$5*
1,1,$1+$1,$6,$7*
1,1,$1+$1,$8,$9*
0 Add four rect primitives between the rounded corners*
20,1,$1+$1,$2,$3,$4,$5,0*
20,1,$1+$1,$4,$5,$6,$7,0*
20,1,$1+$1,$6,$7,$8,$9,0*
20,1,$1+$1,$8,$9,$2,$3,0*%
G04 Aperture macros list end*
%ADD10RoundRect,0.140000X-0.140000X-0.170000X0.140000X-0.170000X0.140000X0.170000X-0.140000X0.170000X0*%
%ADD11RoundRect,0.140000X-0.170000X0.140000X-0.170000X-0.140000X0.170000X-0.140000X0.170000X0.140000X0*%
%ADD12RoundRect,0.140000X0.170000X-0.140000X0.170000X0.140000X-0.170000X0.140000X-0.170000X-0.140000X0*%
%ADD13R,1.500000X1.500000*%
%ADD14RoundRect,0.135000X-0.135000X-0.185000X0.135000X-0.185000X0.135000X0.185000X-0.135000X0.185000X0*%
%ADD15RoundRect,0.100000X0.162635X-0.021213X-0.021213X0.162635X-0.162635X0.021213X0.021213X-0.162635X0*%
%ADD16RoundRect,0.100000X-0.100000X0.130000X-0.100000X-0.130000X0.100000X-0.130000X0.100000X0.130000X0*%
%ADD17RoundRect,0.225000X0.225000X0.250000X-0.225000X0.250000X-0.225000X-0.250000X0.225000X-0.250000X0*%
%ADD18RoundRect,0.225000X-0.250000X0.225000X-0.250000X-0.225000X0.250000X-0.225000X0.250000X0.225000X0*%
%ADD19RoundRect,0.225000X-0.225000X-0.250000X0.225000X-0.250000X0.225000X0.250000X-0.225000X0.250000X0*%
%ADD20RoundRect,0.140000X0.140000X0.170000X-0.140000X0.170000X-0.140000X-0.170000X0.140000X-0.170000X0*%
%ADD21R,2.200000X0.900000*%
%ADD22RoundRect,0.100000X0.100000X-0.130000X0.100000X0.130000X-0.100000X0.130000X-0.100000X-0.130000X0*%
%ADD23RoundRect,0.100000X-0.130000X-0.100000X0.130000X-0.100000X0.130000X0.100000X-0.130000X0.100000X0*%
%ADD24RoundRect,0.100000X0.130000X0.100000X-0.130000X0.100000X-0.130000X-0.100000X0.130000X-0.100000X0*%
%ADD25R,0.300000X1.300000*%
%ADD26R,2.000000X1.600000*%
%ADD27RoundRect,0.150000X-0.150000X0.512500X-0.150000X-0.512500X0.150000X-0.512500X0.150000X0.512500X0*%
%ADD28R,1.000000X1.500000*%
%ADD29R,1.300000X1.700000*%
%ADD30RoundRect,0.100000X0.021213X0.162635X-0.162635X-0.021213X-0.021213X-0.162635X0.162635X0.021213X0*%
%ADD31C,0.360000*%
%ADD32RoundRect,0.100000X-0.162635X0.021213X0.021213X-0.162635X0.162635X-0.021213X-0.021213X0.162635X0*%
%ADD33RoundRect,0.100000X-0.021213X-0.162635X0.162635X0.021213X0.021213X0.162635X-0.162635X-0.021213X0*%
G04 APERTURE END LIST*
%TO.C,JP1*%
G36*
X98718000Y-82034000D02*
G01*
X98418000Y-82034000D01*
X98418000Y-83534000D01*
X98718000Y-83534000D01*
X98718000Y-82034000D01*
G37*
%TO.C,JP2*%
G36*
X112428000Y-66339000D02*
G01*
X114028000Y-66339000D01*
X114028000Y-64839000D01*
X112428000Y-64839000D01*
X112428000Y-66339000D01*
G37*
%TD*%
D10*
%TO.C,C25*%
X103598000Y-42854000D03*
X104558000Y-42854000D03*
%TD*%
D11*
%TO.C,C32*%
X101248000Y-49434000D03*
X101248000Y-50394000D03*
%TD*%
D12*
%TO.C,C26*%
X112353000Y-44569000D03*
X112353000Y-43609000D03*
%TD*%
D13*
%TO.C,TP1*%
X115828000Y-71224000D03*
%TD*%
D10*
%TO.C,C39*%
X104593000Y-80904000D03*
X105553000Y-80904000D03*
%TD*%
D14*
%TO.C,R4*%
X114138000Y-63649000D03*
X115158000Y-63649000D03*
%TD*%
D15*
%TO.C,R26*%
X108254274Y-56840274D03*
X107801726Y-56387726D03*
%TD*%
D16*
%TO.C,R30*%
X108403001Y-42374000D03*
X108402999Y-43014000D03*
%TD*%
D17*
%TO.C,C37*%
X111523000Y-82194000D03*
X109973000Y-82194000D03*
%TD*%
D18*
%TO.C,C28*%
X113698000Y-49139000D03*
X113698000Y-50689000D03*
%TD*%
D17*
%TO.C,C23*%
X93678300Y-75426500D03*
X92128300Y-75426500D03*
%TD*%
D14*
%TO.C,R5*%
X112087000Y-63649000D03*
X113107000Y-63649000D03*
%TD*%
D19*
%TO.C,C40*%
X103733000Y-82204000D03*
X105283000Y-82204000D03*
%TD*%
D15*
%TO.C,R37*%
X112928000Y-52864000D03*
X112475452Y-52411452D03*
%TD*%
D20*
%TO.C,C42*%
X107548000Y-80904000D03*
X106588000Y-80904000D03*
%TD*%
D21*
%TO.C,J1*%
X88728000Y-67539000D03*
X88728000Y-65539000D03*
X88728000Y-63539000D03*
X88728000Y-61539000D03*
X88728000Y-59539000D03*
X88728000Y-57539000D03*
X88728000Y-55539000D03*
X88728000Y-53539000D03*
%TD*%
D12*
%TO.C,C29*%
X112368000Y-47384000D03*
X112368000Y-46424000D03*
%TD*%
D17*
%TO.C,C6*%
X93678300Y-76976500D03*
X92128300Y-76976500D03*
%TD*%
D20*
%TO.C,C31*%
X101278000Y-48409000D03*
X100318000Y-48409000D03*
%TD*%
D17*
%TO.C,C47*%
X117203000Y-74054000D03*
X115653000Y-74054000D03*
%TD*%
D11*
%TO.C,C27*%
X112368000Y-49434000D03*
X112368000Y-50394000D03*
%TD*%
D22*
%TO.C,R27*%
X109553000Y-57784000D03*
X109553000Y-57144000D03*
%TD*%
D19*
%TO.C,C41*%
X103733000Y-83774000D03*
X105283000Y-83774000D03*
%TD*%
D20*
%TO.C,C24*%
X110658000Y-80894000D03*
X109698000Y-80894000D03*
%TD*%
D23*
%TO.C,R41*%
X114813000Y-48189000D03*
X115453000Y-48189000D03*
%TD*%
D24*
%TO.C,R38*%
X116228000Y-51089000D03*
X115588000Y-51089000D03*
%TD*%
D20*
%TO.C,C51*%
X102088000Y-82034000D03*
X101128000Y-82034000D03*
%TD*%
D17*
%TO.C,C48*%
X117218000Y-77114000D03*
X115668000Y-77114000D03*
%TD*%
D22*
%TO.C,R19*%
X95003000Y-43259000D03*
X95003000Y-42619000D03*
%TD*%
D15*
%TO.C,R39*%
X113085322Y-51996322D03*
X112632774Y-51543774D03*
%TD*%
D25*
%TO.C,J2*%
X110703000Y-79384000D03*
X110203000Y-79384000D03*
X109703000Y-79384000D03*
X109203000Y-79384000D03*
X108703000Y-79384000D03*
X108203000Y-79384000D03*
X107703000Y-79384000D03*
X107203000Y-79384000D03*
X106703000Y-79384000D03*
X106203000Y-79384000D03*
X105703000Y-79384000D03*
X105203000Y-79384000D03*
X104703000Y-79384000D03*
X104203000Y-79384000D03*
X103703000Y-79384000D03*
X103203000Y-79384000D03*
X102703000Y-79384000D03*
X102203000Y-79384000D03*
X101703000Y-79384000D03*
X101203000Y-79384000D03*
X100703000Y-79384000D03*
X100203000Y-79384000D03*
X99703000Y-79384000D03*
X99203000Y-79384000D03*
D26*
X97503000Y-76704000D03*
X112403000Y-76704000D03*
%TD*%
D17*
%TO.C,C44*%
X108403000Y-83784000D03*
X106853000Y-83784000D03*
%TD*%
D24*
%TO.C,R36*%
X115473000Y-49939000D03*
X114833000Y-49939000D03*
%TD*%
D22*
%TO.C,R25*%
X105578000Y-54684000D03*
X105578000Y-54044000D03*
%TD*%
D15*
%TO.C,R28*%
X111754274Y-57940274D03*
X111301726Y-57487726D03*
%TD*%
%TO.C,R29*%
X111129274Y-56540274D03*
X110676726Y-56087726D03*
%TD*%
D17*
%TO.C,C45*%
X93678300Y-73876500D03*
X92128300Y-73876500D03*
%TD*%
D12*
%TO.C,C30*%
X101248000Y-47384000D03*
X101248000Y-46424000D03*
%TD*%
D27*
%TO.C,U3*%
X115968000Y-78846500D03*
X116918000Y-78846500D03*
X117868000Y-78846500D03*
X117868000Y-81121500D03*
X115968000Y-81121500D03*
%TD*%
D22*
%TO.C,R17*%
X98928000Y-72134000D03*
X98928000Y-71494000D03*
%TD*%
D28*
%TO.C,JP1*%
X99218000Y-82784000D03*
X97918000Y-82784000D03*
%TD*%
D29*
%TO.C,SW2*%
X82562000Y-49945000D03*
X86880000Y-49945000D03*
%TD*%
D15*
%TO.C,R34*%
X114154274Y-46090274D03*
X113701726Y-45637726D03*
%TD*%
D19*
%TO.C,C33*%
X103303000Y-41524000D03*
X104853000Y-41524000D03*
%TD*%
D27*
%TO.C,U5*%
X92428000Y-78709000D03*
X93378000Y-78709000D03*
X94328000Y-78709000D03*
X94328000Y-80984000D03*
X92428000Y-80984000D03*
%TD*%
D22*
%TO.C,R31*%
X106353000Y-55109000D03*
X106353000Y-54469000D03*
%TD*%
%TO.C,R32*%
X113028000Y-60209000D03*
X113028000Y-59569000D03*
%TD*%
D19*
%TO.C,C50*%
X116143000Y-82854000D03*
X117693000Y-82854000D03*
%TD*%
D30*
%TO.C,R35*%
X109954274Y-42437726D03*
X109501726Y-42890274D03*
%TD*%
D28*
%TO.C,JP2*%
X111928000Y-65589000D03*
X113228000Y-65589000D03*
X114528000Y-65589000D03*
%TD*%
D17*
%TO.C,C46*%
X117218000Y-75564000D03*
X115668000Y-75564000D03*
%TD*%
D31*
%TO.C,IC1*%
X110015988Y-51603000D03*
X110015988Y-50803000D03*
X110015988Y-50003000D03*
X110015988Y-46803000D03*
X110015988Y-46003000D03*
X110015988Y-45203000D03*
X109215988Y-51603000D03*
X109215988Y-50803000D03*
X109215988Y-50003000D03*
X109215988Y-46803000D03*
X109215988Y-46003000D03*
X109215988Y-45203000D03*
X108415988Y-51603000D03*
X108415988Y-50803000D03*
X108415988Y-50003000D03*
X108415988Y-46803000D03*
X108415988Y-46003000D03*
X108415988Y-45203000D03*
X107615988Y-51603000D03*
X107615988Y-50803000D03*
X107615988Y-50003000D03*
X107615988Y-46803000D03*
X107615988Y-46003000D03*
X107615988Y-45203000D03*
X106815988Y-51603000D03*
X106815988Y-50803000D03*
X106815988Y-50003000D03*
X106815988Y-46803000D03*
X106815988Y-46003000D03*
X106815988Y-45203000D03*
X106015988Y-51603000D03*
X106015988Y-50803000D03*
X106015988Y-50003000D03*
X106015988Y-46803000D03*
X106015988Y-46003000D03*
X106015988Y-45203000D03*
X105215988Y-51603000D03*
X105215988Y-50803000D03*
X105215988Y-50003000D03*
X105215988Y-46803000D03*
X105215988Y-46003000D03*
X105215988Y-45203000D03*
X104415988Y-51603000D03*
X104415988Y-50803000D03*
X104415988Y-50003000D03*
X104415988Y-46803000D03*
X104415988Y-46003000D03*
X104415988Y-45203000D03*
X103615988Y-51603000D03*
X103615988Y-50803000D03*
X103615988Y-50003000D03*
X103615988Y-46803000D03*
X103615988Y-46003000D03*
X103615988Y-45203000D03*
%TD*%
D17*
%TO.C,C38*%
X111523000Y-83784000D03*
X109973000Y-83784000D03*
%TD*%
D32*
%TO.C,R40*%
X110101726Y-54012726D03*
X110554274Y-54465274D03*
%TD*%
D33*
%TO.C,R22*%
X111226726Y-71840274D03*
X111679274Y-71387726D03*
%TD*%
D17*
%TO.C,C43*%
X108408000Y-82204000D03*
X106858000Y-82204000D03*
%TD*%
D15*
%TO.C,R33*%
X111754274Y-54515274D03*
X111301726Y-54062726D03*
%TD*%
D19*
%TO.C,C49*%
X92603000Y-82716500D03*
X94153000Y-82716500D03*
%TD*%
D12*
%TO.C,C2*%
X88280000Y-49945000D03*
X88280000Y-48985000D03*
%TD*%
M02*
