M48
; DRILL file {KiCad 9.0.4} date 2025-10-08T12:20:37+0200
; FORMAT={-:-/ absolute / inch / decimal}
; #@! TF.CreationDate,2025-10-08T12:20:37+02:00
; #@! TF.GenerationSoftware,Kicad,Pcbnew,9.0.4
; #@! TF.FileFunction,Plated,1,8,PTH
FMAT,2
INCH
; #@! TA.AperFunction,Plated,PTH,ViaDrill
T1C0.0118
; #@! TA.AperFunction,Plated,PTH,ViaDrill
T2C0.0157
; #@! TA.AperFunction,Plated,PTH,ViaDrill
T3C0.0197
%
G90
G05
T1
X1.9768Y-4.5441
X2.0197Y-5.5421
X2.0406Y-4.4138
X2.1248Y-5.6417
X2.1469Y-4.2921
X2.1736Y-4.5717
X2.1774Y-5.5421
X2.2291Y-5.7563
X2.2638Y-4.1839
X2.268Y-5.0244
X2.274Y-4.4799
X2.2837Y-4.7488
X2.335Y-5.5421
X2.335Y-5.7047
X2.335Y-5.8673
X2.365Y-4.5709
X2.365Y-4.673
X2.365Y-4.7752
X2.3651Y-4.3303
X2.3892Y-5.5653
X2.401Y-5.6279
X2.4067Y-4.098
X2.411Y-4.5016
X2.4158Y-4.4138
X2.4158Y-4.4516
X2.4158Y-4.9
X2.4158Y-4.9378
X2.4214Y-5.923
X2.4224Y-4.6399
X2.4322Y-5.0944
X2.4322Y-5.1346
X2.4322Y-5.1945
X2.4322Y-5.2347
X2.4384Y-5.6279
X2.4502Y-5.5653
X2.4539Y-5.3516
X2.4539Y-5.4524
X2.4602Y-5.789
X2.4726Y-5.923
X2.4749Y-4.1463
X2.4758Y-5.6279
X2.476Y-5.0677
X2.5127Y-4.1463
X2.5148Y-5.8137
X2.5209Y-4.6587
X2.526Y-4.3264
X2.526Y-4.4039
X2.5295Y-4.4591
X2.5558Y-4.5477
X2.5558Y-4.5764
X2.5558Y-4.6788
X2.5558Y-4.7063
X2.5558Y-4.7339
X2.5558Y-4.7615
X2.5567Y-4.3484
X2.5582Y-4.4799
X2.5665Y-4.2449
X2.5665Y-4.4063
X2.6171Y-5.7959
X2.6205Y-4.5756
X2.623Y-4.2161
X2.6236Y-4.424
X2.6236Y-4.6776
X2.6236Y-4.7154
X2.6248Y-4.5179
X2.6248Y-5.4535
X2.6252Y-5.5969
X2.6375Y-4.0831
X2.6555Y-5.1154
X2.6663Y-4.2161
X2.6682Y-4.9146
X2.6713Y-4.6933
X2.6713Y-4.7311
X2.6717Y-4.5827
X2.6717Y-4.6197
X2.6965Y-4.3752
X2.702Y-4.0803
X2.7037Y-5.7133
X2.7037Y-5.9443
X2.7056Y-5.0441
X2.7096Y-4.2043
X2.7146Y-5.3519
X2.7286Y-4.7182
X2.7305Y-5.0761
X2.7306Y-5.1078
X2.7313Y-5.7133
X2.7346Y-4.2161
X2.7359Y-4.0937
X2.7589Y-5.7133
X2.759Y-5.3065
X2.7607Y-4.2043
X2.7737Y-4.0937
X2.7795Y-4.8976
X2.7795Y-4.9291
X2.7795Y-5.126
X2.7795Y-5.1575
X2.7797Y-4.2602
X2.7864Y-5.7133
X2.798Y-4.6654
X2.7981Y-4.476
X2.8034Y-4.2005
X2.8083Y-4.2602
X2.811Y-4.8976
X2.811Y-4.9291
X2.811Y-5.0945
X2.811Y-5.126
X2.811Y-5.1575
X2.8131Y-4.6114
X2.814Y-5.7133
X2.8186Y-5.3474
X2.8226Y-5.9504
X2.8296Y-4.476
X2.8296Y-4.5075
X2.8296Y-4.6335
X2.8296Y-4.665
X2.8355Y-5.2258
X2.8381Y-5.3832
X2.8415Y-5.7133
X2.8425Y-4.8976
X2.8425Y-4.9291
X2.8457Y-4.0976
X2.8528Y-4.2602
X2.8604Y-5.9504
X2.8611Y-4.476
X2.8611Y-4.6335
X2.8611Y-4.665
X2.8611Y-4.6965
X2.8631Y-5.2258
X2.8691Y-5.7133
X2.874Y-4.8976
X2.874Y-4.9291
X2.8795Y-4.8232
X2.8827Y-4.341
X2.8828Y-4.2602
X2.8863Y-4.4058
X2.8906Y-5.2258
X2.8926Y-4.5075
X2.8926Y-4.6335
X2.8926Y-4.665
X2.8926Y-4.6965
X2.8967Y-5.7133
X2.9037Y-5.8302
X2.9039Y-5.4587
X2.9055Y-4.8976
X2.9055Y-4.9291
X2.9134Y-5.0551
X2.9213Y-5.0945
X2.9213Y-5.126
X2.9213Y-5.1575
X2.9241Y-4.476
X2.9241Y-4.5433
X2.9241Y-4.6335
X2.9241Y-4.665
X2.9295Y-5.9504
X2.9328Y-4.0937
X2.937Y-4.8976
X2.937Y-4.9291
X2.948Y-4.3197
X2.9518Y-5.7133
X2.9524Y-5.0473
X2.9528Y-5.0945
X2.9528Y-5.126
X2.9528Y-5.1575
X2.9555Y-4.4756
X2.9556Y-4.4445
X2.9556Y-4.5075
X2.9556Y-4.665
X2.9556Y-4.6965
X2.9571Y-5.8531
X2.9685Y-4.8976
X2.9685Y-4.9291
X2.9706Y-4.0937
X2.972Y-4.6118
X2.9793Y-5.7133
X2.9849Y-5.2047
X2.9871Y-4.4445
X2.9871Y-4.476
X2.9871Y-4.665
X2.9871Y-4.6965
X2.9993Y-5.9504
X3.0004Y-4.6126
X3.0012Y-4.8327
X3.0055Y-4.2295
X3.0069Y-5.7133
X3.0091Y-4.3575
X3.0118Y-5.0945
X3.0118Y-5.126
X3.0118Y-5.1575
X3.0181Y-4.7492
X3.0186Y-4.476
X3.0186Y-4.5075
X3.0186Y-4.6335
X3.0189Y-4.415
X3.0344Y-5.7133
X3.0354Y-5.0551
X3.0394Y-4.8976
X3.0394Y-4.9291
X3.0398Y-4.4441
X3.0408Y-5.9504
X3.0415Y-4.6729
X3.0474Y-4.3841
X3.0547Y-4.7693
X3.062Y-5.7133
X3.0809Y-5.9504
X3.0857Y-5.8416
X3.0858Y-4.3575
X3.0896Y-5.7133
X3.1111Y-5.1382
X3.1126Y-4.5114
X3.1126Y-4.5492
X3.1171Y-5.7133
X3.1177Y-5.9493
X3.1387Y-4.0991
X3.139Y-4.8598
X3.1411Y-5.0508
X3.161Y-4.7811
X3.178Y-4.1948
X3.1813Y-5.0508
X3.1831Y-5.4606
X3.1831Y-5.5969
X3.1835Y-4.5248
X3.1887Y-4.0937
X3.1969Y-4.6507
X3.1981Y-5.7327
X3.2008Y-4.8232
X3.2012Y-4.2449
X3.215Y-4.5248
X3.2194Y-4.9453
X3.2252Y-5.1252
X3.2265Y-4.0937
X3.2646Y-4.3638
X3.2646Y-4.4033
X3.2646Y-4.4333
X3.273Y-4.8363
X3.273Y-4.8756
X3.2731Y-4.9932
X3.2731Y-5.031
X3.2835Y-5.7977
X3.3059Y-5.8553
X3.3059Y-5.8931
X3.3286Y-5.5653
X3.3405Y-5.6278
X3.3518Y-4.8561
X3.3676Y-4.4361
X3.3694Y-4.591
X3.3694Y-4.6288
X3.3779Y-5.6278
X3.3826Y-4.8166
X3.3896Y-5.5653
X3.3933Y-4.1061
X3.3991Y-4.2606
X3.3997Y-5.7891
X3.4087Y-4.3154
X3.4087Y-4.3532
X3.4153Y-5.6278
X3.4155Y-4.8931
X3.4165Y-4.9302
X3.4167Y-4.9851
X3.4189Y-5.4567
X3.4377Y-4.2594
X3.4401Y-4.7427
X3.4415Y-5.0544
X3.4436Y-4.8166
X3.4472Y-4.6439
X3.4513Y-4.5784
X3.4891Y-4.3658
X3.5043Y-5.547
X3.5043Y-5.7047
X3.5043Y-5.8624
X3.5148Y-4.2216
X3.5193Y-4.8203
X3.5236Y-4.1699
X3.5286Y-5.3412
X3.6039Y-5.7573
X3.6045Y-4.572
X3.6234Y-4.5181
X3.6453Y-4.2762
X3.6669Y-5.547
X3.7185Y-5.653
X3.7535Y-4.3931
X3.8295Y-5.547
X3.8394Y-4.536
T2
X2.3618Y-4.9944
X2.3618Y-5.3947
X2.366Y-4.9409
X3.4172Y-5.23
X3.4594Y-5.3046
X3.4594Y-5.3656
X3.4783Y-5.23
X3.7045Y-5.3178
X3.7045Y-5.3788
T3
X2.0333Y-4.6701
X2.0333Y-4.7488
X2.0333Y-5.3
X2.0333Y-5.3787
X2.1974Y-4.9063
X2.1974Y-4.985
X2.1974Y-5.1425
X2.1974Y-5.3
X2.1974Y-5.3787
X3.6234Y-4.3481
X3.6234Y-5.0638
X3.6234Y-5.1425
X3.6234Y-5.2213
X3.7876Y-5.0638
X3.7876Y-5.1425
X3.7876Y-5.2213
M30
