%TF.GenerationSoftware,KiCad,Pcbnew,9.0.4*%
%TF.CreationDate,2025-10-08T12:20:32+02:00*%
%TF.ProjectId,cansat-camera-pcb,63616e73-6174-42d6-9361-6d6572612d70,1.0*%
%TF.SameCoordinates,Original*%
%TF.FileFunction,Copper,L8,Bot*%
%TF.FilePolarity,Positive*%
%FSLAX46Y46*%
G04 Gerber Fmt 4.6, Leading zero omitted, Abs format (unit mm)*
G04 Created by KiCad (PCBNEW 9.0.4) date 2025-10-08 12:20:32*
%MOMM*%
%LPD*%
G01*
G04 APERTURE LIST*
G04 Aperture macros list*
%AMRoundRect*
0 Rectangle with rounded corners*
0 $1 Rounding radius*
0 $2 $3 $4 $5 $6 $7 $8 $9 X,Y pos of 4 corners*
0 Add a 4 corners polygon primitive as box body*
4,1,4,$2,$3,$4,$5,$6,$7,$8,$9,$2,$3,0*
0 Add four circle primitives for the rounded corners*
1,1,$1+$1,$2,$3*
1,1,$1+$1,$4,$5*
1,1,$1+$1,$6,$7*
1,1,$1+$1,$8,$9*
0 Add four rect primitives between the rounded corners*
20,1,$1+$1,$2,$3,$4,$5,0*
20,1,$1+$1,$4,$5,$6,$7,0*
20,1,$1+$1,$6,$7,$8,$9,0*
20,1,$1+$1,$8,$9,$2,$3,0*%
G04 Aperture macros list end*
%TA.AperFunction,SMDPad,CuDef*%
%ADD10RoundRect,0.150000X-0.512500X-0.150000X0.512500X-0.150000X0.512500X0.150000X-0.512500X0.150000X0*%
%TD*%
%TA.AperFunction,BGAPad,CuDef*%
%ADD11C,0.360000*%
%TD*%
%TA.AperFunction,SMDPad,CuDef*%
%ADD12R,1.000000X1.500000*%
%TD*%
%TA.AperFunction,SMDPad,CuDef*%
%ADD13RoundRect,0.073750X-0.221250X0.531250X-0.221250X-0.531250X0.221250X-0.531250X0.221250X0.531250X0*%
%TD*%
%TA.AperFunction,SMDPad,CuDef*%
%ADD14RoundRect,0.225000X0.250000X-0.225000X0.250000X0.225000X-0.250000X0.225000X-0.250000X-0.225000X0*%
%TD*%
%TA.AperFunction,SMDPad,CuDef*%
%ADD15RoundRect,0.225000X-0.225000X-0.250000X0.225000X-0.250000X0.225000X0.250000X-0.225000X0.250000X0*%
%TD*%
%TA.AperFunction,SMDPad,CuDef*%
%ADD16R,2.000000X2.000000*%
%TD*%
%TA.AperFunction,SMDPad,CuDef*%
%ADD17RoundRect,0.140000X0.170000X-0.140000X0.170000X0.140000X-0.170000X0.140000X-0.170000X-0.140000X0*%
%TD*%
%TA.AperFunction,SMDPad,CuDef*%
%ADD18RoundRect,0.225000X0.225000X0.250000X-0.225000X0.250000X-0.225000X-0.250000X0.225000X-0.250000X0*%
%TD*%
%TA.AperFunction,SMDPad,CuDef*%
%ADD19RoundRect,0.140000X-0.170000X0.140000X-0.170000X-0.140000X0.170000X-0.140000X0.170000X0.140000X0*%
%TD*%
%TA.AperFunction,SMDPad,CuDef*%
%ADD20RoundRect,0.140000X-0.140000X-0.170000X0.140000X-0.170000X0.140000X0.170000X-0.140000X0.170000X0*%
%TD*%
%TA.AperFunction,SMDPad,CuDef*%
%ADD21RoundRect,0.225000X-0.250000X0.225000X-0.250000X-0.225000X0.250000X-0.225000X0.250000X0.225000X0*%
%TD*%
%TA.AperFunction,SMDPad,CuDef*%
%ADD22RoundRect,0.147059X-0.852941X-0.352941X0.852941X-0.352941X0.852941X0.352941X-0.852941X0.352941X0*%
%TD*%
%TA.AperFunction,SMDPad,CuDef*%
%ADD23RoundRect,0.135000X0.185000X-0.135000X0.185000X0.135000X-0.185000X0.135000X-0.185000X-0.135000X0*%
%TD*%
%TA.AperFunction,SMDPad,CuDef*%
%ADD24RoundRect,0.135000X-0.185000X0.135000X-0.185000X-0.135000X0.185000X-0.135000X0.185000X0.135000X0*%
%TD*%
%TA.AperFunction,SMDPad,CuDef*%
%ADD25R,0.300000X1.300000*%
%TD*%
%TA.AperFunction,SMDPad,CuDef*%
%ADD26R,2.000000X1.600000*%
%TD*%
%TA.AperFunction,SMDPad,CuDef*%
%ADD27R,8.000000X8.000000*%
%TD*%
%TA.AperFunction,ViaPad*%
%ADD28C,0.600000*%
%TD*%
%TA.AperFunction,ViaPad*%
%ADD29C,0.500000*%
%TD*%
%TA.AperFunction,ViaPad*%
%ADD30C,1.000000*%
%TD*%
%TA.AperFunction,ViaPad*%
%ADD31C,0.800000*%
%TD*%
%TA.AperFunction,Conductor*%
%ADD32C,0.500000*%
%TD*%
%TA.AperFunction,Conductor*%
%ADD33C,0.200000*%
%TD*%
%TA.AperFunction,Conductor*%
%ADD34C,0.300000*%
%TD*%
%TA.AperFunction,Conductor*%
%ADD35C,0.400000*%
%TD*%
%TA.AperFunction,Conductor*%
%ADD36C,0.600000*%
%TD*%
G04 APERTURE END LIST*
D10*
%TO.P,U1,1,VIN*%
%TO.N,VCC*%
X89838500Y-136617000D03*
%TO.P,U1,2,GND*%
%TO.N,GND*%
X89838500Y-135667000D03*
%TO.P,U1,3,EN*%
%TO.N,VCC*%
X89838500Y-134717000D03*
%TO.P,U1,4,NC*%
%TO.N,unconnected-(U1-NC-Pad4)*%
X92113500Y-134717000D03*
%TO.P,U1,5,VOUT*%
%TO.N,+3.3VA*%
X92113500Y-136617000D03*
%TD*%
D11*
%TO.P,IC1,A1,VSS_1*%
%TO.N,GND*%
X70272012Y-112891000D03*
%TO.P,IC1,A2,DQ15*%
%TO.N,/FMC_D15*%
X70272012Y-113691000D03*
%TO.P,IC1,A3,VSSQ_1*%
%TO.N,GND*%
X70272012Y-114491000D03*
%TO.P,IC1,A7,VDDQ_1*%
%TO.N,+3.3VA*%
X70272012Y-117691000D03*
%TO.P,IC1,A8,DQ0*%
%TO.N,/FMC_D0*%
X70272012Y-118491000D03*
%TO.P,IC1,A9,VDD_1*%
%TO.N,+3.3VA*%
X70272012Y-119291000D03*
%TO.P,IC1,B1,DQ14*%
%TO.N,/FMC_D14*%
X71072012Y-112891000D03*
%TO.P,IC1,B2,DQ13*%
%TO.N,/FMC_D13*%
X71072012Y-113691000D03*
%TO.P,IC1,B3,VDDQ_2*%
%TO.N,+3.3VA*%
X71072012Y-114491000D03*
%TO.P,IC1,B7,VSSQ_2*%
%TO.N,GND*%
X71072012Y-117691000D03*
%TO.P,IC1,B8,DQ2*%
%TO.N,/FMC_D2*%
X71072012Y-118491000D03*
%TO.P,IC1,B9,DQ1*%
%TO.N,/FMC_D1*%
X71072012Y-119291000D03*
%TO.P,IC1,C1,DQ12*%
%TO.N,/FMC_D12*%
X71872012Y-112891000D03*
%TO.P,IC1,C2,DQ11*%
%TO.N,/FMC_D11*%
X71872012Y-113691000D03*
%TO.P,IC1,C3,VSSQ_3*%
%TO.N,GND*%
X71872012Y-114491000D03*
%TO.P,IC1,C7,VDDQ_3*%
%TO.N,+3.3VA*%
X71872012Y-117691000D03*
%TO.P,IC1,C8,DQ4*%
%TO.N,/FMC_D4*%
X71872012Y-118491000D03*
%TO.P,IC1,C9,DQ3*%
%TO.N,/FMC_D3*%
X71872012Y-119291000D03*
%TO.P,IC1,D1,DQ10*%
%TO.N,/FMC_D10*%
X72672012Y-112891000D03*
%TO.P,IC1,D2,DQ9*%
%TO.N,/FMC_D9*%
X72672012Y-113691000D03*
%TO.P,IC1,D3,VDDQ_4*%
%TO.N,+3.3VA*%
X72672012Y-114491000D03*
%TO.P,IC1,D7,VSSQ_4*%
%TO.N,GND*%
X72672012Y-117691000D03*
%TO.P,IC1,D8,DQ6*%
%TO.N,/FMC_D6*%
X72672012Y-118491000D03*
%TO.P,IC1,D9,DQ5*%
%TO.N,/FMC_D5*%
X72672012Y-119291000D03*
%TO.P,IC1,E1,DQ8*%
%TO.N,/FMC_D8*%
X73472012Y-112891000D03*
%TO.P,IC1,E2,NC*%
%TO.N,unconnected-(IC1-NC-PadE2)*%
X73472012Y-113691000D03*
%TO.P,IC1,E3,VSS_2*%
%TO.N,GND*%
X73472012Y-114491000D03*
%TO.P,IC1,E7,VDD_2*%
%TO.N,+3.3VA*%
X73472012Y-117691000D03*
%TO.P,IC1,E8,LDQM*%
%TO.N,/FMC_NBL0*%
X73472012Y-118491000D03*
%TO.P,IC1,E9,DQ7*%
%TO.N,/FMC_D7*%
X73472012Y-119291000D03*
%TO.P,IC1,F1,UDQM*%
%TO.N,/FMC_NBL1*%
X74272012Y-112891000D03*
%TO.P,IC1,F2,CLK*%
%TO.N,/FMC_SDCLK*%
X74272012Y-113691000D03*
%TO.P,IC1,F3,CKE*%
%TO.N,/FMC_SDCKE0*%
X74272012Y-114491000D03*
%TO.P,IC1,F7,~{CAS}*%
%TO.N,/FMC_SDNCAS*%
X74272012Y-117691000D03*
%TO.P,IC1,F8,~{RAS}*%
%TO.N,/FMC_SDNRAS*%
X74272012Y-118491000D03*
%TO.P,IC1,F9,~{WE}*%
%TO.N,/FMC_SDNWE*%
X74272012Y-119291000D03*
%TO.P,IC1,G1,A12*%
%TO.N,/FMC_A12*%
X75072012Y-112891000D03*
%TO.P,IC1,G2,A11*%
%TO.N,/FMC_A11*%
X75072012Y-113691000D03*
%TO.P,IC1,G3,A9*%
%TO.N,/FMC_A9*%
X75072012Y-114491000D03*
%TO.P,IC1,G7,BS0*%
%TO.N,/FMC_BS0*%
X75072012Y-117691000D03*
%TO.P,IC1,G8,BS1*%
%TO.N,/FMC_BS1*%
X75072012Y-118491000D03*
%TO.P,IC1,G9,~{CS}*%
%TO.N,/FMC_SDNE0*%
X75072012Y-119291000D03*
%TO.P,IC1,H1,A8*%
%TO.N,/FMC_A8*%
X75872012Y-112891000D03*
%TO.P,IC1,H2,A7*%
%TO.N,/FMC_A7*%
X75872012Y-113691000D03*
%TO.P,IC1,H3,A6*%
%TO.N,/FMC_A6*%
X75872012Y-114491000D03*
%TO.P,IC1,H7,A0*%
%TO.N,/FMC_A0*%
X75872012Y-117691000D03*
%TO.P,IC1,H8,A1*%
%TO.N,/FMC_A1*%
X75872012Y-118491000D03*
%TO.P,IC1,H9,A10*%
%TO.N,/FMC_A10*%
X75872012Y-119291000D03*
%TO.P,IC1,J1,VSS_3*%
%TO.N,GND*%
X76672012Y-112891000D03*
%TO.P,IC1,J2,A5*%
%TO.N,/FMC_A5*%
X76672012Y-113691000D03*
%TO.P,IC1,J3,A4*%
%TO.N,/FMC_A4*%
X76672012Y-114491000D03*
%TO.P,IC1,J7,A3*%
%TO.N,/FMC_A3*%
X76672012Y-117691000D03*
%TO.P,IC1,J8,A2*%
%TO.N,/FMC_A2*%
X76672012Y-118491000D03*
%TO.P,IC1,J9,VDD_3*%
%TO.N,+3.3VA*%
X76672012Y-119291000D03*
%TD*%
D12*
%TO.P,JP1,1,A*%
%TO.N,/camera/DATA1*%
X62804500Y-150443000D03*
%TO.P,JP1,2,B*%
%TO.N,+3.3VA*%
X61504500Y-150443000D03*
%TD*%
D13*
%TO.P,U6,1,IN*%
%TO.N,+3.3VA*%
X84848000Y-142945000D03*
%TO.P,U6,2,GND*%
%TO.N,GND*%
X85798000Y-142945000D03*
%TO.P,U6,3,EN*%
%TO.N,+3.3VA*%
X86748000Y-142945000D03*
%TO.P,U6,4,NC*%
%TO.N,unconnected-(U6-NC-Pad4)*%
X86748000Y-145455000D03*
%TO.P,U6,5,OUT*%
%TO.N,/camera/2.8V_camera*%
X84848000Y-145455000D03*
%TD*%
D14*
%TO.P,C28,1*%
%TO.N,+3.3VA*%
X80290000Y-119735000D03*
%TO.P,C28,2*%
%TO.N,GND*%
X80290000Y-118185000D03*
%TD*%
D15*
%TO.P,C38,1*%
%TO.N,/camera/2.8V_camera*%
X84803000Y-147042000D03*
%TO.P,C38,2*%
%TO.N,GND*%
X86353000Y-147042000D03*
%TD*%
%TO.P,C44,1*%
%TO.N,/camera/1.5V_camera*%
X60939500Y-147041500D03*
%TO.P,C44,2*%
%TO.N,GND*%
X62489500Y-147041500D03*
%TD*%
D16*
%TO.P,TP1,1,1*%
%TO.N,/camera/STROBE*%
X86066000Y-150200000D03*
%TD*%
D17*
%TO.P,C32,1*%
%TO.N,+3.3VA*%
X79060000Y-115550000D03*
%TO.P,C32,2*%
%TO.N,GND*%
X79060000Y-114590000D03*
%TD*%
D13*
%TO.P,IC2,1,IN*%
%TO.N,+3.3VA*%
X60984500Y-142947500D03*
%TO.P,IC2,2,GND*%
%TO.N,GND*%
X61934500Y-142947500D03*
%TO.P,IC2,3,EN*%
%TO.N,+3.3VA*%
X62884500Y-142947500D03*
%TO.P,IC2,4,NC*%
%TO.N,unconnected-(IC2-NC-Pad4)*%
X62884500Y-145457500D03*
%TO.P,IC2,5,OUT*%
%TO.N,/camera/1.5V_camera*%
X60984500Y-145457500D03*
%TD*%
D18*
%TO.P,C6,1*%
%TO.N,GND*%
X62234500Y-141359500D03*
%TO.P,C6,2*%
%TO.N,+3.3VA*%
X60684500Y-141359500D03*
%TD*%
D19*
%TO.P,C31,1*%
%TO.N,+3.3VA*%
X66640000Y-118810000D03*
%TO.P,C31,2*%
%TO.N,GND*%
X66640000Y-119770000D03*
%TD*%
D20*
%TO.P,C26,1*%
%TO.N,+3.3VA*%
X73910000Y-110500000D03*
%TO.P,C26,2*%
%TO.N,GND*%
X74870000Y-110500000D03*
%TD*%
D17*
%TO.P,C42,1*%
%TO.N,/camera/1.5V_camera*%
X63875000Y-148628000D03*
%TO.P,C42,2*%
%TO.N,GND*%
X63875000Y-147668000D03*
%TD*%
D14*
%TO.P,C33,1*%
%TO.N,+3.3VA*%
X66670000Y-114755000D03*
%TO.P,C33,2*%
%TO.N,GND*%
X66670000Y-113205000D03*
%TD*%
D17*
%TO.P,C27,1*%
%TO.N,+3.3VA*%
X67860000Y-117340000D03*
%TO.P,C27,2*%
%TO.N,GND*%
X67860000Y-116380000D03*
%TD*%
D21*
%TO.P,C16,1*%
%TO.N,VCC*%
X87868000Y-134737000D03*
%TO.P,C16,2*%
%TO.N,GND*%
X87868000Y-136287000D03*
%TD*%
D17*
%TO.P,C25,1*%
%TO.N,+3.3VA*%
X67860000Y-114460000D03*
%TO.P,C25,2*%
%TO.N,GND*%
X67860000Y-113500000D03*
%TD*%
D22*
%TO.P,J3,1,Pin_1*%
%TO.N,+3.3V*%
X59990000Y-137026500D03*
%TO.P,J3,2,Pin_2*%
%TO.N,/BOOT0*%
X59990000Y-134484000D03*
%TO.P,J3,3,Pin_3*%
%TO.N,/SWCLK*%
X59990000Y-131941500D03*
%TO.P,J3,4,Pin_4*%
%TO.N,/SWDIO*%
X59990000Y-129399000D03*
%TO.P,J3,5,Pin_5*%
%TO.N,GND*%
X59990000Y-126856500D03*
%TD*%
D23*
%TO.P,R13,1*%
%TO.N,GND*%
X61779000Y-132961500D03*
%TO.P,R13,2*%
%TO.N,/SWCLK*%
X61779000Y-131941500D03*
%TD*%
D21*
%TO.P,C17,1*%
%TO.N,GND*%
X94094000Y-135072000D03*
%TO.P,C17,2*%
%TO.N,+3.3VA*%
X94094000Y-136622000D03*
%TD*%
D19*
%TO.P,C43,1*%
%TO.N,/camera/2.8V_camera*%
X83970000Y-148724000D03*
%TO.P,C43,2*%
%TO.N,GND*%
X83970000Y-149684000D03*
%TD*%
D18*
%TO.P,C5,1*%
%TO.N,GND*%
X86097000Y-141359000D03*
%TO.P,C5,2*%
%TO.N,+3.3VA*%
X84547000Y-141359000D03*
%TD*%
D19*
%TO.P,C29,1*%
%TO.N,+3.3VA*%
X67850000Y-119210000D03*
%TO.P,C29,2*%
%TO.N,GND*%
X67850000Y-120170000D03*
%TD*%
D17*
%TO.P,C30,1*%
%TO.N,+3.3VA*%
X79100000Y-119440000D03*
%TO.P,C30,2*%
%TO.N,GND*%
X79100000Y-118480000D03*
%TD*%
D24*
%TO.P,R12,1*%
%TO.N,/SWDIO*%
X61779000Y-129399000D03*
%TO.P,R12,2*%
%TO.N,+3.3V*%
X61779000Y-130419000D03*
%TD*%
D25*
%TO.P,J6,1,STROBE*%
%TO.N,/camera/STROBE*%
X79675000Y-149895000D03*
%TO.P,J6,2,AGND*%
%TO.N,GND*%
X79175000Y-149895000D03*
%TO.P,J6,3,SDA*%
%TO.N,/I2C1_SDA*%
X78675000Y-149895000D03*
%TO.P,J6,4,AVDD*%
%TO.N,/camera/2.8V_camera*%
X78175000Y-149895000D03*
%TO.P,J6,5,SCL*%
%TO.N,/I2C1_SCL*%
X77675000Y-149895000D03*
%TO.P,J6,6,RESET*%
%TO.N,/OV5640_RESET*%
X77175000Y-149895000D03*
%TO.P,J6,7,VSYNC*%
%TO.N,/DCMI_VSYNC*%
X76675000Y-149895000D03*
%TO.P,J6,8,PWDN*%
%TO.N,/OV5640_PWDN*%
X76175000Y-149895000D03*
%TO.P,J6,9,HREF*%
%TO.N,/DCMI_HYSNC*%
X75675000Y-149895000D03*
%TO.P,J6,10,DVDD*%
%TO.N,/camera/1.5V_camera*%
X75175000Y-149895000D03*
%TO.P,J6,11,DOVDD*%
%TO.N,+3.3VA*%
X74675000Y-149895000D03*
%TO.P,J6,12,Y9*%
%TO.N,/DCMI_D7*%
X74175000Y-149895000D03*
%TO.P,J6,13,XCLK*%
%TO.N,/camera/XCLK*%
X73675000Y-149895000D03*
%TO.P,J6,14,Y8*%
%TO.N,/DCMI_D6*%
X73175000Y-149895000D03*
%TO.P,J6,15,DGND*%
%TO.N,GND*%
X72675000Y-149895000D03*
%TO.P,J6,16,Y7*%
%TO.N,/DCMI_D5*%
X72175000Y-149895000D03*
%TO.P,J6,17,PCLK*%
%TO.N,/DCMI_PIXCLK*%
X71675000Y-149895000D03*
%TO.P,J6,18,Y6*%
%TO.N,/DCMI_D4*%
X71175000Y-149895000D03*
%TO.P,J6,19,Y2*%
%TO.N,/DCMI_D0*%
X70675000Y-149895000D03*
%TO.P,J6,20,Y5*%
%TO.N,/DCMI_D3*%
X70175000Y-149895000D03*
%TO.P,J6,21,Y3*%
%TO.N,/DCMI_D1*%
X69675000Y-149895000D03*
%TO.P,J6,22,Y4*%
%TO.N,/DCMI_D2*%
X69175000Y-149895000D03*
%TO.P,J6,23,Y1*%
%TO.N,/camera/DATA1*%
X68675000Y-149895000D03*
%TO.P,J6,24,Y0*%
%TO.N,/camera/DATA0*%
X68175000Y-149895000D03*
D26*
%TO.P,J6,25,HEATSINK*%
%TO.N,GND*%
X66475000Y-147215000D03*
%TO.P,J6,26,HEATSINK*%
X81375000Y-147215000D03*
D27*
%TO.P,J6,27,HEATSINK*%
X73925000Y-127620000D03*
%TD*%
D28*
%TO.N,GND*%
X60070000Y-118695000D03*
X92590000Y-108615000D03*
D29*
X73472012Y-114491000D03*
D28*
X60070000Y-121290000D03*
X50210000Y-115420000D03*
D29*
X87662000Y-116291000D03*
D28*
X89010000Y-140895000D03*
D30*
X55815000Y-134620000D03*
D29*
X71452954Y-117130292D03*
D28*
X72200000Y-124400000D03*
X62330000Y-138490000D03*
X75400000Y-124400000D03*
X51830000Y-112110000D03*
X76500000Y-130200000D03*
X85798000Y-142945000D03*
X75000000Y-130200000D03*
X93140000Y-140895000D03*
X79189000Y-151111000D03*
X87413000Y-128382000D03*
X60073000Y-109990000D03*
X89010000Y-144900000D03*
D29*
X62862000Y-105315000D03*
D28*
X89010000Y-148905000D03*
X86840000Y-138600000D03*
X74000000Y-128400000D03*
D29*
X83137000Y-127787000D03*
D28*
X77200000Y-125200000D03*
X55210000Y-116120000D03*
D29*
X68490000Y-111130000D03*
D30*
X92035000Y-110441000D03*
D28*
X62234500Y-141359500D03*
D29*
X61779000Y-132961500D03*
D28*
X61934500Y-142947500D03*
X89391000Y-122436000D03*
D29*
X91555000Y-116130000D03*
D31*
X87868000Y-136287000D03*
D28*
X70600000Y-125200000D03*
D31*
X60097000Y-125500000D03*
D28*
X55305000Y-140770000D03*
D31*
X59990000Y-126856500D03*
D29*
X80805000Y-128290000D03*
D28*
X56620000Y-146210000D03*
X81300000Y-122510000D03*
X70600000Y-124400000D03*
D29*
X81200000Y-118127000D03*
X75452012Y-103981000D03*
D28*
X57500000Y-106270000D03*
X60070000Y-116100000D03*
X74600000Y-124400000D03*
D30*
X55815000Y-126620000D03*
D29*
X66640000Y-119770000D03*
X72672012Y-117691000D03*
X69354000Y-128933000D03*
X67860000Y-116400000D03*
D30*
X51645000Y-134620000D03*
D28*
X83402084Y-147260833D03*
X66992012Y-103711000D03*
X57760000Y-113790000D03*
D29*
X72655000Y-151140000D03*
D28*
X70600000Y-130200000D03*
X62330000Y-135930000D03*
X74200000Y-130200000D03*
D29*
X70452012Y-103981000D03*
D28*
X86353000Y-147042000D03*
D29*
X71872012Y-114491000D03*
D28*
X87378000Y-120465000D03*
X91540000Y-146235000D03*
D29*
X61530000Y-117854000D03*
D28*
X86783000Y-126622000D03*
D29*
X74409000Y-151140000D03*
D28*
X76500000Y-129400000D03*
X86097000Y-141359000D03*
D29*
X81952012Y-103981000D03*
D28*
X66680000Y-142160000D03*
X89500000Y-105915000D03*
X77100000Y-128400000D03*
D30*
X96205000Y-130620000D03*
D28*
X80850000Y-142160000D03*
X87560000Y-117955000D03*
X70600000Y-131000000D03*
X94450000Y-143585000D03*
X74200000Y-131000000D03*
X66475000Y-147215000D03*
D29*
X63875000Y-147668000D03*
D28*
X59310000Y-144900000D03*
X73000000Y-125200000D03*
D29*
X86582012Y-109611000D03*
X79060000Y-114590000D03*
D28*
X81310000Y-107820000D03*
D30*
X92035000Y-132620000D03*
D28*
X59310000Y-140770000D03*
X73140000Y-122510000D03*
D29*
X66640000Y-112370000D03*
D28*
X71400000Y-125200000D03*
D30*
X55815000Y-136620000D03*
D28*
X62489500Y-147041500D03*
X67450000Y-129930000D03*
X71400000Y-124400000D03*
X75000000Y-131000000D03*
D29*
X85582012Y-117571000D03*
D28*
X72200000Y-125200000D03*
D29*
X61362012Y-124461000D03*
D28*
X75400000Y-125200000D03*
X77200000Y-124400000D03*
X73800000Y-125200000D03*
D30*
X92035000Y-130620000D03*
D29*
X77210000Y-112880000D03*
D28*
X65190000Y-111920000D03*
X71400000Y-131000000D03*
D29*
X74992012Y-128201000D03*
D28*
X65190000Y-107820000D03*
X87467012Y-122341000D03*
X81920000Y-130180000D03*
X73760000Y-138650000D03*
X59310000Y-149030000D03*
X97270000Y-140895000D03*
X66670000Y-138520000D03*
D29*
X88622000Y-110891000D03*
X89277000Y-107228000D03*
D28*
X62890000Y-128720000D03*
D31*
X86798000Y-132842000D03*
D28*
X97520000Y-115215000D03*
X51300000Y-140770000D03*
X74200000Y-129400000D03*
X61130000Y-104090000D03*
X76500000Y-131000000D03*
X86190000Y-104295000D03*
X53970000Y-143300000D03*
D29*
X74880000Y-109720000D03*
D28*
X74600000Y-125200000D03*
D30*
X55815000Y-124620000D03*
D29*
X67850000Y-120170000D03*
D28*
X75000000Y-129400000D03*
D30*
X96205000Y-132620000D03*
D29*
X81772012Y-125610000D03*
D31*
X94094000Y-135072000D03*
D28*
X73000000Y-124400000D03*
X89626000Y-135667000D03*
X54530000Y-109020000D03*
D29*
X87317000Y-108188000D03*
X61362012Y-112111000D03*
D28*
X71400000Y-129400000D03*
D29*
X83970000Y-149684000D03*
D30*
X51645000Y-136620000D03*
D28*
X71400000Y-130200000D03*
X73800000Y-124400000D03*
X95340000Y-111585000D03*
X80850000Y-138700000D03*
D29*
%TO.N,/RST*%
X85537000Y-112677000D03*
D28*
X92035000Y-114759000D03*
D29*
%TO.N,+3.3V*%
X63822000Y-105315000D03*
X69357000Y-129739000D03*
X86337000Y-108218000D03*
X61362012Y-113071000D03*
X69492012Y-103981000D03*
X61779000Y-130419000D03*
X86582012Y-110571000D03*
X61362012Y-125421000D03*
D31*
X88348000Y-132842000D03*
D29*
X80992012Y-103981000D03*
X64032000Y-118332000D03*
X74492012Y-103981000D03*
D31*
X59990000Y-137026500D03*
D29*
X85582012Y-116611000D03*
X75816952Y-132198952D03*
D28*
X85917012Y-122341000D03*
D29*
X83137000Y-126827000D03*
D31*
%TO.N,VCC*%
X87868000Y-134737000D03*
D29*
%TO.N,/camera/2.8V_camera*%
X83970000Y-148724000D03*
X78378000Y-148376000D03*
%TO.N,/DCMI_PIXCLK*%
X71695000Y-151140000D03*
X79722012Y-104116000D03*
X72175000Y-145118000D03*
%TO.N,/OV5640_RESET*%
X64917000Y-120941000D03*
X77775000Y-145118000D03*
X77236000Y-151140000D03*
%TO.N,/SWCLK*%
X61779000Y-131941500D03*
%TO.N,/BOOT0*%
X79785000Y-128290000D03*
%TO.N,/SWDIO*%
X61779000Y-129399000D03*
%TO.N,/LTE_reset*%
X86778000Y-125227000D03*
D30*
X96205000Y-128620000D03*
%TO.N,/LTE_pwrkey*%
X92035000Y-128620000D03*
D29*
X86754000Y-124285000D03*
%TO.N,/DCMI_VSYNC*%
X77075000Y-145118000D03*
X72022012Y-132736000D03*
%TO.N,/DCMI_D7*%
X74975000Y-145118000D03*
X83134512Y-122841000D03*
%TO.N,/I2C1_SCL*%
X78475000Y-145118000D03*
%TO.N,/DCMI_D2*%
X68675000Y-145118000D03*
X71592000Y-135824000D03*
X72722012Y-132736000D03*
D28*
%TO.N,/OV5640_PWDN*%
X68950000Y-135938000D03*
X70079500Y-134785500D03*
D29*
X64917000Y-120241000D03*
X76181000Y-151140000D03*
X76375000Y-145118000D03*
D28*
%TO.N,/camera/DATA1*%
X62804500Y-150443000D03*
X68675000Y-150984000D03*
D29*
%TO.N,/DCMI_D4*%
X71475000Y-145118000D03*
X81230500Y-145609500D03*
X83134512Y-123841000D03*
%TO.N,/DCMI_D6*%
X73575000Y-145118000D03*
X85134512Y-123346000D03*
%TO.N,/DCMI_D1*%
X64917000Y-119541000D03*
X69375000Y-145118000D03*
%TO.N,/DCMI_HYSNC*%
X75675000Y-145118000D03*
X80722012Y-106547000D03*
%TO.N,/DCMI_D0*%
X70775000Y-145118000D03*
X64917000Y-118841000D03*
%TO.N,/DCMI_D3*%
X70075000Y-145118000D03*
X72087000Y-136733000D03*
X73422012Y-132736000D03*
%TO.N,/DCMI_D5*%
X72875000Y-145118000D03*
D28*
X68722012Y-128120000D03*
D29*
%TO.N,/I2C1_SDA*%
X79175000Y-145118000D03*
%TO.N,/FMC_SDCKE0*%
X82920000Y-110841000D03*
%TO.N,/FMC_A3*%
X76672012Y-117691000D03*
%TO.N,/FMC_A9*%
X73222012Y-108210000D03*
X75072012Y-114491000D03*
%TO.N,/FMC_D10*%
X67723012Y-107090000D03*
%TO.N,/FMC_D1*%
X69305765Y-119842268D03*
X64977057Y-113790000D03*
%TO.N,/FMC_A6*%
X76680000Y-112140000D03*
%TO.N,/FMC_D6*%
X72672012Y-118491000D03*
X70604544Y-108210000D03*
X70121862Y-106790000D03*
%TO.N,/FMC_D12*%
X66623012Y-107090000D03*
%TO.N,/FMC_A8*%
X75872012Y-112891000D03*
%TO.N,/FMC_NBL1*%
X79730000Y-123440000D03*
X78380000Y-110680000D03*
X76430000Y-110680000D03*
%TO.N,/FMC_D0*%
X64250000Y-113260000D03*
%TO.N,/FMC_SDNRAS*%
X74272012Y-118491000D03*
X76340000Y-107430000D03*
X77405000Y-111355000D03*
%TO.N,/FMC_D2*%
X71070000Y-118500000D03*
%TO.N,/FMC_D11*%
X71872012Y-113691000D03*
%TO.N,/FMC_SDNE0*%
X82920000Y-111842629D03*
X80860384Y-114930384D03*
X75072012Y-119291000D03*
%TO.N,/FMC_A1*%
X75872012Y-118491000D03*
%TO.N,/FMC_SDNWE*%
X76660000Y-120630000D03*
X82920000Y-112606003D03*
X81660000Y-114930384D03*
%TO.N,/FMC_D3*%
X67772012Y-124830000D03*
%TO.N,/FMC_A4*%
X76672012Y-114491000D03*
%TO.N,/FMC_A10*%
X75872012Y-119291000D03*
X73311597Y-111908403D03*
X72460000Y-108210000D03*
X75490000Y-117140000D03*
%TO.N,/FMC_A11*%
X75070000Y-113680000D03*
%TO.N,/FMC_D15*%
X64940000Y-110450000D03*
%TO.N,/FMC_D8*%
X68824012Y-106790000D03*
%TO.N,/FMC_SDNCAS*%
X76230000Y-122750000D03*
X74272012Y-117691000D03*
%TO.N,/FMC_A5*%
X76672012Y-113691000D03*
%TO.N,/FMC_D14*%
X64160000Y-109890000D03*
%TO.N,/FMC_D13*%
X71072012Y-113691000D03*
%TO.N,/FMC_A7*%
X75872012Y-113691000D03*
%TO.N,/FMC_A0*%
X76210000Y-117160000D03*
X77590000Y-121140000D03*
%TO.N,/FMC_D5*%
X71206732Y-106693268D03*
X72672012Y-119291000D03*
%TO.N,/FMC_D4*%
X71330000Y-108210000D03*
X72280000Y-104080000D03*
X71872012Y-118491000D03*
%TO.N,/FMC_NBL0*%
X73472012Y-118491000D03*
%TO.N,/FMC_D7*%
X73472012Y-119291000D03*
X68630000Y-103640000D03*
X69460000Y-107090000D03*
%TO.N,/FMC_A2*%
X77253183Y-118691000D03*
%TO.N,/FMC_SDCLK*%
X74272012Y-115400000D03*
X74272012Y-113691000D03*
D30*
%TO.N,/UART4_RX*%
X55815000Y-130620000D03*
D28*
X57607000Y-127621000D03*
D29*
%TO.N,/FMC_A12*%
X75072012Y-112891000D03*
X61240000Y-114340000D03*
%TO.N,/FMC_D9*%
X72672012Y-113691000D03*
%TO.N,/FMC_BS1*%
X64917000Y-116240000D03*
X66560000Y-116220000D03*
X75072012Y-118491000D03*
%TO.N,/FMC_BS0*%
X64917000Y-115512706D03*
%TO.N,/I2C4_SDA*%
X64160000Y-111860000D03*
D30*
X51645000Y-118620000D03*
D29*
%TO.N,/I2C4_SCL*%
X58005000Y-120620000D03*
D30*
X51645000Y-120620000D03*
D29*
%TO.N,/camera/XCLK*%
X73755000Y-148087000D03*
D28*
%TO.N,+3.3VA*%
X60684500Y-141359500D03*
D29*
X66640000Y-118810000D03*
X67850000Y-119210000D03*
X80290000Y-121440000D03*
X73221013Y-110262183D03*
D31*
X94094000Y-136622000D03*
D28*
X61504500Y-150443000D03*
D29*
X78256000Y-151140000D03*
D28*
X62884500Y-142947500D03*
X86748000Y-142945000D03*
D29*
X73472012Y-117691000D03*
D28*
X84547000Y-141359000D03*
X84848000Y-142945000D03*
D29*
X79060000Y-115550000D03*
X79022012Y-130510000D03*
D28*
X60984500Y-142947500D03*
D29*
X75111000Y-148669000D03*
X66670000Y-114755000D03*
X67860000Y-117340000D03*
X71872012Y-117691000D03*
%TD*%
D32*
%TO.N,VCC*%
X89838500Y-134717000D02*
X87888000Y-134717000D01*
X87888000Y-134717000D02*
X87868000Y-134737000D01*
X90417000Y-134717000D02*
X89838500Y-134717000D01*
X90952000Y-135252000D02*
X90417000Y-134717000D01*
X90952000Y-136070100D02*
X90952000Y-135252000D01*
X90405100Y-136617000D02*
X90952000Y-136070100D01*
X89838500Y-136617000D02*
X90405100Y-136617000D01*
D33*
%TO.N,GND*%
X79395000Y-118185000D02*
X79100000Y-118480000D01*
X80290000Y-118185000D02*
X79395000Y-118185000D01*
X74870000Y-110500000D02*
X74870000Y-109730000D01*
D34*
X76672012Y-112891000D02*
X77199000Y-112891000D01*
D32*
X80290000Y-118127000D02*
X80280000Y-118137000D01*
D34*
X70272012Y-114491000D02*
X69041000Y-114491000D01*
D35*
X81375000Y-147215000D02*
X83356251Y-147215000D01*
D33*
X74870000Y-109730000D02*
X74880000Y-109720000D01*
D34*
X79175000Y-151097000D02*
X79189000Y-151111000D01*
X77199000Y-112891000D02*
X77210000Y-112880000D01*
X72675000Y-151120000D02*
X72655000Y-151140000D01*
X79175000Y-149895000D02*
X79175000Y-151097000D01*
D32*
X80280000Y-118137000D02*
X80280000Y-118175000D01*
D33*
X67860000Y-116400000D02*
X67860000Y-116380000D01*
D35*
X83356251Y-147215000D02*
X83402084Y-147260833D01*
D32*
X81200000Y-118127000D02*
X80290000Y-118127000D01*
X80280000Y-118175000D02*
X80290000Y-118185000D01*
X66640000Y-112370000D02*
X66640000Y-113175000D01*
X66965000Y-113500000D02*
X67860000Y-113500000D01*
D33*
X71520000Y-117197338D02*
X71385908Y-117197338D01*
X71072012Y-117511234D02*
X71072012Y-117691000D01*
D34*
X69041000Y-114491000D02*
X68050000Y-113500000D01*
D32*
X66640000Y-113175000D02*
X66965000Y-113500000D01*
D33*
X71385908Y-117197338D02*
X71072012Y-117511234D01*
X71452954Y-117130292D02*
X71520000Y-117197338D01*
D34*
X70272012Y-112891000D02*
X70251000Y-112891000D01*
X72675000Y-149895000D02*
X72675000Y-151120000D01*
X70251000Y-112891000D02*
X68490000Y-111130000D01*
%TO.N,/RST*%
X92035000Y-114751000D02*
X92035000Y-114759000D01*
X85537000Y-112677000D02*
X89961000Y-112677000D01*
X89961000Y-112677000D02*
X92035000Y-114751000D01*
%TO.N,/camera/2.8V_camera*%
X78175000Y-148579000D02*
X78175000Y-149895000D01*
X78378000Y-148376000D02*
X78175000Y-148579000D01*
D32*
X84803000Y-147970000D02*
X84803000Y-147042000D01*
X84848000Y-145455000D02*
X84848000Y-146997000D01*
X84848000Y-146997000D02*
X84803000Y-147042000D01*
X84049000Y-148724000D02*
X84803000Y-147970000D01*
X83970000Y-148724000D02*
X84049000Y-148724000D01*
D33*
%TO.N,/DCMI_PIXCLK*%
X71675000Y-147066000D02*
X71675000Y-149895000D01*
X72175000Y-145118000D02*
X72175000Y-146566000D01*
D34*
X71675000Y-149895000D02*
X71675000Y-151120000D01*
X71675000Y-151120000D02*
X71695000Y-151140000D01*
D33*
X72175000Y-146566000D02*
X71675000Y-147066000D01*
%TO.N,/OV5640_RESET*%
X77775000Y-145118000D02*
X77775000Y-146042000D01*
D34*
X77175000Y-151079000D02*
X77236000Y-151140000D01*
D33*
X77175000Y-146642000D02*
X77175000Y-149895000D01*
D34*
X77175000Y-149895000D02*
X77175000Y-151079000D01*
D33*
X77775000Y-146042000D02*
X77175000Y-146642000D01*
D32*
%TO.N,/camera/1.5V_camera*%
X61630000Y-148628000D02*
X60939500Y-147937500D01*
X63875000Y-148628000D02*
X61630000Y-148628000D01*
X60984500Y-146996500D02*
X60939500Y-147041500D01*
D34*
X67072000Y-151825000D02*
X63875000Y-148628000D01*
X74734000Y-151825000D02*
X67072000Y-151825000D01*
D32*
X60984500Y-145457500D02*
X60984500Y-146996500D01*
X60939500Y-147937500D02*
X60939500Y-147041500D01*
D34*
X75175000Y-151384000D02*
X74734000Y-151825000D01*
X75175000Y-149895000D02*
X75175000Y-151384000D01*
D35*
%TO.N,/SWCLK*%
X61779000Y-131941500D02*
X59990000Y-131941500D01*
D34*
%TO.N,/BOOT0*%
X79785000Y-132268000D02*
X79785000Y-128290000D01*
X78234000Y-133819000D02*
X79785000Y-132268000D01*
X64019000Y-133819000D02*
X63354000Y-134484000D01*
X78234000Y-133819000D02*
X64019000Y-133819000D01*
X63354000Y-134484000D02*
X59990000Y-134484000D01*
D35*
%TO.N,/SWDIO*%
X61779000Y-129399000D02*
X59990000Y-129399000D01*
D33*
%TO.N,/DCMI_VSYNC*%
X76675000Y-146265000D02*
X77075000Y-145865000D01*
X76675000Y-149895000D02*
X76675000Y-146265000D01*
X77075000Y-145865000D02*
X77075000Y-145118000D01*
%TO.N,/DCMI_D7*%
X74175000Y-148719000D02*
X74975000Y-147919000D01*
X74175000Y-149895000D02*
X74175000Y-148719000D01*
X74975000Y-147919000D02*
X74975000Y-145118000D01*
%TO.N,/I2C1_SCL*%
X77675000Y-147060000D02*
X78475000Y-146260000D01*
X77675000Y-149895000D02*
X77675000Y-147060000D01*
X78475000Y-146260000D02*
X78475000Y-145118000D01*
%TO.N,/DCMI_D2*%
X69175000Y-147538000D02*
X68675000Y-147038000D01*
X68675000Y-147038000D02*
X68675000Y-145118000D01*
X69175000Y-149895000D02*
X69175000Y-147538000D01*
%TO.N,/OV5640_PWDN*%
X76175000Y-145983000D02*
X76175000Y-149895000D01*
X76375000Y-145783000D02*
X76175000Y-145983000D01*
D34*
X76175000Y-149895000D02*
X76175000Y-151134000D01*
X76175000Y-151134000D02*
X76181000Y-151140000D01*
D33*
X76375000Y-145118000D02*
X76375000Y-145783000D01*
D34*
%TO.N,/camera/DATA1*%
X68675000Y-149895000D02*
X68675000Y-150984000D01*
%TO.N,/camera/STROBE*%
X85669000Y-150597000D02*
X80935000Y-150597000D01*
X86066000Y-150200000D02*
X85669000Y-150597000D01*
X80935000Y-150597000D02*
X80233000Y-149895000D01*
X80233000Y-149895000D02*
X79675000Y-149895000D01*
D33*
%TO.N,/DCMI_D4*%
X71175000Y-146672000D02*
X71475000Y-146372000D01*
X71475000Y-146372000D02*
X71475000Y-145118000D01*
X71175000Y-149895000D02*
X71175000Y-146672000D01*
%TO.N,/DCMI_D6*%
X73175000Y-147310000D02*
X73175000Y-149895000D01*
X73575000Y-145118000D02*
X73575000Y-146910000D01*
X73575000Y-146910000D02*
X73175000Y-147310000D01*
%TO.N,/DCMI_D1*%
X69375000Y-145118000D02*
X69375000Y-146802000D01*
X69675000Y-147102000D02*
X69675000Y-149895000D01*
X69375000Y-146802000D02*
X69675000Y-147102000D01*
%TO.N,/DCMI_HYSNC*%
X75675000Y-145118000D02*
X75675000Y-149895000D01*
%TO.N,/DCMI_D0*%
X70675000Y-146382000D02*
X70775000Y-146282000D01*
X70675000Y-149895000D02*
X70675000Y-146382000D01*
X70775000Y-146282000D02*
X70775000Y-145118000D01*
%TO.N,/DCMI_D3*%
X70075000Y-146548000D02*
X70075000Y-145118000D01*
X70175000Y-146648000D02*
X70075000Y-146548000D01*
X70175000Y-149895000D02*
X70175000Y-146648000D01*
%TO.N,/DCMI_D5*%
X72175000Y-147442000D02*
X72875000Y-146742000D01*
X72875000Y-146742000D02*
X72875000Y-145118000D01*
X72175000Y-149895000D02*
X72175000Y-147442000D01*
%TO.N,/I2C1_SDA*%
X78675000Y-149895000D02*
X78675000Y-149104000D01*
X78675000Y-149104000D02*
X79175000Y-148604000D01*
X79175000Y-148604000D02*
X79175000Y-145118000D01*
%TO.N,/FMC_SDCKE0*%
X82920000Y-110841000D02*
X82701000Y-110841000D01*
X81669344Y-110840000D02*
X76928344Y-115581000D01*
X76928344Y-115581000D02*
X75362012Y-115581000D01*
X82701000Y-110841000D02*
X82700000Y-110840000D01*
X75362012Y-115581000D02*
X74272012Y-114491000D01*
X82700000Y-110840000D02*
X81669344Y-110840000D01*
%TO.N,/FMC_D10*%
X72672012Y-112842012D02*
X72672012Y-112891000D01*
X67723012Y-107893012D02*
X72672012Y-112842012D01*
X67723012Y-107110000D02*
X67723012Y-107893012D01*
%TO.N,/FMC_D1*%
X69352768Y-119792000D02*
X70479533Y-119792000D01*
X69308225Y-119839808D02*
X69308225Y-119836543D01*
X69308225Y-119836543D02*
X69352768Y-119792000D01*
X71072012Y-119324494D02*
X71072012Y-119291000D01*
X70479533Y-119792000D02*
X70487214Y-119784319D01*
X70487214Y-119784319D02*
X70612187Y-119784319D01*
X69305765Y-119842268D02*
X69308225Y-119839808D01*
X70612187Y-119784319D02*
X71072012Y-119324494D01*
%TO.N,/FMC_A6*%
X75872012Y-114491000D02*
X76423012Y-115042000D01*
X77910000Y-112690000D02*
X77340000Y-112120000D01*
X77340000Y-112120000D02*
X76680000Y-112120000D01*
X76900244Y-115042000D02*
X77910000Y-114032244D01*
X77910000Y-114032244D02*
X77910000Y-112690000D01*
X76423012Y-115042000D02*
X76900244Y-115042000D01*
%TO.N,/FMC_D6*%
X70121862Y-106793560D02*
X70121862Y-107730131D01*
X70121862Y-107730131D02*
X70604544Y-108212813D01*
%TO.N,/FMC_D12*%
X66623012Y-107140000D02*
X66640000Y-107156988D01*
X71730000Y-112748988D02*
X71872012Y-112891000D01*
X71730000Y-112740000D02*
X71730000Y-112748988D01*
X66640000Y-107650000D02*
X71730000Y-112740000D01*
X66640000Y-107156988D02*
X66640000Y-107650000D01*
X66623012Y-107090000D02*
X66623012Y-107140000D01*
%TO.N,/FMC_NBL1*%
X76370000Y-110790000D02*
X74272012Y-112887988D01*
X74272012Y-112887988D02*
X74272012Y-112891000D01*
%TO.N,/FMC_D0*%
X64250000Y-116480000D02*
X65790000Y-118020000D01*
X69801012Y-118020000D02*
X70272012Y-118491000D01*
X64250000Y-113260000D02*
X64250000Y-116480000D01*
X65790000Y-118020000D02*
X69801012Y-118020000D01*
%TO.N,/FMC_SDNRAS*%
X77405000Y-110335000D02*
X76340000Y-109270000D01*
X76340000Y-109270000D02*
X76340000Y-107430000D01*
X77405000Y-111355000D02*
X77405000Y-110335000D01*
%TO.N,/FMC_SDNE0*%
X82899359Y-111842629D02*
X82861559Y-111842629D01*
X80900000Y-113804188D02*
X80900000Y-114890768D01*
X80900000Y-114890768D02*
X80860384Y-114930384D01*
X82861559Y-111842629D02*
X80900000Y-113804188D01*
%TO.N,/FMC_SDNWE*%
X76660000Y-120630000D02*
X75160000Y-120630000D01*
X82876003Y-112606003D02*
X82876003Y-112623997D01*
X82876003Y-112623997D02*
X82866004Y-112633996D01*
X74272012Y-119742012D02*
X74272012Y-119291000D01*
X82866004Y-112662863D02*
X81660000Y-113868867D01*
X81660000Y-113868867D02*
X81660000Y-114940000D01*
X82866004Y-112633996D02*
X82866004Y-112662863D01*
X75160000Y-120630000D02*
X74272012Y-119742012D01*
%TO.N,/FMC_D3*%
X67772012Y-124830000D02*
X67772012Y-124762012D01*
X67772012Y-124762012D02*
X67700000Y-124690000D01*
X67700000Y-123463012D02*
X71872012Y-119291000D01*
X67700000Y-124690000D02*
X67700000Y-123463012D01*
%TO.N,/FMC_A10*%
X72460000Y-108270000D02*
X72460000Y-111050000D01*
X73311597Y-111901597D02*
X73311597Y-111908403D01*
X72460000Y-111050000D02*
X73311597Y-111901597D01*
%TO.N,/FMC_D15*%
X67031012Y-110450000D02*
X70272012Y-113691000D01*
X64940000Y-110450000D02*
X67031012Y-110450000D01*
%TO.N,/FMC_D8*%
X68824012Y-106740000D02*
X68720000Y-106844012D01*
X68720000Y-108138988D02*
X73472012Y-112891000D01*
X68720000Y-106844012D02*
X68720000Y-108138988D01*
%TO.N,/FMC_D14*%
X71072012Y-112891000D02*
X68071012Y-109890000D01*
X68071012Y-109890000D02*
X64160000Y-109890000D01*
%TO.N,/FMC_A0*%
X76210000Y-117160000D02*
X76210000Y-117210000D01*
X75872012Y-117547988D02*
X75872012Y-117691000D01*
X76210000Y-117210000D02*
X75872012Y-117547988D01*
%TO.N,/FMC_D4*%
X71330000Y-108210000D02*
X71490000Y-108210000D01*
X71490000Y-108210000D02*
X72290000Y-107410000D01*
X72290000Y-107410000D02*
X72290000Y-104090000D01*
X72290000Y-104090000D02*
X72280000Y-104080000D01*
%TO.N,/FMC_D7*%
X68630000Y-104040000D02*
X68630000Y-103640000D01*
X69430000Y-104840000D02*
X68630000Y-104040000D01*
X69430000Y-107180000D02*
X69430000Y-104840000D01*
%TO.N,/FMC_A2*%
X77253183Y-118691000D02*
X76872012Y-118691000D01*
X76872012Y-118691000D02*
X76672012Y-118491000D01*
D34*
%TO.N,/UART4_RX*%
X57607000Y-127621000D02*
X57607000Y-130065000D01*
X57607000Y-130065000D02*
X57052000Y-130620000D01*
X57052000Y-130620000D02*
X55815000Y-130620000D01*
D33*
%TO.N,/FMC_BS1*%
X64908806Y-116210000D02*
X66550000Y-116210000D01*
X66550000Y-116210000D02*
X66560000Y-116220000D01*
%TO.N,/FMC_BS0*%
X72962012Y-115581000D02*
X75072012Y-117691000D01*
X64949256Y-115581000D02*
X72962012Y-115581000D01*
X64880962Y-115512706D02*
X64949256Y-115581000D01*
D34*
%TO.N,/I2C4_SDA*%
X63641000Y-111341000D02*
X60947000Y-111341000D01*
X51645000Y-118620000D02*
X58002000Y-118620000D01*
X58002000Y-118620000D02*
X58758000Y-117864000D01*
X64160000Y-111860000D02*
X63641000Y-111341000D01*
X58758000Y-113530000D02*
X58758000Y-117864000D01*
X60947000Y-111341000D02*
X58758000Y-113530000D01*
%TO.N,/I2C4_SCL*%
X58005000Y-120620000D02*
X51645000Y-120620000D01*
D33*
%TO.N,/camera/XCLK*%
X73675000Y-149895000D02*
X73718000Y-149852000D01*
X73718000Y-148124000D02*
X73755000Y-148087000D01*
X73718000Y-149852000D02*
X73718000Y-148124000D01*
D34*
%TO.N,+3.3VA*%
X70272012Y-117691000D02*
X69921012Y-117340000D01*
D32*
X66965000Y-114460000D02*
X66670000Y-114755000D01*
D36*
X94089000Y-136617000D02*
X94094000Y-136622000D01*
D34*
X70521012Y-115042000D02*
X68442000Y-115042000D01*
X71623069Y-115092000D02*
X71072012Y-114540943D01*
D32*
X79395000Y-119735000D02*
X79100000Y-119440000D01*
X80290000Y-119735000D02*
X79395000Y-119735000D01*
D34*
X74675000Y-149082000D02*
X74675000Y-149895000D01*
X73342183Y-110262183D02*
X73580000Y-110500000D01*
D32*
X67860000Y-114460000D02*
X66965000Y-114460000D01*
D34*
X78951000Y-119291000D02*
X79100000Y-119440000D01*
X72672012Y-114773842D02*
X72672012Y-114491000D01*
D36*
X92326000Y-136617000D02*
X94089000Y-136617000D01*
D34*
X67850000Y-119210000D02*
X67875543Y-119235543D01*
D33*
X70272012Y-119291000D02*
X70191012Y-119210000D01*
D34*
X70216555Y-119235543D02*
X70272012Y-119291000D01*
X69921012Y-117340000D02*
X67860000Y-117340000D01*
X71623069Y-115092000D02*
X72353854Y-115092000D01*
X75111000Y-148669000D02*
X75088000Y-148669000D01*
X76672012Y-119291000D02*
X78951000Y-119291000D01*
X68442000Y-115042000D02*
X67860000Y-114460000D01*
X67875543Y-119235543D02*
X70216555Y-119235543D01*
X72353854Y-115092000D02*
X72672012Y-114773842D01*
X71072012Y-114540943D02*
X71072012Y-114491000D01*
X71072012Y-114491000D02*
X70521012Y-115042000D01*
X73580000Y-110500000D02*
X73910000Y-110500000D01*
X73221013Y-110262183D02*
X73342183Y-110262183D01*
X75088000Y-148669000D02*
X74675000Y-149082000D01*
D32*
X80290000Y-119735000D02*
X80290000Y-121440000D01*
%TD*%
M02*
