%TF.GenerationSoftware,KiCad,Pcbnew,9.0.6*%
%TF.CreationDate,2026-01-26T21:26:12+01:00*%
%TF.ProjectId,cansat-camera-pcb,63616e73-6174-42d6-9361-6d6572612d70,1.1*%
%TF.SameCoordinates,Original*%
%TF.FileFunction,Copper,L8,Bot*%
%TF.FilePolarity,Positive*%
%FSLAX46Y46*%
G04 Gerber Fmt 4.6, Leading zero omitted, Abs format (unit mm)*
G04 Created by KiCad (PCBNEW 9.0.6) date 2026-01-26 21:26:12*
%MOMM*%
%LPD*%
G01*
G04 APERTURE LIST*
G04 Aperture macros list*
%AMRoundRect*
0 Rectangle with rounded corners*
0 $1 Rounding radius*
0 $2 $3 $4 $5 $6 $7 $8 $9 X,Y pos of 4 corners*
0 Add a 4 corners polygon primitive as box body*
4,1,4,$2,$3,$4,$5,$6,$7,$8,$9,$2,$3,0*
0 Add four circle primitives for the rounded corners*
1,1,$1+$1,$2,$3*
1,1,$1+$1,$4,$5*
1,1,$1+$1,$6,$7*
1,1,$1+$1,$8,$9*
0 Add four rect primitives between the rounded corners*
20,1,$1+$1,$2,$3,$4,$5,0*
20,1,$1+$1,$4,$5,$6,$7,0*
20,1,$1+$1,$6,$7,$8,$9,0*
20,1,$1+$1,$8,$9,$2,$3,0*%
G04 Aperture macros list end*
%TA.AperFunction,SMDPad,CuDef*%
%ADD10RoundRect,0.140000X-0.140000X-0.170000X0.140000X-0.170000X0.140000X0.170000X-0.140000X0.170000X0*%
%TD*%
%TA.AperFunction,SMDPad,CuDef*%
%ADD11RoundRect,0.140000X-0.170000X0.140000X-0.170000X-0.140000X0.170000X-0.140000X0.170000X0.140000X0*%
%TD*%
%TA.AperFunction,SMDPad,CuDef*%
%ADD12R,1.500000X1.500000*%
%TD*%
%TA.AperFunction,SMDPad,CuDef*%
%ADD13RoundRect,0.140000X0.140000X0.170000X-0.140000X0.170000X-0.140000X-0.170000X0.140000X-0.170000X0*%
%TD*%
%TA.AperFunction,SMDPad,CuDef*%
%ADD14RoundRect,0.135000X-0.135000X-0.185000X0.135000X-0.185000X0.135000X0.185000X-0.135000X0.185000X0*%
%TD*%
%TA.AperFunction,SMDPad,CuDef*%
%ADD15RoundRect,0.225000X-0.225000X-0.250000X0.225000X-0.250000X0.225000X0.250000X-0.225000X0.250000X0*%
%TD*%
%TA.AperFunction,SMDPad,CuDef*%
%ADD16RoundRect,0.225000X-0.250000X0.225000X-0.250000X-0.225000X0.250000X-0.225000X0.250000X0.225000X0*%
%TD*%
%TA.AperFunction,SMDPad,CuDef*%
%ADD17RoundRect,0.225000X0.225000X0.250000X-0.225000X0.250000X-0.225000X-0.250000X0.225000X-0.250000X0*%
%TD*%
%TA.AperFunction,SMDPad,CuDef*%
%ADD18R,2.200000X0.900000*%
%TD*%
%TA.AperFunction,SMDPad,CuDef*%
%ADD19RoundRect,0.140000X0.170000X-0.140000X0.170000X0.140000X-0.170000X0.140000X-0.170000X-0.140000X0*%
%TD*%
%TA.AperFunction,SMDPad,CuDef*%
%ADD20R,0.300000X1.300000*%
%TD*%
%TA.AperFunction,SMDPad,CuDef*%
%ADD21R,2.000000X1.600000*%
%TD*%
%TA.AperFunction,SMDPad,CuDef*%
%ADD22RoundRect,0.150000X-0.150000X0.512500X-0.150000X-0.512500X0.150000X-0.512500X0.150000X0.512500X0*%
%TD*%
%TA.AperFunction,SMDPad,CuDef*%
%ADD23R,1.000000X1.500000*%
%TD*%
%TA.AperFunction,SMDPad,CuDef*%
%ADD24R,1.300000X1.700000*%
%TD*%
%TA.AperFunction,BGAPad,CuDef*%
%ADD25C,0.360000*%
%TD*%
%TA.AperFunction,ViaPad*%
%ADD26C,1.000000*%
%TD*%
%TA.AperFunction,ViaPad*%
%ADD27C,0.500000*%
%TD*%
%TA.AperFunction,ViaPad*%
%ADD28C,0.400000*%
%TD*%
%TA.AperFunction,ViaPad*%
%ADD29C,0.800000*%
%TD*%
%TA.AperFunction,ViaPad*%
%ADD30C,0.600000*%
%TD*%
%TA.AperFunction,ViaPad*%
%ADD31C,0.450000*%
%TD*%
%TA.AperFunction,Conductor*%
%ADD32C,0.500000*%
%TD*%
%TA.AperFunction,Conductor*%
%ADD33C,0.800000*%
%TD*%
%TA.AperFunction,Conductor*%
%ADD34C,0.300000*%
%TD*%
%TA.AperFunction,Conductor*%
%ADD35C,0.200000*%
%TD*%
%TA.AperFunction,Conductor*%
%ADD36C,0.150000*%
%TD*%
%TA.AperFunction,Conductor*%
%ADD37C,0.110000*%
%TD*%
G04 APERTURE END LIST*
D10*
%TO.P,C25,1*%
%TO.N,+3.3VA*%
X103598000Y-42854000D03*
%TO.P,C25,2*%
%TO.N,GND*%
X104558000Y-42854000D03*
%TD*%
D11*
%TO.P,C32,1*%
%TO.N,+3.3VA*%
X101248000Y-49434000D03*
%TO.P,C32,2*%
%TO.N,GND*%
X101248000Y-50394000D03*
%TD*%
D10*
%TO.P,C26,1*%
%TO.N,+3.3VA*%
X110008000Y-42854000D03*
%TO.P,C26,2*%
%TO.N,GND*%
X110968000Y-42854000D03*
%TD*%
D12*
%TO.P,TP1,1,1*%
%TO.N,Net-(J2-STROBE)*%
X97253000Y-71107000D03*
%TD*%
D13*
%TO.P,C39,1*%
%TO.N,GND*%
X105331000Y-81310000D03*
%TO.P,C39,2*%
%TO.N,+3.3VA*%
X104371000Y-81310000D03*
%TD*%
D14*
%TO.P,R4,1*%
%TO.N,/CAM_SDA*%
X114138000Y-63649000D03*
%TO.P,R4,2*%
%TO.N,+3.3VA*%
X115158000Y-63649000D03*
%TD*%
D15*
%TO.P,C37,1*%
%TO.N,GND*%
X98710000Y-82129000D03*
%TO.P,C37,2*%
%TO.N,CAMERA_2.8V*%
X100260000Y-82129000D03*
%TD*%
D16*
%TO.P,C28,1*%
%TO.N,+3.3VA*%
X113698000Y-49139000D03*
%TO.P,C28,2*%
%TO.N,GND*%
X113698000Y-50689000D03*
%TD*%
D17*
%TO.P,C23,1*%
%TO.N,GND*%
X89358300Y-73301500D03*
%TO.P,C23,2*%
%TO.N,+3.3VA*%
X87808300Y-73301500D03*
%TD*%
D14*
%TO.P,R5,1*%
%TO.N,+3.3VA*%
X112087000Y-63649000D03*
%TO.P,R5,2*%
%TO.N,/CAM_SCL*%
X113107000Y-63649000D03*
%TD*%
D17*
%TO.P,C40,1*%
%TO.N,GND*%
X106196000Y-82590000D03*
%TO.P,C40,2*%
%TO.N,+3.3VA*%
X104646000Y-82590000D03*
%TD*%
D10*
%TO.P,C42,1*%
%TO.N,GND*%
X102543000Y-80849000D03*
%TO.P,C42,2*%
%TO.N,CAMERA_1.5V*%
X103503000Y-80849000D03*
%TD*%
D18*
%TO.P,J1,1,Pin_1*%
%TO.N,VCC*%
X88728000Y-67539000D03*
%TO.P,J1,2,Pin_2*%
%TO.N,/USART2_RX*%
X88728000Y-65539000D03*
%TO.P,J1,3,Pin_3*%
%TO.N,/USART2_TX*%
X88728000Y-63539000D03*
%TO.P,J1,4,Pin_4*%
%TO.N,GND*%
X88728000Y-61539000D03*
%TO.P,J1,5,Pin_5*%
%TO.N,+3.3V*%
X88728000Y-59539000D03*
%TO.P,J1,6,Pin_6*%
%TO.N,/SWCLK*%
X88728000Y-57539000D03*
%TO.P,J1,7,Pin_7*%
%TO.N,/SWDIO*%
X88728000Y-55539000D03*
%TO.P,J1,8,Pin_8*%
%TO.N,GND*%
X88728000Y-53539000D03*
%TD*%
D19*
%TO.P,C29,1*%
%TO.N,+3.3VA*%
X112368000Y-47384000D03*
%TO.P,C29,2*%
%TO.N,GND*%
X112368000Y-46424000D03*
%TD*%
D17*
%TO.P,C6,1*%
%TO.N,GND*%
X89358300Y-74851500D03*
%TO.P,C6,2*%
%TO.N,+3.3VA*%
X87808300Y-74851500D03*
%TD*%
D13*
%TO.P,C31,1*%
%TO.N,+3.3VA*%
X101278000Y-48409000D03*
%TO.P,C31,2*%
%TO.N,GND*%
X100318000Y-48409000D03*
%TD*%
D17*
%TO.P,C47,1*%
%TO.N,GND*%
X93753000Y-71751500D03*
%TO.P,C47,2*%
%TO.N,+3.3VA*%
X92203000Y-71751500D03*
%TD*%
D11*
%TO.P,C27,1*%
%TO.N,+3.3VA*%
X112368000Y-49434000D03*
%TO.P,C27,2*%
%TO.N,GND*%
X112368000Y-50394000D03*
%TD*%
D17*
%TO.P,C41,1*%
%TO.N,GND*%
X106196000Y-84140000D03*
%TO.P,C41,2*%
%TO.N,+3.3VA*%
X104646000Y-84140000D03*
%TD*%
D10*
%TO.P,C24,1*%
%TO.N,GND*%
X99575000Y-80849000D03*
%TO.P,C24,2*%
%TO.N,CAMERA_2.8V*%
X100535000Y-80849000D03*
%TD*%
%TO.P,C51,1*%
%TO.N,/DCMI_PIXCLK*%
X107203000Y-81247000D03*
%TO.P,C51,2*%
%TO.N,GND*%
X108163000Y-81247000D03*
%TD*%
D17*
%TO.P,C48,1*%
%TO.N,GND*%
X93753000Y-74851500D03*
%TO.P,C48,2*%
%TO.N,+3.3VA*%
X92203000Y-74851500D03*
%TD*%
D20*
%TO.P,J2,1,STROBE*%
%TO.N,Net-(J2-STROBE)*%
X99203000Y-79384000D03*
%TO.P,J2,2,AGND*%
%TO.N,GND*%
X99703000Y-79384000D03*
%TO.P,J2,3,SDA*%
%TO.N,/CAM_SDA*%
X100203000Y-79384000D03*
%TO.P,J2,4,AVDD*%
%TO.N,CAMERA_2.8V*%
X100703000Y-79384000D03*
%TO.P,J2,5,SCL*%
%TO.N,/CAM_SCL*%
X101203000Y-79384000D03*
%TO.P,J2,6,RST*%
%TO.N,/camera/reset*%
X101703000Y-79384000D03*
%TO.P,J2,7,VSYNC*%
%TO.N,/DCMI_VSYNC*%
X102203000Y-79384000D03*
%TO.P,J2,8,PWNDB*%
%TO.N,/camera/pwdnb*%
X102703000Y-79384000D03*
%TO.P,J2,9,HSYNC*%
%TO.N,/DCMI_HSYNC*%
X103203000Y-79384000D03*
%TO.P,J2,10,DVDD*%
%TO.N,CAMERA_1.5V*%
X103703000Y-79384000D03*
%TO.P,J2,11,DOVDD*%
%TO.N,+3.3VA*%
X104203000Y-79384000D03*
%TO.P,J2,12,D9*%
%TO.N,/DCMI_D7*%
X104703000Y-79384000D03*
%TO.P,J2,13,MCLK*%
%TO.N,/RCC_MCO_1*%
X105203000Y-79384000D03*
%TO.P,J2,14,D8*%
%TO.N,/DCMI_D6*%
X105703000Y-79384000D03*
%TO.P,J2,15,GND*%
%TO.N,GND*%
X106203000Y-79384000D03*
%TO.P,J2,16,D7*%
%TO.N,/DCMI_D5*%
X106703000Y-79384000D03*
%TO.P,J2,17,PCLK*%
%TO.N,/DCMI_PIXCLK*%
X107203000Y-79384000D03*
%TO.P,J2,18,D6*%
%TO.N,/DCMI_D4*%
X107703000Y-79384000D03*
%TO.P,J2,19,D2*%
%TO.N,/DCMI_D0*%
X108203000Y-79384000D03*
%TO.P,J2,20,D5*%
%TO.N,/DCMI_D3*%
X108703000Y-79384000D03*
%TO.P,J2,21,D3*%
%TO.N,/DCMI_D1*%
X109203000Y-79384000D03*
%TO.P,J2,22,D4*%
%TO.N,/DCMI_D2*%
X109703000Y-79384000D03*
%TO.P,J2,23,AF-VCC*%
%TO.N,Net-(J2-AF-VCC)*%
X110203000Y-79384000D03*
%TO.P,J2,24,AF-GND*%
%TO.N,unconnected-(J2-AF-GND-Pad24)*%
X110703000Y-79384000D03*
D21*
%TO.P,J2,25,MP1*%
%TO.N,GND*%
X97503000Y-76704000D03*
%TO.P,J2,26,MP2*%
X112403000Y-76704000D03*
%TD*%
D15*
%TO.P,C44,1*%
%TO.N,GND*%
X101678000Y-83679000D03*
%TO.P,C44,2*%
%TO.N,CAMERA_1.5V*%
X103228000Y-83679000D03*
%TD*%
D17*
%TO.P,C45,1*%
%TO.N,GND*%
X89358300Y-71751500D03*
%TO.P,C45,2*%
%TO.N,+3.3VA*%
X87808300Y-71751500D03*
%TD*%
D19*
%TO.P,C30,1*%
%TO.N,+3.3VA*%
X101248000Y-47384000D03*
%TO.P,C30,2*%
%TO.N,GND*%
X101248000Y-46424000D03*
%TD*%
D22*
%TO.P,U3,1,IN*%
%TO.N,+3.3VA*%
X92503000Y-76584000D03*
%TO.P,U3,2,GND*%
%TO.N,GND*%
X93453000Y-76584000D03*
%TO.P,U3,3,EN*%
%TO.N,+3.3VA*%
X94403000Y-76584000D03*
%TO.P,U3,4,NC*%
%TO.N,unconnected-(U3-NC-Pad4)*%
X94403000Y-78859000D03*
%TO.P,U3,5,Vout*%
%TO.N,CAMERA_2.8V*%
X92503000Y-78859000D03*
%TD*%
D23*
%TO.P,JP1,1,A*%
%TO.N,Net-(J2-AF-VCC)*%
X111973000Y-83272000D03*
%TO.P,JP1,2,B*%
%TO.N,+3.3VA*%
X110673000Y-83272000D03*
%TD*%
D24*
%TO.P,SW2,1,1*%
%TO.N,GND*%
X82562000Y-49945000D03*
%TO.P,SW2,2,2*%
%TO.N,/RST*%
X86880000Y-49945000D03*
%TD*%
D15*
%TO.P,C33,1*%
%TO.N,+3.3VA*%
X103303000Y-41524000D03*
%TO.P,C33,2*%
%TO.N,GND*%
X104853000Y-41524000D03*
%TD*%
D22*
%TO.P,U5,1,IN*%
%TO.N,+3.3VA*%
X88108000Y-76584000D03*
%TO.P,U5,2,GND*%
%TO.N,GND*%
X89058000Y-76584000D03*
%TO.P,U5,3,EN*%
%TO.N,+3.3VA*%
X90008000Y-76584000D03*
%TO.P,U5,4,NC*%
%TO.N,unconnected-(U5-NC-Pad4)*%
X90008000Y-78859000D03*
%TO.P,U5,5,Vout*%
%TO.N,CAMERA_1.5V*%
X88108000Y-78859000D03*
%TD*%
D15*
%TO.P,C50,1*%
%TO.N,CAMERA_2.8V*%
X92678000Y-80591500D03*
%TO.P,C50,2*%
%TO.N,GND*%
X94228000Y-80591500D03*
%TD*%
D17*
%TO.P,C46,1*%
%TO.N,GND*%
X93753000Y-73301500D03*
%TO.P,C46,2*%
%TO.N,+3.3VA*%
X92203000Y-73301500D03*
%TD*%
D25*
%TO.P,IC1,A1,VSS_1*%
%TO.N,GND*%
X110015988Y-51603000D03*
%TO.P,IC1,A2,DQ15*%
%TO.N,/FMC_D15*%
X110015988Y-50803000D03*
%TO.P,IC1,A3,VSSQ_1*%
%TO.N,GND*%
X110015988Y-50003000D03*
%TO.P,IC1,A7,VDDQ_1*%
%TO.N,+3.3VA*%
X110015988Y-46803000D03*
%TO.P,IC1,A8,DQ0*%
%TO.N,/FMC_D1*%
X110015988Y-46003000D03*
%TO.P,IC1,A9,VDD_1*%
%TO.N,+3.3VA*%
X110015988Y-45203000D03*
%TO.P,IC1,B1,DQ14*%
%TO.N,/FMC_D13*%
X109215988Y-51603000D03*
%TO.P,IC1,B2,DQ13*%
%TO.N,/FMC_D14*%
X109215988Y-50803000D03*
%TO.P,IC1,B3,VDDQ_2*%
%TO.N,+3.3VA*%
X109215988Y-50003000D03*
%TO.P,IC1,B7,VSSQ_2*%
%TO.N,GND*%
X109215988Y-46803000D03*
%TO.P,IC1,B8,DQ2*%
%TO.N,/FMC_D0*%
X109215988Y-46003000D03*
%TO.P,IC1,B9,DQ1*%
%TO.N,/FMC_D2*%
X109215988Y-45203000D03*
%TO.P,IC1,C1,DQ12*%
%TO.N,/FMC_D11*%
X108415988Y-51603000D03*
%TO.P,IC1,C2,DQ11*%
%TO.N,/FMC_D12*%
X108415988Y-50803000D03*
%TO.P,IC1,C3,VSSQ_3*%
%TO.N,GND*%
X108415988Y-50003000D03*
%TO.P,IC1,C7,VDDQ_3*%
%TO.N,+3.3VA*%
X108415988Y-46803000D03*
%TO.P,IC1,C8,DQ4*%
%TO.N,/FMC_D7*%
X108415988Y-46003000D03*
%TO.P,IC1,C9,DQ3*%
%TO.N,/FMC_D3*%
X108415988Y-45203000D03*
%TO.P,IC1,D1,DQ10*%
%TO.N,/FMC_D9*%
X107615988Y-51603000D03*
%TO.P,IC1,D2,DQ9*%
%TO.N,/FMC_D10*%
X107615988Y-50803000D03*
%TO.P,IC1,D3,VDDQ_4*%
%TO.N,+3.3VA*%
X107615988Y-50003000D03*
%TO.P,IC1,D7,VSSQ_4*%
%TO.N,GND*%
X107615988Y-46803000D03*
%TO.P,IC1,D8,DQ6*%
%TO.N,/FMC_D6*%
X107615988Y-46003000D03*
%TO.P,IC1,D9,DQ5*%
%TO.N,/FMC_D5*%
X107615988Y-45203000D03*
%TO.P,IC1,E1,DQ8*%
%TO.N,/FMC_D8*%
X106815988Y-51603000D03*
%TO.P,IC1,E2,NC*%
%TO.N,unconnected-(IC1-NC-PadE2)*%
X106815988Y-50803000D03*
%TO.P,IC1,E3,VSS_2*%
%TO.N,GND*%
X106815988Y-50003000D03*
%TO.P,IC1,E7,VDD_2*%
%TO.N,+3.3VA*%
X106815988Y-46803000D03*
%TO.P,IC1,E8,LDQM*%
%TO.N,/FMC_NBL0*%
X106815988Y-46003000D03*
%TO.P,IC1,E9,DQ7*%
%TO.N,/FMC_D4*%
X106815988Y-45203000D03*
%TO.P,IC1,F1,UDQM*%
%TO.N,/FMC_NBL1*%
X106015988Y-51603000D03*
%TO.P,IC1,F2,CLK*%
%TO.N,/FMC_SDCLK*%
X106015988Y-50803000D03*
%TO.P,IC1,F3,CKE*%
%TO.N,/FMC_SDCKE0*%
X106015988Y-50003000D03*
%TO.P,IC1,F7,~{CAS}*%
%TO.N,/FMC_SDNCAS*%
X106015988Y-46803000D03*
%TO.P,IC1,F8,~{RAS}*%
%TO.N,/FMC_SDNRAS*%
X106015988Y-46003000D03*
%TO.P,IC1,F9,~{WE}*%
%TO.N,/FMC_SDNWE*%
X106015988Y-45203000D03*
%TO.P,IC1,G1,A12*%
%TO.N,/FMC_A9*%
X105215988Y-51603000D03*
%TO.P,IC1,G2,A11*%
%TO.N,/FMC_A10*%
X105215988Y-50803000D03*
%TO.P,IC1,G3,A9*%
%TO.N,/FMC_A12*%
X105215988Y-50003000D03*
%TO.P,IC1,G7,BS0*%
%TO.N,/FMC_BS0*%
X105215988Y-46803000D03*
%TO.P,IC1,G8,BS1*%
%TO.N,/FMC_BS1*%
X105215988Y-46003000D03*
%TO.P,IC1,G9,~{CS}*%
%TO.N,/FMC_SDNE0*%
X105215988Y-45203000D03*
%TO.P,IC1,H1,A8*%
%TO.N,/FMC_A7*%
X104415988Y-51603000D03*
%TO.P,IC1,H2,A7*%
%TO.N,/FMC_A8*%
X104415988Y-50803000D03*
%TO.P,IC1,H3,A6*%
%TO.N,/FMC_A6*%
X104415988Y-50003000D03*
%TO.P,IC1,H7,A0*%
%TO.N,/FMC_A3*%
X104415988Y-46803000D03*
%TO.P,IC1,H8,A1*%
%TO.N,/FMC_A11*%
X104415988Y-46003000D03*
%TO.P,IC1,H9,A10*%
%TO.N,/FMC_A0*%
X104415988Y-45203000D03*
%TO.P,IC1,J1,VSS_3*%
%TO.N,GND*%
X103615988Y-51603000D03*
%TO.P,IC1,J2,A5*%
%TO.N,/FMC_A5*%
X103615988Y-50803000D03*
%TO.P,IC1,J3,A4*%
%TO.N,/FMC_A4*%
X103615988Y-50003000D03*
%TO.P,IC1,J7,A3*%
%TO.N,/FMC_A2*%
X103615988Y-46803000D03*
%TO.P,IC1,J8,A2*%
%TO.N,/FMC_A1*%
X103615988Y-46003000D03*
%TO.P,IC1,J9,VDD_3*%
%TO.N,+3.3VA*%
X103615988Y-45203000D03*
%TD*%
D15*
%TO.P,C38,1*%
%TO.N,GND*%
X98710000Y-83679000D03*
%TO.P,C38,2*%
%TO.N,CAMERA_2.8V*%
X100260000Y-83679000D03*
%TD*%
%TO.P,C43,1*%
%TO.N,GND*%
X101678000Y-82129000D03*
%TO.P,C43,2*%
%TO.N,CAMERA_1.5V*%
X103228000Y-82129000D03*
%TD*%
%TO.P,C49,1*%
%TO.N,CAMERA_1.5V*%
X88283000Y-80591500D03*
%TO.P,C49,2*%
%TO.N,GND*%
X89833000Y-80591500D03*
%TD*%
D19*
%TO.P,C2,1*%
%TO.N,/RST*%
X88280000Y-49945000D03*
%TO.P,C2,2*%
%TO.N,GND*%
X88280000Y-48985000D03*
%TD*%
D26*
%TO.N,GND*%
X82673000Y-59534000D03*
X86343000Y-59534000D03*
D27*
X101079000Y-73954000D03*
D28*
X107615988Y-46803000D03*
D29*
X101678000Y-82129000D03*
X123313500Y-78446000D03*
D27*
X97151000Y-36707000D03*
D26*
X86343000Y-67534000D03*
D27*
X91666000Y-53603000D03*
D30*
X113708000Y-51724000D03*
D31*
X106203000Y-78384000D03*
D27*
X92626000Y-48203000D03*
D29*
X89327999Y-61539000D03*
X119812000Y-72606000D03*
X98710000Y-82129000D03*
D27*
X118678488Y-46653000D03*
D28*
X110015988Y-50003000D03*
D29*
X106196000Y-82590000D03*
D30*
X83906000Y-49945000D03*
D29*
X89327999Y-53539000D03*
D27*
X92830988Y-42153000D03*
X98335988Y-60593000D03*
D29*
X97503000Y-76704000D03*
X89358300Y-71751500D03*
D30*
X124088500Y-74388500D03*
D27*
X105295988Y-36213000D03*
D26*
X82673000Y-67534000D03*
D27*
X119005988Y-39980000D03*
X93668000Y-57251000D03*
D30*
X120587000Y-74388500D03*
D27*
X94625988Y-46923000D03*
X120262000Y-39089000D03*
D30*
X104853000Y-41524000D03*
D27*
X119005988Y-52383000D03*
D30*
X126088000Y-45219000D03*
D28*
X103618000Y-51604000D03*
D27*
X112368000Y-46424000D03*
D29*
X89833000Y-80591500D03*
D27*
X98560000Y-36460000D03*
D26*
X127233000Y-63534000D03*
D27*
X88280000Y-48985000D03*
X109835988Y-60593000D03*
D29*
X94228000Y-80591500D03*
X112403000Y-76704000D03*
D27*
X100318000Y-48409000D03*
D28*
X108418000Y-50004000D03*
D27*
X94628000Y-59211000D03*
D26*
X123063000Y-65534000D03*
D29*
X93753000Y-71751500D03*
D26*
X86343000Y-69534000D03*
X123063000Y-63534000D03*
D27*
X104835988Y-60593000D03*
X94628000Y-54624000D03*
X115239000Y-62369000D03*
X100026000Y-36213000D03*
X116488000Y-60103000D03*
D29*
X119812000Y-78446000D03*
D27*
X110295988Y-36213000D03*
D29*
X123313500Y-72606000D03*
D26*
X86343000Y-57534000D03*
D27*
X101248000Y-50394000D03*
X99538000Y-74002000D03*
D26*
X127233000Y-65534000D03*
D28*
X110015988Y-51603000D03*
D27*
X108163000Y-81247000D03*
D28*
X106815988Y-50003000D03*
D26*
X82673000Y-69534000D03*
D28*
X109218000Y-46814000D03*
D27*
X101248000Y-46424000D03*
X110968000Y-42854000D03*
%TO.N,/RST*%
X97600000Y-51317000D03*
%TO.N,+3.3V*%
X94380988Y-42153000D03*
X94625988Y-47883000D03*
X104335988Y-36213000D03*
X97151000Y-37667000D03*
X105795988Y-60593000D03*
X119005988Y-51423000D03*
X119005988Y-39020000D03*
X116278488Y-46153000D03*
X93638000Y-56271000D03*
D29*
X89327999Y-59539000D03*
D27*
X116488000Y-59143000D03*
X110795988Y-60593000D03*
X94625988Y-53723000D03*
D29*
X121362000Y-78446000D03*
D27*
X109335988Y-36213000D03*
X99295988Y-60593000D03*
D29*
%TO.N,VCC*%
X89327999Y-67539000D03*
D31*
%TO.N,/DCMI_PIXCLK*%
X107203000Y-78384000D03*
D27*
X100565988Y-60215500D03*
D31*
X107203000Y-73052000D03*
D27*
%TO.N,/SWCLK*%
X115565988Y-38849000D03*
%TO.N,/SWDIO*%
X116360000Y-41153000D03*
%TO.N,/LTE_reset*%
X127233000Y-58534000D03*
X116199000Y-56653000D03*
D30*
X127233000Y-61534000D03*
D27*
X119883000Y-56653000D03*
%TO.N,/LTE_pwrkey*%
X119883000Y-57649000D03*
D30*
X123063000Y-61534000D03*
D27*
X117478488Y-57649000D03*
X123063000Y-58534000D03*
D31*
%TO.N,/DCMI_VSYNC*%
X108065988Y-38890500D03*
X106203000Y-75810000D03*
%TO.N,/DCMI_D7*%
X104703000Y-78384000D03*
X97303488Y-41653000D03*
%TO.N,/DCMI_D2*%
X109703000Y-80384000D03*
X118628488Y-44653000D03*
%TO.N,/DCMI_D4*%
X94153488Y-40653000D03*
X107703000Y-80384000D03*
%TO.N,/DCMI_D6*%
X95003488Y-41153000D03*
X105703000Y-80384000D03*
%TO.N,/DCMI_D1*%
X116328488Y-45153000D03*
X109203000Y-78384000D03*
%TO.N,/DCMI_D0*%
X118628488Y-45653000D03*
X108203000Y-78384000D03*
%TO.N,/DCMI_D3*%
X119283000Y-44153000D03*
X108703000Y-80384000D03*
%TO.N,/DCMI_D5*%
X106703000Y-80384000D03*
X111565988Y-38890500D03*
D28*
%TO.N,/FMC_SDCKE0*%
X106015988Y-50003000D03*
X104678000Y-48884000D03*
X97358000Y-53734000D03*
%TO.N,/FMC_A3*%
X104415988Y-46803000D03*
X97358000Y-45902000D03*
%TO.N,/FMC_A9*%
X105215988Y-51603000D03*
X106958000Y-57934000D03*
%TO.N,/FMC_D10*%
X112348000Y-57934000D03*
%TO.N,/FMC_D1*%
X110015988Y-46003000D03*
%TO.N,/FMC_A6*%
X104558000Y-57934000D03*
X104415988Y-50003000D03*
%TO.N,/FMC_D6*%
X107615988Y-46003000D03*
%TO.N,/FMC_D12*%
X113548000Y-57934000D03*
%TO.N,/FMC_A8*%
X104415988Y-50803000D03*
X106349997Y-57934000D03*
%TO.N,/FMC_NBL1*%
X106015988Y-51603000D03*
%TO.N,/FMC_D0*%
X109215988Y-46003000D03*
%TO.N,/FMC_SDNRAS*%
X104008000Y-57934000D03*
X106015988Y-46003000D03*
%TO.N,/FMC_D2*%
X109215988Y-45203000D03*
%TO.N,/FMC_D11*%
X112948000Y-57934000D03*
%TO.N,/FMC_SDNE0*%
X97358000Y-53174000D03*
X105215988Y-45203000D03*
%TO.N,/FMC_A1*%
X97358000Y-44710000D03*
X103615988Y-46003000D03*
%TO.N,/FMC_SDNWE*%
X97358000Y-52154000D03*
X106015988Y-45203000D03*
%TO.N,/FMC_D3*%
X108415988Y-45203000D03*
%TO.N,/FMC_A4*%
X103615988Y-50003000D03*
X97358000Y-46498000D03*
%TO.N,/FMC_A10*%
X105215988Y-50803000D03*
X107566003Y-57934000D03*
%TO.N,/FMC_A11*%
X108174006Y-57934000D03*
X104415988Y-46003000D03*
%TO.N,/FMC_D15*%
X116308000Y-54074000D03*
%TO.N,/FMC_D8*%
X111168000Y-57934000D03*
%TO.N,/FMC_SDNCAS*%
X104058000Y-38874000D03*
X106015988Y-46803000D03*
%TO.N,/FMC_A5*%
X103615988Y-50803000D03*
X97358000Y-47094000D03*
%TO.N,/FMC_D14*%
X116308000Y-54624000D03*
%TO.N,/FMC_D13*%
X116308000Y-55154000D03*
%TO.N,/FMC_A7*%
X104415988Y-51603000D03*
X105741994Y-57934000D03*
%TO.N,/FMC_A0*%
X104415988Y-45203000D03*
X97358000Y-44114000D03*
%TO.N,/FMC_D5*%
X107615988Y-45203000D03*
%TO.N,/FMC_D4*%
X106815988Y-45203000D03*
%TO.N,/FMC_NBL0*%
X106815988Y-46003000D03*
X99943000Y-38889000D03*
%TO.N,/FMC_D7*%
X108415988Y-46003000D03*
%TO.N,/FMC_A2*%
X103615988Y-46803000D03*
X97358000Y-45306000D03*
%TO.N,/FMC_SDCLK*%
X116308000Y-47184000D03*
D27*
%TO.N,/CAM_SCL*%
X113107000Y-63649000D03*
D31*
X101203000Y-78384000D03*
X101203000Y-76332000D03*
D27*
%TO.N,/CAM_SDA*%
X114138000Y-63649000D03*
D28*
%TO.N,/FMC_A12*%
X116308000Y-50154000D03*
X105215988Y-50003000D03*
%TO.N,/FMC_D9*%
X111748000Y-57934000D03*
%TO.N,/FMC_BS1*%
X116308000Y-48514000D03*
X105215988Y-46003000D03*
%TO.N,/FMC_BS0*%
X105215988Y-46803000D03*
X116308000Y-49124000D03*
D27*
%TO.N,+3.3VA*%
X112378000Y-47384000D03*
D29*
X110673000Y-83272000D03*
D27*
X112087000Y-63649000D03*
D30*
X113698000Y-49139000D03*
D29*
X92203000Y-71751500D03*
D30*
X103315500Y-41536500D03*
X94403000Y-76584000D03*
D29*
X104646000Y-84140000D03*
X124863500Y-78446000D03*
D27*
X110008000Y-42854000D03*
X101278000Y-48409000D03*
D30*
X90008000Y-76584000D03*
D27*
X97550000Y-74962000D03*
X101248000Y-47384000D03*
D29*
X87808300Y-71751500D03*
D27*
X115158000Y-63649000D03*
%TO.N,/I2C1_SDA*%
X101565988Y-38991000D03*
D30*
X82673000Y-51534000D03*
D27*
%TO.N,/I2C1_SCL*%
X102065988Y-36386000D03*
D30*
X82673000Y-53534000D03*
D31*
%TO.N,/DCMI_HSYNC*%
X103203000Y-68822000D03*
D27*
X99565988Y-57915500D03*
D31*
X103203000Y-77900000D03*
D30*
%TO.N,/USART2_TX*%
X89028000Y-63539000D03*
%TO.N,/USART2_RX*%
X93023000Y-63583000D03*
D31*
%TO.N,/RCC_MCO_1*%
X118628488Y-43653000D03*
%TO.N,/camera/reset*%
X101752000Y-77600000D03*
%TO.N,/camera/pwdnb*%
X102703000Y-78450962D03*
D29*
%TO.N,CAMERA_2.8V*%
X92678000Y-80591500D03*
X100260000Y-83679000D03*
%TD*%
D32*
%TO.N,GND*%
X98710000Y-82129000D02*
X98710000Y-81714000D01*
X104558000Y-41819000D02*
X104853000Y-41524000D01*
X98710000Y-83679000D02*
X98710000Y-82129000D01*
X93453000Y-75151500D02*
X93753000Y-74851500D01*
X89058000Y-75151800D02*
X89358300Y-74851500D01*
D33*
X89358300Y-73301500D02*
X89358300Y-71751500D01*
X93753000Y-73301500D02*
X93753000Y-71751500D01*
D32*
X112368000Y-50394000D02*
X113403000Y-50394000D01*
X113708000Y-51724000D02*
X113708000Y-50699000D01*
X101678000Y-82129000D02*
X101678000Y-81714000D01*
X104558000Y-42854000D02*
X104558000Y-41819000D01*
X106196000Y-82175000D02*
X105331000Y-81310000D01*
X83906000Y-49945000D02*
X82562000Y-49945000D01*
X93453000Y-76584000D02*
X93453000Y-75151500D01*
D33*
X89358300Y-74851500D02*
X89358300Y-73301500D01*
D32*
X101678000Y-83679000D02*
X101678000Y-82129000D01*
D34*
X99703000Y-79384000D02*
X99703000Y-80721000D01*
D32*
X89058000Y-76584000D02*
X89058000Y-75151800D01*
D34*
X106203000Y-79384000D02*
X106203000Y-78384000D01*
D32*
X98710000Y-81714000D02*
X99575000Y-80849000D01*
X106196000Y-82590000D02*
X106196000Y-82175000D01*
D33*
X93753000Y-74851500D02*
X93753000Y-73301500D01*
D32*
X106196000Y-84140000D02*
X106196000Y-82590000D01*
X113403000Y-50394000D02*
X113698000Y-50689000D01*
X101678000Y-81714000D02*
X102543000Y-80849000D01*
D35*
%TO.N,/RST*%
X97600000Y-51317000D02*
X96228000Y-49945000D01*
X86880000Y-49945000D02*
X88280000Y-49945000D01*
X96228000Y-49945000D02*
X88280000Y-49945000D01*
D36*
%TO.N,/DCMI_PIXCLK*%
X107203000Y-81247000D02*
X107203000Y-79384000D01*
X107203000Y-79384000D02*
X107203000Y-78384000D01*
D35*
%TO.N,/SWCLK*%
X85245000Y-54784000D02*
X88000000Y-57539000D01*
X85245000Y-42969000D02*
X85245000Y-54784000D01*
X88648000Y-39566000D02*
X85245000Y-42969000D01*
X115565988Y-38849000D02*
X114848988Y-39566000D01*
X114848988Y-39566000D02*
X88648000Y-39566000D01*
%TO.N,/SWDIO*%
X85646000Y-53091000D02*
X88094000Y-55539000D01*
X115174000Y-39967000D02*
X88872000Y-39967000D01*
X116360000Y-41153000D02*
X115174000Y-39967000D01*
X88872000Y-39967000D02*
X85646000Y-43193000D01*
X85646000Y-43193000D02*
X85646000Y-53091000D01*
%TO.N,/LTE_reset*%
X116199000Y-56653000D02*
X119883000Y-56653000D01*
X127233000Y-58534000D02*
X127233000Y-61534000D01*
%TO.N,/LTE_pwrkey*%
X117478488Y-57649000D02*
X119883000Y-57649000D01*
X123063000Y-58534000D02*
X123063000Y-61534000D01*
D36*
%TO.N,/DCMI_VSYNC*%
X102203000Y-78008000D02*
X102203000Y-79384000D01*
X106203000Y-75810000D02*
X104401000Y-75810000D01*
X104401000Y-75810000D02*
X102203000Y-78008000D01*
%TO.N,/DCMI_D7*%
X104703000Y-78384000D02*
X104703000Y-79384000D01*
%TO.N,/DCMI_D2*%
X109703000Y-79384000D02*
X109703000Y-80384000D01*
%TO.N,/DCMI_D4*%
X107703000Y-79384000D02*
X107703000Y-80384000D01*
%TO.N,/DCMI_D6*%
X105703000Y-79384000D02*
X105703000Y-80384000D01*
%TO.N,/DCMI_D1*%
X109203000Y-79384000D02*
X109203000Y-78384000D01*
%TO.N,/DCMI_D0*%
X108203000Y-79384000D02*
X108203000Y-78384000D01*
%TO.N,/DCMI_D3*%
X108703000Y-79384000D02*
X108703000Y-80384000D01*
%TO.N,/DCMI_D5*%
X106703000Y-79384000D02*
X106703000Y-80384000D01*
D37*
%TO.N,/FMC_D10*%
X108048000Y-51235012D02*
X108048000Y-53494000D01*
X108048000Y-53494000D02*
X112368000Y-57814000D01*
X107615988Y-50803000D02*
X108048000Y-51235012D01*
%TO.N,/FMC_D12*%
X113548000Y-57834000D02*
X113548000Y-57794000D01*
X108751988Y-52997988D02*
X108751988Y-51139000D01*
X108751988Y-51139000D02*
X108415988Y-50803000D01*
X113548000Y-57794000D02*
X108751988Y-52997988D01*
%TO.N,/FMC_D11*%
X108415988Y-53221988D02*
X108415988Y-51603000D01*
X112968000Y-57824000D02*
X112968000Y-57774000D01*
X112968000Y-57774000D02*
X108415988Y-53221988D01*
%TO.N,/FMC_D15*%
X113541546Y-54074000D02*
X116308000Y-54074000D01*
X110015988Y-50803000D02*
X110270546Y-50803000D01*
X110270546Y-50803000D02*
X113541546Y-54074000D01*
%TO.N,/FMC_D8*%
X106815988Y-53521988D02*
X111178000Y-57884000D01*
X106815988Y-51603000D02*
X106815988Y-53521988D01*
%TO.N,/FMC_D14*%
X110128000Y-51144000D02*
X110131000Y-51147000D01*
X110131000Y-51147000D02*
X110204870Y-51147000D01*
X110204870Y-51147000D02*
X113681870Y-54624000D01*
X109556988Y-51144000D02*
X110128000Y-51144000D01*
X109215988Y-50803000D02*
X109556988Y-51144000D01*
X113681870Y-54624000D02*
X116308000Y-54624000D01*
%TO.N,/FMC_D13*%
X109215988Y-51603000D02*
X112766988Y-55154000D01*
X112766988Y-55154000D02*
X116318000Y-55154000D01*
%TO.N,/FMC_SDCLK*%
X108808000Y-50224000D02*
X108808000Y-49935812D01*
X110529812Y-48214000D02*
X115348000Y-48214000D01*
X116308000Y-47254000D02*
X116308000Y-47184000D01*
X108658000Y-50374000D02*
X108808000Y-50224000D01*
X108808000Y-49935812D02*
X110529812Y-48214000D01*
X106015988Y-50803000D02*
X106444988Y-50374000D01*
X115348000Y-48214000D02*
X116308000Y-47254000D01*
X106444988Y-50374000D02*
X108658000Y-50374000D01*
D36*
%TO.N,/CAM_SCL*%
X113107000Y-64428000D02*
X113107000Y-63649000D01*
X101203000Y-76332000D02*
X113107000Y-64428000D01*
X101203000Y-79384000D02*
X101203000Y-78384000D01*
%TO.N,/CAM_SDA*%
X114138000Y-64473000D02*
X114138000Y-63649000D01*
X100203000Y-78408000D02*
X114138000Y-64473000D01*
X100203000Y-79384000D02*
X100203000Y-78408000D01*
D37*
%TO.N,/FMC_D9*%
X107615988Y-53691988D02*
X111748000Y-57824000D01*
X111748000Y-57824000D02*
X111748000Y-57854000D01*
X107615988Y-51603000D02*
X107615988Y-53691988D01*
D32*
%TO.N,+3.3VA*%
X88108000Y-75151200D02*
X87808300Y-74851500D01*
D34*
X106234988Y-47384000D02*
X106815988Y-46803000D01*
X104203000Y-81142000D02*
X104371000Y-81310000D01*
X104203000Y-79384000D02*
X104203000Y-81142000D01*
D32*
X104646000Y-84140000D02*
X104646000Y-82590000D01*
X104646000Y-82590000D02*
X104371000Y-82315000D01*
D34*
X110015988Y-46803000D02*
X110616988Y-47404000D01*
X103615988Y-45203000D02*
X103615988Y-42851988D01*
X110616988Y-47404000D02*
X112358000Y-47404000D01*
D32*
X92503000Y-76584000D02*
X92503000Y-75151500D01*
D34*
X110015988Y-45203000D02*
X110015988Y-42861988D01*
X108415988Y-46803000D02*
X106934988Y-48284000D01*
D32*
X113403000Y-49434000D02*
X113698000Y-49139000D01*
X104371000Y-82315000D02*
X104371000Y-81310000D01*
D33*
X92203000Y-71751500D02*
X92203000Y-73301500D01*
X92203000Y-73301500D02*
X92203000Y-74851500D01*
D34*
X101278000Y-48409000D02*
X101278000Y-49404000D01*
X107046988Y-49434000D02*
X107615988Y-50003000D01*
D32*
X88108000Y-76584000D02*
X88108000Y-75151200D01*
X92503000Y-75151500D02*
X92203000Y-74851500D01*
D34*
X106934988Y-48284000D02*
X101403000Y-48284000D01*
D33*
X87808300Y-71751500D02*
X87808300Y-73301500D01*
X87808300Y-73301500D02*
X87808300Y-74851500D01*
D32*
X112368000Y-49434000D02*
X113403000Y-49434000D01*
D34*
X112358000Y-49434000D02*
X109784988Y-49434000D01*
X101278000Y-47384000D02*
X106234988Y-47384000D01*
X109784988Y-49434000D02*
X109215988Y-50003000D01*
D32*
X103598000Y-42854000D02*
X103598000Y-41819000D01*
D34*
X101248000Y-49434000D02*
X107046988Y-49434000D01*
D32*
X103598000Y-41819000D02*
X103315500Y-41536500D01*
D36*
%TO.N,/DCMI_HSYNC*%
X103203000Y-79384000D02*
X103203000Y-77900000D01*
D35*
%TO.N,/USART2_RX*%
X93023000Y-63583000D02*
X91067000Y-65539000D01*
X91067000Y-65539000D02*
X88728000Y-65539000D01*
%TO.N,Net-(J2-STROBE)*%
X99203000Y-79384000D02*
X99203000Y-75191000D01*
X99203000Y-75191000D02*
X97253000Y-73241000D01*
X97253000Y-73241000D02*
X97253000Y-71107000D01*
D34*
%TO.N,Net-(J2-AF-VCC)*%
X111973000Y-78927000D02*
X111167000Y-78121000D01*
X110203000Y-78395000D02*
X110203000Y-79384000D01*
X111973000Y-83272000D02*
X111973000Y-78927000D01*
X110477000Y-78121000D02*
X110203000Y-78395000D01*
X111167000Y-78121000D02*
X110477000Y-78121000D01*
D36*
%TO.N,/RCC_MCO_1*%
X120462000Y-62792000D02*
X105203000Y-78051000D01*
X120462000Y-44416000D02*
X120462000Y-62792000D01*
X105203000Y-78051000D02*
X105203000Y-79384000D01*
X118628488Y-43653000D02*
X119699000Y-43653000D01*
X119699000Y-43653000D02*
X120462000Y-44416000D01*
D35*
%TO.N,/camera/reset*%
X101752000Y-79335000D02*
X101752000Y-77600000D01*
D36*
%TO.N,/camera/pwdnb*%
X102703000Y-79384000D02*
X102703000Y-78450962D01*
D32*
%TO.N,CAMERA_2.8V*%
X100260000Y-82129000D02*
X100535000Y-81854000D01*
X100260000Y-83679000D02*
X100260000Y-82129000D01*
D34*
X100703000Y-79384000D02*
X100703000Y-80681000D01*
X100703000Y-80681000D02*
X100535000Y-80849000D01*
D32*
X92503000Y-78859000D02*
X92503000Y-80416500D01*
X100535000Y-81854000D02*
X100535000Y-80849000D01*
%TO.N,CAMERA_1.5V*%
X103503000Y-81854000D02*
X103503000Y-80849000D01*
D34*
X103703000Y-79384000D02*
X103703000Y-80649000D01*
X103703000Y-80649000D02*
X103503000Y-80849000D01*
D32*
X102320000Y-84741000D02*
X103228000Y-83833000D01*
X103228000Y-83679000D02*
X103228000Y-82129000D01*
X88283000Y-80591500D02*
X88283000Y-81749000D01*
X88108000Y-78859000D02*
X88108000Y-80416500D01*
X88283000Y-81749000D02*
X91275000Y-84741000D01*
X103228000Y-82129000D02*
X103503000Y-81854000D01*
X91275000Y-84741000D02*
X102320000Y-84741000D01*
%TD*%
M02*
