%TF.GenerationSoftware,KiCad,Pcbnew,9.0.6*%
%TF.CreationDate,2026-01-26T21:26:12+01:00*%
%TF.ProjectId,cansat-camera-pcb,63616e73-6174-42d6-9361-6d6572612d70,1.1*%
%TF.SameCoordinates,Original*%
%TF.FileFunction,Copper,L1,Top*%
%TF.FilePolarity,Positive*%
%FSLAX46Y46*%
G04 Gerber Fmt 4.6, Leading zero omitted, Abs format (unit mm)*
G04 Created by KiCad (PCBNEW 9.0.6) date 2026-01-26 21:26:12*
%MOMM*%
%LPD*%
G01*
G04 APERTURE LIST*
G04 Aperture macros list*
%AMRoundRect*
0 Rectangle with rounded corners*
0 $1 Rounding radius*
0 $2 $3 $4 $5 $6 $7 $8 $9 X,Y pos of 4 corners*
0 Add a 4 corners polygon primitive as box body*
4,1,4,$2,$3,$4,$5,$6,$7,$8,$9,$2,$3,0*
0 Add four circle primitives for the rounded corners*
1,1,$1+$1,$2,$3*
1,1,$1+$1,$4,$5*
1,1,$1+$1,$6,$7*
1,1,$1+$1,$8,$9*
0 Add four rect primitives between the rounded corners*
20,1,$1+$1,$2,$3,$4,$5,0*
20,1,$1+$1,$4,$5,$6,$7,0*
20,1,$1+$1,$6,$7,$8,$9,0*
20,1,$1+$1,$8,$9,$2,$3,0*%
G04 Aperture macros list end*
%TA.AperFunction,SMDPad,CuDef*%
%ADD10RoundRect,0.140000X0.170000X-0.140000X0.170000X0.140000X-0.170000X0.140000X-0.170000X-0.140000X0*%
%TD*%
%TA.AperFunction,SMDPad,CuDef*%
%ADD11RoundRect,0.200000X0.275000X-0.200000X0.275000X0.200000X-0.275000X0.200000X-0.275000X-0.200000X0*%
%TD*%
%TA.AperFunction,SMDPad,CuDef*%
%ADD12RoundRect,0.218750X0.256250X-0.218750X0.256250X0.218750X-0.256250X0.218750X-0.256250X-0.218750X0*%
%TD*%
%TA.AperFunction,SMDPad,CuDef*%
%ADD13RoundRect,0.140000X-0.140000X-0.170000X0.140000X-0.170000X0.140000X0.170000X-0.140000X0.170000X0*%
%TD*%
%TA.AperFunction,SMDPad,CuDef*%
%ADD14RoundRect,0.135000X-0.135000X-0.185000X0.135000X-0.185000X0.135000X0.185000X-0.135000X0.185000X0*%
%TD*%
%TA.AperFunction,SMDPad,CuDef*%
%ADD15RoundRect,0.140000X0.140000X0.170000X-0.140000X0.170000X-0.140000X-0.170000X0.140000X-0.170000X0*%
%TD*%
%TA.AperFunction,SMDPad,CuDef*%
%ADD16RoundRect,0.150000X-0.150000X0.512500X-0.150000X-0.512500X0.150000X-0.512500X0.150000X0.512500X0*%
%TD*%
%TA.AperFunction,SMDPad,CuDef*%
%ADD17RoundRect,0.250000X0.350000X-0.450000X0.350000X0.450000X-0.350000X0.450000X-0.350000X-0.450000X0*%
%TD*%
%TA.AperFunction,SMDPad,CuDef*%
%ADD18RoundRect,0.140000X-0.170000X0.140000X-0.170000X-0.140000X0.170000X-0.140000X0.170000X0.140000X0*%
%TD*%
%TA.AperFunction,SMDPad,CuDef*%
%ADD19RoundRect,0.135000X0.135000X0.185000X-0.135000X0.185000X-0.135000X-0.185000X0.135000X-0.185000X0*%
%TD*%
%TA.AperFunction,SMDPad,CuDef*%
%ADD20RoundRect,0.225000X0.225000X0.250000X-0.225000X0.250000X-0.225000X-0.250000X0.225000X-0.250000X0*%
%TD*%
%TA.AperFunction,SMDPad,CuDef*%
%ADD21RoundRect,0.225000X-0.225000X-0.250000X0.225000X-0.250000X0.225000X0.250000X-0.225000X0.250000X0*%
%TD*%
%TA.AperFunction,SMDPad,CuDef*%
%ADD22RoundRect,0.225000X-0.250000X0.225000X-0.250000X-0.225000X0.250000X-0.225000X0.250000X0.225000X0*%
%TD*%
%TA.AperFunction,SMDPad,CuDef*%
%ADD23R,2.580000X1.000000*%
%TD*%
%TA.AperFunction,SMDPad,CuDef*%
%ADD24RoundRect,0.075000X-0.662500X-0.075000X0.662500X-0.075000X0.662500X0.075000X-0.662500X0.075000X0*%
%TD*%
%TA.AperFunction,SMDPad,CuDef*%
%ADD25RoundRect,0.075000X-0.075000X-0.662500X0.075000X-0.662500X0.075000X0.662500X-0.075000X0.662500X0*%
%TD*%
%TA.AperFunction,ViaPad*%
%ADD26C,1.000000*%
%TD*%
%TA.AperFunction,ViaPad*%
%ADD27C,0.500000*%
%TD*%
%TA.AperFunction,ViaPad*%
%ADD28C,0.400000*%
%TD*%
%TA.AperFunction,ViaPad*%
%ADD29C,0.800000*%
%TD*%
%TA.AperFunction,ViaPad*%
%ADD30C,0.600000*%
%TD*%
%TA.AperFunction,ViaPad*%
%ADD31C,0.450000*%
%TD*%
%TA.AperFunction,Conductor*%
%ADD32C,0.300000*%
%TD*%
%TA.AperFunction,Conductor*%
%ADD33C,0.800000*%
%TD*%
%TA.AperFunction,Conductor*%
%ADD34C,0.200000*%
%TD*%
%TA.AperFunction,Conductor*%
%ADD35C,0.500000*%
%TD*%
%TA.AperFunction,Conductor*%
%ADD36C,1.000000*%
%TD*%
%TA.AperFunction,Conductor*%
%ADD37C,0.150000*%
%TD*%
%TA.AperFunction,Conductor*%
%ADD38C,0.110000*%
%TD*%
%TA.AperFunction,Conductor*%
%ADD39C,0.126200*%
%TD*%
%TA.AperFunction,Conductor*%
%ADD40C,0.400000*%
%TD*%
G04 APERTURE END LIST*
D10*
%TO.P,C7,1*%
%TO.N,GND*%
X116488000Y-60103000D03*
%TO.P,C7,2*%
%TO.N,+3.3V*%
X116488000Y-59143000D03*
%TD*%
%TO.P,C8,1*%
%TO.N,GND*%
X94628000Y-54624000D03*
%TO.P,C8,2*%
%TO.N,+3.3V*%
X94628000Y-53664000D03*
%TD*%
D11*
%TO.P,R7,1*%
%TO.N,Net-(D1-K)*%
X126088000Y-46869000D03*
%TO.P,R7,2*%
%TO.N,GND*%
X126088000Y-45219000D03*
%TD*%
D10*
%TO.P,C10,1*%
%TO.N,GND*%
X119005988Y-39980000D03*
%TO.P,C10,2*%
%TO.N,+3.3V*%
X119005988Y-39020000D03*
%TD*%
D12*
%TO.P,D1,1,K*%
%TO.N,Net-(D1-K)*%
X123978000Y-46841500D03*
%TO.P,D1,2,A*%
%TO.N,Net-(D1-A)*%
X123978000Y-45266500D03*
%TD*%
D10*
%TO.P,C5,1*%
%TO.N,/camera/reset*%
X99538000Y-74962000D03*
%TO.P,C5,2*%
%TO.N,GND*%
X99538000Y-74002000D03*
%TD*%
D13*
%TO.P,C19,1*%
%TO.N,GND*%
X109835988Y-60593000D03*
%TO.P,C19,2*%
%TO.N,+3.3V*%
X110795988Y-60593000D03*
%TD*%
D14*
%TO.P,R1,1*%
%TO.N,+3.3V*%
X93638000Y-56271000D03*
%TO.P,R1,2*%
%TO.N,/VDDA_PIN*%
X94658000Y-56271000D03*
%TD*%
D15*
%TO.P,C9,1*%
%TO.N,GND*%
X110295988Y-36213000D03*
%TO.P,C9,2*%
%TO.N,+3.3V*%
X109335988Y-36213000D03*
%TD*%
D16*
%TO.P,U2,1,VIN*%
%TO.N,VCC*%
X121537000Y-74388500D03*
%TO.P,U2,2,GND*%
%TO.N,GND*%
X120587000Y-74388500D03*
%TO.P,U2,3,EN*%
%TO.N,VCC*%
X119637000Y-74388500D03*
%TO.P,U2,4,NC*%
%TO.N,unconnected-(U2-NC-Pad4)*%
X119637000Y-76663500D03*
%TO.P,U2,5,VOUT*%
%TO.N,+3.3V*%
X121537000Y-76663500D03*
%TD*%
D13*
%TO.P,C4,1*%
%TO.N,GND*%
X93668000Y-57251000D03*
%TO.P,C4,2*%
%TO.N,/VDDA_PIN*%
X94628000Y-57251000D03*
%TD*%
D17*
%TO.P,Y1,1,1*%
%TO.N,Net-(U4-PH1)*%
X92996000Y-52003000D03*
%TO.P,Y1,2,2*%
%TO.N,GND*%
X92996000Y-49803000D03*
%TO.P,Y1,3,3*%
%TO.N,Net-(U4-PH0)*%
X91296000Y-49803000D03*
%TO.P,Y1,4,4*%
%TO.N,GND*%
X91296000Y-52003000D03*
%TD*%
D18*
%TO.P,C20,1*%
%TO.N,GND*%
X97151000Y-36707000D03*
%TO.P,C20,2*%
%TO.N,+3.3V*%
X97151000Y-37667000D03*
%TD*%
D15*
%TO.P,C3,1*%
%TO.N,GND*%
X94628000Y-59211000D03*
%TO.P,C3,2*%
%TO.N,/VREF_PIN*%
X93668000Y-59211000D03*
%TD*%
D19*
%TO.P,R2,1*%
%TO.N,/VDDA_PIN*%
X94658000Y-58231000D03*
%TO.P,R2,2*%
%TO.N,/VREF_PIN*%
X93638000Y-58231000D03*
%TD*%
D13*
%TO.P,C18,1*%
%TO.N,GND*%
X98335988Y-60593000D03*
%TO.P,C18,2*%
%TO.N,+3.3V*%
X99295988Y-60593000D03*
%TD*%
%TO.P,C34,1*%
%TO.N,GND*%
X91666000Y-53603000D03*
%TO.P,C34,2*%
%TO.N,Net-(U4-PH1)*%
X92626000Y-53603000D03*
%TD*%
D20*
%TO.P,C16,1*%
%TO.N,VCC*%
X124863500Y-72606000D03*
%TO.P,C16,2*%
%TO.N,GND*%
X123313500Y-72606000D03*
%TD*%
D21*
%TO.P,C15,1*%
%TO.N,GND*%
X119812000Y-78446000D03*
%TO.P,C15,2*%
%TO.N,+3.3V*%
X121362000Y-78446000D03*
%TD*%
D22*
%TO.P,C35,1*%
%TO.N,Net-(C35-Pad1)*%
X115239000Y-60819000D03*
%TO.P,C35,2*%
%TO.N,GND*%
X115239000Y-62369000D03*
%TD*%
D23*
%TO.P,J4,1,Pin_1*%
%TO.N,/I2C1_SDA*%
X82673000Y-51534000D03*
%TO.P,J4,2,Pin_2*%
%TO.N,unconnected-(J4-Pin_2-Pad2)*%
X86843000Y-51534000D03*
%TO.P,J4,3,Pin_3*%
%TO.N,/I2C1_SCL*%
X82673000Y-53534000D03*
%TO.P,J4,4,Pin_4*%
%TO.N,unconnected-(J4-Pin_4-Pad4)*%
X86843000Y-53534000D03*
%TO.P,J4,5,Pin_5*%
%TO.N,unconnected-(J4-Pin_5-Pad5)*%
X82673000Y-55534000D03*
%TO.P,J4,6,Pin_6*%
%TO.N,GND*%
X86843000Y-55534000D03*
%TO.P,J4,7,Pin_7*%
%TO.N,unconnected-(J4-Pin_7-Pad7)*%
X82673000Y-57534000D03*
%TO.P,J4,8,Pin_8*%
%TO.N,GND*%
X86843000Y-57534000D03*
%TO.P,J4,9,Pin_9*%
X82673000Y-59534000D03*
%TO.P,J4,10,Pin_10*%
X86843000Y-59534000D03*
%TO.P,J4,11,Pin_11*%
%TO.N,unconnected-(J4-Pin_11-Pad11)*%
X82673000Y-61534000D03*
%TO.P,J4,12,Pin_12*%
%TO.N,unconnected-(J4-Pin_12-Pad12)*%
X86843000Y-61534000D03*
%TO.P,J4,13,Pin_13*%
%TO.N,unconnected-(J4-Pin_13-Pad13)*%
X82673000Y-63534000D03*
%TO.P,J4,14,Pin_14*%
%TO.N,unconnected-(J4-Pin_14-Pad14)*%
X86843000Y-63534000D03*
%TO.P,J4,15,Pin_15*%
%TO.N,USB_DN*%
X82673000Y-65534000D03*
%TO.P,J4,16,Pin_16*%
%TO.N,USB_DP*%
X86843000Y-65534000D03*
%TO.P,J4,17,Pin_17*%
%TO.N,GND*%
X82673000Y-67534000D03*
%TO.P,J4,18,Pin_18*%
X86843000Y-67534000D03*
%TO.P,J4,19,Pin_19*%
X82673000Y-69534000D03*
%TO.P,J4,20,Pin_20*%
X86843000Y-69534000D03*
%TD*%
D19*
%TO.P,R3,1*%
%TO.N,/camera/reset*%
X98570000Y-74962000D03*
%TO.P,R3,2*%
%TO.N,+3.3VA*%
X97550000Y-74962000D03*
%TD*%
D23*
%TO.P,J5,1,Pin_1*%
%TO.N,unconnected-(J5-Pin_1-Pad1)*%
X123063000Y-51534000D03*
%TO.P,J5,2,Pin_2*%
%TO.N,unconnected-(J5-Pin_2-Pad2)*%
X127233000Y-51534000D03*
%TO.P,J5,3,Pin_3*%
%TO.N,unconnected-(J5-Pin_3-Pad3)*%
X123063000Y-53534000D03*
%TO.P,J5,4,Pin_4*%
%TO.N,unconnected-(J5-Pin_4-Pad4)*%
X127233000Y-53534000D03*
%TO.P,J5,5,Pin_5*%
%TO.N,unconnected-(J5-Pin_5-Pad5)*%
X123063000Y-55534000D03*
%TO.P,J5,6,Pin_6*%
%TO.N,unconnected-(J5-Pin_6-Pad6)*%
X127233000Y-55534000D03*
%TO.P,J5,7,Pin_7*%
%TO.N,unconnected-(J5-Pin_7-Pad7)*%
X123063000Y-57534000D03*
%TO.P,J5,8,Pin_8*%
%TO.N,unconnected-(J5-Pin_8-Pad8)*%
X127233000Y-57534000D03*
%TO.P,J5,9,Pin_9*%
%TO.N,VCC*%
X123063000Y-59534000D03*
%TO.P,J5,10,Pin_10*%
X127233000Y-59534000D03*
%TO.P,J5,11,Pin_11*%
%TO.N,/LTE_pwrkey*%
X123063000Y-61534000D03*
%TO.P,J5,12,Pin_12*%
%TO.N,/LTE_reset*%
X127233000Y-61534000D03*
%TO.P,J5,13,Pin_13*%
%TO.N,GND*%
X123063000Y-63534000D03*
%TO.P,J5,14,Pin_14*%
X127233000Y-63534000D03*
%TO.P,J5,15,Pin_15*%
X123063000Y-65534000D03*
%TO.P,J5,16,Pin_16*%
X127233000Y-65534000D03*
%TO.P,J5,17,Pin_17*%
%TO.N,unconnected-(J5-Pin_17-Pad17)*%
X123063000Y-67534000D03*
%TO.P,J5,18,Pin_18*%
%TO.N,unconnected-(J5-Pin_18-Pad18)*%
X127233000Y-67534000D03*
%TO.P,J5,19,Pin_19*%
%TO.N,unconnected-(J5-Pin_19-Pad19)*%
X123063000Y-69534000D03*
%TO.P,J5,20,Pin_20*%
%TO.N,unconnected-(J5-Pin_20-Pad20)*%
X127233000Y-69534000D03*
%TD*%
D16*
%TO.P,U1,1,VIN*%
%TO.N,VCC*%
X125038500Y-74388500D03*
%TO.P,U1,2,GND*%
%TO.N,GND*%
X124088500Y-74388500D03*
%TO.P,U1,3,EN*%
%TO.N,VCC*%
X123138500Y-74388500D03*
%TO.P,U1,4,NC*%
%TO.N,unconnected-(U1-NC-Pad4)*%
X123138500Y-76663500D03*
%TO.P,U1,5,VOUT*%
%TO.N,+3.3VA*%
X125038500Y-76663500D03*
%TD*%
D18*
%TO.P,C21,1*%
%TO.N,GND*%
X94625988Y-46923000D03*
%TO.P,C21,2*%
%TO.N,+3.3V*%
X94625988Y-47883000D03*
%TD*%
D21*
%TO.P,C17,1*%
%TO.N,GND*%
X123313500Y-78446000D03*
%TO.P,C17,2*%
%TO.N,+3.3VA*%
X124863500Y-78446000D03*
%TD*%
%TO.P,C13,1*%
%TO.N,GND*%
X92830988Y-42153000D03*
%TO.P,C13,2*%
%TO.N,+3.3V*%
X94380988Y-42153000D03*
%TD*%
D13*
%TO.P,C1,1*%
%TO.N,Net-(U4-PH0)*%
X91666000Y-48203000D03*
%TO.P,C1,2*%
%TO.N,GND*%
X92626000Y-48203000D03*
%TD*%
D22*
%TO.P,C36,1*%
%TO.N,GND*%
X120262000Y-39089000D03*
%TO.P,C36,2*%
%TO.N,Net-(C36-Pad2)*%
X120262000Y-40639000D03*
%TD*%
D10*
%TO.P,C11,1*%
%TO.N,GND*%
X119005988Y-52383000D03*
%TO.P,C11,2*%
%TO.N,+3.3V*%
X119005988Y-51423000D03*
%TD*%
D14*
%TO.P,R14,1*%
%TO.N,GND*%
X100026000Y-36213000D03*
%TO.P,R14,2*%
%TO.N,/BOOT0*%
X101046000Y-36213000D03*
%TD*%
D19*
%TO.P,R6,1*%
%TO.N,/camera/pwdnb*%
X102099000Y-73954000D03*
%TO.P,R6,2*%
%TO.N,GND*%
X101079000Y-73954000D03*
%TD*%
D20*
%TO.P,C14,1*%
%TO.N,VCC*%
X121362000Y-72606000D03*
%TO.P,C14,2*%
%TO.N,GND*%
X119812000Y-72606000D03*
%TD*%
D24*
%TO.P,U4,1,PE2*%
%TO.N,unconnected-(U4-PE2-Pad1)*%
X96153488Y-39653000D03*
%TO.P,U4,2,PE3*%
%TO.N,unconnected-(U4-PE3-Pad2)*%
X96153488Y-40153000D03*
%TO.P,U4,3,PE4*%
%TO.N,/DCMI_D4*%
X96153488Y-40653000D03*
%TO.P,U4,4,PE5*%
%TO.N,/DCMI_D6*%
X96153488Y-41153000D03*
%TO.P,U4,5,PE6*%
%TO.N,/DCMI_D7*%
X96153488Y-41653000D03*
%TO.P,U4,6,VBAT*%
%TO.N,+3.3V*%
X96153488Y-42153000D03*
%TO.P,U4,7,PC13*%
%TO.N,unconnected-(U4-PC13-Pad7)*%
X96153488Y-42653000D03*
%TO.P,U4,8,PC14*%
%TO.N,unconnected-(U4-PC14-Pad8)*%
X96153488Y-43153000D03*
%TO.P,U4,9,PC15*%
%TO.N,unconnected-(U4-PC15-Pad9)*%
X96153488Y-43653000D03*
%TO.P,U4,10,PF0*%
%TO.N,/FMC_A0*%
X96153488Y-44153000D03*
%TO.P,U4,11,PF1*%
%TO.N,/FMC_A1*%
X96153488Y-44653000D03*
%TO.P,U4,12,PF2*%
%TO.N,/FMC_A2*%
X96153488Y-45153000D03*
%TO.P,U4,13,PF3*%
%TO.N,/FMC_A3*%
X96153488Y-45653000D03*
%TO.P,U4,14,PF4*%
%TO.N,/FMC_A4*%
X96153488Y-46153000D03*
%TO.P,U4,15,PF5*%
%TO.N,/FMC_A5*%
X96153488Y-46653000D03*
%TO.P,U4,16,VSS*%
%TO.N,GND*%
X96153488Y-47153000D03*
%TO.P,U4,17,VDD*%
%TO.N,+3.3V*%
X96153488Y-47653000D03*
%TO.P,U4,18,PF6*%
%TO.N,unconnected-(U4-PF6-Pad18)*%
X96153488Y-48153000D03*
%TO.P,U4,19,PF7*%
%TO.N,unconnected-(U4-PF7-Pad19)*%
X96153488Y-48653000D03*
%TO.P,U4,20,PF8*%
%TO.N,unconnected-(U4-PF8-Pad20)*%
X96153488Y-49153000D03*
%TO.P,U4,21,PF9*%
%TO.N,unconnected-(U4-PF9-Pad21)*%
X96153488Y-49653000D03*
%TO.P,U4,22,PF10*%
%TO.N,unconnected-(U4-PF10-Pad22)*%
X96153488Y-50153000D03*
%TO.P,U4,23,PH0*%
%TO.N,Net-(U4-PH0)*%
X96153488Y-50653000D03*
%TO.P,U4,24,PH1*%
%TO.N,Net-(U4-PH1)*%
X96153488Y-51153000D03*
%TO.P,U4,25,NRST*%
%TO.N,/RST*%
X96153488Y-51653000D03*
%TO.P,U4,26,PC0*%
%TO.N,/FMC_SDNWE*%
X96153488Y-52153000D03*
%TO.P,U4,27,PC1*%
%TO.N,unconnected-(U4-PC1-Pad27)*%
X96153488Y-52653000D03*
%TO.P,U4,28,PC2_C*%
%TO.N,/FMC_SDNE0*%
X96153488Y-53153000D03*
%TO.P,U4,29,PC3_C*%
%TO.N,/FMC_SDCKE0*%
X96153488Y-53653000D03*
%TO.P,U4,30,VDD*%
%TO.N,+3.3V*%
X96153488Y-54153000D03*
%TO.P,U4,31,VSSA*%
%TO.N,GND*%
X96153488Y-54653000D03*
%TO.P,U4,32,VREF+*%
%TO.N,/VREF_PIN*%
X96153488Y-55153000D03*
%TO.P,U4,33,VDDA*%
%TO.N,/VDDA_PIN*%
X96153488Y-55653000D03*
%TO.P,U4,34,PA0*%
%TO.N,unconnected-(U4-PA0-Pad34)*%
X96153488Y-56153000D03*
%TO.P,U4,35,PA1*%
%TO.N,unconnected-(U4-PA1-Pad35)*%
X96153488Y-56653000D03*
%TO.P,U4,36,PA2*%
%TO.N,/USART2_TX*%
X96153488Y-57153000D03*
D25*
%TO.P,U4,37,PA3*%
%TO.N,/USART2_RX*%
X98065988Y-59065500D03*
%TO.P,U4,38,VSS*%
%TO.N,GND*%
X98565988Y-59065500D03*
%TO.P,U4,39,VDD*%
%TO.N,+3.3V*%
X99065988Y-59065500D03*
%TO.P,U4,40,PA4*%
%TO.N,/DCMI_HSYNC*%
X99565988Y-59065500D03*
%TO.P,U4,41,PA5*%
%TO.N,unconnected-(U4-PA5-Pad41)*%
X100065988Y-59065500D03*
%TO.P,U4,42,PA6*%
%TO.N,/DCMI_PIXCLK*%
X100565988Y-59065500D03*
%TO.P,U4,43,PA7*%
%TO.N,unconnected-(U4-PA7-Pad43)*%
X101065988Y-59065500D03*
%TO.P,U4,44,PC4*%
%TO.N,unconnected-(U4-PC4-Pad44)*%
X101565988Y-59065500D03*
%TO.P,U4,45,PC5*%
%TO.N,unconnected-(U4-PC5-Pad45)*%
X102065988Y-59065500D03*
%TO.P,U4,46,PB0*%
%TO.N,unconnected-(U4-PB0-Pad46)*%
X102565988Y-59065500D03*
%TO.P,U4,47,PB1*%
%TO.N,unconnected-(U4-PB1-Pad47)*%
X103065988Y-59065500D03*
%TO.P,U4,48,PB2*%
%TO.N,unconnected-(U4-PB2-Pad48)*%
X103565988Y-59065500D03*
%TO.P,U4,49,PF11*%
%TO.N,/FMC_SDNRAS*%
X104065988Y-59065500D03*
%TO.P,U4,50,PF12*%
%TO.N,/FMC_A6*%
X104565988Y-59065500D03*
%TO.P,U4,51,VSS*%
%TO.N,GND*%
X105065988Y-59065500D03*
%TO.P,U4,52,VDD*%
%TO.N,+3.3V*%
X105565988Y-59065500D03*
%TO.P,U4,53,PF13*%
%TO.N,/FMC_A7*%
X106065988Y-59065500D03*
%TO.P,U4,54,PF14*%
%TO.N,/FMC_A8*%
X106565988Y-59065500D03*
%TO.P,U4,55,PF15*%
%TO.N,/FMC_A9*%
X107065988Y-59065500D03*
%TO.P,U4,56,PG0*%
%TO.N,/FMC_A10*%
X107565988Y-59065500D03*
%TO.P,U4,57,PG1*%
%TO.N,/FMC_A11*%
X108065988Y-59065500D03*
%TO.P,U4,58,PE7*%
%TO.N,/FMC_D4*%
X108565988Y-59065500D03*
%TO.P,U4,59,PE8*%
%TO.N,/FMC_D5*%
X109065988Y-59065500D03*
%TO.P,U4,60,PE9*%
%TO.N,/FMC_D6*%
X109565988Y-59065500D03*
%TO.P,U4,61,VSS*%
%TO.N,GND*%
X110065988Y-59065500D03*
%TO.P,U4,62,VDD*%
%TO.N,+3.3V*%
X110565988Y-59065500D03*
%TO.P,U4,63,PE10*%
%TO.N,/FMC_D7*%
X111065988Y-59065500D03*
%TO.P,U4,64,PE11*%
%TO.N,/FMC_D8*%
X111565988Y-59065500D03*
%TO.P,U4,65,PE12*%
%TO.N,/FMC_D9*%
X112065988Y-59065500D03*
%TO.P,U4,66,PE13*%
%TO.N,/FMC_D10*%
X112565988Y-59065500D03*
%TO.P,U4,67,PE14*%
%TO.N,/FMC_D11*%
X113065988Y-59065500D03*
%TO.P,U4,68,PE15*%
%TO.N,/FMC_D12*%
X113565988Y-59065500D03*
%TO.P,U4,69,PB10*%
%TO.N,/CAM_SCL*%
X114065988Y-59065500D03*
%TO.P,U4,70,PB11*%
%TO.N,/CAM_SDA*%
X114565988Y-59065500D03*
%TO.P,U4,71,VCAP*%
%TO.N,Net-(C35-Pad1)*%
X115065988Y-59065500D03*
%TO.P,U4,72,VDD*%
%TO.N,+3.3V*%
X115565988Y-59065500D03*
D24*
%TO.P,U4,73,PB12*%
%TO.N,/LTE_pwrkey*%
X117478488Y-57153000D03*
%TO.P,U4,74,PB13*%
%TO.N,/LTE_reset*%
X117478488Y-56653000D03*
%TO.P,U4,75,PB14*%
%TO.N,USB_DN*%
X117478488Y-56153000D03*
%TO.P,U4,76,PB15*%
%TO.N,USB_DP*%
X117478488Y-55653000D03*
%TO.P,U4,77,PD8*%
%TO.N,/FMC_D13*%
X117478488Y-55153000D03*
%TO.P,U4,78,PD9*%
%TO.N,/FMC_D14*%
X117478488Y-54653000D03*
%TO.P,U4,79,PD10*%
%TO.N,/FMC_D15*%
X117478488Y-54153000D03*
%TO.P,U4,80,PD11*%
%TO.N,unconnected-(U4-PD11-Pad80)*%
X117478488Y-53653000D03*
%TO.P,U4,81,PD12*%
%TO.N,unconnected-(U4-PD12-Pad81)*%
X117478488Y-53153000D03*
%TO.P,U4,82,PD13*%
%TO.N,unconnected-(U4-PD13-Pad82)*%
X117478488Y-52653000D03*
%TO.P,U4,83,VSS*%
%TO.N,GND*%
X117478488Y-52153000D03*
%TO.P,U4,84,VDD*%
%TO.N,+3.3V*%
X117478488Y-51653000D03*
%TO.P,U4,85,PD14*%
%TO.N,/FMC_D0*%
X117478488Y-51153000D03*
%TO.P,U4,86,PD15*%
%TO.N,/FMC_D1*%
X117478488Y-50653000D03*
%TO.P,U4,87,PG2*%
%TO.N,/FMC_A12*%
X117478488Y-50153000D03*
%TO.P,U4,88,PG3*%
%TO.N,unconnected-(U4-PG3-Pad88)*%
X117478488Y-49653000D03*
%TO.P,U4,89,PG4*%
%TO.N,/FMC_BS0*%
X117478488Y-49153000D03*
%TO.P,U4,90,PG5*%
%TO.N,/FMC_BS1*%
X117478488Y-48653000D03*
%TO.P,U4,91,PG6*%
%TO.N,unconnected-(U4-PG6-Pad91)*%
X117478488Y-48153000D03*
%TO.P,U4,92,PG7*%
%TO.N,unconnected-(U4-PG7-Pad92)*%
X117478488Y-47653000D03*
%TO.P,U4,93,PG8*%
%TO.N,/FMC_SDCLK*%
X117478488Y-47153000D03*
%TO.P,U4,94,VSS*%
%TO.N,GND*%
X117478488Y-46653000D03*
%TO.P,U4,95,VDD33_USB*%
%TO.N,+3.3V*%
X117478488Y-46153000D03*
%TO.P,U4,96,PC6*%
%TO.N,/DCMI_D0*%
X117478488Y-45653000D03*
%TO.P,U4,97,PC7*%
%TO.N,/DCMI_D1*%
X117478488Y-45153000D03*
%TO.P,U4,98,PC8*%
%TO.N,/DCMI_D2*%
X117478488Y-44653000D03*
%TO.P,U4,99,PC9*%
%TO.N,/DCMI_D3*%
X117478488Y-44153000D03*
%TO.P,U4,100,PA8*%
%TO.N,/RCC_MCO_1*%
X117478488Y-43653000D03*
%TO.P,U4,101,PA9*%
%TO.N,unconnected-(U4-PA9-Pad101)*%
X117478488Y-43153000D03*
%TO.P,U4,102,PA10*%
%TO.N,unconnected-(U4-PA10-Pad102)*%
X117478488Y-42653000D03*
%TO.P,U4,103,PA11*%
%TO.N,Net-(D1-A)*%
X117478488Y-42153000D03*
%TO.P,U4,104,PA12*%
%TO.N,unconnected-(U4-PA12-Pad104)*%
X117478488Y-41653000D03*
%TO.P,U4,105,PA13*%
%TO.N,/SWDIO*%
X117478488Y-41153000D03*
%TO.P,U4,106,VCAP*%
%TO.N,Net-(C36-Pad2)*%
X117478488Y-40653000D03*
%TO.P,U4,107,VSS*%
%TO.N,GND*%
X117478488Y-40153000D03*
%TO.P,U4,108,VDD*%
%TO.N,+3.3V*%
X117478488Y-39653000D03*
D25*
%TO.P,U4,109,PA14*%
%TO.N,/SWCLK*%
X115565988Y-37740500D03*
%TO.P,U4,110,PA15*%
%TO.N,unconnected-(U4-PA15-Pad110)*%
X115065988Y-37740500D03*
%TO.P,U4,111,PC10*%
%TO.N,unconnected-(U4-PC10-Pad111)*%
X114565988Y-37740500D03*
%TO.P,U4,112,PC11*%
%TO.N,unconnected-(U4-PC11-Pad112)*%
X114065988Y-37740500D03*
%TO.P,U4,113,PC12*%
%TO.N,unconnected-(U4-PC12-Pad113)*%
X113565988Y-37740500D03*
%TO.P,U4,114,PD0*%
%TO.N,/FMC_D2*%
X113065988Y-37740500D03*
%TO.P,U4,115,PD1*%
%TO.N,/FMC_D3*%
X112565988Y-37740500D03*
%TO.P,U4,116,PD2*%
%TO.N,unconnected-(U4-PD2-Pad116)*%
X112065988Y-37740500D03*
%TO.P,U4,117,PD3*%
%TO.N,/DCMI_D5*%
X111565988Y-37740500D03*
%TO.P,U4,118,PD4*%
%TO.N,unconnected-(U4-PD4-Pad118)*%
X111065988Y-37740500D03*
%TO.P,U4,119,PD5*%
%TO.N,unconnected-(U4-PD5-Pad119)*%
X110565988Y-37740500D03*
%TO.P,U4,120,VSS*%
%TO.N,GND*%
X110065988Y-37740500D03*
%TO.P,U4,121,VDD*%
%TO.N,+3.3V*%
X109565988Y-37740500D03*
%TO.P,U4,122,PD6*%
%TO.N,unconnected-(U4-PD6-Pad122)*%
X109065988Y-37740500D03*
%TO.P,U4,123,PD7*%
%TO.N,unconnected-(U4-PD7-Pad123)*%
X108565988Y-37740500D03*
%TO.P,U4,124,PG9*%
%TO.N,/DCMI_VSYNC*%
X108065988Y-37740500D03*
%TO.P,U4,125,PG10*%
%TO.N,unconnected-(U4-PG10-Pad125)*%
X107565988Y-37740500D03*
%TO.P,U4,126,PG11*%
%TO.N,unconnected-(U4-PG11-Pad126)*%
X107065988Y-37740500D03*
%TO.P,U4,127,PG12*%
%TO.N,unconnected-(U4-PG12-Pad127)*%
X106565988Y-37740500D03*
%TO.P,U4,128,PG13*%
%TO.N,unconnected-(U4-PG13-Pad128)*%
X106065988Y-37740500D03*
%TO.P,U4,129,PG14*%
%TO.N,unconnected-(U4-PG14-Pad129)*%
X105565988Y-37740500D03*
%TO.P,U4,130,VSS*%
%TO.N,GND*%
X105065988Y-37740500D03*
%TO.P,U4,131,VDD*%
%TO.N,+3.3V*%
X104565988Y-37740500D03*
%TO.P,U4,132,PG15*%
%TO.N,/FMC_SDNCAS*%
X104065988Y-37740500D03*
%TO.P,U4,133,PB3*%
%TO.N,unconnected-(U4-PB3-Pad133)*%
X103565988Y-37740500D03*
%TO.P,U4,134,PB4*%
%TO.N,unconnected-(U4-PB4-Pad134)*%
X103065988Y-37740500D03*
%TO.P,U4,135,PB5*%
%TO.N,unconnected-(U4-PB5-Pad135)*%
X102565988Y-37740500D03*
%TO.P,U4,136,PB6*%
%TO.N,/I2C1_SCL*%
X102065988Y-37740500D03*
%TO.P,U4,137,PB7*%
%TO.N,/I2C1_SDA*%
X101565988Y-37740500D03*
%TO.P,U4,138,BOOT0*%
%TO.N,/BOOT0*%
X101065988Y-37740500D03*
%TO.P,U4,139,PB8*%
%TO.N,unconnected-(U4-PB8-Pad139)*%
X100565988Y-37740500D03*
%TO.P,U4,140,PB9*%
%TO.N,unconnected-(U4-PB9-Pad140)*%
X100065988Y-37740500D03*
%TO.P,U4,141,PE0*%
%TO.N,/FMC_NBL0*%
X99565988Y-37740500D03*
%TO.P,U4,142,PE1*%
%TO.N,/FMC_NBL1*%
X99065988Y-37740500D03*
%TO.P,U4,143,PDR_ON*%
%TO.N,GND*%
X98565988Y-37740500D03*
%TO.P,U4,144,VDD*%
%TO.N,+3.3V*%
X98065988Y-37740500D03*
%TD*%
D15*
%TO.P,C22,1*%
%TO.N,GND*%
X105295988Y-36213000D03*
%TO.P,C22,2*%
%TO.N,+3.3V*%
X104335988Y-36213000D03*
%TD*%
D13*
%TO.P,C12,1*%
%TO.N,GND*%
X104835988Y-60593000D03*
%TO.P,C12,2*%
%TO.N,+3.3V*%
X105795988Y-60593000D03*
%TD*%
D26*
%TO.N,GND*%
X82673000Y-59534000D03*
X86343000Y-59534000D03*
D27*
X101079000Y-73954000D03*
D28*
X107615988Y-46803000D03*
D29*
X101678000Y-82129000D03*
X123313500Y-78446000D03*
D27*
X97151000Y-36707000D03*
D26*
X86343000Y-67534000D03*
D27*
X91666000Y-53603000D03*
D30*
X113708000Y-51724000D03*
D31*
X106203000Y-78384000D03*
D27*
X92626000Y-48203000D03*
D29*
X89327999Y-61539000D03*
X119812000Y-72606000D03*
X98710000Y-82129000D03*
D27*
X118678488Y-46653000D03*
D28*
X110015988Y-50003000D03*
D29*
X106196000Y-82590000D03*
D30*
X83906000Y-49945000D03*
D29*
X89327999Y-53539000D03*
D27*
X92830988Y-42153000D03*
X98335988Y-60593000D03*
D29*
X97503000Y-76704000D03*
X89358300Y-71751500D03*
D30*
X124088500Y-74388500D03*
D27*
X105295988Y-36213000D03*
D26*
X82673000Y-67534000D03*
D27*
X119005988Y-39980000D03*
X93668000Y-57251000D03*
D30*
X120587000Y-74388500D03*
D27*
X94625988Y-46923000D03*
X120262000Y-39089000D03*
D30*
X104853000Y-41524000D03*
D27*
X119005988Y-52383000D03*
D30*
X126088000Y-45219000D03*
D28*
X103618000Y-51604000D03*
D27*
X112368000Y-46424000D03*
D29*
X89833000Y-80591500D03*
D27*
X98560000Y-36460000D03*
D26*
X127233000Y-63534000D03*
D27*
X88280000Y-48985000D03*
X109835988Y-60593000D03*
D29*
X94228000Y-80591500D03*
X112403000Y-76704000D03*
D27*
X100318000Y-48409000D03*
D28*
X108418000Y-50004000D03*
D27*
X94628000Y-59211000D03*
D26*
X123063000Y-65534000D03*
D29*
X93753000Y-71751500D03*
D26*
X86343000Y-69534000D03*
X123063000Y-63534000D03*
D27*
X104835988Y-60593000D03*
X94628000Y-54624000D03*
X115239000Y-62369000D03*
X100026000Y-36213000D03*
X116488000Y-60103000D03*
D29*
X119812000Y-78446000D03*
D27*
X110295988Y-36213000D03*
D29*
X123313500Y-72606000D03*
D26*
X86343000Y-57534000D03*
D27*
X101248000Y-50394000D03*
X99538000Y-74002000D03*
D26*
X127233000Y-65534000D03*
D28*
X110015988Y-51603000D03*
D27*
X108163000Y-81247000D03*
D28*
X106815988Y-50003000D03*
D26*
X82673000Y-69534000D03*
D28*
X109218000Y-46814000D03*
D27*
X101248000Y-46424000D03*
X110968000Y-42854000D03*
%TO.N,/RST*%
X97600000Y-51317000D03*
%TO.N,+3.3V*%
X94380988Y-42153000D03*
X94625988Y-47883000D03*
X104335988Y-36213000D03*
X97151000Y-37667000D03*
X105795988Y-60593000D03*
X119005988Y-51423000D03*
X119005988Y-39020000D03*
X116278488Y-46153000D03*
X93638000Y-56271000D03*
D29*
X89327999Y-59539000D03*
D27*
X116488000Y-59143000D03*
X110795988Y-60593000D03*
X94625988Y-53723000D03*
D29*
X121362000Y-78446000D03*
D27*
X109335988Y-36213000D03*
X99295988Y-60593000D03*
D29*
%TO.N,VCC*%
X89327999Y-67539000D03*
D31*
%TO.N,/DCMI_PIXCLK*%
X107203000Y-78384000D03*
D27*
X100565988Y-60215500D03*
D31*
X107203000Y-73052000D03*
D27*
%TO.N,/SWCLK*%
X115565988Y-38849000D03*
%TO.N,/SWDIO*%
X116360000Y-41153000D03*
%TO.N,/LTE_reset*%
X127233000Y-58534000D03*
X116199000Y-56653000D03*
D30*
X127233000Y-61534000D03*
D27*
X119883000Y-56653000D03*
%TO.N,/LTE_pwrkey*%
X119883000Y-57649000D03*
D30*
X123063000Y-61534000D03*
D27*
X117478488Y-57649000D03*
X123063000Y-58534000D03*
D31*
%TO.N,/DCMI_VSYNC*%
X108065988Y-38890500D03*
X106203000Y-75810000D03*
%TO.N,/DCMI_D7*%
X104703000Y-78384000D03*
X97303488Y-41653000D03*
%TO.N,/DCMI_D2*%
X109703000Y-80384000D03*
X118628488Y-44653000D03*
%TO.N,/DCMI_D4*%
X94153488Y-40653000D03*
X107703000Y-80384000D03*
%TO.N,/DCMI_D6*%
X95003488Y-41153000D03*
X105703000Y-80384000D03*
%TO.N,/DCMI_D1*%
X116328488Y-45153000D03*
X109203000Y-78384000D03*
%TO.N,/DCMI_D0*%
X118628488Y-45653000D03*
X108203000Y-78384000D03*
%TO.N,/DCMI_D3*%
X119283000Y-44153000D03*
X108703000Y-80384000D03*
%TO.N,/DCMI_D5*%
X106703000Y-80384000D03*
X111565988Y-38890500D03*
D28*
%TO.N,/FMC_SDCKE0*%
X106015988Y-50003000D03*
X104678000Y-48884000D03*
X97358000Y-53734000D03*
%TO.N,/FMC_A3*%
X104415988Y-46803000D03*
X97358000Y-45902000D03*
%TO.N,/FMC_A9*%
X105215988Y-51603000D03*
X106958000Y-57934000D03*
%TO.N,/FMC_D10*%
X112348000Y-57934000D03*
%TO.N,/FMC_D1*%
X110015988Y-46003000D03*
%TO.N,/FMC_A6*%
X104558000Y-57934000D03*
X104415988Y-50003000D03*
%TO.N,/FMC_D6*%
X107615988Y-46003000D03*
%TO.N,/FMC_D12*%
X113548000Y-57934000D03*
%TO.N,/FMC_A8*%
X104415988Y-50803000D03*
X106349997Y-57934000D03*
%TO.N,/FMC_NBL1*%
X106015988Y-51603000D03*
%TO.N,/FMC_D0*%
X109215988Y-46003000D03*
%TO.N,/FMC_SDNRAS*%
X104008000Y-57934000D03*
X106015988Y-46003000D03*
%TO.N,/FMC_D2*%
X109215988Y-45203000D03*
%TO.N,/FMC_D11*%
X112948000Y-57934000D03*
%TO.N,/FMC_SDNE0*%
X97358000Y-53174000D03*
X105215988Y-45203000D03*
%TO.N,/FMC_A1*%
X97358000Y-44710000D03*
X103615988Y-46003000D03*
%TO.N,/FMC_SDNWE*%
X97358000Y-52154000D03*
X106015988Y-45203000D03*
%TO.N,/FMC_D3*%
X108415988Y-45203000D03*
%TO.N,/FMC_A4*%
X103615988Y-50003000D03*
X97358000Y-46498000D03*
%TO.N,/FMC_A10*%
X105215988Y-50803000D03*
X107566003Y-57934000D03*
%TO.N,/FMC_A11*%
X108174006Y-57934000D03*
X104415988Y-46003000D03*
%TO.N,/FMC_D15*%
X116308000Y-54074000D03*
%TO.N,/FMC_D8*%
X111168000Y-57934000D03*
%TO.N,/FMC_SDNCAS*%
X104058000Y-38874000D03*
X106015988Y-46803000D03*
%TO.N,/FMC_A5*%
X103615988Y-50803000D03*
X97358000Y-47094000D03*
%TO.N,/FMC_D14*%
X116308000Y-54624000D03*
%TO.N,/FMC_D13*%
X116308000Y-55154000D03*
%TO.N,/FMC_A7*%
X104415988Y-51603000D03*
X105741994Y-57934000D03*
%TO.N,/FMC_A0*%
X104415988Y-45203000D03*
X97358000Y-44114000D03*
%TO.N,/FMC_D5*%
X107615988Y-45203000D03*
%TO.N,/FMC_D4*%
X106815988Y-45203000D03*
%TO.N,/FMC_NBL0*%
X106815988Y-46003000D03*
X99943000Y-38889000D03*
%TO.N,/FMC_D7*%
X108415988Y-46003000D03*
%TO.N,/FMC_A2*%
X103615988Y-46803000D03*
X97358000Y-45306000D03*
%TO.N,/FMC_SDCLK*%
X116308000Y-47184000D03*
D27*
%TO.N,/CAM_SCL*%
X113107000Y-63649000D03*
D31*
X101203000Y-78384000D03*
X101203000Y-76332000D03*
D27*
%TO.N,/CAM_SDA*%
X114138000Y-63649000D03*
D28*
%TO.N,/FMC_A12*%
X116308000Y-50154000D03*
X105215988Y-50003000D03*
%TO.N,/FMC_D9*%
X111748000Y-57934000D03*
%TO.N,/FMC_BS1*%
X116308000Y-48514000D03*
X105215988Y-46003000D03*
%TO.N,/FMC_BS0*%
X105215988Y-46803000D03*
X116308000Y-49124000D03*
D27*
%TO.N,+3.3VA*%
X112378000Y-47384000D03*
D29*
X110673000Y-83272000D03*
D27*
X112087000Y-63649000D03*
D30*
X113698000Y-49139000D03*
D29*
X92203000Y-71751500D03*
D30*
X103315500Y-41536500D03*
X94403000Y-76584000D03*
D29*
X104646000Y-84140000D03*
X124863500Y-78446000D03*
D27*
X110008000Y-42854000D03*
X101278000Y-48409000D03*
D30*
X90008000Y-76584000D03*
D27*
X97550000Y-74962000D03*
X101248000Y-47384000D03*
D29*
X87808300Y-71751500D03*
D27*
X115158000Y-63649000D03*
%TO.N,/I2C1_SDA*%
X101565988Y-38991000D03*
D30*
X82673000Y-51534000D03*
D27*
%TO.N,/I2C1_SCL*%
X102065988Y-36386000D03*
D30*
X82673000Y-53534000D03*
D31*
%TO.N,/DCMI_HSYNC*%
X103203000Y-68822000D03*
D27*
X99565988Y-57915500D03*
D31*
X103203000Y-77900000D03*
D30*
%TO.N,/USART2_TX*%
X89028000Y-63539000D03*
%TO.N,/USART2_RX*%
X93023000Y-63583000D03*
D31*
%TO.N,/RCC_MCO_1*%
X118628488Y-43653000D03*
%TO.N,/camera/reset*%
X101752000Y-77600000D03*
%TO.N,/camera/pwdnb*%
X102703000Y-78450962D03*
D29*
%TO.N,CAMERA_2.8V*%
X92678000Y-80591500D03*
X100260000Y-83679000D03*
%TD*%
D32*
%TO.N,Net-(U4-PH1)*%
X93704000Y-52003000D02*
X92996000Y-52003000D01*
X94554000Y-51153000D02*
X93704000Y-52003000D01*
X96153488Y-51153000D02*
X94554000Y-51153000D01*
D33*
%TO.N,GND*%
X82673000Y-59534000D02*
X86843000Y-59534000D01*
X86843000Y-57534000D02*
X86843000Y-59534000D01*
X86843000Y-55534000D02*
X86843000Y-57534000D01*
D32*
X105065988Y-37740500D02*
X105065988Y-36443000D01*
X117478488Y-52153000D02*
X118775988Y-52153000D01*
X98565988Y-60363000D02*
X98335988Y-60593000D01*
X105065988Y-36443000D02*
X105295988Y-36213000D01*
X110065988Y-37740500D02*
X110065988Y-36443000D01*
X110065988Y-60363000D02*
X109835988Y-60593000D01*
X105065988Y-59065500D02*
X105065988Y-60363000D01*
X94655988Y-54653000D02*
X96153488Y-54653000D01*
X92626000Y-48203000D02*
X92626000Y-49433000D01*
X117478488Y-46653000D02*
X118678488Y-46653000D01*
X94855988Y-47153000D02*
X94625988Y-46923000D01*
X117478488Y-40153000D02*
X118832988Y-40153000D01*
X96153488Y-47153000D02*
X94855988Y-47153000D01*
X118832988Y-40153000D02*
X119005988Y-39980000D01*
X98565988Y-59065500D02*
X98565988Y-60363000D01*
X110065988Y-36443000D02*
X110295988Y-36213000D01*
X98565988Y-37740500D02*
X98565988Y-36465988D01*
X98565988Y-36465988D02*
X98560000Y-36460000D01*
X118775988Y-52153000D02*
X119005988Y-52383000D01*
X105065988Y-60363000D02*
X104835988Y-60593000D01*
X91666000Y-53603000D02*
X91666000Y-52373000D01*
X110065988Y-59065500D02*
X110065988Y-60363000D01*
%TO.N,Net-(U4-PH0)*%
X93567900Y-50864000D02*
X93562900Y-50869000D01*
X92253000Y-50869000D02*
X91296000Y-49912000D01*
X93562900Y-50869000D02*
X92253000Y-50869000D01*
X91666000Y-48203000D02*
X91666000Y-49433000D01*
X93898000Y-50864000D02*
X93567900Y-50864000D01*
X96153488Y-50653000D02*
X94109000Y-50653000D01*
X94109000Y-50653000D02*
X93898000Y-50864000D01*
D34*
%TO.N,/RST*%
X96202488Y-51604000D02*
X97313000Y-51604000D01*
X97313000Y-51604000D02*
X97600000Y-51317000D01*
D32*
%TO.N,/VREF_PIN*%
X94720000Y-55533000D02*
X95100000Y-55153000D01*
X95100000Y-55153000D02*
X96153488Y-55153000D01*
X93638000Y-58231000D02*
X92948000Y-57541000D01*
X93638000Y-58231000D02*
X93638000Y-59181000D01*
X93296000Y-55533000D02*
X94720000Y-55533000D01*
X92948000Y-57541000D02*
X92948000Y-55881000D01*
X92948000Y-55881000D02*
X93296000Y-55533000D01*
%TO.N,/VDDA_PIN*%
X94628000Y-57251000D02*
X94628000Y-58201000D01*
X94628000Y-57251000D02*
X94628000Y-56301000D01*
X95309000Y-55653000D02*
X96153488Y-55653000D01*
X94691000Y-56271000D02*
X95309000Y-55653000D01*
%TO.N,+3.3V*%
X104565988Y-37740500D02*
X104565988Y-36443000D01*
X117478488Y-51653000D02*
X118775988Y-51653000D01*
X94827000Y-53723000D02*
X94625988Y-53723000D01*
X105565988Y-59065500D02*
X105565988Y-60363000D01*
X115565988Y-59065500D02*
X116410500Y-59065500D01*
X109565988Y-36443000D02*
X109335988Y-36213000D01*
X94855988Y-47653000D02*
X94625988Y-47883000D01*
X99065988Y-59065500D02*
X99065988Y-60363000D01*
X95257000Y-54153000D02*
X94827000Y-53723000D01*
X110565988Y-60363000D02*
X110795988Y-60593000D01*
D35*
X121537000Y-76663500D02*
X121537000Y-78271000D01*
D32*
X99065988Y-60363000D02*
X99295988Y-60593000D01*
X109565988Y-37740500D02*
X109565988Y-36443000D01*
X96153488Y-42153000D02*
X94380988Y-42153000D01*
X117478488Y-46153000D02*
X116278488Y-46153000D01*
X118775988Y-51653000D02*
X119005988Y-51423000D01*
X105565988Y-60363000D02*
X105795988Y-60593000D01*
X104565988Y-36443000D02*
X104335988Y-36213000D01*
X96153488Y-54153000D02*
X95257000Y-54153000D01*
X96153488Y-47653000D02*
X94855988Y-47653000D01*
X110565988Y-59065500D02*
X110565988Y-60363000D01*
X118603000Y-39020000D02*
X117970000Y-39653000D01*
X119005988Y-39020000D02*
X118603000Y-39020000D01*
X98065988Y-37740500D02*
X97224500Y-37740500D01*
D33*
%TO.N,VCC*%
X120648000Y-60744000D02*
X120648000Y-67446000D01*
D35*
X123515500Y-75570500D02*
X124666500Y-75570500D01*
D33*
X89327999Y-67539000D02*
X120555000Y-67539000D01*
D35*
X119637000Y-75213000D02*
X119985000Y-75561000D01*
D33*
X121858000Y-59534000D02*
X120648000Y-60744000D01*
X120648000Y-67446000D02*
X120648000Y-70375000D01*
D35*
X119985000Y-75561000D02*
X121187000Y-75561000D01*
X121537000Y-74388500D02*
X121537000Y-72781000D01*
D33*
X120648000Y-70375000D02*
X121362000Y-71089000D01*
D35*
X125038500Y-75198500D02*
X125038500Y-74388500D01*
X121537000Y-75211000D02*
X121537000Y-74388500D01*
X123138500Y-75193500D02*
X123515500Y-75570500D01*
D33*
X124173000Y-71089000D02*
X124863500Y-71779500D01*
D36*
X127233000Y-59534000D02*
X123063000Y-59534000D01*
D33*
X124863500Y-71779500D02*
X124863500Y-72606000D01*
D35*
X125038500Y-74388500D02*
X125038500Y-72781000D01*
X123138500Y-74388500D02*
X123138500Y-75193500D01*
D33*
X121362000Y-71089000D02*
X124173000Y-71089000D01*
D35*
X121187000Y-75561000D02*
X121537000Y-75211000D01*
D33*
X120555000Y-67539000D02*
X120648000Y-67446000D01*
D35*
X124666500Y-75570500D02*
X125038500Y-75198500D01*
D33*
X121362000Y-72606000D02*
X121362000Y-71089000D01*
X123063000Y-59534000D02*
X121858000Y-59534000D01*
D35*
X119637000Y-74388500D02*
X119637000Y-75213000D01*
D32*
%TO.N,Net-(U4-PH1)*%
X92626000Y-53603000D02*
X92626000Y-52373000D01*
%TO.N,Net-(C35-Pad1)*%
X115065988Y-59065500D02*
X115065988Y-60645988D01*
%TO.N,Net-(C36-Pad2)*%
X117478488Y-40653000D02*
X120248000Y-40653000D01*
D37*
%TO.N,/DCMI_PIXCLK*%
X107203000Y-78384000D02*
X107203000Y-73052000D01*
X100565988Y-59065500D02*
X100565988Y-60215500D01*
D34*
%TO.N,/SWCLK*%
X115565988Y-37740500D02*
X115565988Y-38849000D01*
D32*
%TO.N,/BOOT0*%
X101065988Y-37740500D02*
X101065988Y-36232988D01*
D34*
%TO.N,/SWDIO*%
X116360000Y-41153000D02*
X117478488Y-41153000D01*
%TO.N,/LTE_reset*%
X125591000Y-58534000D02*
X127233000Y-58534000D01*
X124761000Y-56653000D02*
X125167000Y-57059000D01*
X125167000Y-57059000D02*
X125167000Y-58110000D01*
X117478488Y-56653000D02*
X116199000Y-56653000D01*
X119883000Y-56653000D02*
X124761000Y-56653000D01*
X125167000Y-58110000D02*
X125591000Y-58534000D01*
%TO.N,/LTE_pwrkey*%
X117478488Y-57649000D02*
X117478488Y-57153000D01*
X120768000Y-58534000D02*
X123063000Y-58534000D01*
X119883000Y-57649000D02*
X120768000Y-58534000D01*
D37*
%TO.N,/DCMI_VSYNC*%
X108065988Y-37740500D02*
X108065988Y-38890500D01*
%TO.N,/DCMI_D7*%
X97303488Y-41653000D02*
X96153488Y-41653000D01*
%TO.N,/DCMI_D2*%
X117478488Y-44653000D02*
X118628488Y-44653000D01*
%TO.N,/DCMI_D4*%
X96153488Y-40653000D02*
X94153488Y-40653000D01*
D34*
%TO.N,/DCMI_D6*%
X96153488Y-41153000D02*
X95003488Y-41153000D01*
%TO.N,/DCMI_D1*%
X116328488Y-45153000D02*
X117478488Y-45153000D01*
D37*
%TO.N,/DCMI_D0*%
X117478488Y-45653000D02*
X118628488Y-45653000D01*
%TO.N,/DCMI_D3*%
X117478488Y-44153000D02*
X119283000Y-44153000D01*
%TO.N,/DCMI_D5*%
X111565988Y-38890500D02*
X111565988Y-37740500D01*
D38*
%TO.N,/FMC_SDCKE0*%
X96153488Y-53653000D02*
X97277000Y-53653000D01*
X97277000Y-53653000D02*
X97358000Y-53734000D01*
%TO.N,/FMC_A3*%
X97017000Y-45653000D02*
X97348000Y-45984000D01*
X96153488Y-45653000D02*
X97017000Y-45653000D01*
%TO.N,/FMC_A9*%
X106988000Y-57964000D02*
X106958000Y-57934000D01*
X106988000Y-58987512D02*
X106988000Y-57964000D01*
%TO.N,/FMC_D10*%
X112348000Y-57934000D02*
X112428000Y-57934000D01*
X112428000Y-57934000D02*
X112565988Y-58071988D01*
X112565988Y-58071988D02*
X112565988Y-59065500D01*
%TO.N,/FMC_D1*%
X114357000Y-50653000D02*
X117478488Y-50653000D01*
X110015988Y-46311988D02*
X114357000Y-50653000D01*
X110015988Y-46003000D02*
X110015988Y-46311988D01*
%TO.N,/FMC_A6*%
X104565988Y-57941988D02*
X104558000Y-57934000D01*
X104565988Y-59065500D02*
X104565988Y-57941988D01*
%TO.N,/FMC_D6*%
X109565988Y-57451988D02*
X109565988Y-59065500D01*
X107615988Y-46003000D02*
X108062000Y-46449012D01*
X108062000Y-55948000D02*
X109565988Y-57451988D01*
X108062000Y-46449012D02*
X108062000Y-55948000D01*
%TO.N,/FMC_D12*%
X113565988Y-57871988D02*
X113565988Y-59065500D01*
%TO.N,/FMC_A8*%
X106565988Y-58149991D02*
X106349997Y-57934000D01*
X106565988Y-59065500D02*
X106565988Y-58149991D01*
%TO.N,/FMC_NBL1*%
X99065988Y-38549539D02*
X99065988Y-37740500D01*
X105659988Y-51247000D02*
X105659988Y-45143539D01*
X105659988Y-45143539D02*
X99065988Y-38549539D01*
X106015988Y-51603000D02*
X105659988Y-51247000D01*
%TO.N,/FMC_D0*%
X114407000Y-51153000D02*
X117478488Y-51153000D01*
X109257000Y-46003000D02*
X114407000Y-51153000D01*
X109215988Y-46003000D02*
X109257000Y-46003000D01*
%TO.N,/FMC_SDNRAS*%
X104065988Y-59065500D02*
X104065988Y-58021988D01*
X104065988Y-58021988D02*
X104008000Y-57964000D01*
%TO.N,/FMC_D2*%
X109228000Y-45190988D02*
X109228000Y-42474000D01*
X113065988Y-38636012D02*
X113065988Y-37740500D01*
X109228000Y-42474000D02*
X113065988Y-38636012D01*
X109215988Y-45203000D02*
X109228000Y-45190988D01*
%TO.N,/FMC_D11*%
X112948000Y-57934000D02*
X113065988Y-58051988D01*
X113065988Y-58051988D02*
X113065988Y-59065500D01*
%TO.N,/FMC_SDNE0*%
X97337000Y-53153000D02*
X97358000Y-53174000D01*
X96153488Y-53153000D02*
X97337000Y-53153000D01*
%TO.N,/FMC_A1*%
X96153488Y-44653000D02*
X97277000Y-44653000D01*
X97277000Y-44653000D02*
X97348000Y-44724000D01*
%TO.N,/FMC_SDNWE*%
X96153488Y-52153000D02*
X97357000Y-52153000D01*
X97357000Y-52153000D02*
X97358000Y-52154000D01*
%TO.N,/FMC_D3*%
X108415988Y-45203000D02*
X108415988Y-42796012D01*
X112565988Y-38646012D02*
X112565988Y-37740500D01*
X108415988Y-42796012D02*
X112565988Y-38646012D01*
%TO.N,/FMC_A4*%
X96153488Y-46153000D02*
X97013000Y-46153000D01*
X97013000Y-46153000D02*
X97358000Y-46498000D01*
%TO.N,/FMC_A10*%
X107565988Y-59065500D02*
X107565988Y-57934015D01*
X107565988Y-57934015D02*
X107566003Y-57934000D01*
%TO.N,/FMC_A11*%
X108118000Y-59013488D02*
X108118000Y-57990006D01*
X108118000Y-57990006D02*
X108174006Y-57934000D01*
%TO.N,/FMC_D15*%
X116387000Y-54153000D02*
X116308000Y-54074000D01*
X117478488Y-54153000D02*
X116387000Y-54153000D01*
%TO.N,/FMC_D8*%
X111565988Y-58331988D02*
X111168000Y-57934000D01*
X111565988Y-59065500D02*
X111565988Y-58331988D01*
%TO.N,/FMC_SDNCAS*%
X104065988Y-37740500D02*
X104065988Y-38866012D01*
X104065988Y-38866012D02*
X104058000Y-38874000D01*
%TO.N,/FMC_A5*%
X96153488Y-46653000D02*
X96917000Y-46653000D01*
X96917000Y-46653000D02*
X97358000Y-47094000D01*
%TO.N,/FMC_D14*%
X116498000Y-54634000D02*
X116488000Y-54624000D01*
X117459488Y-54634000D02*
X116498000Y-54634000D01*
%TO.N,/FMC_D13*%
X116489000Y-55153000D02*
X116488000Y-55154000D01*
X117478488Y-55153000D02*
X116489000Y-55153000D01*
%TO.N,/FMC_A7*%
X106065988Y-58257994D02*
X105741994Y-57934000D01*
X106065988Y-59065500D02*
X106065988Y-58257994D01*
%TO.N,/FMC_A0*%
X96153488Y-44153000D02*
X97309000Y-44153000D01*
X97309000Y-44153000D02*
X97348000Y-44114000D01*
%TO.N,/FMC_D5*%
X107259988Y-55665988D02*
X109065988Y-57471988D01*
X107259988Y-45559000D02*
X107259988Y-55665988D01*
X107615988Y-45203000D02*
X107259988Y-45559000D01*
X109065988Y-57471988D02*
X109065988Y-59065500D01*
%TO.N,/FMC_D4*%
X106815988Y-45203000D02*
X106388000Y-45630988D01*
X108565988Y-57511988D02*
X108565988Y-59065500D01*
X106388000Y-45630988D02*
X106388000Y-55334000D01*
X106388000Y-55334000D02*
X108565988Y-57511988D01*
%TO.N,/FMC_NBL0*%
X99873000Y-38889000D02*
X99565988Y-38581988D01*
X99565988Y-38581988D02*
X99565988Y-37740500D01*
X99943000Y-38889000D02*
X99873000Y-38889000D01*
%TO.N,/FMC_D7*%
X110971988Y-58297988D02*
X111065988Y-58391988D01*
X110971988Y-58263816D02*
X110971988Y-58297988D01*
X108774000Y-46361012D02*
X108774000Y-56100000D01*
X110746000Y-58072000D02*
X110780172Y-58072000D01*
X108774000Y-56100000D02*
X110746000Y-58072000D01*
X110780172Y-58072000D02*
X110971988Y-58263816D01*
X108415988Y-46003000D02*
X108774000Y-46361012D01*
%TO.N,/FMC_A2*%
X97187000Y-45153000D02*
X96153488Y-45153000D01*
X97313000Y-45279000D02*
X97187000Y-45153000D01*
%TO.N,/FMC_SDCLK*%
X117478488Y-47153000D02*
X116409000Y-47153000D01*
X116409000Y-47153000D02*
X116378000Y-47184000D01*
D34*
%TO.N,/CAM_SCL*%
X114065988Y-60038012D02*
X113107000Y-60997000D01*
X113107000Y-60997000D02*
X113107000Y-63649000D01*
X114065988Y-59065500D02*
X114065988Y-60038012D01*
D37*
X101203000Y-78384000D02*
X101203000Y-76332000D01*
D34*
%TO.N,/CAM_SDA*%
X114565988Y-59065500D02*
X114565988Y-60184012D01*
X114138000Y-60612000D02*
X114138000Y-63649000D01*
X114565988Y-60184012D02*
X114138000Y-60612000D01*
D38*
%TO.N,/FMC_A12*%
X117478488Y-50153000D02*
X116299000Y-50153000D01*
%TO.N,/FMC_D9*%
X112065988Y-58251988D02*
X112065988Y-59065500D01*
X111748000Y-57934000D02*
X112065988Y-58251988D01*
%TO.N,/FMC_BS1*%
X116447000Y-48653000D02*
X116308000Y-48514000D01*
X117478488Y-48653000D02*
X116447000Y-48653000D01*
%TO.N,/FMC_BS0*%
X117478488Y-49153000D02*
X116347000Y-49153000D01*
X116347000Y-49153000D02*
X116318000Y-49124000D01*
D39*
%TO.N,USB_DP*%
X119314700Y-56393778D02*
X118659222Y-55738300D01*
X87657000Y-65534000D02*
X88483300Y-64707700D01*
X119314700Y-61962222D02*
X119314700Y-56393778D01*
X118151288Y-55738300D02*
X118065988Y-55653000D01*
X116569222Y-64707700D02*
X119314700Y-61962222D01*
X98209185Y-65699940D02*
X98319185Y-65699940D01*
X97659185Y-64707700D02*
X97769185Y-64707700D01*
X98759185Y-64707700D02*
X116569222Y-64707700D01*
X97439185Y-65479929D02*
X97439185Y-64927700D01*
X97989185Y-64927700D02*
X97989185Y-65479940D01*
X118659222Y-55738300D02*
X118151288Y-55738300D01*
X97109185Y-65699929D02*
X97219185Y-65699929D01*
X98539185Y-65479940D02*
X98539185Y-64927700D01*
X96889185Y-64927700D02*
X96889185Y-65479929D01*
X88483300Y-64707700D02*
X96669185Y-64707700D01*
X96669185Y-64707700D02*
G75*
G02*
X96889200Y-64927700I15J-220000D01*
G01*
X97769185Y-64707700D02*
G75*
G02*
X97989200Y-64927700I15J-220000D01*
G01*
X97439185Y-64927700D02*
G75*
G02*
X97659185Y-64707685I220015J0D01*
G01*
X96889185Y-65479929D02*
G75*
G03*
X97109185Y-65699915I220015J29D01*
G01*
X98539185Y-64927700D02*
G75*
G02*
X98759185Y-64707685I220015J0D01*
G01*
X97989185Y-65479940D02*
G75*
G03*
X98209185Y-65699915I220015J40D01*
G01*
X97219185Y-65699929D02*
G75*
G03*
X97439229Y-65479929I15J220029D01*
G01*
X98319185Y-65699940D02*
G75*
G03*
X98539240Y-65479940I15J220040D01*
G01*
D35*
%TO.N,+3.3VA*%
X125038500Y-76663500D02*
X125038500Y-78271000D01*
D34*
%TO.N,/I2C1_SDA*%
X101565988Y-37740500D02*
X101565988Y-38991000D01*
%TO.N,/I2C1_SCL*%
X102065988Y-37740500D02*
X102065988Y-36386000D01*
D40*
%TO.N,Net-(D1-K)*%
X123978000Y-46841500D02*
X126060500Y-46841500D01*
D39*
%TO.N,USB_DN*%
X118985300Y-56530222D02*
X118985300Y-61825778D01*
X118151288Y-56067700D02*
X118522778Y-56067700D01*
X84621700Y-64378300D02*
X83466000Y-65534000D01*
X118065988Y-56153000D02*
X118151288Y-56067700D01*
X116432778Y-64378300D02*
X84621700Y-64378300D01*
X118522778Y-56067700D02*
X118985300Y-56530222D01*
X118985300Y-61825778D02*
X116432778Y-64378300D01*
D37*
%TO.N,/DCMI_HSYNC*%
X103203000Y-77900000D02*
X103203000Y-68822000D01*
X99565988Y-59065500D02*
X99565988Y-57915500D01*
D34*
%TO.N,/USART2_TX*%
X95708000Y-59581000D02*
X91750000Y-63539000D01*
X91750000Y-63539000D02*
X89028000Y-63539000D01*
X95708000Y-57153000D02*
X95708000Y-59581000D01*
%TO.N,/USART2_RX*%
X97540500Y-59065500D02*
X93023000Y-63583000D01*
X98065988Y-59065500D02*
X97540500Y-59065500D01*
D37*
%TO.N,/RCC_MCO_1*%
X117478488Y-43653000D02*
X118628488Y-43653000D01*
D34*
%TO.N,/camera/reset*%
X101752000Y-75635000D02*
X101752000Y-77600000D01*
X101752000Y-75635000D02*
X101079000Y-74962000D01*
X101079000Y-74962000D02*
X99538000Y-74962000D01*
X98570000Y-74962000D02*
X99538000Y-74962000D01*
D37*
%TO.N,/camera/pwdnb*%
X102703000Y-74558000D02*
X102099000Y-73954000D01*
X102703000Y-78450962D02*
X102703000Y-74558000D01*
D35*
%TO.N,CAMERA_2.8V*%
X92678000Y-81664000D02*
X92678000Y-80591500D01*
X100260000Y-83679000D02*
X94693000Y-83679000D01*
X94693000Y-83679000D02*
X92678000Y-81664000D01*
D32*
%TO.N,Net-(D1-A)*%
X120864500Y-42153000D02*
X123978000Y-45266500D01*
X117478488Y-42153000D02*
X120864500Y-42153000D01*
%TD*%
M02*
