%TF.GenerationSoftware,KiCad,Pcbnew,9.0.6*%
%TF.CreationDate,2026-03-02T09:31:00+01:00*%
%TF.ProjectId,cansat-camera-pcb,63616e73-6174-42d6-9361-6d6572612d70,1.1*%
%TF.SameCoordinates,Original*%
%TF.FileFunction,Soldermask,Top*%
%TF.FilePolarity,Negative*%
%FSLAX46Y46*%
G04 Gerber Fmt 4.6, Leading zero omitted, Abs format (unit mm)*
G04 Created by KiCad (PCBNEW 9.0.6) date 2026-03-02 09:31:00*
%MOMM*%
%LPD*%
G01*
G04 APERTURE LIST*
G04 Aperture macros list*
%AMRoundRect*
0 Rectangle with rounded corners*
0 $1 Rounding radius*
0 $2 $3 $4 $5 $6 $7 $8 $9 X,Y pos of 4 corners*
0 Add a 4 corners polygon primitive as box body*
4,1,4,$2,$3,$4,$5,$6,$7,$8,$9,$2,$3,0*
0 Add four circle primitives for the rounded corners*
1,1,$1+$1,$2,$3*
1,1,$1+$1,$4,$5*
1,1,$1+$1,$6,$7*
1,1,$1+$1,$8,$9*
0 Add four rect primitives between the rounded corners*
20,1,$1+$1,$2,$3,$4,$5,0*
20,1,$1+$1,$4,$5,$6,$7,0*
20,1,$1+$1,$6,$7,$8,$9,0*
20,1,$1+$1,$8,$9,$2,$3,0*%
G04 Aperture macros list end*
%ADD10RoundRect,0.140000X0.170000X-0.140000X0.170000X0.140000X-0.170000X0.140000X-0.170000X-0.140000X0*%
%ADD11RoundRect,0.100000X0.130000X0.100000X-0.130000X0.100000X-0.130000X-0.100000X0.130000X-0.100000X0*%
%ADD12RoundRect,0.200000X0.275000X-0.200000X0.275000X0.200000X-0.275000X0.200000X-0.275000X-0.200000X0*%
%ADD13RoundRect,0.100000X0.100000X-0.130000X0.100000X0.130000X-0.100000X0.130000X-0.100000X-0.130000X0*%
%ADD14RoundRect,0.218750X0.256250X-0.218750X0.256250X0.218750X-0.256250X0.218750X-0.256250X-0.218750X0*%
%ADD15RoundRect,0.140000X-0.140000X-0.170000X0.140000X-0.170000X0.140000X0.170000X-0.140000X0.170000X0*%
%ADD16RoundRect,0.135000X-0.135000X-0.185000X0.135000X-0.185000X0.135000X0.185000X-0.135000X0.185000X0*%
%ADD17RoundRect,0.140000X0.140000X0.170000X-0.140000X0.170000X-0.140000X-0.170000X0.140000X-0.170000X0*%
%ADD18RoundRect,0.150000X-0.150000X0.512500X-0.150000X-0.512500X0.150000X-0.512500X0.150000X0.512500X0*%
%ADD19RoundRect,0.250000X0.350000X-0.450000X0.350000X0.450000X-0.350000X0.450000X-0.350000X-0.450000X0*%
%ADD20RoundRect,0.140000X-0.170000X0.140000X-0.170000X-0.140000X0.170000X-0.140000X0.170000X0.140000X0*%
%ADD21RoundRect,0.135000X0.135000X0.185000X-0.135000X0.185000X-0.135000X-0.185000X0.135000X-0.185000X0*%
%ADD22RoundRect,0.225000X0.225000X0.250000X-0.225000X0.250000X-0.225000X-0.250000X0.225000X-0.250000X0*%
%ADD23RoundRect,0.100000X-0.130000X-0.100000X0.130000X-0.100000X0.130000X0.100000X-0.130000X0.100000X0*%
%ADD24RoundRect,0.225000X-0.225000X-0.250000X0.225000X-0.250000X0.225000X0.250000X-0.225000X0.250000X0*%
%ADD25RoundRect,0.225000X-0.250000X0.225000X-0.250000X-0.225000X0.250000X-0.225000X0.250000X0.225000X0*%
%ADD26R,2.580000X1.000000*%
%ADD27RoundRect,0.135000X-0.185000X0.135000X-0.185000X-0.135000X0.185000X-0.135000X0.185000X0.135000X0*%
%ADD28R,0.900000X0.800000*%
%ADD29RoundRect,0.135000X0.185000X-0.135000X0.185000X0.135000X-0.185000X0.135000X-0.185000X-0.135000X0*%
%ADD30RoundRect,0.075000X-0.662500X-0.075000X0.662500X-0.075000X0.662500X0.075000X-0.662500X0.075000X0*%
%ADD31RoundRect,0.075000X-0.075000X-0.662500X0.075000X-0.662500X0.075000X0.662500X-0.075000X0.662500X0*%
G04 APERTURE END LIST*
D10*
%TO.C,C7*%
X116488000Y-60103000D03*
X116488000Y-59143000D03*
%TD*%
D11*
%TO.C,R21*%
X106498000Y-66564000D03*
X105858000Y-66564000D03*
%TD*%
D10*
%TO.C,C8*%
X94628000Y-54624000D03*
X94628000Y-53664000D03*
%TD*%
D12*
%TO.C,R7*%
X126088000Y-46869000D03*
X126088000Y-45219000D03*
%TD*%
D13*
%TO.C,R18*%
X103228000Y-77634000D03*
X103228000Y-76994000D03*
%TD*%
D10*
%TO.C,C10*%
X119005988Y-39980000D03*
X119005988Y-39020000D03*
%TD*%
D13*
%TO.C,R20*%
X104628000Y-77384000D03*
X104628000Y-76744000D03*
%TD*%
D14*
%TO.C,D1*%
X123978000Y-46841500D03*
X123978000Y-45266500D03*
%TD*%
D10*
%TO.C,C5*%
X106888000Y-73984000D03*
X106888000Y-73024000D03*
%TD*%
D15*
%TO.C,C19*%
X109835988Y-60593000D03*
X110795988Y-60593000D03*
%TD*%
D16*
%TO.C,R1*%
X93638000Y-56271000D03*
X94658000Y-56271000D03*
%TD*%
D17*
%TO.C,C9*%
X110295988Y-36213000D03*
X109335988Y-36213000D03*
%TD*%
D18*
%TO.C,U2*%
X121537000Y-74388500D03*
X120587000Y-74388500D03*
X119637000Y-74388500D03*
X119637000Y-76663500D03*
X121537000Y-76663500D03*
%TD*%
D15*
%TO.C,C4*%
X93668000Y-57251000D03*
X94628000Y-57251000D03*
%TD*%
D19*
%TO.C,Y1*%
X92996000Y-52003000D03*
X92996000Y-49803000D03*
X91296000Y-49803000D03*
X91296000Y-52003000D03*
%TD*%
D20*
%TO.C,C20*%
X97151000Y-36707000D03*
X97151000Y-37667000D03*
%TD*%
D13*
%TO.C,R23*%
X100578000Y-61159000D03*
X100578000Y-60519000D03*
%TD*%
D17*
%TO.C,C3*%
X94628000Y-59211000D03*
X93668000Y-59211000D03*
%TD*%
D21*
%TO.C,R2*%
X94658000Y-58231000D03*
X93638000Y-58231000D03*
%TD*%
D15*
%TO.C,C18*%
X98335988Y-60593000D03*
X99295988Y-60593000D03*
%TD*%
%TO.C,C34*%
X91666000Y-53603000D03*
X92626000Y-53603000D03*
%TD*%
D22*
%TO.C,C16*%
X124863500Y-72606000D03*
X123313500Y-72606000D03*
%TD*%
D23*
%TO.C,R12*%
X102858000Y-79964000D03*
X103498000Y-79964000D03*
%TD*%
D24*
%TO.C,C15*%
X119812000Y-78446000D03*
X121362000Y-78446000D03*
%TD*%
D23*
%TO.C,R16*%
X102858000Y-80864000D03*
X103498000Y-80864000D03*
%TD*%
D25*
%TO.C,C35*%
X115239000Y-60819000D03*
X115239000Y-62369000D03*
%TD*%
D26*
%TO.C,J4*%
X82673000Y-51534000D03*
X86843000Y-51534000D03*
X82673000Y-53534000D03*
X86843000Y-53534000D03*
X82673000Y-55534000D03*
X86843000Y-55534000D03*
X82673000Y-57534000D03*
X86843000Y-57534000D03*
X82673000Y-59534000D03*
X86843000Y-59534000D03*
X82673000Y-61534000D03*
X86843000Y-61534000D03*
X82673000Y-63534000D03*
X86843000Y-63534000D03*
X82673000Y-65534000D03*
X86843000Y-65534000D03*
X82673000Y-67534000D03*
X86843000Y-67534000D03*
X82673000Y-69534000D03*
X86843000Y-69534000D03*
%TD*%
D27*
%TO.C,R3*%
X105808000Y-72964000D03*
X105808000Y-73984000D03*
%TD*%
D26*
%TO.C,J5*%
X123063000Y-51534000D03*
X127233000Y-51534000D03*
X123063000Y-53534000D03*
X127233000Y-53534000D03*
X123063000Y-55534000D03*
X127233000Y-55534000D03*
X123063000Y-57534000D03*
X127233000Y-57534000D03*
X123063000Y-59534000D03*
X127233000Y-59534000D03*
X123063000Y-61534000D03*
X127233000Y-61534000D03*
X123063000Y-63534000D03*
X127233000Y-63534000D03*
X123063000Y-65534000D03*
X127233000Y-65534000D03*
X123063000Y-67534000D03*
X127233000Y-67534000D03*
X123063000Y-69534000D03*
X127233000Y-69534000D03*
%TD*%
D18*
%TO.C,U1*%
X125038500Y-74388500D03*
X124088500Y-74388500D03*
X123138500Y-74388500D03*
X123138500Y-76663500D03*
X125038500Y-76663500D03*
%TD*%
D20*
%TO.C,C21*%
X94625988Y-46923000D03*
X94625988Y-47883000D03*
%TD*%
D24*
%TO.C,C17*%
X123313500Y-78446000D03*
X124863500Y-78446000D03*
%TD*%
D28*
%TO.C,Y2*%
X110078000Y-67039000D03*
X111928000Y-67039000D03*
X111928000Y-65589000D03*
X110078000Y-65589000D03*
%TD*%
D24*
%TO.C,C13*%
X92830988Y-42153000D03*
X94380988Y-42153000D03*
%TD*%
D23*
%TO.C,R24*%
X118878000Y-43639000D03*
X119518000Y-43639000D03*
%TD*%
D15*
%TO.C,C1*%
X91666000Y-48203000D03*
X92626000Y-48203000D03*
%TD*%
D25*
%TO.C,C36*%
X120262000Y-39089000D03*
X120262000Y-40639000D03*
%TD*%
D10*
%TO.C,C11*%
X119005988Y-52383000D03*
X119005988Y-51423000D03*
%TD*%
D16*
%TO.C,R14*%
X100026000Y-36213000D03*
X101046000Y-36213000D03*
%TD*%
D29*
%TO.C,R6*%
X107968000Y-74024000D03*
X107968000Y-73004000D03*
%TD*%
D22*
%TO.C,C14*%
X121362000Y-72606000D03*
X119812000Y-72606000D03*
%TD*%
D30*
%TO.C,U4*%
X96153488Y-39653000D03*
X96153488Y-40153000D03*
X96153488Y-40653000D03*
X96153488Y-41153000D03*
X96153488Y-41653000D03*
X96153488Y-42153000D03*
X96153488Y-42653000D03*
X96153488Y-43153000D03*
X96153488Y-43653000D03*
X96153488Y-44153000D03*
X96153488Y-44653000D03*
X96153488Y-45153000D03*
X96153488Y-45653000D03*
X96153488Y-46153000D03*
X96153488Y-46653000D03*
X96153488Y-47153000D03*
X96153488Y-47653000D03*
X96153488Y-48153000D03*
X96153488Y-48653000D03*
X96153488Y-49153000D03*
X96153488Y-49653000D03*
X96153488Y-50153000D03*
X96153488Y-50653000D03*
X96153488Y-51153000D03*
X96153488Y-51653000D03*
X96153488Y-52153000D03*
X96153488Y-52653000D03*
X96153488Y-53153000D03*
X96153488Y-53653000D03*
X96153488Y-54153000D03*
X96153488Y-54653000D03*
X96153488Y-55153000D03*
X96153488Y-55653000D03*
X96153488Y-56153000D03*
X96153488Y-56653000D03*
X96153488Y-57153000D03*
D31*
X98065988Y-59065500D03*
X98565988Y-59065500D03*
X99065988Y-59065500D03*
X99565988Y-59065500D03*
X100065988Y-59065500D03*
X100565988Y-59065500D03*
X101065988Y-59065500D03*
X101565988Y-59065500D03*
X102065988Y-59065500D03*
X102565988Y-59065500D03*
X103065988Y-59065500D03*
X103565988Y-59065500D03*
X104065988Y-59065500D03*
X104565988Y-59065500D03*
X105065988Y-59065500D03*
X105565988Y-59065500D03*
X106065988Y-59065500D03*
X106565988Y-59065500D03*
X107065988Y-59065500D03*
X107565988Y-59065500D03*
X108065988Y-59065500D03*
X108565988Y-59065500D03*
X109065988Y-59065500D03*
X109565988Y-59065500D03*
X110065988Y-59065500D03*
X110565988Y-59065500D03*
X111065988Y-59065500D03*
X111565988Y-59065500D03*
X112065988Y-59065500D03*
X112565988Y-59065500D03*
X113065988Y-59065500D03*
X113565988Y-59065500D03*
X114065988Y-59065500D03*
X114565988Y-59065500D03*
X115065988Y-59065500D03*
X115565988Y-59065500D03*
D30*
X117478488Y-57153000D03*
X117478488Y-56653000D03*
X117478488Y-56153000D03*
X117478488Y-55653000D03*
X117478488Y-55153000D03*
X117478488Y-54653000D03*
X117478488Y-54153000D03*
X117478488Y-53653000D03*
X117478488Y-53153000D03*
X117478488Y-52653000D03*
X117478488Y-52153000D03*
X117478488Y-51653000D03*
X117478488Y-51153000D03*
X117478488Y-50653000D03*
X117478488Y-50153000D03*
X117478488Y-49653000D03*
X117478488Y-49153000D03*
X117478488Y-48653000D03*
X117478488Y-48153000D03*
X117478488Y-47653000D03*
X117478488Y-47153000D03*
X117478488Y-46653000D03*
X117478488Y-46153000D03*
X117478488Y-45653000D03*
X117478488Y-45153000D03*
X117478488Y-44653000D03*
X117478488Y-44153000D03*
X117478488Y-43653000D03*
X117478488Y-43153000D03*
X117478488Y-42653000D03*
X117478488Y-42153000D03*
X117478488Y-41653000D03*
X117478488Y-41153000D03*
X117478488Y-40653000D03*
X117478488Y-40153000D03*
X117478488Y-39653000D03*
D31*
X115565988Y-37740500D03*
X115065988Y-37740500D03*
X114565988Y-37740500D03*
X114065988Y-37740500D03*
X113565988Y-37740500D03*
X113065988Y-37740500D03*
X112565988Y-37740500D03*
X112065988Y-37740500D03*
X111565988Y-37740500D03*
X111065988Y-37740500D03*
X110565988Y-37740500D03*
X110065988Y-37740500D03*
X109565988Y-37740500D03*
X109065988Y-37740500D03*
X108565988Y-37740500D03*
X108065988Y-37740500D03*
X107565988Y-37740500D03*
X107065988Y-37740500D03*
X106565988Y-37740500D03*
X106065988Y-37740500D03*
X105565988Y-37740500D03*
X105065988Y-37740500D03*
X104565988Y-37740500D03*
X104065988Y-37740500D03*
X103565988Y-37740500D03*
X103065988Y-37740500D03*
X102565988Y-37740500D03*
X102065988Y-37740500D03*
X101565988Y-37740500D03*
X101065988Y-37740500D03*
X100565988Y-37740500D03*
X100065988Y-37740500D03*
X99565988Y-37740500D03*
X99065988Y-37740500D03*
X98565988Y-37740500D03*
X98065988Y-37740500D03*
%TD*%
D17*
%TO.C,C22*%
X105295988Y-36213000D03*
X104335988Y-36213000D03*
%TD*%
D23*
%TO.C,R13*%
X104308000Y-79514000D03*
X104948000Y-79514000D03*
%TD*%
%TO.C,R15*%
X104383000Y-80414000D03*
X105023000Y-80414000D03*
%TD*%
D15*
%TO.C,C12*%
X104835988Y-60593000D03*
X105795988Y-60593000D03*
%TD*%
M02*
