%TF.GenerationSoftware,KiCad,Pcbnew,9.0.6*%
%TF.CreationDate,2026-01-26T21:26:12+01:00*%
%TF.ProjectId,cansat-camera-pcb,63616e73-6174-42d6-9361-6d6572612d70,1.1*%
%TF.SameCoordinates,Original*%
%TF.FileFunction,Copper,L7,Inr*%
%TF.FilePolarity,Positive*%
%FSLAX46Y46*%
G04 Gerber Fmt 4.6, Leading zero omitted, Abs format (unit mm)*
G04 Created by KiCad (PCBNEW 9.0.6) date 2026-01-26 21:26:12*
%MOMM*%
%LPD*%
G01*
G04 APERTURE LIST*
%TA.AperFunction,ViaPad*%
%ADD10C,1.000000*%
%TD*%
%TA.AperFunction,ViaPad*%
%ADD11C,0.500000*%
%TD*%
%TA.AperFunction,ViaPad*%
%ADD12C,0.400000*%
%TD*%
%TA.AperFunction,ViaPad*%
%ADD13C,0.800000*%
%TD*%
%TA.AperFunction,ViaPad*%
%ADD14C,0.600000*%
%TD*%
%TA.AperFunction,ViaPad*%
%ADD15C,0.450000*%
%TD*%
G04 APERTURE END LIST*
D10*
%TO.N,GND*%
X82673000Y-59534000D03*
X86343000Y-59534000D03*
D11*
X101079000Y-73954000D03*
D12*
X107615988Y-46803000D03*
D13*
X101678000Y-82129000D03*
X123313500Y-78446000D03*
D11*
X97151000Y-36707000D03*
D10*
X86343000Y-67534000D03*
D11*
X91666000Y-53603000D03*
D14*
X113708000Y-51724000D03*
D15*
X106203000Y-78384000D03*
D11*
X92626000Y-48203000D03*
D13*
X89327999Y-61539000D03*
X119812000Y-72606000D03*
X98710000Y-82129000D03*
D11*
X118678488Y-46653000D03*
D12*
X110015988Y-50003000D03*
D13*
X106196000Y-82590000D03*
D14*
X83906000Y-49945000D03*
D13*
X89327999Y-53539000D03*
D11*
X92830988Y-42153000D03*
X98335988Y-60593000D03*
D13*
X97503000Y-76704000D03*
X89358300Y-71751500D03*
D14*
X124088500Y-74388500D03*
D11*
X105295988Y-36213000D03*
D10*
X82673000Y-67534000D03*
D11*
X119005988Y-39980000D03*
X93668000Y-57251000D03*
D14*
X120587000Y-74388500D03*
D11*
X94625988Y-46923000D03*
X120262000Y-39089000D03*
D14*
X104853000Y-41524000D03*
D11*
X119005988Y-52383000D03*
D14*
X126088000Y-45219000D03*
D12*
X103618000Y-51604000D03*
D11*
X112368000Y-46424000D03*
D13*
X89833000Y-80591500D03*
D11*
X98560000Y-36460000D03*
D10*
X127233000Y-63534000D03*
D11*
X88280000Y-48985000D03*
X109835988Y-60593000D03*
D13*
X94228000Y-80591500D03*
X112403000Y-76704000D03*
D11*
X100318000Y-48409000D03*
D12*
X108418000Y-50004000D03*
D11*
X94628000Y-59211000D03*
D10*
X123063000Y-65534000D03*
D13*
X93753000Y-71751500D03*
D10*
X86343000Y-69534000D03*
X123063000Y-63534000D03*
D11*
X104835988Y-60593000D03*
X94628000Y-54624000D03*
X115239000Y-62369000D03*
X100026000Y-36213000D03*
X116488000Y-60103000D03*
D13*
X119812000Y-78446000D03*
D11*
X110295988Y-36213000D03*
D13*
X123313500Y-72606000D03*
D10*
X86343000Y-57534000D03*
D11*
X101248000Y-50394000D03*
X99538000Y-74002000D03*
D10*
X127233000Y-65534000D03*
D12*
X110015988Y-51603000D03*
D11*
X108163000Y-81247000D03*
D12*
X106815988Y-50003000D03*
D10*
X82673000Y-69534000D03*
D12*
X109218000Y-46814000D03*
D11*
X101248000Y-46424000D03*
X110968000Y-42854000D03*
%TO.N,/RST*%
X97600000Y-51317000D03*
%TO.N,+3.3V*%
X94380988Y-42153000D03*
X94625988Y-47883000D03*
X104335988Y-36213000D03*
X97151000Y-37667000D03*
X105795988Y-60593000D03*
X119005988Y-51423000D03*
X119005988Y-39020000D03*
X116278488Y-46153000D03*
X93638000Y-56271000D03*
D13*
X89327999Y-59539000D03*
D11*
X116488000Y-59143000D03*
X110795988Y-60593000D03*
X94625988Y-53723000D03*
D13*
X121362000Y-78446000D03*
D11*
X109335988Y-36213000D03*
X99295988Y-60593000D03*
D13*
%TO.N,VCC*%
X89327999Y-67539000D03*
D15*
%TO.N,/DCMI_PIXCLK*%
X107203000Y-78384000D03*
D11*
X100565988Y-60215500D03*
D15*
X107203000Y-73052000D03*
D11*
%TO.N,/SWCLK*%
X115565988Y-38849000D03*
%TO.N,/SWDIO*%
X116360000Y-41153000D03*
%TO.N,/LTE_reset*%
X127233000Y-58534000D03*
X116199000Y-56653000D03*
D14*
X127233000Y-61534000D03*
D11*
X119883000Y-56653000D03*
%TO.N,/LTE_pwrkey*%
X119883000Y-57649000D03*
D14*
X123063000Y-61534000D03*
D11*
X117478488Y-57649000D03*
X123063000Y-58534000D03*
D15*
%TO.N,/DCMI_VSYNC*%
X108065988Y-38890500D03*
X106203000Y-75810000D03*
%TO.N,/DCMI_D7*%
X104703000Y-78384000D03*
X97303488Y-41653000D03*
%TO.N,/DCMI_D2*%
X109703000Y-80384000D03*
X118628488Y-44653000D03*
%TO.N,/DCMI_D4*%
X94153488Y-40653000D03*
X107703000Y-80384000D03*
%TO.N,/DCMI_D6*%
X95003488Y-41153000D03*
X105703000Y-80384000D03*
%TO.N,/DCMI_D1*%
X116328488Y-45153000D03*
X109203000Y-78384000D03*
%TO.N,/DCMI_D0*%
X118628488Y-45653000D03*
X108203000Y-78384000D03*
%TO.N,/DCMI_D3*%
X119283000Y-44153000D03*
X108703000Y-80384000D03*
%TO.N,/DCMI_D5*%
X106703000Y-80384000D03*
X111565988Y-38890500D03*
D12*
%TO.N,/FMC_SDCKE0*%
X106015988Y-50003000D03*
X104678000Y-48884000D03*
X97358000Y-53734000D03*
%TO.N,/FMC_A3*%
X104415988Y-46803000D03*
X97358000Y-45902000D03*
%TO.N,/FMC_A9*%
X105215988Y-51603000D03*
X106958000Y-57934000D03*
%TO.N,/FMC_D10*%
X112348000Y-57934000D03*
%TO.N,/FMC_D1*%
X110015988Y-46003000D03*
%TO.N,/FMC_A6*%
X104558000Y-57934000D03*
X104415988Y-50003000D03*
%TO.N,/FMC_D6*%
X107615988Y-46003000D03*
%TO.N,/FMC_D12*%
X113548000Y-57934000D03*
%TO.N,/FMC_A8*%
X104415988Y-50803000D03*
X106349997Y-57934000D03*
%TO.N,/FMC_NBL1*%
X106015988Y-51603000D03*
%TO.N,/FMC_D0*%
X109215988Y-46003000D03*
%TO.N,/FMC_SDNRAS*%
X104008000Y-57934000D03*
X106015988Y-46003000D03*
%TO.N,/FMC_D2*%
X109215988Y-45203000D03*
%TO.N,/FMC_D11*%
X112948000Y-57934000D03*
%TO.N,/FMC_SDNE0*%
X97358000Y-53174000D03*
X105215988Y-45203000D03*
%TO.N,/FMC_A1*%
X97358000Y-44710000D03*
X103615988Y-46003000D03*
%TO.N,/FMC_SDNWE*%
X97358000Y-52154000D03*
X106015988Y-45203000D03*
%TO.N,/FMC_D3*%
X108415988Y-45203000D03*
%TO.N,/FMC_A4*%
X103615988Y-50003000D03*
X97358000Y-46498000D03*
%TO.N,/FMC_A10*%
X105215988Y-50803000D03*
X107566003Y-57934000D03*
%TO.N,/FMC_A11*%
X108174006Y-57934000D03*
X104415988Y-46003000D03*
%TO.N,/FMC_D15*%
X116308000Y-54074000D03*
%TO.N,/FMC_D8*%
X111168000Y-57934000D03*
%TO.N,/FMC_SDNCAS*%
X104058000Y-38874000D03*
X106015988Y-46803000D03*
%TO.N,/FMC_A5*%
X103615988Y-50803000D03*
X97358000Y-47094000D03*
%TO.N,/FMC_D14*%
X116308000Y-54624000D03*
%TO.N,/FMC_D13*%
X116308000Y-55154000D03*
%TO.N,/FMC_A7*%
X104415988Y-51603000D03*
X105741994Y-57934000D03*
%TO.N,/FMC_A0*%
X104415988Y-45203000D03*
X97358000Y-44114000D03*
%TO.N,/FMC_D5*%
X107615988Y-45203000D03*
%TO.N,/FMC_D4*%
X106815988Y-45203000D03*
%TO.N,/FMC_NBL0*%
X106815988Y-46003000D03*
X99943000Y-38889000D03*
%TO.N,/FMC_D7*%
X108415988Y-46003000D03*
%TO.N,/FMC_A2*%
X103615988Y-46803000D03*
X97358000Y-45306000D03*
%TO.N,/FMC_SDCLK*%
X116308000Y-47184000D03*
D11*
%TO.N,/CAM_SCL*%
X113107000Y-63649000D03*
D15*
X101203000Y-78384000D03*
X101203000Y-76332000D03*
D11*
%TO.N,/CAM_SDA*%
X114138000Y-63649000D03*
D12*
%TO.N,/FMC_A12*%
X116308000Y-50154000D03*
X105215988Y-50003000D03*
%TO.N,/FMC_D9*%
X111748000Y-57934000D03*
%TO.N,/FMC_BS1*%
X116308000Y-48514000D03*
X105215988Y-46003000D03*
%TO.N,/FMC_BS0*%
X105215988Y-46803000D03*
X116308000Y-49124000D03*
D11*
%TO.N,+3.3VA*%
X112378000Y-47384000D03*
D13*
X110673000Y-83272000D03*
D11*
X112087000Y-63649000D03*
D14*
X113698000Y-49139000D03*
D13*
X92203000Y-71751500D03*
D14*
X103315500Y-41536500D03*
X94403000Y-76584000D03*
D13*
X104646000Y-84140000D03*
X124863500Y-78446000D03*
D11*
X110008000Y-42854000D03*
X101278000Y-48409000D03*
D14*
X90008000Y-76584000D03*
D11*
X97550000Y-74962000D03*
X101248000Y-47384000D03*
D13*
X87808300Y-71751500D03*
D11*
X115158000Y-63649000D03*
%TO.N,/I2C1_SDA*%
X101565988Y-38991000D03*
D14*
X82673000Y-51534000D03*
D11*
%TO.N,/I2C1_SCL*%
X102065988Y-36386000D03*
D14*
X82673000Y-53534000D03*
D15*
%TO.N,/DCMI_HSYNC*%
X103203000Y-68822000D03*
D11*
X99565988Y-57915500D03*
D15*
X103203000Y-77900000D03*
D14*
%TO.N,/USART2_TX*%
X89028000Y-63539000D03*
%TO.N,/USART2_RX*%
X93023000Y-63583000D03*
D15*
%TO.N,/RCC_MCO_1*%
X118628488Y-43653000D03*
%TO.N,/camera/reset*%
X101752000Y-77600000D03*
%TO.N,/camera/pwdnb*%
X102703000Y-78450962D03*
D13*
%TO.N,CAMERA_2.8V*%
X92678000Y-80591500D03*
X100260000Y-83679000D03*
%TD*%
%TA.AperFunction,Conductor*%
%TO.N,GND*%
G36*
X101433739Y-35754185D02*
G01*
X101479494Y-35806989D01*
X101489438Y-35876147D01*
X101469802Y-35927391D01*
X101400907Y-36030498D01*
X101400900Y-36030511D01*
X101344331Y-36167082D01*
X101344328Y-36167092D01*
X101315488Y-36312079D01*
X101315488Y-36312082D01*
X101315488Y-36459918D01*
X101315488Y-36459920D01*
X101315487Y-36459920D01*
X101344328Y-36604907D01*
X101344331Y-36604917D01*
X101400900Y-36741488D01*
X101400907Y-36741501D01*
X101483036Y-36864415D01*
X101483039Y-36864419D01*
X101587568Y-36968948D01*
X101587572Y-36968951D01*
X101710486Y-37051080D01*
X101710499Y-37051087D01*
X101847070Y-37107656D01*
X101847075Y-37107658D01*
X101847079Y-37107658D01*
X101847080Y-37107659D01*
X101992067Y-37136500D01*
X101992070Y-37136500D01*
X102139908Y-37136500D01*
X102237450Y-37117096D01*
X102284901Y-37107658D01*
X102421483Y-37051084D01*
X102544404Y-36968951D01*
X102648939Y-36864416D01*
X102731072Y-36741495D01*
X102787646Y-36604913D01*
X102816488Y-36459918D01*
X102816488Y-36312082D01*
X102816488Y-36312079D01*
X102787647Y-36167092D01*
X102787646Y-36167091D01*
X102787646Y-36167087D01*
X102776045Y-36139079D01*
X102731075Y-36030511D01*
X102731068Y-36030498D01*
X102662174Y-35927391D01*
X102641296Y-35860713D01*
X102659781Y-35793333D01*
X102711759Y-35746643D01*
X102765276Y-35734500D01*
X103536275Y-35734500D01*
X103603314Y-35754185D01*
X103649069Y-35806989D01*
X103659013Y-35876147D01*
X103650836Y-35905952D01*
X103614331Y-35994082D01*
X103614328Y-35994092D01*
X103585488Y-36139079D01*
X103585488Y-36139082D01*
X103585488Y-36286918D01*
X103585488Y-36286920D01*
X103585487Y-36286920D01*
X103614328Y-36431907D01*
X103614331Y-36431917D01*
X103670900Y-36568488D01*
X103670907Y-36568501D01*
X103753036Y-36691415D01*
X103753039Y-36691419D01*
X103857568Y-36795948D01*
X103857572Y-36795951D01*
X103980486Y-36878080D01*
X103980499Y-36878087D01*
X104117070Y-36934656D01*
X104117075Y-36934658D01*
X104117079Y-36934658D01*
X104117080Y-36934659D01*
X104262067Y-36963500D01*
X104262070Y-36963500D01*
X104409908Y-36963500D01*
X104507450Y-36944096D01*
X104554901Y-36934658D01*
X104691483Y-36878084D01*
X104814404Y-36795951D01*
X104918939Y-36691416D01*
X105001072Y-36568495D01*
X105057646Y-36431913D01*
X105067084Y-36384462D01*
X105086488Y-36286920D01*
X105086488Y-36139079D01*
X105057647Y-35994092D01*
X105057646Y-35994091D01*
X105057646Y-35994087D01*
X105030020Y-35927391D01*
X105021140Y-35905952D01*
X105013671Y-35836483D01*
X105044946Y-35774004D01*
X105105036Y-35738352D01*
X105135701Y-35734500D01*
X108536275Y-35734500D01*
X108603314Y-35754185D01*
X108649069Y-35806989D01*
X108659013Y-35876147D01*
X108650836Y-35905952D01*
X108614331Y-35994082D01*
X108614328Y-35994092D01*
X108585488Y-36139079D01*
X108585488Y-36139082D01*
X108585488Y-36286918D01*
X108585488Y-36286920D01*
X108585487Y-36286920D01*
X108614328Y-36431907D01*
X108614331Y-36431917D01*
X108670900Y-36568488D01*
X108670907Y-36568501D01*
X108753036Y-36691415D01*
X108753039Y-36691419D01*
X108857568Y-36795948D01*
X108857572Y-36795951D01*
X108980486Y-36878080D01*
X108980499Y-36878087D01*
X109117070Y-36934656D01*
X109117075Y-36934658D01*
X109117079Y-36934658D01*
X109117080Y-36934659D01*
X109262067Y-36963500D01*
X109262070Y-36963500D01*
X109409908Y-36963500D01*
X109507450Y-36944096D01*
X109554901Y-36934658D01*
X109691483Y-36878084D01*
X109814404Y-36795951D01*
X109918939Y-36691416D01*
X110001072Y-36568495D01*
X110057646Y-36431913D01*
X110067084Y-36384462D01*
X110086488Y-36286920D01*
X110086488Y-36139079D01*
X110057647Y-35994092D01*
X110057646Y-35994091D01*
X110057646Y-35994087D01*
X110030020Y-35927391D01*
X110021140Y-35905952D01*
X110013671Y-35836483D01*
X110044946Y-35774004D01*
X110105036Y-35738352D01*
X110135701Y-35734500D01*
X119558718Y-35734500D01*
X119623360Y-35752682D01*
X119689903Y-35793333D01*
X120378624Y-36214066D01*
X120382149Y-36216301D01*
X121193089Y-36750211D01*
X121196518Y-36752552D01*
X121985957Y-37311511D01*
X121988908Y-37313600D01*
X121992287Y-37316080D01*
X122551179Y-37740920D01*
X122765188Y-37903598D01*
X122768486Y-37906194D01*
X123419841Y-38437051D01*
X123521067Y-38519550D01*
X123524270Y-38522252D01*
X124255653Y-39160730D01*
X124258766Y-39163541D01*
X124816879Y-39685084D01*
X124968138Y-39826432D01*
X124971156Y-39829350D01*
X125657649Y-40515843D01*
X125660567Y-40518861D01*
X126312523Y-41216532D01*
X126323455Y-41228230D01*
X126326269Y-41231346D01*
X126566525Y-41506562D01*
X126939743Y-41934087D01*
X126964742Y-41962723D01*
X126967449Y-41965932D01*
X127580804Y-42718512D01*
X127583401Y-42721811D01*
X128170915Y-43494707D01*
X128173399Y-43498091D01*
X128734447Y-44290482D01*
X128736797Y-44293923D01*
X129257043Y-45084110D01*
X129270685Y-45104830D01*
X129272933Y-45108375D01*
X129656836Y-45736806D01*
X129693920Y-45797511D01*
X129734317Y-45863638D01*
X129752500Y-45928281D01*
X129752500Y-75139717D01*
X129734317Y-75204360D01*
X129272933Y-75959624D01*
X129270685Y-75963169D01*
X128736815Y-76774050D01*
X128734447Y-76777517D01*
X128173399Y-77569908D01*
X128170915Y-77573292D01*
X127583401Y-78346188D01*
X127580804Y-78349487D01*
X126967449Y-79102067D01*
X126964742Y-79105276D01*
X126326269Y-79836653D01*
X126323455Y-79839769D01*
X125660567Y-80549138D01*
X125657649Y-80552156D01*
X124971156Y-81238649D01*
X124968138Y-81241567D01*
X124258769Y-81904455D01*
X124255653Y-81907269D01*
X123524276Y-82545742D01*
X123521067Y-82548449D01*
X122768487Y-83161804D01*
X122765188Y-83164401D01*
X121992292Y-83751915D01*
X121988908Y-83754399D01*
X121196517Y-84315447D01*
X121193050Y-84317815D01*
X120382169Y-84851685D01*
X120378624Y-84853933D01*
X119623361Y-85315317D01*
X119558718Y-85333500D01*
X90347282Y-85333500D01*
X90282639Y-85315317D01*
X89527375Y-84853933D01*
X89523830Y-84851685D01*
X89314756Y-84714034D01*
X88712923Y-84317797D01*
X88709482Y-84315447D01*
X87917091Y-83754399D01*
X87913707Y-83751915D01*
X87822960Y-83682934D01*
X87701102Y-83590304D01*
X99359500Y-83590304D01*
X99359500Y-83767695D01*
X99394103Y-83941658D01*
X99394106Y-83941667D01*
X99461983Y-84105540D01*
X99461990Y-84105553D01*
X99560535Y-84253034D01*
X99560538Y-84253038D01*
X99685961Y-84378461D01*
X99685965Y-84378464D01*
X99833446Y-84477009D01*
X99833459Y-84477016D01*
X99956363Y-84527923D01*
X99997334Y-84544894D01*
X99997336Y-84544894D01*
X99997341Y-84544896D01*
X100171304Y-84579499D01*
X100171307Y-84579500D01*
X100171309Y-84579500D01*
X100348693Y-84579500D01*
X100348694Y-84579499D01*
X100413845Y-84566540D01*
X100522658Y-84544896D01*
X100522661Y-84544894D01*
X100522666Y-84544894D01*
X100686547Y-84477013D01*
X100834035Y-84378464D01*
X100959464Y-84253035D01*
X101058013Y-84105547D01*
X101080481Y-84051304D01*
X103745500Y-84051304D01*
X103745500Y-84228695D01*
X103780103Y-84402658D01*
X103780106Y-84402667D01*
X103847983Y-84566540D01*
X103847990Y-84566553D01*
X103946535Y-84714034D01*
X103946538Y-84714038D01*
X104071961Y-84839461D01*
X104071965Y-84839464D01*
X104219446Y-84938009D01*
X104219459Y-84938016D01*
X104342363Y-84988923D01*
X104383334Y-85005894D01*
X104383336Y-85005894D01*
X104383341Y-85005896D01*
X104557304Y-85040499D01*
X104557307Y-85040500D01*
X104557309Y-85040500D01*
X104734693Y-85040500D01*
X104734694Y-85040499D01*
X104792682Y-85028964D01*
X104908658Y-85005896D01*
X104908661Y-85005894D01*
X104908666Y-85005894D01*
X105072547Y-84938013D01*
X105220035Y-84839464D01*
X105345464Y-84714035D01*
X105444013Y-84566547D01*
X105511894Y-84402666D01*
X105546500Y-84228691D01*
X105546500Y-84051309D01*
X105546500Y-84051306D01*
X105546499Y-84051304D01*
X105511896Y-83877341D01*
X105511893Y-83877332D01*
X105444016Y-83713459D01*
X105444009Y-83713446D01*
X105345464Y-83565965D01*
X105345461Y-83565961D01*
X105220038Y-83440538D01*
X105220034Y-83440535D01*
X105072553Y-83341990D01*
X105072540Y-83341983D01*
X104951334Y-83291779D01*
X104951333Y-83291779D01*
X104908666Y-83274106D01*
X104908662Y-83274105D01*
X104908658Y-83274103D01*
X104734694Y-83239500D01*
X104734691Y-83239500D01*
X104557309Y-83239500D01*
X104557306Y-83239500D01*
X104383341Y-83274103D01*
X104383332Y-83274106D01*
X104219459Y-83341983D01*
X104219446Y-83341990D01*
X104071965Y-83440535D01*
X104071961Y-83440538D01*
X103946538Y-83565961D01*
X103946535Y-83565965D01*
X103847990Y-83713446D01*
X103847983Y-83713459D01*
X103780106Y-83877332D01*
X103780103Y-83877341D01*
X103745500Y-84051304D01*
X101080481Y-84051304D01*
X101125894Y-83941666D01*
X101160500Y-83767691D01*
X101160500Y-83590309D01*
X101160500Y-83590306D01*
X101160499Y-83590304D01*
X101125896Y-83416341D01*
X101125893Y-83416332D01*
X101058016Y-83252459D01*
X101058009Y-83252446D01*
X101011809Y-83183304D01*
X109772500Y-83183304D01*
X109772500Y-83360695D01*
X109807103Y-83534658D01*
X109807106Y-83534667D01*
X109874983Y-83698540D01*
X109874990Y-83698553D01*
X109973535Y-83846034D01*
X109973538Y-83846038D01*
X110098961Y-83971461D01*
X110098965Y-83971464D01*
X110246446Y-84070009D01*
X110246459Y-84070016D01*
X110332245Y-84105549D01*
X110410334Y-84137894D01*
X110410336Y-84137894D01*
X110410341Y-84137896D01*
X110584304Y-84172499D01*
X110584307Y-84172500D01*
X110584309Y-84172500D01*
X110761693Y-84172500D01*
X110761694Y-84172499D01*
X110819682Y-84160964D01*
X110935658Y-84137896D01*
X110935661Y-84137894D01*
X110935666Y-84137894D01*
X111099547Y-84070013D01*
X111247035Y-83971464D01*
X111372464Y-83846035D01*
X111471013Y-83698547D01*
X111538894Y-83534666D01*
X111573500Y-83360691D01*
X111573500Y-83183309D01*
X111573500Y-83183306D01*
X111573499Y-83183304D01*
X111538896Y-83009341D01*
X111538893Y-83009332D01*
X111471016Y-82845459D01*
X111471009Y-82845446D01*
X111372464Y-82697965D01*
X111372461Y-82697961D01*
X111247038Y-82572538D01*
X111247034Y-82572535D01*
X111099553Y-82473990D01*
X111099540Y-82473983D01*
X110935667Y-82406106D01*
X110935658Y-82406103D01*
X110761694Y-82371500D01*
X110761691Y-82371500D01*
X110584309Y-82371500D01*
X110584306Y-82371500D01*
X110410341Y-82406103D01*
X110410332Y-82406106D01*
X110246459Y-82473983D01*
X110246446Y-82473990D01*
X110098965Y-82572535D01*
X110098961Y-82572538D01*
X109973538Y-82697961D01*
X109973535Y-82697965D01*
X109874990Y-82845446D01*
X109874983Y-82845459D01*
X109807106Y-83009332D01*
X109807103Y-83009341D01*
X109772500Y-83183304D01*
X101011809Y-83183304D01*
X100959464Y-83104965D01*
X100959461Y-83104961D01*
X100834038Y-82979538D01*
X100834034Y-82979535D01*
X100686553Y-82880990D01*
X100686540Y-82880983D01*
X100522667Y-82813106D01*
X100522658Y-82813103D01*
X100348694Y-82778500D01*
X100348691Y-82778500D01*
X100171309Y-82778500D01*
X100171306Y-82778500D01*
X99997341Y-82813103D01*
X99997332Y-82813106D01*
X99833459Y-82880983D01*
X99833446Y-82880990D01*
X99685965Y-82979535D01*
X99685961Y-82979538D01*
X99560538Y-83104961D01*
X99560535Y-83104965D01*
X99461990Y-83252446D01*
X99461983Y-83252459D01*
X99394106Y-83416332D01*
X99394103Y-83416341D01*
X99359500Y-83590304D01*
X87701102Y-83590304D01*
X87140811Y-83164401D01*
X87137512Y-83161804D01*
X86384932Y-82548449D01*
X86381723Y-82545742D01*
X85650346Y-81907269D01*
X85647230Y-81904455D01*
X84937861Y-81241567D01*
X84934843Y-81238649D01*
X84248350Y-80552156D01*
X84245432Y-80549138D01*
X84202134Y-80502804D01*
X91777500Y-80502804D01*
X91777500Y-80680195D01*
X91812103Y-80854158D01*
X91812106Y-80854167D01*
X91879983Y-81018040D01*
X91879990Y-81018053D01*
X91978535Y-81165534D01*
X91978538Y-81165538D01*
X92103961Y-81290961D01*
X92103965Y-81290964D01*
X92251446Y-81389509D01*
X92251459Y-81389516D01*
X92374363Y-81440423D01*
X92415334Y-81457394D01*
X92415336Y-81457394D01*
X92415341Y-81457396D01*
X92589304Y-81491999D01*
X92589307Y-81492000D01*
X92589309Y-81492000D01*
X92766693Y-81492000D01*
X92766694Y-81491999D01*
X92824682Y-81480464D01*
X92940658Y-81457396D01*
X92940661Y-81457394D01*
X92940666Y-81457394D01*
X93104547Y-81389513D01*
X93252035Y-81290964D01*
X93377464Y-81165535D01*
X93476013Y-81018047D01*
X93543894Y-80854166D01*
X93545423Y-80846482D01*
X93578499Y-80680195D01*
X93578500Y-80680193D01*
X93578500Y-80502806D01*
X93578499Y-80502804D01*
X93569081Y-80455457D01*
X104977499Y-80455457D01*
X105005379Y-80595614D01*
X105005381Y-80595620D01*
X105060069Y-80727650D01*
X105060074Y-80727659D01*
X105139467Y-80846478D01*
X105139470Y-80846482D01*
X105240517Y-80947529D01*
X105240521Y-80947532D01*
X105359340Y-81026925D01*
X105359346Y-81026928D01*
X105359347Y-81026929D01*
X105491380Y-81081619D01*
X105491384Y-81081619D01*
X105491385Y-81081620D01*
X105631542Y-81109500D01*
X105631545Y-81109500D01*
X105774457Y-81109500D01*
X105868751Y-81090742D01*
X105914620Y-81081619D01*
X106046653Y-81026929D01*
X106134109Y-80968493D01*
X106200786Y-80947615D01*
X106268167Y-80966099D01*
X106271891Y-80968493D01*
X106359340Y-81026925D01*
X106359346Y-81026928D01*
X106359347Y-81026929D01*
X106491380Y-81081619D01*
X106491384Y-81081619D01*
X106491385Y-81081620D01*
X106631542Y-81109500D01*
X106631545Y-81109500D01*
X106774457Y-81109500D01*
X106868751Y-81090742D01*
X106914620Y-81081619D01*
X107046653Y-81026929D01*
X107134109Y-80968493D01*
X107200786Y-80947615D01*
X107268167Y-80966099D01*
X107271891Y-80968493D01*
X107359340Y-81026925D01*
X107359346Y-81026928D01*
X107359347Y-81026929D01*
X107491380Y-81081619D01*
X107491384Y-81081619D01*
X107491385Y-81081620D01*
X107631542Y-81109500D01*
X107631545Y-81109500D01*
X107774457Y-81109500D01*
X107868751Y-81090742D01*
X107914620Y-81081619D01*
X108046653Y-81026929D01*
X108134109Y-80968493D01*
X108200786Y-80947615D01*
X108268167Y-80966099D01*
X108271891Y-80968493D01*
X108359340Y-81026925D01*
X108359346Y-81026928D01*
X108359347Y-81026929D01*
X108491380Y-81081619D01*
X108491384Y-81081619D01*
X108491385Y-81081620D01*
X108631542Y-81109500D01*
X108631545Y-81109500D01*
X108774457Y-81109500D01*
X108868751Y-81090742D01*
X108914620Y-81081619D01*
X109046653Y-81026929D01*
X109134109Y-80968493D01*
X109200786Y-80947615D01*
X109268167Y-80966099D01*
X109271891Y-80968493D01*
X109359340Y-81026925D01*
X109359346Y-81026928D01*
X109359347Y-81026929D01*
X109491380Y-81081619D01*
X109491384Y-81081619D01*
X109491385Y-81081620D01*
X109631542Y-81109500D01*
X109631545Y-81109500D01*
X109774457Y-81109500D01*
X109868751Y-81090742D01*
X109914620Y-81081619D01*
X110046653Y-81026929D01*
X110165479Y-80947532D01*
X110266532Y-80846479D01*
X110345929Y-80727653D01*
X110400619Y-80595620D01*
X110428500Y-80455455D01*
X110428500Y-80312545D01*
X110428500Y-80312542D01*
X110400620Y-80172385D01*
X110400619Y-80172384D01*
X110400619Y-80172380D01*
X110345929Y-80040347D01*
X110345928Y-80040346D01*
X110345925Y-80040340D01*
X110266532Y-79921521D01*
X110266529Y-79921517D01*
X110165482Y-79820470D01*
X110165478Y-79820467D01*
X110046659Y-79741074D01*
X110046650Y-79741069D01*
X109914620Y-79686381D01*
X109914614Y-79686379D01*
X109774457Y-79658500D01*
X109774455Y-79658500D01*
X109631545Y-79658500D01*
X109631543Y-79658500D01*
X109491385Y-79686379D01*
X109491379Y-79686381D01*
X109359349Y-79741069D01*
X109359342Y-79741073D01*
X109271890Y-79799507D01*
X109205213Y-79820384D01*
X109137833Y-79801899D01*
X109134110Y-79799507D01*
X109046657Y-79741073D01*
X109046650Y-79741069D01*
X108914620Y-79686381D01*
X108914614Y-79686379D01*
X108774457Y-79658500D01*
X108774455Y-79658500D01*
X108631545Y-79658500D01*
X108631543Y-79658500D01*
X108491385Y-79686379D01*
X108491379Y-79686381D01*
X108359349Y-79741069D01*
X108359342Y-79741073D01*
X108271890Y-79799507D01*
X108205213Y-79820384D01*
X108137833Y-79801899D01*
X108134110Y-79799507D01*
X108046657Y-79741073D01*
X108046650Y-79741069D01*
X107914620Y-79686381D01*
X107914614Y-79686379D01*
X107774457Y-79658500D01*
X107774455Y-79658500D01*
X107631545Y-79658500D01*
X107631543Y-79658500D01*
X107491385Y-79686379D01*
X107491379Y-79686381D01*
X107359349Y-79741069D01*
X107359342Y-79741073D01*
X107271890Y-79799507D01*
X107205213Y-79820384D01*
X107137833Y-79801899D01*
X107134110Y-79799507D01*
X107046657Y-79741073D01*
X107046650Y-79741069D01*
X106914620Y-79686381D01*
X106914614Y-79686379D01*
X106774457Y-79658500D01*
X106774455Y-79658500D01*
X106631545Y-79658500D01*
X106631543Y-79658500D01*
X106491385Y-79686379D01*
X106491379Y-79686381D01*
X106359349Y-79741069D01*
X106359342Y-79741073D01*
X106271890Y-79799507D01*
X106205213Y-79820384D01*
X106137833Y-79801899D01*
X106134110Y-79799507D01*
X106046657Y-79741073D01*
X106046650Y-79741069D01*
X105914620Y-79686381D01*
X105914614Y-79686379D01*
X105774457Y-79658500D01*
X105774455Y-79658500D01*
X105631545Y-79658500D01*
X105631543Y-79658500D01*
X105491385Y-79686379D01*
X105491379Y-79686381D01*
X105359349Y-79741069D01*
X105359340Y-79741074D01*
X105240521Y-79820467D01*
X105240517Y-79820470D01*
X105139470Y-79921517D01*
X105139467Y-79921521D01*
X105060074Y-80040340D01*
X105060069Y-80040349D01*
X105005381Y-80172379D01*
X105005379Y-80172385D01*
X104977500Y-80312542D01*
X104977500Y-80312545D01*
X104977500Y-80455455D01*
X104977500Y-80455457D01*
X104977499Y-80455457D01*
X93569081Y-80455457D01*
X93544255Y-80330644D01*
X93543895Y-80328841D01*
X93543894Y-80328834D01*
X93526923Y-80287863D01*
X93476016Y-80164959D01*
X93476009Y-80164946D01*
X93377464Y-80017465D01*
X93377461Y-80017461D01*
X93252038Y-79892038D01*
X93252034Y-79892035D01*
X93104553Y-79793490D01*
X93104540Y-79793483D01*
X92940667Y-79725606D01*
X92940658Y-79725603D01*
X92766694Y-79691000D01*
X92766691Y-79691000D01*
X92589309Y-79691000D01*
X92589306Y-79691000D01*
X92415341Y-79725603D01*
X92415332Y-79725606D01*
X92251459Y-79793483D01*
X92251446Y-79793490D01*
X92103965Y-79892035D01*
X92103961Y-79892038D01*
X91978538Y-80017461D01*
X91978535Y-80017465D01*
X91879990Y-80164946D01*
X91879983Y-80164959D01*
X91812106Y-80328832D01*
X91812103Y-80328841D01*
X91777500Y-80502804D01*
X84202134Y-80502804D01*
X83582544Y-79839769D01*
X83579730Y-79836653D01*
X83496291Y-79741073D01*
X82941252Y-79105270D01*
X82938550Y-79102067D01*
X82931887Y-79093892D01*
X82325194Y-78349486D01*
X82322598Y-78346188D01*
X82217113Y-78207418D01*
X81735080Y-77573287D01*
X81732600Y-77569908D01*
X81604069Y-77388379D01*
X81171552Y-76777517D01*
X81169185Y-76774050D01*
X81033035Y-76567256D01*
X80992147Y-76505153D01*
X89207500Y-76505153D01*
X89207500Y-76662846D01*
X89238261Y-76817489D01*
X89238264Y-76817501D01*
X89298602Y-76963172D01*
X89298609Y-76963185D01*
X89386210Y-77094288D01*
X89386213Y-77094292D01*
X89497707Y-77205786D01*
X89497711Y-77205789D01*
X89628814Y-77293390D01*
X89628827Y-77293397D01*
X89732816Y-77336470D01*
X89774503Y-77353737D01*
X89929153Y-77384499D01*
X89929156Y-77384500D01*
X89929158Y-77384500D01*
X90086844Y-77384500D01*
X90086845Y-77384499D01*
X90241497Y-77353737D01*
X90387179Y-77293394D01*
X90518289Y-77205789D01*
X90629789Y-77094289D01*
X90717394Y-76963179D01*
X90777737Y-76817497D01*
X90808500Y-76662842D01*
X90808500Y-76505158D01*
X90808500Y-76505155D01*
X90808499Y-76505153D01*
X93602500Y-76505153D01*
X93602500Y-76662846D01*
X93633261Y-76817489D01*
X93633264Y-76817501D01*
X93693602Y-76963172D01*
X93693609Y-76963185D01*
X93781210Y-77094288D01*
X93781213Y-77094292D01*
X93892707Y-77205786D01*
X93892711Y-77205789D01*
X94023814Y-77293390D01*
X94023827Y-77293397D01*
X94127816Y-77336470D01*
X94169503Y-77353737D01*
X94324153Y-77384499D01*
X94324156Y-77384500D01*
X94324158Y-77384500D01*
X94481844Y-77384500D01*
X94481845Y-77384499D01*
X94636497Y-77353737D01*
X94782179Y-77293394D01*
X94913289Y-77205789D01*
X95024789Y-77094289D01*
X95112394Y-76963179D01*
X95172737Y-76817497D01*
X95203500Y-76662842D01*
X95203500Y-76505158D01*
X95203500Y-76505155D01*
X95203499Y-76505153D01*
X95183270Y-76403457D01*
X100477499Y-76403457D01*
X100505379Y-76543614D01*
X100505381Y-76543620D01*
X100560069Y-76675650D01*
X100560074Y-76675659D01*
X100639467Y-76794478D01*
X100639470Y-76794482D01*
X100740517Y-76895529D01*
X100740521Y-76895532D01*
X100859340Y-76974925D01*
X100859346Y-76974928D01*
X100859347Y-76974929D01*
X100991380Y-77029619D01*
X101025807Y-77036467D01*
X101046971Y-77040677D01*
X101108882Y-77073061D01*
X101143456Y-77133777D01*
X101139717Y-77203546D01*
X101125884Y-77231182D01*
X101109075Y-77256339D01*
X101109069Y-77256349D01*
X101054381Y-77388379D01*
X101054379Y-77388385D01*
X101026500Y-77528542D01*
X101026500Y-77588979D01*
X101006815Y-77656018D01*
X100954011Y-77701773D01*
X100949953Y-77703540D01*
X100859350Y-77741069D01*
X100859340Y-77741074D01*
X100740521Y-77820467D01*
X100740517Y-77820470D01*
X100639470Y-77921517D01*
X100639467Y-77921521D01*
X100560074Y-78040340D01*
X100560069Y-78040349D01*
X100505381Y-78172379D01*
X100505379Y-78172385D01*
X100477500Y-78312542D01*
X100477500Y-78312545D01*
X100477500Y-78455455D01*
X100477500Y-78455457D01*
X100477499Y-78455457D01*
X100505379Y-78595614D01*
X100505381Y-78595620D01*
X100560069Y-78727650D01*
X100560074Y-78727659D01*
X100639467Y-78846478D01*
X100639470Y-78846482D01*
X100740517Y-78947529D01*
X100740521Y-78947532D01*
X100859340Y-79026925D01*
X100859346Y-79026928D01*
X100859347Y-79026929D01*
X100991380Y-79081619D01*
X100991384Y-79081619D01*
X100991385Y-79081620D01*
X101131542Y-79109500D01*
X101131545Y-79109500D01*
X101274457Y-79109500D01*
X101368751Y-79090742D01*
X101414620Y-79081619D01*
X101546653Y-79026929D01*
X101665479Y-78947532D01*
X101766532Y-78846479D01*
X101790441Y-78810695D01*
X101832115Y-78748328D01*
X101885727Y-78703522D01*
X101955052Y-78694815D01*
X102018079Y-78724969D01*
X102049779Y-78769767D01*
X102060070Y-78794614D01*
X102060074Y-78794621D01*
X102139467Y-78913440D01*
X102139470Y-78913444D01*
X102240517Y-79014491D01*
X102240521Y-79014494D01*
X102359340Y-79093887D01*
X102359349Y-79093892D01*
X102383016Y-79103695D01*
X102491380Y-79148581D01*
X102491384Y-79148581D01*
X102491385Y-79148582D01*
X102631542Y-79176462D01*
X102631545Y-79176462D01*
X102774457Y-79176462D01*
X102868751Y-79157704D01*
X102914620Y-79148581D01*
X103046653Y-79093891D01*
X103165479Y-79014494D01*
X103266532Y-78913441D01*
X103345929Y-78794615D01*
X103400619Y-78662582D01*
X103400621Y-78662568D01*
X103402387Y-78656752D01*
X103403644Y-78657133D01*
X103432884Y-78601215D01*
X103474678Y-78572742D01*
X103546646Y-78542932D01*
X103546646Y-78542931D01*
X103546653Y-78542929D01*
X103665479Y-78463532D01*
X103686983Y-78442028D01*
X103765819Y-78363193D01*
X103827142Y-78329708D01*
X103896834Y-78334692D01*
X103952767Y-78376564D01*
X103977184Y-78442028D01*
X103977500Y-78450874D01*
X103977500Y-78455455D01*
X103977500Y-78455457D01*
X103977499Y-78455457D01*
X104005379Y-78595614D01*
X104005381Y-78595620D01*
X104060069Y-78727650D01*
X104060074Y-78727659D01*
X104139467Y-78846478D01*
X104139470Y-78846482D01*
X104240517Y-78947529D01*
X104240521Y-78947532D01*
X104359340Y-79026925D01*
X104359346Y-79026928D01*
X104359347Y-79026929D01*
X104491380Y-79081619D01*
X104491384Y-79081619D01*
X104491385Y-79081620D01*
X104631542Y-79109500D01*
X104631545Y-79109500D01*
X104774457Y-79109500D01*
X104868751Y-79090742D01*
X104914620Y-79081619D01*
X105046653Y-79026929D01*
X105165479Y-78947532D01*
X105266532Y-78846479D01*
X105345929Y-78727653D01*
X105400619Y-78595620D01*
X105415180Y-78522417D01*
X105428500Y-78455457D01*
X106477499Y-78455457D01*
X106505379Y-78595614D01*
X106505381Y-78595620D01*
X106560069Y-78727650D01*
X106560074Y-78727659D01*
X106639467Y-78846478D01*
X106639470Y-78846482D01*
X106740517Y-78947529D01*
X106740521Y-78947532D01*
X106859340Y-79026925D01*
X106859346Y-79026928D01*
X106859347Y-79026929D01*
X106991380Y-79081619D01*
X106991384Y-79081619D01*
X106991385Y-79081620D01*
X107131542Y-79109500D01*
X107131545Y-79109500D01*
X107274457Y-79109500D01*
X107368751Y-79090742D01*
X107414620Y-79081619D01*
X107546653Y-79026929D01*
X107634109Y-78968493D01*
X107700786Y-78947615D01*
X107768167Y-78966099D01*
X107771891Y-78968493D01*
X107859340Y-79026925D01*
X107859346Y-79026928D01*
X107859347Y-79026929D01*
X107991380Y-79081619D01*
X107991384Y-79081619D01*
X107991385Y-79081620D01*
X108131542Y-79109500D01*
X108131545Y-79109500D01*
X108274457Y-79109500D01*
X108368751Y-79090742D01*
X108414620Y-79081619D01*
X108546653Y-79026929D01*
X108634109Y-78968493D01*
X108700786Y-78947615D01*
X108768167Y-78966099D01*
X108771891Y-78968493D01*
X108859340Y-79026925D01*
X108859346Y-79026928D01*
X108859347Y-79026929D01*
X108991380Y-79081619D01*
X108991384Y-79081619D01*
X108991385Y-79081620D01*
X109131542Y-79109500D01*
X109131545Y-79109500D01*
X109274457Y-79109500D01*
X109368751Y-79090742D01*
X109414620Y-79081619D01*
X109546653Y-79026929D01*
X109665479Y-78947532D01*
X109766532Y-78846479D01*
X109845929Y-78727653D01*
X109900619Y-78595620D01*
X109915180Y-78522417D01*
X109928500Y-78455457D01*
X109928500Y-78357304D01*
X120461500Y-78357304D01*
X120461500Y-78534695D01*
X120496103Y-78708658D01*
X120496106Y-78708667D01*
X120563983Y-78872540D01*
X120563990Y-78872553D01*
X120662535Y-79020034D01*
X120662538Y-79020038D01*
X120787961Y-79145461D01*
X120787965Y-79145464D01*
X120935446Y-79244009D01*
X120935459Y-79244016D01*
X121058363Y-79294923D01*
X121099334Y-79311894D01*
X121099336Y-79311894D01*
X121099341Y-79311896D01*
X121273304Y-79346499D01*
X121273307Y-79346500D01*
X121273309Y-79346500D01*
X121450693Y-79346500D01*
X121450694Y-79346499D01*
X121508682Y-79334964D01*
X121624658Y-79311896D01*
X121624661Y-79311894D01*
X121624666Y-79311894D01*
X121788547Y-79244013D01*
X121936035Y-79145464D01*
X122061464Y-79020035D01*
X122160013Y-78872547D01*
X122227894Y-78708666D01*
X122228918Y-78703522D01*
X122262499Y-78534695D01*
X122262500Y-78534693D01*
X122262500Y-78357306D01*
X122262499Y-78357304D01*
X123963000Y-78357304D01*
X123963000Y-78534695D01*
X123997603Y-78708658D01*
X123997606Y-78708667D01*
X124065483Y-78872540D01*
X124065490Y-78872553D01*
X124164035Y-79020034D01*
X124164038Y-79020038D01*
X124289461Y-79145461D01*
X124289465Y-79145464D01*
X124436946Y-79244009D01*
X124436959Y-79244016D01*
X124559863Y-79294923D01*
X124600834Y-79311894D01*
X124600836Y-79311894D01*
X124600841Y-79311896D01*
X124774804Y-79346499D01*
X124774807Y-79346500D01*
X124774809Y-79346500D01*
X124952193Y-79346500D01*
X124952194Y-79346499D01*
X125010182Y-79334964D01*
X125126158Y-79311896D01*
X125126161Y-79311894D01*
X125126166Y-79311894D01*
X125290047Y-79244013D01*
X125437535Y-79145464D01*
X125562964Y-79020035D01*
X125661513Y-78872547D01*
X125729394Y-78708666D01*
X125730418Y-78703522D01*
X125763999Y-78534695D01*
X125764000Y-78534693D01*
X125764000Y-78357306D01*
X125763999Y-78357304D01*
X125729396Y-78183341D01*
X125729393Y-78183332D01*
X125661516Y-78019459D01*
X125661509Y-78019446D01*
X125562964Y-77871965D01*
X125562961Y-77871961D01*
X125437538Y-77746538D01*
X125437534Y-77746535D01*
X125290053Y-77647990D01*
X125290040Y-77647983D01*
X125126167Y-77580106D01*
X125126158Y-77580103D01*
X124952194Y-77545500D01*
X124952191Y-77545500D01*
X124774809Y-77545500D01*
X124774806Y-77545500D01*
X124600841Y-77580103D01*
X124600832Y-77580106D01*
X124436959Y-77647983D01*
X124436946Y-77647990D01*
X124289465Y-77746535D01*
X124289461Y-77746538D01*
X124164038Y-77871961D01*
X124164035Y-77871965D01*
X124065490Y-78019446D01*
X124065483Y-78019459D01*
X123997606Y-78183332D01*
X123997603Y-78183341D01*
X123963000Y-78357304D01*
X122262499Y-78357304D01*
X122227896Y-78183341D01*
X122227893Y-78183332D01*
X122160016Y-78019459D01*
X122160009Y-78019446D01*
X122061464Y-77871965D01*
X122061461Y-77871961D01*
X121936038Y-77746538D01*
X121936034Y-77746535D01*
X121788553Y-77647990D01*
X121788540Y-77647983D01*
X121624667Y-77580106D01*
X121624658Y-77580103D01*
X121450694Y-77545500D01*
X121450691Y-77545500D01*
X121273309Y-77545500D01*
X121273306Y-77545500D01*
X121099341Y-77580103D01*
X121099332Y-77580106D01*
X120935459Y-77647983D01*
X120935446Y-77647990D01*
X120787965Y-77746535D01*
X120787961Y-77746538D01*
X120662538Y-77871961D01*
X120662535Y-77871965D01*
X120563990Y-78019446D01*
X120563983Y-78019459D01*
X120496106Y-78183332D01*
X120496103Y-78183341D01*
X120461500Y-78357304D01*
X109928500Y-78357304D01*
X109928500Y-78312542D01*
X109900620Y-78172385D01*
X109900619Y-78172384D01*
X109900619Y-78172380D01*
X109845929Y-78040347D01*
X109845928Y-78040346D01*
X109845925Y-78040340D01*
X109766532Y-77921521D01*
X109766529Y-77921517D01*
X109665482Y-77820470D01*
X109665478Y-77820467D01*
X109546659Y-77741074D01*
X109546650Y-77741069D01*
X109414620Y-77686381D01*
X109414614Y-77686379D01*
X109274457Y-77658500D01*
X109274455Y-77658500D01*
X109131545Y-77658500D01*
X109131543Y-77658500D01*
X108991385Y-77686379D01*
X108991379Y-77686381D01*
X108859349Y-77741069D01*
X108859342Y-77741073D01*
X108771890Y-77799507D01*
X108705213Y-77820384D01*
X108637833Y-77801899D01*
X108634110Y-77799507D01*
X108546657Y-77741073D01*
X108546650Y-77741069D01*
X108414620Y-77686381D01*
X108414614Y-77686379D01*
X108274457Y-77658500D01*
X108274455Y-77658500D01*
X108131545Y-77658500D01*
X108131543Y-77658500D01*
X107991385Y-77686379D01*
X107991379Y-77686381D01*
X107859349Y-77741069D01*
X107859342Y-77741073D01*
X107771890Y-77799507D01*
X107705213Y-77820384D01*
X107637833Y-77801899D01*
X107634110Y-77799507D01*
X107546657Y-77741073D01*
X107546650Y-77741069D01*
X107414620Y-77686381D01*
X107414614Y-77686379D01*
X107274457Y-77658500D01*
X107274455Y-77658500D01*
X107131545Y-77658500D01*
X107131543Y-77658500D01*
X106991385Y-77686379D01*
X106991379Y-77686381D01*
X106859349Y-77741069D01*
X106859340Y-77741074D01*
X106740521Y-77820467D01*
X106740517Y-77820470D01*
X106639470Y-77921517D01*
X106639467Y-77921521D01*
X106560074Y-78040340D01*
X106560069Y-78040349D01*
X106505381Y-78172379D01*
X106505379Y-78172385D01*
X106477500Y-78312542D01*
X106477500Y-78312545D01*
X106477500Y-78455455D01*
X106477500Y-78455457D01*
X106477499Y-78455457D01*
X105428500Y-78455457D01*
X105428500Y-78312542D01*
X105400620Y-78172385D01*
X105400619Y-78172384D01*
X105400619Y-78172380D01*
X105345929Y-78040347D01*
X105345928Y-78040346D01*
X105345925Y-78040340D01*
X105266532Y-77921521D01*
X105266529Y-77921517D01*
X105165482Y-77820470D01*
X105165478Y-77820467D01*
X105046659Y-77741074D01*
X105046650Y-77741069D01*
X104914620Y-77686381D01*
X104914614Y-77686379D01*
X104774457Y-77658500D01*
X104774455Y-77658500D01*
X104631545Y-77658500D01*
X104631543Y-77658500D01*
X104491385Y-77686379D01*
X104491379Y-77686381D01*
X104359349Y-77741069D01*
X104359340Y-77741074D01*
X104240521Y-77820467D01*
X104240517Y-77820470D01*
X104140181Y-77920807D01*
X104078858Y-77954292D01*
X104009166Y-77949308D01*
X103953233Y-77907436D01*
X103928816Y-77841972D01*
X103928500Y-77833126D01*
X103928500Y-77828542D01*
X103900620Y-77688385D01*
X103900619Y-77688384D01*
X103900619Y-77688380D01*
X103845929Y-77556347D01*
X103845928Y-77556346D01*
X103845925Y-77556340D01*
X103766532Y-77437521D01*
X103766529Y-77437517D01*
X103665482Y-77336470D01*
X103665478Y-77336467D01*
X103546659Y-77257074D01*
X103546650Y-77257069D01*
X103414620Y-77202381D01*
X103414614Y-77202379D01*
X103274457Y-77174500D01*
X103274455Y-77174500D01*
X103131545Y-77174500D01*
X103131543Y-77174500D01*
X102991385Y-77202379D01*
X102991379Y-77202381D01*
X102859349Y-77257069D01*
X102859340Y-77257074D01*
X102740521Y-77336467D01*
X102650841Y-77426147D01*
X102589517Y-77459631D01*
X102519826Y-77454647D01*
X102463892Y-77412775D01*
X102448599Y-77385918D01*
X102435268Y-77353735D01*
X102394929Y-77256347D01*
X102394928Y-77256346D01*
X102394925Y-77256340D01*
X102315532Y-77137521D01*
X102315529Y-77137517D01*
X102214482Y-77036470D01*
X102214478Y-77036467D01*
X102095659Y-76957074D01*
X102095650Y-76957069D01*
X101963620Y-76902381D01*
X101963614Y-76902379D01*
X101908027Y-76891322D01*
X101846116Y-76858937D01*
X101811542Y-76798221D01*
X101815283Y-76728451D01*
X101829118Y-76700813D01*
X101845924Y-76675660D01*
X101845925Y-76675659D01*
X101845929Y-76675653D01*
X101900619Y-76543620D01*
X101928500Y-76403455D01*
X101928500Y-76260545D01*
X101928500Y-76260542D01*
X101900620Y-76120385D01*
X101900619Y-76120384D01*
X101900619Y-76120380D01*
X101845929Y-75988347D01*
X101845928Y-75988346D01*
X101845925Y-75988340D01*
X101774507Y-75881457D01*
X105477499Y-75881457D01*
X105505379Y-76021614D01*
X105505381Y-76021620D01*
X105560069Y-76153650D01*
X105560074Y-76153659D01*
X105639467Y-76272478D01*
X105639470Y-76272482D01*
X105740517Y-76373529D01*
X105740521Y-76373532D01*
X105859340Y-76452925D01*
X105859346Y-76452928D01*
X105859347Y-76452929D01*
X105991380Y-76507619D01*
X105991384Y-76507619D01*
X105991385Y-76507620D01*
X106131542Y-76535500D01*
X106131545Y-76535500D01*
X106274457Y-76535500D01*
X106368751Y-76516742D01*
X106414620Y-76507619D01*
X106546653Y-76452929D01*
X106665479Y-76373532D01*
X106766532Y-76272479D01*
X106845929Y-76153653D01*
X106900619Y-76021620D01*
X106928500Y-75881455D01*
X106928500Y-75738545D01*
X106928500Y-75738542D01*
X106900620Y-75598385D01*
X106900619Y-75598384D01*
X106900619Y-75598380D01*
X106845929Y-75466347D01*
X106845928Y-75466346D01*
X106845925Y-75466340D01*
X106766532Y-75347521D01*
X106766529Y-75347517D01*
X106665482Y-75246470D01*
X106665478Y-75246467D01*
X106546659Y-75167074D01*
X106546650Y-75167069D01*
X106414620Y-75112381D01*
X106414614Y-75112379D01*
X106274457Y-75084500D01*
X106274455Y-75084500D01*
X106131545Y-75084500D01*
X106131543Y-75084500D01*
X105991385Y-75112379D01*
X105991379Y-75112381D01*
X105859349Y-75167069D01*
X105859340Y-75167074D01*
X105740521Y-75246467D01*
X105740517Y-75246470D01*
X105639470Y-75347517D01*
X105639467Y-75347521D01*
X105560074Y-75466340D01*
X105560069Y-75466349D01*
X105505381Y-75598379D01*
X105505379Y-75598385D01*
X105477500Y-75738542D01*
X105477500Y-75738545D01*
X105477500Y-75881455D01*
X105477500Y-75881457D01*
X105477499Y-75881457D01*
X101774507Y-75881457D01*
X101766532Y-75869521D01*
X101766529Y-75869517D01*
X101665482Y-75768470D01*
X101665478Y-75768467D01*
X101546659Y-75689074D01*
X101546650Y-75689069D01*
X101414620Y-75634381D01*
X101414614Y-75634379D01*
X101274457Y-75606500D01*
X101274455Y-75606500D01*
X101131545Y-75606500D01*
X101131543Y-75606500D01*
X100991385Y-75634379D01*
X100991379Y-75634381D01*
X100859349Y-75689069D01*
X100859340Y-75689074D01*
X100740521Y-75768467D01*
X100740517Y-75768470D01*
X100639470Y-75869517D01*
X100639467Y-75869521D01*
X100560074Y-75988340D01*
X100560069Y-75988349D01*
X100505381Y-76120379D01*
X100505379Y-76120385D01*
X100477500Y-76260542D01*
X100477500Y-76260545D01*
X100477500Y-76403455D01*
X100477500Y-76403457D01*
X100477499Y-76403457D01*
X95183270Y-76403457D01*
X95183270Y-76403455D01*
X95172737Y-76350503D01*
X95125031Y-76235331D01*
X95112395Y-76204823D01*
X95112390Y-76204814D01*
X95024789Y-76073711D01*
X95024786Y-76073707D01*
X94913292Y-75962213D01*
X94913288Y-75962210D01*
X94782185Y-75874609D01*
X94782172Y-75874602D01*
X94636501Y-75814264D01*
X94636489Y-75814261D01*
X94481845Y-75783500D01*
X94481842Y-75783500D01*
X94324158Y-75783500D01*
X94324155Y-75783500D01*
X94169510Y-75814261D01*
X94169498Y-75814264D01*
X94023827Y-75874602D01*
X94023814Y-75874609D01*
X93892711Y-75962210D01*
X93892707Y-75962213D01*
X93781213Y-76073707D01*
X93781210Y-76073711D01*
X93693609Y-76204814D01*
X93693602Y-76204827D01*
X93633264Y-76350498D01*
X93633261Y-76350510D01*
X93602500Y-76505153D01*
X90808499Y-76505153D01*
X90788270Y-76403455D01*
X90777737Y-76350503D01*
X90757607Y-76301904D01*
X90717397Y-76204827D01*
X90717390Y-76204814D01*
X90629789Y-76073711D01*
X90629786Y-76073707D01*
X90518292Y-75962213D01*
X90518288Y-75962210D01*
X90387185Y-75874609D01*
X90387172Y-75874602D01*
X90241501Y-75814264D01*
X90241489Y-75814261D01*
X90086845Y-75783500D01*
X90086842Y-75783500D01*
X89929158Y-75783500D01*
X89929155Y-75783500D01*
X89774510Y-75814261D01*
X89774498Y-75814264D01*
X89628827Y-75874602D01*
X89628814Y-75874609D01*
X89497711Y-75962210D01*
X89497707Y-75962213D01*
X89386213Y-76073707D01*
X89386210Y-76073711D01*
X89298609Y-76204814D01*
X89298602Y-76204827D01*
X89238264Y-76350498D01*
X89238261Y-76350510D01*
X89207500Y-76505153D01*
X80992147Y-76505153D01*
X80635301Y-75963149D01*
X80633066Y-75959624D01*
X80171683Y-75204360D01*
X80153500Y-75139717D01*
X80153500Y-75035920D01*
X96799499Y-75035920D01*
X96828340Y-75180907D01*
X96828343Y-75180917D01*
X96884912Y-75317488D01*
X96884919Y-75317501D01*
X96967048Y-75440415D01*
X96967051Y-75440419D01*
X97071580Y-75544948D01*
X97071584Y-75544951D01*
X97194498Y-75627080D01*
X97194511Y-75627087D01*
X97331082Y-75683656D01*
X97331087Y-75683658D01*
X97331091Y-75683658D01*
X97331092Y-75683659D01*
X97476079Y-75712500D01*
X97476082Y-75712500D01*
X97623920Y-75712500D01*
X97721462Y-75693096D01*
X97768913Y-75683658D01*
X97874547Y-75639902D01*
X97905488Y-75627087D01*
X97905488Y-75627086D01*
X97905495Y-75627084D01*
X98028416Y-75544951D01*
X98132951Y-75440416D01*
X98215084Y-75317495D01*
X98271658Y-75180913D01*
X98300500Y-75035918D01*
X98300500Y-74888082D01*
X98300500Y-74888079D01*
X98271659Y-74743092D01*
X98271658Y-74743091D01*
X98271658Y-74743087D01*
X98271656Y-74743082D01*
X98215087Y-74606511D01*
X98215080Y-74606498D01*
X98132951Y-74483584D01*
X98132948Y-74483580D01*
X98028419Y-74379051D01*
X98028415Y-74379048D01*
X97905501Y-74296919D01*
X97905488Y-74296912D01*
X97768917Y-74240343D01*
X97768907Y-74240340D01*
X97623920Y-74211500D01*
X97623918Y-74211500D01*
X97476082Y-74211500D01*
X97476080Y-74211500D01*
X97331092Y-74240340D01*
X97331082Y-74240343D01*
X97194511Y-74296912D01*
X97194498Y-74296919D01*
X97071584Y-74379048D01*
X97071580Y-74379051D01*
X96967051Y-74483580D01*
X96967048Y-74483584D01*
X96884919Y-74606498D01*
X96884912Y-74606511D01*
X96828343Y-74743082D01*
X96828340Y-74743092D01*
X96799500Y-74888079D01*
X96799500Y-74888082D01*
X96799500Y-75035918D01*
X96799500Y-75035920D01*
X96799499Y-75035920D01*
X80153500Y-75035920D01*
X80153500Y-73123457D01*
X106477499Y-73123457D01*
X106505379Y-73263614D01*
X106505381Y-73263620D01*
X106560069Y-73395650D01*
X106560074Y-73395659D01*
X106639467Y-73514478D01*
X106639470Y-73514482D01*
X106740517Y-73615529D01*
X106740521Y-73615532D01*
X106859340Y-73694925D01*
X106859346Y-73694928D01*
X106859347Y-73694929D01*
X106991380Y-73749619D01*
X106991384Y-73749619D01*
X106991385Y-73749620D01*
X107131542Y-73777500D01*
X107131545Y-73777500D01*
X107274457Y-73777500D01*
X107368751Y-73758742D01*
X107414620Y-73749619D01*
X107546653Y-73694929D01*
X107665479Y-73615532D01*
X107766532Y-73514479D01*
X107845929Y-73395653D01*
X107900619Y-73263620D01*
X107928500Y-73123455D01*
X107928500Y-72980545D01*
X107928500Y-72980542D01*
X107900620Y-72840385D01*
X107900619Y-72840384D01*
X107900619Y-72840380D01*
X107845929Y-72708347D01*
X107845928Y-72708346D01*
X107845925Y-72708340D01*
X107766532Y-72589521D01*
X107766529Y-72589517D01*
X107665482Y-72488470D01*
X107665478Y-72488467D01*
X107546659Y-72409074D01*
X107546650Y-72409069D01*
X107414620Y-72354381D01*
X107414614Y-72354379D01*
X107274457Y-72326500D01*
X107274455Y-72326500D01*
X107131545Y-72326500D01*
X107131543Y-72326500D01*
X106991385Y-72354379D01*
X106991379Y-72354381D01*
X106859349Y-72409069D01*
X106859340Y-72409074D01*
X106740521Y-72488467D01*
X106740517Y-72488470D01*
X106639470Y-72589517D01*
X106639467Y-72589521D01*
X106560074Y-72708340D01*
X106560069Y-72708349D01*
X106505381Y-72840379D01*
X106505379Y-72840385D01*
X106477500Y-72980542D01*
X106477500Y-72980545D01*
X106477500Y-73123455D01*
X106477500Y-73123457D01*
X106477499Y-73123457D01*
X80153500Y-73123457D01*
X80153500Y-71662804D01*
X86907800Y-71662804D01*
X86907800Y-71840195D01*
X86942403Y-72014158D01*
X86942406Y-72014167D01*
X87010283Y-72178040D01*
X87010290Y-72178053D01*
X87108835Y-72325534D01*
X87108838Y-72325538D01*
X87234261Y-72450961D01*
X87234265Y-72450964D01*
X87381746Y-72549509D01*
X87381759Y-72549516D01*
X87478332Y-72589517D01*
X87545634Y-72617394D01*
X87545636Y-72617394D01*
X87545641Y-72617396D01*
X87719604Y-72651999D01*
X87719607Y-72652000D01*
X87719609Y-72652000D01*
X87896993Y-72652000D01*
X87896994Y-72651999D01*
X87954982Y-72640464D01*
X88070958Y-72617396D01*
X88070961Y-72617394D01*
X88070966Y-72617394D01*
X88234847Y-72549513D01*
X88382335Y-72450964D01*
X88507764Y-72325535D01*
X88606313Y-72178047D01*
X88674194Y-72014166D01*
X88708800Y-71840191D01*
X88708800Y-71662809D01*
X88708800Y-71662806D01*
X88708799Y-71662804D01*
X91302500Y-71662804D01*
X91302500Y-71840195D01*
X91337103Y-72014158D01*
X91337106Y-72014167D01*
X91404983Y-72178040D01*
X91404990Y-72178053D01*
X91503535Y-72325534D01*
X91503538Y-72325538D01*
X91628961Y-72450961D01*
X91628965Y-72450964D01*
X91776446Y-72549509D01*
X91776459Y-72549516D01*
X91873032Y-72589517D01*
X91940334Y-72617394D01*
X91940336Y-72617394D01*
X91940341Y-72617396D01*
X92114304Y-72651999D01*
X92114307Y-72652000D01*
X92114309Y-72652000D01*
X92291693Y-72652000D01*
X92291694Y-72651999D01*
X92349682Y-72640464D01*
X92465658Y-72617396D01*
X92465661Y-72617394D01*
X92465666Y-72617394D01*
X92629547Y-72549513D01*
X92777035Y-72450964D01*
X92902464Y-72325535D01*
X93001013Y-72178047D01*
X93068894Y-72014166D01*
X93103500Y-71840191D01*
X93103500Y-71662809D01*
X93103500Y-71662806D01*
X93103499Y-71662804D01*
X93068896Y-71488841D01*
X93068893Y-71488832D01*
X93001016Y-71324959D01*
X93001009Y-71324946D01*
X92902464Y-71177465D01*
X92902461Y-71177461D01*
X92777038Y-71052038D01*
X92777034Y-71052035D01*
X92629553Y-70953490D01*
X92629540Y-70953483D01*
X92465667Y-70885606D01*
X92465658Y-70885603D01*
X92291694Y-70851000D01*
X92291691Y-70851000D01*
X92114309Y-70851000D01*
X92114306Y-70851000D01*
X91940341Y-70885603D01*
X91940332Y-70885606D01*
X91776459Y-70953483D01*
X91776446Y-70953490D01*
X91628965Y-71052035D01*
X91628961Y-71052038D01*
X91503538Y-71177461D01*
X91503535Y-71177465D01*
X91404990Y-71324946D01*
X91404983Y-71324959D01*
X91337106Y-71488832D01*
X91337103Y-71488841D01*
X91302500Y-71662804D01*
X88708799Y-71662804D01*
X88674196Y-71488841D01*
X88674193Y-71488832D01*
X88606316Y-71324959D01*
X88606309Y-71324946D01*
X88507764Y-71177465D01*
X88507761Y-71177461D01*
X88382338Y-71052038D01*
X88382334Y-71052035D01*
X88234853Y-70953490D01*
X88234840Y-70953483D01*
X88070967Y-70885606D01*
X88070958Y-70885603D01*
X87896994Y-70851000D01*
X87896991Y-70851000D01*
X87719609Y-70851000D01*
X87719606Y-70851000D01*
X87545641Y-70885603D01*
X87545632Y-70885606D01*
X87381759Y-70953483D01*
X87381746Y-70953490D01*
X87234265Y-71052035D01*
X87234261Y-71052038D01*
X87108838Y-71177461D01*
X87108835Y-71177465D01*
X87010290Y-71324946D01*
X87010283Y-71324959D01*
X86942406Y-71488832D01*
X86942403Y-71488841D01*
X86907800Y-71662804D01*
X80153500Y-71662804D01*
X80153500Y-68893457D01*
X102477499Y-68893457D01*
X102505379Y-69033614D01*
X102505381Y-69033620D01*
X102560069Y-69165650D01*
X102560074Y-69165659D01*
X102639467Y-69284478D01*
X102639470Y-69284482D01*
X102740517Y-69385529D01*
X102740521Y-69385532D01*
X102859340Y-69464925D01*
X102859346Y-69464928D01*
X102859347Y-69464929D01*
X102991380Y-69519619D01*
X102991384Y-69519619D01*
X102991385Y-69519620D01*
X103131542Y-69547500D01*
X103131545Y-69547500D01*
X103274457Y-69547500D01*
X103368751Y-69528742D01*
X103414620Y-69519619D01*
X103546653Y-69464929D01*
X103665479Y-69385532D01*
X103766532Y-69284479D01*
X103845929Y-69165653D01*
X103900619Y-69033620D01*
X103928500Y-68893455D01*
X103928500Y-68750545D01*
X103928500Y-68750542D01*
X103900620Y-68610385D01*
X103900619Y-68610384D01*
X103900619Y-68610380D01*
X103845929Y-68478347D01*
X103845928Y-68478346D01*
X103845925Y-68478340D01*
X103766532Y-68359521D01*
X103766529Y-68359517D01*
X103665482Y-68258470D01*
X103665478Y-68258467D01*
X103546659Y-68179074D01*
X103546650Y-68179069D01*
X103414620Y-68124381D01*
X103414614Y-68124379D01*
X103274457Y-68096500D01*
X103274455Y-68096500D01*
X103131545Y-68096500D01*
X103131543Y-68096500D01*
X102991385Y-68124379D01*
X102991379Y-68124381D01*
X102859349Y-68179069D01*
X102859340Y-68179074D01*
X102740521Y-68258467D01*
X102740517Y-68258470D01*
X102639470Y-68359517D01*
X102639467Y-68359521D01*
X102560074Y-68478340D01*
X102560069Y-68478349D01*
X102505381Y-68610379D01*
X102505379Y-68610385D01*
X102477500Y-68750542D01*
X102477500Y-68750545D01*
X102477500Y-68893455D01*
X102477500Y-68893457D01*
X102477499Y-68893457D01*
X80153500Y-68893457D01*
X80153500Y-67450304D01*
X88427499Y-67450304D01*
X88427499Y-67627695D01*
X88462102Y-67801658D01*
X88462105Y-67801667D01*
X88529982Y-67965540D01*
X88529989Y-67965553D01*
X88628534Y-68113034D01*
X88628537Y-68113038D01*
X88753960Y-68238461D01*
X88753964Y-68238464D01*
X88901445Y-68337009D01*
X88901458Y-68337016D01*
X89024362Y-68387923D01*
X89065333Y-68404894D01*
X89065335Y-68404894D01*
X89065340Y-68404896D01*
X89239303Y-68439499D01*
X89239306Y-68439500D01*
X89239308Y-68439500D01*
X89416692Y-68439500D01*
X89416693Y-68439499D01*
X89474681Y-68427964D01*
X89590657Y-68404896D01*
X89590660Y-68404894D01*
X89590665Y-68404894D01*
X89754546Y-68337013D01*
X89902034Y-68238464D01*
X90027463Y-68113035D01*
X90126012Y-67965547D01*
X90193893Y-67801666D01*
X90228499Y-67627691D01*
X90228499Y-67450309D01*
X90228499Y-67450306D01*
X90228498Y-67450304D01*
X90193895Y-67276341D01*
X90193892Y-67276332D01*
X90126015Y-67112459D01*
X90126008Y-67112446D01*
X90027463Y-66964965D01*
X90027460Y-66964961D01*
X89902037Y-66839538D01*
X89902033Y-66839535D01*
X89754552Y-66740990D01*
X89754539Y-66740983D01*
X89590666Y-66673106D01*
X89590657Y-66673103D01*
X89416693Y-66638500D01*
X89416690Y-66638500D01*
X89239308Y-66638500D01*
X89239305Y-66638500D01*
X89065340Y-66673103D01*
X89065331Y-66673106D01*
X88901458Y-66740983D01*
X88901445Y-66740990D01*
X88753964Y-66839535D01*
X88753960Y-66839538D01*
X88628537Y-66964961D01*
X88628534Y-66964965D01*
X88529989Y-67112446D01*
X88529982Y-67112459D01*
X88462105Y-67276332D01*
X88462102Y-67276341D01*
X88427499Y-67450304D01*
X80153500Y-67450304D01*
X80153500Y-63460153D01*
X88227500Y-63460153D01*
X88227500Y-63617846D01*
X88258261Y-63772489D01*
X88258264Y-63772501D01*
X88318602Y-63918172D01*
X88318609Y-63918185D01*
X88406210Y-64049288D01*
X88406213Y-64049292D01*
X88517707Y-64160786D01*
X88517711Y-64160789D01*
X88648814Y-64248390D01*
X88648827Y-64248397D01*
X88755047Y-64292394D01*
X88794503Y-64308737D01*
X88949153Y-64339499D01*
X88949156Y-64339500D01*
X88949158Y-64339500D01*
X89106844Y-64339500D01*
X89106845Y-64339499D01*
X89261497Y-64308737D01*
X89407179Y-64248394D01*
X89538289Y-64160789D01*
X89649789Y-64049289D01*
X89737394Y-63918179D01*
X89797737Y-63772497D01*
X89828500Y-63617842D01*
X89828500Y-63504153D01*
X92222500Y-63504153D01*
X92222500Y-63661846D01*
X92253261Y-63816489D01*
X92253264Y-63816501D01*
X92313602Y-63962172D01*
X92313609Y-63962185D01*
X92401210Y-64093288D01*
X92401213Y-64093292D01*
X92512707Y-64204786D01*
X92512711Y-64204789D01*
X92643814Y-64292390D01*
X92643827Y-64292397D01*
X92789498Y-64352735D01*
X92789503Y-64352737D01*
X92944153Y-64383499D01*
X92944156Y-64383500D01*
X92944158Y-64383500D01*
X93101844Y-64383500D01*
X93101845Y-64383499D01*
X93256497Y-64352737D01*
X93402179Y-64292394D01*
X93533289Y-64204789D01*
X93644789Y-64093289D01*
X93732394Y-63962179D01*
X93792737Y-63816497D01*
X93811351Y-63722920D01*
X111336499Y-63722920D01*
X111365340Y-63867907D01*
X111365343Y-63867917D01*
X111421912Y-64004488D01*
X111421919Y-64004501D01*
X111504048Y-64127415D01*
X111504051Y-64127419D01*
X111608580Y-64231948D01*
X111608584Y-64231951D01*
X111731498Y-64314080D01*
X111731511Y-64314087D01*
X111824824Y-64352738D01*
X111868087Y-64370658D01*
X111868091Y-64370658D01*
X111868092Y-64370659D01*
X112013079Y-64399500D01*
X112013082Y-64399500D01*
X112160920Y-64399500D01*
X112258462Y-64380096D01*
X112305913Y-64370658D01*
X112442495Y-64314084D01*
X112474952Y-64292397D01*
X112528109Y-64256879D01*
X112594787Y-64236001D01*
X112662167Y-64254485D01*
X112665891Y-64256879D01*
X112751498Y-64314080D01*
X112751511Y-64314087D01*
X112844824Y-64352738D01*
X112888087Y-64370658D01*
X112888091Y-64370658D01*
X112888092Y-64370659D01*
X113033079Y-64399500D01*
X113033082Y-64399500D01*
X113180920Y-64399500D01*
X113278462Y-64380096D01*
X113325913Y-64370658D01*
X113462495Y-64314084D01*
X113494952Y-64292397D01*
X113553609Y-64253204D01*
X113620287Y-64232326D01*
X113687667Y-64250810D01*
X113691391Y-64253204D01*
X113782498Y-64314080D01*
X113782511Y-64314087D01*
X113875824Y-64352738D01*
X113919087Y-64370658D01*
X113919091Y-64370658D01*
X113919092Y-64370659D01*
X114064079Y-64399500D01*
X114064082Y-64399500D01*
X114211920Y-64399500D01*
X114309462Y-64380096D01*
X114356913Y-64370658D01*
X114493495Y-64314084D01*
X114525952Y-64292397D01*
X114579109Y-64256879D01*
X114645787Y-64236001D01*
X114713167Y-64254485D01*
X114716891Y-64256879D01*
X114802498Y-64314080D01*
X114802511Y-64314087D01*
X114895824Y-64352738D01*
X114939087Y-64370658D01*
X114939091Y-64370658D01*
X114939092Y-64370659D01*
X115084079Y-64399500D01*
X115084082Y-64399500D01*
X115231920Y-64399500D01*
X115329462Y-64380096D01*
X115376913Y-64370658D01*
X115513495Y-64314084D01*
X115636416Y-64231951D01*
X115740951Y-64127416D01*
X115823084Y-64004495D01*
X115879658Y-63867913D01*
X115898638Y-63772497D01*
X115908500Y-63722920D01*
X115908500Y-63575079D01*
X115879659Y-63430092D01*
X115879658Y-63430091D01*
X115879658Y-63430087D01*
X115828052Y-63305498D01*
X115823087Y-63293511D01*
X115823080Y-63293498D01*
X115740951Y-63170584D01*
X115740948Y-63170580D01*
X115636419Y-63066051D01*
X115636415Y-63066048D01*
X115513501Y-62983919D01*
X115513488Y-62983912D01*
X115376917Y-62927343D01*
X115376907Y-62927340D01*
X115231920Y-62898500D01*
X115231918Y-62898500D01*
X115084082Y-62898500D01*
X115084080Y-62898500D01*
X114939092Y-62927340D01*
X114939082Y-62927343D01*
X114802511Y-62983912D01*
X114802500Y-62983918D01*
X114716890Y-63041121D01*
X114650213Y-63061998D01*
X114582833Y-63043513D01*
X114579110Y-63041121D01*
X114493499Y-62983918D01*
X114493488Y-62983912D01*
X114356917Y-62927343D01*
X114356907Y-62927340D01*
X114211920Y-62898500D01*
X114211918Y-62898500D01*
X114064082Y-62898500D01*
X114064080Y-62898500D01*
X113919092Y-62927340D01*
X113919082Y-62927343D01*
X113782511Y-62983912D01*
X113782500Y-62983918D01*
X113691390Y-63044796D01*
X113624713Y-63065673D01*
X113557333Y-63047188D01*
X113553610Y-63044796D01*
X113462499Y-62983918D01*
X113462488Y-62983912D01*
X113325917Y-62927343D01*
X113325907Y-62927340D01*
X113180920Y-62898500D01*
X113180918Y-62898500D01*
X113033082Y-62898500D01*
X113033080Y-62898500D01*
X112888092Y-62927340D01*
X112888082Y-62927343D01*
X112751511Y-62983912D01*
X112751500Y-62983918D01*
X112665890Y-63041121D01*
X112599213Y-63061998D01*
X112531833Y-63043513D01*
X112528110Y-63041121D01*
X112442499Y-62983918D01*
X112442488Y-62983912D01*
X112305917Y-62927343D01*
X112305907Y-62927340D01*
X112160920Y-62898500D01*
X112160918Y-62898500D01*
X112013082Y-62898500D01*
X112013080Y-62898500D01*
X111868092Y-62927340D01*
X111868082Y-62927343D01*
X111731511Y-62983912D01*
X111731498Y-62983919D01*
X111608584Y-63066048D01*
X111608580Y-63066051D01*
X111504051Y-63170580D01*
X111504048Y-63170584D01*
X111421919Y-63293498D01*
X111421912Y-63293511D01*
X111365343Y-63430082D01*
X111365340Y-63430092D01*
X111336500Y-63575079D01*
X111336500Y-63575082D01*
X111336500Y-63722918D01*
X111336500Y-63722920D01*
X111336499Y-63722920D01*
X93811351Y-63722920D01*
X93823500Y-63661842D01*
X93823500Y-63504158D01*
X93823500Y-63504155D01*
X93823499Y-63504153D01*
X93792738Y-63349510D01*
X93792737Y-63349503D01*
X93769539Y-63293498D01*
X93732397Y-63203827D01*
X93732390Y-63203814D01*
X93644789Y-63072711D01*
X93644786Y-63072707D01*
X93533292Y-62961213D01*
X93533288Y-62961210D01*
X93402185Y-62873609D01*
X93402172Y-62873602D01*
X93256501Y-62813264D01*
X93256489Y-62813261D01*
X93101845Y-62782500D01*
X93101842Y-62782500D01*
X92944158Y-62782500D01*
X92944155Y-62782500D01*
X92789510Y-62813261D01*
X92789498Y-62813264D01*
X92643827Y-62873602D01*
X92643814Y-62873609D01*
X92512711Y-62961210D01*
X92512707Y-62961213D01*
X92401213Y-63072707D01*
X92401210Y-63072711D01*
X92313609Y-63203814D01*
X92313602Y-63203827D01*
X92253264Y-63349498D01*
X92253261Y-63349510D01*
X92222500Y-63504153D01*
X89828500Y-63504153D01*
X89828500Y-63460158D01*
X89828500Y-63460155D01*
X89828499Y-63460153D01*
X89822517Y-63430082D01*
X89797737Y-63305503D01*
X89792767Y-63293505D01*
X89737397Y-63159827D01*
X89737390Y-63159814D01*
X89649789Y-63028711D01*
X89649786Y-63028707D01*
X89538292Y-62917213D01*
X89538288Y-62917210D01*
X89407185Y-62829609D01*
X89407172Y-62829602D01*
X89261501Y-62769264D01*
X89261489Y-62769261D01*
X89106845Y-62738500D01*
X89106842Y-62738500D01*
X88949158Y-62738500D01*
X88949155Y-62738500D01*
X88794510Y-62769261D01*
X88794498Y-62769264D01*
X88648827Y-62829602D01*
X88648814Y-62829609D01*
X88517711Y-62917210D01*
X88517707Y-62917213D01*
X88406213Y-63028707D01*
X88406210Y-63028711D01*
X88318609Y-63159814D01*
X88318602Y-63159827D01*
X88258264Y-63305498D01*
X88258261Y-63305510D01*
X88227500Y-63460153D01*
X80153500Y-63460153D01*
X80153500Y-61455153D01*
X122262500Y-61455153D01*
X122262500Y-61612846D01*
X122293261Y-61767489D01*
X122293264Y-61767501D01*
X122353602Y-61913172D01*
X122353609Y-61913185D01*
X122441210Y-62044288D01*
X122441213Y-62044292D01*
X122552707Y-62155786D01*
X122552711Y-62155789D01*
X122683814Y-62243390D01*
X122683827Y-62243397D01*
X122829498Y-62303735D01*
X122829503Y-62303737D01*
X122984153Y-62334499D01*
X122984156Y-62334500D01*
X122984158Y-62334500D01*
X123141844Y-62334500D01*
X123141845Y-62334499D01*
X123296497Y-62303737D01*
X123442179Y-62243394D01*
X123573289Y-62155789D01*
X123684789Y-62044289D01*
X123772394Y-61913179D01*
X123832737Y-61767497D01*
X123863500Y-61612842D01*
X123863500Y-61455158D01*
X123863500Y-61455155D01*
X123863499Y-61455153D01*
X126432500Y-61455153D01*
X126432500Y-61612846D01*
X126463261Y-61767489D01*
X126463264Y-61767501D01*
X126523602Y-61913172D01*
X126523609Y-61913185D01*
X126611210Y-62044288D01*
X126611213Y-62044292D01*
X126722707Y-62155786D01*
X126722711Y-62155789D01*
X126853814Y-62243390D01*
X126853827Y-62243397D01*
X126999498Y-62303735D01*
X126999503Y-62303737D01*
X127154153Y-62334499D01*
X127154156Y-62334500D01*
X127154158Y-62334500D01*
X127311844Y-62334500D01*
X127311845Y-62334499D01*
X127466497Y-62303737D01*
X127612179Y-62243394D01*
X127743289Y-62155789D01*
X127854789Y-62044289D01*
X127942394Y-61913179D01*
X128002737Y-61767497D01*
X128033500Y-61612842D01*
X128033500Y-61455158D01*
X128033500Y-61455155D01*
X128033499Y-61455153D01*
X128002737Y-61300503D01*
X127985165Y-61258080D01*
X127942397Y-61154827D01*
X127942390Y-61154814D01*
X127854789Y-61023711D01*
X127854786Y-61023707D01*
X127743292Y-60912213D01*
X127743288Y-60912210D01*
X127612185Y-60824609D01*
X127612172Y-60824602D01*
X127466501Y-60764264D01*
X127466489Y-60764261D01*
X127311845Y-60733500D01*
X127311842Y-60733500D01*
X127154158Y-60733500D01*
X127154155Y-60733500D01*
X126999510Y-60764261D01*
X126999498Y-60764264D01*
X126853827Y-60824602D01*
X126853814Y-60824609D01*
X126722711Y-60912210D01*
X126722707Y-60912213D01*
X126611213Y-61023707D01*
X126611210Y-61023711D01*
X126523609Y-61154814D01*
X126523602Y-61154827D01*
X126463264Y-61300498D01*
X126463261Y-61300510D01*
X126432500Y-61455153D01*
X123863499Y-61455153D01*
X123832737Y-61300503D01*
X123815165Y-61258080D01*
X123772397Y-61154827D01*
X123772390Y-61154814D01*
X123684789Y-61023711D01*
X123684786Y-61023707D01*
X123573292Y-60912213D01*
X123573288Y-60912210D01*
X123442185Y-60824609D01*
X123442172Y-60824602D01*
X123296501Y-60764264D01*
X123296489Y-60764261D01*
X123141845Y-60733500D01*
X123141842Y-60733500D01*
X122984158Y-60733500D01*
X122984155Y-60733500D01*
X122829510Y-60764261D01*
X122829498Y-60764264D01*
X122683827Y-60824602D01*
X122683814Y-60824609D01*
X122552711Y-60912210D01*
X122552707Y-60912213D01*
X122441213Y-61023707D01*
X122441210Y-61023711D01*
X122353609Y-61154814D01*
X122353602Y-61154827D01*
X122293264Y-61300498D01*
X122293261Y-61300510D01*
X122262500Y-61455153D01*
X80153500Y-61455153D01*
X80153500Y-60666920D01*
X98545487Y-60666920D01*
X98574328Y-60811907D01*
X98574331Y-60811917D01*
X98630900Y-60948488D01*
X98630907Y-60948501D01*
X98713036Y-61071415D01*
X98713039Y-61071419D01*
X98817568Y-61175948D01*
X98817572Y-61175951D01*
X98940486Y-61258080D01*
X98940499Y-61258087D01*
X99077070Y-61314656D01*
X99077075Y-61314658D01*
X99077079Y-61314658D01*
X99077080Y-61314659D01*
X99222067Y-61343500D01*
X99222070Y-61343500D01*
X99369908Y-61343500D01*
X99467450Y-61324096D01*
X99514901Y-61314658D01*
X99651483Y-61258084D01*
X99774404Y-61175951D01*
X99878939Y-61071416D01*
X99961072Y-60948495D01*
X99979350Y-60904365D01*
X100023190Y-60849965D01*
X100089484Y-60827899D01*
X100157183Y-60845178D01*
X100162802Y-60848718D01*
X100210493Y-60880584D01*
X100210495Y-60880585D01*
X100210499Y-60880587D01*
X100286847Y-60912211D01*
X100347075Y-60937158D01*
X100347079Y-60937158D01*
X100347080Y-60937159D01*
X100492067Y-60966000D01*
X100492070Y-60966000D01*
X100639908Y-60966000D01*
X100737450Y-60946596D01*
X100784901Y-60937158D01*
X100921483Y-60880584D01*
X101044404Y-60798451D01*
X101148939Y-60693916D01*
X101166977Y-60666920D01*
X105045487Y-60666920D01*
X105074328Y-60811907D01*
X105074331Y-60811917D01*
X105130900Y-60948488D01*
X105130907Y-60948501D01*
X105213036Y-61071415D01*
X105213039Y-61071419D01*
X105317568Y-61175948D01*
X105317572Y-61175951D01*
X105440486Y-61258080D01*
X105440499Y-61258087D01*
X105577070Y-61314656D01*
X105577075Y-61314658D01*
X105577079Y-61314658D01*
X105577080Y-61314659D01*
X105722067Y-61343500D01*
X105722070Y-61343500D01*
X105869908Y-61343500D01*
X105967450Y-61324096D01*
X106014901Y-61314658D01*
X106151483Y-61258084D01*
X106274404Y-61175951D01*
X106378939Y-61071416D01*
X106461072Y-60948495D01*
X106517646Y-60811913D01*
X106546488Y-60666920D01*
X110045487Y-60666920D01*
X110074328Y-60811907D01*
X110074331Y-60811917D01*
X110130900Y-60948488D01*
X110130907Y-60948501D01*
X110213036Y-61071415D01*
X110213039Y-61071419D01*
X110317568Y-61175948D01*
X110317572Y-61175951D01*
X110440486Y-61258080D01*
X110440499Y-61258087D01*
X110577070Y-61314656D01*
X110577075Y-61314658D01*
X110577079Y-61314658D01*
X110577080Y-61314659D01*
X110722067Y-61343500D01*
X110722070Y-61343500D01*
X110869908Y-61343500D01*
X110950600Y-61327449D01*
X110994775Y-61318661D01*
X111014901Y-61314658D01*
X111151483Y-61258084D01*
X111274404Y-61175951D01*
X111378939Y-61071416D01*
X111461072Y-60948495D01*
X111517646Y-60811913D01*
X111546488Y-60666918D01*
X111546488Y-60519082D01*
X111546488Y-60519079D01*
X111517647Y-60374092D01*
X111517646Y-60374091D01*
X111517646Y-60374087D01*
X111502291Y-60337016D01*
X111461075Y-60237511D01*
X111461068Y-60237498D01*
X111378939Y-60114584D01*
X111378936Y-60114580D01*
X111274407Y-60010051D01*
X111274403Y-60010048D01*
X111151489Y-59927919D01*
X111151476Y-59927912D01*
X111014905Y-59871343D01*
X111014895Y-59871340D01*
X110869908Y-59842500D01*
X110869906Y-59842500D01*
X110722070Y-59842500D01*
X110722068Y-59842500D01*
X110577080Y-59871340D01*
X110577070Y-59871343D01*
X110440499Y-59927912D01*
X110440486Y-59927919D01*
X110317572Y-60010048D01*
X110317568Y-60010051D01*
X110213039Y-60114580D01*
X110213036Y-60114584D01*
X110130907Y-60237498D01*
X110130900Y-60237511D01*
X110074331Y-60374082D01*
X110074328Y-60374092D01*
X110045488Y-60519079D01*
X110045488Y-60519082D01*
X110045488Y-60666918D01*
X110045488Y-60666920D01*
X110045487Y-60666920D01*
X106546488Y-60666920D01*
X106546488Y-60666918D01*
X106546488Y-60519082D01*
X106546488Y-60519079D01*
X106517647Y-60374092D01*
X106517646Y-60374091D01*
X106517646Y-60374087D01*
X106502291Y-60337016D01*
X106461075Y-60237511D01*
X106461068Y-60237498D01*
X106378939Y-60114584D01*
X106378936Y-60114580D01*
X106274407Y-60010051D01*
X106274403Y-60010048D01*
X106151489Y-59927919D01*
X106151476Y-59927912D01*
X106014905Y-59871343D01*
X106014895Y-59871340D01*
X105869908Y-59842500D01*
X105869906Y-59842500D01*
X105722070Y-59842500D01*
X105722068Y-59842500D01*
X105577080Y-59871340D01*
X105577070Y-59871343D01*
X105440499Y-59927912D01*
X105440486Y-59927919D01*
X105317572Y-60010048D01*
X105317568Y-60010051D01*
X105213039Y-60114580D01*
X105213036Y-60114584D01*
X105130907Y-60237498D01*
X105130900Y-60237511D01*
X105074331Y-60374082D01*
X105074328Y-60374092D01*
X105045488Y-60519079D01*
X105045488Y-60519082D01*
X105045488Y-60666918D01*
X105045488Y-60666920D01*
X105045487Y-60666920D01*
X101166977Y-60666920D01*
X101231072Y-60570995D01*
X101252575Y-60519082D01*
X101274754Y-60465538D01*
X101287644Y-60434417D01*
X101287646Y-60434413D01*
X101307021Y-60337013D01*
X101316488Y-60289420D01*
X101316488Y-60141579D01*
X101287647Y-59996592D01*
X101287646Y-59996591D01*
X101287646Y-59996587D01*
X101274786Y-59965540D01*
X101231075Y-59860011D01*
X101231068Y-59859998D01*
X101148939Y-59737084D01*
X101148936Y-59737080D01*
X101044407Y-59632551D01*
X101044403Y-59632548D01*
X100921489Y-59550419D01*
X100921476Y-59550412D01*
X100784905Y-59493843D01*
X100784895Y-59493840D01*
X100639908Y-59465000D01*
X100639906Y-59465000D01*
X100492070Y-59465000D01*
X100492068Y-59465000D01*
X100347080Y-59493840D01*
X100347070Y-59493843D01*
X100210499Y-59550412D01*
X100210486Y-59550419D01*
X100087572Y-59632548D01*
X100087568Y-59632551D01*
X99983039Y-59737080D01*
X99983036Y-59737084D01*
X99900907Y-59859998D01*
X99900899Y-59860013D01*
X99882624Y-59904133D01*
X99838783Y-59958536D01*
X99772488Y-59980600D01*
X99704789Y-59963320D01*
X99699173Y-59959781D01*
X99651489Y-59927919D01*
X99651476Y-59927912D01*
X99514905Y-59871343D01*
X99514895Y-59871340D01*
X99369908Y-59842500D01*
X99369906Y-59842500D01*
X99222070Y-59842500D01*
X99222068Y-59842500D01*
X99077080Y-59871340D01*
X99077070Y-59871343D01*
X98940499Y-59927912D01*
X98940486Y-59927919D01*
X98817572Y-60010048D01*
X98817568Y-60010051D01*
X98713039Y-60114580D01*
X98713036Y-60114584D01*
X98630907Y-60237498D01*
X98630900Y-60237511D01*
X98574331Y-60374082D01*
X98574328Y-60374092D01*
X98545488Y-60519079D01*
X98545488Y-60519082D01*
X98545488Y-60666918D01*
X98545488Y-60666920D01*
X98545487Y-60666920D01*
X80153500Y-60666920D01*
X80153500Y-59450304D01*
X88427499Y-59450304D01*
X88427499Y-59627695D01*
X88462102Y-59801658D01*
X88462105Y-59801667D01*
X88529982Y-59965540D01*
X88529989Y-59965553D01*
X88628534Y-60113034D01*
X88628537Y-60113038D01*
X88753960Y-60238461D01*
X88753964Y-60238464D01*
X88901445Y-60337009D01*
X88901458Y-60337016D01*
X89024362Y-60387923D01*
X89065333Y-60404894D01*
X89065335Y-60404894D01*
X89065340Y-60404896D01*
X89239303Y-60439499D01*
X89239306Y-60439500D01*
X89239308Y-60439500D01*
X89416692Y-60439500D01*
X89416693Y-60439499D01*
X89474681Y-60427964D01*
X89590657Y-60404896D01*
X89590657Y-60404895D01*
X89590665Y-60404894D01*
X89754546Y-60337013D01*
X89902034Y-60238464D01*
X90027463Y-60113035D01*
X90126012Y-59965547D01*
X90126935Y-59963320D01*
X90151450Y-59904133D01*
X90193893Y-59801666D01*
X90228499Y-59627691D01*
X90228499Y-59450309D01*
X90228499Y-59450306D01*
X90228498Y-59450304D01*
X90193895Y-59276341D01*
X90193893Y-59276338D01*
X90193893Y-59276334D01*
X90169283Y-59216920D01*
X115737499Y-59216920D01*
X115766340Y-59361907D01*
X115766343Y-59361917D01*
X115822912Y-59498488D01*
X115822919Y-59498501D01*
X115905048Y-59621415D01*
X115905051Y-59621419D01*
X116009580Y-59725948D01*
X116009584Y-59725951D01*
X116132498Y-59808080D01*
X116132511Y-59808087D01*
X116257868Y-59860011D01*
X116269087Y-59864658D01*
X116269091Y-59864658D01*
X116269092Y-59864659D01*
X116414079Y-59893500D01*
X116414082Y-59893500D01*
X116561920Y-59893500D01*
X116673321Y-59871340D01*
X116706913Y-59864658D01*
X116843495Y-59808084D01*
X116966416Y-59725951D01*
X117070951Y-59621416D01*
X117153084Y-59498495D01*
X117209658Y-59361913D01*
X117230794Y-59255658D01*
X117238500Y-59216920D01*
X117238500Y-59069079D01*
X117209659Y-58924092D01*
X117209658Y-58924091D01*
X117209658Y-58924087D01*
X117174636Y-58839536D01*
X117153087Y-58787511D01*
X117153080Y-58787498D01*
X117070951Y-58664584D01*
X117070948Y-58664580D01*
X117014288Y-58607920D01*
X122312499Y-58607920D01*
X122341340Y-58752907D01*
X122341343Y-58752917D01*
X122397912Y-58889488D01*
X122397919Y-58889501D01*
X122480048Y-59012415D01*
X122480051Y-59012419D01*
X122584580Y-59116948D01*
X122584584Y-59116951D01*
X122707498Y-59199080D01*
X122707511Y-59199087D01*
X122844082Y-59255656D01*
X122844087Y-59255658D01*
X122844091Y-59255658D01*
X122844092Y-59255659D01*
X122989079Y-59284500D01*
X122989082Y-59284500D01*
X123136920Y-59284500D01*
X123234462Y-59265096D01*
X123281913Y-59255658D01*
X123418495Y-59199084D01*
X123541416Y-59116951D01*
X123645951Y-59012416D01*
X123728084Y-58889495D01*
X123784658Y-58752913D01*
X123800534Y-58673103D01*
X123813500Y-58607920D01*
X126482499Y-58607920D01*
X126511340Y-58752907D01*
X126511343Y-58752917D01*
X126567912Y-58889488D01*
X126567919Y-58889501D01*
X126650048Y-59012415D01*
X126650051Y-59012419D01*
X126754580Y-59116948D01*
X126754584Y-59116951D01*
X126877498Y-59199080D01*
X126877511Y-59199087D01*
X127014082Y-59255656D01*
X127014087Y-59255658D01*
X127014091Y-59255658D01*
X127014092Y-59255659D01*
X127159079Y-59284500D01*
X127159082Y-59284500D01*
X127306920Y-59284500D01*
X127404462Y-59265096D01*
X127451913Y-59255658D01*
X127588495Y-59199084D01*
X127711416Y-59116951D01*
X127815951Y-59012416D01*
X127898084Y-58889495D01*
X127954658Y-58752913D01*
X127970534Y-58673103D01*
X127983500Y-58607920D01*
X127983500Y-58460079D01*
X127954659Y-58315092D01*
X127954658Y-58315091D01*
X127954658Y-58315087D01*
X127934247Y-58265811D01*
X127898087Y-58178511D01*
X127898080Y-58178498D01*
X127815951Y-58055584D01*
X127815948Y-58055580D01*
X127711419Y-57951051D01*
X127711415Y-57951048D01*
X127588501Y-57868919D01*
X127588488Y-57868912D01*
X127451917Y-57812343D01*
X127451907Y-57812340D01*
X127306920Y-57783500D01*
X127306918Y-57783500D01*
X127159082Y-57783500D01*
X127159080Y-57783500D01*
X127014092Y-57812340D01*
X127014082Y-57812343D01*
X126877511Y-57868912D01*
X126877498Y-57868919D01*
X126754584Y-57951048D01*
X126754580Y-57951051D01*
X126650051Y-58055580D01*
X126650048Y-58055584D01*
X126567919Y-58178498D01*
X126567912Y-58178511D01*
X126511343Y-58315082D01*
X126511340Y-58315092D01*
X126482500Y-58460079D01*
X126482500Y-58460082D01*
X126482500Y-58607918D01*
X126482500Y-58607920D01*
X126482499Y-58607920D01*
X123813500Y-58607920D01*
X123813500Y-58460079D01*
X123784659Y-58315092D01*
X123784658Y-58315091D01*
X123784658Y-58315087D01*
X123764247Y-58265811D01*
X123728087Y-58178511D01*
X123728080Y-58178498D01*
X123645951Y-58055584D01*
X123645948Y-58055580D01*
X123541419Y-57951051D01*
X123541415Y-57951048D01*
X123418501Y-57868919D01*
X123418488Y-57868912D01*
X123281917Y-57812343D01*
X123281907Y-57812340D01*
X123136920Y-57783500D01*
X123136918Y-57783500D01*
X122989082Y-57783500D01*
X122989080Y-57783500D01*
X122844092Y-57812340D01*
X122844082Y-57812343D01*
X122707511Y-57868912D01*
X122707498Y-57868919D01*
X122584584Y-57951048D01*
X122584580Y-57951051D01*
X122480051Y-58055580D01*
X122480048Y-58055584D01*
X122397919Y-58178498D01*
X122397912Y-58178511D01*
X122341343Y-58315082D01*
X122341340Y-58315092D01*
X122312500Y-58460079D01*
X122312500Y-58460082D01*
X122312500Y-58607918D01*
X122312500Y-58607920D01*
X122312499Y-58607920D01*
X117014288Y-58607920D01*
X116966419Y-58560051D01*
X116966415Y-58560048D01*
X116843501Y-58477919D01*
X116843488Y-58477912D01*
X116706917Y-58421343D01*
X116706907Y-58421340D01*
X116561920Y-58392500D01*
X116561918Y-58392500D01*
X116414082Y-58392500D01*
X116414080Y-58392500D01*
X116269092Y-58421340D01*
X116269082Y-58421343D01*
X116132511Y-58477912D01*
X116132498Y-58477919D01*
X116009584Y-58560048D01*
X116009580Y-58560051D01*
X115905051Y-58664580D01*
X115905048Y-58664584D01*
X115822919Y-58787498D01*
X115822912Y-58787511D01*
X115766343Y-58924082D01*
X115766340Y-58924092D01*
X115737500Y-59069079D01*
X115737500Y-59069082D01*
X115737500Y-59216918D01*
X115737500Y-59216920D01*
X115737499Y-59216920D01*
X90169283Y-59216920D01*
X90126012Y-59112453D01*
X90126010Y-59112450D01*
X90126008Y-59112446D01*
X90027463Y-58964965D01*
X90027460Y-58964961D01*
X89902037Y-58839538D01*
X89902033Y-58839535D01*
X89754552Y-58740990D01*
X89754539Y-58740983D01*
X89590666Y-58673106D01*
X89590657Y-58673103D01*
X89416693Y-58638500D01*
X89416690Y-58638500D01*
X89239308Y-58638500D01*
X89239305Y-58638500D01*
X89065340Y-58673103D01*
X89065331Y-58673106D01*
X88901458Y-58740983D01*
X88901445Y-58740990D01*
X88753964Y-58839535D01*
X88753960Y-58839538D01*
X88628537Y-58964961D01*
X88628534Y-58964965D01*
X88529989Y-59112446D01*
X88529982Y-59112459D01*
X88462105Y-59276332D01*
X88462102Y-59276341D01*
X88427499Y-59450304D01*
X80153500Y-59450304D01*
X80153500Y-57989420D01*
X98815487Y-57989420D01*
X98844328Y-58134407D01*
X98844331Y-58134417D01*
X98900900Y-58270988D01*
X98900907Y-58271001D01*
X98983036Y-58393915D01*
X98983039Y-58393919D01*
X99087568Y-58498448D01*
X99087572Y-58498451D01*
X99210486Y-58580580D01*
X99210499Y-58580587D01*
X99340658Y-58634500D01*
X99347075Y-58637158D01*
X99347079Y-58637158D01*
X99347080Y-58637159D01*
X99492067Y-58666000D01*
X99492070Y-58666000D01*
X99639908Y-58666000D01*
X99778154Y-58638500D01*
X99784901Y-58637158D01*
X99908531Y-58585949D01*
X99921476Y-58580587D01*
X99921476Y-58580586D01*
X99921483Y-58580584D01*
X100044404Y-58498451D01*
X100148939Y-58393916D01*
X100231072Y-58270995D01*
X100287646Y-58134413D01*
X100297084Y-58086962D01*
X100313788Y-58002995D01*
X103307499Y-58002995D01*
X103334418Y-58138322D01*
X103334421Y-58138332D01*
X103387221Y-58265804D01*
X103387228Y-58265817D01*
X103463885Y-58380541D01*
X103463888Y-58380545D01*
X103561454Y-58478111D01*
X103561458Y-58478114D01*
X103676182Y-58554771D01*
X103676195Y-58554778D01*
X103762420Y-58590493D01*
X103803672Y-58607580D01*
X103803676Y-58607580D01*
X103803677Y-58607581D01*
X103939004Y-58634500D01*
X103939007Y-58634500D01*
X104076995Y-58634500D01*
X104212323Y-58607581D01*
X104212323Y-58607580D01*
X104212328Y-58607580D01*
X104235545Y-58597963D01*
X104305014Y-58590493D01*
X104330455Y-58597963D01*
X104353672Y-58607580D01*
X104353674Y-58607580D01*
X104353676Y-58607581D01*
X104489004Y-58634500D01*
X104489007Y-58634500D01*
X104626995Y-58634500D01*
X104718041Y-58616389D01*
X104762328Y-58607580D01*
X104877074Y-58560051D01*
X104889804Y-58554778D01*
X104889804Y-58554777D01*
X104889811Y-58554775D01*
X105004542Y-58478114D01*
X105022577Y-58460079D01*
X105062316Y-58420341D01*
X105123639Y-58386856D01*
X105193331Y-58391840D01*
X105237678Y-58420341D01*
X105295448Y-58478111D01*
X105295452Y-58478114D01*
X105410176Y-58554771D01*
X105410189Y-58554778D01*
X105496414Y-58590493D01*
X105537666Y-58607580D01*
X105537670Y-58607580D01*
X105537671Y-58607581D01*
X105672998Y-58634500D01*
X105673001Y-58634500D01*
X105810989Y-58634500D01*
X105902035Y-58616389D01*
X105946322Y-58607580D01*
X105998544Y-58585948D01*
X106068011Y-58578480D01*
X106093443Y-58585947D01*
X106145669Y-58607580D01*
X106145673Y-58607580D01*
X106145674Y-58607581D01*
X106281001Y-58634500D01*
X106281004Y-58634500D01*
X106418992Y-58634500D01*
X106510038Y-58616389D01*
X106554325Y-58607580D01*
X106606547Y-58585948D01*
X106676014Y-58578480D01*
X106701446Y-58585947D01*
X106753672Y-58607580D01*
X106753676Y-58607580D01*
X106753677Y-58607581D01*
X106889004Y-58634500D01*
X106889007Y-58634500D01*
X107026995Y-58634500D01*
X107118041Y-58616389D01*
X107162328Y-58607580D01*
X107214550Y-58585948D01*
X107284017Y-58578480D01*
X107309449Y-58585947D01*
X107361675Y-58607580D01*
X107361679Y-58607580D01*
X107361680Y-58607581D01*
X107497007Y-58634500D01*
X107497010Y-58634500D01*
X107634998Y-58634500D01*
X107726044Y-58616389D01*
X107770331Y-58607580D01*
X107822553Y-58585948D01*
X107892020Y-58578480D01*
X107917452Y-58585947D01*
X107969678Y-58607580D01*
X107969682Y-58607580D01*
X107969683Y-58607581D01*
X108105010Y-58634500D01*
X108105013Y-58634500D01*
X108243001Y-58634500D01*
X108334047Y-58616389D01*
X108378334Y-58607580D01*
X108493080Y-58560051D01*
X108505810Y-58554778D01*
X108505810Y-58554777D01*
X108505817Y-58554775D01*
X108620548Y-58478114D01*
X108718120Y-58380542D01*
X108794781Y-58265811D01*
X108847586Y-58138328D01*
X108874206Y-58004501D01*
X108874506Y-58002995D01*
X110467499Y-58002995D01*
X110494418Y-58138322D01*
X110494421Y-58138332D01*
X110547221Y-58265804D01*
X110547228Y-58265817D01*
X110623885Y-58380541D01*
X110623888Y-58380545D01*
X110721454Y-58478111D01*
X110721458Y-58478114D01*
X110836182Y-58554771D01*
X110836195Y-58554778D01*
X110922420Y-58590493D01*
X110963672Y-58607580D01*
X110963676Y-58607580D01*
X110963677Y-58607581D01*
X111099004Y-58634500D01*
X111099007Y-58634500D01*
X111236995Y-58634500D01*
X111328041Y-58616389D01*
X111372328Y-58607580D01*
X111410547Y-58591748D01*
X111480014Y-58584279D01*
X111505448Y-58591747D01*
X111543672Y-58607580D01*
X111543676Y-58607580D01*
X111543677Y-58607581D01*
X111679004Y-58634500D01*
X111679007Y-58634500D01*
X111816995Y-58634500D01*
X111908041Y-58616389D01*
X111952328Y-58607580D01*
X112000546Y-58587606D01*
X112070015Y-58580137D01*
X112095451Y-58587606D01*
X112102421Y-58590493D01*
X112143666Y-58607578D01*
X112143669Y-58607578D01*
X112143672Y-58607580D01*
X112143676Y-58607580D01*
X112143677Y-58607581D01*
X112279004Y-58634500D01*
X112279007Y-58634500D01*
X112416995Y-58634500D01*
X112508041Y-58616389D01*
X112552328Y-58607580D01*
X112600546Y-58587606D01*
X112670015Y-58580137D01*
X112695451Y-58587606D01*
X112702421Y-58590493D01*
X112743666Y-58607578D01*
X112743669Y-58607578D01*
X112743672Y-58607580D01*
X112743676Y-58607580D01*
X112743677Y-58607581D01*
X112879004Y-58634500D01*
X112879007Y-58634500D01*
X113016995Y-58634500D01*
X113108041Y-58616389D01*
X113152328Y-58607580D01*
X113200546Y-58587606D01*
X113270015Y-58580137D01*
X113295451Y-58587606D01*
X113302421Y-58590493D01*
X113343666Y-58607578D01*
X113343669Y-58607578D01*
X113343672Y-58607580D01*
X113343676Y-58607580D01*
X113343677Y-58607581D01*
X113479004Y-58634500D01*
X113479007Y-58634500D01*
X113616995Y-58634500D01*
X113708041Y-58616389D01*
X113752328Y-58607580D01*
X113867074Y-58560051D01*
X113879804Y-58554778D01*
X113879804Y-58554777D01*
X113879811Y-58554775D01*
X113994542Y-58478114D01*
X114092114Y-58380542D01*
X114168775Y-58265811D01*
X114221580Y-58138328D01*
X114248200Y-58004501D01*
X114248500Y-58002995D01*
X114248500Y-57865004D01*
X114221581Y-57729677D01*
X114221580Y-57729676D01*
X114221580Y-57729672D01*
X114218783Y-57722920D01*
X114168778Y-57602195D01*
X114168771Y-57602182D01*
X114092114Y-57487458D01*
X114092111Y-57487454D01*
X113994545Y-57389888D01*
X113994541Y-57389885D01*
X113879817Y-57313228D01*
X113879804Y-57313221D01*
X113752332Y-57260421D01*
X113752322Y-57260418D01*
X113616995Y-57233500D01*
X113616993Y-57233500D01*
X113479007Y-57233500D01*
X113479005Y-57233500D01*
X113343678Y-57260418D01*
X113343670Y-57260420D01*
X113295452Y-57280393D01*
X113225982Y-57287862D01*
X113200548Y-57280393D01*
X113152329Y-57260420D01*
X113152321Y-57260418D01*
X113016995Y-57233500D01*
X113016993Y-57233500D01*
X112879007Y-57233500D01*
X112879005Y-57233500D01*
X112743678Y-57260418D01*
X112743670Y-57260420D01*
X112695452Y-57280393D01*
X112625982Y-57287862D01*
X112600548Y-57280393D01*
X112552329Y-57260420D01*
X112552321Y-57260418D01*
X112416995Y-57233500D01*
X112416993Y-57233500D01*
X112279007Y-57233500D01*
X112279005Y-57233500D01*
X112143678Y-57260418D01*
X112143670Y-57260420D01*
X112095452Y-57280393D01*
X112025982Y-57287862D01*
X112000548Y-57280393D01*
X111952329Y-57260420D01*
X111952321Y-57260418D01*
X111816995Y-57233500D01*
X111816993Y-57233500D01*
X111679007Y-57233500D01*
X111679005Y-57233500D01*
X111543678Y-57260418D01*
X111543670Y-57260420D01*
X111505452Y-57276251D01*
X111435982Y-57283720D01*
X111410548Y-57276251D01*
X111372329Y-57260420D01*
X111372321Y-57260418D01*
X111236995Y-57233500D01*
X111236993Y-57233500D01*
X111099007Y-57233500D01*
X111099005Y-57233500D01*
X110963677Y-57260418D01*
X110963667Y-57260421D01*
X110836195Y-57313221D01*
X110836182Y-57313228D01*
X110721458Y-57389885D01*
X110721454Y-57389888D01*
X110623888Y-57487454D01*
X110623885Y-57487458D01*
X110547228Y-57602182D01*
X110547221Y-57602195D01*
X110494421Y-57729667D01*
X110494418Y-57729677D01*
X110467500Y-57865004D01*
X110467500Y-57865007D01*
X110467500Y-58002993D01*
X110467500Y-58002995D01*
X110467499Y-58002995D01*
X108874506Y-58002995D01*
X108874506Y-57865004D01*
X108847587Y-57729677D01*
X108847586Y-57729676D01*
X108847586Y-57729672D01*
X108844789Y-57722920D01*
X108794784Y-57602195D01*
X108794777Y-57602182D01*
X108718120Y-57487458D01*
X108718117Y-57487454D01*
X108620551Y-57389888D01*
X108620547Y-57389885D01*
X108505823Y-57313228D01*
X108505810Y-57313221D01*
X108378338Y-57260421D01*
X108378328Y-57260418D01*
X108243001Y-57233500D01*
X108242999Y-57233500D01*
X108105013Y-57233500D01*
X108105011Y-57233500D01*
X107969679Y-57260419D01*
X107969672Y-57260421D01*
X107917453Y-57282050D01*
X107847983Y-57289517D01*
X107822553Y-57282050D01*
X107770331Y-57260420D01*
X107770324Y-57260418D01*
X107634998Y-57233500D01*
X107634996Y-57233500D01*
X107497010Y-57233500D01*
X107497008Y-57233500D01*
X107361676Y-57260419D01*
X107361669Y-57260421D01*
X107309450Y-57282050D01*
X107239980Y-57289517D01*
X107214550Y-57282050D01*
X107162328Y-57260420D01*
X107162321Y-57260418D01*
X107026995Y-57233500D01*
X107026993Y-57233500D01*
X106889007Y-57233500D01*
X106889005Y-57233500D01*
X106753673Y-57260419D01*
X106753666Y-57260421D01*
X106701447Y-57282050D01*
X106631977Y-57289517D01*
X106606547Y-57282050D01*
X106554325Y-57260420D01*
X106554318Y-57260418D01*
X106418992Y-57233500D01*
X106418990Y-57233500D01*
X106281004Y-57233500D01*
X106281002Y-57233500D01*
X106145670Y-57260419D01*
X106145663Y-57260421D01*
X106093444Y-57282050D01*
X106023974Y-57289517D01*
X105998544Y-57282050D01*
X105946322Y-57260420D01*
X105946315Y-57260418D01*
X105810989Y-57233500D01*
X105810987Y-57233500D01*
X105673001Y-57233500D01*
X105672999Y-57233500D01*
X105537671Y-57260418D01*
X105537661Y-57260421D01*
X105410189Y-57313221D01*
X105410176Y-57313228D01*
X105295452Y-57389885D01*
X105295448Y-57389888D01*
X105237678Y-57447659D01*
X105176355Y-57481144D01*
X105106663Y-57476160D01*
X105062316Y-57447659D01*
X105004545Y-57389888D01*
X105004541Y-57389885D01*
X104889817Y-57313228D01*
X104889804Y-57313221D01*
X104762332Y-57260421D01*
X104762322Y-57260418D01*
X104626995Y-57233500D01*
X104626993Y-57233500D01*
X104489007Y-57233500D01*
X104489005Y-57233500D01*
X104353678Y-57260418D01*
X104353670Y-57260420D01*
X104330452Y-57270038D01*
X104260983Y-57277507D01*
X104235548Y-57270038D01*
X104212329Y-57260420D01*
X104212321Y-57260418D01*
X104076995Y-57233500D01*
X104076993Y-57233500D01*
X103939007Y-57233500D01*
X103939005Y-57233500D01*
X103803677Y-57260418D01*
X103803667Y-57260421D01*
X103676195Y-57313221D01*
X103676182Y-57313228D01*
X103561458Y-57389885D01*
X103561454Y-57389888D01*
X103463888Y-57487454D01*
X103463885Y-57487458D01*
X103387228Y-57602182D01*
X103387221Y-57602195D01*
X103334421Y-57729667D01*
X103334418Y-57729677D01*
X103307500Y-57865004D01*
X103307500Y-57865007D01*
X103307500Y-58002993D01*
X103307500Y-58002995D01*
X103307499Y-58002995D01*
X100313788Y-58002995D01*
X100316488Y-57989420D01*
X100316488Y-57841579D01*
X100287647Y-57696592D01*
X100287646Y-57696591D01*
X100287646Y-57696587D01*
X100248548Y-57602195D01*
X100231075Y-57560011D01*
X100231068Y-57559998D01*
X100148939Y-57437084D01*
X100148936Y-57437080D01*
X100044407Y-57332551D01*
X100044403Y-57332548D01*
X99921489Y-57250419D01*
X99921476Y-57250412D01*
X99784905Y-57193843D01*
X99784895Y-57193840D01*
X99639908Y-57165000D01*
X99639906Y-57165000D01*
X99492070Y-57165000D01*
X99492068Y-57165000D01*
X99347080Y-57193840D01*
X99347070Y-57193843D01*
X99210499Y-57250412D01*
X99210486Y-57250419D01*
X99087572Y-57332548D01*
X99087568Y-57332551D01*
X98983039Y-57437080D01*
X98983036Y-57437084D01*
X98900907Y-57559998D01*
X98900900Y-57560011D01*
X98844331Y-57696582D01*
X98844328Y-57696592D01*
X98815488Y-57841579D01*
X98815488Y-57841582D01*
X98815488Y-57989418D01*
X98815488Y-57989420D01*
X98815487Y-57989420D01*
X80153500Y-57989420D01*
X80153500Y-56344920D01*
X92887499Y-56344920D01*
X92916340Y-56489907D01*
X92916343Y-56489917D01*
X92972912Y-56626488D01*
X92972919Y-56626501D01*
X93055048Y-56749415D01*
X93055051Y-56749419D01*
X93159580Y-56853948D01*
X93159584Y-56853951D01*
X93282498Y-56936080D01*
X93282511Y-56936087D01*
X93397972Y-56983912D01*
X93419087Y-56992658D01*
X93419091Y-56992658D01*
X93419092Y-56992659D01*
X93564079Y-57021500D01*
X93564082Y-57021500D01*
X93711920Y-57021500D01*
X93809462Y-57002096D01*
X93856913Y-56992658D01*
X93993495Y-56936084D01*
X94116416Y-56853951D01*
X94220951Y-56749416D01*
X94235982Y-56726920D01*
X115448499Y-56726920D01*
X115477340Y-56871907D01*
X115477343Y-56871917D01*
X115533912Y-57008488D01*
X115533919Y-57008501D01*
X115616048Y-57131415D01*
X115616051Y-57131419D01*
X115720580Y-57235948D01*
X115720584Y-57235951D01*
X115843498Y-57318080D01*
X115843511Y-57318087D01*
X115980082Y-57374656D01*
X115980087Y-57374658D01*
X115980091Y-57374658D01*
X115980092Y-57374659D01*
X116125079Y-57403500D01*
X116125082Y-57403500D01*
X116272920Y-57403500D01*
X116370462Y-57384096D01*
X116417913Y-57374658D01*
X116554495Y-57318084D01*
X116561763Y-57313228D01*
X116564625Y-57311316D01*
X116631302Y-57290437D01*
X116698682Y-57308921D01*
X116745373Y-57360899D01*
X116756551Y-57429868D01*
X116755134Y-57438608D01*
X116727988Y-57575077D01*
X116727988Y-57575082D01*
X116727988Y-57722918D01*
X116727988Y-57722920D01*
X116727987Y-57722920D01*
X116756828Y-57867907D01*
X116756831Y-57867917D01*
X116813400Y-58004488D01*
X116813407Y-58004501D01*
X116895536Y-58127415D01*
X116895539Y-58127419D01*
X117000068Y-58231948D01*
X117000072Y-58231951D01*
X117122986Y-58314080D01*
X117122999Y-58314087D01*
X117184181Y-58339429D01*
X117259575Y-58370658D01*
X117259579Y-58370658D01*
X117259580Y-58370659D01*
X117404567Y-58399500D01*
X117404570Y-58399500D01*
X117552408Y-58399500D01*
X117649950Y-58380096D01*
X117697401Y-58370658D01*
X117803035Y-58326902D01*
X117833976Y-58314087D01*
X117833976Y-58314086D01*
X117833983Y-58314084D01*
X117956904Y-58231951D01*
X118061439Y-58127416D01*
X118143572Y-58004495D01*
X118200146Y-57867913D01*
X118228988Y-57722918D01*
X118228988Y-57575082D01*
X118228988Y-57575079D01*
X118200147Y-57430092D01*
X118200146Y-57430091D01*
X118200146Y-57430087D01*
X118177186Y-57374656D01*
X118143575Y-57293511D01*
X118143568Y-57293498D01*
X118061439Y-57170584D01*
X118061436Y-57170580D01*
X117956907Y-57066051D01*
X117956903Y-57066048D01*
X117833989Y-56983919D01*
X117833976Y-56983912D01*
X117697405Y-56927343D01*
X117697395Y-56927340D01*
X117552408Y-56898500D01*
X117552406Y-56898500D01*
X117404570Y-56898500D01*
X117404568Y-56898500D01*
X117259580Y-56927340D01*
X117259570Y-56927343D01*
X117122999Y-56983912D01*
X117122983Y-56983921D01*
X117112855Y-56990688D01*
X117046176Y-57011562D01*
X116978797Y-56993074D01*
X116932110Y-56941092D01*
X116920938Y-56872121D01*
X116922353Y-56863390D01*
X116924232Y-56853948D01*
X116949500Y-56726920D01*
X119132499Y-56726920D01*
X119161340Y-56871907D01*
X119161343Y-56871917D01*
X119217912Y-57008488D01*
X119217918Y-57008499D01*
X119267103Y-57082110D01*
X119287980Y-57148787D01*
X119269495Y-57216167D01*
X119267103Y-57219890D01*
X119217918Y-57293500D01*
X119217912Y-57293511D01*
X119161343Y-57430082D01*
X119161340Y-57430092D01*
X119132500Y-57575079D01*
X119132500Y-57575082D01*
X119132500Y-57722918D01*
X119132500Y-57722920D01*
X119132499Y-57722920D01*
X119161340Y-57867907D01*
X119161343Y-57867917D01*
X119217912Y-58004488D01*
X119217919Y-58004501D01*
X119300048Y-58127415D01*
X119300051Y-58127419D01*
X119404580Y-58231948D01*
X119404584Y-58231951D01*
X119527498Y-58314080D01*
X119527511Y-58314087D01*
X119588693Y-58339429D01*
X119664087Y-58370658D01*
X119664091Y-58370658D01*
X119664092Y-58370659D01*
X119809079Y-58399500D01*
X119809082Y-58399500D01*
X119956920Y-58399500D01*
X120054462Y-58380096D01*
X120101913Y-58370658D01*
X120238495Y-58314084D01*
X120361416Y-58231951D01*
X120465951Y-58127416D01*
X120548084Y-58004495D01*
X120604658Y-57867913D01*
X120633500Y-57722918D01*
X120633500Y-57575082D01*
X120633500Y-57575079D01*
X120604659Y-57430092D01*
X120604658Y-57430091D01*
X120604658Y-57430087D01*
X120581698Y-57374656D01*
X120548087Y-57293511D01*
X120548080Y-57293498D01*
X120498897Y-57219891D01*
X120478019Y-57153214D01*
X120496503Y-57085833D01*
X120498897Y-57082109D01*
X120548080Y-57008501D01*
X120548081Y-57008499D01*
X120548084Y-57008495D01*
X120554644Y-56992659D01*
X120578076Y-56936087D01*
X120604658Y-56871913D01*
X120633500Y-56726918D01*
X120633500Y-56579082D01*
X120633500Y-56579079D01*
X120604659Y-56434092D01*
X120604658Y-56434091D01*
X120604658Y-56434087D01*
X120567723Y-56344918D01*
X120548087Y-56297511D01*
X120548080Y-56297498D01*
X120465951Y-56174584D01*
X120465948Y-56174580D01*
X120361419Y-56070051D01*
X120361415Y-56070048D01*
X120238501Y-55987919D01*
X120238488Y-55987912D01*
X120101917Y-55931343D01*
X120101907Y-55931340D01*
X119956920Y-55902500D01*
X119956918Y-55902500D01*
X119809082Y-55902500D01*
X119809080Y-55902500D01*
X119664092Y-55931340D01*
X119664082Y-55931343D01*
X119527511Y-55987912D01*
X119527498Y-55987919D01*
X119404584Y-56070048D01*
X119404580Y-56070051D01*
X119300051Y-56174580D01*
X119300048Y-56174584D01*
X119217919Y-56297498D01*
X119217912Y-56297511D01*
X119161343Y-56434082D01*
X119161340Y-56434092D01*
X119132500Y-56579079D01*
X119132500Y-56579082D01*
X119132500Y-56726918D01*
X119132500Y-56726920D01*
X119132499Y-56726920D01*
X116949500Y-56726920D01*
X116949500Y-56726918D01*
X116949500Y-56579082D01*
X116949500Y-56579079D01*
X116920659Y-56434092D01*
X116920658Y-56434091D01*
X116920658Y-56434087D01*
X116883723Y-56344918D01*
X116864087Y-56297511D01*
X116864080Y-56297498D01*
X116781951Y-56174584D01*
X116781948Y-56174580D01*
X116677419Y-56070051D01*
X116677415Y-56070048D01*
X116583118Y-56007040D01*
X116538313Y-55953427D01*
X116529606Y-55884102D01*
X116559761Y-55821075D01*
X116604556Y-55789377D01*
X116639811Y-55774775D01*
X116754542Y-55698114D01*
X116852114Y-55600542D01*
X116928775Y-55485811D01*
X116981580Y-55358328D01*
X117008500Y-55222993D01*
X117008500Y-55085007D01*
X117008500Y-55085004D01*
X116981581Y-54949676D01*
X116981578Y-54949667D01*
X116976106Y-54936457D01*
X116968634Y-54866987D01*
X116976106Y-54841543D01*
X116981578Y-54828332D01*
X116981580Y-54828328D01*
X117008500Y-54692993D01*
X117008500Y-54555007D01*
X117008500Y-54555004D01*
X116981581Y-54419676D01*
X116981578Y-54419667D01*
X116971963Y-54396455D01*
X116964493Y-54326986D01*
X116971963Y-54301545D01*
X116981578Y-54278332D01*
X116981580Y-54278328D01*
X116996879Y-54201415D01*
X117008500Y-54142995D01*
X117008500Y-54005004D01*
X116981581Y-53869677D01*
X116981580Y-53869676D01*
X116981580Y-53869672D01*
X116953961Y-53802993D01*
X116928778Y-53742195D01*
X116928771Y-53742182D01*
X116852114Y-53627458D01*
X116852111Y-53627454D01*
X116754545Y-53529888D01*
X116754541Y-53529885D01*
X116639817Y-53453228D01*
X116639804Y-53453221D01*
X116512332Y-53400421D01*
X116512322Y-53400418D01*
X116376995Y-53373500D01*
X116376993Y-53373500D01*
X116239007Y-53373500D01*
X116239005Y-53373500D01*
X116103677Y-53400418D01*
X116103667Y-53400421D01*
X115976195Y-53453221D01*
X115976182Y-53453228D01*
X115861458Y-53529885D01*
X115861454Y-53529888D01*
X115763888Y-53627454D01*
X115763885Y-53627458D01*
X115687228Y-53742182D01*
X115687221Y-53742195D01*
X115634421Y-53869667D01*
X115634418Y-53869677D01*
X115607500Y-54005004D01*
X115607500Y-54005007D01*
X115607500Y-54142993D01*
X115607500Y-54142995D01*
X115607499Y-54142995D01*
X115634418Y-54278321D01*
X115634420Y-54278329D01*
X115644038Y-54301548D01*
X115651507Y-54371017D01*
X115644038Y-54396452D01*
X115634420Y-54419670D01*
X115634418Y-54419678D01*
X115607500Y-54555004D01*
X115607500Y-54555007D01*
X115607500Y-54692993D01*
X115607500Y-54692995D01*
X115607499Y-54692995D01*
X115634418Y-54828322D01*
X115634420Y-54828327D01*
X115639897Y-54841551D01*
X115647363Y-54911020D01*
X115639897Y-54936449D01*
X115634420Y-54949672D01*
X115634418Y-54949677D01*
X115607500Y-55085004D01*
X115607500Y-55085007D01*
X115607500Y-55222993D01*
X115607500Y-55222995D01*
X115607499Y-55222995D01*
X115634418Y-55358322D01*
X115634421Y-55358332D01*
X115687221Y-55485804D01*
X115687228Y-55485817D01*
X115763885Y-55600541D01*
X115763888Y-55600545D01*
X115861457Y-55698114D01*
X115929438Y-55743537D01*
X115974243Y-55797149D01*
X115982950Y-55866474D01*
X115952796Y-55929501D01*
X115908001Y-55961199D01*
X115843513Y-55987911D01*
X115843498Y-55987919D01*
X115720584Y-56070048D01*
X115720580Y-56070051D01*
X115616051Y-56174580D01*
X115616048Y-56174584D01*
X115533919Y-56297498D01*
X115533912Y-56297511D01*
X115477343Y-56434082D01*
X115477340Y-56434092D01*
X115448500Y-56579079D01*
X115448500Y-56579082D01*
X115448500Y-56726918D01*
X115448500Y-56726920D01*
X115448499Y-56726920D01*
X94235982Y-56726920D01*
X94303084Y-56626495D01*
X94322723Y-56579082D01*
X94344902Y-56525538D01*
X94359656Y-56489917D01*
X94359658Y-56489913D01*
X94388500Y-56344918D01*
X94388500Y-56197082D01*
X94388500Y-56197079D01*
X94359659Y-56052092D01*
X94359658Y-56052091D01*
X94359658Y-56052087D01*
X94333076Y-55987912D01*
X94303087Y-55915511D01*
X94303080Y-55915498D01*
X94220951Y-55792584D01*
X94220948Y-55792580D01*
X94116419Y-55688051D01*
X94116415Y-55688048D01*
X93993501Y-55605919D01*
X93993488Y-55605912D01*
X93856917Y-55549343D01*
X93856907Y-55549340D01*
X93711920Y-55520500D01*
X93711918Y-55520500D01*
X93564082Y-55520500D01*
X93564080Y-55520500D01*
X93419092Y-55549340D01*
X93419082Y-55549343D01*
X93282511Y-55605912D01*
X93282498Y-55605919D01*
X93159584Y-55688048D01*
X93159580Y-55688051D01*
X93055051Y-55792580D01*
X93055048Y-55792584D01*
X92972919Y-55915498D01*
X92972912Y-55915511D01*
X92916343Y-56052082D01*
X92916340Y-56052092D01*
X92887500Y-56197079D01*
X92887500Y-56197082D01*
X92887500Y-56344918D01*
X92887500Y-56344920D01*
X92887499Y-56344920D01*
X80153500Y-56344920D01*
X80153500Y-53455153D01*
X81872500Y-53455153D01*
X81872500Y-53612846D01*
X81903261Y-53767489D01*
X81903264Y-53767501D01*
X81963602Y-53913172D01*
X81963609Y-53913185D01*
X82051210Y-54044288D01*
X82051213Y-54044292D01*
X82162707Y-54155786D01*
X82162711Y-54155789D01*
X82293814Y-54243390D01*
X82293827Y-54243397D01*
X82378162Y-54278329D01*
X82439503Y-54303737D01*
X82556383Y-54326986D01*
X82594153Y-54334499D01*
X82594156Y-54334500D01*
X82594158Y-54334500D01*
X82751844Y-54334500D01*
X82751845Y-54334499D01*
X82906497Y-54303737D01*
X83052179Y-54243394D01*
X83183289Y-54155789D01*
X83294789Y-54044289D01*
X83382394Y-53913179D01*
X83430550Y-53796920D01*
X93875487Y-53796920D01*
X93904328Y-53941907D01*
X93904331Y-53941917D01*
X93960900Y-54078488D01*
X93960907Y-54078501D01*
X94043036Y-54201415D01*
X94043039Y-54201419D01*
X94147568Y-54305948D01*
X94147572Y-54305951D01*
X94270486Y-54388080D01*
X94270499Y-54388087D01*
X94382551Y-54434500D01*
X94407075Y-54444658D01*
X94407079Y-54444658D01*
X94407080Y-54444659D01*
X94552067Y-54473500D01*
X94552070Y-54473500D01*
X94699908Y-54473500D01*
X94797450Y-54454096D01*
X94844901Y-54444658D01*
X94981483Y-54388084D01*
X95104404Y-54305951D01*
X95208939Y-54201416D01*
X95291072Y-54078495D01*
X95347646Y-53941913D01*
X95362017Y-53869667D01*
X95376488Y-53796920D01*
X95376488Y-53649079D01*
X95347647Y-53504092D01*
X95347646Y-53504091D01*
X95347646Y-53504087D01*
X95346555Y-53501452D01*
X95291075Y-53367511D01*
X95291068Y-53367498D01*
X95208939Y-53244584D01*
X95208936Y-53244580D01*
X95104407Y-53140051D01*
X95104403Y-53140048D01*
X94981489Y-53057919D01*
X94981476Y-53057912D01*
X94844905Y-53001343D01*
X94844895Y-53001340D01*
X94699908Y-52972500D01*
X94699906Y-52972500D01*
X94552070Y-52972500D01*
X94552068Y-52972500D01*
X94407080Y-53001340D01*
X94407070Y-53001343D01*
X94270499Y-53057912D01*
X94270486Y-53057919D01*
X94147572Y-53140048D01*
X94147568Y-53140051D01*
X94043039Y-53244580D01*
X94043036Y-53244584D01*
X93960907Y-53367498D01*
X93960900Y-53367511D01*
X93904331Y-53504082D01*
X93904328Y-53504092D01*
X93875488Y-53649079D01*
X93875488Y-53649082D01*
X93875488Y-53796918D01*
X93875488Y-53796920D01*
X93875487Y-53796920D01*
X83430550Y-53796920D01*
X83442737Y-53767497D01*
X83463124Y-53665007D01*
X83472316Y-53618798D01*
X83473500Y-53612843D01*
X83473500Y-53455155D01*
X83473499Y-53455153D01*
X83463831Y-53406548D01*
X83442737Y-53300503D01*
X83418916Y-53242993D01*
X83382397Y-53154827D01*
X83382390Y-53154814D01*
X83294789Y-53023711D01*
X83294786Y-53023707D01*
X83183292Y-52912213D01*
X83183288Y-52912210D01*
X83052185Y-52824609D01*
X83052172Y-52824602D01*
X82906501Y-52764264D01*
X82906489Y-52764261D01*
X82751845Y-52733500D01*
X82751842Y-52733500D01*
X82594158Y-52733500D01*
X82594155Y-52733500D01*
X82439510Y-52764261D01*
X82439498Y-52764264D01*
X82293827Y-52824602D01*
X82293814Y-52824609D01*
X82162711Y-52912210D01*
X82162707Y-52912213D01*
X82051213Y-53023707D01*
X82051210Y-53023711D01*
X81963609Y-53154814D01*
X81963602Y-53154827D01*
X81903264Y-53300498D01*
X81903261Y-53300510D01*
X81872500Y-53455153D01*
X80153500Y-53455153D01*
X80153500Y-51455153D01*
X81872500Y-51455153D01*
X81872500Y-51612846D01*
X81903261Y-51767489D01*
X81903264Y-51767501D01*
X81963602Y-51913172D01*
X81963609Y-51913185D01*
X82051210Y-52044288D01*
X82051213Y-52044292D01*
X82162707Y-52155786D01*
X82162711Y-52155789D01*
X82293814Y-52243390D01*
X82293827Y-52243397D01*
X82438931Y-52303500D01*
X82439503Y-52303737D01*
X82594153Y-52334499D01*
X82594156Y-52334500D01*
X82594158Y-52334500D01*
X82751844Y-52334500D01*
X82751845Y-52334499D01*
X82906497Y-52303737D01*
X83052179Y-52243394D01*
X83082708Y-52222995D01*
X96657499Y-52222995D01*
X96684418Y-52358322D01*
X96684421Y-52358332D01*
X96737221Y-52485804D01*
X96737228Y-52485817D01*
X96810255Y-52595109D01*
X96831133Y-52661787D01*
X96812648Y-52729167D01*
X96810255Y-52732891D01*
X96737228Y-52842182D01*
X96737221Y-52842195D01*
X96684421Y-52969667D01*
X96684418Y-52969677D01*
X96657500Y-53105004D01*
X96657500Y-53105007D01*
X96657500Y-53242993D01*
X96657500Y-53242995D01*
X96657499Y-53242995D01*
X96684418Y-53378321D01*
X96684420Y-53378329D01*
X96696109Y-53406548D01*
X96703578Y-53476018D01*
X96696109Y-53501452D01*
X96684420Y-53529670D01*
X96684418Y-53529678D01*
X96657500Y-53665004D01*
X96657500Y-53665007D01*
X96657500Y-53802993D01*
X96657500Y-53802995D01*
X96657499Y-53802995D01*
X96684418Y-53938322D01*
X96684421Y-53938332D01*
X96737221Y-54065804D01*
X96737228Y-54065817D01*
X96813885Y-54180541D01*
X96813888Y-54180545D01*
X96911454Y-54278111D01*
X96911458Y-54278114D01*
X97026182Y-54354771D01*
X97026195Y-54354778D01*
X97153667Y-54407578D01*
X97153672Y-54407580D01*
X97153676Y-54407580D01*
X97153677Y-54407581D01*
X97289004Y-54434500D01*
X97289007Y-54434500D01*
X97426995Y-54434500D01*
X97518041Y-54416389D01*
X97562328Y-54407580D01*
X97689811Y-54354775D01*
X97804542Y-54278114D01*
X97902114Y-54180542D01*
X97978775Y-54065811D01*
X98031580Y-53938328D01*
X98058500Y-53802993D01*
X98058500Y-53665007D01*
X98058500Y-53665004D01*
X98031581Y-53529677D01*
X98031580Y-53529676D01*
X98031580Y-53529672D01*
X98019890Y-53501452D01*
X98012422Y-53431984D01*
X98019891Y-53406547D01*
X98031580Y-53378328D01*
X98047059Y-53300510D01*
X98058500Y-53242995D01*
X98058500Y-53105004D01*
X98031581Y-52969677D01*
X98031580Y-52969676D01*
X98031580Y-52969672D01*
X98007779Y-52912210D01*
X97978778Y-52842195D01*
X97978776Y-52842191D01*
X97978775Y-52842189D01*
X97905743Y-52732890D01*
X97884866Y-52666214D01*
X97903350Y-52598834D01*
X97905744Y-52595109D01*
X97978775Y-52485811D01*
X98031580Y-52358328D01*
X98047841Y-52276578D01*
X98058500Y-52222995D01*
X98058500Y-52085004D01*
X98044032Y-52012272D01*
X98050259Y-51942680D01*
X98077968Y-51900398D01*
X98078412Y-51899953D01*
X98078416Y-51899951D01*
X98182951Y-51795416D01*
X98265084Y-51672495D01*
X98321658Y-51535913D01*
X98350500Y-51390918D01*
X98350500Y-51243082D01*
X98350500Y-51243079D01*
X98321659Y-51098092D01*
X98321658Y-51098091D01*
X98321658Y-51098087D01*
X98305421Y-51058888D01*
X98265087Y-50961511D01*
X98265080Y-50961498D01*
X98182951Y-50838584D01*
X98182948Y-50838580D01*
X98078419Y-50734051D01*
X98078415Y-50734048D01*
X97955501Y-50651919D01*
X97955488Y-50651912D01*
X97818917Y-50595343D01*
X97818907Y-50595340D01*
X97673920Y-50566500D01*
X97673918Y-50566500D01*
X97526082Y-50566500D01*
X97526080Y-50566500D01*
X97381092Y-50595340D01*
X97381082Y-50595343D01*
X97244511Y-50651912D01*
X97244498Y-50651919D01*
X97121584Y-50734048D01*
X97121580Y-50734051D01*
X97017051Y-50838580D01*
X97017048Y-50838584D01*
X96934919Y-50961498D01*
X96934912Y-50961511D01*
X96878343Y-51098082D01*
X96878340Y-51098092D01*
X96849500Y-51243079D01*
X96849500Y-51243082D01*
X96849500Y-51390918D01*
X96849500Y-51390920D01*
X96849499Y-51390920D01*
X96878340Y-51535906D01*
X96880109Y-51541736D01*
X96878762Y-51542144D01*
X96885465Y-51604577D01*
X96854181Y-51667051D01*
X96851122Y-51670220D01*
X96813888Y-51707455D01*
X96813883Y-51707461D01*
X96737228Y-51822182D01*
X96737221Y-51822195D01*
X96684421Y-51949667D01*
X96684418Y-51949677D01*
X96657500Y-52085004D01*
X96657500Y-52085007D01*
X96657500Y-52222993D01*
X96657500Y-52222995D01*
X96657499Y-52222995D01*
X83082708Y-52222995D01*
X83183289Y-52155789D01*
X83294789Y-52044289D01*
X83382394Y-51913179D01*
X83442737Y-51767497D01*
X83473500Y-51612842D01*
X83473500Y-51455158D01*
X83473500Y-51455155D01*
X83473499Y-51455153D01*
X83452399Y-51349079D01*
X83442737Y-51300503D01*
X83421630Y-51249545D01*
X83382397Y-51154827D01*
X83382390Y-51154814D01*
X83294789Y-51023711D01*
X83294786Y-51023707D01*
X83183292Y-50912213D01*
X83183288Y-50912210D01*
X83052185Y-50824609D01*
X83052172Y-50824602D01*
X82906501Y-50764264D01*
X82906489Y-50764261D01*
X82751845Y-50733500D01*
X82751842Y-50733500D01*
X82594158Y-50733500D01*
X82594155Y-50733500D01*
X82439510Y-50764261D01*
X82439498Y-50764264D01*
X82293827Y-50824602D01*
X82293814Y-50824609D01*
X82162711Y-50912210D01*
X82162707Y-50912213D01*
X82051213Y-51023707D01*
X82051210Y-51023711D01*
X81963609Y-51154814D01*
X81963602Y-51154827D01*
X81903264Y-51300498D01*
X81903261Y-51300510D01*
X81872500Y-51455153D01*
X80153500Y-51455153D01*
X80153500Y-50071995D01*
X102915487Y-50071995D01*
X102942406Y-50207322D01*
X102942409Y-50207332D01*
X102995211Y-50334809D01*
X102998083Y-50340181D01*
X102996853Y-50340837D01*
X103015622Y-50400805D01*
X102997814Y-50465675D01*
X102998083Y-50465819D01*
X102997451Y-50467000D01*
X102997127Y-50468182D01*
X102995304Y-50471017D01*
X102995211Y-50471190D01*
X102942409Y-50598667D01*
X102942406Y-50598677D01*
X102915488Y-50734004D01*
X102915488Y-50734007D01*
X102915488Y-50871993D01*
X102915488Y-50871995D01*
X102915487Y-50871995D01*
X102942406Y-51007322D01*
X102942409Y-51007332D01*
X102995209Y-51134804D01*
X102995216Y-51134817D01*
X103071873Y-51249541D01*
X103071876Y-51249545D01*
X103169442Y-51347111D01*
X103169446Y-51347114D01*
X103284170Y-51423771D01*
X103284183Y-51423778D01*
X103411655Y-51476578D01*
X103411660Y-51476580D01*
X103411664Y-51476580D01*
X103411665Y-51476581D01*
X103546992Y-51503500D01*
X103591488Y-51503500D01*
X103658527Y-51523185D01*
X103704282Y-51575989D01*
X103715488Y-51627500D01*
X103715488Y-51671993D01*
X103715488Y-51671995D01*
X103715487Y-51671995D01*
X103742406Y-51807322D01*
X103742409Y-51807332D01*
X103795209Y-51934804D01*
X103795216Y-51934817D01*
X103871873Y-52049541D01*
X103871876Y-52049545D01*
X103969442Y-52147111D01*
X103969446Y-52147114D01*
X104084170Y-52223771D01*
X104084183Y-52223778D01*
X104211655Y-52276578D01*
X104211660Y-52276580D01*
X104211664Y-52276580D01*
X104211665Y-52276581D01*
X104346992Y-52303500D01*
X104346995Y-52303500D01*
X104484983Y-52303500D01*
X104576029Y-52285389D01*
X104620316Y-52276580D01*
X104747799Y-52223775D01*
X104747804Y-52223771D01*
X104753166Y-52220906D01*
X104753825Y-52222139D01*
X104813760Y-52203365D01*
X104878671Y-52221164D01*
X104878810Y-52220906D01*
X104879947Y-52221514D01*
X104881143Y-52221842D01*
X104884019Y-52223690D01*
X104884181Y-52223777D01*
X105011655Y-52276578D01*
X105011660Y-52276580D01*
X105011664Y-52276580D01*
X105011665Y-52276581D01*
X105146992Y-52303500D01*
X105146995Y-52303500D01*
X105284983Y-52303500D01*
X105376029Y-52285389D01*
X105420316Y-52276580D01*
X105547799Y-52223775D01*
X105547804Y-52223771D01*
X105553166Y-52220906D01*
X105553825Y-52222139D01*
X105613760Y-52203365D01*
X105678671Y-52221164D01*
X105678810Y-52220906D01*
X105679947Y-52221514D01*
X105681143Y-52221842D01*
X105684019Y-52223690D01*
X105684181Y-52223777D01*
X105811655Y-52276578D01*
X105811660Y-52276580D01*
X105811664Y-52276580D01*
X105811665Y-52276581D01*
X105946992Y-52303500D01*
X105946995Y-52303500D01*
X106084983Y-52303500D01*
X106176029Y-52285389D01*
X106220316Y-52276580D01*
X106347799Y-52223775D01*
X106462530Y-52147114D01*
X106560102Y-52049542D01*
X106636763Y-51934811D01*
X106689568Y-51807328D01*
X106716387Y-51672501D01*
X106716488Y-51671995D01*
X106716488Y-51534004D01*
X106709111Y-51496920D01*
X118255487Y-51496920D01*
X118284328Y-51641907D01*
X118284331Y-51641917D01*
X118340900Y-51778488D01*
X118340907Y-51778501D01*
X118423036Y-51901415D01*
X118423039Y-51901419D01*
X118527568Y-52005948D01*
X118527572Y-52005951D01*
X118650486Y-52088080D01*
X118650499Y-52088087D01*
X118787070Y-52144656D01*
X118787075Y-52144658D01*
X118787079Y-52144658D01*
X118787080Y-52144659D01*
X118932067Y-52173500D01*
X118932070Y-52173500D01*
X119079908Y-52173500D01*
X119177450Y-52154096D01*
X119224901Y-52144658D01*
X119361483Y-52088084D01*
X119484404Y-52005951D01*
X119588939Y-51901416D01*
X119671072Y-51778495D01*
X119727646Y-51641913D01*
X119747573Y-51541736D01*
X119756488Y-51496920D01*
X119756488Y-51349079D01*
X119727647Y-51204092D01*
X119727646Y-51204091D01*
X119727646Y-51204087D01*
X119727644Y-51204082D01*
X119671075Y-51067511D01*
X119671068Y-51067498D01*
X119588939Y-50944584D01*
X119588936Y-50944580D01*
X119484407Y-50840051D01*
X119484403Y-50840048D01*
X119361489Y-50757919D01*
X119361476Y-50757912D01*
X119224905Y-50701343D01*
X119224895Y-50701340D01*
X119079908Y-50672500D01*
X119079906Y-50672500D01*
X118932070Y-50672500D01*
X118932068Y-50672500D01*
X118787080Y-50701340D01*
X118787070Y-50701343D01*
X118650499Y-50757912D01*
X118650486Y-50757919D01*
X118527572Y-50840048D01*
X118527568Y-50840051D01*
X118423039Y-50944580D01*
X118423036Y-50944584D01*
X118340907Y-51067498D01*
X118340900Y-51067511D01*
X118284331Y-51204082D01*
X118284328Y-51204092D01*
X118255488Y-51349079D01*
X118255488Y-51349082D01*
X118255488Y-51496918D01*
X118255488Y-51496920D01*
X118255487Y-51496920D01*
X106709111Y-51496920D01*
X106689569Y-51398677D01*
X106689568Y-51398676D01*
X106689568Y-51398672D01*
X106648908Y-51300510D01*
X106636766Y-51271195D01*
X106636759Y-51271182D01*
X106560102Y-51156458D01*
X106560099Y-51156454D01*
X106462533Y-51058888D01*
X106462529Y-51058885D01*
X106347805Y-50982228D01*
X106347792Y-50982221D01*
X106220320Y-50929421D01*
X106220308Y-50929418D01*
X106196172Y-50924617D01*
X106134261Y-50892232D01*
X106099687Y-50831517D01*
X106103426Y-50761747D01*
X106144292Y-50705075D01*
X106196172Y-50681383D01*
X106206265Y-50679374D01*
X106220316Y-50676580D01*
X106347799Y-50623775D01*
X106462530Y-50547114D01*
X106560102Y-50449542D01*
X106636763Y-50334811D01*
X106689568Y-50207328D01*
X106698377Y-50163041D01*
X106716488Y-50071995D01*
X106716488Y-49934004D01*
X106689569Y-49798677D01*
X106689568Y-49798676D01*
X106689568Y-49798672D01*
X106689566Y-49798667D01*
X106636766Y-49671195D01*
X106636759Y-49671182D01*
X106560102Y-49556458D01*
X106560099Y-49556454D01*
X106462533Y-49458888D01*
X106462529Y-49458885D01*
X106347805Y-49382228D01*
X106347792Y-49382221D01*
X106220320Y-49329421D01*
X106220310Y-49329418D01*
X106084983Y-49302500D01*
X106084981Y-49302500D01*
X105946995Y-49302500D01*
X105946993Y-49302500D01*
X105811665Y-49329418D01*
X105811655Y-49329421D01*
X105684178Y-49382223D01*
X105678807Y-49385095D01*
X105678150Y-49383865D01*
X105618183Y-49402634D01*
X105569529Y-49393621D01*
X105557700Y-49388841D01*
X105547799Y-49382225D01*
X105420316Y-49329420D01*
X105401295Y-49325636D01*
X105390473Y-49321263D01*
X105371860Y-49306527D01*
X105350825Y-49295523D01*
X105344969Y-49285238D01*
X105335692Y-49277894D01*
X105328000Y-49255436D01*
X105316254Y-49234805D01*
X105316887Y-49222987D01*
X105313054Y-49211793D01*
X105318725Y-49188743D01*
X105319997Y-49165036D01*
X105322350Y-49158894D01*
X105351580Y-49088328D01*
X105354414Y-49074080D01*
X105357185Y-49060153D01*
X112897500Y-49060153D01*
X112897500Y-49217846D01*
X112928261Y-49372489D01*
X112928264Y-49372501D01*
X112988602Y-49518172D01*
X112988609Y-49518185D01*
X113076210Y-49649288D01*
X113076213Y-49649292D01*
X113187707Y-49760786D01*
X113187711Y-49760789D01*
X113318814Y-49848390D01*
X113318827Y-49848397D01*
X113464498Y-49908735D01*
X113464503Y-49908737D01*
X113591528Y-49934004D01*
X113619153Y-49939499D01*
X113619156Y-49939500D01*
X113619158Y-49939500D01*
X113776844Y-49939500D01*
X113776845Y-49939499D01*
X113931497Y-49908737D01*
X114077179Y-49848394D01*
X114208289Y-49760789D01*
X114319789Y-49649289D01*
X114407394Y-49518179D01*
X114467737Y-49372497D01*
X114498500Y-49217842D01*
X114498500Y-49060158D01*
X114498500Y-49060155D01*
X114498499Y-49060153D01*
X114477183Y-48952993D01*
X114467737Y-48905503D01*
X114467735Y-48905498D01*
X114407397Y-48759827D01*
X114407390Y-48759814D01*
X114319789Y-48628711D01*
X114319786Y-48628707D01*
X114208292Y-48517213D01*
X114208288Y-48517210D01*
X114077185Y-48429609D01*
X114077172Y-48429602D01*
X113931501Y-48369264D01*
X113931489Y-48369261D01*
X113776845Y-48338500D01*
X113776842Y-48338500D01*
X113619158Y-48338500D01*
X113619155Y-48338500D01*
X113464510Y-48369261D01*
X113464498Y-48369264D01*
X113318827Y-48429602D01*
X113318814Y-48429609D01*
X113187711Y-48517210D01*
X113187707Y-48517213D01*
X113076213Y-48628707D01*
X113076210Y-48628711D01*
X112988609Y-48759814D01*
X112988602Y-48759827D01*
X112928264Y-48905498D01*
X112928261Y-48905510D01*
X112897500Y-49060153D01*
X105357185Y-49060153D01*
X105363208Y-49029874D01*
X105363208Y-49029873D01*
X105378499Y-48952997D01*
X105378500Y-48952995D01*
X105378500Y-48815004D01*
X105351581Y-48679677D01*
X105351580Y-48679676D01*
X105351580Y-48679672D01*
X105332455Y-48633500D01*
X105298778Y-48552195D01*
X105298771Y-48552182D01*
X105222114Y-48437458D01*
X105222111Y-48437454D01*
X105124545Y-48339888D01*
X105124541Y-48339885D01*
X105009817Y-48263228D01*
X105009804Y-48263221D01*
X104882332Y-48210421D01*
X104882322Y-48210418D01*
X104746995Y-48183500D01*
X104746993Y-48183500D01*
X104609007Y-48183500D01*
X104609005Y-48183500D01*
X104473677Y-48210418D01*
X104473667Y-48210421D01*
X104346195Y-48263221D01*
X104346182Y-48263228D01*
X104231458Y-48339885D01*
X104231454Y-48339888D01*
X104133888Y-48437454D01*
X104133885Y-48437458D01*
X104057228Y-48552182D01*
X104057221Y-48552195D01*
X104004421Y-48679667D01*
X104004418Y-48679677D01*
X103977500Y-48815004D01*
X103977500Y-48815007D01*
X103977500Y-48952993D01*
X103977500Y-48952995D01*
X103977499Y-48952995D01*
X104004418Y-49088322D01*
X104004421Y-49088332D01*
X104048533Y-49194829D01*
X104056002Y-49264298D01*
X104024726Y-49326777D01*
X103964637Y-49362429D01*
X103894812Y-49359935D01*
X103886520Y-49356842D01*
X103820320Y-49329421D01*
X103820310Y-49329418D01*
X103684983Y-49302500D01*
X103684981Y-49302500D01*
X103546995Y-49302500D01*
X103546993Y-49302500D01*
X103411665Y-49329418D01*
X103411655Y-49329421D01*
X103284183Y-49382221D01*
X103284170Y-49382228D01*
X103169446Y-49458885D01*
X103169442Y-49458888D01*
X103071876Y-49556454D01*
X103071873Y-49556458D01*
X102995216Y-49671182D01*
X102995209Y-49671195D01*
X102942409Y-49798667D01*
X102942406Y-49798677D01*
X102915488Y-49934004D01*
X102915488Y-49934007D01*
X102915488Y-50071993D01*
X102915488Y-50071995D01*
X102915487Y-50071995D01*
X80153500Y-50071995D01*
X80153500Y-47956920D01*
X93875487Y-47956920D01*
X93904328Y-48101907D01*
X93904331Y-48101917D01*
X93960900Y-48238488D01*
X93960907Y-48238501D01*
X94043036Y-48361415D01*
X94043039Y-48361419D01*
X94147568Y-48465948D01*
X94147572Y-48465951D01*
X94270486Y-48548080D01*
X94270499Y-48548087D01*
X94407070Y-48604656D01*
X94407075Y-48604658D01*
X94407079Y-48604658D01*
X94407080Y-48604659D01*
X94552067Y-48633500D01*
X94552070Y-48633500D01*
X94699908Y-48633500D01*
X94797450Y-48614096D01*
X94844901Y-48604658D01*
X94981483Y-48548084D01*
X95104404Y-48465951D01*
X95208939Y-48361416D01*
X95291072Y-48238495D01*
X95347646Y-48101913D01*
X95358155Y-48049080D01*
X95376488Y-47956920D01*
X95376488Y-47809079D01*
X95347647Y-47664092D01*
X95347646Y-47664091D01*
X95347646Y-47664087D01*
X95336888Y-47638114D01*
X95291075Y-47527511D01*
X95291068Y-47527498D01*
X95208939Y-47404584D01*
X95208936Y-47404580D01*
X95104407Y-47300051D01*
X95104403Y-47300048D01*
X94981489Y-47217919D01*
X94981476Y-47217912D01*
X94844905Y-47161343D01*
X94844895Y-47161340D01*
X94699908Y-47132500D01*
X94699906Y-47132500D01*
X94552070Y-47132500D01*
X94552068Y-47132500D01*
X94407080Y-47161340D01*
X94407070Y-47161343D01*
X94270499Y-47217912D01*
X94270486Y-47217919D01*
X94147572Y-47300048D01*
X94147568Y-47300051D01*
X94043039Y-47404580D01*
X94043036Y-47404584D01*
X93960907Y-47527498D01*
X93960900Y-47527511D01*
X93904331Y-47664082D01*
X93904328Y-47664092D01*
X93875488Y-47809079D01*
X93875488Y-47809082D01*
X93875488Y-47956918D01*
X93875488Y-47956920D01*
X93875487Y-47956920D01*
X80153500Y-47956920D01*
X80153500Y-45928281D01*
X80171683Y-45863638D01*
X80212080Y-45797511D01*
X80633069Y-45108369D01*
X80635284Y-45104876D01*
X81169229Y-44293882D01*
X81171533Y-44290508D01*
X81247657Y-44182995D01*
X96657499Y-44182995D01*
X96684418Y-44318322D01*
X96684420Y-44318327D01*
X96703565Y-44364549D01*
X96711033Y-44434018D01*
X96703565Y-44459451D01*
X96684420Y-44505672D01*
X96684418Y-44505677D01*
X96657500Y-44641004D01*
X96657500Y-44641007D01*
X96657500Y-44778993D01*
X96657500Y-44778995D01*
X96657499Y-44778995D01*
X96684418Y-44914322D01*
X96684420Y-44914327D01*
X96703565Y-44960549D01*
X96711033Y-45030018D01*
X96703565Y-45055451D01*
X96684420Y-45101672D01*
X96684418Y-45101677D01*
X96657500Y-45237004D01*
X96657500Y-45237007D01*
X96657500Y-45374993D01*
X96657500Y-45374995D01*
X96657499Y-45374995D01*
X96684418Y-45510322D01*
X96684420Y-45510327D01*
X96703565Y-45556549D01*
X96711033Y-45626018D01*
X96703565Y-45651451D01*
X96684420Y-45697672D01*
X96684418Y-45697677D01*
X96657500Y-45833004D01*
X96657500Y-45833007D01*
X96657500Y-45970993D01*
X96657500Y-45970995D01*
X96657499Y-45970995D01*
X96684418Y-46106322D01*
X96684419Y-46106326D01*
X96684420Y-46106328D01*
X96688212Y-46115482D01*
X96703565Y-46152549D01*
X96711033Y-46222018D01*
X96703565Y-46247451D01*
X96684420Y-46293672D01*
X96684418Y-46293677D01*
X96657500Y-46429004D01*
X96657500Y-46429007D01*
X96657500Y-46566993D01*
X96657500Y-46566995D01*
X96657499Y-46566995D01*
X96684418Y-46702322D01*
X96684419Y-46702326D01*
X96684420Y-46702328D01*
X96685205Y-46704223D01*
X96703565Y-46748549D01*
X96711033Y-46818018D01*
X96703565Y-46843451D01*
X96684420Y-46889672D01*
X96684418Y-46889677D01*
X96657500Y-47025004D01*
X96657500Y-47025007D01*
X96657500Y-47162993D01*
X96657500Y-47162995D01*
X96657499Y-47162995D01*
X96684418Y-47298322D01*
X96684421Y-47298332D01*
X96737221Y-47425804D01*
X96737228Y-47425817D01*
X96813885Y-47540541D01*
X96813888Y-47540545D01*
X96911454Y-47638111D01*
X96911458Y-47638114D01*
X97026182Y-47714771D01*
X97026195Y-47714778D01*
X97101329Y-47745899D01*
X97153672Y-47767580D01*
X97153676Y-47767580D01*
X97153677Y-47767581D01*
X97289004Y-47794500D01*
X97289007Y-47794500D01*
X97426995Y-47794500D01*
X97518041Y-47776389D01*
X97562328Y-47767580D01*
X97689811Y-47714775D01*
X97804542Y-47638114D01*
X97902114Y-47540542D01*
X97957320Y-47457920D01*
X100497499Y-47457920D01*
X100526340Y-47602907D01*
X100526343Y-47602917D01*
X100582912Y-47739488D01*
X100582919Y-47739501D01*
X100656791Y-47850058D01*
X100677669Y-47916736D01*
X100659184Y-47984116D01*
X100656791Y-47987839D01*
X100612922Y-48053493D01*
X100612912Y-48053511D01*
X100556343Y-48190082D01*
X100556340Y-48190092D01*
X100527500Y-48335079D01*
X100527500Y-48335082D01*
X100527500Y-48482918D01*
X100527500Y-48482920D01*
X100527499Y-48482920D01*
X100556340Y-48627907D01*
X100556343Y-48627917D01*
X100612912Y-48764488D01*
X100612919Y-48764501D01*
X100695048Y-48887415D01*
X100695051Y-48887419D01*
X100799580Y-48991948D01*
X100799584Y-48991951D01*
X100922498Y-49074080D01*
X100922511Y-49074087D01*
X101059082Y-49130656D01*
X101059087Y-49130658D01*
X101059091Y-49130658D01*
X101059092Y-49130659D01*
X101204079Y-49159500D01*
X101204082Y-49159500D01*
X101351920Y-49159500D01*
X101449462Y-49140096D01*
X101496913Y-49130658D01*
X101633495Y-49074084D01*
X101756416Y-48991951D01*
X101860951Y-48887416D01*
X101943084Y-48764495D01*
X101999658Y-48627913D01*
X102028500Y-48482918D01*
X102028500Y-48335082D01*
X102028500Y-48335079D01*
X101999659Y-48190092D01*
X101999658Y-48190091D01*
X101999658Y-48190087D01*
X101964687Y-48105659D01*
X101943087Y-48053511D01*
X101943080Y-48053498D01*
X101869208Y-47942941D01*
X101848330Y-47876263D01*
X101866815Y-47808883D01*
X101869209Y-47805158D01*
X101913079Y-47739503D01*
X101913080Y-47739500D01*
X101913084Y-47739495D01*
X101969658Y-47602913D01*
X101986984Y-47515811D01*
X101998500Y-47457920D01*
X101998500Y-47310079D01*
X101969659Y-47165092D01*
X101969658Y-47165091D01*
X101969658Y-47165087D01*
X101969656Y-47165082D01*
X101913087Y-47028511D01*
X101913080Y-47028498D01*
X101830951Y-46905584D01*
X101830948Y-46905580D01*
X101726419Y-46801051D01*
X101726415Y-46801048D01*
X101603501Y-46718919D01*
X101603488Y-46718912D01*
X101466917Y-46662343D01*
X101466907Y-46662340D01*
X101321920Y-46633500D01*
X101321918Y-46633500D01*
X101174082Y-46633500D01*
X101174080Y-46633500D01*
X101029092Y-46662340D01*
X101029082Y-46662343D01*
X100892511Y-46718912D01*
X100892498Y-46718919D01*
X100769584Y-46801048D01*
X100769580Y-46801051D01*
X100665051Y-46905580D01*
X100665048Y-46905584D01*
X100582919Y-47028498D01*
X100582912Y-47028511D01*
X100526343Y-47165082D01*
X100526340Y-47165092D01*
X100497500Y-47310079D01*
X100497500Y-47310082D01*
X100497500Y-47457918D01*
X100497500Y-47457920D01*
X100497499Y-47457920D01*
X97957320Y-47457920D01*
X97978775Y-47425811D01*
X97987568Y-47404584D01*
X98026711Y-47310082D01*
X98031580Y-47298328D01*
X98051225Y-47199564D01*
X98058500Y-47162995D01*
X98058500Y-47025004D01*
X98031581Y-46889677D01*
X98031580Y-46889676D01*
X98031580Y-46889672D01*
X98012434Y-46843452D01*
X98004966Y-46773984D01*
X98012435Y-46748547D01*
X98017028Y-46737458D01*
X98031580Y-46702328D01*
X98045686Y-46631415D01*
X98058500Y-46566995D01*
X98058500Y-46429004D01*
X98031581Y-46293677D01*
X98031580Y-46293676D01*
X98031580Y-46293672D01*
X98012434Y-46247452D01*
X98004966Y-46177984D01*
X98012435Y-46152547D01*
X98031580Y-46106328D01*
X98038409Y-46071995D01*
X102915487Y-46071995D01*
X102942406Y-46207322D01*
X102942409Y-46207332D01*
X102995211Y-46334809D01*
X102998083Y-46340181D01*
X102996853Y-46340837D01*
X103015622Y-46400805D01*
X102997814Y-46465675D01*
X102998083Y-46465819D01*
X102997451Y-46467000D01*
X102997127Y-46468182D01*
X102995304Y-46471017D01*
X102995211Y-46471190D01*
X102942409Y-46598667D01*
X102942406Y-46598677D01*
X102915488Y-46734004D01*
X102915488Y-46734007D01*
X102915488Y-46871993D01*
X102915488Y-46871995D01*
X102915487Y-46871995D01*
X102942406Y-47007322D01*
X102942409Y-47007332D01*
X102995209Y-47134804D01*
X102995216Y-47134817D01*
X103071873Y-47249541D01*
X103071876Y-47249545D01*
X103169442Y-47347111D01*
X103169446Y-47347114D01*
X103284170Y-47423771D01*
X103284183Y-47423778D01*
X103411655Y-47476578D01*
X103411660Y-47476580D01*
X103411664Y-47476580D01*
X103411665Y-47476581D01*
X103546992Y-47503500D01*
X103546995Y-47503500D01*
X103684983Y-47503500D01*
X103776029Y-47485389D01*
X103820316Y-47476580D01*
X103947799Y-47423775D01*
X103947804Y-47423771D01*
X103953166Y-47420906D01*
X103953825Y-47422139D01*
X104013760Y-47403365D01*
X104078671Y-47421164D01*
X104078810Y-47420906D01*
X104079947Y-47421514D01*
X104081143Y-47421842D01*
X104084019Y-47423690D01*
X104084181Y-47423777D01*
X104211655Y-47476578D01*
X104211660Y-47476580D01*
X104211664Y-47476580D01*
X104211665Y-47476581D01*
X104346992Y-47503500D01*
X104346995Y-47503500D01*
X104484983Y-47503500D01*
X104576029Y-47485389D01*
X104620316Y-47476580D01*
X104747799Y-47423775D01*
X104747804Y-47423771D01*
X104753166Y-47420906D01*
X104753825Y-47422139D01*
X104813760Y-47403365D01*
X104878671Y-47421164D01*
X104878810Y-47420906D01*
X104879947Y-47421514D01*
X104881143Y-47421842D01*
X104884019Y-47423690D01*
X104884181Y-47423777D01*
X105011655Y-47476578D01*
X105011660Y-47476580D01*
X105011664Y-47476580D01*
X105011665Y-47476581D01*
X105146992Y-47503500D01*
X105146995Y-47503500D01*
X105284983Y-47503500D01*
X105376029Y-47485389D01*
X105420316Y-47476580D01*
X105547799Y-47423775D01*
X105547804Y-47423771D01*
X105553166Y-47420906D01*
X105553825Y-47422139D01*
X105613760Y-47403365D01*
X105678671Y-47421164D01*
X105678810Y-47420906D01*
X105679947Y-47421514D01*
X105681143Y-47421842D01*
X105684019Y-47423690D01*
X105684181Y-47423777D01*
X105811655Y-47476578D01*
X105811660Y-47476580D01*
X105811664Y-47476580D01*
X105811665Y-47476581D01*
X105946992Y-47503500D01*
X105946995Y-47503500D01*
X106084983Y-47503500D01*
X106176029Y-47485389D01*
X106220316Y-47476580D01*
X106265365Y-47457920D01*
X111627499Y-47457920D01*
X111656340Y-47602907D01*
X111656343Y-47602917D01*
X111712912Y-47739488D01*
X111712919Y-47739501D01*
X111795048Y-47862415D01*
X111795051Y-47862419D01*
X111899580Y-47966948D01*
X111899584Y-47966951D01*
X112022498Y-48049080D01*
X112022511Y-48049087D01*
X112150031Y-48101907D01*
X112159087Y-48105658D01*
X112159091Y-48105658D01*
X112159092Y-48105659D01*
X112304079Y-48134500D01*
X112304082Y-48134500D01*
X112451920Y-48134500D01*
X112549462Y-48115096D01*
X112596913Y-48105658D01*
X112733495Y-48049084D01*
X112856416Y-47966951D01*
X112960951Y-47862416D01*
X113043084Y-47739495D01*
X113099658Y-47602913D01*
X113116984Y-47515811D01*
X113128500Y-47457920D01*
X113128500Y-47310079D01*
X113099659Y-47165092D01*
X113099658Y-47165091D01*
X113099658Y-47165087D01*
X113099656Y-47165082D01*
X113043087Y-47028511D01*
X113043080Y-47028498D01*
X112960951Y-46905584D01*
X112960948Y-46905580D01*
X112856419Y-46801051D01*
X112856415Y-46801048D01*
X112733501Y-46718919D01*
X112733488Y-46718912D01*
X112596917Y-46662343D01*
X112596907Y-46662340D01*
X112451920Y-46633500D01*
X112451918Y-46633500D01*
X112304082Y-46633500D01*
X112304080Y-46633500D01*
X112159092Y-46662340D01*
X112159082Y-46662343D01*
X112022511Y-46718912D01*
X112022498Y-46718919D01*
X111899584Y-46801048D01*
X111899580Y-46801051D01*
X111795051Y-46905580D01*
X111795048Y-46905584D01*
X111712919Y-47028498D01*
X111712912Y-47028511D01*
X111656343Y-47165082D01*
X111656340Y-47165092D01*
X111627500Y-47310079D01*
X111627500Y-47310082D01*
X111627500Y-47457918D01*
X111627500Y-47457920D01*
X111627499Y-47457920D01*
X106265365Y-47457920D01*
X106347799Y-47423775D01*
X106462530Y-47347114D01*
X106560102Y-47249542D01*
X106636763Y-47134811D01*
X106689568Y-47007328D01*
X106698377Y-46963041D01*
X106716488Y-46871995D01*
X106716488Y-46827500D01*
X106736173Y-46760461D01*
X106788977Y-46714706D01*
X106840488Y-46703500D01*
X106884983Y-46703500D01*
X106976029Y-46685389D01*
X107020316Y-46676580D01*
X107147799Y-46623775D01*
X107147804Y-46623771D01*
X107153166Y-46620906D01*
X107153825Y-46622139D01*
X107213760Y-46603365D01*
X107278671Y-46621164D01*
X107278810Y-46620906D01*
X107279947Y-46621514D01*
X107281143Y-46621842D01*
X107284019Y-46623690D01*
X107284181Y-46623777D01*
X107411655Y-46676578D01*
X107411660Y-46676580D01*
X107411664Y-46676580D01*
X107411665Y-46676581D01*
X107546992Y-46703500D01*
X107546995Y-46703500D01*
X107684983Y-46703500D01*
X107776029Y-46685389D01*
X107820316Y-46676580D01*
X107947799Y-46623775D01*
X107947804Y-46623771D01*
X107953166Y-46620906D01*
X107953825Y-46622139D01*
X108013760Y-46603365D01*
X108078671Y-46621164D01*
X108078810Y-46620906D01*
X108079947Y-46621514D01*
X108081143Y-46621842D01*
X108084019Y-46623690D01*
X108084181Y-46623777D01*
X108211655Y-46676578D01*
X108211660Y-46676580D01*
X108211664Y-46676580D01*
X108211665Y-46676581D01*
X108346992Y-46703500D01*
X108346995Y-46703500D01*
X108484983Y-46703500D01*
X108576029Y-46685389D01*
X108620316Y-46676580D01*
X108747799Y-46623775D01*
X108747804Y-46623771D01*
X108753166Y-46620906D01*
X108753825Y-46622139D01*
X108813760Y-46603365D01*
X108878671Y-46621164D01*
X108878810Y-46620906D01*
X108879947Y-46621514D01*
X108881143Y-46621842D01*
X108884019Y-46623690D01*
X108884181Y-46623777D01*
X109011655Y-46676578D01*
X109011660Y-46676580D01*
X109011664Y-46676580D01*
X109011665Y-46676581D01*
X109146992Y-46703500D01*
X109146995Y-46703500D01*
X109284983Y-46703500D01*
X109376029Y-46685389D01*
X109420316Y-46676580D01*
X109547799Y-46623775D01*
X109547804Y-46623771D01*
X109553166Y-46620906D01*
X109553825Y-46622139D01*
X109613760Y-46603365D01*
X109678671Y-46621164D01*
X109678810Y-46620906D01*
X109679947Y-46621514D01*
X109681143Y-46621842D01*
X109684019Y-46623690D01*
X109684181Y-46623777D01*
X109811655Y-46676578D01*
X109811660Y-46676580D01*
X109811664Y-46676580D01*
X109811665Y-46676581D01*
X109946992Y-46703500D01*
X109946995Y-46703500D01*
X110084983Y-46703500D01*
X110176029Y-46685389D01*
X110220316Y-46676580D01*
X110347799Y-46623775D01*
X110462530Y-46547114D01*
X110560102Y-46449542D01*
X110636763Y-46334811D01*
X110681453Y-46226920D01*
X115527987Y-46226920D01*
X115556828Y-46371907D01*
X115556831Y-46371917D01*
X115613400Y-46508488D01*
X115613407Y-46508501D01*
X115695536Y-46631415D01*
X115695538Y-46631418D01*
X115707022Y-46642901D01*
X115740509Y-46704223D01*
X115735527Y-46773915D01*
X115722446Y-46799476D01*
X115687228Y-46852182D01*
X115687221Y-46852195D01*
X115634421Y-46979667D01*
X115634418Y-46979677D01*
X115607500Y-47115004D01*
X115607500Y-47115007D01*
X115607500Y-47252993D01*
X115607500Y-47252995D01*
X115607499Y-47252995D01*
X115634418Y-47388322D01*
X115634421Y-47388332D01*
X115687221Y-47515804D01*
X115687228Y-47515817D01*
X115763885Y-47630541D01*
X115763888Y-47630545D01*
X115861454Y-47728111D01*
X115861461Y-47728116D01*
X115888073Y-47745899D01*
X115932878Y-47799512D01*
X115941584Y-47868837D01*
X115911428Y-47931864D01*
X115888073Y-47952101D01*
X115861461Y-47969883D01*
X115861454Y-47969888D01*
X115763888Y-48067454D01*
X115763885Y-48067458D01*
X115687228Y-48182182D01*
X115687221Y-48182195D01*
X115634421Y-48309667D01*
X115634418Y-48309677D01*
X115607500Y-48445004D01*
X115607500Y-48445007D01*
X115607500Y-48582993D01*
X115607500Y-48582995D01*
X115607499Y-48582995D01*
X115634418Y-48718321D01*
X115634419Y-48718323D01*
X115634420Y-48718328D01*
X115656465Y-48771551D01*
X115663933Y-48841018D01*
X115656467Y-48866444D01*
X115634420Y-48919672D01*
X115634418Y-48919678D01*
X115607500Y-49055004D01*
X115607500Y-49055007D01*
X115607500Y-49192993D01*
X115607500Y-49192995D01*
X115607499Y-49192995D01*
X115634418Y-49328322D01*
X115634421Y-49328332D01*
X115687221Y-49455804D01*
X115687228Y-49455817D01*
X115763596Y-49570109D01*
X115784474Y-49636787D01*
X115765989Y-49704167D01*
X115763596Y-49707891D01*
X115687228Y-49822182D01*
X115687221Y-49822195D01*
X115634421Y-49949667D01*
X115634418Y-49949677D01*
X115607500Y-50085004D01*
X115607500Y-50085007D01*
X115607500Y-50222993D01*
X115607500Y-50222995D01*
X115607499Y-50222995D01*
X115634418Y-50358322D01*
X115634421Y-50358332D01*
X115687221Y-50485804D01*
X115687228Y-50485817D01*
X115763885Y-50600541D01*
X115763888Y-50600545D01*
X115861454Y-50698111D01*
X115861458Y-50698114D01*
X115976182Y-50774771D01*
X115976195Y-50774778D01*
X116096482Y-50824602D01*
X116103672Y-50827580D01*
X116103676Y-50827580D01*
X116103677Y-50827581D01*
X116239004Y-50854500D01*
X116239007Y-50854500D01*
X116376995Y-50854500D01*
X116468041Y-50836389D01*
X116512328Y-50827580D01*
X116639811Y-50774775D01*
X116754542Y-50698114D01*
X116852114Y-50600542D01*
X116928775Y-50485811D01*
X116981580Y-50358328D01*
X117008500Y-50222993D01*
X117008500Y-50085007D01*
X117008500Y-50085004D01*
X116981581Y-49949677D01*
X116981580Y-49949676D01*
X116981580Y-49949672D01*
X116964624Y-49908737D01*
X116928778Y-49822195D01*
X116928776Y-49822191D01*
X116928775Y-49822189D01*
X116852402Y-49707890D01*
X116831525Y-49641214D01*
X116850009Y-49573834D01*
X116852403Y-49570109D01*
X116928775Y-49455811D01*
X116981580Y-49328328D01*
X116991612Y-49277894D01*
X117008500Y-49192995D01*
X117008500Y-49055004D01*
X116981581Y-48919677D01*
X116981580Y-48919676D01*
X116981580Y-48919672D01*
X116959534Y-48866449D01*
X116952066Y-48796985D01*
X116959532Y-48771556D01*
X116981580Y-48718328D01*
X116990389Y-48674041D01*
X117008500Y-48582995D01*
X117008500Y-48445004D01*
X116981581Y-48309677D01*
X116981580Y-48309676D01*
X116981580Y-48309672D01*
X116981578Y-48309667D01*
X116928778Y-48182195D01*
X116928771Y-48182182D01*
X116852114Y-48067458D01*
X116852111Y-48067454D01*
X116754545Y-47969888D01*
X116754541Y-47969885D01*
X116727927Y-47952102D01*
X116683122Y-47898490D01*
X116674415Y-47829165D01*
X116704570Y-47766137D01*
X116727927Y-47745898D01*
X116737574Y-47739451D01*
X116754542Y-47728114D01*
X116852114Y-47630542D01*
X116928775Y-47515811D01*
X116981580Y-47388328D01*
X116999140Y-47300048D01*
X117008500Y-47252995D01*
X117008500Y-47115004D01*
X116981581Y-46979677D01*
X116981580Y-46979676D01*
X116981580Y-46979672D01*
X116950892Y-46905584D01*
X116928778Y-46852195D01*
X116928776Y-46852191D01*
X116928775Y-46852189D01*
X116867380Y-46760305D01*
X116846502Y-46693628D01*
X116864986Y-46626248D01*
X116867335Y-46622590D01*
X116943572Y-46508495D01*
X117000146Y-46371913D01*
X117015261Y-46295925D01*
X117028988Y-46226920D01*
X117028988Y-46079079D01*
X117000147Y-45934092D01*
X117000146Y-45934091D01*
X117000146Y-45934087D01*
X116971372Y-45864620D01*
X116943575Y-45797511D01*
X116943568Y-45797498D01*
X116903015Y-45736806D01*
X116882137Y-45670128D01*
X116900622Y-45602748D01*
X116903015Y-45599024D01*
X116971413Y-45496659D01*
X116971413Y-45496658D01*
X116971417Y-45496653D01*
X117026107Y-45364620D01*
X117049794Y-45245539D01*
X117053988Y-45224457D01*
X117053988Y-45081542D01*
X117026108Y-44941385D01*
X117026107Y-44941384D01*
X117026107Y-44941380D01*
X116971417Y-44809347D01*
X116971416Y-44809346D01*
X116971413Y-44809340D01*
X116892020Y-44690521D01*
X116892017Y-44690517D01*
X116790970Y-44589470D01*
X116790966Y-44589467D01*
X116672147Y-44510074D01*
X116672138Y-44510069D01*
X116540108Y-44455381D01*
X116540102Y-44455379D01*
X116399945Y-44427500D01*
X116399943Y-44427500D01*
X116257033Y-44427500D01*
X116257031Y-44427500D01*
X116116873Y-44455379D01*
X116116867Y-44455381D01*
X115984837Y-44510069D01*
X115984828Y-44510074D01*
X115866009Y-44589467D01*
X115866005Y-44589470D01*
X115764958Y-44690517D01*
X115764955Y-44690521D01*
X115685562Y-44809340D01*
X115685557Y-44809349D01*
X115630869Y-44941379D01*
X115630867Y-44941385D01*
X115602988Y-45081542D01*
X115602988Y-45081545D01*
X115602988Y-45224455D01*
X115602988Y-45224457D01*
X115602987Y-45224457D01*
X115630867Y-45364614D01*
X115630869Y-45364620D01*
X115685559Y-45496655D01*
X115704477Y-45524967D01*
X115725355Y-45591644D01*
X115706870Y-45659024D01*
X115697234Y-45672515D01*
X115695538Y-45674581D01*
X115613407Y-45797498D01*
X115613400Y-45797511D01*
X115556831Y-45934082D01*
X115556828Y-45934092D01*
X115527988Y-46079079D01*
X115527988Y-46079082D01*
X115527988Y-46226918D01*
X115527988Y-46226920D01*
X115527987Y-46226920D01*
X110681453Y-46226920D01*
X110689568Y-46207328D01*
X110700465Y-46152547D01*
X110716488Y-46071995D01*
X110716488Y-45934004D01*
X110689569Y-45798677D01*
X110689568Y-45798676D01*
X110689568Y-45798672D01*
X110668355Y-45747459D01*
X110636766Y-45671195D01*
X110636759Y-45671182D01*
X110560102Y-45556458D01*
X110560099Y-45556454D01*
X110462533Y-45458888D01*
X110462529Y-45458885D01*
X110347805Y-45382228D01*
X110347792Y-45382221D01*
X110220320Y-45329421D01*
X110220310Y-45329418D01*
X110084983Y-45302500D01*
X110084981Y-45302500D01*
X110040488Y-45302500D01*
X109973449Y-45282815D01*
X109927694Y-45230011D01*
X109916488Y-45178500D01*
X109916488Y-45134004D01*
X109889569Y-44998677D01*
X109889568Y-44998676D01*
X109889568Y-44998672D01*
X109888732Y-44996653D01*
X109836766Y-44871195D01*
X109836759Y-44871182D01*
X109760102Y-44756458D01*
X109760099Y-44756454D01*
X109662533Y-44658888D01*
X109662529Y-44658885D01*
X109547805Y-44582228D01*
X109547792Y-44582221D01*
X109420320Y-44529421D01*
X109420310Y-44529418D01*
X109284983Y-44502500D01*
X109284981Y-44502500D01*
X109146995Y-44502500D01*
X109146993Y-44502500D01*
X109011665Y-44529418D01*
X109011655Y-44529421D01*
X108884178Y-44582223D01*
X108878807Y-44585095D01*
X108878150Y-44583865D01*
X108818183Y-44602634D01*
X108753312Y-44584826D01*
X108753169Y-44585095D01*
X108751987Y-44584463D01*
X108750806Y-44584139D01*
X108747970Y-44582316D01*
X108747797Y-44582223D01*
X108620320Y-44529421D01*
X108620310Y-44529418D01*
X108484983Y-44502500D01*
X108484981Y-44502500D01*
X108346995Y-44502500D01*
X108346993Y-44502500D01*
X108211665Y-44529418D01*
X108211655Y-44529421D01*
X108084178Y-44582223D01*
X108078807Y-44585095D01*
X108078150Y-44583865D01*
X108018183Y-44602634D01*
X107953312Y-44584826D01*
X107953169Y-44585095D01*
X107951987Y-44584463D01*
X107950806Y-44584139D01*
X107947970Y-44582316D01*
X107947797Y-44582223D01*
X107820320Y-44529421D01*
X107820310Y-44529418D01*
X107684983Y-44502500D01*
X107684981Y-44502500D01*
X107546995Y-44502500D01*
X107546993Y-44502500D01*
X107411665Y-44529418D01*
X107411655Y-44529421D01*
X107284178Y-44582223D01*
X107278807Y-44585095D01*
X107278150Y-44583865D01*
X107218183Y-44602634D01*
X107153312Y-44584826D01*
X107153169Y-44585095D01*
X107151987Y-44584463D01*
X107150806Y-44584139D01*
X107147970Y-44582316D01*
X107147797Y-44582223D01*
X107020320Y-44529421D01*
X107020310Y-44529418D01*
X106884983Y-44502500D01*
X106884981Y-44502500D01*
X106746995Y-44502500D01*
X106746993Y-44502500D01*
X106611665Y-44529418D01*
X106611655Y-44529421D01*
X106484178Y-44582223D01*
X106478807Y-44585095D01*
X106478150Y-44583865D01*
X106418183Y-44602634D01*
X106353312Y-44584826D01*
X106353169Y-44585095D01*
X106351987Y-44584463D01*
X106350806Y-44584139D01*
X106347970Y-44582316D01*
X106347797Y-44582223D01*
X106220320Y-44529421D01*
X106220310Y-44529418D01*
X106084983Y-44502500D01*
X106084981Y-44502500D01*
X105946995Y-44502500D01*
X105946993Y-44502500D01*
X105811665Y-44529418D01*
X105811655Y-44529421D01*
X105684178Y-44582223D01*
X105678807Y-44585095D01*
X105678150Y-44583865D01*
X105618183Y-44602634D01*
X105553312Y-44584826D01*
X105553169Y-44585095D01*
X105551987Y-44584463D01*
X105550806Y-44584139D01*
X105547970Y-44582316D01*
X105547797Y-44582223D01*
X105420320Y-44529421D01*
X105420310Y-44529418D01*
X105284983Y-44502500D01*
X105284981Y-44502500D01*
X105146995Y-44502500D01*
X105146993Y-44502500D01*
X105011665Y-44529418D01*
X105011655Y-44529421D01*
X104884178Y-44582223D01*
X104878807Y-44585095D01*
X104878150Y-44583865D01*
X104818183Y-44602634D01*
X104753312Y-44584826D01*
X104753169Y-44585095D01*
X104751987Y-44584463D01*
X104750806Y-44584139D01*
X104747970Y-44582316D01*
X104747797Y-44582223D01*
X104620320Y-44529421D01*
X104620310Y-44529418D01*
X104484983Y-44502500D01*
X104484981Y-44502500D01*
X104346995Y-44502500D01*
X104346993Y-44502500D01*
X104211665Y-44529418D01*
X104211655Y-44529421D01*
X104084183Y-44582221D01*
X104084170Y-44582228D01*
X103969446Y-44658885D01*
X103969442Y-44658888D01*
X103871876Y-44756454D01*
X103871873Y-44756458D01*
X103795216Y-44871182D01*
X103795209Y-44871195D01*
X103742409Y-44998667D01*
X103742406Y-44998677D01*
X103715488Y-45134004D01*
X103715488Y-45178500D01*
X103695803Y-45245539D01*
X103642999Y-45291294D01*
X103591488Y-45302500D01*
X103546993Y-45302500D01*
X103411665Y-45329418D01*
X103411655Y-45329421D01*
X103284183Y-45382221D01*
X103284170Y-45382228D01*
X103169446Y-45458885D01*
X103169442Y-45458888D01*
X103071876Y-45556454D01*
X103071873Y-45556458D01*
X102995216Y-45671182D01*
X102995209Y-45671195D01*
X102942409Y-45798667D01*
X102942406Y-45798677D01*
X102915488Y-45934004D01*
X102915488Y-45934007D01*
X102915488Y-46071993D01*
X102915488Y-46071995D01*
X102915487Y-46071995D01*
X98038409Y-46071995D01*
X98053396Y-45996653D01*
X98058500Y-45970995D01*
X98058500Y-45833004D01*
X98031581Y-45697677D01*
X98031580Y-45697676D01*
X98031580Y-45697672D01*
X98012434Y-45651452D01*
X98004966Y-45581984D01*
X98012435Y-45556547D01*
X98012474Y-45556454D01*
X98031580Y-45510328D01*
X98057061Y-45382228D01*
X98058500Y-45374995D01*
X98058500Y-45237004D01*
X98031581Y-45101677D01*
X98031580Y-45101676D01*
X98031580Y-45101672D01*
X98012434Y-45055452D01*
X98004966Y-44985984D01*
X98012435Y-44960547D01*
X98020374Y-44941380D01*
X98031580Y-44914328D01*
X98055131Y-44795930D01*
X98058500Y-44778995D01*
X98058500Y-44641004D01*
X98031581Y-44505677D01*
X98031580Y-44505676D01*
X98031580Y-44505672D01*
X98012434Y-44459452D01*
X98004966Y-44389984D01*
X98012435Y-44364547D01*
X98031580Y-44318328D01*
X98050763Y-44221890D01*
X98058500Y-44182995D01*
X98058500Y-44045004D01*
X98031581Y-43909677D01*
X98031580Y-43909676D01*
X98031580Y-43909672D01*
X98012919Y-43864620D01*
X97978778Y-43782195D01*
X97978771Y-43782182D01*
X97940200Y-43724457D01*
X117902987Y-43724457D01*
X117930867Y-43864614D01*
X117930869Y-43864620D01*
X117985557Y-43996650D01*
X117985561Y-43996657D01*
X118043995Y-44084110D01*
X118064872Y-44150787D01*
X118046387Y-44218167D01*
X118043995Y-44221890D01*
X117985561Y-44309342D01*
X117985557Y-44309349D01*
X117930869Y-44441379D01*
X117930867Y-44441385D01*
X117902988Y-44581542D01*
X117902988Y-44581545D01*
X117902988Y-44724455D01*
X117902988Y-44724457D01*
X117902987Y-44724457D01*
X117930867Y-44864614D01*
X117930869Y-44864620D01*
X117985557Y-44996650D01*
X117985561Y-44996657D01*
X118043995Y-45084110D01*
X118064872Y-45150787D01*
X118046387Y-45218167D01*
X118043995Y-45221890D01*
X117985561Y-45309342D01*
X117985557Y-45309349D01*
X117930869Y-45441379D01*
X117930867Y-45441385D01*
X117902988Y-45581542D01*
X117902988Y-45581545D01*
X117902988Y-45724455D01*
X117902988Y-45724457D01*
X117902987Y-45724457D01*
X117930867Y-45864614D01*
X117930869Y-45864620D01*
X117985557Y-45996650D01*
X117985562Y-45996659D01*
X118064955Y-46115478D01*
X118064958Y-46115482D01*
X118166005Y-46216529D01*
X118166009Y-46216532D01*
X118284828Y-46295925D01*
X118284834Y-46295928D01*
X118284835Y-46295929D01*
X118416868Y-46350619D01*
X118416872Y-46350619D01*
X118416873Y-46350620D01*
X118557030Y-46378500D01*
X118557033Y-46378500D01*
X118699945Y-46378500D01*
X118794239Y-46359742D01*
X118840108Y-46350619D01*
X118972141Y-46295929D01*
X119090967Y-46216532D01*
X119192020Y-46115479D01*
X119271417Y-45996653D01*
X119326107Y-45864620D01*
X119349412Y-45747459D01*
X119353988Y-45724457D01*
X119353988Y-45581542D01*
X119326108Y-45441385D01*
X119326107Y-45441384D01*
X119326107Y-45441380D01*
X119271417Y-45309347D01*
X119271414Y-45309342D01*
X119271413Y-45309340D01*
X119212981Y-45221891D01*
X119208285Y-45206895D01*
X119199108Y-45194143D01*
X119198059Y-45174237D01*
X119192103Y-45155214D01*
X119196211Y-45139148D01*
X119195433Y-45124370D01*
X119206462Y-45099065D01*
X119208387Y-45091539D01*
X119210557Y-45087735D01*
X119271417Y-44996653D01*
X119294922Y-44939905D01*
X119298797Y-44933117D01*
X119318555Y-44914087D01*
X119335772Y-44892722D01*
X119344656Y-44888948D01*
X119349122Y-44884648D01*
X119359724Y-44882549D01*
X119382302Y-44872961D01*
X119424233Y-44864620D01*
X119494620Y-44850619D01*
X119626653Y-44795929D01*
X119745479Y-44716532D01*
X119846532Y-44615479D01*
X119925929Y-44496653D01*
X119980619Y-44364620D01*
X120008500Y-44224455D01*
X120008500Y-44081545D01*
X120008500Y-44081542D01*
X119980620Y-43941385D01*
X119980619Y-43941384D01*
X119980619Y-43941380D01*
X119925929Y-43809347D01*
X119925928Y-43809346D01*
X119925925Y-43809340D01*
X119846532Y-43690521D01*
X119846529Y-43690517D01*
X119745482Y-43589470D01*
X119745478Y-43589467D01*
X119626659Y-43510074D01*
X119626650Y-43510069D01*
X119494620Y-43455381D01*
X119494614Y-43455379D01*
X119382301Y-43433038D01*
X119320390Y-43400653D01*
X119291932Y-43358874D01*
X119280974Y-43332419D01*
X119271417Y-43309347D01*
X119271415Y-43309344D01*
X119271413Y-43309340D01*
X119192020Y-43190521D01*
X119192017Y-43190517D01*
X119090970Y-43089470D01*
X119090966Y-43089467D01*
X118972147Y-43010074D01*
X118972138Y-43010069D01*
X118840108Y-42955381D01*
X118840102Y-42955379D01*
X118699945Y-42927500D01*
X118699943Y-42927500D01*
X118557033Y-42927500D01*
X118557031Y-42927500D01*
X118416873Y-42955379D01*
X118416867Y-42955381D01*
X118284837Y-43010069D01*
X118284828Y-43010074D01*
X118166009Y-43089467D01*
X118166005Y-43089470D01*
X118064958Y-43190517D01*
X118064955Y-43190521D01*
X117985562Y-43309340D01*
X117985557Y-43309349D01*
X117930869Y-43441379D01*
X117930867Y-43441385D01*
X117902988Y-43581542D01*
X117902988Y-43581545D01*
X117902988Y-43724455D01*
X117902988Y-43724457D01*
X117902987Y-43724457D01*
X97940200Y-43724457D01*
X97902114Y-43667458D01*
X97902111Y-43667454D01*
X97804545Y-43569888D01*
X97804541Y-43569885D01*
X97689817Y-43493228D01*
X97689804Y-43493221D01*
X97562332Y-43440421D01*
X97562322Y-43440418D01*
X97426995Y-43413500D01*
X97426993Y-43413500D01*
X97289007Y-43413500D01*
X97289005Y-43413500D01*
X97153677Y-43440418D01*
X97153667Y-43440421D01*
X97026195Y-43493221D01*
X97026182Y-43493228D01*
X96911458Y-43569885D01*
X96911454Y-43569888D01*
X96813888Y-43667454D01*
X96813885Y-43667458D01*
X96737228Y-43782182D01*
X96737221Y-43782195D01*
X96684421Y-43909667D01*
X96684418Y-43909677D01*
X96657500Y-44045004D01*
X96657500Y-44045007D01*
X96657500Y-44182993D01*
X96657500Y-44182995D01*
X96657499Y-44182995D01*
X81247657Y-44182995D01*
X81732624Y-43498057D01*
X81735059Y-43494740D01*
X82165925Y-42927920D01*
X109257499Y-42927920D01*
X109286340Y-43072907D01*
X109286343Y-43072917D01*
X109342912Y-43209488D01*
X109342919Y-43209501D01*
X109425048Y-43332415D01*
X109425051Y-43332419D01*
X109529580Y-43436948D01*
X109529584Y-43436951D01*
X109652498Y-43519080D01*
X109652511Y-43519087D01*
X109775152Y-43569886D01*
X109789087Y-43575658D01*
X109789091Y-43575658D01*
X109789092Y-43575659D01*
X109934079Y-43604500D01*
X109934082Y-43604500D01*
X110081920Y-43604500D01*
X110179462Y-43585096D01*
X110226913Y-43575658D01*
X110363495Y-43519084D01*
X110363501Y-43519080D01*
X110433437Y-43472351D01*
X110459443Y-43454973D01*
X110486416Y-43436951D01*
X110590951Y-43332416D01*
X110673084Y-43209495D01*
X110729658Y-43072913D01*
X110758500Y-42927918D01*
X110758500Y-42780082D01*
X110758500Y-42780079D01*
X110729659Y-42635092D01*
X110729658Y-42635091D01*
X110729658Y-42635087D01*
X110728139Y-42631419D01*
X110673087Y-42498511D01*
X110673080Y-42498498D01*
X110590951Y-42375584D01*
X110590948Y-42375580D01*
X110486419Y-42271051D01*
X110486415Y-42271048D01*
X110363501Y-42188919D01*
X110363488Y-42188912D01*
X110226917Y-42132343D01*
X110226907Y-42132340D01*
X110081920Y-42103500D01*
X110081918Y-42103500D01*
X109934082Y-42103500D01*
X109934080Y-42103500D01*
X109789092Y-42132340D01*
X109789082Y-42132343D01*
X109652511Y-42188912D01*
X109652498Y-42188919D01*
X109529584Y-42271048D01*
X109529580Y-42271051D01*
X109425051Y-42375580D01*
X109425048Y-42375584D01*
X109342919Y-42498498D01*
X109342912Y-42498511D01*
X109286343Y-42635082D01*
X109286340Y-42635092D01*
X109257500Y-42780079D01*
X109257500Y-42780082D01*
X109257500Y-42927918D01*
X109257500Y-42927920D01*
X109257499Y-42927920D01*
X82165925Y-42927920D01*
X82322621Y-42721781D01*
X82325171Y-42718541D01*
X82938579Y-41965897D01*
X82941227Y-41962758D01*
X83579759Y-41231313D01*
X83582514Y-41228262D01*
X84053308Y-40724457D01*
X93427987Y-40724457D01*
X93455867Y-40864614D01*
X93455869Y-40864620D01*
X93510557Y-40996650D01*
X93510562Y-40996659D01*
X93589955Y-41115478D01*
X93589958Y-41115482D01*
X93691005Y-41216529D01*
X93691009Y-41216532D01*
X93809828Y-41295925D01*
X93809841Y-41295932D01*
X93906007Y-41335765D01*
X93960411Y-41379606D01*
X93982476Y-41445900D01*
X93965197Y-41513599D01*
X93927447Y-41553428D01*
X93902568Y-41570051D01*
X93798039Y-41674580D01*
X93798036Y-41674584D01*
X93715907Y-41797498D01*
X93715900Y-41797511D01*
X93659331Y-41934082D01*
X93659328Y-41934092D01*
X93630488Y-42079079D01*
X93630488Y-42079082D01*
X93630488Y-42226918D01*
X93630488Y-42226920D01*
X93630487Y-42226920D01*
X93659328Y-42371907D01*
X93659331Y-42371917D01*
X93715900Y-42508488D01*
X93715907Y-42508501D01*
X93798036Y-42631415D01*
X93798039Y-42631419D01*
X93902568Y-42735948D01*
X93902572Y-42735951D01*
X94025486Y-42818080D01*
X94025499Y-42818087D01*
X94128092Y-42860582D01*
X94162075Y-42874658D01*
X94162079Y-42874658D01*
X94162080Y-42874659D01*
X94307067Y-42903500D01*
X94307070Y-42903500D01*
X94454908Y-42903500D01*
X94552450Y-42884096D01*
X94599901Y-42874658D01*
X94736483Y-42818084D01*
X94859404Y-42735951D01*
X94876843Y-42718512D01*
X94909047Y-42686309D01*
X94963936Y-42631419D01*
X94963939Y-42631416D01*
X95046072Y-42508495D01*
X95050208Y-42498511D01*
X95058890Y-42477547D01*
X95102646Y-42371913D01*
X95115710Y-42306237D01*
X95131488Y-42226920D01*
X95131488Y-42079079D01*
X95115147Y-41996932D01*
X95121374Y-41927341D01*
X95164236Y-41872163D01*
X95209322Y-41852540D01*
X95209276Y-41852388D01*
X95210582Y-41851991D01*
X95212581Y-41851121D01*
X95215108Y-41850619D01*
X95347141Y-41795929D01*
X95454106Y-41724457D01*
X96577987Y-41724457D01*
X96605867Y-41864614D01*
X96605869Y-41864620D01*
X96660557Y-41996650D01*
X96660562Y-41996659D01*
X96739955Y-42115478D01*
X96739958Y-42115482D01*
X96841005Y-42216529D01*
X96841009Y-42216532D01*
X96959828Y-42295925D01*
X96959834Y-42295928D01*
X96959835Y-42295929D01*
X97091868Y-42350619D01*
X97091872Y-42350619D01*
X97091873Y-42350620D01*
X97232030Y-42378500D01*
X97232033Y-42378500D01*
X97374945Y-42378500D01*
X97469239Y-42359742D01*
X97515108Y-42350619D01*
X97647141Y-42295929D01*
X97765967Y-42216532D01*
X97867020Y-42115479D01*
X97946417Y-41996653D01*
X98001107Y-41864620D01*
X98019931Y-41769989D01*
X98028988Y-41724457D01*
X98028988Y-41581542D01*
X98028987Y-41581540D01*
X98007946Y-41475757D01*
X98004344Y-41457653D01*
X102515000Y-41457653D01*
X102515000Y-41615346D01*
X102545761Y-41769989D01*
X102545764Y-41770001D01*
X102606102Y-41915672D01*
X102606109Y-41915685D01*
X102693710Y-42046788D01*
X102693713Y-42046792D01*
X102805207Y-42158286D01*
X102805211Y-42158289D01*
X102936314Y-42245890D01*
X102936327Y-42245897D01*
X103081998Y-42306235D01*
X103082003Y-42306237D01*
X103236653Y-42336999D01*
X103236656Y-42337000D01*
X103236658Y-42337000D01*
X103394344Y-42337000D01*
X103394345Y-42336999D01*
X103548997Y-42306237D01*
X103694679Y-42245894D01*
X103825789Y-42158289D01*
X103937289Y-42046789D01*
X104024894Y-41915679D01*
X104085237Y-41769997D01*
X104116000Y-41615342D01*
X104116000Y-41457658D01*
X104116000Y-41457655D01*
X104115999Y-41457653D01*
X104086499Y-41309347D01*
X104085237Y-41303003D01*
X104055556Y-41231346D01*
X104053723Y-41226920D01*
X115609499Y-41226920D01*
X115638340Y-41371907D01*
X115638343Y-41371917D01*
X115694912Y-41508488D01*
X115694919Y-41508501D01*
X115777048Y-41631415D01*
X115777051Y-41631419D01*
X115881580Y-41735948D01*
X115881584Y-41735951D01*
X116004498Y-41818080D01*
X116004511Y-41818087D01*
X116141082Y-41874656D01*
X116141087Y-41874658D01*
X116141091Y-41874658D01*
X116141092Y-41874659D01*
X116286079Y-41903500D01*
X116286082Y-41903500D01*
X116433920Y-41903500D01*
X116531462Y-41884096D01*
X116578913Y-41874658D01*
X116715495Y-41818084D01*
X116838416Y-41735951D01*
X116942951Y-41631416D01*
X117025084Y-41508495D01*
X117081658Y-41371913D01*
X117094103Y-41309349D01*
X117110500Y-41226920D01*
X117110500Y-41079079D01*
X117081659Y-40934092D01*
X117081658Y-40934091D01*
X117081658Y-40934087D01*
X117052884Y-40864620D01*
X117025087Y-40797511D01*
X117025080Y-40797498D01*
X116942951Y-40674584D01*
X116942948Y-40674580D01*
X116838419Y-40570051D01*
X116838415Y-40570048D01*
X116715501Y-40487919D01*
X116715488Y-40487912D01*
X116578917Y-40431343D01*
X116578907Y-40431340D01*
X116433920Y-40402500D01*
X116433918Y-40402500D01*
X116286082Y-40402500D01*
X116286080Y-40402500D01*
X116141092Y-40431340D01*
X116141082Y-40431343D01*
X116004511Y-40487912D01*
X116004498Y-40487919D01*
X115881584Y-40570048D01*
X115881580Y-40570051D01*
X115777051Y-40674580D01*
X115777048Y-40674584D01*
X115694919Y-40797498D01*
X115694912Y-40797511D01*
X115638343Y-40934082D01*
X115638340Y-40934092D01*
X115609500Y-41079079D01*
X115609500Y-41079082D01*
X115609500Y-41226918D01*
X115609500Y-41226920D01*
X115609499Y-41226920D01*
X104053723Y-41226920D01*
X104024897Y-41157327D01*
X104024890Y-41157314D01*
X104014578Y-41141881D01*
X103937289Y-41026211D01*
X103937286Y-41026207D01*
X103825792Y-40914713D01*
X103825788Y-40914710D01*
X103694685Y-40827109D01*
X103694672Y-40827102D01*
X103549001Y-40766764D01*
X103548989Y-40766761D01*
X103394345Y-40736000D01*
X103394342Y-40736000D01*
X103236658Y-40736000D01*
X103236655Y-40736000D01*
X103082010Y-40766761D01*
X103081998Y-40766764D01*
X102936327Y-40827102D01*
X102936314Y-40827109D01*
X102805211Y-40914710D01*
X102805207Y-40914713D01*
X102693713Y-41026207D01*
X102693710Y-41026211D01*
X102606109Y-41157314D01*
X102606102Y-41157327D01*
X102545764Y-41302998D01*
X102545761Y-41303010D01*
X102515000Y-41457653D01*
X98004344Y-41457653D01*
X98001108Y-41441384D01*
X98001107Y-41441382D01*
X98001107Y-41441380D01*
X97946417Y-41309347D01*
X97946416Y-41309346D01*
X97946413Y-41309340D01*
X97867020Y-41190521D01*
X97867017Y-41190517D01*
X97765970Y-41089470D01*
X97765966Y-41089467D01*
X97647147Y-41010074D01*
X97647138Y-41010069D01*
X97515108Y-40955381D01*
X97515102Y-40955379D01*
X97374945Y-40927500D01*
X97374943Y-40927500D01*
X97232033Y-40927500D01*
X97232031Y-40927500D01*
X97091873Y-40955379D01*
X97091867Y-40955381D01*
X96959837Y-41010069D01*
X96959828Y-41010074D01*
X96841009Y-41089467D01*
X96841005Y-41089470D01*
X96739958Y-41190517D01*
X96739955Y-41190521D01*
X96660562Y-41309340D01*
X96660557Y-41309349D01*
X96605869Y-41441379D01*
X96605867Y-41441385D01*
X96577988Y-41581542D01*
X96577988Y-41581545D01*
X96577988Y-41724455D01*
X96577988Y-41724457D01*
X96577987Y-41724457D01*
X95454106Y-41724457D01*
X95465967Y-41716532D01*
X95567020Y-41615479D01*
X95608481Y-41553428D01*
X95639797Y-41506562D01*
X95639797Y-41506561D01*
X95646411Y-41496662D01*
X95646411Y-41496661D01*
X95646417Y-41496653D01*
X95701107Y-41364620D01*
X95714772Y-41295925D01*
X95728988Y-41224457D01*
X95728988Y-41081542D01*
X95701108Y-40941385D01*
X95701107Y-40941384D01*
X95701107Y-40941380D01*
X95646417Y-40809347D01*
X95646416Y-40809346D01*
X95646413Y-40809340D01*
X95567020Y-40690521D01*
X95567017Y-40690517D01*
X95465970Y-40589470D01*
X95465966Y-40589467D01*
X95347147Y-40510074D01*
X95347138Y-40510069D01*
X95215108Y-40455381D01*
X95215102Y-40455379D01*
X95074945Y-40427500D01*
X95074943Y-40427500D01*
X94932033Y-40427500D01*
X94928212Y-40427500D01*
X94861173Y-40407815D01*
X94815418Y-40355011D01*
X94813651Y-40350953D01*
X94796418Y-40309350D01*
X94796418Y-40309349D01*
X94796417Y-40309347D01*
X94796415Y-40309344D01*
X94796413Y-40309340D01*
X94717020Y-40190521D01*
X94717017Y-40190517D01*
X94615970Y-40089470D01*
X94615966Y-40089467D01*
X94497147Y-40010074D01*
X94497138Y-40010069D01*
X94365108Y-39955381D01*
X94365102Y-39955379D01*
X94224945Y-39927500D01*
X94224943Y-39927500D01*
X94082033Y-39927500D01*
X94082031Y-39927500D01*
X93941873Y-39955379D01*
X93941867Y-39955381D01*
X93809837Y-40010069D01*
X93809828Y-40010074D01*
X93691009Y-40089467D01*
X93691005Y-40089470D01*
X93589958Y-40190517D01*
X93589955Y-40190521D01*
X93510562Y-40309340D01*
X93510557Y-40309349D01*
X93455869Y-40441379D01*
X93455867Y-40441385D01*
X93427988Y-40581542D01*
X93427988Y-40581545D01*
X93427988Y-40724455D01*
X93427988Y-40724457D01*
X93427987Y-40724457D01*
X84053308Y-40724457D01*
X84245461Y-40518830D01*
X84248320Y-40515873D01*
X84934873Y-39829320D01*
X84937830Y-39826461D01*
X85647262Y-39163514D01*
X85650313Y-39160759D01*
X85882581Y-38957995D01*
X99242499Y-38957995D01*
X99269418Y-39093322D01*
X99269421Y-39093332D01*
X99322221Y-39220804D01*
X99322228Y-39220817D01*
X99398885Y-39335541D01*
X99398888Y-39335545D01*
X99496454Y-39433111D01*
X99496458Y-39433114D01*
X99611182Y-39509771D01*
X99611195Y-39509778D01*
X99702461Y-39547581D01*
X99738672Y-39562580D01*
X99738676Y-39562580D01*
X99738677Y-39562581D01*
X99874004Y-39589500D01*
X99874007Y-39589500D01*
X100011995Y-39589500D01*
X100106727Y-39570656D01*
X100147328Y-39562580D01*
X100274811Y-39509775D01*
X100389542Y-39433114D01*
X100487114Y-39335542D01*
X100563775Y-39220811D01*
X100598345Y-39137349D01*
X100642184Y-39082949D01*
X100708477Y-39060883D01*
X100776177Y-39078161D01*
X100823788Y-39129298D01*
X100834522Y-39160610D01*
X100844329Y-39209910D01*
X100844331Y-39209917D01*
X100900900Y-39346488D01*
X100900907Y-39346501D01*
X100983036Y-39469415D01*
X100983039Y-39469419D01*
X101087568Y-39573948D01*
X101087572Y-39573951D01*
X101210486Y-39656080D01*
X101210499Y-39656087D01*
X101347070Y-39712656D01*
X101347075Y-39712658D01*
X101347079Y-39712658D01*
X101347080Y-39712659D01*
X101492067Y-39741500D01*
X101492070Y-39741500D01*
X101639908Y-39741500D01*
X101737450Y-39722096D01*
X101784901Y-39712658D01*
X101921483Y-39656084D01*
X102044404Y-39573951D01*
X102148939Y-39469416D01*
X102231072Y-39346495D01*
X102287646Y-39209913D01*
X102297453Y-39160610D01*
X102316488Y-39064920D01*
X102316488Y-38942995D01*
X103357499Y-38942995D01*
X103384418Y-39078322D01*
X103384421Y-39078332D01*
X103437221Y-39205804D01*
X103437228Y-39205817D01*
X103513885Y-39320541D01*
X103513888Y-39320545D01*
X103611454Y-39418111D01*
X103611458Y-39418114D01*
X103726182Y-39494771D01*
X103726195Y-39494778D01*
X103853667Y-39547578D01*
X103853672Y-39547580D01*
X103853676Y-39547580D01*
X103853677Y-39547581D01*
X103989004Y-39574500D01*
X103989007Y-39574500D01*
X104126995Y-39574500D01*
X104218041Y-39556389D01*
X104262328Y-39547580D01*
X104389811Y-39494775D01*
X104504542Y-39418114D01*
X104602114Y-39320542D01*
X104678775Y-39205811D01*
X104731580Y-39078328D01*
X104754728Y-38961957D01*
X107340487Y-38961957D01*
X107368367Y-39102114D01*
X107368369Y-39102120D01*
X107423057Y-39234150D01*
X107423062Y-39234159D01*
X107502455Y-39352978D01*
X107502458Y-39352982D01*
X107603505Y-39454029D01*
X107603509Y-39454032D01*
X107722328Y-39533425D01*
X107722334Y-39533428D01*
X107722335Y-39533429D01*
X107854368Y-39588119D01*
X107854372Y-39588119D01*
X107854373Y-39588120D01*
X107994530Y-39616000D01*
X107994533Y-39616000D01*
X108137445Y-39616000D01*
X108270665Y-39589500D01*
X108277608Y-39588119D01*
X108409641Y-39533429D01*
X108528467Y-39454032D01*
X108629520Y-39352979D01*
X108708917Y-39234153D01*
X108763607Y-39102120D01*
X108791488Y-38961957D01*
X110840487Y-38961957D01*
X110868367Y-39102114D01*
X110868369Y-39102120D01*
X110923057Y-39234150D01*
X110923062Y-39234159D01*
X111002455Y-39352978D01*
X111002458Y-39352982D01*
X111103505Y-39454029D01*
X111103509Y-39454032D01*
X111222328Y-39533425D01*
X111222334Y-39533428D01*
X111222335Y-39533429D01*
X111354368Y-39588119D01*
X111354372Y-39588119D01*
X111354373Y-39588120D01*
X111494530Y-39616000D01*
X111494533Y-39616000D01*
X111637445Y-39616000D01*
X111770665Y-39589500D01*
X111777608Y-39588119D01*
X111909641Y-39533429D01*
X112028467Y-39454032D01*
X112129520Y-39352979D01*
X112208917Y-39234153D01*
X112263607Y-39102120D01*
X112291488Y-38961955D01*
X112291488Y-38819045D01*
X112291488Y-38819042D01*
X112291487Y-38819040D01*
X112286344Y-38793181D01*
X112282743Y-38775079D01*
X114815488Y-38775079D01*
X114815488Y-38922920D01*
X114844328Y-39067907D01*
X114844331Y-39067917D01*
X114900900Y-39204488D01*
X114900907Y-39204501D01*
X114983036Y-39327415D01*
X114983039Y-39327419D01*
X115087568Y-39431948D01*
X115087572Y-39431951D01*
X115210486Y-39514080D01*
X115210499Y-39514087D01*
X115327568Y-39562578D01*
X115347075Y-39570658D01*
X115347079Y-39570658D01*
X115347080Y-39570659D01*
X115492067Y-39599500D01*
X115492070Y-39599500D01*
X115639908Y-39599500D01*
X115768361Y-39573948D01*
X115784901Y-39570658D01*
X115921483Y-39514084D01*
X116044404Y-39431951D01*
X116148939Y-39327416D01*
X116231072Y-39204495D01*
X116276874Y-39093920D01*
X118255487Y-39093920D01*
X118284328Y-39238907D01*
X118284331Y-39238917D01*
X118340900Y-39375488D01*
X118340907Y-39375501D01*
X118423036Y-39498415D01*
X118423039Y-39498419D01*
X118527568Y-39602948D01*
X118527572Y-39602951D01*
X118650486Y-39685080D01*
X118650499Y-39685087D01*
X118787070Y-39741656D01*
X118787075Y-39741658D01*
X118787079Y-39741658D01*
X118787080Y-39741659D01*
X118932067Y-39770500D01*
X118932070Y-39770500D01*
X119079908Y-39770500D01*
X119177450Y-39751096D01*
X119224901Y-39741658D01*
X119361483Y-39685084D01*
X119484404Y-39602951D01*
X119588939Y-39498416D01*
X119671072Y-39375495D01*
X119727646Y-39238913D01*
X119747848Y-39137353D01*
X119756488Y-39093920D01*
X119756488Y-38946079D01*
X119727647Y-38801092D01*
X119727646Y-38801091D01*
X119727646Y-38801087D01*
X119727644Y-38801082D01*
X119671075Y-38664511D01*
X119671068Y-38664498D01*
X119588939Y-38541584D01*
X119588936Y-38541580D01*
X119484407Y-38437051D01*
X119484403Y-38437048D01*
X119361489Y-38354919D01*
X119361476Y-38354912D01*
X119224905Y-38298343D01*
X119224895Y-38298340D01*
X119079908Y-38269500D01*
X119079906Y-38269500D01*
X118932070Y-38269500D01*
X118932068Y-38269500D01*
X118787080Y-38298340D01*
X118787070Y-38298343D01*
X118650499Y-38354912D01*
X118650486Y-38354919D01*
X118527572Y-38437048D01*
X118527568Y-38437051D01*
X118423039Y-38541580D01*
X118423036Y-38541584D01*
X118340907Y-38664498D01*
X118340900Y-38664511D01*
X118284331Y-38801082D01*
X118284328Y-38801092D01*
X118255488Y-38946079D01*
X118255488Y-38946082D01*
X118255488Y-39093918D01*
X118255488Y-39093920D01*
X118255487Y-39093920D01*
X116276874Y-39093920D01*
X116287646Y-39067913D01*
X116297084Y-39020462D01*
X116316488Y-38922920D01*
X116316488Y-38775079D01*
X116287647Y-38630092D01*
X116287646Y-38630091D01*
X116287646Y-38630087D01*
X116287644Y-38630082D01*
X116231075Y-38493511D01*
X116231068Y-38493498D01*
X116148939Y-38370584D01*
X116148936Y-38370580D01*
X116044407Y-38266051D01*
X116044403Y-38266048D01*
X115921489Y-38183919D01*
X115921476Y-38183912D01*
X115784905Y-38127343D01*
X115784895Y-38127340D01*
X115639908Y-38098500D01*
X115639906Y-38098500D01*
X115492070Y-38098500D01*
X115492068Y-38098500D01*
X115347080Y-38127340D01*
X115347070Y-38127343D01*
X115210499Y-38183912D01*
X115210486Y-38183919D01*
X115087572Y-38266048D01*
X115087568Y-38266051D01*
X114983039Y-38370580D01*
X114983036Y-38370584D01*
X114900907Y-38493498D01*
X114900900Y-38493511D01*
X114844331Y-38630082D01*
X114844328Y-38630092D01*
X114815488Y-38775079D01*
X112282743Y-38775079D01*
X112263608Y-38678885D01*
X112263607Y-38678884D01*
X112263607Y-38678880D01*
X112208917Y-38546847D01*
X112208916Y-38546846D01*
X112208913Y-38546840D01*
X112129520Y-38428021D01*
X112129517Y-38428017D01*
X112028470Y-38326970D01*
X112028466Y-38326967D01*
X111909647Y-38247574D01*
X111909638Y-38247569D01*
X111777608Y-38192881D01*
X111777602Y-38192879D01*
X111637445Y-38165000D01*
X111637443Y-38165000D01*
X111494533Y-38165000D01*
X111494531Y-38165000D01*
X111354373Y-38192879D01*
X111354367Y-38192881D01*
X111222337Y-38247569D01*
X111222328Y-38247574D01*
X111103509Y-38326967D01*
X111103505Y-38326970D01*
X111002458Y-38428017D01*
X111002455Y-38428021D01*
X110923062Y-38546840D01*
X110923057Y-38546849D01*
X110868369Y-38678879D01*
X110868367Y-38678885D01*
X110840488Y-38819042D01*
X110840488Y-38819045D01*
X110840488Y-38961955D01*
X110840488Y-38961957D01*
X110840487Y-38961957D01*
X108791488Y-38961957D01*
X108791488Y-38961955D01*
X108791488Y-38819045D01*
X108791488Y-38819042D01*
X108763608Y-38678885D01*
X108763607Y-38678884D01*
X108763607Y-38678880D01*
X108708917Y-38546847D01*
X108708916Y-38546846D01*
X108708913Y-38546840D01*
X108629520Y-38428021D01*
X108629517Y-38428017D01*
X108528470Y-38326970D01*
X108528466Y-38326967D01*
X108409647Y-38247574D01*
X108409638Y-38247569D01*
X108277608Y-38192881D01*
X108277602Y-38192879D01*
X108137445Y-38165000D01*
X108137443Y-38165000D01*
X107994533Y-38165000D01*
X107994531Y-38165000D01*
X107854373Y-38192879D01*
X107854367Y-38192881D01*
X107722337Y-38247569D01*
X107722328Y-38247574D01*
X107603509Y-38326967D01*
X107603505Y-38326970D01*
X107502458Y-38428017D01*
X107502455Y-38428021D01*
X107423062Y-38546840D01*
X107423057Y-38546849D01*
X107368369Y-38678879D01*
X107368367Y-38678885D01*
X107340488Y-38819042D01*
X107340488Y-38819045D01*
X107340488Y-38961955D01*
X107340488Y-38961957D01*
X107340487Y-38961957D01*
X104754728Y-38961957D01*
X104758500Y-38942995D01*
X104758500Y-38805004D01*
X104731581Y-38669677D01*
X104731580Y-38669676D01*
X104731580Y-38669672D01*
X104717430Y-38635511D01*
X104678778Y-38542195D01*
X104678771Y-38542182D01*
X104602114Y-38427458D01*
X104602111Y-38427454D01*
X104504545Y-38329888D01*
X104504541Y-38329885D01*
X104389817Y-38253228D01*
X104389804Y-38253221D01*
X104262332Y-38200421D01*
X104262322Y-38200418D01*
X104126995Y-38173500D01*
X104126993Y-38173500D01*
X103989007Y-38173500D01*
X103989005Y-38173500D01*
X103853677Y-38200418D01*
X103853667Y-38200421D01*
X103726195Y-38253221D01*
X103726182Y-38253228D01*
X103611458Y-38329885D01*
X103611454Y-38329888D01*
X103513888Y-38427454D01*
X103513885Y-38427458D01*
X103437228Y-38542182D01*
X103437221Y-38542195D01*
X103384421Y-38669667D01*
X103384418Y-38669677D01*
X103357500Y-38805004D01*
X103357500Y-38805007D01*
X103357500Y-38942993D01*
X103357500Y-38942995D01*
X103357499Y-38942995D01*
X102316488Y-38942995D01*
X102316488Y-38917079D01*
X102297795Y-38823107D01*
X102287647Y-38772092D01*
X102287646Y-38772091D01*
X102287646Y-38772087D01*
X102266279Y-38720502D01*
X102231075Y-38635511D01*
X102231068Y-38635498D01*
X102148939Y-38512584D01*
X102148936Y-38512580D01*
X102044407Y-38408051D01*
X102044403Y-38408048D01*
X101921489Y-38325919D01*
X101921476Y-38325912D01*
X101784905Y-38269343D01*
X101784895Y-38269340D01*
X101639908Y-38240500D01*
X101639906Y-38240500D01*
X101492070Y-38240500D01*
X101492068Y-38240500D01*
X101347080Y-38269340D01*
X101347070Y-38269343D01*
X101210499Y-38325912D01*
X101210486Y-38325919D01*
X101087572Y-38408048D01*
X101087568Y-38408051D01*
X100983039Y-38512580D01*
X100983036Y-38512584D01*
X100900907Y-38635498D01*
X100900902Y-38635507D01*
X100858645Y-38737527D01*
X100814804Y-38791930D01*
X100748510Y-38813995D01*
X100680811Y-38796716D01*
X100633200Y-38745579D01*
X100622467Y-38714265D01*
X100616581Y-38684679D01*
X100616581Y-38684677D01*
X100616580Y-38684672D01*
X100614181Y-38678880D01*
X100563778Y-38557195D01*
X100563771Y-38557182D01*
X100487114Y-38442458D01*
X100487111Y-38442454D01*
X100389545Y-38344888D01*
X100389541Y-38344885D01*
X100274817Y-38268228D01*
X100274804Y-38268221D01*
X100147332Y-38215421D01*
X100147322Y-38215418D01*
X100011995Y-38188500D01*
X100011993Y-38188500D01*
X99874007Y-38188500D01*
X99874005Y-38188500D01*
X99738677Y-38215418D01*
X99738667Y-38215421D01*
X99611195Y-38268221D01*
X99611182Y-38268228D01*
X99496458Y-38344885D01*
X99496454Y-38344888D01*
X99398888Y-38442454D01*
X99398885Y-38442458D01*
X99322228Y-38557182D01*
X99322221Y-38557195D01*
X99269421Y-38684667D01*
X99269418Y-38684677D01*
X99242500Y-38820004D01*
X99242500Y-38820007D01*
X99242500Y-38957993D01*
X99242500Y-38957995D01*
X99242499Y-38957995D01*
X85882581Y-38957995D01*
X86381758Y-38522227D01*
X86384897Y-38519579D01*
X87137541Y-37906171D01*
X87140781Y-37903621D01*
X87354820Y-37740920D01*
X96400499Y-37740920D01*
X96429340Y-37885907D01*
X96429343Y-37885917D01*
X96485912Y-38022488D01*
X96485919Y-38022501D01*
X96568048Y-38145415D01*
X96568051Y-38145419D01*
X96672580Y-38249948D01*
X96672584Y-38249951D01*
X96795498Y-38332080D01*
X96795511Y-38332087D01*
X96888452Y-38370584D01*
X96932087Y-38388658D01*
X96932091Y-38388658D01*
X96932092Y-38388659D01*
X97077079Y-38417500D01*
X97077082Y-38417500D01*
X97224920Y-38417500D01*
X97322462Y-38398096D01*
X97369913Y-38388658D01*
X97506495Y-38332084D01*
X97629416Y-38249951D01*
X97733951Y-38145416D01*
X97816084Y-38022495D01*
X97872658Y-37885913D01*
X97901500Y-37740918D01*
X97901500Y-37593082D01*
X97901500Y-37593079D01*
X97872659Y-37448092D01*
X97872658Y-37448091D01*
X97872658Y-37448087D01*
X97817981Y-37316084D01*
X97816087Y-37311511D01*
X97816080Y-37311498D01*
X97733951Y-37188584D01*
X97733948Y-37188580D01*
X97629419Y-37084051D01*
X97629415Y-37084048D01*
X97506501Y-37001919D01*
X97506488Y-37001912D01*
X97369917Y-36945343D01*
X97369907Y-36945340D01*
X97224920Y-36916500D01*
X97224918Y-36916500D01*
X97077082Y-36916500D01*
X97077080Y-36916500D01*
X96932092Y-36945340D01*
X96932082Y-36945343D01*
X96795511Y-37001912D01*
X96795498Y-37001919D01*
X96672584Y-37084048D01*
X96672580Y-37084051D01*
X96568051Y-37188580D01*
X96568048Y-37188584D01*
X96485919Y-37311498D01*
X96485912Y-37311511D01*
X96429343Y-37448082D01*
X96429340Y-37448092D01*
X96400500Y-37593079D01*
X96400500Y-37593082D01*
X96400500Y-37740918D01*
X96400500Y-37740920D01*
X96400499Y-37740920D01*
X87354820Y-37740920D01*
X87913740Y-37316059D01*
X87917057Y-37313624D01*
X88709508Y-36752533D01*
X88712882Y-36750229D01*
X89523876Y-36216284D01*
X89527375Y-36214066D01*
X90282639Y-35752682D01*
X90347282Y-35734500D01*
X101366700Y-35734500D01*
X101433739Y-35754185D01*
G37*
%TD.AperFunction*%
%TD*%
M02*
