%TF.GenerationSoftware,KiCad,Pcbnew,9.0.6*%
%TF.CreationDate,2026-03-02T09:31:00+01:00*%
%TF.ProjectId,cansat-camera-pcb,63616e73-6174-42d6-9361-6d6572612d70,1.1*%
%TF.SameCoordinates,Original*%
%TF.FileFunction,Copper,L6,Inr*%
%TF.FilePolarity,Positive*%
%FSLAX46Y46*%
G04 Gerber Fmt 4.6, Leading zero omitted, Abs format (unit mm)*
G04 Created by KiCad (PCBNEW 9.0.6) date 2026-03-02 09:31:00*
%MOMM*%
%LPD*%
G01*
G04 APERTURE LIST*
%TA.AperFunction,ViaPad*%
%ADD10C,0.400000*%
%TD*%
%TA.AperFunction,ViaPad*%
%ADD11C,0.800000*%
%TD*%
%TA.AperFunction,ViaPad*%
%ADD12C,0.500000*%
%TD*%
%TA.AperFunction,ViaPad*%
%ADD13C,1.000000*%
%TD*%
%TA.AperFunction,ViaPad*%
%ADD14C,0.600000*%
%TD*%
%TA.AperFunction,ViaPad*%
%ADD15C,0.450000*%
%TD*%
%TA.AperFunction,ViaPad*%
%ADD16C,0.750000*%
%TD*%
%TA.AperFunction,Conductor*%
%ADD17C,0.200000*%
%TD*%
%TA.AperFunction,Conductor*%
%ADD18C,0.110000*%
%TD*%
%TA.AperFunction,Conductor*%
%ADD19C,0.118400*%
%TD*%
G04 APERTURE END LIST*
D10*
%TO.N,GND*%
X107615988Y-46803000D03*
D11*
X123313500Y-78446000D03*
D12*
X97151000Y-36707000D03*
D13*
X86343000Y-67534000D03*
D12*
X91666000Y-53603000D03*
D14*
X113703000Y-51739000D03*
D12*
X92626000Y-48203000D03*
D11*
X89327999Y-61539000D03*
D12*
X106898000Y-73034000D03*
D11*
X119812000Y-72606000D03*
D12*
X118678488Y-46653000D03*
D10*
X110015988Y-50003000D03*
D11*
X103733000Y-82204000D03*
D14*
X83906000Y-49945000D03*
D11*
X89327999Y-53539000D03*
D12*
X92830988Y-42153000D03*
X98335988Y-60593000D03*
D11*
X97503000Y-76704000D03*
X111538000Y-82184000D03*
X93678300Y-73876500D03*
D14*
X124088500Y-74388500D03*
D13*
X86343000Y-59534000D03*
D12*
X105295988Y-36213000D03*
D13*
X82673000Y-67534000D03*
D12*
X119005988Y-39980000D03*
X93668000Y-57251000D03*
D14*
X120587000Y-74388500D03*
D12*
X94625988Y-46923000D03*
X107988000Y-73024000D03*
X120262000Y-39089000D03*
D14*
X104853000Y-41524000D03*
D12*
X119005988Y-52383000D03*
D14*
X126088000Y-45219000D03*
D10*
X103618000Y-51604000D03*
D12*
X112368000Y-46424000D03*
D11*
X94153000Y-82716500D03*
D13*
X82673000Y-59534000D03*
D12*
X98560000Y-36460000D03*
D13*
X127233000Y-63534000D03*
D11*
X103733000Y-83774000D03*
D12*
X88280000Y-48985000D03*
X109835988Y-60593000D03*
D11*
X117693000Y-82854000D03*
X112403000Y-76704000D03*
D12*
X100318000Y-48409000D03*
X101128000Y-82034000D03*
D10*
X108418000Y-50004000D03*
D12*
X94628000Y-59211000D03*
D13*
X123063000Y-65534000D03*
D14*
X111903000Y-67889000D03*
D11*
X117218000Y-74014000D03*
D13*
X86343000Y-69534000D03*
X123063000Y-63534000D03*
D12*
X104835988Y-60593000D03*
D11*
X108408000Y-82194000D03*
D12*
X94628000Y-54624000D03*
X115239000Y-62369000D03*
D11*
X108398000Y-83794000D03*
D12*
X100026000Y-36213000D03*
X116488000Y-60103000D03*
D11*
X119812000Y-78446000D03*
D12*
X110295988Y-36213000D03*
D11*
X111528000Y-83784000D03*
X123313500Y-72606000D03*
D13*
X86343000Y-57534000D03*
D12*
X101248000Y-50394000D03*
D13*
X127233000Y-65534000D03*
D10*
X110015988Y-51603000D03*
X106815988Y-50003000D03*
D13*
X82673000Y-69534000D03*
D10*
X109218000Y-46814000D03*
D12*
X101248000Y-46424000D03*
X112353000Y-43609000D03*
%TO.N,/RST*%
X97600000Y-51317000D03*
D10*
X88280000Y-49945000D03*
D12*
%TO.N,+3.3V*%
X94380988Y-42153000D03*
X94625988Y-47883000D03*
X104335988Y-36213000D03*
X97151000Y-37667000D03*
X105795988Y-60593000D03*
X119005988Y-51423000D03*
X119005988Y-39020000D03*
X116278488Y-46153000D03*
X93638000Y-56271000D03*
D11*
X89327999Y-59539000D03*
D12*
X116488000Y-59143000D03*
X110795988Y-60593000D03*
X94625988Y-53723000D03*
D11*
X121362000Y-78446000D03*
D12*
X109335988Y-36213000D03*
X99295988Y-60593000D03*
D11*
%TO.N,VCC*%
X89327999Y-67539000D03*
X125153000Y-67514000D03*
D12*
%TO.N,/SWCLK*%
X115565988Y-38849000D03*
%TO.N,/SWDIO*%
X116360000Y-41153000D03*
%TO.N,/LTE_reset*%
X127233000Y-58534000D03*
X116199000Y-56653000D03*
D14*
X127233000Y-61534000D03*
D12*
X121778000Y-56639000D03*
%TO.N,/LTE_pwrkey*%
X121703000Y-58464000D03*
D14*
X123063000Y-61534000D03*
D12*
X117478488Y-57649000D03*
X123063000Y-58534000D03*
D15*
%TO.N,/DCMI_VSYNC*%
X108065988Y-38890500D03*
D14*
%TO.N,/DCMI_D7*%
X104662100Y-69339000D03*
D15*
X97303488Y-41653000D03*
%TO.N,/DCMI_D4*%
X94153488Y-40653000D03*
%TO.N,/DCMI_D6*%
X95003488Y-41153000D03*
%TO.N,/DCMI_D0*%
X118628488Y-45653000D03*
X121123657Y-45643343D03*
%TO.N,/DCMI_D5*%
X111565988Y-38890500D03*
D14*
X107128000Y-68539000D03*
D10*
%TO.N,/FMC_SDCKE0*%
X97358000Y-53734000D03*
%TO.N,/FMC_A3*%
X92853000Y-45700000D03*
X103615988Y-46803000D03*
%TO.N,/FMC_A9*%
X106953000Y-61739000D03*
X105215988Y-50003000D03*
%TO.N,/FMC_D10*%
X111940500Y-62401500D03*
%TO.N,/FMC_D1*%
X114154274Y-46090274D03*
%TO.N,/FMC_A6*%
X104553000Y-57869000D03*
X104415988Y-50003000D03*
%TO.N,/FMC_D6*%
X109553000Y-57789000D03*
%TO.N,/FMC_D12*%
X115153000Y-56389000D03*
%TO.N,/FMC_A8*%
X104415988Y-51603000D03*
X104378000Y-55264000D03*
%TO.N,/FMC_NBL1*%
X106015988Y-51603000D03*
%TO.N,/FMC_D0*%
X116228000Y-51089000D03*
%TO.N,/FMC_SDNRAS*%
X104008000Y-57934000D03*
X106015988Y-46003000D03*
%TO.N,/FMC_D2*%
X109954274Y-42437726D03*
%TO.N,/FMC_D11*%
X113028000Y-60214000D03*
%TO.N,/FMC_SDNE0*%
X97358000Y-53174000D03*
X105215988Y-45203000D03*
%TO.N,/FMC_A1*%
X92828000Y-44639000D03*
X104415988Y-46003000D03*
%TO.N,/FMC_SDNWE*%
X97358000Y-52154000D03*
X106015988Y-45203000D03*
%TO.N,/FMC_D3*%
X108403001Y-42374000D03*
%TO.N,/FMC_A4*%
X103615988Y-50003000D03*
X92916743Y-46195923D03*
%TO.N,/FMC_A10*%
X104415988Y-45203000D03*
%TO.N,/FMC_A11*%
X105215988Y-50803000D03*
X108128000Y-62039000D03*
%TO.N,/FMC_D15*%
X113065500Y-51976500D03*
%TO.N,/FMC_D8*%
X111578000Y-61289000D03*
%TO.N,/FMC_SDNCAS*%
X107167153Y-43396798D03*
X106015988Y-46803000D03*
%TO.N,/FMC_A5*%
X103615988Y-50803000D03*
X93255501Y-46716501D03*
%TO.N,/FMC_D14*%
X112940500Y-52826500D03*
%TO.N,/FMC_D13*%
X118678000Y-55154000D03*
%TO.N,/FMC_A7*%
X106453385Y-61758674D03*
X104415988Y-50803000D03*
%TO.N,/FMC_A0*%
X104415988Y-46803000D03*
X97403000Y-44139000D03*
%TO.N,/FMC_D5*%
X108253000Y-56839000D03*
%TO.N,/FMC_D4*%
X106353000Y-55109000D03*
%TO.N,/FMC_NBL0*%
X106815988Y-46003000D03*
%TO.N,/FMC_D7*%
X110554274Y-54465274D03*
%TO.N,/FMC_A2*%
X103615988Y-46003000D03*
X92853000Y-45164000D03*
%TO.N,/FMC_SDCLK*%
X116308000Y-47254000D03*
D14*
%TO.N,/CAM_SCL*%
X108678000Y-77339000D03*
D12*
X113107000Y-63649000D03*
%TO.N,/CAM_SDA*%
X114138000Y-63649000D03*
D14*
X109703000Y-76514000D03*
D10*
%TO.N,/FMC_A12*%
X105215988Y-51603000D03*
X116303000Y-50164000D03*
%TO.N,/FMC_D9*%
X111748000Y-57934000D03*
%TO.N,/FMC_BS1*%
X116378000Y-48639000D03*
X105215988Y-46003000D03*
%TO.N,/FMC_BS0*%
X105215988Y-46803000D03*
X116325657Y-49136255D03*
D12*
%TO.N,+3.3VA*%
X112378000Y-47384000D03*
X112087000Y-63649000D03*
D14*
X113698000Y-49139000D03*
D11*
X115668000Y-74014000D03*
D14*
X103453000Y-41489000D03*
X117868000Y-78846500D03*
D11*
X105298000Y-83794000D03*
D16*
X110078000Y-65589000D03*
D11*
X124863500Y-78446000D03*
D12*
X112353000Y-44569000D03*
X101278000Y-48409000D03*
D14*
X94328000Y-78709000D03*
D10*
X105718000Y-78324000D03*
D11*
X97918000Y-82784000D03*
D12*
X101248000Y-47384000D03*
D11*
X92128300Y-73876500D03*
D12*
X115158000Y-63649000D03*
D10*
X105808000Y-73984000D03*
D12*
%TO.N,/I2C1_SDA*%
X101565988Y-38991000D03*
D14*
X82673000Y-51534000D03*
D12*
%TO.N,/I2C1_SCL*%
X102065988Y-36386000D03*
D14*
X82673000Y-53534000D03*
D12*
%TO.N,/DCMI_HSYNC*%
X99565988Y-57915500D03*
D14*
X106153000Y-65339000D03*
%TO.N,/USART2_TX*%
X96078000Y-57989000D03*
X89253000Y-63539000D03*
%TO.N,/USART2_RX*%
X89228000Y-65564000D03*
X97428000Y-59264000D03*
D10*
%TO.N,/camera/reset*%
X108198000Y-78324000D03*
%TO.N,/camera/pwdnb*%
X107968000Y-74024000D03*
D11*
%TO.N,CAMERA_2.8V*%
X109958000Y-83824000D03*
X116143000Y-82854000D03*
D16*
%TO.N,Net-(JP2-A)*%
X111928000Y-65589000D03*
D10*
%TO.N,Net-(J2-D9)*%
X105128000Y-78324000D03*
D14*
%TO.N,Net-(J2-PCLK)*%
X100553000Y-62039000D03*
D10*
%TO.N,Net-(J2-D7)*%
X103238000Y-78324000D03*
%TO.N,Net-(J2-D4)*%
X100103000Y-80504000D03*
%TO.N,Net-(J2-D5)*%
X101228000Y-80504000D03*
%TO.N,Net-(J2-D2)*%
X101718000Y-80863100D03*
%TO.N,Net-(J2-D3)*%
X100703000Y-78339000D03*
D14*
%TO.N,Net-(J2-HSYNC)*%
X106153000Y-67989000D03*
%TO.N,Net-(JP2-B)*%
X120278000Y-43714000D03*
D10*
%TO.N,Net-(IC1-DQ5)*%
X107615988Y-45203000D03*
X107801726Y-56387726D03*
%TO.N,Net-(IC1-DQ4)*%
X106353000Y-54469000D03*
X106459988Y-48914000D03*
%TO.N,Net-(IC1-DQ0)*%
X110015988Y-46003000D03*
X115588000Y-51089000D03*
%TO.N,Net-(IC1-DQ6)*%
X107615988Y-46003000D03*
X109553000Y-57144000D03*
%TO.N,Net-(IC1-DQ7)*%
X106815988Y-45203000D03*
X110115500Y-54026500D03*
%TD*%
D17*
%TO.N,/RST*%
X97600000Y-51317000D02*
X96197000Y-49914000D01*
X88249000Y-49914000D02*
X88280000Y-49945000D01*
X96197000Y-49914000D02*
X88249000Y-49914000D01*
D18*
%TO.N,/FMC_A3*%
X97084000Y-45700000D02*
X99274000Y-47890000D01*
X92853000Y-45700000D02*
X97084000Y-45700000D01*
X102528988Y-47890000D02*
X103615988Y-46803000D01*
X99274000Y-47890000D02*
X102528988Y-47890000D01*
%TO.N,/FMC_A9*%
X104859988Y-55845988D02*
X104859988Y-50359000D01*
X106953000Y-57939000D02*
X104859988Y-55845988D01*
X104859988Y-50359000D02*
X105215988Y-50003000D01*
X106953000Y-61739000D02*
X106953000Y-57939000D01*
%TO.N,/FMC_A6*%
X103262000Y-56548000D02*
X104558000Y-57844000D01*
X104558000Y-57844000D02*
X104553000Y-57849000D01*
X102990000Y-52460405D02*
X102614000Y-52460405D01*
X102614000Y-53140405D02*
X103372000Y-53140405D01*
X103482000Y-53250405D02*
X103482000Y-53710405D01*
X102342000Y-52732405D02*
X102342000Y-52868405D01*
X103482000Y-54610405D02*
X103482000Y-55070405D01*
X102342000Y-55452405D02*
X102342000Y-55588405D01*
X103470539Y-51248000D02*
X103262000Y-51456539D01*
X104553000Y-57849000D02*
X104553000Y-57869000D01*
X102342000Y-54092405D02*
X102342000Y-54228405D01*
X103262000Y-51456539D02*
X103262000Y-52188405D01*
X102614000Y-54500405D02*
X103372000Y-54500405D01*
X104415988Y-50003000D02*
X103978000Y-50440988D01*
X103674449Y-51248000D02*
X103470539Y-51248000D01*
X102614000Y-53820405D02*
X103372000Y-53820405D01*
X102614000Y-55180405D02*
X103372000Y-55180405D01*
X103978000Y-50944449D02*
X103674449Y-51248000D01*
X103262000Y-56132405D02*
X103262000Y-56548000D01*
X103978000Y-50440988D02*
X103978000Y-50944449D01*
X102614000Y-55860405D02*
X102990000Y-55860405D01*
X103482000Y-55070405D02*
G75*
G02*
X103372000Y-55180400I-110000J5D01*
G01*
X102342000Y-54228405D02*
G75*
G03*
X102614000Y-54500400I272000J5D01*
G01*
X102990000Y-55860405D02*
G75*
G02*
X103261995Y-56132405I0J-271995D01*
G01*
X103372000Y-53140405D02*
G75*
G02*
X103481995Y-53250405I0J-109995D01*
G01*
X103262000Y-52188405D02*
G75*
G02*
X102990000Y-52460400I-272000J5D01*
G01*
X102342000Y-55588405D02*
G75*
G03*
X102614000Y-55860400I272000J5D01*
G01*
X103482000Y-53710405D02*
G75*
G02*
X103372000Y-53820400I-110000J5D01*
G01*
X102614000Y-55180405D02*
G75*
G03*
X102342005Y-55452405I0J-271995D01*
G01*
X102614000Y-53820405D02*
G75*
G03*
X102342005Y-54092405I0J-271995D01*
G01*
X102614000Y-52460405D02*
G75*
G03*
X102342005Y-52732405I0J-271995D01*
G01*
X103372000Y-54500405D02*
G75*
G02*
X103481995Y-54610405I0J-109995D01*
G01*
X102342000Y-52868405D02*
G75*
G03*
X102614000Y-53140400I272000J5D01*
G01*
%TO.N,/FMC_A8*%
X104378000Y-55264000D02*
X104378000Y-51552988D01*
%TO.N,/FMC_A1*%
X92828000Y-44639000D02*
X97253000Y-44639000D01*
X98208000Y-45594000D02*
X104006988Y-45594000D01*
X104006988Y-45594000D02*
X104415988Y-46003000D01*
X97253000Y-44639000D02*
X98208000Y-45594000D01*
%TO.N,/FMC_A4*%
X92971083Y-46195923D02*
X92978003Y-46189003D01*
X92916743Y-46195923D02*
X92971083Y-46195923D01*
X100778000Y-49964000D02*
X103576988Y-49964000D01*
X103576988Y-49964000D02*
X103615988Y-50003000D01*
X97003003Y-46189003D02*
X100778000Y-49964000D01*
X92978003Y-46189003D02*
X97003003Y-46189003D01*
%TO.N,/FMC_A11*%
X105578000Y-51165012D02*
X105215988Y-50803000D01*
X108128000Y-57887994D02*
X105578000Y-55337994D01*
X108128000Y-62039000D02*
X108128000Y-57887994D01*
X105578000Y-55337994D02*
X105578000Y-51165012D01*
%TO.N,/FMC_A5*%
X97348000Y-47464000D02*
X100698000Y-50814000D01*
X93455003Y-46517000D02*
X96701000Y-46517000D01*
X93255501Y-46716501D02*
X93455003Y-46517000D01*
X100698000Y-50814000D02*
X103604988Y-50814000D01*
X103604988Y-50814000D02*
X103615988Y-50803000D01*
X97348000Y-47164000D02*
X97348000Y-47464000D01*
X96701000Y-46517000D02*
X97348000Y-47164000D01*
%TO.N,/FMC_A7*%
X105741994Y-57877994D02*
X103728000Y-55864000D01*
X104415988Y-51076012D02*
X104415988Y-50803000D01*
X106453385Y-61758674D02*
X106517424Y-61758674D01*
X103974000Y-51751461D02*
X103974000Y-51518000D01*
X103728000Y-55864000D02*
X103728000Y-51997461D01*
X103728000Y-51997461D02*
X103974000Y-51751461D01*
X106584942Y-60725942D02*
X105741994Y-59882994D01*
X106584942Y-61691156D02*
X106584942Y-60725942D01*
X105741994Y-59882994D02*
X105741994Y-57877994D01*
X106517424Y-61758674D02*
X106584942Y-61691156D01*
X103974000Y-51518000D02*
X104415988Y-51076012D01*
%TO.N,/FMC_A0*%
X98808688Y-45357000D02*
X98938688Y-45357000D01*
X101753688Y-45102000D02*
X101753688Y-44592000D01*
X99833688Y-44592000D02*
X99833688Y-45102000D01*
X104771988Y-46447000D02*
X104415988Y-46803000D01*
X102648688Y-44847000D02*
X104563449Y-44847000D01*
X97403000Y-44139000D02*
X97398000Y-44134000D01*
X100088688Y-45357000D02*
X100218688Y-45357000D01*
X99193688Y-45102000D02*
X99193688Y-44592000D01*
X98111000Y-44847000D02*
X98298688Y-44847000D01*
X100728688Y-44337000D02*
X100858688Y-44337000D01*
X104771988Y-45055539D02*
X104771988Y-46447000D01*
X101113688Y-44592000D02*
X101113688Y-45102000D01*
X97398000Y-44134000D02*
X98111000Y-44847000D01*
X99448688Y-44337000D02*
X99578688Y-44337000D01*
X101368688Y-45357000D02*
X101498688Y-45357000D01*
X104563449Y-44847000D02*
X104771988Y-45055539D01*
X100473688Y-45102000D02*
X100473688Y-44592000D01*
X102008688Y-44337000D02*
X102138688Y-44337000D01*
X99833688Y-45102000D02*
G75*
G03*
X100088688Y-45357012I255012J0D01*
G01*
X98553688Y-45102000D02*
G75*
G03*
X98808688Y-45357012I255012J0D01*
G01*
X100218688Y-45357000D02*
G75*
G03*
X100473700Y-45102000I12J255000D01*
G01*
X101498688Y-45357000D02*
G75*
G03*
X101753700Y-45102000I12J255000D01*
G01*
X101113688Y-45102000D02*
G75*
G03*
X101368688Y-45357012I255012J0D01*
G01*
X100473688Y-44592000D02*
G75*
G02*
X100728688Y-44336988I255012J0D01*
G01*
X98938688Y-45357000D02*
G75*
G03*
X99193700Y-45102000I12J255000D01*
G01*
X99578688Y-44337000D02*
G75*
G02*
X99833700Y-44592000I12J-255000D01*
G01*
X101753688Y-44592000D02*
G75*
G02*
X102008688Y-44336988I255012J0D01*
G01*
X98298688Y-44847000D02*
G75*
G02*
X98553700Y-45102000I12J-255000D01*
G01*
X102138688Y-44337000D02*
G75*
G02*
X102393700Y-44592000I12J-255000D01*
G01*
X99193688Y-44592000D02*
G75*
G02*
X99448688Y-44336988I255012J0D01*
G01*
X100858688Y-44337000D02*
G75*
G02*
X101113700Y-44592000I12J-255000D01*
G01*
X102393688Y-44592000D02*
G75*
G03*
X102648688Y-44847012I255012J0D01*
G01*
%TO.N,/FMC_A2*%
X95086171Y-44914000D02*
X94736171Y-44914000D01*
X95211171Y-45289000D02*
X95211171Y-45039000D01*
X97928000Y-45894000D02*
X97198000Y-45164000D01*
X95811171Y-45039000D02*
X95811171Y-45164000D01*
X96286171Y-44914000D02*
X95936171Y-44914000D01*
X95686171Y-45414000D02*
X95336171Y-45414000D01*
X103615988Y-46003000D02*
X103506988Y-45894000D01*
X95811171Y-45164000D02*
X95811171Y-45289000D01*
X97198000Y-45164000D02*
X96536171Y-45164000D01*
X103506988Y-45894000D02*
X97928000Y-45894000D01*
X92853000Y-45164000D02*
X94486171Y-45164000D01*
X94611171Y-45039000D02*
G75*
G02*
X94486171Y-45163971I-124971J0D01*
G01*
X96411171Y-45039000D02*
G75*
G03*
X96286171Y-44914029I-124971J0D01*
G01*
X95336171Y-45414000D02*
G75*
G02*
X95211200Y-45289000I29J125000D01*
G01*
X95936171Y-44914000D02*
G75*
G03*
X95811200Y-45039000I29J-125000D01*
G01*
X95211171Y-45039000D02*
G75*
G03*
X95086171Y-44914029I-124971J0D01*
G01*
X96536171Y-45164000D02*
G75*
G02*
X96411200Y-45039000I29J125000D01*
G01*
X94736171Y-44914000D02*
G75*
G03*
X94611200Y-45039000I29J-125000D01*
G01*
X95811171Y-45289000D02*
G75*
G02*
X95686171Y-45413971I-124971J0D01*
G01*
D19*
%TO.N,/CAM_SCL*%
X108678000Y-76589000D02*
X113107000Y-72160000D01*
X108678000Y-77339000D02*
X108678000Y-76589000D01*
X113107000Y-72160000D02*
X113107000Y-63649000D01*
%TO.N,/CAM_SDA*%
X114138000Y-63649000D02*
X114138000Y-72079000D01*
X114138000Y-72079000D02*
X109703000Y-76514000D01*
D18*
%TO.N,/FMC_BS1*%
X113093250Y-47544000D02*
X113093250Y-47794000D01*
X114653250Y-47304000D02*
X114533250Y-47304000D01*
X109421000Y-46447000D02*
X105659988Y-46447000D01*
X113693250Y-47794000D02*
X113693250Y-47544000D01*
X111008000Y-48034000D02*
X109421000Y-46447000D01*
X114053250Y-48034000D02*
X113933250Y-48034000D01*
X114893250Y-47794000D02*
X114893250Y-47544000D01*
X114293250Y-47544000D02*
X114293250Y-47794000D01*
X111008000Y-48034000D02*
X112853250Y-48034000D01*
X105659988Y-46447000D02*
X105215988Y-46003000D01*
X113453250Y-47304000D02*
X113333250Y-47304000D01*
X115773000Y-48034000D02*
X115133250Y-48034000D01*
X116378000Y-48639000D02*
X115773000Y-48034000D01*
X113093250Y-47794000D02*
G75*
G02*
X112853250Y-48033950I-239950J0D01*
G01*
X113933250Y-48034000D02*
G75*
G02*
X113693200Y-47794000I-50J240000D01*
G01*
X113333250Y-47304000D02*
G75*
G03*
X113093200Y-47544000I-50J-240000D01*
G01*
X113693250Y-47544000D02*
G75*
G03*
X113453250Y-47304050I-239950J0D01*
G01*
X114293250Y-47794000D02*
G75*
G02*
X114053250Y-48033950I-239950J0D01*
G01*
X115133250Y-48034000D02*
G75*
G02*
X114893200Y-47794000I-50J240000D01*
G01*
X114533250Y-47304000D02*
G75*
G03*
X114293200Y-47544000I-50J-240000D01*
G01*
X114893250Y-47544000D02*
G75*
G03*
X114653250Y-47304050I-239950J0D01*
G01*
%TO.N,/FMC_BS0*%
X110934589Y-48400589D02*
X111286143Y-48400589D01*
X112726143Y-48800589D02*
X112726143Y-48640589D01*
X113326143Y-48640589D02*
X113326143Y-48800589D01*
X110934589Y-48400589D02*
X109718000Y-47184000D01*
X112126143Y-48640589D02*
X112126143Y-49050589D01*
X115594589Y-48400589D02*
X113566143Y-48400589D01*
X116325657Y-49136255D02*
X115594589Y-48405187D01*
X112486143Y-48400589D02*
X112366143Y-48400589D01*
X105596988Y-47184000D02*
X105215988Y-46803000D01*
X113086143Y-49040589D02*
X112966143Y-49040589D01*
X115594589Y-48405187D02*
X115594589Y-48400589D01*
X111886143Y-49290589D02*
X111766143Y-49290589D01*
X111526143Y-49050589D02*
X111526143Y-48640589D01*
X109718000Y-47184000D02*
X105596988Y-47184000D01*
X112726143Y-48640589D02*
G75*
G03*
X112486143Y-48400557I-240043J-11D01*
G01*
X112966143Y-49040589D02*
G75*
G02*
X112726111Y-48800589I-43J239989D01*
G01*
X111526143Y-48640589D02*
G75*
G03*
X111286143Y-48400557I-240043J-11D01*
G01*
X113326143Y-48800589D02*
G75*
G02*
X113086143Y-49040643I-240043J-11D01*
G01*
X113566143Y-48400589D02*
G75*
G03*
X113326089Y-48640589I-43J-240011D01*
G01*
X112126143Y-49050589D02*
G75*
G02*
X111886143Y-49290643I-240043J-11D01*
G01*
X111766143Y-49290589D02*
G75*
G02*
X111526111Y-49050589I-43J239989D01*
G01*
X112366143Y-48400589D02*
G75*
G03*
X112126089Y-48640589I-43J-240011D01*
G01*
D17*
%TO.N,/I2C1_SDA*%
X88501000Y-39541000D02*
X82673000Y-45369000D01*
X101015988Y-39541000D02*
X88501000Y-39541000D01*
X101565988Y-38991000D02*
X101015988Y-39541000D01*
X82673000Y-45369000D02*
X82673000Y-51534000D01*
%TO.N,/I2C1_SCL*%
X81694000Y-45751000D02*
X81694000Y-52555000D01*
X102065988Y-36386000D02*
X102078000Y-36398012D01*
X102078000Y-36398012D02*
X102078000Y-36889000D01*
X99848000Y-39119000D02*
X88326000Y-39119000D01*
X88326000Y-39119000D02*
X81694000Y-45751000D01*
X102078000Y-36889000D02*
X99848000Y-39119000D01*
X81694000Y-52555000D02*
X82673000Y-53534000D01*
%TO.N,/USART2_TX*%
X96078000Y-58398811D02*
X96078000Y-57989000D01*
X90937811Y-63539000D02*
X96078000Y-58398811D01*
X89253000Y-63539000D02*
X90937811Y-63539000D01*
%TO.N,/USART2_RX*%
X89228000Y-65564000D02*
X91128000Y-65564000D01*
X91128000Y-65564000D02*
X97428000Y-59264000D01*
%TD*%
M02*
