%TF.GenerationSoftware,KiCad,Pcbnew,9.0.6*%
%TF.CreationDate,2026-01-26T21:26:12+01:00*%
%TF.ProjectId,cansat-camera-pcb,63616e73-6174-42d6-9361-6d6572612d70,1.1*%
%TF.SameCoordinates,Original*%
%TF.FileFunction,Legend,Top*%
%TF.FilePolarity,Positive*%
%FSLAX46Y46*%
G04 Gerber Fmt 4.6, Leading zero omitted, Abs format (unit mm)*
G04 Created by KiCad (PCBNEW 9.0.6) date 2026-01-26 21:26:12*
%MOMM*%
%LPD*%
G01*
G04 APERTURE LIST*
%ADD10C,0.280000*%
%ADD11C,0.017999*%
%ADD12C,0.150000*%
%ADD13C,0.100000*%
%ADD14C,0.200000*%
%ADD15C,0.120000*%
G04 APERTURE END LIST*
D10*
X105706175Y-66813585D02*
X105706175Y-68473056D01*
X105192532Y-68473056D01*
X105192532Y-66072753D01*
X105706175Y-66813585D01*
G36*
X105706175Y-66813585D02*
G01*
X105706175Y-68473056D01*
X105192532Y-68473056D01*
X105192532Y-66072753D01*
X105706175Y-66813585D01*
G37*
X100421568Y-65425757D02*
X99883230Y-65425757D01*
X99883230Y-65025705D01*
X100421568Y-65025705D01*
X100421568Y-65425757D01*
G36*
X100421568Y-65425757D02*
G01*
X99883230Y-65425757D01*
X99883230Y-65025705D01*
X100421568Y-65025705D01*
X100421568Y-65425757D01*
G37*
D11*
X86444675Y-41314000D02*
X87174562Y-41622337D01*
X86444675Y-41930674D01*
X86136338Y-42660562D01*
X85828000Y-41930674D01*
X85098113Y-41622337D01*
X85828000Y-41314000D01*
X86136338Y-40584112D01*
X86444675Y-41314000D01*
G36*
X86444675Y-41314000D02*
G01*
X87174562Y-41622337D01*
X86444675Y-41930674D01*
X86136338Y-42660562D01*
X85828000Y-41930674D01*
X85098113Y-41622337D01*
X85828000Y-41314000D01*
X86136338Y-40584112D01*
X86444675Y-41314000D01*
G37*
D10*
X114976476Y-68473056D02*
X114359114Y-68473056D01*
X113287373Y-65455391D01*
X113257739Y-65455391D01*
X112255147Y-68473056D01*
X111677296Y-68473056D01*
X112892262Y-65025710D01*
X113652852Y-65025710D01*
X114976476Y-68473056D01*
G36*
X114976476Y-68473056D02*
G01*
X114359114Y-68473056D01*
X113287373Y-65455391D01*
X113257739Y-65455391D01*
X112255147Y-68473056D01*
X111677296Y-68473056D01*
X112892262Y-65025710D01*
X113652852Y-65025710D01*
X114976476Y-68473056D01*
G37*
X110198739Y-64983474D02*
X110326239Y-64997667D01*
X110449166Y-65019109D01*
X110508743Y-65032615D01*
X110566971Y-65048011D01*
X110623781Y-65065324D01*
X110679104Y-65084581D01*
X110732872Y-65105807D01*
X110785016Y-65129029D01*
X110835466Y-65154274D01*
X110884155Y-65181566D01*
X110931014Y-65210933D01*
X110975973Y-65242401D01*
X111018965Y-65275996D01*
X111059920Y-65311745D01*
X111098770Y-65349672D01*
X111135445Y-65389806D01*
X111169878Y-65432171D01*
X111202000Y-65476794D01*
X111231741Y-65523702D01*
X111259033Y-65572921D01*
X111283808Y-65624476D01*
X111305996Y-65678394D01*
X111325529Y-65734702D01*
X111342339Y-65793425D01*
X111356355Y-65854590D01*
X111367511Y-65918223D01*
X111375736Y-65984350D01*
X111380963Y-66052997D01*
X110842626Y-66053001D01*
X110838454Y-66013340D01*
X110832454Y-65974919D01*
X110824683Y-65937736D01*
X110815193Y-65901786D01*
X110804039Y-65867066D01*
X110791275Y-65833572D01*
X110776956Y-65801301D01*
X110761135Y-65770249D01*
X110743868Y-65740412D01*
X110725208Y-65711788D01*
X110705209Y-65684371D01*
X110683926Y-65658159D01*
X110661414Y-65633148D01*
X110637726Y-65609334D01*
X110612916Y-65586714D01*
X110587039Y-65565285D01*
X110560150Y-65545041D01*
X110532301Y-65525981D01*
X110473946Y-65491394D01*
X110412408Y-65461496D01*
X110348120Y-65436256D01*
X110281517Y-65415647D01*
X110213033Y-65399639D01*
X110143102Y-65388203D01*
X110072158Y-65381311D01*
X110067217Y-64976320D01*
X110198739Y-64983474D01*
G36*
X110198739Y-64983474D02*
G01*
X110326239Y-64997667D01*
X110449166Y-65019109D01*
X110508743Y-65032615D01*
X110566971Y-65048011D01*
X110623781Y-65065324D01*
X110679104Y-65084581D01*
X110732872Y-65105807D01*
X110785016Y-65129029D01*
X110835466Y-65154274D01*
X110884155Y-65181566D01*
X110931014Y-65210933D01*
X110975973Y-65242401D01*
X111018965Y-65275996D01*
X111059920Y-65311745D01*
X111098770Y-65349672D01*
X111135445Y-65389806D01*
X111169878Y-65432171D01*
X111202000Y-65476794D01*
X111231741Y-65523702D01*
X111259033Y-65572921D01*
X111283808Y-65624476D01*
X111305996Y-65678394D01*
X111325529Y-65734702D01*
X111342339Y-65793425D01*
X111356355Y-65854590D01*
X111367511Y-65918223D01*
X111375736Y-65984350D01*
X111380963Y-66052997D01*
X110842626Y-66053001D01*
X110838454Y-66013340D01*
X110832454Y-65974919D01*
X110824683Y-65937736D01*
X110815193Y-65901786D01*
X110804039Y-65867066D01*
X110791275Y-65833572D01*
X110776956Y-65801301D01*
X110761135Y-65770249D01*
X110743868Y-65740412D01*
X110725208Y-65711788D01*
X110705209Y-65684371D01*
X110683926Y-65658159D01*
X110661414Y-65633148D01*
X110637726Y-65609334D01*
X110612916Y-65586714D01*
X110587039Y-65565285D01*
X110560150Y-65545041D01*
X110532301Y-65525981D01*
X110473946Y-65491394D01*
X110412408Y-65461496D01*
X110348120Y-65436256D01*
X110281517Y-65415647D01*
X110213033Y-65399639D01*
X110143102Y-65388203D01*
X110072158Y-65381311D01*
X110067217Y-64976320D01*
X110198739Y-64983474D01*
G37*
X107578016Y-67668017D02*
X107592834Y-65025710D01*
X108091661Y-65025710D01*
X108091661Y-68473056D01*
X107543445Y-68473056D01*
X105232045Y-65025710D01*
X105750628Y-65025710D01*
X107578016Y-67668017D01*
G36*
X107578016Y-67668017D02*
G01*
X107592834Y-65025710D01*
X108091661Y-65025710D01*
X108091661Y-68473056D01*
X107543445Y-68473056D01*
X105232045Y-65025710D01*
X105750628Y-65025710D01*
X107578016Y-67668017D01*
G37*
X94030759Y-64981000D02*
X94122737Y-64989450D01*
X94212672Y-65001620D01*
X94300499Y-65017462D01*
X94386153Y-65036924D01*
X94469566Y-65059957D01*
X94550673Y-65086512D01*
X94629408Y-65116539D01*
X94705706Y-65149987D01*
X94779499Y-65186808D01*
X94850721Y-65226952D01*
X94919308Y-65270368D01*
X94985193Y-65317007D01*
X95048309Y-65366820D01*
X95108591Y-65419756D01*
X95165973Y-65475766D01*
X95220389Y-65534801D01*
X95271773Y-65596809D01*
X95320058Y-65661742D01*
X95365179Y-65729550D01*
X95407070Y-65800184D01*
X95445664Y-65873592D01*
X95480896Y-65949726D01*
X95512700Y-66028537D01*
X95541009Y-66109973D01*
X95565758Y-66193986D01*
X95586880Y-66280525D01*
X95604310Y-66369542D01*
X95617982Y-66460986D01*
X95627829Y-66554807D01*
X95633786Y-66650956D01*
X95635786Y-66749383D01*
X95633770Y-66852674D01*
X95627757Y-66953238D01*
X95617803Y-67051038D01*
X95603963Y-67146039D01*
X95586292Y-67238203D01*
X95564846Y-67327495D01*
X95539679Y-67413879D01*
X95510847Y-67497318D01*
X95478405Y-67577776D01*
X95442408Y-67655218D01*
X95402911Y-67729606D01*
X95359970Y-67800906D01*
X95313639Y-67869079D01*
X95263974Y-67934092D01*
X95211029Y-67995906D01*
X95154861Y-68054487D01*
X95095524Y-68109797D01*
X95033073Y-68161801D01*
X94967564Y-68210463D01*
X94899051Y-68255746D01*
X94827591Y-68297615D01*
X94753237Y-68336032D01*
X94676045Y-68370962D01*
X94596071Y-68402369D01*
X94513370Y-68430217D01*
X94427996Y-68454469D01*
X94340005Y-68475089D01*
X94249452Y-68492041D01*
X94156392Y-68505289D01*
X94060881Y-68514796D01*
X93962973Y-68520527D01*
X93862723Y-68522446D01*
X93767395Y-68520502D01*
X93674065Y-68514707D01*
X93582796Y-68505118D01*
X93493647Y-68491790D01*
X93406680Y-68474779D01*
X93321954Y-68454143D01*
X93239531Y-68429936D01*
X93159471Y-68402214D01*
X93081835Y-68371035D01*
X93006683Y-68336453D01*
X92934075Y-68298525D01*
X92864073Y-68257308D01*
X92796737Y-68212856D01*
X92732128Y-68165227D01*
X92670305Y-68114476D01*
X92611331Y-68060659D01*
X92555265Y-68003832D01*
X92502168Y-67944052D01*
X92452100Y-67881375D01*
X92405122Y-67815856D01*
X92361296Y-67747551D01*
X92320680Y-67676518D01*
X92283336Y-67602811D01*
X92249325Y-67526487D01*
X92218707Y-67447602D01*
X92191543Y-67366212D01*
X92167893Y-67282373D01*
X92147818Y-67196141D01*
X92131378Y-67107572D01*
X92118634Y-67016723D01*
X92109647Y-66923649D01*
X92104478Y-66828406D01*
X92642816Y-66828402D01*
X92646834Y-66895707D01*
X92653315Y-66961468D01*
X92662232Y-67025647D01*
X92673559Y-67088204D01*
X92687270Y-67149101D01*
X92703338Y-67208299D01*
X92721738Y-67265759D01*
X92742443Y-67321441D01*
X92765427Y-67375308D01*
X92790664Y-67427320D01*
X92818127Y-67477438D01*
X92847790Y-67525624D01*
X92879628Y-67571838D01*
X92913613Y-67616042D01*
X92949720Y-67658197D01*
X92987922Y-67698264D01*
X93028193Y-67736203D01*
X93070507Y-67771977D01*
X93114838Y-67805546D01*
X93161159Y-67836871D01*
X93209445Y-67865914D01*
X93259668Y-67892636D01*
X93311804Y-67916997D01*
X93365825Y-67938958D01*
X93421705Y-67958482D01*
X93479418Y-67975529D01*
X93538938Y-67990060D01*
X93600239Y-68002036D01*
X93663294Y-68011418D01*
X93728077Y-68018168D01*
X93794562Y-68022246D01*
X93862723Y-68023614D01*
X93933647Y-68022174D01*
X94002856Y-68017877D01*
X94070316Y-68010763D01*
X94135992Y-68000869D01*
X94199849Y-67988232D01*
X94261851Y-67972892D01*
X94321962Y-67954886D01*
X94380149Y-67934251D01*
X94436375Y-67911027D01*
X94490605Y-67885251D01*
X94542803Y-67856960D01*
X94592936Y-67826194D01*
X94640967Y-67792989D01*
X94686860Y-67757385D01*
X94730582Y-67719418D01*
X94772096Y-67679127D01*
X94811367Y-67636550D01*
X94848361Y-67591724D01*
X94883041Y-67544689D01*
X94915372Y-67495481D01*
X94945320Y-67444139D01*
X94972848Y-67390701D01*
X94997922Y-67335204D01*
X95020507Y-67277687D01*
X95040566Y-67218188D01*
X95058066Y-67156744D01*
X95072970Y-67093394D01*
X95085243Y-67028176D01*
X95094850Y-66961127D01*
X95101756Y-66892286D01*
X95105926Y-66821690D01*
X95107323Y-66749378D01*
X95106012Y-66679338D01*
X95102100Y-66610922D01*
X95095619Y-66544165D01*
X95086603Y-66479100D01*
X95075084Y-66415761D01*
X95061094Y-66354180D01*
X95044665Y-66294392D01*
X95025832Y-66236429D01*
X95004625Y-66180326D01*
X94981078Y-66126116D01*
X94955223Y-66073832D01*
X94927092Y-66023508D01*
X94896719Y-65975176D01*
X94864136Y-65928872D01*
X94829375Y-65884627D01*
X94792469Y-65842476D01*
X94753450Y-65802453D01*
X94712352Y-65764589D01*
X94669206Y-65728919D01*
X94624045Y-65695477D01*
X94576902Y-65664296D01*
X94527809Y-65635409D01*
X94476799Y-65608850D01*
X94423904Y-65584651D01*
X94369157Y-65562848D01*
X94312591Y-65543473D01*
X94254238Y-65526559D01*
X94194130Y-65512140D01*
X94132300Y-65500250D01*
X94068781Y-65490922D01*
X94003606Y-65484190D01*
X93936806Y-65480086D01*
X93936806Y-64976320D01*
X94030759Y-64981000D01*
G36*
X94030759Y-64981000D02*
G01*
X94122737Y-64989450D01*
X94212672Y-65001620D01*
X94300499Y-65017462D01*
X94386153Y-65036924D01*
X94469566Y-65059957D01*
X94550673Y-65086512D01*
X94629408Y-65116539D01*
X94705706Y-65149987D01*
X94779499Y-65186808D01*
X94850721Y-65226952D01*
X94919308Y-65270368D01*
X94985193Y-65317007D01*
X95048309Y-65366820D01*
X95108591Y-65419756D01*
X95165973Y-65475766D01*
X95220389Y-65534801D01*
X95271773Y-65596809D01*
X95320058Y-65661742D01*
X95365179Y-65729550D01*
X95407070Y-65800184D01*
X95445664Y-65873592D01*
X95480896Y-65949726D01*
X95512700Y-66028537D01*
X95541009Y-66109973D01*
X95565758Y-66193986D01*
X95586880Y-66280525D01*
X95604310Y-66369542D01*
X95617982Y-66460986D01*
X95627829Y-66554807D01*
X95633786Y-66650956D01*
X95635786Y-66749383D01*
X95633770Y-66852674D01*
X95627757Y-66953238D01*
X95617803Y-67051038D01*
X95603963Y-67146039D01*
X95586292Y-67238203D01*
X95564846Y-67327495D01*
X95539679Y-67413879D01*
X95510847Y-67497318D01*
X95478405Y-67577776D01*
X95442408Y-67655218D01*
X95402911Y-67729606D01*
X95359970Y-67800906D01*
X95313639Y-67869079D01*
X95263974Y-67934092D01*
X95211029Y-67995906D01*
X95154861Y-68054487D01*
X95095524Y-68109797D01*
X95033073Y-68161801D01*
X94967564Y-68210463D01*
X94899051Y-68255746D01*
X94827591Y-68297615D01*
X94753237Y-68336032D01*
X94676045Y-68370962D01*
X94596071Y-68402369D01*
X94513370Y-68430217D01*
X94427996Y-68454469D01*
X94340005Y-68475089D01*
X94249452Y-68492041D01*
X94156392Y-68505289D01*
X94060881Y-68514796D01*
X93962973Y-68520527D01*
X93862723Y-68522446D01*
X93767395Y-68520502D01*
X93674065Y-68514707D01*
X93582796Y-68505118D01*
X93493647Y-68491790D01*
X93406680Y-68474779D01*
X93321954Y-68454143D01*
X93239531Y-68429936D01*
X93159471Y-68402214D01*
X93081835Y-68371035D01*
X93006683Y-68336453D01*
X92934075Y-68298525D01*
X92864073Y-68257308D01*
X92796737Y-68212856D01*
X92732128Y-68165227D01*
X92670305Y-68114476D01*
X92611331Y-68060659D01*
X92555265Y-68003832D01*
X92502168Y-67944052D01*
X92452100Y-67881375D01*
X92405122Y-67815856D01*
X92361296Y-67747551D01*
X92320680Y-67676518D01*
X92283336Y-67602811D01*
X92249325Y-67526487D01*
X92218707Y-67447602D01*
X92191543Y-67366212D01*
X92167893Y-67282373D01*
X92147818Y-67196141D01*
X92131378Y-67107572D01*
X92118634Y-67016723D01*
X92109647Y-66923649D01*
X92104478Y-66828406D01*
X92642816Y-66828402D01*
X92646834Y-66895707D01*
X92653315Y-66961468D01*
X92662232Y-67025647D01*
X92673559Y-67088204D01*
X92687270Y-67149101D01*
X92703338Y-67208299D01*
X92721738Y-67265759D01*
X92742443Y-67321441D01*
X92765427Y-67375308D01*
X92790664Y-67427320D01*
X92818127Y-67477438D01*
X92847790Y-67525624D01*
X92879628Y-67571838D01*
X92913613Y-67616042D01*
X92949720Y-67658197D01*
X92987922Y-67698264D01*
X93028193Y-67736203D01*
X93070507Y-67771977D01*
X93114838Y-67805546D01*
X93161159Y-67836871D01*
X93209445Y-67865914D01*
X93259668Y-67892636D01*
X93311804Y-67916997D01*
X93365825Y-67938958D01*
X93421705Y-67958482D01*
X93479418Y-67975529D01*
X93538938Y-67990060D01*
X93600239Y-68002036D01*
X93663294Y-68011418D01*
X93728077Y-68018168D01*
X93794562Y-68022246D01*
X93862723Y-68023614D01*
X93933647Y-68022174D01*
X94002856Y-68017877D01*
X94070316Y-68010763D01*
X94135992Y-68000869D01*
X94199849Y-67988232D01*
X94261851Y-67972892D01*
X94321962Y-67954886D01*
X94380149Y-67934251D01*
X94436375Y-67911027D01*
X94490605Y-67885251D01*
X94542803Y-67856960D01*
X94592936Y-67826194D01*
X94640967Y-67792989D01*
X94686860Y-67757385D01*
X94730582Y-67719418D01*
X94772096Y-67679127D01*
X94811367Y-67636550D01*
X94848361Y-67591724D01*
X94883041Y-67544689D01*
X94915372Y-67495481D01*
X94945320Y-67444139D01*
X94972848Y-67390701D01*
X94997922Y-67335204D01*
X95020507Y-67277687D01*
X95040566Y-67218188D01*
X95058066Y-67156744D01*
X95072970Y-67093394D01*
X95085243Y-67028176D01*
X95094850Y-66961127D01*
X95101756Y-66892286D01*
X95105926Y-66821690D01*
X95107323Y-66749378D01*
X95106012Y-66679338D01*
X95102100Y-66610922D01*
X95095619Y-66544165D01*
X95086603Y-66479100D01*
X95075084Y-66415761D01*
X95061094Y-66354180D01*
X95044665Y-66294392D01*
X95025832Y-66236429D01*
X95004625Y-66180326D01*
X94981078Y-66126116D01*
X94955223Y-66073832D01*
X94927092Y-66023508D01*
X94896719Y-65975176D01*
X94864136Y-65928872D01*
X94829375Y-65884627D01*
X94792469Y-65842476D01*
X94753450Y-65802453D01*
X94712352Y-65764589D01*
X94669206Y-65728919D01*
X94624045Y-65695477D01*
X94576902Y-65664296D01*
X94527809Y-65635409D01*
X94476799Y-65608850D01*
X94423904Y-65584651D01*
X94369157Y-65562848D01*
X94312591Y-65543473D01*
X94254238Y-65526559D01*
X94194130Y-65512140D01*
X94132300Y-65500250D01*
X94068781Y-65490922D01*
X94003606Y-65484190D01*
X93936806Y-65480086D01*
X93936806Y-64976320D01*
X94030759Y-64981000D01*
G37*
X117801523Y-65544292D02*
X115149337Y-65544292D01*
X115149337Y-65025710D01*
X117801523Y-65025710D01*
X117801523Y-65544292D01*
G36*
X117801523Y-65544292D02*
G01*
X115149337Y-65544292D01*
X115149337Y-65025710D01*
X117801523Y-65025710D01*
X117801523Y-65544292D01*
G37*
X116744599Y-68473056D02*
X116216137Y-68473056D01*
X116216137Y-66156715D01*
X116744599Y-66156715D01*
X116744599Y-68473056D01*
G36*
X116744599Y-68473056D02*
G01*
X116216137Y-68473056D01*
X116216137Y-66156715D01*
X116744599Y-66156715D01*
X116744599Y-68473056D01*
G37*
X109227605Y-65954218D02*
X109234145Y-65983726D01*
X109242597Y-66012077D01*
X109252873Y-66039301D01*
X109264888Y-66065429D01*
X109278556Y-66090489D01*
X109293792Y-66114512D01*
X109310509Y-66137528D01*
X109328621Y-66159566D01*
X109348043Y-66180656D01*
X109368688Y-66200829D01*
X109413306Y-66238540D01*
X109461787Y-66272937D01*
X109513444Y-66304260D01*
X109567590Y-66332746D01*
X109623537Y-66358636D01*
X109680599Y-66382167D01*
X109738087Y-66403578D01*
X109851595Y-66440996D01*
X109958562Y-66472801D01*
X110152413Y-66525895D01*
X110253043Y-66554757D01*
X110303474Y-66570172D01*
X110353673Y-66586397D01*
X110455553Y-66616802D01*
X110555213Y-66649058D01*
X110652051Y-66683630D01*
X110745467Y-66720980D01*
X110834860Y-66761572D01*
X110919630Y-66805867D01*
X110960094Y-66829549D01*
X110999177Y-66854330D01*
X111036804Y-66880268D01*
X111072900Y-66907423D01*
X111107390Y-66935850D01*
X111140198Y-66965609D01*
X111171250Y-66996757D01*
X111200472Y-67029351D01*
X111227786Y-67063451D01*
X111253120Y-67099113D01*
X111276397Y-67136396D01*
X111297542Y-67175357D01*
X111316481Y-67216055D01*
X111333138Y-67258546D01*
X111347438Y-67302890D01*
X111359307Y-67349144D01*
X111368669Y-67397366D01*
X111375449Y-67447613D01*
X111379572Y-67499944D01*
X111380963Y-67554417D01*
X111378974Y-67617160D01*
X111373100Y-67677607D01*
X111363476Y-67735780D01*
X111350239Y-67791697D01*
X111333526Y-67845378D01*
X111313474Y-67896844D01*
X111290218Y-67946113D01*
X111263895Y-67993208D01*
X111234643Y-68038146D01*
X111202597Y-68080948D01*
X111167894Y-68121634D01*
X111130670Y-68160223D01*
X111091063Y-68196737D01*
X111049209Y-68231194D01*
X111005243Y-68263614D01*
X110959304Y-68294017D01*
X110862049Y-68348854D01*
X110758536Y-68395863D01*
X110649858Y-68435203D01*
X110537106Y-68467033D01*
X110421374Y-68491513D01*
X110303753Y-68508801D01*
X110185337Y-68519058D01*
X110067217Y-68522441D01*
X109926448Y-68519030D01*
X109789781Y-68508580D01*
X109657845Y-68490764D01*
X109593848Y-68478993D01*
X109531270Y-68465258D01*
X109470190Y-68449520D01*
X109410686Y-68431736D01*
X109352837Y-68411867D01*
X109296721Y-68389873D01*
X109242418Y-68365711D01*
X109190006Y-68339342D01*
X109139563Y-68310725D01*
X109091169Y-68279818D01*
X109044902Y-68246583D01*
X109000840Y-68210977D01*
X108959063Y-68172960D01*
X108919648Y-68132491D01*
X108882676Y-68089530D01*
X108848224Y-68044036D01*
X108816371Y-67995968D01*
X108787195Y-67945286D01*
X108760776Y-67891949D01*
X108737192Y-67835915D01*
X108716522Y-67777146D01*
X108698845Y-67715599D01*
X108684238Y-67651234D01*
X108672782Y-67584011D01*
X108664554Y-67513888D01*
X108659633Y-67440825D01*
X109207848Y-67440821D01*
X109212121Y-67484463D01*
X109218418Y-67526499D01*
X109226679Y-67566943D01*
X109236845Y-67605810D01*
X109248855Y-67643115D01*
X109262651Y-67678871D01*
X109278172Y-67713094D01*
X109295359Y-67745797D01*
X109314152Y-67776995D01*
X109334492Y-67806704D01*
X109356318Y-67834936D01*
X109379571Y-67861707D01*
X109404192Y-67887031D01*
X109430120Y-67910922D01*
X109457296Y-67933396D01*
X109485661Y-67954466D01*
X109515154Y-67974147D01*
X109545716Y-67992453D01*
X109577287Y-68009399D01*
X109609808Y-68025000D01*
X109677460Y-68052222D01*
X109748194Y-68074235D01*
X109821532Y-68091154D01*
X109896997Y-68103097D01*
X109974111Y-68110177D01*
X110052398Y-68112511D01*
X110106907Y-68111181D01*
X110165973Y-68106965D01*
X110228484Y-68099521D01*
X110293324Y-68088511D01*
X110359379Y-68073594D01*
X110425536Y-68054431D01*
X110458304Y-68043150D01*
X110490679Y-68030680D01*
X110522523Y-68016979D01*
X110553696Y-68002003D01*
X110584059Y-67985711D01*
X110613472Y-67968059D01*
X110641796Y-67949006D01*
X110668892Y-67928508D01*
X110694621Y-67906524D01*
X110718843Y-67883010D01*
X110741419Y-67857925D01*
X110762210Y-67831226D01*
X110781077Y-67802869D01*
X110797880Y-67772814D01*
X110812480Y-67741017D01*
X110824738Y-67707435D01*
X110834514Y-67672027D01*
X110841669Y-67634750D01*
X110846065Y-67595560D01*
X110847561Y-67554417D01*
X110847087Y-67530208D01*
X110845679Y-67506651D01*
X110843357Y-67483735D01*
X110840143Y-67461446D01*
X110836057Y-67439773D01*
X110831120Y-67418702D01*
X110825353Y-67398220D01*
X110818776Y-67378315D01*
X110811411Y-67358975D01*
X110803278Y-67340186D01*
X110794399Y-67321936D01*
X110784793Y-67304213D01*
X110774481Y-67287003D01*
X110763485Y-67270294D01*
X110751825Y-67254074D01*
X110739523Y-67238329D01*
X110713071Y-67208216D01*
X110684298Y-67179854D01*
X110653368Y-67153141D01*
X110620449Y-67127976D01*
X110585707Y-67104258D01*
X110549308Y-67081886D01*
X110511419Y-67060758D01*
X110472206Y-67040773D01*
X110430997Y-67024318D01*
X110388862Y-67008209D01*
X110301815Y-66976570D01*
X110116605Y-66912364D01*
X110021608Y-66887052D01*
X109923371Y-66861740D01*
X109873760Y-66848505D01*
X109824207Y-66834576D01*
X109775002Y-66819720D01*
X109726433Y-66803707D01*
X109630038Y-66776258D01*
X109535668Y-66747325D01*
X109443845Y-66716468D01*
X109355090Y-66683245D01*
X109269923Y-66647215D01*
X109188865Y-66607937D01*
X109150040Y-66586941D01*
X109112438Y-66564969D01*
X109076123Y-66541963D01*
X109041161Y-66517869D01*
X109007618Y-66492633D01*
X108975557Y-66466198D01*
X108945045Y-66438509D01*
X108916146Y-66409512D01*
X108888925Y-66379152D01*
X108863448Y-66347372D01*
X108839780Y-66314119D01*
X108817985Y-66279336D01*
X108798130Y-66242968D01*
X108780278Y-66204962D01*
X108764496Y-66165260D01*
X108750847Y-66123809D01*
X108739398Y-66080552D01*
X108730214Y-66035436D01*
X108723359Y-65988404D01*
X108718899Y-65939401D01*
X109227605Y-65954218D01*
G36*
X109227605Y-65954218D02*
G01*
X109234145Y-65983726D01*
X109242597Y-66012077D01*
X109252873Y-66039301D01*
X109264888Y-66065429D01*
X109278556Y-66090489D01*
X109293792Y-66114512D01*
X109310509Y-66137528D01*
X109328621Y-66159566D01*
X109348043Y-66180656D01*
X109368688Y-66200829D01*
X109413306Y-66238540D01*
X109461787Y-66272937D01*
X109513444Y-66304260D01*
X109567590Y-66332746D01*
X109623537Y-66358636D01*
X109680599Y-66382167D01*
X109738087Y-66403578D01*
X109851595Y-66440996D01*
X109958562Y-66472801D01*
X110152413Y-66525895D01*
X110253043Y-66554757D01*
X110303474Y-66570172D01*
X110353673Y-66586397D01*
X110455553Y-66616802D01*
X110555213Y-66649058D01*
X110652051Y-66683630D01*
X110745467Y-66720980D01*
X110834860Y-66761572D01*
X110919630Y-66805867D01*
X110960094Y-66829549D01*
X110999177Y-66854330D01*
X111036804Y-66880268D01*
X111072900Y-66907423D01*
X111107390Y-66935850D01*
X111140198Y-66965609D01*
X111171250Y-66996757D01*
X111200472Y-67029351D01*
X111227786Y-67063451D01*
X111253120Y-67099113D01*
X111276397Y-67136396D01*
X111297542Y-67175357D01*
X111316481Y-67216055D01*
X111333138Y-67258546D01*
X111347438Y-67302890D01*
X111359307Y-67349144D01*
X111368669Y-67397366D01*
X111375449Y-67447613D01*
X111379572Y-67499944D01*
X111380963Y-67554417D01*
X111378974Y-67617160D01*
X111373100Y-67677607D01*
X111363476Y-67735780D01*
X111350239Y-67791697D01*
X111333526Y-67845378D01*
X111313474Y-67896844D01*
X111290218Y-67946113D01*
X111263895Y-67993208D01*
X111234643Y-68038146D01*
X111202597Y-68080948D01*
X111167894Y-68121634D01*
X111130670Y-68160223D01*
X111091063Y-68196737D01*
X111049209Y-68231194D01*
X111005243Y-68263614D01*
X110959304Y-68294017D01*
X110862049Y-68348854D01*
X110758536Y-68395863D01*
X110649858Y-68435203D01*
X110537106Y-68467033D01*
X110421374Y-68491513D01*
X110303753Y-68508801D01*
X110185337Y-68519058D01*
X110067217Y-68522441D01*
X109926448Y-68519030D01*
X109789781Y-68508580D01*
X109657845Y-68490764D01*
X109593848Y-68478993D01*
X109531270Y-68465258D01*
X109470190Y-68449520D01*
X109410686Y-68431736D01*
X109352837Y-68411867D01*
X109296721Y-68389873D01*
X109242418Y-68365711D01*
X109190006Y-68339342D01*
X109139563Y-68310725D01*
X109091169Y-68279818D01*
X109044902Y-68246583D01*
X109000840Y-68210977D01*
X108959063Y-68172960D01*
X108919648Y-68132491D01*
X108882676Y-68089530D01*
X108848224Y-68044036D01*
X108816371Y-67995968D01*
X108787195Y-67945286D01*
X108760776Y-67891949D01*
X108737192Y-67835915D01*
X108716522Y-67777146D01*
X108698845Y-67715599D01*
X108684238Y-67651234D01*
X108672782Y-67584011D01*
X108664554Y-67513888D01*
X108659633Y-67440825D01*
X109207848Y-67440821D01*
X109212121Y-67484463D01*
X109218418Y-67526499D01*
X109226679Y-67566943D01*
X109236845Y-67605810D01*
X109248855Y-67643115D01*
X109262651Y-67678871D01*
X109278172Y-67713094D01*
X109295359Y-67745797D01*
X109314152Y-67776995D01*
X109334492Y-67806704D01*
X109356318Y-67834936D01*
X109379571Y-67861707D01*
X109404192Y-67887031D01*
X109430120Y-67910922D01*
X109457296Y-67933396D01*
X109485661Y-67954466D01*
X109515154Y-67974147D01*
X109545716Y-67992453D01*
X109577287Y-68009399D01*
X109609808Y-68025000D01*
X109677460Y-68052222D01*
X109748194Y-68074235D01*
X109821532Y-68091154D01*
X109896997Y-68103097D01*
X109974111Y-68110177D01*
X110052398Y-68112511D01*
X110106907Y-68111181D01*
X110165973Y-68106965D01*
X110228484Y-68099521D01*
X110293324Y-68088511D01*
X110359379Y-68073594D01*
X110425536Y-68054431D01*
X110458304Y-68043150D01*
X110490679Y-68030680D01*
X110522523Y-68016979D01*
X110553696Y-68002003D01*
X110584059Y-67985711D01*
X110613472Y-67968059D01*
X110641796Y-67949006D01*
X110668892Y-67928508D01*
X110694621Y-67906524D01*
X110718843Y-67883010D01*
X110741419Y-67857925D01*
X110762210Y-67831226D01*
X110781077Y-67802869D01*
X110797880Y-67772814D01*
X110812480Y-67741017D01*
X110824738Y-67707435D01*
X110834514Y-67672027D01*
X110841669Y-67634750D01*
X110846065Y-67595560D01*
X110847561Y-67554417D01*
X110847087Y-67530208D01*
X110845679Y-67506651D01*
X110843357Y-67483735D01*
X110840143Y-67461446D01*
X110836057Y-67439773D01*
X110831120Y-67418702D01*
X110825353Y-67398220D01*
X110818776Y-67378315D01*
X110811411Y-67358975D01*
X110803278Y-67340186D01*
X110794399Y-67321936D01*
X110784793Y-67304213D01*
X110774481Y-67287003D01*
X110763485Y-67270294D01*
X110751825Y-67254074D01*
X110739523Y-67238329D01*
X110713071Y-67208216D01*
X110684298Y-67179854D01*
X110653368Y-67153141D01*
X110620449Y-67127976D01*
X110585707Y-67104258D01*
X110549308Y-67081886D01*
X110511419Y-67060758D01*
X110472206Y-67040773D01*
X110430997Y-67024318D01*
X110388862Y-67008209D01*
X110301815Y-66976570D01*
X110116605Y-66912364D01*
X110021608Y-66887052D01*
X109923371Y-66861740D01*
X109873760Y-66848505D01*
X109824207Y-66834576D01*
X109775002Y-66819720D01*
X109726433Y-66803707D01*
X109630038Y-66776258D01*
X109535668Y-66747325D01*
X109443845Y-66716468D01*
X109355090Y-66683245D01*
X109269923Y-66647215D01*
X109188865Y-66607937D01*
X109150040Y-66586941D01*
X109112438Y-66564969D01*
X109076123Y-66541963D01*
X109041161Y-66517869D01*
X109007618Y-66492633D01*
X108975557Y-66466198D01*
X108945045Y-66438509D01*
X108916146Y-66409512D01*
X108888925Y-66379152D01*
X108863448Y-66347372D01*
X108839780Y-66314119D01*
X108817985Y-66279336D01*
X108798130Y-66242968D01*
X108780278Y-66204962D01*
X108764496Y-66165260D01*
X108750847Y-66123809D01*
X108739398Y-66080552D01*
X108730214Y-66035436D01*
X108723359Y-65988404D01*
X108718899Y-65939401D01*
X109227605Y-65954218D01*
G37*
X96742095Y-66813585D02*
X96742095Y-68473056D01*
X96228449Y-68473056D01*
X96228449Y-66072753D01*
X96742095Y-66813585D01*
G36*
X96742095Y-66813585D02*
G01*
X96742095Y-68473056D01*
X96228449Y-68473056D01*
X96228449Y-66072753D01*
X96742095Y-66813585D01*
G37*
X98613935Y-67668017D02*
X98628752Y-65025710D01*
X99127579Y-65025710D01*
X99127579Y-68473056D01*
X98579362Y-68473056D01*
X96267963Y-65025710D01*
X96786546Y-65025710D01*
X98613935Y-67668017D01*
G36*
X98613935Y-67668017D02*
G01*
X98628752Y-65025710D01*
X99127579Y-65025710D01*
X99127579Y-68473056D01*
X98579362Y-68473056D01*
X96267963Y-65025710D01*
X96786546Y-65025710D01*
X98613935Y-67668017D01*
G37*
X102994839Y-64981000D02*
X103086817Y-64989450D01*
X103176752Y-65001620D01*
X103264580Y-65017462D01*
X103350233Y-65036924D01*
X103433646Y-65059957D01*
X103514753Y-65086512D01*
X103593489Y-65116539D01*
X103669786Y-65149987D01*
X103743579Y-65186808D01*
X103814802Y-65226952D01*
X103883388Y-65270368D01*
X103949273Y-65317007D01*
X104012389Y-65366820D01*
X104072672Y-65419756D01*
X104130054Y-65475766D01*
X104184469Y-65534801D01*
X104235853Y-65596809D01*
X104284138Y-65661742D01*
X104329259Y-65729550D01*
X104371150Y-65800184D01*
X104409744Y-65873592D01*
X104444976Y-65949726D01*
X104476780Y-66028537D01*
X104505089Y-66109973D01*
X104529838Y-66193986D01*
X104550960Y-66280525D01*
X104568391Y-66369542D01*
X104582062Y-66460986D01*
X104591909Y-66554807D01*
X104597866Y-66650956D01*
X104599866Y-66749383D01*
X104597850Y-66852674D01*
X104591837Y-66953238D01*
X104581883Y-67051038D01*
X104568043Y-67146039D01*
X104550373Y-67238203D01*
X104528927Y-67327495D01*
X104503760Y-67413879D01*
X104474928Y-67497318D01*
X104442486Y-67577776D01*
X104406489Y-67655218D01*
X104366992Y-67729606D01*
X104324051Y-67800906D01*
X104277720Y-67869079D01*
X104228055Y-67934092D01*
X104175110Y-67995906D01*
X104118942Y-68054487D01*
X104059605Y-68109797D01*
X103997154Y-68161801D01*
X103931645Y-68210463D01*
X103863132Y-68255746D01*
X103791672Y-68297615D01*
X103717318Y-68336032D01*
X103640127Y-68370962D01*
X103560152Y-68402369D01*
X103477451Y-68430217D01*
X103392077Y-68454469D01*
X103304086Y-68475089D01*
X103213533Y-68492041D01*
X103120473Y-68505289D01*
X103024961Y-68514796D01*
X102927053Y-68520527D01*
X102826804Y-68522446D01*
X102731475Y-68520502D01*
X102638146Y-68514707D01*
X102546877Y-68505118D01*
X102457728Y-68491790D01*
X102370761Y-68474779D01*
X102286036Y-68454143D01*
X102203613Y-68429936D01*
X102123553Y-68402214D01*
X102045916Y-68371035D01*
X101970764Y-68336453D01*
X101898157Y-68298525D01*
X101828155Y-68257308D01*
X101760819Y-68212856D01*
X101696210Y-68165227D01*
X101634387Y-68114476D01*
X101575413Y-68060659D01*
X101519347Y-68003832D01*
X101466250Y-67944052D01*
X101416182Y-67881375D01*
X101369205Y-67815856D01*
X101325378Y-67747551D01*
X101284762Y-67676518D01*
X101247419Y-67602811D01*
X101213408Y-67526487D01*
X101182790Y-67447602D01*
X101155625Y-67366212D01*
X101131975Y-67282373D01*
X101111900Y-67196141D01*
X101095460Y-67107572D01*
X101082717Y-67016723D01*
X101073730Y-66923649D01*
X101068560Y-66828406D01*
X101606896Y-66828402D01*
X101610914Y-66895707D01*
X101617395Y-66961468D01*
X101626312Y-67025647D01*
X101637639Y-67088204D01*
X101651349Y-67149101D01*
X101667418Y-67208299D01*
X101685817Y-67265759D01*
X101706522Y-67321441D01*
X101729506Y-67375308D01*
X101754743Y-67427320D01*
X101782206Y-67477438D01*
X101811869Y-67525624D01*
X101843706Y-67571838D01*
X101877691Y-67616042D01*
X101913798Y-67658197D01*
X101952000Y-67698264D01*
X101992271Y-67736203D01*
X102034586Y-67771977D01*
X102078916Y-67805546D01*
X102125238Y-67836871D01*
X102173523Y-67865914D01*
X102223747Y-67892636D01*
X102275882Y-67916997D01*
X102329903Y-67938958D01*
X102385783Y-67958482D01*
X102443496Y-67975529D01*
X102503016Y-67990060D01*
X102564317Y-68002036D01*
X102627372Y-68011418D01*
X102692155Y-68018168D01*
X102758641Y-68022246D01*
X102826802Y-68023614D01*
X102897725Y-68022174D01*
X102966934Y-68017877D01*
X103034395Y-68010763D01*
X103100071Y-68000869D01*
X103163928Y-67988232D01*
X103225930Y-67972892D01*
X103286042Y-67954886D01*
X103344228Y-67934251D01*
X103400454Y-67911027D01*
X103454684Y-67885251D01*
X103506883Y-67856960D01*
X103557015Y-67826194D01*
X103605046Y-67792989D01*
X103650940Y-67757385D01*
X103694662Y-67719418D01*
X103736176Y-67679127D01*
X103775447Y-67636550D01*
X103812441Y-67591724D01*
X103847121Y-67544689D01*
X103879452Y-67495481D01*
X103909400Y-67444139D01*
X103936928Y-67390701D01*
X103962003Y-67335204D01*
X103984587Y-67277687D01*
X104004647Y-67218188D01*
X104022146Y-67156744D01*
X104037050Y-67093394D01*
X104049323Y-67028176D01*
X104058931Y-66961127D01*
X104065836Y-66892286D01*
X104070006Y-66821690D01*
X104071404Y-66749378D01*
X104070092Y-66679338D01*
X104066180Y-66610922D01*
X104059700Y-66544165D01*
X104050683Y-66479100D01*
X104039164Y-66415761D01*
X104025174Y-66354180D01*
X104008746Y-66294392D01*
X103989912Y-66236429D01*
X103968705Y-66180326D01*
X103945158Y-66126116D01*
X103919303Y-66073832D01*
X103891173Y-66023508D01*
X103860799Y-65975176D01*
X103828216Y-65928872D01*
X103793455Y-65884627D01*
X103756549Y-65842476D01*
X103717531Y-65802453D01*
X103676432Y-65764589D01*
X103633286Y-65728919D01*
X103588125Y-65695477D01*
X103540982Y-65664296D01*
X103491889Y-65635409D01*
X103440879Y-65608850D01*
X103387984Y-65584651D01*
X103333237Y-65562848D01*
X103276671Y-65543473D01*
X103218318Y-65526559D01*
X103158210Y-65512140D01*
X103096380Y-65500250D01*
X103032862Y-65490922D01*
X102967686Y-65484190D01*
X102900886Y-65480086D01*
X102900886Y-64976320D01*
X102994839Y-64981000D01*
G36*
X102994839Y-64981000D02*
G01*
X103086817Y-64989450D01*
X103176752Y-65001620D01*
X103264580Y-65017462D01*
X103350233Y-65036924D01*
X103433646Y-65059957D01*
X103514753Y-65086512D01*
X103593489Y-65116539D01*
X103669786Y-65149987D01*
X103743579Y-65186808D01*
X103814802Y-65226952D01*
X103883388Y-65270368D01*
X103949273Y-65317007D01*
X104012389Y-65366820D01*
X104072672Y-65419756D01*
X104130054Y-65475766D01*
X104184469Y-65534801D01*
X104235853Y-65596809D01*
X104284138Y-65661742D01*
X104329259Y-65729550D01*
X104371150Y-65800184D01*
X104409744Y-65873592D01*
X104444976Y-65949726D01*
X104476780Y-66028537D01*
X104505089Y-66109973D01*
X104529838Y-66193986D01*
X104550960Y-66280525D01*
X104568391Y-66369542D01*
X104582062Y-66460986D01*
X104591909Y-66554807D01*
X104597866Y-66650956D01*
X104599866Y-66749383D01*
X104597850Y-66852674D01*
X104591837Y-66953238D01*
X104581883Y-67051038D01*
X104568043Y-67146039D01*
X104550373Y-67238203D01*
X104528927Y-67327495D01*
X104503760Y-67413879D01*
X104474928Y-67497318D01*
X104442486Y-67577776D01*
X104406489Y-67655218D01*
X104366992Y-67729606D01*
X104324051Y-67800906D01*
X104277720Y-67869079D01*
X104228055Y-67934092D01*
X104175110Y-67995906D01*
X104118942Y-68054487D01*
X104059605Y-68109797D01*
X103997154Y-68161801D01*
X103931645Y-68210463D01*
X103863132Y-68255746D01*
X103791672Y-68297615D01*
X103717318Y-68336032D01*
X103640127Y-68370962D01*
X103560152Y-68402369D01*
X103477451Y-68430217D01*
X103392077Y-68454469D01*
X103304086Y-68475089D01*
X103213533Y-68492041D01*
X103120473Y-68505289D01*
X103024961Y-68514796D01*
X102927053Y-68520527D01*
X102826804Y-68522446D01*
X102731475Y-68520502D01*
X102638146Y-68514707D01*
X102546877Y-68505118D01*
X102457728Y-68491790D01*
X102370761Y-68474779D01*
X102286036Y-68454143D01*
X102203613Y-68429936D01*
X102123553Y-68402214D01*
X102045916Y-68371035D01*
X101970764Y-68336453D01*
X101898157Y-68298525D01*
X101828155Y-68257308D01*
X101760819Y-68212856D01*
X101696210Y-68165227D01*
X101634387Y-68114476D01*
X101575413Y-68060659D01*
X101519347Y-68003832D01*
X101466250Y-67944052D01*
X101416182Y-67881375D01*
X101369205Y-67815856D01*
X101325378Y-67747551D01*
X101284762Y-67676518D01*
X101247419Y-67602811D01*
X101213408Y-67526487D01*
X101182790Y-67447602D01*
X101155625Y-67366212D01*
X101131975Y-67282373D01*
X101111900Y-67196141D01*
X101095460Y-67107572D01*
X101082717Y-67016723D01*
X101073730Y-66923649D01*
X101068560Y-66828406D01*
X101606896Y-66828402D01*
X101610914Y-66895707D01*
X101617395Y-66961468D01*
X101626312Y-67025647D01*
X101637639Y-67088204D01*
X101651349Y-67149101D01*
X101667418Y-67208299D01*
X101685817Y-67265759D01*
X101706522Y-67321441D01*
X101729506Y-67375308D01*
X101754743Y-67427320D01*
X101782206Y-67477438D01*
X101811869Y-67525624D01*
X101843706Y-67571838D01*
X101877691Y-67616042D01*
X101913798Y-67658197D01*
X101952000Y-67698264D01*
X101992271Y-67736203D01*
X102034586Y-67771977D01*
X102078916Y-67805546D01*
X102125238Y-67836871D01*
X102173523Y-67865914D01*
X102223747Y-67892636D01*
X102275882Y-67916997D01*
X102329903Y-67938958D01*
X102385783Y-67958482D01*
X102443496Y-67975529D01*
X102503016Y-67990060D01*
X102564317Y-68002036D01*
X102627372Y-68011418D01*
X102692155Y-68018168D01*
X102758641Y-68022246D01*
X102826802Y-68023614D01*
X102897725Y-68022174D01*
X102966934Y-68017877D01*
X103034395Y-68010763D01*
X103100071Y-68000869D01*
X103163928Y-67988232D01*
X103225930Y-67972892D01*
X103286042Y-67954886D01*
X103344228Y-67934251D01*
X103400454Y-67911027D01*
X103454684Y-67885251D01*
X103506883Y-67856960D01*
X103557015Y-67826194D01*
X103605046Y-67792989D01*
X103650940Y-67757385D01*
X103694662Y-67719418D01*
X103736176Y-67679127D01*
X103775447Y-67636550D01*
X103812441Y-67591724D01*
X103847121Y-67544689D01*
X103879452Y-67495481D01*
X103909400Y-67444139D01*
X103936928Y-67390701D01*
X103962003Y-67335204D01*
X103984587Y-67277687D01*
X104004647Y-67218188D01*
X104022146Y-67156744D01*
X104037050Y-67093394D01*
X104049323Y-67028176D01*
X104058931Y-66961127D01*
X104065836Y-66892286D01*
X104070006Y-66821690D01*
X104071404Y-66749378D01*
X104070092Y-66679338D01*
X104066180Y-66610922D01*
X104059700Y-66544165D01*
X104050683Y-66479100D01*
X104039164Y-66415761D01*
X104025174Y-66354180D01*
X104008746Y-66294392D01*
X103989912Y-66236429D01*
X103968705Y-66180326D01*
X103945158Y-66126116D01*
X103919303Y-66073832D01*
X103891173Y-66023508D01*
X103860799Y-65975176D01*
X103828216Y-65928872D01*
X103793455Y-65884627D01*
X103756549Y-65842476D01*
X103717531Y-65802453D01*
X103676432Y-65764589D01*
X103633286Y-65728919D01*
X103588125Y-65695477D01*
X103540982Y-65664296D01*
X103491889Y-65635409D01*
X103440879Y-65608850D01*
X103387984Y-65584651D01*
X103333237Y-65562848D01*
X103276671Y-65543473D01*
X103218318Y-65526559D01*
X103158210Y-65512140D01*
X103096380Y-65500250D01*
X103032862Y-65490922D01*
X102967686Y-65484190D01*
X102900886Y-65480086D01*
X102900886Y-64976320D01*
X102994839Y-64981000D01*
G37*
X100416629Y-68473056D02*
X99883230Y-68473056D01*
X99883230Y-66052997D01*
X100416629Y-66052997D01*
X100416629Y-68473056D01*
G36*
X100416629Y-68473056D02*
G01*
X99883230Y-68473056D01*
X99883230Y-66052997D01*
X100416629Y-66052997D01*
X100416629Y-68473056D01*
G37*
D12*
X122137164Y-47319713D02*
X122744307Y-47319713D01*
X122744307Y-47319713D02*
X122815735Y-47283999D01*
X122815735Y-47283999D02*
X122851450Y-47248285D01*
X122851450Y-47248285D02*
X122887164Y-47176856D01*
X122887164Y-47176856D02*
X122887164Y-47033999D01*
X122887164Y-47033999D02*
X122851450Y-46962570D01*
X122851450Y-46962570D02*
X122815735Y-46926856D01*
X122815735Y-46926856D02*
X122744307Y-46891142D01*
X122744307Y-46891142D02*
X122137164Y-46891142D01*
X122851450Y-46569713D02*
X122887164Y-46462571D01*
X122887164Y-46462571D02*
X122887164Y-46283999D01*
X122887164Y-46283999D02*
X122851450Y-46212571D01*
X122851450Y-46212571D02*
X122815735Y-46176856D01*
X122815735Y-46176856D02*
X122744307Y-46141142D01*
X122744307Y-46141142D02*
X122672878Y-46141142D01*
X122672878Y-46141142D02*
X122601450Y-46176856D01*
X122601450Y-46176856D02*
X122565735Y-46212571D01*
X122565735Y-46212571D02*
X122530021Y-46283999D01*
X122530021Y-46283999D02*
X122494307Y-46426856D01*
X122494307Y-46426856D02*
X122458592Y-46498285D01*
X122458592Y-46498285D02*
X122422878Y-46533999D01*
X122422878Y-46533999D02*
X122351450Y-46569713D01*
X122351450Y-46569713D02*
X122280021Y-46569713D01*
X122280021Y-46569713D02*
X122208592Y-46533999D01*
X122208592Y-46533999D02*
X122172878Y-46498285D01*
X122172878Y-46498285D02*
X122137164Y-46426856D01*
X122137164Y-46426856D02*
X122137164Y-46248285D01*
X122137164Y-46248285D02*
X122172878Y-46141142D01*
X122494307Y-45819713D02*
X122494307Y-45569713D01*
X122887164Y-45462570D02*
X122887164Y-45819713D01*
X122887164Y-45819713D02*
X122137164Y-45819713D01*
X122137164Y-45819713D02*
X122137164Y-45462570D01*
X122887164Y-44712571D02*
X122530021Y-44962571D01*
X122887164Y-45141142D02*
X122137164Y-45141142D01*
X122137164Y-45141142D02*
X122137164Y-44855428D01*
X122137164Y-44855428D02*
X122172878Y-44783999D01*
X122172878Y-44783999D02*
X122208592Y-44748285D01*
X122208592Y-44748285D02*
X122280021Y-44712571D01*
X122280021Y-44712571D02*
X122387164Y-44712571D01*
X122387164Y-44712571D02*
X122458592Y-44748285D01*
X122458592Y-44748285D02*
X122494307Y-44783999D01*
X122494307Y-44783999D02*
X122530021Y-44855428D01*
X122530021Y-44855428D02*
X122530021Y-45141142D01*
D13*
X102198237Y-72319502D02*
X102198237Y-71886169D01*
X102198237Y-72009978D02*
X102229190Y-71948073D01*
X102229190Y-71948073D02*
X102260142Y-71917121D01*
X102260142Y-71917121D02*
X102322047Y-71886169D01*
X102322047Y-71886169D02*
X102383952Y-71886169D01*
X102848237Y-72288550D02*
X102786333Y-72319502D01*
X102786333Y-72319502D02*
X102662523Y-72319502D01*
X102662523Y-72319502D02*
X102600618Y-72288550D01*
X102600618Y-72288550D02*
X102569666Y-72226645D01*
X102569666Y-72226645D02*
X102569666Y-71979026D01*
X102569666Y-71979026D02*
X102600618Y-71917121D01*
X102600618Y-71917121D02*
X102662523Y-71886169D01*
X102662523Y-71886169D02*
X102786333Y-71886169D01*
X102786333Y-71886169D02*
X102848237Y-71917121D01*
X102848237Y-71917121D02*
X102879190Y-71979026D01*
X102879190Y-71979026D02*
X102879190Y-72040930D01*
X102879190Y-72040930D02*
X102569666Y-72102835D01*
X103095857Y-71886169D02*
X103250619Y-72319502D01*
X103250619Y-72319502D02*
X103405380Y-71886169D01*
X103652999Y-72319502D02*
X103652999Y-71886169D01*
X103652999Y-71669502D02*
X103622047Y-71700454D01*
X103622047Y-71700454D02*
X103652999Y-71731407D01*
X103652999Y-71731407D02*
X103683952Y-71700454D01*
X103683952Y-71700454D02*
X103652999Y-71669502D01*
X103652999Y-71669502D02*
X103652999Y-71731407D01*
X103931571Y-72288550D02*
X103993476Y-72319502D01*
X103993476Y-72319502D02*
X104117285Y-72319502D01*
X104117285Y-72319502D02*
X104179190Y-72288550D01*
X104179190Y-72288550D02*
X104210142Y-72226645D01*
X104210142Y-72226645D02*
X104210142Y-72195692D01*
X104210142Y-72195692D02*
X104179190Y-72133788D01*
X104179190Y-72133788D02*
X104117285Y-72102835D01*
X104117285Y-72102835D02*
X104024428Y-72102835D01*
X104024428Y-72102835D02*
X103962523Y-72071883D01*
X103962523Y-72071883D02*
X103931571Y-72009978D01*
X103931571Y-72009978D02*
X103931571Y-71979026D01*
X103931571Y-71979026D02*
X103962523Y-71917121D01*
X103962523Y-71917121D02*
X104024428Y-71886169D01*
X104024428Y-71886169D02*
X104117285Y-71886169D01*
X104117285Y-71886169D02*
X104179190Y-71917121D01*
X104488713Y-72319502D02*
X104488713Y-71886169D01*
X104488713Y-71669502D02*
X104457761Y-71700454D01*
X104457761Y-71700454D02*
X104488713Y-71731407D01*
X104488713Y-71731407D02*
X104519666Y-71700454D01*
X104519666Y-71700454D02*
X104488713Y-71669502D01*
X104488713Y-71669502D02*
X104488713Y-71731407D01*
X104891095Y-72319502D02*
X104829190Y-72288550D01*
X104829190Y-72288550D02*
X104798237Y-72257597D01*
X104798237Y-72257597D02*
X104767285Y-72195692D01*
X104767285Y-72195692D02*
X104767285Y-72009978D01*
X104767285Y-72009978D02*
X104798237Y-71948073D01*
X104798237Y-71948073D02*
X104829190Y-71917121D01*
X104829190Y-71917121D02*
X104891095Y-71886169D01*
X104891095Y-71886169D02*
X104983952Y-71886169D01*
X104983952Y-71886169D02*
X105045856Y-71917121D01*
X105045856Y-71917121D02*
X105076809Y-71948073D01*
X105076809Y-71948073D02*
X105107761Y-72009978D01*
X105107761Y-72009978D02*
X105107761Y-72195692D01*
X105107761Y-72195692D02*
X105076809Y-72257597D01*
X105076809Y-72257597D02*
X105045856Y-72288550D01*
X105045856Y-72288550D02*
X104983952Y-72319502D01*
X104983952Y-72319502D02*
X104891095Y-72319502D01*
X105386332Y-71886169D02*
X105386332Y-72319502D01*
X105386332Y-71948073D02*
X105417285Y-71917121D01*
X105417285Y-71917121D02*
X105479190Y-71886169D01*
X105479190Y-71886169D02*
X105572047Y-71886169D01*
X105572047Y-71886169D02*
X105633951Y-71917121D01*
X105633951Y-71917121D02*
X105664904Y-71979026D01*
X105664904Y-71979026D02*
X105664904Y-72319502D01*
X106810142Y-72319502D02*
X106438713Y-72319502D01*
X106624427Y-72319502D02*
X106624427Y-71669502D01*
X106624427Y-71669502D02*
X106562523Y-71762359D01*
X106562523Y-71762359D02*
X106500618Y-71824264D01*
X106500618Y-71824264D02*
X106438713Y-71855216D01*
X107088713Y-72257597D02*
X107119666Y-72288550D01*
X107119666Y-72288550D02*
X107088713Y-72319502D01*
X107088713Y-72319502D02*
X107057761Y-72288550D01*
X107057761Y-72288550D02*
X107088713Y-72257597D01*
X107088713Y-72257597D02*
X107088713Y-72319502D01*
X107738714Y-72319502D02*
X107367285Y-72319502D01*
X107552999Y-72319502D02*
X107552999Y-71669502D01*
X107552999Y-71669502D02*
X107491095Y-71762359D01*
X107491095Y-71762359D02*
X107429190Y-71824264D01*
X107429190Y-71824264D02*
X107367285Y-71855216D01*
D14*
X97453000Y-70721671D02*
X97381572Y-70793100D01*
X97381572Y-70793100D02*
X97167286Y-70864528D01*
X97167286Y-70864528D02*
X97024429Y-70864528D01*
X97024429Y-70864528D02*
X96810143Y-70793100D01*
X96810143Y-70793100D02*
X96667286Y-70650242D01*
X96667286Y-70650242D02*
X96595857Y-70507385D01*
X96595857Y-70507385D02*
X96524429Y-70221671D01*
X96524429Y-70221671D02*
X96524429Y-70007385D01*
X96524429Y-70007385D02*
X96595857Y-69721671D01*
X96595857Y-69721671D02*
X96667286Y-69578814D01*
X96667286Y-69578814D02*
X96810143Y-69435957D01*
X96810143Y-69435957D02*
X97024429Y-69364528D01*
X97024429Y-69364528D02*
X97167286Y-69364528D01*
X97167286Y-69364528D02*
X97381572Y-69435957D01*
X97381572Y-69435957D02*
X97453000Y-69507385D01*
X98738715Y-70864528D02*
X98738715Y-70078814D01*
X98738715Y-70078814D02*
X98667286Y-69935957D01*
X98667286Y-69935957D02*
X98524429Y-69864528D01*
X98524429Y-69864528D02*
X98238715Y-69864528D01*
X98238715Y-69864528D02*
X98095857Y-69935957D01*
X98738715Y-70793100D02*
X98595857Y-70864528D01*
X98595857Y-70864528D02*
X98238715Y-70864528D01*
X98238715Y-70864528D02*
X98095857Y-70793100D01*
X98095857Y-70793100D02*
X98024429Y-70650242D01*
X98024429Y-70650242D02*
X98024429Y-70507385D01*
X98024429Y-70507385D02*
X98095857Y-70364528D01*
X98095857Y-70364528D02*
X98238715Y-70293100D01*
X98238715Y-70293100D02*
X98595857Y-70293100D01*
X98595857Y-70293100D02*
X98738715Y-70221671D01*
X99453000Y-70864528D02*
X99453000Y-69864528D01*
X99453000Y-70007385D02*
X99524429Y-69935957D01*
X99524429Y-69935957D02*
X99667286Y-69864528D01*
X99667286Y-69864528D02*
X99881572Y-69864528D01*
X99881572Y-69864528D02*
X100024429Y-69935957D01*
X100024429Y-69935957D02*
X100095858Y-70078814D01*
X100095858Y-70078814D02*
X100095858Y-70864528D01*
X100095858Y-70078814D02*
X100167286Y-69935957D01*
X100167286Y-69935957D02*
X100310143Y-69864528D01*
X100310143Y-69864528D02*
X100524429Y-69864528D01*
X100524429Y-69864528D02*
X100667286Y-69935957D01*
X100667286Y-69935957D02*
X100738715Y-70078814D01*
X100738715Y-70078814D02*
X100738715Y-70864528D01*
X102024429Y-70793100D02*
X101881572Y-70864528D01*
X101881572Y-70864528D02*
X101595858Y-70864528D01*
X101595858Y-70864528D02*
X101453000Y-70793100D01*
X101453000Y-70793100D02*
X101381572Y-70650242D01*
X101381572Y-70650242D02*
X101381572Y-70078814D01*
X101381572Y-70078814D02*
X101453000Y-69935957D01*
X101453000Y-69935957D02*
X101595858Y-69864528D01*
X101595858Y-69864528D02*
X101881572Y-69864528D01*
X101881572Y-69864528D02*
X102024429Y-69935957D01*
X102024429Y-69935957D02*
X102095858Y-70078814D01*
X102095858Y-70078814D02*
X102095858Y-70221671D01*
X102095858Y-70221671D02*
X101381572Y-70364528D01*
X102738714Y-70864528D02*
X102738714Y-69864528D01*
X102738714Y-70150242D02*
X102810143Y-70007385D01*
X102810143Y-70007385D02*
X102881572Y-69935957D01*
X102881572Y-69935957D02*
X103024429Y-69864528D01*
X103024429Y-69864528D02*
X103167286Y-69864528D01*
X104310143Y-70864528D02*
X104310143Y-70078814D01*
X104310143Y-70078814D02*
X104238714Y-69935957D01*
X104238714Y-69935957D02*
X104095857Y-69864528D01*
X104095857Y-69864528D02*
X103810143Y-69864528D01*
X103810143Y-69864528D02*
X103667285Y-69935957D01*
X104310143Y-70793100D02*
X104167285Y-70864528D01*
X104167285Y-70864528D02*
X103810143Y-70864528D01*
X103810143Y-70864528D02*
X103667285Y-70793100D01*
X103667285Y-70793100D02*
X103595857Y-70650242D01*
X103595857Y-70650242D02*
X103595857Y-70507385D01*
X103595857Y-70507385D02*
X103667285Y-70364528D01*
X103667285Y-70364528D02*
X103810143Y-70293100D01*
X103810143Y-70293100D02*
X104167285Y-70293100D01*
X104167285Y-70293100D02*
X104310143Y-70221671D01*
X106167285Y-70864528D02*
X106167285Y-69364528D01*
X106167285Y-69364528D02*
X106667285Y-70435957D01*
X106667285Y-70435957D02*
X107167285Y-69364528D01*
X107167285Y-69364528D02*
X107167285Y-70864528D01*
X108095857Y-70864528D02*
X107953000Y-70793100D01*
X107953000Y-70793100D02*
X107881571Y-70721671D01*
X107881571Y-70721671D02*
X107810143Y-70578814D01*
X107810143Y-70578814D02*
X107810143Y-70150242D01*
X107810143Y-70150242D02*
X107881571Y-70007385D01*
X107881571Y-70007385D02*
X107953000Y-69935957D01*
X107953000Y-69935957D02*
X108095857Y-69864528D01*
X108095857Y-69864528D02*
X108310143Y-69864528D01*
X108310143Y-69864528D02*
X108453000Y-69935957D01*
X108453000Y-69935957D02*
X108524429Y-70007385D01*
X108524429Y-70007385D02*
X108595857Y-70150242D01*
X108595857Y-70150242D02*
X108595857Y-70578814D01*
X108595857Y-70578814D02*
X108524429Y-70721671D01*
X108524429Y-70721671D02*
X108453000Y-70793100D01*
X108453000Y-70793100D02*
X108310143Y-70864528D01*
X108310143Y-70864528D02*
X108095857Y-70864528D01*
X109881572Y-70864528D02*
X109881572Y-69364528D01*
X109881572Y-70793100D02*
X109738714Y-70864528D01*
X109738714Y-70864528D02*
X109453000Y-70864528D01*
X109453000Y-70864528D02*
X109310143Y-70793100D01*
X109310143Y-70793100D02*
X109238714Y-70721671D01*
X109238714Y-70721671D02*
X109167286Y-70578814D01*
X109167286Y-70578814D02*
X109167286Y-70150242D01*
X109167286Y-70150242D02*
X109238714Y-70007385D01*
X109238714Y-70007385D02*
X109310143Y-69935957D01*
X109310143Y-69935957D02*
X109453000Y-69864528D01*
X109453000Y-69864528D02*
X109738714Y-69864528D01*
X109738714Y-69864528D02*
X109881572Y-69935957D01*
X111238715Y-69864528D02*
X111238715Y-70864528D01*
X110595857Y-69864528D02*
X110595857Y-70650242D01*
X110595857Y-70650242D02*
X110667286Y-70793100D01*
X110667286Y-70793100D02*
X110810143Y-70864528D01*
X110810143Y-70864528D02*
X111024429Y-70864528D01*
X111024429Y-70864528D02*
X111167286Y-70793100D01*
X111167286Y-70793100D02*
X111238715Y-70721671D01*
X112167286Y-70864528D02*
X112024429Y-70793100D01*
X112024429Y-70793100D02*
X111953000Y-70650242D01*
X111953000Y-70650242D02*
X111953000Y-69364528D01*
X113310143Y-70793100D02*
X113167286Y-70864528D01*
X113167286Y-70864528D02*
X112881572Y-70864528D01*
X112881572Y-70864528D02*
X112738714Y-70793100D01*
X112738714Y-70793100D02*
X112667286Y-70650242D01*
X112667286Y-70650242D02*
X112667286Y-70078814D01*
X112667286Y-70078814D02*
X112738714Y-69935957D01*
X112738714Y-69935957D02*
X112881572Y-69864528D01*
X112881572Y-69864528D02*
X113167286Y-69864528D01*
X113167286Y-69864528D02*
X113310143Y-69935957D01*
X113310143Y-69935957D02*
X113381572Y-70078814D01*
X113381572Y-70078814D02*
X113381572Y-70221671D01*
X113381572Y-70221671D02*
X112667286Y-70364528D01*
D15*
%TO.C,C7*%
X116128000Y-59730836D02*
X116128000Y-59515164D01*
X116848000Y-59730836D02*
X116848000Y-59515164D01*
%TO.C,C8*%
X94268000Y-54251836D02*
X94268000Y-54036164D01*
X94988000Y-54251836D02*
X94988000Y-54036164D01*
%TO.C,R7*%
X125565500Y-46281258D02*
X125565500Y-45806742D01*
X126610500Y-46281258D02*
X126610500Y-45806742D01*
%TO.C,C10*%
X118645988Y-39607836D02*
X118645988Y-39392164D01*
X119365988Y-39607836D02*
X119365988Y-39392164D01*
%TO.C,D1*%
X123243000Y-45254000D02*
X123243000Y-47539000D01*
X123243000Y-47539000D02*
X124713000Y-47539000D01*
X124713000Y-47539000D02*
X124713000Y-45254000D01*
%TO.C,C5*%
X99178000Y-74589836D02*
X99178000Y-74374164D01*
X99898000Y-74589836D02*
X99898000Y-74374164D01*
%TO.C,C19*%
X110208152Y-60233000D02*
X110423824Y-60233000D01*
X110208152Y-60953000D02*
X110423824Y-60953000D01*
%TO.C,R1*%
X93994359Y-55891000D02*
X94301641Y-55891000D01*
X93994359Y-56651000D02*
X94301641Y-56651000D01*
%TO.C,C9*%
X109923824Y-35853000D02*
X109708152Y-35853000D01*
X109923824Y-36573000D02*
X109708152Y-36573000D01*
%TO.C,U2*%
X119027000Y-75526000D02*
X119027000Y-74726000D01*
X119027000Y-75526000D02*
X119027000Y-76326000D01*
X122147000Y-75526000D02*
X122147000Y-74726000D01*
X122147000Y-75526000D02*
X122147000Y-76326000D01*
%TO.C,C4*%
X94040164Y-56891000D02*
X94255836Y-56891000D01*
X94040164Y-57611000D02*
X94255836Y-57611000D01*
%TO.C,C20*%
X96791000Y-37079164D02*
X96791000Y-37294836D01*
X97511000Y-37079164D02*
X97511000Y-37294836D01*
%TO.C,C3*%
X94255836Y-58851000D02*
X94040164Y-58851000D01*
X94255836Y-59571000D02*
X94040164Y-59571000D01*
%TO.C,R2*%
X94301641Y-57851000D02*
X93994359Y-57851000D01*
X94301641Y-58611000D02*
X93994359Y-58611000D01*
%TO.C,C18*%
X98708152Y-60233000D02*
X98923824Y-60233000D01*
X98708152Y-60953000D02*
X98923824Y-60953000D01*
%TO.C,C34*%
X92038164Y-53243000D02*
X92253836Y-53243000D01*
X92038164Y-53963000D02*
X92253836Y-53963000D01*
%TO.C,C16*%
X124229080Y-72096000D02*
X123947920Y-72096000D01*
X124229080Y-73116000D02*
X123947920Y-73116000D01*
%TO.C,C15*%
X120446420Y-77936000D02*
X120727580Y-77936000D01*
X120446420Y-78956000D02*
X120727580Y-78956000D01*
%TO.C,C35*%
X114729000Y-61453420D02*
X114729000Y-61734580D01*
X115749000Y-61453420D02*
X115749000Y-61734580D01*
%TO.C,J4*%
X82648000Y-50424000D02*
X82648000Y-50724000D01*
X82648000Y-50424000D02*
X86868000Y-50424000D01*
X82648000Y-52344000D02*
X82648000Y-52724000D01*
X82648000Y-54344000D02*
X82648000Y-54724000D01*
X82648000Y-56344000D02*
X82648000Y-56724000D01*
X82648000Y-58344000D02*
X82648000Y-58724000D01*
X82648000Y-60344000D02*
X82648000Y-60724000D01*
X82648000Y-62344000D02*
X82648000Y-62724000D01*
X82648000Y-64344000D02*
X82648000Y-64724000D01*
X82648000Y-66344000D02*
X82648000Y-66724000D01*
X82648000Y-68344000D02*
X82648000Y-68724000D01*
X82648000Y-70344000D02*
X82648000Y-70644000D01*
X82648000Y-70644000D02*
X86868000Y-70644000D01*
X86868000Y-50424000D02*
X86868000Y-50724000D01*
X86868000Y-52344000D02*
X86868000Y-52724000D01*
X86868000Y-54344000D02*
X86868000Y-54724000D01*
X86868000Y-56344000D02*
X86868000Y-56724000D01*
X86868000Y-58344000D02*
X86868000Y-58724000D01*
X86868000Y-60344000D02*
X86868000Y-60724000D01*
X86868000Y-62344000D02*
X86868000Y-62724000D01*
X86868000Y-64344000D02*
X86868000Y-64724000D01*
X86868000Y-66344000D02*
X86868000Y-66724000D01*
X86868000Y-68344000D02*
X86868000Y-68724000D01*
X86868000Y-70344000D02*
X86868000Y-70644000D01*
%TO.C,R3*%
X98213641Y-74582000D02*
X97906359Y-74582000D01*
X98213641Y-75342000D02*
X97906359Y-75342000D01*
%TO.C,J5*%
X123038000Y-50424000D02*
X123038000Y-50724000D01*
X123038000Y-50424000D02*
X127258000Y-50424000D01*
X123038000Y-52344000D02*
X123038000Y-52724000D01*
X123038000Y-54344000D02*
X123038000Y-54724000D01*
X123038000Y-56344000D02*
X123038000Y-56724000D01*
X123038000Y-58344000D02*
X123038000Y-58724000D01*
X123038000Y-60344000D02*
X123038000Y-60724000D01*
X123038000Y-62344000D02*
X123038000Y-62724000D01*
X123038000Y-64344000D02*
X123038000Y-64724000D01*
X123038000Y-66344000D02*
X123038000Y-66724000D01*
X123038000Y-68344000D02*
X123038000Y-68724000D01*
X123038000Y-70344000D02*
X123038000Y-70644000D01*
X123038000Y-70644000D02*
X127258000Y-70644000D01*
X127258000Y-50424000D02*
X127258000Y-50724000D01*
X127258000Y-52344000D02*
X127258000Y-52724000D01*
X127258000Y-54344000D02*
X127258000Y-54724000D01*
X127258000Y-56344000D02*
X127258000Y-56724000D01*
X127258000Y-58344000D02*
X127258000Y-58724000D01*
X127258000Y-60344000D02*
X127258000Y-60724000D01*
X127258000Y-62344000D02*
X127258000Y-62724000D01*
X127258000Y-64344000D02*
X127258000Y-64724000D01*
X127258000Y-66344000D02*
X127258000Y-66724000D01*
X127258000Y-68344000D02*
X127258000Y-68724000D01*
X127258000Y-70344000D02*
X127258000Y-70644000D01*
%TO.C,U1*%
X122528500Y-75526000D02*
X122528500Y-74726000D01*
X122528500Y-75526000D02*
X122528500Y-76326000D01*
X125648500Y-75526000D02*
X125648500Y-74726000D01*
X125648500Y-75526000D02*
X125648500Y-76326000D01*
%TO.C,C21*%
X94265988Y-47295164D02*
X94265988Y-47510836D01*
X94985988Y-47295164D02*
X94985988Y-47510836D01*
%TO.C,C17*%
X123947920Y-77936000D02*
X124229080Y-77936000D01*
X123947920Y-78956000D02*
X124229080Y-78956000D01*
%TO.C,C13*%
X93465408Y-41643000D02*
X93746568Y-41643000D01*
X93465408Y-42663000D02*
X93746568Y-42663000D01*
%TO.C,C1*%
X92038164Y-47843000D02*
X92253836Y-47843000D01*
X92038164Y-48563000D02*
X92253836Y-48563000D01*
%TO.C,C36*%
X119752000Y-39723420D02*
X119752000Y-40004580D01*
X120772000Y-39723420D02*
X120772000Y-40004580D01*
%TO.C,C11*%
X118645988Y-52010836D02*
X118645988Y-51795164D01*
X119365988Y-52010836D02*
X119365988Y-51795164D01*
%TO.C,R14*%
X100382359Y-35833000D02*
X100689641Y-35833000D01*
X100382359Y-36593000D02*
X100689641Y-36593000D01*
%TO.C,R6*%
X101742641Y-73574000D02*
X101435359Y-73574000D01*
X101742641Y-74334000D02*
X101435359Y-74334000D01*
%TO.C,C14*%
X120727580Y-72096000D02*
X120446420Y-72096000D01*
X120727580Y-73116000D02*
X120446420Y-73116000D01*
%TO.C,U4*%
X96705988Y-38293000D02*
X96705988Y-39243000D01*
X96705988Y-58513000D02*
X96705988Y-57563000D01*
X97655988Y-38293000D02*
X96705988Y-38293000D01*
X97655988Y-58513000D02*
X96705988Y-58513000D01*
X115975988Y-38293000D02*
X116925988Y-38293000D01*
X115975988Y-58513000D02*
X116925988Y-58513000D01*
X116925988Y-38293000D02*
X116925988Y-39243000D01*
X116925988Y-58513000D02*
X116925988Y-57563000D01*
%TO.C,C22*%
X104923824Y-35853000D02*
X104708152Y-35853000D01*
X104923824Y-36573000D02*
X104708152Y-36573000D01*
%TO.C,C12*%
X105208152Y-60233000D02*
X105423824Y-60233000D01*
X105208152Y-60953000D02*
X105423824Y-60953000D01*
%TD*%
M02*
