%TF.GenerationSoftware,KiCad,Pcbnew,9.0.4*%
%TF.CreationDate,2025-10-08T12:20:31+02:00*%
%TF.ProjectId,cansat-camera-pcb,63616e73-6174-42d6-9361-6d6572612d70,1.0*%
%TF.SameCoordinates,Original*%
%TF.FileFunction,Copper,L3,Inr*%
%TF.FilePolarity,Positive*%
%FSLAX46Y46*%
G04 Gerber Fmt 4.6, Leading zero omitted, Abs format (unit mm)*
G04 Created by KiCad (PCBNEW 9.0.4) date 2025-10-08 12:20:31*
%MOMM*%
%LPD*%
G01*
G04 APERTURE LIST*
%TA.AperFunction,ViaPad*%
%ADD10C,0.600000*%
%TD*%
%TA.AperFunction,ViaPad*%
%ADD11C,0.500000*%
%TD*%
%TA.AperFunction,ViaPad*%
%ADD12C,1.000000*%
%TD*%
%TA.AperFunction,ViaPad*%
%ADD13C,0.800000*%
%TD*%
%TA.AperFunction,Conductor*%
%ADD14C,0.200000*%
%TD*%
%TA.AperFunction,Conductor*%
%ADD15C,0.300000*%
%TD*%
G04 APERTURE END LIST*
D10*
%TO.N,GND*%
X60070000Y-118695000D03*
X92590000Y-108615000D03*
D11*
X73472012Y-114491000D03*
D10*
X60070000Y-121290000D03*
X50210000Y-115420000D03*
D11*
X87662000Y-116291000D03*
D10*
X89010000Y-140895000D03*
D12*
X55815000Y-134620000D03*
D11*
X71452954Y-117130292D03*
D10*
X72200000Y-124400000D03*
X62330000Y-138490000D03*
X75400000Y-124400000D03*
X51830000Y-112110000D03*
X76500000Y-130200000D03*
X85798000Y-142945000D03*
X75000000Y-130200000D03*
X93140000Y-140895000D03*
X79189000Y-151111000D03*
X87413000Y-128382000D03*
X60073000Y-109990000D03*
X89010000Y-144900000D03*
D11*
X62862000Y-105315000D03*
D10*
X89010000Y-148905000D03*
X86840000Y-138600000D03*
X74000000Y-128400000D03*
D11*
X83137000Y-127787000D03*
D10*
X77200000Y-125200000D03*
X55210000Y-116120000D03*
D11*
X68490000Y-111130000D03*
D12*
X92035000Y-110441000D03*
D10*
X62234500Y-141359500D03*
D11*
X61779000Y-132961500D03*
D10*
X61934500Y-142947500D03*
X89391000Y-122436000D03*
D11*
X91555000Y-116130000D03*
D13*
X87868000Y-136287000D03*
D10*
X70600000Y-125200000D03*
D13*
X60097000Y-125500000D03*
D10*
X55305000Y-140770000D03*
D13*
X59990000Y-126856500D03*
D11*
X80805000Y-128290000D03*
D10*
X56620000Y-146210000D03*
X81300000Y-122510000D03*
X70600000Y-124400000D03*
D11*
X81200000Y-118127000D03*
X75452012Y-103981000D03*
D10*
X57500000Y-106270000D03*
X60070000Y-116100000D03*
X74600000Y-124400000D03*
D12*
X55815000Y-126620000D03*
D11*
X66640000Y-119770000D03*
X72672012Y-117691000D03*
X69354000Y-128933000D03*
X67860000Y-116400000D03*
D12*
X51645000Y-134620000D03*
D10*
X83402084Y-147260833D03*
X66992012Y-103711000D03*
X57760000Y-113790000D03*
D11*
X72655000Y-151140000D03*
D10*
X70600000Y-130200000D03*
X62330000Y-135930000D03*
X74200000Y-130200000D03*
D11*
X70452012Y-103981000D03*
D10*
X86353000Y-147042000D03*
D11*
X71872012Y-114491000D03*
D10*
X87378000Y-120465000D03*
X91540000Y-146235000D03*
D11*
X61530000Y-117854000D03*
D10*
X86783000Y-126622000D03*
D11*
X74409000Y-151140000D03*
D10*
X76500000Y-129400000D03*
X86097000Y-141359000D03*
D11*
X81952012Y-103981000D03*
D10*
X66680000Y-142160000D03*
X89500000Y-105915000D03*
X77100000Y-128400000D03*
D12*
X96205000Y-130620000D03*
D10*
X80850000Y-142160000D03*
X87560000Y-117955000D03*
X70600000Y-131000000D03*
X94450000Y-143585000D03*
X74200000Y-131000000D03*
X66475000Y-147215000D03*
D11*
X63875000Y-147668000D03*
D10*
X59310000Y-144900000D03*
X73000000Y-125200000D03*
D11*
X86582012Y-109611000D03*
X79060000Y-114590000D03*
D10*
X81310000Y-107820000D03*
D12*
X92035000Y-132620000D03*
D10*
X59310000Y-140770000D03*
X73140000Y-122510000D03*
D11*
X66640000Y-112370000D03*
D10*
X71400000Y-125200000D03*
D12*
X55815000Y-136620000D03*
D10*
X62489500Y-147041500D03*
X67450000Y-129930000D03*
X71400000Y-124400000D03*
X75000000Y-131000000D03*
D11*
X85582012Y-117571000D03*
D10*
X72200000Y-125200000D03*
D11*
X61362012Y-124461000D03*
D10*
X75400000Y-125200000D03*
X77200000Y-124400000D03*
X73800000Y-125200000D03*
D12*
X92035000Y-130620000D03*
D11*
X77210000Y-112880000D03*
D10*
X65190000Y-111920000D03*
X71400000Y-131000000D03*
D11*
X74992012Y-128201000D03*
D10*
X65190000Y-107820000D03*
X87467012Y-122341000D03*
X81920000Y-130180000D03*
X73760000Y-138650000D03*
X59310000Y-149030000D03*
X97270000Y-140895000D03*
X66670000Y-138520000D03*
D11*
X88622000Y-110891000D03*
X89277000Y-107228000D03*
D10*
X62890000Y-128720000D03*
D13*
X86798000Y-132842000D03*
D10*
X97520000Y-115215000D03*
X51300000Y-140770000D03*
X74200000Y-129400000D03*
X61130000Y-104090000D03*
X76500000Y-131000000D03*
X86190000Y-104295000D03*
X53970000Y-143300000D03*
D11*
X74880000Y-109720000D03*
D10*
X74600000Y-125200000D03*
D12*
X55815000Y-124620000D03*
D11*
X67850000Y-120170000D03*
D10*
X75000000Y-129400000D03*
D12*
X96205000Y-132620000D03*
D11*
X81772012Y-125610000D03*
D13*
X94094000Y-135072000D03*
D10*
X73000000Y-124400000D03*
X89626000Y-135667000D03*
X54530000Y-109020000D03*
D11*
X87317000Y-108188000D03*
X61362012Y-112111000D03*
D10*
X71400000Y-129400000D03*
D11*
X83970000Y-149684000D03*
D12*
X51645000Y-136620000D03*
D10*
X71400000Y-130200000D03*
X73800000Y-124400000D03*
X95340000Y-111585000D03*
X80850000Y-138700000D03*
D11*
%TO.N,/RST*%
X85537000Y-112677000D03*
D10*
X92035000Y-114759000D03*
D11*
%TO.N,+3.3V*%
X63822000Y-105315000D03*
X69357000Y-129739000D03*
X86337000Y-108218000D03*
X61362012Y-113071000D03*
X69492012Y-103981000D03*
X61779000Y-130419000D03*
X86582012Y-110571000D03*
X61362012Y-125421000D03*
D13*
X88348000Y-132842000D03*
D11*
X80992012Y-103981000D03*
X64032000Y-118332000D03*
X74492012Y-103981000D03*
D13*
X59990000Y-137026500D03*
D11*
X85582012Y-116611000D03*
X75816952Y-132198952D03*
D10*
X85917012Y-122341000D03*
D11*
X83137000Y-126827000D03*
D13*
%TO.N,VCC*%
X87868000Y-134737000D03*
D11*
%TO.N,/camera/2.8V_camera*%
X83970000Y-148724000D03*
X78378000Y-148376000D03*
%TO.N,/DCMI_PIXCLK*%
X71695000Y-151140000D03*
X79722012Y-104116000D03*
X72175000Y-145118000D03*
%TO.N,/OV5640_RESET*%
X64917000Y-120941000D03*
X77775000Y-145118000D03*
X77236000Y-151140000D03*
%TO.N,/SWCLK*%
X61779000Y-131941500D03*
%TO.N,/BOOT0*%
X79785000Y-128290000D03*
%TO.N,/SWDIO*%
X61779000Y-129399000D03*
%TO.N,/LTE_reset*%
X86778000Y-125227000D03*
D12*
X96205000Y-128620000D03*
%TO.N,/LTE_pwrkey*%
X92035000Y-128620000D03*
D11*
X86754000Y-124285000D03*
%TO.N,/DCMI_VSYNC*%
X77075000Y-145118000D03*
X72022012Y-132736000D03*
%TO.N,/DCMI_D7*%
X74975000Y-145118000D03*
X83134512Y-122841000D03*
%TO.N,/I2C1_SCL*%
X78475000Y-145118000D03*
%TO.N,/DCMI_D2*%
X68675000Y-145118000D03*
X71592000Y-135824000D03*
X72722012Y-132736000D03*
D10*
%TO.N,/OV5640_PWDN*%
X68950000Y-135938000D03*
X70079500Y-134785500D03*
D11*
X64917000Y-120241000D03*
X76181000Y-151140000D03*
X76375000Y-145118000D03*
D10*
%TO.N,/camera/DATA1*%
X62804500Y-150443000D03*
X68675000Y-150984000D03*
D11*
%TO.N,/DCMI_D4*%
X71475000Y-145118000D03*
X81230500Y-145609500D03*
X83134512Y-123841000D03*
%TO.N,/DCMI_D6*%
X73575000Y-145118000D03*
X85134512Y-123346000D03*
%TO.N,/DCMI_D1*%
X64917000Y-119541000D03*
X69375000Y-145118000D03*
%TO.N,/DCMI_HYSNC*%
X75675000Y-145118000D03*
X80722012Y-106547000D03*
%TO.N,/DCMI_D0*%
X70775000Y-145118000D03*
X64917000Y-118841000D03*
%TO.N,/DCMI_D3*%
X70075000Y-145118000D03*
X72087000Y-136733000D03*
X73422012Y-132736000D03*
%TO.N,/DCMI_D5*%
X72875000Y-145118000D03*
D10*
X68722012Y-128120000D03*
D11*
%TO.N,/I2C1_SDA*%
X79175000Y-145118000D03*
%TO.N,/FMC_SDCKE0*%
X82920000Y-110841000D03*
%TO.N,/FMC_A3*%
X76672012Y-117691000D03*
%TO.N,/FMC_A9*%
X73222012Y-108210000D03*
X75072012Y-114491000D03*
%TO.N,/FMC_D10*%
X67723012Y-107090000D03*
%TO.N,/FMC_D1*%
X69305765Y-119842268D03*
X64977057Y-113790000D03*
%TO.N,/FMC_A6*%
X76680000Y-112140000D03*
%TO.N,/FMC_D6*%
X72672012Y-118491000D03*
X70604544Y-108210000D03*
X70121862Y-106790000D03*
%TO.N,/FMC_D12*%
X66623012Y-107090000D03*
%TO.N,/FMC_A8*%
X75872012Y-112891000D03*
%TO.N,/FMC_NBL1*%
X79730000Y-123440000D03*
X78380000Y-110680000D03*
X76430000Y-110680000D03*
%TO.N,/FMC_D0*%
X64250000Y-113260000D03*
%TO.N,/FMC_SDNRAS*%
X74272012Y-118491000D03*
X76340000Y-107430000D03*
X77405000Y-111355000D03*
%TO.N,/FMC_D2*%
X71070000Y-118500000D03*
%TO.N,/FMC_D11*%
X71872012Y-113691000D03*
%TO.N,/FMC_SDNE0*%
X82920000Y-111842629D03*
X80860384Y-114930384D03*
X75072012Y-119291000D03*
%TO.N,/FMC_A1*%
X75872012Y-118491000D03*
%TO.N,/FMC_SDNWE*%
X76660000Y-120630000D03*
X82920000Y-112606003D03*
X81660000Y-114930384D03*
%TO.N,/FMC_D3*%
X67772012Y-124830000D03*
%TO.N,/FMC_A4*%
X76672012Y-114491000D03*
%TO.N,/FMC_A10*%
X75872012Y-119291000D03*
X73311597Y-111908403D03*
X72460000Y-108210000D03*
X75490000Y-117140000D03*
%TO.N,/FMC_A11*%
X75070000Y-113680000D03*
%TO.N,/FMC_D15*%
X64940000Y-110450000D03*
%TO.N,/FMC_D8*%
X68824012Y-106790000D03*
%TO.N,/FMC_SDNCAS*%
X76230000Y-122750000D03*
X74272012Y-117691000D03*
%TO.N,/FMC_A5*%
X76672012Y-113691000D03*
%TO.N,/FMC_D14*%
X64160000Y-109890000D03*
%TO.N,/FMC_D13*%
X71072012Y-113691000D03*
%TO.N,/FMC_A7*%
X75872012Y-113691000D03*
%TO.N,/FMC_A0*%
X76210000Y-117160000D03*
X77590000Y-121140000D03*
%TO.N,/FMC_D5*%
X71206732Y-106693268D03*
X72672012Y-119291000D03*
%TO.N,/FMC_D4*%
X71330000Y-108210000D03*
X72280000Y-104080000D03*
X71872012Y-118491000D03*
%TO.N,/FMC_NBL0*%
X73472012Y-118491000D03*
%TO.N,/FMC_D7*%
X73472012Y-119291000D03*
X68630000Y-103640000D03*
X69460000Y-107090000D03*
%TO.N,/FMC_A2*%
X77253183Y-118691000D03*
%TO.N,/FMC_SDCLK*%
X74272012Y-115400000D03*
X74272012Y-113691000D03*
D12*
%TO.N,/UART4_RX*%
X55815000Y-130620000D03*
D10*
X57607000Y-127621000D03*
D11*
%TO.N,/FMC_A12*%
X75072012Y-112891000D03*
X61240000Y-114340000D03*
%TO.N,/FMC_D9*%
X72672012Y-113691000D03*
%TO.N,/FMC_BS1*%
X64917000Y-116240000D03*
X66560000Y-116220000D03*
X75072012Y-118491000D03*
%TO.N,/FMC_BS0*%
X64917000Y-115512706D03*
%TO.N,/I2C4_SDA*%
X64160000Y-111860000D03*
D12*
X51645000Y-118620000D03*
D11*
%TO.N,/I2C4_SCL*%
X58005000Y-120620000D03*
D12*
X51645000Y-120620000D03*
D11*
%TO.N,/camera/XCLK*%
X73755000Y-148087000D03*
D10*
%TO.N,+3.3VA*%
X60684500Y-141359500D03*
D11*
X66640000Y-118810000D03*
X67850000Y-119210000D03*
X80290000Y-121440000D03*
X73221013Y-110262183D03*
D13*
X94094000Y-136622000D03*
D10*
X61504500Y-150443000D03*
D11*
X78256000Y-151140000D03*
D10*
X62884500Y-142947500D03*
X86748000Y-142945000D03*
D11*
X73472012Y-117691000D03*
D10*
X84547000Y-141359000D03*
X84848000Y-142945000D03*
D11*
X79060000Y-115550000D03*
X79022012Y-130510000D03*
D10*
X60984500Y-142947500D03*
D11*
X75111000Y-148669000D03*
X66670000Y-114755000D03*
X67860000Y-117340000D03*
X71872012Y-117691000D03*
%TD*%
D14*
%TO.N,/DCMI_PIXCLK*%
X72175000Y-145604000D02*
X72175000Y-145118000D01*
X85766000Y-123156000D02*
X85766000Y-134496000D01*
X84986000Y-122376000D02*
X85766000Y-123156000D01*
X81532000Y-147740000D02*
X74311000Y-147740000D01*
X83868000Y-145404000D02*
X81532000Y-147740000D01*
X82021000Y-105479000D02*
X84986000Y-108444000D01*
X79722012Y-104769012D02*
X80432000Y-105479000D01*
X84986000Y-108444000D02*
X84986000Y-122376000D01*
X79722012Y-104116000D02*
X79722012Y-104769012D01*
X83868000Y-136394000D02*
X83868000Y-145404000D01*
X80432000Y-105479000D02*
X82021000Y-105479000D01*
X85766000Y-134496000D02*
X83868000Y-136394000D01*
X74311000Y-147740000D02*
X72175000Y-145604000D01*
%TO.N,/OV5640_RESET*%
X65287000Y-120941000D02*
X65601000Y-121255000D01*
X64917000Y-120941000D02*
X65287000Y-120941000D01*
X77775000Y-143686000D02*
X77775000Y-145118000D01*
X65601000Y-131512000D02*
X77775000Y-143686000D01*
X65601000Y-121255000D02*
X65601000Y-131512000D01*
D15*
%TO.N,/LTE_pwrkey*%
X90106000Y-127638000D02*
X91088000Y-128620000D01*
X88543000Y-124285000D02*
X90106000Y-125848000D01*
X91088000Y-128620000D02*
X92035000Y-128620000D01*
X86754000Y-124285000D02*
X88543000Y-124285000D01*
X90106000Y-125848000D02*
X90106000Y-127638000D01*
D14*
%TO.N,/DCMI_D7*%
X74975000Y-146155000D02*
X75539000Y-146719000D01*
X75539000Y-146719000D02*
X81153000Y-146719000D01*
X74975000Y-145118000D02*
X74975000Y-146155000D01*
X84835000Y-124541488D02*
X83134512Y-122841000D01*
X82906000Y-135945000D02*
X84835000Y-134016000D01*
X82906000Y-144966000D02*
X82906000Y-135945000D01*
X81153000Y-146719000D02*
X82906000Y-144966000D01*
X84835000Y-134016000D02*
X84835000Y-124541488D01*
%TO.N,/DCMI_D2*%
X72722012Y-134693988D02*
X71592000Y-135824000D01*
X72722012Y-132736000D02*
X72722012Y-134693988D01*
%TO.N,/OV5640_PWDN*%
X68950000Y-135938000D02*
X76375000Y-143363000D01*
X76375000Y-143363000D02*
X76375000Y-145118000D01*
X70079500Y-134785500D02*
X66234000Y-130940000D01*
X65481000Y-120241000D02*
X66234000Y-120994000D01*
X66234000Y-130940000D02*
X66234000Y-120994000D01*
X64917000Y-120241000D02*
X65481000Y-120241000D01*
%TO.N,/DCMI_D4*%
X84426000Y-125132488D02*
X83134512Y-123841000D01*
X84426000Y-133695000D02*
X84426000Y-125132488D01*
X81230500Y-145609500D02*
X82424000Y-144416000D01*
X82424000Y-135697000D02*
X84426000Y-133695000D01*
X82424000Y-144416000D02*
X82424000Y-135697000D01*
%TO.N,/DCMI_D6*%
X73575000Y-145750000D02*
X73575000Y-145118000D01*
X85268000Y-123479488D02*
X85268000Y-134259000D01*
X85268000Y-134259000D02*
X83377000Y-136150000D01*
X75085000Y-147260000D02*
X73575000Y-145750000D01*
X83377000Y-145200000D02*
X81317000Y-147260000D01*
X83377000Y-136150000D02*
X83377000Y-145200000D01*
X81317000Y-147260000D02*
X75085000Y-147260000D01*
X85134512Y-123346000D02*
X85268000Y-123479488D01*
%TO.N,/DCMI_D1*%
X69375000Y-143632000D02*
X69375000Y-145118000D01*
X64027000Y-138284000D02*
X69375000Y-143632000D01*
X64917000Y-119541000D02*
X64803000Y-119541000D01*
X64803000Y-119541000D02*
X64027000Y-120317000D01*
X64027000Y-120317000D02*
X64027000Y-138284000D01*
%TO.N,/DCMI_HYSNC*%
X81945000Y-143789000D02*
X79612000Y-146122000D01*
X83992000Y-133405000D02*
X81945000Y-135452000D01*
X79612000Y-146122000D02*
X76070000Y-146122000D01*
X84575000Y-120459000D02*
X82448000Y-122586000D01*
X82448000Y-122586000D02*
X82448000Y-124123000D01*
X82448000Y-124123000D02*
X83992000Y-125667000D01*
X84575000Y-108836000D02*
X84575000Y-120459000D01*
X82286000Y-106547000D02*
X84575000Y-108836000D01*
X83992000Y-125667000D02*
X83992000Y-133405000D01*
X80722012Y-106547000D02*
X82286000Y-106547000D01*
X76070000Y-146122000D02*
X75675000Y-145727000D01*
X81945000Y-135452000D02*
X81945000Y-143789000D01*
X75675000Y-145727000D02*
X75675000Y-145118000D01*
%TO.N,/DCMI_D0*%
X70775000Y-145838000D02*
X70775000Y-145118000D01*
X64507000Y-118841000D02*
X63607000Y-119741000D01*
X66535000Y-146162000D02*
X70451000Y-146162000D01*
X70451000Y-146162000D02*
X70775000Y-145838000D01*
X63607000Y-143234000D02*
X66535000Y-146162000D01*
X64917000Y-118841000D02*
X64507000Y-118841000D01*
X63607000Y-119741000D02*
X63607000Y-143234000D01*
%TO.N,/DCMI_D3*%
X73422012Y-135397988D02*
X72087000Y-136733000D01*
X73422012Y-132736000D02*
X73422012Y-135397988D01*
%TO.N,/FMC_A9*%
X75072012Y-114491000D02*
X74251000Y-114491000D01*
X73230000Y-108830000D02*
X73230000Y-108217988D01*
X72640000Y-112880000D02*
X72640000Y-109420000D01*
X74251000Y-114491000D02*
X72640000Y-112880000D01*
X73230000Y-108217988D02*
X73222012Y-108210000D01*
X72640000Y-109420000D02*
X73230000Y-108830000D01*
%TO.N,/FMC_D1*%
X68030000Y-113790000D02*
X64977057Y-113790000D01*
X68640000Y-114400000D02*
X68030000Y-113790000D01*
X69303856Y-118191244D02*
X68640000Y-117527388D01*
X69305765Y-119842268D02*
X69303856Y-119840359D01*
X69303856Y-119840359D02*
X69303856Y-118191244D01*
X68640000Y-117527388D02*
X68640000Y-114400000D01*
%TO.N,/FMC_D6*%
X70519000Y-118728232D02*
X70841768Y-119051000D01*
X70519000Y-117705088D02*
X70519000Y-118728232D01*
X70030000Y-117216088D02*
X70519000Y-117705088D01*
X70600000Y-108217357D02*
X70600000Y-112430000D01*
X70030000Y-113000000D02*
X70030000Y-117216088D01*
X72112012Y-119051000D02*
X72672012Y-118491000D01*
X70600000Y-112430000D02*
X70030000Y-113000000D01*
X70604544Y-108212813D02*
X70600000Y-108217357D01*
X70841768Y-119051000D02*
X72112012Y-119051000D01*
%TO.N,/FMC_SDNRAS*%
X74272012Y-118467988D02*
X74498000Y-118242000D01*
X74272012Y-118491000D02*
X74272012Y-118467988D01*
X74500244Y-118242000D02*
X74823012Y-117919232D01*
X77761000Y-111711000D02*
X77405000Y-111355000D01*
X74823012Y-116816988D02*
X76598000Y-115042000D01*
X76900244Y-115042000D02*
X77761000Y-114181244D01*
X74498000Y-118242000D02*
X74500244Y-118242000D01*
X77761000Y-114181244D02*
X77761000Y-111711000D01*
X74823012Y-117919232D02*
X74823012Y-116816988D01*
X76598000Y-115042000D02*
X76900244Y-115042000D01*
%TO.N,/FMC_SDNE0*%
X80860384Y-116469616D02*
X80860384Y-114930384D01*
X75651012Y-119870000D02*
X77460000Y-119870000D01*
X77460000Y-119870000D02*
X80860384Y-116469616D01*
X75072012Y-119291000D02*
X75651012Y-119870000D01*
%TO.N,/FMC_SDNWE*%
X76740276Y-120549724D02*
X77440276Y-120549724D01*
X77440276Y-120549724D02*
X81660000Y-116330000D01*
X76660000Y-120630000D02*
X76740276Y-120549724D01*
X81660000Y-116330000D02*
X81660000Y-114940000D01*
%TO.N,/FMC_A10*%
X75490000Y-117140000D02*
X75490000Y-117288220D01*
X76423012Y-118221232D02*
X76423012Y-118740000D01*
X75490000Y-117288220D02*
X76423012Y-118221232D01*
X76423012Y-118740000D02*
X75872012Y-119291000D01*
%TO.N,/FMC_D5*%
X71206732Y-106693268D02*
X71206732Y-107173268D01*
X69870000Y-112320000D02*
X69560000Y-112630000D01*
X70714667Y-119490999D02*
X72472013Y-119490999D01*
X70109000Y-117862188D02*
X70109000Y-118885332D01*
X69560000Y-112630000D02*
X69560000Y-117313188D01*
X70109000Y-118885332D02*
X70714667Y-119490999D01*
X70510000Y-107510000D02*
X69870000Y-108150000D01*
X69870000Y-108150000D02*
X69870000Y-112320000D01*
X71206732Y-107173268D02*
X70870000Y-107510000D01*
X69560000Y-117313188D02*
X70109000Y-117862188D01*
X72472013Y-119490999D02*
X72672012Y-119291000D01*
X70870000Y-107510000D02*
X70510000Y-107510000D01*
%TO.N,/FMC_D4*%
X71270000Y-108270000D02*
X71270000Y-112672244D01*
X71270000Y-112672244D02*
X70521012Y-113421232D01*
X70521012Y-113421232D02*
X70521012Y-117140000D01*
X71330000Y-108210000D02*
X71270000Y-108270000D01*
X70521012Y-117140000D02*
X71872012Y-118491000D01*
%TO.N,/FMC_D7*%
X73472012Y-119291000D02*
X72871013Y-119891999D01*
X69110000Y-117430288D02*
X69110000Y-107660000D01*
X70548567Y-119891999D02*
X69704856Y-119048288D01*
X69704856Y-118025144D02*
X69110000Y-117430288D01*
X69704856Y-119048288D02*
X69704856Y-118025144D01*
X69110000Y-107660000D02*
X69460000Y-107310000D01*
X69460000Y-107310000D02*
X69460000Y-107210000D01*
X72871013Y-119891999D02*
X70548567Y-119891999D01*
%TD*%
M02*
