M48
; DRILL file {KiCad 9.0.6} date 2026-03-02T09:31:02+0100
; FORMAT={-:-/ absolute / metric / decimal}
; #@! TF.CreationDate,2026-03-02T09:31:02+01:00
; #@! TF.GenerationSoftware,Kicad,Pcbnew,9.0.6
; #@! TF.FileFunction,Plated,1,8,PTH
FMAT,2
METRIC
; #@! TA.AperFunction,Plated,PTH,ViaDrill
T1C0.300
; #@! TA.AperFunction,Plated,PTH,ViaDrill
T2C0.400
; #@! TA.AperFunction,Plated,PTH,ViaDrill
T3C0.500
%
G90
G05
T1
X82.673Y-51.534
X82.673Y-53.534
X83.906Y-49.945
X88.28Y-48.985
X88.28Y-49.945
X89.228Y-65.564
X89.253Y-63.539
X91.666Y-53.603
X92.626Y-48.203
X92.828Y-44.639
X92.831Y-42.153
X92.853Y-45.164
X92.853Y-45.7
X92.917Y-46.196
X93.256Y-46.717
X93.638Y-56.271
X93.668Y-57.251
X94.153Y-40.653
X94.328Y-78.709
X94.381Y-42.153
X94.626Y-46.923
X94.626Y-47.883
X94.626Y-53.723
X94.628Y-54.624
X94.628Y-59.211
X95.003Y-41.153
X96.078Y-57.989
X97.151Y-36.707
X97.151Y-37.667
X97.303Y-41.653
X97.358Y-52.154
X97.358Y-53.174
X97.358Y-53.734
X97.403Y-44.139
X97.428Y-59.264
X97.6Y-51.317
X98.336Y-60.593
X98.56Y-36.46
X99.296Y-60.593
X99.566Y-57.915
X100.026Y-36.213
X100.103Y-80.504
X100.318Y-48.409
X100.553Y-62.039
X100.703Y-78.339
X101.128Y-82.034
X101.228Y-80.504
X101.248Y-46.424
X101.248Y-47.384
X101.248Y-50.394
X101.278Y-48.409
X101.566Y-38.991
X101.718Y-80.863
X102.066Y-36.386
X103.238Y-78.324
X103.453Y-41.489
X103.616Y-46.003
X103.616Y-46.803
X103.616Y-50.003
X103.616Y-50.803
X103.618Y-51.604
X104.008Y-57.934
X104.336Y-36.213
X104.378Y-55.264
X104.416Y-45.203
X104.416Y-46.003
X104.416Y-46.803
X104.416Y-50.003
X104.416Y-50.803
X104.416Y-51.603
X104.553Y-57.869
X104.662Y-69.339
X104.836Y-60.593
X104.853Y-41.524
X105.128Y-78.324
X105.216Y-45.203
X105.216Y-46.003
X105.216Y-46.803
X105.216Y-50.003
X105.216Y-50.803
X105.216Y-51.603
X105.296Y-36.213
X105.718Y-78.324
X105.796Y-60.593
X105.808Y-73.984
X106.016Y-45.203
X106.016Y-46.003
X106.016Y-46.803
X106.016Y-51.603
X106.153Y-65.339
X106.153Y-67.989
X106.353Y-54.469
X106.353Y-55.109
X106.453Y-61.759
X106.46Y-48.914
X106.816Y-45.203
X106.816Y-46.003
X106.816Y-50.003
X106.898Y-73.034
X106.953Y-61.739
X107.128Y-68.539
X107.167Y-43.397
X107.616Y-45.203
X107.616Y-46.003
X107.616Y-46.803
X107.802Y-56.388
X107.968Y-74.024
X107.988Y-73.024
X108.066Y-38.89
X108.128Y-62.039
X108.198Y-78.324
X108.253Y-56.839
X108.403Y-42.374
X108.418Y-50.004
X108.678Y-77.339
X109.218Y-46.814
X109.336Y-36.213
X109.553Y-57.144
X109.553Y-57.789
X109.703Y-76.514
X109.836Y-60.593
X109.954Y-42.438
X110.016Y-46.003
X110.016Y-50.003
X110.016Y-51.603
X110.115Y-54.026
X110.296Y-36.213
X110.554Y-54.465
X110.796Y-60.593
X111.566Y-38.89
X111.578Y-61.289
X111.748Y-57.934
X111.903Y-67.889
X111.941Y-62.401
X112.087Y-63.649
X112.353Y-43.609
X112.353Y-44.569
X112.368Y-46.424
X112.378Y-47.384
X112.941Y-52.826
X113.028Y-60.214
X113.066Y-51.976
X113.107Y-63.649
X113.698Y-49.139
X113.703Y-51.739
X114.138Y-63.649
X114.154Y-46.09
X115.153Y-56.389
X115.158Y-63.649
X115.239Y-62.369
X115.566Y-38.849
X115.588Y-51.089
X116.199Y-56.653
X116.228Y-51.089
X116.278Y-46.153
X116.303Y-50.164
X116.308Y-47.254
X116.326Y-49.136
X116.36Y-41.153
X116.378Y-48.639
X116.488Y-59.143
X116.488Y-60.103
X117.478Y-57.649
X117.868Y-78.846
X118.628Y-45.653
X118.678Y-55.154
X118.678Y-46.653
X119.006Y-39.02
X119.006Y-39.98
X119.006Y-51.423
X119.006Y-52.383
X120.262Y-39.089
X120.278Y-43.714
X120.587Y-74.388
X121.124Y-45.643
X121.703Y-58.464
X121.778Y-56.639
X123.063Y-58.534
X123.063Y-61.534
X124.088Y-74.388
X126.088Y-45.219
X127.233Y-58.534
X127.233Y-61.534
T2
X89.328Y-53.539
X89.328Y-59.539
X89.328Y-61.539
X89.328Y-67.539
X92.128Y-73.876
X93.678Y-73.876
X94.153Y-82.716
X97.503Y-76.704
X97.918Y-82.784
X103.733Y-82.204
X103.733Y-83.774
X105.298Y-83.794
X108.398Y-83.794
X108.408Y-82.194
X109.958Y-83.824
X110.078Y-65.589
X111.528Y-83.784
X111.538Y-82.184
X111.928Y-65.589
X112.403Y-76.704
X115.668Y-74.014
X116.143Y-82.854
X117.218Y-74.014
X117.693Y-82.854
X119.812Y-72.606
X119.812Y-78.446
X121.362Y-78.446
X123.313Y-72.606
X123.313Y-78.446
X124.863Y-78.446
X125.153Y-67.514
T3
X82.673Y-59.534
X82.673Y-67.534
X82.673Y-69.534
X86.343Y-57.534
X86.343Y-59.534
X86.343Y-67.534
X86.343Y-69.534
X123.063Y-63.534
X123.063Y-65.534
X127.233Y-63.534
X127.233Y-65.534
M30
