%TF.GenerationSoftware,KiCad,Pcbnew,9.0.6*%
%TF.CreationDate,2026-03-02T09:31:00+01:00*%
%TF.ProjectId,cansat-camera-pcb,63616e73-6174-42d6-9361-6d6572612d70,1.1*%
%TF.SameCoordinates,Original*%
%TF.FileFunction,Legend,Top*%
%TF.FilePolarity,Positive*%
%FSLAX46Y46*%
G04 Gerber Fmt 4.6, Leading zero omitted, Abs format (unit mm)*
G04 Created by KiCad (PCBNEW 9.0.6) date 2026-03-02 09:31:00*
%MOMM*%
%LPD*%
G01*
G04 APERTURE LIST*
%ADD10C,0.100000*%
%ADD11C,0.112500*%
%ADD12C,0.140000*%
%ADD13C,0.000000*%
%ADD14C,0.017999*%
%ADD15C,0.150000*%
%ADD16C,0.120000*%
G04 APERTURE END LIST*
D10*
X92857480Y-83761784D02*
X92857480Y-83328451D01*
X92857480Y-83452260D02*
X92888433Y-83390355D01*
X92888433Y-83390355D02*
X92919385Y-83359403D01*
X92919385Y-83359403D02*
X92981290Y-83328451D01*
X92981290Y-83328451D02*
X93043195Y-83328451D01*
X93507480Y-83730832D02*
X93445576Y-83761784D01*
X93445576Y-83761784D02*
X93321766Y-83761784D01*
X93321766Y-83761784D02*
X93259861Y-83730832D01*
X93259861Y-83730832D02*
X93228909Y-83668927D01*
X93228909Y-83668927D02*
X93228909Y-83421308D01*
X93228909Y-83421308D02*
X93259861Y-83359403D01*
X93259861Y-83359403D02*
X93321766Y-83328451D01*
X93321766Y-83328451D02*
X93445576Y-83328451D01*
X93445576Y-83328451D02*
X93507480Y-83359403D01*
X93507480Y-83359403D02*
X93538433Y-83421308D01*
X93538433Y-83421308D02*
X93538433Y-83483212D01*
X93538433Y-83483212D02*
X93228909Y-83545117D01*
X93755100Y-83328451D02*
X93909862Y-83761784D01*
X93909862Y-83761784D02*
X94064623Y-83328451D01*
X94312242Y-83761784D02*
X94312242Y-83328451D01*
X94312242Y-83111784D02*
X94281290Y-83142736D01*
X94281290Y-83142736D02*
X94312242Y-83173689D01*
X94312242Y-83173689D02*
X94343195Y-83142736D01*
X94343195Y-83142736D02*
X94312242Y-83111784D01*
X94312242Y-83111784D02*
X94312242Y-83173689D01*
X94590814Y-83730832D02*
X94652719Y-83761784D01*
X94652719Y-83761784D02*
X94776528Y-83761784D01*
X94776528Y-83761784D02*
X94838433Y-83730832D01*
X94838433Y-83730832D02*
X94869385Y-83668927D01*
X94869385Y-83668927D02*
X94869385Y-83637974D01*
X94869385Y-83637974D02*
X94838433Y-83576070D01*
X94838433Y-83576070D02*
X94776528Y-83545117D01*
X94776528Y-83545117D02*
X94683671Y-83545117D01*
X94683671Y-83545117D02*
X94621766Y-83514165D01*
X94621766Y-83514165D02*
X94590814Y-83452260D01*
X94590814Y-83452260D02*
X94590814Y-83421308D01*
X94590814Y-83421308D02*
X94621766Y-83359403D01*
X94621766Y-83359403D02*
X94683671Y-83328451D01*
X94683671Y-83328451D02*
X94776528Y-83328451D01*
X94776528Y-83328451D02*
X94838433Y-83359403D01*
X95147956Y-83761784D02*
X95147956Y-83328451D01*
X95147956Y-83111784D02*
X95117004Y-83142736D01*
X95117004Y-83142736D02*
X95147956Y-83173689D01*
X95147956Y-83173689D02*
X95178909Y-83142736D01*
X95178909Y-83142736D02*
X95147956Y-83111784D01*
X95147956Y-83111784D02*
X95147956Y-83173689D01*
X95550338Y-83761784D02*
X95488433Y-83730832D01*
X95488433Y-83730832D02*
X95457480Y-83699879D01*
X95457480Y-83699879D02*
X95426528Y-83637974D01*
X95426528Y-83637974D02*
X95426528Y-83452260D01*
X95426528Y-83452260D02*
X95457480Y-83390355D01*
X95457480Y-83390355D02*
X95488433Y-83359403D01*
X95488433Y-83359403D02*
X95550338Y-83328451D01*
X95550338Y-83328451D02*
X95643195Y-83328451D01*
X95643195Y-83328451D02*
X95705099Y-83359403D01*
X95705099Y-83359403D02*
X95736052Y-83390355D01*
X95736052Y-83390355D02*
X95767004Y-83452260D01*
X95767004Y-83452260D02*
X95767004Y-83637974D01*
X95767004Y-83637974D02*
X95736052Y-83699879D01*
X95736052Y-83699879D02*
X95705099Y-83730832D01*
X95705099Y-83730832D02*
X95643195Y-83761784D01*
X95643195Y-83761784D02*
X95550338Y-83761784D01*
X96045575Y-83328451D02*
X96045575Y-83761784D01*
X96045575Y-83390355D02*
X96076528Y-83359403D01*
X96076528Y-83359403D02*
X96138433Y-83328451D01*
X96138433Y-83328451D02*
X96231290Y-83328451D01*
X96231290Y-83328451D02*
X96293194Y-83359403D01*
X96293194Y-83359403D02*
X96324147Y-83421308D01*
X96324147Y-83421308D02*
X96324147Y-83761784D01*
X97469385Y-83761784D02*
X97097956Y-83761784D01*
X97283670Y-83761784D02*
X97283670Y-83111784D01*
X97283670Y-83111784D02*
X97221766Y-83204641D01*
X97221766Y-83204641D02*
X97159861Y-83266546D01*
X97159861Y-83266546D02*
X97097956Y-83297498D01*
X97747956Y-83699879D02*
X97778909Y-83730832D01*
X97778909Y-83730832D02*
X97747956Y-83761784D01*
X97747956Y-83761784D02*
X97717004Y-83730832D01*
X97717004Y-83730832D02*
X97747956Y-83699879D01*
X97747956Y-83699879D02*
X97747956Y-83761784D01*
X97995576Y-83111784D02*
X98397957Y-83111784D01*
X98397957Y-83111784D02*
X98181290Y-83359403D01*
X98181290Y-83359403D02*
X98274147Y-83359403D01*
X98274147Y-83359403D02*
X98336052Y-83390355D01*
X98336052Y-83390355D02*
X98367004Y-83421308D01*
X98367004Y-83421308D02*
X98397957Y-83483212D01*
X98397957Y-83483212D02*
X98397957Y-83637974D01*
X98397957Y-83637974D02*
X98367004Y-83699879D01*
X98367004Y-83699879D02*
X98336052Y-83730832D01*
X98336052Y-83730832D02*
X98274147Y-83761784D01*
X98274147Y-83761784D02*
X98088433Y-83761784D01*
X98088433Y-83761784D02*
X98026528Y-83730832D01*
X98026528Y-83730832D02*
X97995576Y-83699879D01*
X91836052Y-84808248D02*
X91836052Y-84158248D01*
X91836052Y-84158248D02*
X92083671Y-84158248D01*
X92083671Y-84158248D02*
X92145576Y-84189200D01*
X92145576Y-84189200D02*
X92176529Y-84220153D01*
X92176529Y-84220153D02*
X92207481Y-84282057D01*
X92207481Y-84282057D02*
X92207481Y-84374915D01*
X92207481Y-84374915D02*
X92176529Y-84436819D01*
X92176529Y-84436819D02*
X92145576Y-84467772D01*
X92145576Y-84467772D02*
X92083671Y-84498724D01*
X92083671Y-84498724D02*
X91836052Y-84498724D01*
X92486052Y-84808248D02*
X92486052Y-84374915D01*
X92486052Y-84498724D02*
X92517005Y-84436819D01*
X92517005Y-84436819D02*
X92547957Y-84405867D01*
X92547957Y-84405867D02*
X92609862Y-84374915D01*
X92609862Y-84374915D02*
X92671767Y-84374915D01*
X92981291Y-84808248D02*
X92919386Y-84777296D01*
X92919386Y-84777296D02*
X92888433Y-84746343D01*
X92888433Y-84746343D02*
X92857481Y-84684438D01*
X92857481Y-84684438D02*
X92857481Y-84498724D01*
X92857481Y-84498724D02*
X92888433Y-84436819D01*
X92888433Y-84436819D02*
X92919386Y-84405867D01*
X92919386Y-84405867D02*
X92981291Y-84374915D01*
X92981291Y-84374915D02*
X93074148Y-84374915D01*
X93074148Y-84374915D02*
X93136052Y-84405867D01*
X93136052Y-84405867D02*
X93167005Y-84436819D01*
X93167005Y-84436819D02*
X93197957Y-84498724D01*
X93197957Y-84498724D02*
X93197957Y-84684438D01*
X93197957Y-84684438D02*
X93167005Y-84746343D01*
X93167005Y-84746343D02*
X93136052Y-84777296D01*
X93136052Y-84777296D02*
X93074148Y-84808248D01*
X93074148Y-84808248D02*
X92981291Y-84808248D01*
X93476528Y-84374915D02*
X93476528Y-84932057D01*
X93476528Y-84932057D02*
X93445576Y-84993962D01*
X93445576Y-84993962D02*
X93383671Y-85024915D01*
X93383671Y-85024915D02*
X93352719Y-85024915D01*
X93476528Y-84158248D02*
X93445576Y-84189200D01*
X93445576Y-84189200D02*
X93476528Y-84220153D01*
X93476528Y-84220153D02*
X93507481Y-84189200D01*
X93507481Y-84189200D02*
X93476528Y-84158248D01*
X93476528Y-84158248D02*
X93476528Y-84220153D01*
X94033671Y-84777296D02*
X93971767Y-84808248D01*
X93971767Y-84808248D02*
X93847957Y-84808248D01*
X93847957Y-84808248D02*
X93786052Y-84777296D01*
X93786052Y-84777296D02*
X93755100Y-84715391D01*
X93755100Y-84715391D02*
X93755100Y-84467772D01*
X93755100Y-84467772D02*
X93786052Y-84405867D01*
X93786052Y-84405867D02*
X93847957Y-84374915D01*
X93847957Y-84374915D02*
X93971767Y-84374915D01*
X93971767Y-84374915D02*
X94033671Y-84405867D01*
X94033671Y-84405867D02*
X94064624Y-84467772D01*
X94064624Y-84467772D02*
X94064624Y-84529676D01*
X94064624Y-84529676D02*
X93755100Y-84591581D01*
X94621767Y-84777296D02*
X94559862Y-84808248D01*
X94559862Y-84808248D02*
X94436053Y-84808248D01*
X94436053Y-84808248D02*
X94374148Y-84777296D01*
X94374148Y-84777296D02*
X94343195Y-84746343D01*
X94343195Y-84746343D02*
X94312243Y-84684438D01*
X94312243Y-84684438D02*
X94312243Y-84498724D01*
X94312243Y-84498724D02*
X94343195Y-84436819D01*
X94343195Y-84436819D02*
X94374148Y-84405867D01*
X94374148Y-84405867D02*
X94436053Y-84374915D01*
X94436053Y-84374915D02*
X94559862Y-84374915D01*
X94559862Y-84374915D02*
X94621767Y-84405867D01*
X94807481Y-84374915D02*
X95055100Y-84374915D01*
X94900338Y-84158248D02*
X94900338Y-84715391D01*
X94900338Y-84715391D02*
X94931291Y-84777296D01*
X94931291Y-84777296D02*
X94993196Y-84808248D01*
X94993196Y-84808248D02*
X95055100Y-84808248D01*
X95767005Y-84808248D02*
X95767005Y-84158248D01*
X95767005Y-84158248D02*
X96138434Y-84808248D01*
X96138434Y-84808248D02*
X96138434Y-84158248D01*
X96695576Y-84777296D02*
X96633672Y-84808248D01*
X96633672Y-84808248D02*
X96509862Y-84808248D01*
X96509862Y-84808248D02*
X96447957Y-84777296D01*
X96447957Y-84777296D02*
X96417005Y-84715391D01*
X96417005Y-84715391D02*
X96417005Y-84467772D01*
X96417005Y-84467772D02*
X96447957Y-84405867D01*
X96447957Y-84405867D02*
X96509862Y-84374915D01*
X96509862Y-84374915D02*
X96633672Y-84374915D01*
X96633672Y-84374915D02*
X96695576Y-84405867D01*
X96695576Y-84405867D02*
X96726529Y-84467772D01*
X96726529Y-84467772D02*
X96726529Y-84529676D01*
X96726529Y-84529676D02*
X96417005Y-84591581D01*
X97005100Y-84374915D02*
X97005100Y-85024915D01*
X97005100Y-84405867D02*
X97067005Y-84374915D01*
X97067005Y-84374915D02*
X97190815Y-84374915D01*
X97190815Y-84374915D02*
X97252719Y-84405867D01*
X97252719Y-84405867D02*
X97283672Y-84436819D01*
X97283672Y-84436819D02*
X97314624Y-84498724D01*
X97314624Y-84498724D02*
X97314624Y-84684438D01*
X97314624Y-84684438D02*
X97283672Y-84746343D01*
X97283672Y-84746343D02*
X97252719Y-84777296D01*
X97252719Y-84777296D02*
X97190815Y-84808248D01*
X97190815Y-84808248D02*
X97067005Y-84808248D01*
X97067005Y-84808248D02*
X97005100Y-84777296D01*
X97500338Y-84374915D02*
X97747957Y-84374915D01*
X97593195Y-84158248D02*
X97593195Y-84715391D01*
X97593195Y-84715391D02*
X97624148Y-84777296D01*
X97624148Y-84777296D02*
X97686053Y-84808248D01*
X97686053Y-84808248D02*
X97747957Y-84808248D01*
X98243196Y-84374915D02*
X98243196Y-84808248D01*
X97964624Y-84374915D02*
X97964624Y-84715391D01*
X97964624Y-84715391D02*
X97995577Y-84777296D01*
X97995577Y-84777296D02*
X98057482Y-84808248D01*
X98057482Y-84808248D02*
X98150339Y-84808248D01*
X98150339Y-84808248D02*
X98212243Y-84777296D01*
X98212243Y-84777296D02*
X98243196Y-84746343D01*
X98552719Y-84374915D02*
X98552719Y-84808248D01*
X98552719Y-84436819D02*
X98583672Y-84405867D01*
X98583672Y-84405867D02*
X98645577Y-84374915D01*
X98645577Y-84374915D02*
X98738434Y-84374915D01*
X98738434Y-84374915D02*
X98800338Y-84405867D01*
X98800338Y-84405867D02*
X98831291Y-84467772D01*
X98831291Y-84467772D02*
X98831291Y-84808248D01*
X99388433Y-84777296D02*
X99326529Y-84808248D01*
X99326529Y-84808248D02*
X99202719Y-84808248D01*
X99202719Y-84808248D02*
X99140814Y-84777296D01*
X99140814Y-84777296D02*
X99109862Y-84715391D01*
X99109862Y-84715391D02*
X99109862Y-84467772D01*
X99109862Y-84467772D02*
X99140814Y-84405867D01*
X99140814Y-84405867D02*
X99202719Y-84374915D01*
X99202719Y-84374915D02*
X99326529Y-84374915D01*
X99326529Y-84374915D02*
X99388433Y-84405867D01*
X99388433Y-84405867D02*
X99419386Y-84467772D01*
X99419386Y-84467772D02*
X99419386Y-84529676D01*
X99419386Y-84529676D02*
X99109862Y-84591581D01*
D11*
X91597505Y-82493453D02*
X91559409Y-82531549D01*
X91559409Y-82531549D02*
X91445124Y-82569644D01*
X91445124Y-82569644D02*
X91368933Y-82569644D01*
X91368933Y-82569644D02*
X91254647Y-82531549D01*
X91254647Y-82531549D02*
X91178457Y-82455358D01*
X91178457Y-82455358D02*
X91140362Y-82379168D01*
X91140362Y-82379168D02*
X91102266Y-82226787D01*
X91102266Y-82226787D02*
X91102266Y-82112501D01*
X91102266Y-82112501D02*
X91140362Y-81960120D01*
X91140362Y-81960120D02*
X91178457Y-81883929D01*
X91178457Y-81883929D02*
X91254647Y-81807739D01*
X91254647Y-81807739D02*
X91368933Y-81769644D01*
X91368933Y-81769644D02*
X91445124Y-81769644D01*
X91445124Y-81769644D02*
X91559409Y-81807739D01*
X91559409Y-81807739D02*
X91597505Y-81845834D01*
X92283219Y-82569644D02*
X92283219Y-82150596D01*
X92283219Y-82150596D02*
X92245124Y-82074406D01*
X92245124Y-82074406D02*
X92168933Y-82036310D01*
X92168933Y-82036310D02*
X92016552Y-82036310D01*
X92016552Y-82036310D02*
X91940362Y-82074406D01*
X92283219Y-82531549D02*
X92207028Y-82569644D01*
X92207028Y-82569644D02*
X92016552Y-82569644D01*
X92016552Y-82569644D02*
X91940362Y-82531549D01*
X91940362Y-82531549D02*
X91902266Y-82455358D01*
X91902266Y-82455358D02*
X91902266Y-82379168D01*
X91902266Y-82379168D02*
X91940362Y-82302977D01*
X91940362Y-82302977D02*
X92016552Y-82264882D01*
X92016552Y-82264882D02*
X92207028Y-82264882D01*
X92207028Y-82264882D02*
X92283219Y-82226787D01*
X92664172Y-82569644D02*
X92664172Y-82036310D01*
X92664172Y-82112501D02*
X92702267Y-82074406D01*
X92702267Y-82074406D02*
X92778457Y-82036310D01*
X92778457Y-82036310D02*
X92892743Y-82036310D01*
X92892743Y-82036310D02*
X92968934Y-82074406D01*
X92968934Y-82074406D02*
X93007029Y-82150596D01*
X93007029Y-82150596D02*
X93007029Y-82569644D01*
X93007029Y-82150596D02*
X93045124Y-82074406D01*
X93045124Y-82074406D02*
X93121315Y-82036310D01*
X93121315Y-82036310D02*
X93235600Y-82036310D01*
X93235600Y-82036310D02*
X93311791Y-82074406D01*
X93311791Y-82074406D02*
X93349886Y-82150596D01*
X93349886Y-82150596D02*
X93349886Y-82569644D01*
X94035601Y-82531549D02*
X93959410Y-82569644D01*
X93959410Y-82569644D02*
X93807029Y-82569644D01*
X93807029Y-82569644D02*
X93730839Y-82531549D01*
X93730839Y-82531549D02*
X93692743Y-82455358D01*
X93692743Y-82455358D02*
X93692743Y-82150596D01*
X93692743Y-82150596D02*
X93730839Y-82074406D01*
X93730839Y-82074406D02*
X93807029Y-82036310D01*
X93807029Y-82036310D02*
X93959410Y-82036310D01*
X93959410Y-82036310D02*
X94035601Y-82074406D01*
X94035601Y-82074406D02*
X94073696Y-82150596D01*
X94073696Y-82150596D02*
X94073696Y-82226787D01*
X94073696Y-82226787D02*
X93692743Y-82302977D01*
X94416553Y-82569644D02*
X94416553Y-82036310D01*
X94416553Y-82188691D02*
X94454648Y-82112501D01*
X94454648Y-82112501D02*
X94492743Y-82074406D01*
X94492743Y-82074406D02*
X94568934Y-82036310D01*
X94568934Y-82036310D02*
X94645124Y-82036310D01*
X95254648Y-82569644D02*
X95254648Y-82150596D01*
X95254648Y-82150596D02*
X95216553Y-82074406D01*
X95216553Y-82074406D02*
X95140362Y-82036310D01*
X95140362Y-82036310D02*
X94987981Y-82036310D01*
X94987981Y-82036310D02*
X94911791Y-82074406D01*
X95254648Y-82531549D02*
X95178457Y-82569644D01*
X95178457Y-82569644D02*
X94987981Y-82569644D01*
X94987981Y-82569644D02*
X94911791Y-82531549D01*
X94911791Y-82531549D02*
X94873695Y-82455358D01*
X94873695Y-82455358D02*
X94873695Y-82379168D01*
X94873695Y-82379168D02*
X94911791Y-82302977D01*
X94911791Y-82302977D02*
X94987981Y-82264882D01*
X94987981Y-82264882D02*
X95178457Y-82264882D01*
X95178457Y-82264882D02*
X95254648Y-82226787D01*
X96245125Y-82569644D02*
X96245125Y-81769644D01*
X96245125Y-81769644D02*
X96511791Y-82341072D01*
X96511791Y-82341072D02*
X96778458Y-81769644D01*
X96778458Y-81769644D02*
X96778458Y-82569644D01*
X97273696Y-82569644D02*
X97197506Y-82531549D01*
X97197506Y-82531549D02*
X97159411Y-82493453D01*
X97159411Y-82493453D02*
X97121315Y-82417263D01*
X97121315Y-82417263D02*
X97121315Y-82188691D01*
X97121315Y-82188691D02*
X97159411Y-82112501D01*
X97159411Y-82112501D02*
X97197506Y-82074406D01*
X97197506Y-82074406D02*
X97273696Y-82036310D01*
X97273696Y-82036310D02*
X97387982Y-82036310D01*
X97387982Y-82036310D02*
X97464173Y-82074406D01*
X97464173Y-82074406D02*
X97502268Y-82112501D01*
X97502268Y-82112501D02*
X97540363Y-82188691D01*
X97540363Y-82188691D02*
X97540363Y-82417263D01*
X97540363Y-82417263D02*
X97502268Y-82493453D01*
X97502268Y-82493453D02*
X97464173Y-82531549D01*
X97464173Y-82531549D02*
X97387982Y-82569644D01*
X97387982Y-82569644D02*
X97273696Y-82569644D01*
X98226078Y-82569644D02*
X98226078Y-81769644D01*
X98226078Y-82531549D02*
X98149887Y-82569644D01*
X98149887Y-82569644D02*
X97997506Y-82569644D01*
X97997506Y-82569644D02*
X97921316Y-82531549D01*
X97921316Y-82531549D02*
X97883221Y-82493453D01*
X97883221Y-82493453D02*
X97845125Y-82417263D01*
X97845125Y-82417263D02*
X97845125Y-82188691D01*
X97845125Y-82188691D02*
X97883221Y-82112501D01*
X97883221Y-82112501D02*
X97921316Y-82074406D01*
X97921316Y-82074406D02*
X97997506Y-82036310D01*
X97997506Y-82036310D02*
X98149887Y-82036310D01*
X98149887Y-82036310D02*
X98226078Y-82074406D01*
X98949888Y-82036310D02*
X98949888Y-82569644D01*
X98607031Y-82036310D02*
X98607031Y-82455358D01*
X98607031Y-82455358D02*
X98645126Y-82531549D01*
X98645126Y-82531549D02*
X98721316Y-82569644D01*
X98721316Y-82569644D02*
X98835602Y-82569644D01*
X98835602Y-82569644D02*
X98911793Y-82531549D01*
X98911793Y-82531549D02*
X98949888Y-82493453D01*
X99445126Y-82569644D02*
X99368936Y-82531549D01*
X99368936Y-82531549D02*
X99330841Y-82455358D01*
X99330841Y-82455358D02*
X99330841Y-81769644D01*
X100054651Y-82531549D02*
X99978460Y-82569644D01*
X99978460Y-82569644D02*
X99826079Y-82569644D01*
X99826079Y-82569644D02*
X99749889Y-82531549D01*
X99749889Y-82531549D02*
X99711793Y-82455358D01*
X99711793Y-82455358D02*
X99711793Y-82150596D01*
X99711793Y-82150596D02*
X99749889Y-82074406D01*
X99749889Y-82074406D02*
X99826079Y-82036310D01*
X99826079Y-82036310D02*
X99978460Y-82036310D01*
X99978460Y-82036310D02*
X100054651Y-82074406D01*
X100054651Y-82074406D02*
X100092746Y-82150596D01*
X100092746Y-82150596D02*
X100092746Y-82226787D01*
X100092746Y-82226787D02*
X99711793Y-82302977D01*
D12*
X93077358Y-80079485D02*
X93344058Y-80079485D01*
X93344058Y-81289514D01*
X93077358Y-81289514D01*
X93077358Y-80079485D01*
G36*
X93077358Y-80079485D02*
G01*
X93344058Y-80079485D01*
X93344058Y-81289514D01*
X93077358Y-81289514D01*
X93077358Y-80079485D01*
G37*
X94633163Y-79543486D02*
X94679152Y-79547711D01*
X94724120Y-79553796D01*
X94768033Y-79561717D01*
X94810860Y-79571448D01*
X94852567Y-79582965D01*
X94893120Y-79596242D01*
X94932488Y-79611255D01*
X94970636Y-79627980D01*
X95007533Y-79646390D01*
X95043144Y-79666462D01*
X95077438Y-79688170D01*
X95110380Y-79711490D01*
X95141938Y-79736396D01*
X95172079Y-79762864D01*
X95200770Y-79790869D01*
X95227978Y-79820386D01*
X95253670Y-79851391D01*
X95277813Y-79883857D01*
X95300373Y-79917761D01*
X95321318Y-79953078D01*
X95340616Y-79989782D01*
X95358232Y-80027849D01*
X95374133Y-80067254D01*
X95388288Y-80107972D01*
X95400662Y-80149979D01*
X95411224Y-80193249D01*
X95419939Y-80237757D01*
X95426775Y-80283479D01*
X95431698Y-80330389D01*
X95434677Y-80378464D01*
X95435677Y-80427677D01*
X95434668Y-80479323D01*
X95431662Y-80529605D01*
X95426685Y-80578505D01*
X95419765Y-80626005D01*
X95410930Y-80672087D01*
X95400207Y-80716733D01*
X95387623Y-80759925D01*
X95373207Y-80801645D01*
X95356986Y-80841874D01*
X95338988Y-80880595D01*
X95319240Y-80917789D01*
X95297769Y-80953439D01*
X95274603Y-80987526D01*
X95249771Y-81020032D01*
X95223299Y-81050939D01*
X95195214Y-81080229D01*
X95165546Y-81107885D01*
X95134321Y-81133887D01*
X95101566Y-81158218D01*
X95067310Y-81180859D01*
X95031579Y-81201793D01*
X94994403Y-81221002D01*
X94955807Y-81238467D01*
X94915820Y-81254171D01*
X94874469Y-81268094D01*
X94831782Y-81280220D01*
X94787786Y-81290530D01*
X94742510Y-81299006D01*
X94695980Y-81305630D01*
X94648224Y-81310384D01*
X94599270Y-81313250D01*
X94549145Y-81314209D01*
X94501481Y-81313237D01*
X94454816Y-81310339D01*
X94409182Y-81305545D01*
X94364608Y-81298881D01*
X94321124Y-81290376D01*
X94278761Y-81280057D01*
X94237550Y-81267954D01*
X94197520Y-81254093D01*
X94158702Y-81238503D01*
X94121126Y-81221213D01*
X94084822Y-81202249D01*
X94049821Y-81181640D01*
X94016153Y-81159414D01*
X93983848Y-81135599D01*
X93952937Y-81110224D01*
X93923450Y-81083315D01*
X93895417Y-81054902D01*
X93868868Y-81025012D01*
X93843835Y-80993673D01*
X93820346Y-80960914D01*
X93798432Y-80926762D01*
X93778125Y-80891245D01*
X93759453Y-80854391D01*
X93742447Y-80816229D01*
X93727138Y-80776787D01*
X93713556Y-80736092D01*
X93701731Y-80694172D01*
X93691694Y-80651056D01*
X93683474Y-80606772D01*
X93677102Y-80561347D01*
X93672608Y-80514810D01*
X93670023Y-80467189D01*
X93939192Y-80467187D01*
X93941201Y-80500839D01*
X93944441Y-80533720D01*
X93948899Y-80565810D01*
X93954563Y-80597088D01*
X93961418Y-80627537D01*
X93969452Y-80657136D01*
X93978652Y-80685865D01*
X93989005Y-80713707D01*
X94000497Y-80740640D01*
X94013115Y-80766646D01*
X94026846Y-80791705D01*
X94041678Y-80815798D01*
X94057597Y-80838905D01*
X94074589Y-80861007D01*
X94092643Y-80882085D01*
X94111744Y-80902118D01*
X94131879Y-80921088D01*
X94153036Y-80938975D01*
X94175202Y-80955759D01*
X94198362Y-80971422D01*
X94222505Y-80985943D01*
X94247617Y-80999304D01*
X94273684Y-81011484D01*
X94300695Y-81022465D01*
X94328635Y-81032227D01*
X94357491Y-81040750D01*
X94387251Y-81048016D01*
X94417902Y-81054004D01*
X94449429Y-81058695D01*
X94481821Y-81062070D01*
X94515064Y-81064109D01*
X94549144Y-81064793D01*
X94584606Y-81064073D01*
X94619211Y-81061925D01*
X94652941Y-81058367D01*
X94685779Y-81053420D01*
X94717707Y-81047102D01*
X94748708Y-81039432D01*
X94778764Y-81030429D01*
X94807858Y-81020112D01*
X94835971Y-81008500D01*
X94863086Y-80995611D01*
X94889185Y-80981466D01*
X94914251Y-80966083D01*
X94938267Y-80949481D01*
X94961214Y-80931678D01*
X94983074Y-80912695D01*
X95003831Y-80892549D01*
X95023467Y-80871261D01*
X95041964Y-80848848D01*
X95059304Y-80825330D01*
X95075470Y-80800727D01*
X95090443Y-80775055D01*
X95104208Y-80748336D01*
X95116745Y-80720588D01*
X95128037Y-80691830D01*
X95138067Y-80662080D01*
X95146817Y-80631358D01*
X95154269Y-80599683D01*
X95160405Y-80567074D01*
X95165209Y-80533550D01*
X95168662Y-80499129D01*
X95170746Y-80463831D01*
X95171445Y-80427675D01*
X95170790Y-80392655D01*
X95168834Y-80358447D01*
X95165593Y-80325069D01*
X95161085Y-80292536D01*
X95155325Y-80260866D01*
X95148330Y-80230076D01*
X95140116Y-80200182D01*
X95130699Y-80171201D01*
X95120096Y-80143149D01*
X95108322Y-80116044D01*
X95095395Y-80089902D01*
X95081330Y-80064740D01*
X95066143Y-80040574D01*
X95049852Y-80017422D01*
X95032471Y-79995300D01*
X95014018Y-79974224D01*
X94994509Y-79954212D01*
X94973959Y-79935281D01*
X94952387Y-79917446D01*
X94929806Y-79900725D01*
X94906235Y-79885134D01*
X94881688Y-79870690D01*
X94856183Y-79857411D01*
X94829736Y-79845312D01*
X94802362Y-79834410D01*
X94774079Y-79824722D01*
X94744902Y-79816266D01*
X94714849Y-79809056D01*
X94683934Y-79803111D01*
X94652174Y-79798447D01*
X94619586Y-79795081D01*
X94586187Y-79793029D01*
X94586187Y-79541146D01*
X94633163Y-79543486D01*
G36*
X94633163Y-79543486D02*
G01*
X94679152Y-79547711D01*
X94724120Y-79553796D01*
X94768033Y-79561717D01*
X94810860Y-79571448D01*
X94852567Y-79582965D01*
X94893120Y-79596242D01*
X94932488Y-79611255D01*
X94970636Y-79627980D01*
X95007533Y-79646390D01*
X95043144Y-79666462D01*
X95077438Y-79688170D01*
X95110380Y-79711490D01*
X95141938Y-79736396D01*
X95172079Y-79762864D01*
X95200770Y-79790869D01*
X95227978Y-79820386D01*
X95253670Y-79851391D01*
X95277813Y-79883857D01*
X95300373Y-79917761D01*
X95321318Y-79953078D01*
X95340616Y-79989782D01*
X95358232Y-80027849D01*
X95374133Y-80067254D01*
X95388288Y-80107972D01*
X95400662Y-80149979D01*
X95411224Y-80193249D01*
X95419939Y-80237757D01*
X95426775Y-80283479D01*
X95431698Y-80330389D01*
X95434677Y-80378464D01*
X95435677Y-80427677D01*
X95434668Y-80479323D01*
X95431662Y-80529605D01*
X95426685Y-80578505D01*
X95419765Y-80626005D01*
X95410930Y-80672087D01*
X95400207Y-80716733D01*
X95387623Y-80759925D01*
X95373207Y-80801645D01*
X95356986Y-80841874D01*
X95338988Y-80880595D01*
X95319240Y-80917789D01*
X95297769Y-80953439D01*
X95274603Y-80987526D01*
X95249771Y-81020032D01*
X95223299Y-81050939D01*
X95195214Y-81080229D01*
X95165546Y-81107885D01*
X95134321Y-81133887D01*
X95101566Y-81158218D01*
X95067310Y-81180859D01*
X95031579Y-81201793D01*
X94994403Y-81221002D01*
X94955807Y-81238467D01*
X94915820Y-81254171D01*
X94874469Y-81268094D01*
X94831782Y-81280220D01*
X94787786Y-81290530D01*
X94742510Y-81299006D01*
X94695980Y-81305630D01*
X94648224Y-81310384D01*
X94599270Y-81313250D01*
X94549145Y-81314209D01*
X94501481Y-81313237D01*
X94454816Y-81310339D01*
X94409182Y-81305545D01*
X94364608Y-81298881D01*
X94321124Y-81290376D01*
X94278761Y-81280057D01*
X94237550Y-81267954D01*
X94197520Y-81254093D01*
X94158702Y-81238503D01*
X94121126Y-81221213D01*
X94084822Y-81202249D01*
X94049821Y-81181640D01*
X94016153Y-81159414D01*
X93983848Y-81135599D01*
X93952937Y-81110224D01*
X93923450Y-81083315D01*
X93895417Y-81054902D01*
X93868868Y-81025012D01*
X93843835Y-80993673D01*
X93820346Y-80960914D01*
X93798432Y-80926762D01*
X93778125Y-80891245D01*
X93759453Y-80854391D01*
X93742447Y-80816229D01*
X93727138Y-80776787D01*
X93713556Y-80736092D01*
X93701731Y-80694172D01*
X93691694Y-80651056D01*
X93683474Y-80606772D01*
X93677102Y-80561347D01*
X93672608Y-80514810D01*
X93670023Y-80467189D01*
X93939192Y-80467187D01*
X93941201Y-80500839D01*
X93944441Y-80533720D01*
X93948899Y-80565810D01*
X93954563Y-80597088D01*
X93961418Y-80627537D01*
X93969452Y-80657136D01*
X93978652Y-80685865D01*
X93989005Y-80713707D01*
X94000497Y-80740640D01*
X94013115Y-80766646D01*
X94026846Y-80791705D01*
X94041678Y-80815798D01*
X94057597Y-80838905D01*
X94074589Y-80861007D01*
X94092643Y-80882085D01*
X94111744Y-80902118D01*
X94131879Y-80921088D01*
X94153036Y-80938975D01*
X94175202Y-80955759D01*
X94198362Y-80971422D01*
X94222505Y-80985943D01*
X94247617Y-80999304D01*
X94273684Y-81011484D01*
X94300695Y-81022465D01*
X94328635Y-81032227D01*
X94357491Y-81040750D01*
X94387251Y-81048016D01*
X94417902Y-81054004D01*
X94449429Y-81058695D01*
X94481821Y-81062070D01*
X94515064Y-81064109D01*
X94549144Y-81064793D01*
X94584606Y-81064073D01*
X94619211Y-81061925D01*
X94652941Y-81058367D01*
X94685779Y-81053420D01*
X94717707Y-81047102D01*
X94748708Y-81039432D01*
X94778764Y-81030429D01*
X94807858Y-81020112D01*
X94835971Y-81008500D01*
X94863086Y-80995611D01*
X94889185Y-80981466D01*
X94914251Y-80966083D01*
X94938267Y-80949481D01*
X94961214Y-80931678D01*
X94983074Y-80912695D01*
X95003831Y-80892549D01*
X95023467Y-80871261D01*
X95041964Y-80848848D01*
X95059304Y-80825330D01*
X95075470Y-80800727D01*
X95090443Y-80775055D01*
X95104208Y-80748336D01*
X95116745Y-80720588D01*
X95128037Y-80691830D01*
X95138067Y-80662080D01*
X95146817Y-80631358D01*
X95154269Y-80599683D01*
X95160405Y-80567074D01*
X95165209Y-80533550D01*
X95168662Y-80499129D01*
X95170746Y-80463831D01*
X95171445Y-80427675D01*
X95170790Y-80392655D01*
X95168834Y-80358447D01*
X95165593Y-80325069D01*
X95161085Y-80292536D01*
X95155325Y-80260866D01*
X95148330Y-80230076D01*
X95140116Y-80200182D01*
X95130699Y-80171201D01*
X95120096Y-80143149D01*
X95108322Y-80116044D01*
X95095395Y-80089902D01*
X95081330Y-80064740D01*
X95066143Y-80040574D01*
X95049852Y-80017422D01*
X95032471Y-79995300D01*
X95014018Y-79974224D01*
X94994509Y-79954212D01*
X94973959Y-79935281D01*
X94952387Y-79917446D01*
X94929806Y-79900725D01*
X94906235Y-79885134D01*
X94881688Y-79870690D01*
X94856183Y-79857411D01*
X94829736Y-79845312D01*
X94802362Y-79834410D01*
X94774079Y-79824722D01*
X94744902Y-79816266D01*
X94714849Y-79809056D01*
X94683934Y-79803111D01*
X94652174Y-79798447D01*
X94619586Y-79795081D01*
X94586187Y-79793029D01*
X94586187Y-79541146D01*
X94633163Y-79543486D01*
G37*
X97749546Y-80030095D02*
X97752816Y-80044849D01*
X97757042Y-80059024D01*
X97762180Y-80072637D01*
X97768188Y-80085700D01*
X97775022Y-80098230D01*
X97782640Y-80110242D01*
X97790998Y-80121750D01*
X97800054Y-80132769D01*
X97809765Y-80143314D01*
X97820088Y-80153400D01*
X97842397Y-80172256D01*
X97866637Y-80189454D01*
X97892466Y-80205116D01*
X97919539Y-80219359D01*
X97947512Y-80232304D01*
X97976043Y-80244069D01*
X98004787Y-80254775D01*
X98061541Y-80273484D01*
X98115025Y-80289386D01*
X98211950Y-80315933D01*
X98262265Y-80330364D01*
X98287480Y-80338072D01*
X98312580Y-80346184D01*
X98363520Y-80361387D01*
X98413350Y-80377515D01*
X98461769Y-80394801D01*
X98508477Y-80413476D01*
X98553173Y-80433772D01*
X98595559Y-80455920D01*
X98615791Y-80467760D01*
X98635332Y-80480151D01*
X98654145Y-80493120D01*
X98672193Y-80506697D01*
X98689438Y-80520911D01*
X98705843Y-80535790D01*
X98721369Y-80551364D01*
X98735979Y-80567662D01*
X98749637Y-80584711D01*
X98762303Y-80602542D01*
X98773942Y-80621184D01*
X98784514Y-80640665D01*
X98793984Y-80661013D01*
X98802312Y-80682259D01*
X98809463Y-80704431D01*
X98815397Y-80727558D01*
X98820078Y-80751669D01*
X98823468Y-80776793D01*
X98825529Y-80802958D01*
X98826225Y-80830195D01*
X98825231Y-80861566D01*
X98822293Y-80891790D01*
X98817481Y-80920876D01*
X98810863Y-80948834D01*
X98802507Y-80975675D01*
X98792480Y-81001408D01*
X98780852Y-81026043D01*
X98767691Y-81049590D01*
X98753065Y-81072059D01*
X98737042Y-81093460D01*
X98719690Y-81113803D01*
X98701079Y-81133098D01*
X98681275Y-81151354D01*
X98660348Y-81168583D01*
X98638365Y-81184793D01*
X98615396Y-81199995D01*
X98566768Y-81227413D01*
X98515012Y-81250917D01*
X98460672Y-81270587D01*
X98404296Y-81286503D01*
X98346430Y-81298742D01*
X98287620Y-81307387D01*
X98228412Y-81312515D01*
X98169352Y-81314207D01*
X98098968Y-81312501D01*
X98030634Y-81307276D01*
X97964666Y-81298368D01*
X97932668Y-81292482D01*
X97901379Y-81285615D01*
X97870839Y-81277746D01*
X97841087Y-81268854D01*
X97812162Y-81258920D01*
X97784104Y-81247922D01*
X97756953Y-81235842D01*
X97730746Y-81222657D01*
X97705525Y-81208348D01*
X97681328Y-81192895D01*
X97658194Y-81176277D01*
X97636163Y-81158474D01*
X97615275Y-81139466D01*
X97595568Y-81119231D01*
X97577081Y-81097751D01*
X97559855Y-81075004D01*
X97543929Y-81050970D01*
X97529341Y-81025629D01*
X97516132Y-80998960D01*
X97504340Y-80970944D01*
X97494005Y-80941559D01*
X97485166Y-80910785D01*
X97477863Y-80878603D01*
X97472134Y-80844991D01*
X97468020Y-80809930D01*
X97465560Y-80773399D01*
X97739667Y-80773396D01*
X97741804Y-80795217D01*
X97744952Y-80816235D01*
X97749083Y-80836458D01*
X97754166Y-80855891D01*
X97760171Y-80874543D01*
X97767069Y-80892422D01*
X97774830Y-80909533D01*
X97783423Y-80925884D01*
X97792820Y-80941484D01*
X97802989Y-80956338D01*
X97813902Y-80970454D01*
X97825529Y-80983839D01*
X97837839Y-80996501D01*
X97850803Y-81008447D01*
X97864392Y-81019684D01*
X97878574Y-81030219D01*
X97893320Y-81040059D01*
X97908602Y-81049212D01*
X97924387Y-81057686D01*
X97940648Y-81065486D01*
X97974473Y-81079097D01*
X98009840Y-81090103D01*
X98046509Y-81098563D01*
X98084242Y-81104534D01*
X98122799Y-81108075D01*
X98161943Y-81109242D01*
X98189197Y-81108577D01*
X98218730Y-81106468D01*
X98249985Y-81102747D01*
X98282405Y-81097242D01*
X98315433Y-81089783D01*
X98348511Y-81080201D01*
X98364895Y-81074561D01*
X98381083Y-81068326D01*
X98397005Y-81061475D01*
X98412592Y-81053988D01*
X98427773Y-81045841D01*
X98442479Y-81037016D01*
X98456642Y-81027489D01*
X98470190Y-81017240D01*
X98483054Y-81006248D01*
X98495165Y-80994491D01*
X98506453Y-80981949D01*
X98516849Y-80968599D01*
X98526282Y-80954421D01*
X98534683Y-80939393D01*
X98541983Y-80923494D01*
X98548112Y-80906704D01*
X98553000Y-80889000D01*
X98556578Y-80870361D01*
X98558776Y-80850766D01*
X98559524Y-80830195D01*
X98559287Y-80818090D01*
X98558583Y-80806312D01*
X98557422Y-80794854D01*
X98555815Y-80783709D01*
X98553772Y-80772872D01*
X98551303Y-80762337D01*
X98548420Y-80752096D01*
X98545132Y-80742144D01*
X98541449Y-80732473D01*
X98537383Y-80723079D01*
X98532943Y-80713954D01*
X98528140Y-80705092D01*
X98522984Y-80696488D01*
X98517486Y-80688133D01*
X98511656Y-80680023D01*
X98505505Y-80672151D01*
X98492279Y-80657094D01*
X98477892Y-80642913D01*
X98462428Y-80629556D01*
X98445968Y-80616974D01*
X98428597Y-80605115D01*
X98410398Y-80593929D01*
X98391453Y-80583365D01*
X98371846Y-80573373D01*
X98351242Y-80565145D01*
X98330175Y-80557091D01*
X98286651Y-80541271D01*
X98194046Y-80509168D01*
X98146548Y-80496512D01*
X98097429Y-80483856D01*
X98072624Y-80477238D01*
X98047847Y-80470274D01*
X98023244Y-80462846D01*
X97998960Y-80454840D01*
X97950762Y-80441115D01*
X97903578Y-80426649D01*
X97857666Y-80411220D01*
X97813288Y-80394609D01*
X97770705Y-80376594D01*
X97730176Y-80356954D01*
X97710764Y-80346457D01*
X97691962Y-80335470D01*
X97673805Y-80323967D01*
X97656324Y-80311921D01*
X97639552Y-80299302D01*
X97623522Y-80286085D01*
X97608266Y-80272241D01*
X97593816Y-80257742D01*
X97580206Y-80242562D01*
X97567468Y-80226672D01*
X97555633Y-80210045D01*
X97544736Y-80192654D01*
X97534808Y-80174470D01*
X97525883Y-80155467D01*
X97517991Y-80135616D01*
X97511167Y-80114890D01*
X97505443Y-80093262D01*
X97500851Y-80070704D01*
X97497423Y-80047188D01*
X97495193Y-80022687D01*
X97749546Y-80030095D01*
G36*
X97749546Y-80030095D02*
G01*
X97752816Y-80044849D01*
X97757042Y-80059024D01*
X97762180Y-80072637D01*
X97768188Y-80085700D01*
X97775022Y-80098230D01*
X97782640Y-80110242D01*
X97790998Y-80121750D01*
X97800054Y-80132769D01*
X97809765Y-80143314D01*
X97820088Y-80153400D01*
X97842397Y-80172256D01*
X97866637Y-80189454D01*
X97892466Y-80205116D01*
X97919539Y-80219359D01*
X97947512Y-80232304D01*
X97976043Y-80244069D01*
X98004787Y-80254775D01*
X98061541Y-80273484D01*
X98115025Y-80289386D01*
X98211950Y-80315933D01*
X98262265Y-80330364D01*
X98287480Y-80338072D01*
X98312580Y-80346184D01*
X98363520Y-80361387D01*
X98413350Y-80377515D01*
X98461769Y-80394801D01*
X98508477Y-80413476D01*
X98553173Y-80433772D01*
X98595559Y-80455920D01*
X98615791Y-80467760D01*
X98635332Y-80480151D01*
X98654145Y-80493120D01*
X98672193Y-80506697D01*
X98689438Y-80520911D01*
X98705843Y-80535790D01*
X98721369Y-80551364D01*
X98735979Y-80567662D01*
X98749637Y-80584711D01*
X98762303Y-80602542D01*
X98773942Y-80621184D01*
X98784514Y-80640665D01*
X98793984Y-80661013D01*
X98802312Y-80682259D01*
X98809463Y-80704431D01*
X98815397Y-80727558D01*
X98820078Y-80751669D01*
X98823468Y-80776793D01*
X98825529Y-80802958D01*
X98826225Y-80830195D01*
X98825231Y-80861566D01*
X98822293Y-80891790D01*
X98817481Y-80920876D01*
X98810863Y-80948834D01*
X98802507Y-80975675D01*
X98792480Y-81001408D01*
X98780852Y-81026043D01*
X98767691Y-81049590D01*
X98753065Y-81072059D01*
X98737042Y-81093460D01*
X98719690Y-81113803D01*
X98701079Y-81133098D01*
X98681275Y-81151354D01*
X98660348Y-81168583D01*
X98638365Y-81184793D01*
X98615396Y-81199995D01*
X98566768Y-81227413D01*
X98515012Y-81250917D01*
X98460672Y-81270587D01*
X98404296Y-81286503D01*
X98346430Y-81298742D01*
X98287620Y-81307387D01*
X98228412Y-81312515D01*
X98169352Y-81314207D01*
X98098968Y-81312501D01*
X98030634Y-81307276D01*
X97964666Y-81298368D01*
X97932668Y-81292482D01*
X97901379Y-81285615D01*
X97870839Y-81277746D01*
X97841087Y-81268854D01*
X97812162Y-81258920D01*
X97784104Y-81247922D01*
X97756953Y-81235842D01*
X97730746Y-81222657D01*
X97705525Y-81208348D01*
X97681328Y-81192895D01*
X97658194Y-81176277D01*
X97636163Y-81158474D01*
X97615275Y-81139466D01*
X97595568Y-81119231D01*
X97577081Y-81097751D01*
X97559855Y-81075004D01*
X97543929Y-81050970D01*
X97529341Y-81025629D01*
X97516132Y-80998960D01*
X97504340Y-80970944D01*
X97494005Y-80941559D01*
X97485166Y-80910785D01*
X97477863Y-80878603D01*
X97472134Y-80844991D01*
X97468020Y-80809930D01*
X97465560Y-80773399D01*
X97739667Y-80773396D01*
X97741804Y-80795217D01*
X97744952Y-80816235D01*
X97749083Y-80836458D01*
X97754166Y-80855891D01*
X97760171Y-80874543D01*
X97767069Y-80892422D01*
X97774830Y-80909533D01*
X97783423Y-80925884D01*
X97792820Y-80941484D01*
X97802989Y-80956338D01*
X97813902Y-80970454D01*
X97825529Y-80983839D01*
X97837839Y-80996501D01*
X97850803Y-81008447D01*
X97864392Y-81019684D01*
X97878574Y-81030219D01*
X97893320Y-81040059D01*
X97908602Y-81049212D01*
X97924387Y-81057686D01*
X97940648Y-81065486D01*
X97974473Y-81079097D01*
X98009840Y-81090103D01*
X98046509Y-81098563D01*
X98084242Y-81104534D01*
X98122799Y-81108075D01*
X98161943Y-81109242D01*
X98189197Y-81108577D01*
X98218730Y-81106468D01*
X98249985Y-81102747D01*
X98282405Y-81097242D01*
X98315433Y-81089783D01*
X98348511Y-81080201D01*
X98364895Y-81074561D01*
X98381083Y-81068326D01*
X98397005Y-81061475D01*
X98412592Y-81053988D01*
X98427773Y-81045841D01*
X98442479Y-81037016D01*
X98456642Y-81027489D01*
X98470190Y-81017240D01*
X98483054Y-81006248D01*
X98495165Y-80994491D01*
X98506453Y-80981949D01*
X98516849Y-80968599D01*
X98526282Y-80954421D01*
X98534683Y-80939393D01*
X98541983Y-80923494D01*
X98548112Y-80906704D01*
X98553000Y-80889000D01*
X98556578Y-80870361D01*
X98558776Y-80850766D01*
X98559524Y-80830195D01*
X98559287Y-80818090D01*
X98558583Y-80806312D01*
X98557422Y-80794854D01*
X98555815Y-80783709D01*
X98553772Y-80772872D01*
X98551303Y-80762337D01*
X98548420Y-80752096D01*
X98545132Y-80742144D01*
X98541449Y-80732473D01*
X98537383Y-80723079D01*
X98532943Y-80713954D01*
X98528140Y-80705092D01*
X98522984Y-80696488D01*
X98517486Y-80688133D01*
X98511656Y-80680023D01*
X98505505Y-80672151D01*
X98492279Y-80657094D01*
X98477892Y-80642913D01*
X98462428Y-80629556D01*
X98445968Y-80616974D01*
X98428597Y-80605115D01*
X98410398Y-80593929D01*
X98391453Y-80583365D01*
X98371846Y-80573373D01*
X98351242Y-80565145D01*
X98330175Y-80557091D01*
X98286651Y-80541271D01*
X98194046Y-80509168D01*
X98146548Y-80496512D01*
X98097429Y-80483856D01*
X98072624Y-80477238D01*
X98047847Y-80470274D01*
X98023244Y-80462846D01*
X97998960Y-80454840D01*
X97950762Y-80441115D01*
X97903578Y-80426649D01*
X97857666Y-80411220D01*
X97813288Y-80394609D01*
X97770705Y-80376594D01*
X97730176Y-80356954D01*
X97710764Y-80346457D01*
X97691962Y-80335470D01*
X97673805Y-80323967D01*
X97656324Y-80311921D01*
X97639552Y-80299302D01*
X97623522Y-80286085D01*
X97608266Y-80272241D01*
X97593816Y-80257742D01*
X97580206Y-80242562D01*
X97567468Y-80226672D01*
X97555633Y-80210045D01*
X97544736Y-80192654D01*
X97534808Y-80174470D01*
X97525883Y-80155467D01*
X97517991Y-80135616D01*
X97511167Y-80114890D01*
X97505443Y-80093262D01*
X97500851Y-80070704D01*
X97497423Y-80047188D01*
X97495193Y-80022687D01*
X97749546Y-80030095D01*
G37*
X100623981Y-81289514D02*
X100315300Y-81289514D01*
X99779430Y-79780682D01*
X99764613Y-79780682D01*
X99263317Y-81289514D01*
X98974392Y-81289514D01*
X99581875Y-79565841D01*
X99962170Y-79565841D01*
X100623981Y-81289514D01*
G36*
X100623981Y-81289514D02*
G01*
X100315300Y-81289514D01*
X99779430Y-79780682D01*
X99764613Y-79780682D01*
X99263317Y-81289514D01*
X98974392Y-81289514D01*
X99581875Y-79565841D01*
X99962170Y-79565841D01*
X100623981Y-81289514D01*
G37*
X90151123Y-79543486D02*
X90197112Y-79547711D01*
X90242079Y-79553796D01*
X90285993Y-79561717D01*
X90328820Y-79571448D01*
X90370527Y-79582965D01*
X90411080Y-79596242D01*
X90450448Y-79611255D01*
X90488596Y-79627980D01*
X90525493Y-79646390D01*
X90561104Y-79666462D01*
X90595398Y-79688170D01*
X90628340Y-79711490D01*
X90659898Y-79736396D01*
X90690039Y-79762864D01*
X90718730Y-79790869D01*
X90745938Y-79820386D01*
X90771630Y-79851391D01*
X90795772Y-79883857D01*
X90818333Y-79917761D01*
X90839278Y-79953078D01*
X90858575Y-79989782D01*
X90876191Y-80027849D01*
X90892093Y-80067254D01*
X90906248Y-80107972D01*
X90918622Y-80149979D01*
X90929184Y-80193249D01*
X90937899Y-80237757D01*
X90944735Y-80283479D01*
X90949658Y-80330389D01*
X90952636Y-80378464D01*
X90953637Y-80427677D01*
X90952628Y-80479323D01*
X90949622Y-80529605D01*
X90944645Y-80578505D01*
X90937725Y-80626005D01*
X90928890Y-80672087D01*
X90918167Y-80716733D01*
X90905583Y-80759925D01*
X90891167Y-80801645D01*
X90874946Y-80841874D01*
X90856948Y-80880595D01*
X90837199Y-80917789D01*
X90815728Y-80953439D01*
X90792563Y-80987526D01*
X90767730Y-81020032D01*
X90741258Y-81050939D01*
X90713174Y-81080229D01*
X90683505Y-81107885D01*
X90652280Y-81133887D01*
X90619525Y-81158218D01*
X90585269Y-81180859D01*
X90549539Y-81201793D01*
X90512362Y-81221002D01*
X90473766Y-81238467D01*
X90433779Y-81254171D01*
X90392428Y-81268094D01*
X90349741Y-81280220D01*
X90305746Y-81290530D01*
X90260469Y-81299006D01*
X90213940Y-81305630D01*
X90166184Y-81310384D01*
X90117230Y-81313250D01*
X90067105Y-81314209D01*
X90019441Y-81313237D01*
X89972776Y-81310339D01*
X89927141Y-81305545D01*
X89882567Y-81298881D01*
X89839083Y-81290376D01*
X89796721Y-81280057D01*
X89755509Y-81267954D01*
X89715479Y-81254093D01*
X89676661Y-81238503D01*
X89639085Y-81221213D01*
X89602781Y-81202249D01*
X89567780Y-81181640D01*
X89534112Y-81159414D01*
X89501807Y-81135599D01*
X89470896Y-81110224D01*
X89441409Y-81083315D01*
X89413376Y-81054902D01*
X89386827Y-81025012D01*
X89361793Y-80993673D01*
X89338305Y-80960914D01*
X89316391Y-80926762D01*
X89296084Y-80891245D01*
X89277412Y-80854391D01*
X89260406Y-80816229D01*
X89245097Y-80776787D01*
X89231515Y-80736092D01*
X89219690Y-80694172D01*
X89209652Y-80651056D01*
X89201433Y-80606772D01*
X89195061Y-80561347D01*
X89190567Y-80514810D01*
X89187982Y-80467189D01*
X89457152Y-80467187D01*
X89459161Y-80500839D01*
X89462401Y-80533720D01*
X89466860Y-80565810D01*
X89472523Y-80597088D01*
X89479378Y-80627537D01*
X89487413Y-80657136D01*
X89496613Y-80685865D01*
X89506965Y-80713707D01*
X89518457Y-80740640D01*
X89531075Y-80766646D01*
X89544807Y-80791705D01*
X89559639Y-80815798D01*
X89575557Y-80838905D01*
X89592550Y-80861007D01*
X89610603Y-80882085D01*
X89629704Y-80902118D01*
X89649840Y-80921088D01*
X89670997Y-80938975D01*
X89693163Y-80955759D01*
X89716323Y-80971422D01*
X89740466Y-80985943D01*
X89765578Y-80999304D01*
X89791645Y-81011484D01*
X89818656Y-81022465D01*
X89846596Y-81032227D01*
X89875452Y-81040750D01*
X89905212Y-81048016D01*
X89935863Y-81054004D01*
X89967390Y-81058695D01*
X89999782Y-81062070D01*
X90033025Y-81064109D01*
X90067105Y-81064793D01*
X90102567Y-81064073D01*
X90137171Y-81061925D01*
X90170902Y-81058367D01*
X90203740Y-81053420D01*
X90235668Y-81047102D01*
X90266669Y-81039432D01*
X90296725Y-81030429D01*
X90325818Y-81020112D01*
X90353931Y-81008500D01*
X90381046Y-80995611D01*
X90407145Y-80981466D01*
X90432211Y-80966083D01*
X90456227Y-80949481D01*
X90479174Y-80931678D01*
X90501034Y-80912695D01*
X90521791Y-80892549D01*
X90541427Y-80871261D01*
X90559924Y-80848848D01*
X90577264Y-80825330D01*
X90593430Y-80800727D01*
X90608403Y-80775055D01*
X90622168Y-80748336D01*
X90634705Y-80720588D01*
X90645997Y-80691830D01*
X90656027Y-80662080D01*
X90664776Y-80631358D01*
X90672228Y-80599683D01*
X90678365Y-80567074D01*
X90683169Y-80533550D01*
X90686622Y-80499129D01*
X90688706Y-80463831D01*
X90689405Y-80427675D01*
X90688750Y-80392655D01*
X90686793Y-80358447D01*
X90683553Y-80325069D01*
X90679045Y-80292536D01*
X90673285Y-80260866D01*
X90666290Y-80230076D01*
X90658076Y-80200182D01*
X90648659Y-80171201D01*
X90638056Y-80143149D01*
X90626282Y-80116044D01*
X90613355Y-80089902D01*
X90599290Y-80064740D01*
X90584103Y-80040574D01*
X90567811Y-80017422D01*
X90550431Y-79995300D01*
X90531978Y-79974224D01*
X90512469Y-79954212D01*
X90491919Y-79935281D01*
X90470346Y-79917446D01*
X90447766Y-79900725D01*
X90424194Y-79885134D01*
X90399648Y-79870690D01*
X90374143Y-79857411D01*
X90347696Y-79845312D01*
X90320322Y-79834410D01*
X90292039Y-79824722D01*
X90262862Y-79816266D01*
X90232808Y-79809056D01*
X90201894Y-79803111D01*
X90170134Y-79798447D01*
X90137546Y-79795081D01*
X90104146Y-79793029D01*
X90104146Y-79541146D01*
X90151123Y-79543486D01*
G36*
X90151123Y-79543486D02*
G01*
X90197112Y-79547711D01*
X90242079Y-79553796D01*
X90285993Y-79561717D01*
X90328820Y-79571448D01*
X90370527Y-79582965D01*
X90411080Y-79596242D01*
X90450448Y-79611255D01*
X90488596Y-79627980D01*
X90525493Y-79646390D01*
X90561104Y-79666462D01*
X90595398Y-79688170D01*
X90628340Y-79711490D01*
X90659898Y-79736396D01*
X90690039Y-79762864D01*
X90718730Y-79790869D01*
X90745938Y-79820386D01*
X90771630Y-79851391D01*
X90795772Y-79883857D01*
X90818333Y-79917761D01*
X90839278Y-79953078D01*
X90858575Y-79989782D01*
X90876191Y-80027849D01*
X90892093Y-80067254D01*
X90906248Y-80107972D01*
X90918622Y-80149979D01*
X90929184Y-80193249D01*
X90937899Y-80237757D01*
X90944735Y-80283479D01*
X90949658Y-80330389D01*
X90952636Y-80378464D01*
X90953637Y-80427677D01*
X90952628Y-80479323D01*
X90949622Y-80529605D01*
X90944645Y-80578505D01*
X90937725Y-80626005D01*
X90928890Y-80672087D01*
X90918167Y-80716733D01*
X90905583Y-80759925D01*
X90891167Y-80801645D01*
X90874946Y-80841874D01*
X90856948Y-80880595D01*
X90837199Y-80917789D01*
X90815728Y-80953439D01*
X90792563Y-80987526D01*
X90767730Y-81020032D01*
X90741258Y-81050939D01*
X90713174Y-81080229D01*
X90683505Y-81107885D01*
X90652280Y-81133887D01*
X90619525Y-81158218D01*
X90585269Y-81180859D01*
X90549539Y-81201793D01*
X90512362Y-81221002D01*
X90473766Y-81238467D01*
X90433779Y-81254171D01*
X90392428Y-81268094D01*
X90349741Y-81280220D01*
X90305746Y-81290530D01*
X90260469Y-81299006D01*
X90213940Y-81305630D01*
X90166184Y-81310384D01*
X90117230Y-81313250D01*
X90067105Y-81314209D01*
X90019441Y-81313237D01*
X89972776Y-81310339D01*
X89927141Y-81305545D01*
X89882567Y-81298881D01*
X89839083Y-81290376D01*
X89796721Y-81280057D01*
X89755509Y-81267954D01*
X89715479Y-81254093D01*
X89676661Y-81238503D01*
X89639085Y-81221213D01*
X89602781Y-81202249D01*
X89567780Y-81181640D01*
X89534112Y-81159414D01*
X89501807Y-81135599D01*
X89470896Y-81110224D01*
X89441409Y-81083315D01*
X89413376Y-81054902D01*
X89386827Y-81025012D01*
X89361793Y-80993673D01*
X89338305Y-80960914D01*
X89316391Y-80926762D01*
X89296084Y-80891245D01*
X89277412Y-80854391D01*
X89260406Y-80816229D01*
X89245097Y-80776787D01*
X89231515Y-80736092D01*
X89219690Y-80694172D01*
X89209652Y-80651056D01*
X89201433Y-80606772D01*
X89195061Y-80561347D01*
X89190567Y-80514810D01*
X89187982Y-80467189D01*
X89457152Y-80467187D01*
X89459161Y-80500839D01*
X89462401Y-80533720D01*
X89466860Y-80565810D01*
X89472523Y-80597088D01*
X89479378Y-80627537D01*
X89487413Y-80657136D01*
X89496613Y-80685865D01*
X89506965Y-80713707D01*
X89518457Y-80740640D01*
X89531075Y-80766646D01*
X89544807Y-80791705D01*
X89559639Y-80815798D01*
X89575557Y-80838905D01*
X89592550Y-80861007D01*
X89610603Y-80882085D01*
X89629704Y-80902118D01*
X89649840Y-80921088D01*
X89670997Y-80938975D01*
X89693163Y-80955759D01*
X89716323Y-80971422D01*
X89740466Y-80985943D01*
X89765578Y-80999304D01*
X89791645Y-81011484D01*
X89818656Y-81022465D01*
X89846596Y-81032227D01*
X89875452Y-81040750D01*
X89905212Y-81048016D01*
X89935863Y-81054004D01*
X89967390Y-81058695D01*
X89999782Y-81062070D01*
X90033025Y-81064109D01*
X90067105Y-81064793D01*
X90102567Y-81064073D01*
X90137171Y-81061925D01*
X90170902Y-81058367D01*
X90203740Y-81053420D01*
X90235668Y-81047102D01*
X90266669Y-81039432D01*
X90296725Y-81030429D01*
X90325818Y-81020112D01*
X90353931Y-81008500D01*
X90381046Y-80995611D01*
X90407145Y-80981466D01*
X90432211Y-80966083D01*
X90456227Y-80949481D01*
X90479174Y-80931678D01*
X90501034Y-80912695D01*
X90521791Y-80892549D01*
X90541427Y-80871261D01*
X90559924Y-80848848D01*
X90577264Y-80825330D01*
X90593430Y-80800727D01*
X90608403Y-80775055D01*
X90622168Y-80748336D01*
X90634705Y-80720588D01*
X90645997Y-80691830D01*
X90656027Y-80662080D01*
X90664776Y-80631358D01*
X90672228Y-80599683D01*
X90678365Y-80567074D01*
X90683169Y-80533550D01*
X90686622Y-80499129D01*
X90688706Y-80463831D01*
X90689405Y-80427675D01*
X90688750Y-80392655D01*
X90686793Y-80358447D01*
X90683553Y-80325069D01*
X90679045Y-80292536D01*
X90673285Y-80260866D01*
X90666290Y-80230076D01*
X90658076Y-80200182D01*
X90648659Y-80171201D01*
X90638056Y-80143149D01*
X90626282Y-80116044D01*
X90613355Y-80089902D01*
X90599290Y-80064740D01*
X90584103Y-80040574D01*
X90567811Y-80017422D01*
X90550431Y-79995300D01*
X90531978Y-79974224D01*
X90512469Y-79954212D01*
X90491919Y-79935281D01*
X90470346Y-79917446D01*
X90447766Y-79900725D01*
X90424194Y-79885134D01*
X90399648Y-79870690D01*
X90374143Y-79857411D01*
X90347696Y-79845312D01*
X90320322Y-79834410D01*
X90292039Y-79824722D01*
X90262862Y-79816266D01*
X90232808Y-79809056D01*
X90201894Y-79803111D01*
X90170134Y-79798447D01*
X90137546Y-79795081D01*
X90104146Y-79793029D01*
X90104146Y-79541146D01*
X90151123Y-79543486D01*
G37*
X98235113Y-79544723D02*
X98298863Y-79551820D01*
X98360327Y-79562541D01*
X98390115Y-79569293D01*
X98419229Y-79576991D01*
X98447634Y-79585648D01*
X98475296Y-79595276D01*
X98502179Y-79605889D01*
X98528251Y-79617501D01*
X98553477Y-79630123D01*
X98577821Y-79643769D01*
X98601250Y-79658453D01*
X98623730Y-79674187D01*
X98645226Y-79690984D01*
X98665703Y-79708858D01*
X98685128Y-79727822D01*
X98703466Y-79747889D01*
X98720683Y-79769071D01*
X98736743Y-79791383D01*
X98751614Y-79814837D01*
X98765260Y-79839446D01*
X98777648Y-79865224D01*
X98788742Y-79892183D01*
X98798508Y-79920337D01*
X98806913Y-79949698D01*
X98813921Y-79980281D01*
X98819499Y-80012097D01*
X98823612Y-80045161D01*
X98826225Y-80079485D01*
X98557057Y-80079487D01*
X98554970Y-80059656D01*
X98551971Y-80040446D01*
X98548085Y-80021854D01*
X98543340Y-80003879D01*
X98537763Y-79986519D01*
X98531381Y-79969772D01*
X98524221Y-79953636D01*
X98516311Y-79938110D01*
X98507677Y-79923192D01*
X98498347Y-79908880D01*
X98488348Y-79895171D01*
X98477707Y-79882065D01*
X98466450Y-79869560D01*
X98454606Y-79857653D01*
X98442202Y-79846343D01*
X98429263Y-79835628D01*
X98415818Y-79825507D01*
X98401894Y-79815976D01*
X98372717Y-79798683D01*
X98341947Y-79783734D01*
X98309803Y-79771114D01*
X98276502Y-79760809D01*
X98242260Y-79752805D01*
X98207295Y-79747088D01*
X98171823Y-79743641D01*
X98169352Y-79541146D01*
X98235113Y-79544723D01*
G36*
X98235113Y-79544723D02*
G01*
X98298863Y-79551820D01*
X98360327Y-79562541D01*
X98390115Y-79569293D01*
X98419229Y-79576991D01*
X98447634Y-79585648D01*
X98475296Y-79595276D01*
X98502179Y-79605889D01*
X98528251Y-79617501D01*
X98553477Y-79630123D01*
X98577821Y-79643769D01*
X98601250Y-79658453D01*
X98623730Y-79674187D01*
X98645226Y-79690984D01*
X98665703Y-79708858D01*
X98685128Y-79727822D01*
X98703466Y-79747889D01*
X98720683Y-79769071D01*
X98736743Y-79791383D01*
X98751614Y-79814837D01*
X98765260Y-79839446D01*
X98777648Y-79865224D01*
X98788742Y-79892183D01*
X98798508Y-79920337D01*
X98806913Y-79949698D01*
X98813921Y-79980281D01*
X98819499Y-80012097D01*
X98823612Y-80045161D01*
X98826225Y-80079485D01*
X98557057Y-80079487D01*
X98554970Y-80059656D01*
X98551971Y-80040446D01*
X98548085Y-80021854D01*
X98543340Y-80003879D01*
X98537763Y-79986519D01*
X98531381Y-79969772D01*
X98524221Y-79953636D01*
X98516311Y-79938110D01*
X98507677Y-79923192D01*
X98498347Y-79908880D01*
X98488348Y-79895171D01*
X98477707Y-79882065D01*
X98466450Y-79869560D01*
X98454606Y-79857653D01*
X98442202Y-79846343D01*
X98429263Y-79835628D01*
X98415818Y-79825507D01*
X98401894Y-79815976D01*
X98372717Y-79798683D01*
X98341947Y-79783734D01*
X98309803Y-79771114D01*
X98276502Y-79760809D01*
X98242260Y-79752805D01*
X98207295Y-79747088D01*
X98171823Y-79743641D01*
X98169352Y-79541146D01*
X98235113Y-79544723D01*
G37*
X101243812Y-80131344D02*
X101508043Y-80131344D01*
X101508043Y-81289514D01*
X101243812Y-81289514D01*
X101243812Y-80131344D01*
G36*
X101243812Y-80131344D02*
G01*
X101508043Y-80131344D01*
X101508043Y-81289514D01*
X101243812Y-81289514D01*
X101243812Y-80131344D01*
G37*
X93077358Y-79565839D02*
X93346528Y-79565839D01*
X93346528Y-79765865D01*
X93077358Y-79765865D01*
X93077358Y-79565839D01*
G36*
X93077358Y-79565839D02*
G01*
X93346528Y-79565839D01*
X93346528Y-79765865D01*
X93077358Y-79765865D01*
X93077358Y-79565839D01*
G37*
X96924752Y-80886995D02*
X96932161Y-79565841D01*
X97181574Y-79565841D01*
X97181574Y-81289514D01*
X96907466Y-81289514D01*
X95751766Y-79565841D01*
X96011058Y-79565841D01*
X96924752Y-80886995D01*
G36*
X96924752Y-80886995D02*
G01*
X96932161Y-79565841D01*
X97181574Y-79565841D01*
X97181574Y-81289514D01*
X96907466Y-81289514D01*
X95751766Y-79565841D01*
X96011058Y-79565841D01*
X96924752Y-80886995D01*
G37*
X100710412Y-79565841D02*
X102036505Y-79565841D01*
X102036505Y-79825132D01*
X100710412Y-79825132D01*
X100710412Y-79565841D01*
G36*
X100710412Y-79565841D02*
G01*
X102036505Y-79565841D01*
X102036505Y-79825132D01*
X100710412Y-79825132D01*
X100710412Y-79565841D01*
G37*
X95988831Y-80459778D02*
X95988831Y-81289514D01*
X95732009Y-81289514D01*
X95732009Y-80089363D01*
X95988831Y-80459778D01*
G36*
X95988831Y-80459778D02*
G01*
X95988831Y-81289514D01*
X95732009Y-81289514D01*
X95732009Y-80089363D01*
X95988831Y-80459778D01*
G37*
X91506791Y-80459778D02*
X91506791Y-81289514D01*
X91249968Y-81289514D01*
X91249968Y-80089363D01*
X91506791Y-80459778D01*
G36*
X91506791Y-80459778D02*
G01*
X91506791Y-81289514D01*
X91249968Y-81289514D01*
X91249968Y-80089363D01*
X91506791Y-80459778D01*
G37*
X92442711Y-80886995D02*
X92450119Y-79565841D01*
X92699533Y-79565841D01*
X92699533Y-81289514D01*
X92425425Y-81289514D01*
X91269725Y-79565841D01*
X91529016Y-79565841D01*
X92442711Y-80886995D01*
G36*
X92442711Y-80886995D02*
G01*
X92450119Y-79565841D01*
X92699533Y-79565841D01*
X92699533Y-81289514D01*
X92425425Y-81289514D01*
X91269725Y-79565841D01*
X91529016Y-79565841D01*
X92442711Y-80886995D01*
G37*
D13*
G36*
X101950813Y-40341237D02*
G01*
X101994899Y-40341237D01*
X103273727Y-40341237D01*
X103273727Y-42656341D01*
X103273727Y-44971443D01*
X101950813Y-44971443D01*
X100627895Y-44971443D01*
X100627895Y-42656341D01*
X100627895Y-40497334D01*
X100692279Y-40497334D01*
X100709678Y-42684784D01*
X100727104Y-44872230D01*
X101967338Y-44890222D01*
X103207573Y-44908222D01*
X103207573Y-42657804D01*
X103207573Y-40407387D01*
X101994899Y-40407387D01*
X100782226Y-40407387D01*
X100737251Y-40452362D01*
X100692279Y-40497334D01*
X100627895Y-40497334D01*
X100627895Y-40341236D01*
X101950813Y-40341237D01*
G37*
G36*
X110028885Y-43518648D02*
G01*
X110119838Y-43521149D01*
X110715152Y-43777687D01*
X111310466Y-44034227D01*
X111330616Y-44337255D01*
X111350765Y-44640283D01*
X111195148Y-44581119D01*
X111039535Y-44521957D01*
X110612758Y-44327959D01*
X110185981Y-44133961D01*
X110103691Y-44033815D01*
X110021400Y-43933670D01*
X109979667Y-43725000D01*
X109937931Y-43516331D01*
X110028885Y-43518648D01*
G37*
G36*
X108321323Y-41695743D02*
G01*
X108283512Y-41928736D01*
X108327259Y-41928736D01*
X108371009Y-41928736D01*
X108574276Y-41697225D01*
X108777546Y-41465715D01*
X108836837Y-41465715D01*
X108896133Y-41465715D01*
X108896133Y-41763370D01*
X108896133Y-42061027D01*
X108843269Y-42061027D01*
X108790405Y-42061027D01*
X108813629Y-41812980D01*
X108836853Y-41564932D01*
X108628566Y-41812980D01*
X108420280Y-42061027D01*
X108327476Y-42061027D01*
X108234672Y-42061027D01*
X108234672Y-41800347D01*
X108234672Y-41539667D01*
X108296901Y-41501209D01*
X108359131Y-41462751D01*
X108321323Y-41695743D01*
G37*
G36*
X101454708Y-49469362D02*
G01*
X102281532Y-49469362D01*
X102281532Y-50759205D01*
X102281532Y-52049049D01*
X101454708Y-52049049D01*
X100627884Y-52049049D01*
X100627884Y-50759205D01*
X100627884Y-49535507D01*
X100694030Y-49535507D01*
X100694030Y-50759205D01*
X100694030Y-51982904D01*
X101454708Y-51982904D01*
X102215385Y-51982904D01*
X102215385Y-50759205D01*
X102215385Y-49535507D01*
X101454708Y-49535507D01*
X100694030Y-49535507D01*
X100627884Y-49535507D01*
X100627884Y-49469360D01*
X101454708Y-49469362D01*
G37*
G36*
X108879352Y-49237854D02*
G01*
X108880603Y-49568580D01*
X108850353Y-49452825D01*
X108820102Y-49337070D01*
X108565220Y-49337070D01*
X108310337Y-49337070D01*
X108280086Y-49452825D01*
X108249836Y-49568580D01*
X108251087Y-49237854D01*
X108252338Y-48907123D01*
X108281345Y-49055950D01*
X108310009Y-49204780D01*
X108565391Y-49204780D01*
X108820774Y-49204780D01*
X108849437Y-49055950D01*
X108878101Y-48907123D01*
X108879352Y-49237854D01*
G37*
G36*
X108896122Y-50882326D02*
G01*
X108896122Y-50972374D01*
X108735160Y-50941604D01*
X108574199Y-50910835D01*
X108553249Y-51165750D01*
X108532325Y-51420667D01*
X108383495Y-51441818D01*
X108234668Y-51462944D01*
X108234668Y-51127613D01*
X108234668Y-50924572D01*
X108300808Y-50924572D01*
X108300808Y-51123009D01*
X108300808Y-51321445D01*
X108366954Y-51321445D01*
X108433101Y-51321445D01*
X108433101Y-51123009D01*
X108433101Y-50924572D01*
X108366954Y-50924572D01*
X108300808Y-50924572D01*
X108234668Y-50924572D01*
X108234668Y-50792286D01*
X108366954Y-50792283D01*
X108565391Y-50792280D01*
X108896122Y-50792280D01*
X108896122Y-50882326D01*
G37*
G36*
X108884555Y-42703888D02*
G01*
X108896106Y-43049095D01*
X108581913Y-43034620D01*
X108267719Y-43020145D01*
X108260593Y-42689419D01*
X108253467Y-42358688D01*
X108281150Y-42643885D01*
X108308815Y-42929083D01*
X108420059Y-42907657D01*
X108531303Y-42886232D01*
X108573597Y-42688602D01*
X108615890Y-42490972D01*
X108623714Y-42705944D01*
X108631538Y-42920919D01*
X108726951Y-42920919D01*
X108822368Y-42920919D01*
X108847686Y-42639799D01*
X108873005Y-42358679D01*
X108884555Y-42703888D01*
G37*
G36*
X108884559Y-45484073D02*
G01*
X108896110Y-45831341D01*
X108766143Y-45831341D01*
X108636177Y-45831341D01*
X108565376Y-45699049D01*
X108494575Y-45566757D01*
X108364608Y-45566757D01*
X108234642Y-45566757D01*
X108234642Y-45500612D01*
X108234642Y-45434467D01*
X108366394Y-45434467D01*
X108498123Y-45434467D01*
X108580742Y-45566757D01*
X108663360Y-45699049D01*
X108742866Y-45699049D01*
X108822372Y-45699049D01*
X108847690Y-45417929D01*
X108873008Y-45136808D01*
X108884559Y-45484073D01*
G37*
G36*
X99172424Y-40957292D02*
G01*
X99321384Y-41031125D01*
X99470344Y-41104955D01*
X99490394Y-41343255D01*
X99510444Y-41581552D01*
X99403000Y-41689000D01*
X99295555Y-41796445D01*
X99112091Y-41796445D01*
X98928630Y-41796445D01*
X98819160Y-41675483D01*
X98709686Y-41554518D01*
X98710685Y-41394362D01*
X98711685Y-41234205D01*
X98760288Y-41161424D01*
X98808887Y-41088645D01*
X98964763Y-41006497D01*
X99120639Y-40924350D01*
X99172424Y-40957292D01*
G37*
G36*
X108885009Y-40853866D02*
G01*
X108873886Y-41168059D01*
X108847938Y-40920011D01*
X108821994Y-40671966D01*
X108731620Y-40671966D01*
X108641243Y-40671966D01*
X108610992Y-40787721D01*
X108580742Y-40903477D01*
X108573066Y-40787721D01*
X108565391Y-40671966D01*
X108437091Y-40671966D01*
X108308796Y-40671966D01*
X108282848Y-40920011D01*
X108256904Y-41168059D01*
X108245781Y-40853866D01*
X108234657Y-40539674D01*
X108565403Y-40539674D01*
X108896133Y-40539674D01*
X108885009Y-40853866D01*
G37*
G36*
X108896106Y-46224029D02*
G01*
X108896106Y-46294367D01*
X108730743Y-46294367D01*
X108565380Y-46294367D01*
X108565380Y-46426658D01*
X108565380Y-46558948D01*
X108697673Y-46558948D01*
X108829963Y-46558948D01*
X108829963Y-46625095D01*
X108829963Y-46691240D01*
X108532310Y-46691240D01*
X108234653Y-46691240D01*
X108234653Y-46625095D01*
X108234653Y-46558948D01*
X108329487Y-46558945D01*
X108424312Y-46558945D01*
X108445236Y-46377045D01*
X108466159Y-46195143D01*
X108681133Y-46174417D01*
X108896106Y-46153692D01*
X108896106Y-46224029D01*
G37*
G36*
X103999797Y-47088112D02*
G01*
X104034389Y-47088112D01*
X104861213Y-47088112D01*
X104861213Y-50163891D01*
X104861213Y-53239673D01*
X104034389Y-53239673D01*
X103207565Y-53239673D01*
X103207565Y-50163891D01*
X103207565Y-49601654D01*
X103273735Y-49601654D01*
X103273735Y-51387592D01*
X103273735Y-53173530D01*
X104001339Y-53173530D01*
X104728943Y-53173530D01*
X104728943Y-51387592D01*
X104728943Y-49601654D01*
X104001339Y-49601654D01*
X103273735Y-49601654D01*
X103207565Y-49601654D01*
X103207565Y-47154259D01*
X103270668Y-47154259D01*
X103288719Y-48328348D01*
X103306770Y-49502436D01*
X104001339Y-49520773D01*
X104017864Y-49521210D01*
X104728931Y-49539985D01*
X104728931Y-48347122D01*
X104728931Y-47154259D01*
X103999797Y-47154259D01*
X103270668Y-47154259D01*
X103207565Y-47154259D01*
X103207565Y-47088112D01*
X103999797Y-47088112D01*
G37*
D14*
X86444675Y-41314000D02*
X87174562Y-41622337D01*
X86444675Y-41930674D01*
X86136338Y-42660562D01*
X85828000Y-41930674D01*
X85098113Y-41622337D01*
X85828000Y-41314000D01*
X86136338Y-40584112D01*
X86444675Y-41314000D01*
G36*
X86444675Y-41314000D02*
G01*
X87174562Y-41622337D01*
X86444675Y-41930674D01*
X86136338Y-42660562D01*
X85828000Y-41930674D01*
X85098113Y-41622337D01*
X85828000Y-41314000D01*
X86136338Y-40584112D01*
X86444675Y-41314000D01*
G37*
D13*
G36*
X108887413Y-48297600D02*
G01*
X108896114Y-48614120D01*
X108779617Y-48551775D01*
X108663124Y-48489427D01*
X108537861Y-48351009D01*
X108412594Y-48212591D01*
X108360889Y-48212591D01*
X108309185Y-48212591D01*
X108282509Y-48427563D01*
X108255832Y-48642538D01*
X108245258Y-48328346D01*
X108234657Y-48014154D01*
X108275547Y-48014154D01*
X108316425Y-48014154D01*
X108556667Y-48225445D01*
X108796909Y-48436737D01*
X108837810Y-48208910D01*
X108878711Y-47981079D01*
X108887413Y-48297600D01*
G37*
G36*
X110615913Y-48477175D02*
G01*
X111475807Y-48477175D01*
X111475807Y-52512070D01*
X111475807Y-56546965D01*
X110615913Y-56546965D01*
X109756019Y-56546965D01*
X109756019Y-52512070D01*
X109756019Y-48543320D01*
X109822162Y-48543320D01*
X109822162Y-52512070D01*
X109822162Y-56480819D01*
X110615913Y-56480819D01*
X111409664Y-56480819D01*
X111409664Y-52512070D01*
X111409664Y-48543320D01*
X110615913Y-48543320D01*
X109822162Y-48543320D01*
X109756019Y-48543320D01*
X109756019Y-48477175D01*
X110615913Y-48477175D01*
G37*
G36*
X110612014Y-48675611D02*
G01*
X110814354Y-48675611D01*
X110946647Y-48675611D01*
X110946647Y-48973266D01*
X110946647Y-49270923D01*
X110814354Y-49270923D01*
X110682060Y-49270923D01*
X110682060Y-49171703D01*
X110682060Y-49072485D01*
X110637661Y-49072485D01*
X110593261Y-49072485D01*
X110471893Y-49182321D01*
X110350525Y-49292158D01*
X110311546Y-49253176D01*
X110272564Y-49214193D01*
X110493850Y-49012985D01*
X110715141Y-48811777D01*
X110537143Y-48809776D01*
X110370532Y-48807903D01*
X110748207Y-48807903D01*
X110748207Y-48973266D01*
X110748207Y-49138632D01*
X110814354Y-49138632D01*
X110880500Y-49138632D01*
X110880500Y-48973266D01*
X110880500Y-48807903D01*
X110814354Y-48807903D01*
X110748207Y-48807903D01*
X110370532Y-48807903D01*
X110359146Y-48807775D01*
X110318267Y-48741628D01*
X110277389Y-48675484D01*
X110612014Y-48675611D01*
G37*
G36*
X108565403Y-40341236D02*
G01*
X109425296Y-40341236D01*
X109425296Y-48444101D01*
X109425296Y-56546965D01*
X108565403Y-56546965D01*
X107705509Y-56546965D01*
X107705509Y-48444101D01*
X107705509Y-40407381D01*
X107771652Y-40407381D01*
X107771652Y-48444101D01*
X107771652Y-56480819D01*
X108565403Y-56480819D01*
X109359153Y-56480819D01*
X109359153Y-48444101D01*
X109359153Y-40407381D01*
X108565403Y-40407381D01*
X107771652Y-40407381D01*
X107705509Y-40407381D01*
X107705509Y-40341236D01*
X108565403Y-40341236D01*
G37*
G36*
X108896122Y-44309986D02*
G01*
X108896122Y-44376131D01*
X108763828Y-44376131D01*
X108631534Y-44376131D01*
X108631534Y-44574568D01*
X108631534Y-44773004D01*
X108763828Y-44773004D01*
X108896122Y-44773004D01*
X108896122Y-44839151D01*
X108896122Y-44905296D01*
X108565391Y-44905296D01*
X108234661Y-44905296D01*
X108234661Y-44839151D01*
X108234661Y-44773004D01*
X108400024Y-44773004D01*
X108565387Y-44773004D01*
X108565387Y-44578962D01*
X108565387Y-44384918D01*
X108393676Y-44363993D01*
X108221965Y-44343067D01*
X108272415Y-44293449D01*
X108322857Y-44243841D01*
X108609489Y-44243841D01*
X108896122Y-44243841D01*
X108896122Y-44309986D01*
G37*
G36*
X108884983Y-47369232D02*
G01*
X108896106Y-47683424D01*
X108565376Y-47683424D01*
X108234646Y-47683424D01*
X108245769Y-47369232D01*
X108256893Y-47055040D01*
X108282848Y-47303085D01*
X108308796Y-47551132D01*
X108432701Y-47551132D01*
X108556606Y-47551132D01*
X108584160Y-47369232D01*
X108611717Y-47187330D01*
X108621616Y-47369232D01*
X108631515Y-47551132D01*
X108726741Y-47551132D01*
X108821968Y-47551132D01*
X108847911Y-47303085D01*
X108873859Y-47055040D01*
X108884983Y-47369232D01*
G37*
G36*
X111343532Y-42881653D02*
G01*
X111343532Y-43636133D01*
X110665538Y-43350578D01*
X109987545Y-43065021D01*
X109967193Y-42794536D01*
X109946842Y-42524052D01*
X109988468Y-42524050D01*
X110030067Y-42524050D01*
X110129284Y-42623268D01*
X110228504Y-42722488D01*
X110441517Y-42722488D01*
X110654533Y-42722488D01*
X110946659Y-42424831D01*
X111238784Y-42127176D01*
X111291156Y-42127176D01*
X111343532Y-42127176D01*
X111343532Y-42881653D01*
G37*
G36*
X108884552Y-43631986D02*
G01*
X108896103Y-43979252D01*
X108730739Y-43979252D01*
X108565376Y-43979252D01*
X108565376Y-43714670D01*
X108565376Y-43450088D01*
X108437076Y-43450088D01*
X108308780Y-43450088D01*
X108282833Y-43698133D01*
X108256889Y-43946180D01*
X108245765Y-43627596D01*
X108234642Y-43309007D01*
X108416565Y-43329943D01*
X108598465Y-43350868D01*
X108618992Y-43598915D01*
X108639518Y-43846962D01*
X108730941Y-43846962D01*
X108822364Y-43846962D01*
X108847683Y-43565842D01*
X108873001Y-43284721D01*
X108884552Y-43631986D01*
G37*
G36*
X100868808Y-52313631D02*
G01*
X101454708Y-52313631D01*
X102281532Y-52313631D01*
X102281532Y-54430298D01*
X102281532Y-56546965D01*
X101454708Y-56546965D01*
X100627884Y-56546965D01*
X100627884Y-54430298D01*
X100627884Y-53636549D01*
X100694030Y-53636549D01*
X100694030Y-55058683D01*
X100694030Y-56480819D01*
X101454708Y-56480819D01*
X102215385Y-56480819D01*
X102215385Y-55058683D01*
X102215385Y-53636549D01*
X101454708Y-53636549D01*
X100694030Y-53636549D01*
X100627884Y-53636549D01*
X100627884Y-52441770D01*
X100694027Y-52441770D01*
X100694027Y-52973013D01*
X100694027Y-53504255D01*
X101454708Y-53504255D01*
X101457382Y-53504255D01*
X102220733Y-53504255D01*
X102201507Y-52958553D01*
X102182308Y-52412851D01*
X101525558Y-52393776D01*
X100868808Y-52374700D01*
X100781418Y-52408235D01*
X100694027Y-52441770D01*
X100627884Y-52441770D01*
X100627884Y-52313631D01*
X100868808Y-52313631D01*
G37*
G36*
X111120868Y-41204500D02*
G01*
X111773479Y-41472450D01*
X111922306Y-41638135D01*
X112071132Y-41803822D01*
X112071132Y-43354561D01*
X112071132Y-44905300D01*
X112010399Y-44905300D01*
X111949665Y-44905300D01*
X111845035Y-44865150D01*
X111740410Y-44825001D01*
X111740410Y-43387121D01*
X111740410Y-41949241D01*
X111607265Y-41828747D01*
X111474121Y-41708252D01*
X111263462Y-41708252D01*
X111052803Y-41708252D01*
X110781177Y-42016934D01*
X110509555Y-42325615D01*
X110430450Y-42325615D01*
X110351349Y-42325615D01*
X110351349Y-41631082D01*
X110351349Y-40936552D01*
X110409801Y-40936550D01*
X110468258Y-40936550D01*
X111120868Y-41204500D01*
G37*
G36*
X101787620Y-52657749D02*
G01*
X101834263Y-52704206D01*
X101727169Y-52811302D01*
X101620075Y-52918394D01*
X101620075Y-52958071D01*
X101620075Y-52997745D01*
X101729911Y-53119116D01*
X101839748Y-53240484D01*
X101790363Y-53289690D01*
X101740978Y-53338892D01*
X101620311Y-53190065D01*
X101499645Y-53041239D01*
X101328346Y-53041239D01*
X101157047Y-53041239D01*
X101157047Y-52975094D01*
X101157047Y-52908947D01*
X101328350Y-52908943D01*
X101499649Y-52908943D01*
X101620315Y-52760116D01*
X101740982Y-52611290D01*
X101787620Y-52657749D01*
G37*
G36*
X108896122Y-50200870D02*
G01*
X108896122Y-50535503D01*
X108832863Y-50496408D01*
X108769603Y-50457311D01*
X108806862Y-50360212D01*
X108844124Y-50263113D01*
X108539390Y-50263113D01*
X108234657Y-50263113D01*
X108234657Y-50196968D01*
X108234657Y-50130821D01*
X108536777Y-50130819D01*
X108838890Y-50130819D01*
X108796901Y-49998529D01*
X108754913Y-49866237D01*
X108825515Y-49866237D01*
X108896122Y-49866237D01*
X108896122Y-50200870D01*
G37*
G36*
X114913215Y-40571623D02*
G01*
X115124225Y-40680740D01*
X115249866Y-40957473D01*
X115375507Y-41234205D01*
X115377006Y-41362150D01*
X115378505Y-41490095D01*
X115247619Y-41760470D01*
X115116733Y-42030845D01*
X114923221Y-42145155D01*
X114729709Y-42259468D01*
X114442260Y-42259220D01*
X114154812Y-42258972D01*
X113943050Y-42129852D01*
X113731289Y-42000732D01*
X113628860Y-41802655D01*
X113526432Y-41604578D01*
X113526680Y-41353246D01*
X113526928Y-41101915D01*
X113655716Y-40890535D01*
X113784599Y-40679155D01*
X113949924Y-40570830D01*
X114115249Y-40462505D01*
X114408729Y-40462505D01*
X114702205Y-40462505D01*
X114913215Y-40571623D01*
G37*
G36*
X101818512Y-54298004D02*
G01*
X101818512Y-54364151D01*
X101516952Y-54364151D01*
X101215393Y-54364151D01*
X101256271Y-54430296D01*
X101297149Y-54496441D01*
X101458610Y-54496441D01*
X101620071Y-54496441D01*
X101620071Y-54562588D01*
X101620071Y-54628733D01*
X101417732Y-54628733D01*
X101215389Y-54628733D01*
X101256267Y-54694877D01*
X101297146Y-54761024D01*
X101557827Y-54761024D01*
X101818508Y-54761024D01*
X101818508Y-54830795D01*
X101818508Y-54900566D01*
X101504314Y-54880417D01*
X101190120Y-54860267D01*
X101170471Y-54593284D01*
X101150821Y-54326301D01*
X101198040Y-54279070D01*
X101245247Y-54231859D01*
X101531879Y-54231859D01*
X101818512Y-54231859D01*
X101818512Y-54298004D01*
G37*
G36*
X104045437Y-54165718D02*
G01*
X104861236Y-54165718D01*
X104861236Y-55356342D01*
X104861236Y-56546965D01*
X104034412Y-56546965D01*
X103207588Y-56546965D01*
X103207588Y-55356342D01*
X103207588Y-54320059D01*
X103273735Y-54320059D01*
X103273735Y-55400438D01*
X103273735Y-56480822D01*
X104001339Y-56480819D01*
X104728943Y-56480819D01*
X104728943Y-55356342D01*
X104728943Y-54231863D01*
X104045437Y-54231863D01*
X103361931Y-54231863D01*
X103317833Y-54275961D01*
X103273735Y-54320059D01*
X103207588Y-54320059D01*
X103207588Y-54165718D01*
X104034412Y-54165718D01*
X104045437Y-54165718D01*
G37*
G36*
X106481807Y-40341236D02*
G01*
X107308632Y-40341236D01*
X107308632Y-48444101D01*
X107308632Y-56546965D01*
X106481807Y-56546965D01*
X105654983Y-56546965D01*
X105654983Y-48444101D01*
X105654983Y-40407381D01*
X105787277Y-40407381D01*
X105787277Y-48444101D01*
X105787277Y-56480819D01*
X106481807Y-56480819D01*
X107176342Y-56480819D01*
X107176342Y-48444101D01*
X107176342Y-40407381D01*
X106481807Y-40407381D01*
X105787277Y-40407381D01*
X105654983Y-40407381D01*
X105654983Y-40341236D01*
X106481807Y-40341236D01*
G37*
G36*
X110789295Y-46032425D02*
G01*
X111017475Y-46107731D01*
X111107463Y-46250656D01*
X111197452Y-46393581D01*
X111236759Y-46558946D01*
X111276065Y-46724312D01*
X111194038Y-46552042D01*
X111112014Y-46379770D01*
X111015514Y-46264030D01*
X110919010Y-46148292D01*
X110757938Y-46087049D01*
X110596862Y-46025810D01*
X110368477Y-46101185D01*
X110140094Y-46176557D01*
X110046158Y-46401382D01*
X109952221Y-46626207D01*
X109992008Y-46784742D01*
X110031799Y-46943277D01*
X110193378Y-47095072D01*
X110354957Y-47246864D01*
X110582851Y-47246864D01*
X110810745Y-47246864D01*
X110977920Y-47089811D01*
X111145092Y-46932762D01*
X111150318Y-46828537D01*
X111155544Y-46724312D01*
X111189613Y-46809114D01*
X111223682Y-46893915D01*
X111120586Y-47051258D01*
X111017490Y-47208601D01*
X110789310Y-47283909D01*
X110561130Y-47359215D01*
X110321563Y-47259119D01*
X110082000Y-47159023D01*
X109985164Y-46927255D01*
X109888328Y-46695488D01*
X109890930Y-46643755D01*
X109893531Y-46592020D01*
X109987968Y-46374567D01*
X110082447Y-46157118D01*
X110321781Y-46057117D01*
X110561115Y-45957117D01*
X110789295Y-46032425D01*
G37*
G36*
X101818512Y-55224047D02*
G01*
X101818512Y-55290191D01*
X101557830Y-55290191D01*
X101297149Y-55290191D01*
X101256271Y-55356338D01*
X101215393Y-55422483D01*
X101417736Y-55422483D01*
X101620075Y-55422483D01*
X101620075Y-55488628D01*
X101620075Y-55554775D01*
X101458614Y-55554775D01*
X101297153Y-55554775D01*
X101256275Y-55620920D01*
X101215397Y-55687065D01*
X101516956Y-55687065D01*
X101818515Y-55687065D01*
X101818515Y-55756836D01*
X101818515Y-55826607D01*
X101504322Y-55806457D01*
X101190128Y-55786308D01*
X101170204Y-55513569D01*
X101150280Y-55240825D01*
X101258289Y-55199352D01*
X101366310Y-55157902D01*
X101592411Y-55157902D01*
X101818512Y-55157902D01*
X101818512Y-55224047D01*
G37*
G36*
X99248829Y-54761274D02*
G01*
X99470340Y-54761522D01*
X99681720Y-54890409D01*
X99893100Y-55019296D01*
X100008632Y-55195621D01*
X100124168Y-55371946D01*
X100124168Y-55687069D01*
X100124168Y-56002191D01*
X100011306Y-56174438D01*
X99898445Y-56346686D01*
X99736522Y-56452781D01*
X99574600Y-56558879D01*
X99316707Y-56593467D01*
X99058811Y-56628058D01*
X98819133Y-56514323D01*
X98579456Y-56400588D01*
X98446121Y-56184849D01*
X98312786Y-55969108D01*
X98313034Y-55679258D01*
X98313282Y-55389410D01*
X98437519Y-55185682D01*
X98561752Y-54981953D01*
X98794532Y-54871490D01*
X99027313Y-54761030D01*
X99248829Y-54761274D01*
G37*
G36*
X101454708Y-45434467D02*
G01*
X102281532Y-45434467D01*
X102281532Y-47220405D01*
X102281532Y-49006344D01*
X101454708Y-49006344D01*
X100627884Y-49006344D01*
X100627884Y-47220405D01*
X100627884Y-45500612D01*
X100694030Y-45500612D01*
X100694030Y-47220405D01*
X100694030Y-48940195D01*
X101454708Y-48940195D01*
X102215385Y-48940195D01*
X102215385Y-47220405D01*
X102215385Y-45500612D01*
X101454708Y-45500612D01*
X100694030Y-45500612D01*
X100627884Y-45500612D01*
X100627884Y-45434467D01*
X101454708Y-45434467D01*
G37*
D15*
X122137164Y-47319713D02*
X122744307Y-47319713D01*
X122744307Y-47319713D02*
X122815735Y-47283999D01*
X122815735Y-47283999D02*
X122851450Y-47248285D01*
X122851450Y-47248285D02*
X122887164Y-47176856D01*
X122887164Y-47176856D02*
X122887164Y-47033999D01*
X122887164Y-47033999D02*
X122851450Y-46962570D01*
X122851450Y-46962570D02*
X122815735Y-46926856D01*
X122815735Y-46926856D02*
X122744307Y-46891142D01*
X122744307Y-46891142D02*
X122137164Y-46891142D01*
X122851450Y-46569713D02*
X122887164Y-46462571D01*
X122887164Y-46462571D02*
X122887164Y-46283999D01*
X122887164Y-46283999D02*
X122851450Y-46212571D01*
X122851450Y-46212571D02*
X122815735Y-46176856D01*
X122815735Y-46176856D02*
X122744307Y-46141142D01*
X122744307Y-46141142D02*
X122672878Y-46141142D01*
X122672878Y-46141142D02*
X122601450Y-46176856D01*
X122601450Y-46176856D02*
X122565735Y-46212571D01*
X122565735Y-46212571D02*
X122530021Y-46283999D01*
X122530021Y-46283999D02*
X122494307Y-46426856D01*
X122494307Y-46426856D02*
X122458592Y-46498285D01*
X122458592Y-46498285D02*
X122422878Y-46533999D01*
X122422878Y-46533999D02*
X122351450Y-46569713D01*
X122351450Y-46569713D02*
X122280021Y-46569713D01*
X122280021Y-46569713D02*
X122208592Y-46533999D01*
X122208592Y-46533999D02*
X122172878Y-46498285D01*
X122172878Y-46498285D02*
X122137164Y-46426856D01*
X122137164Y-46426856D02*
X122137164Y-46248285D01*
X122137164Y-46248285D02*
X122172878Y-46141142D01*
X122494307Y-45819713D02*
X122494307Y-45569713D01*
X122887164Y-45462570D02*
X122887164Y-45819713D01*
X122887164Y-45819713D02*
X122137164Y-45819713D01*
X122137164Y-45819713D02*
X122137164Y-45462570D01*
X122887164Y-44712571D02*
X122530021Y-44962571D01*
X122887164Y-45141142D02*
X122137164Y-45141142D01*
X122137164Y-45141142D02*
X122137164Y-44855428D01*
X122137164Y-44855428D02*
X122172878Y-44783999D01*
X122172878Y-44783999D02*
X122208592Y-44748285D01*
X122208592Y-44748285D02*
X122280021Y-44712571D01*
X122280021Y-44712571D02*
X122387164Y-44712571D01*
X122387164Y-44712571D02*
X122458592Y-44748285D01*
X122458592Y-44748285D02*
X122494307Y-44783999D01*
X122494307Y-44783999D02*
X122530021Y-44855428D01*
X122530021Y-44855428D02*
X122530021Y-45141142D01*
D16*
%TO.C,C7*%
X116128000Y-59730836D02*
X116128000Y-59515164D01*
X116848000Y-59730836D02*
X116848000Y-59515164D01*
%TO.C,C8*%
X94268000Y-54251836D02*
X94268000Y-54036164D01*
X94988000Y-54251836D02*
X94988000Y-54036164D01*
%TO.C,R7*%
X125565500Y-46281258D02*
X125565500Y-45806742D01*
X126610500Y-46281258D02*
X126610500Y-45806742D01*
%TO.C,C10*%
X118645988Y-39607836D02*
X118645988Y-39392164D01*
X119365988Y-39607836D02*
X119365988Y-39392164D01*
%TO.C,D1*%
X123243000Y-45254000D02*
X123243000Y-47539000D01*
X123243000Y-47539000D02*
X124713000Y-47539000D01*
X124713000Y-47539000D02*
X124713000Y-45254000D01*
%TO.C,C5*%
X106528000Y-73611836D02*
X106528000Y-73396164D01*
X107248000Y-73611836D02*
X107248000Y-73396164D01*
%TO.C,C19*%
X110208152Y-60233000D02*
X110423824Y-60233000D01*
X110208152Y-60953000D02*
X110423824Y-60953000D01*
%TO.C,R1*%
X93994359Y-55891000D02*
X94301641Y-55891000D01*
X93994359Y-56651000D02*
X94301641Y-56651000D01*
%TO.C,C9*%
X109923824Y-35853000D02*
X109708152Y-35853000D01*
X109923824Y-36573000D02*
X109708152Y-36573000D01*
%TO.C,U2*%
X119027000Y-75526000D02*
X119027000Y-74726000D01*
X119027000Y-75526000D02*
X119027000Y-76326000D01*
X122147000Y-75526000D02*
X122147000Y-74726000D01*
X122147000Y-75526000D02*
X122147000Y-76326000D01*
%TO.C,C4*%
X94040164Y-56891000D02*
X94255836Y-56891000D01*
X94040164Y-57611000D02*
X94255836Y-57611000D01*
%TO.C,C20*%
X96791000Y-37079164D02*
X96791000Y-37294836D01*
X97511000Y-37079164D02*
X97511000Y-37294836D01*
%TO.C,C3*%
X94255836Y-58851000D02*
X94040164Y-58851000D01*
X94255836Y-59571000D02*
X94040164Y-59571000D01*
%TO.C,R2*%
X94301641Y-57851000D02*
X93994359Y-57851000D01*
X94301641Y-58611000D02*
X93994359Y-58611000D01*
%TO.C,C18*%
X98708152Y-60233000D02*
X98923824Y-60233000D01*
X98708152Y-60953000D02*
X98923824Y-60953000D01*
%TO.C,C34*%
X92038164Y-53243000D02*
X92253836Y-53243000D01*
X92038164Y-53963000D02*
X92253836Y-53963000D01*
%TO.C,C16*%
X124229080Y-72096000D02*
X123947920Y-72096000D01*
X124229080Y-73116000D02*
X123947920Y-73116000D01*
%TO.C,C15*%
X120446420Y-77936000D02*
X120727580Y-77936000D01*
X120446420Y-78956000D02*
X120727580Y-78956000D01*
%TO.C,C35*%
X114729000Y-61453420D02*
X114729000Y-61734580D01*
X115749000Y-61453420D02*
X115749000Y-61734580D01*
%TO.C,J4*%
X82648000Y-50424000D02*
X82648000Y-50724000D01*
X82648000Y-50424000D02*
X86868000Y-50424000D01*
X82648000Y-52344000D02*
X82648000Y-52724000D01*
X82648000Y-54344000D02*
X82648000Y-54724000D01*
X82648000Y-56344000D02*
X82648000Y-56724000D01*
X82648000Y-58344000D02*
X82648000Y-58724000D01*
X82648000Y-60344000D02*
X82648000Y-60724000D01*
X82648000Y-62344000D02*
X82648000Y-62724000D01*
X82648000Y-64344000D02*
X82648000Y-64724000D01*
X82648000Y-66344000D02*
X82648000Y-66724000D01*
X82648000Y-68344000D02*
X82648000Y-68724000D01*
X82648000Y-70344000D02*
X82648000Y-70644000D01*
X82648000Y-70644000D02*
X86868000Y-70644000D01*
X86868000Y-50424000D02*
X86868000Y-50724000D01*
X86868000Y-52344000D02*
X86868000Y-52724000D01*
X86868000Y-54344000D02*
X86868000Y-54724000D01*
X86868000Y-56344000D02*
X86868000Y-56724000D01*
X86868000Y-58344000D02*
X86868000Y-58724000D01*
X86868000Y-60344000D02*
X86868000Y-60724000D01*
X86868000Y-62344000D02*
X86868000Y-62724000D01*
X86868000Y-64344000D02*
X86868000Y-64724000D01*
X86868000Y-66344000D02*
X86868000Y-66724000D01*
X86868000Y-68344000D02*
X86868000Y-68724000D01*
X86868000Y-70344000D02*
X86868000Y-70644000D01*
%TO.C,R3*%
X105428000Y-73320359D02*
X105428000Y-73627641D01*
X106188000Y-73320359D02*
X106188000Y-73627641D01*
%TO.C,J5*%
X123038000Y-50424000D02*
X123038000Y-50724000D01*
X123038000Y-50424000D02*
X127258000Y-50424000D01*
X123038000Y-52344000D02*
X123038000Y-52724000D01*
X123038000Y-54344000D02*
X123038000Y-54724000D01*
X123038000Y-56344000D02*
X123038000Y-56724000D01*
X123038000Y-58344000D02*
X123038000Y-58724000D01*
X123038000Y-60344000D02*
X123038000Y-60724000D01*
X123038000Y-62344000D02*
X123038000Y-62724000D01*
X123038000Y-64344000D02*
X123038000Y-64724000D01*
X123038000Y-66344000D02*
X123038000Y-66724000D01*
X123038000Y-68344000D02*
X123038000Y-68724000D01*
X123038000Y-70344000D02*
X123038000Y-70644000D01*
X123038000Y-70644000D02*
X127258000Y-70644000D01*
X127258000Y-50424000D02*
X127258000Y-50724000D01*
X127258000Y-52344000D02*
X127258000Y-52724000D01*
X127258000Y-54344000D02*
X127258000Y-54724000D01*
X127258000Y-56344000D02*
X127258000Y-56724000D01*
X127258000Y-58344000D02*
X127258000Y-58724000D01*
X127258000Y-60344000D02*
X127258000Y-60724000D01*
X127258000Y-62344000D02*
X127258000Y-62724000D01*
X127258000Y-64344000D02*
X127258000Y-64724000D01*
X127258000Y-66344000D02*
X127258000Y-66724000D01*
X127258000Y-68344000D02*
X127258000Y-68724000D01*
X127258000Y-70344000D02*
X127258000Y-70644000D01*
%TO.C,U1*%
X122528500Y-75526000D02*
X122528500Y-74726000D01*
X122528500Y-75526000D02*
X122528500Y-76326000D01*
X125648500Y-75526000D02*
X125648500Y-74726000D01*
X125648500Y-75526000D02*
X125648500Y-76326000D01*
%TO.C,C21*%
X94265988Y-47295164D02*
X94265988Y-47510836D01*
X94985988Y-47295164D02*
X94985988Y-47510836D01*
%TO.C,C17*%
X123947920Y-77936000D02*
X124229080Y-77936000D01*
X123947920Y-78956000D02*
X124229080Y-78956000D01*
%TO.C,C13*%
X93465408Y-41643000D02*
X93746568Y-41643000D01*
X93465408Y-42663000D02*
X93746568Y-42663000D01*
%TO.C,C1*%
X92038164Y-47843000D02*
X92253836Y-47843000D01*
X92038164Y-48563000D02*
X92253836Y-48563000D01*
%TO.C,C36*%
X119752000Y-39723420D02*
X119752000Y-40004580D01*
X120772000Y-39723420D02*
X120772000Y-40004580D01*
%TO.C,C11*%
X118645988Y-52010836D02*
X118645988Y-51795164D01*
X119365988Y-52010836D02*
X119365988Y-51795164D01*
%TO.C,R14*%
X100382359Y-35833000D02*
X100689641Y-35833000D01*
X100382359Y-36593000D02*
X100689641Y-36593000D01*
%TO.C,R6*%
X107588000Y-73667641D02*
X107588000Y-73360359D01*
X108348000Y-73667641D02*
X108348000Y-73360359D01*
%TO.C,C14*%
X120727580Y-72096000D02*
X120446420Y-72096000D01*
X120727580Y-73116000D02*
X120446420Y-73116000D01*
%TO.C,U4*%
X96705988Y-38293000D02*
X96705988Y-39243000D01*
X96705988Y-58513000D02*
X96705988Y-57563000D01*
X97655988Y-38293000D02*
X96705988Y-38293000D01*
X97655988Y-58513000D02*
X96705988Y-58513000D01*
X115975988Y-38293000D02*
X116925988Y-38293000D01*
X115975988Y-58513000D02*
X116925988Y-58513000D01*
X116925988Y-38293000D02*
X116925988Y-39243000D01*
X116925988Y-58513000D02*
X116925988Y-57563000D01*
%TO.C,C22*%
X104923824Y-35853000D02*
X104708152Y-35853000D01*
X104923824Y-36573000D02*
X104708152Y-36573000D01*
%TO.C,C12*%
X105208152Y-60233000D02*
X105423824Y-60233000D01*
X105208152Y-60953000D02*
X105423824Y-60953000D01*
%TD*%
M02*
