%TF.GenerationSoftware,KiCad,Pcbnew,9.0.4*%
%TF.CreationDate,2025-10-08T12:20:32+02:00*%
%TF.ProjectId,cansat-camera-pcb,63616e73-6174-42d6-9361-6d6572612d70,1.0*%
%TF.SameCoordinates,Original*%
%TF.FileFunction,Legend,Bot*%
%TF.FilePolarity,Positive*%
%FSLAX46Y46*%
G04 Gerber Fmt 4.6, Leading zero omitted, Abs format (unit mm)*
G04 Created by KiCad (PCBNEW 9.0.4) date 2025-10-08 12:20:32*
%MOMM*%
%LPD*%
G01*
G04 APERTURE LIST*
%ADD10C,0.140000*%
%ADD11C,0.017999*%
%ADD12C,0.100000*%
%ADD13C,0.112500*%
%ADD14C,0.120000*%
%ADD15C,0.127000*%
%ADD16C,0.200000*%
G04 APERTURE END LIST*
D10*
X80349262Y-108944815D02*
X79023169Y-108944815D01*
X79023169Y-108685524D01*
X80349262Y-108685524D01*
X80349262Y-108944815D01*
G36*
X80349262Y-108944815D02*
G01*
X79023169Y-108944815D01*
X79023169Y-108685524D01*
X80349262Y-108685524D01*
X80349262Y-108944815D01*
G37*
X74301588Y-108050878D02*
X74044766Y-108421293D01*
X74044766Y-107221142D01*
X74301588Y-107221142D01*
X74301588Y-108050878D01*
G36*
X74301588Y-108050878D02*
G01*
X74044766Y-108421293D01*
X74044766Y-107221142D01*
X74301588Y-107221142D01*
X74301588Y-108050878D01*
G37*
X71659285Y-108944817D02*
X71390115Y-108944817D01*
X71390115Y-108744791D01*
X71659285Y-108744791D01*
X71659285Y-108944817D01*
G36*
X71659285Y-108944817D02*
G01*
X71390115Y-108944817D01*
X71390115Y-108744791D01*
X71659285Y-108744791D01*
X71659285Y-108944817D01*
G37*
X79820800Y-108379312D02*
X79556569Y-108379312D01*
X79556569Y-107221142D01*
X79820800Y-107221142D01*
X79820800Y-108379312D01*
G36*
X79820800Y-108379312D02*
G01*
X79556569Y-108379312D01*
X79556569Y-107221142D01*
X79820800Y-107221142D01*
X79820800Y-108379312D01*
G37*
X72912027Y-107197406D02*
X72960981Y-107200272D01*
X73008737Y-107205026D01*
X73055267Y-107211650D01*
X73100543Y-107220126D01*
X73144539Y-107230436D01*
X73187226Y-107242562D01*
X73228577Y-107256485D01*
X73268564Y-107272189D01*
X73307160Y-107289654D01*
X73344336Y-107308863D01*
X73380067Y-107329797D01*
X73414323Y-107352438D01*
X73447078Y-107376769D01*
X73478303Y-107402771D01*
X73507971Y-107430427D01*
X73536056Y-107459717D01*
X73562528Y-107490624D01*
X73587360Y-107523130D01*
X73610526Y-107557217D01*
X73631997Y-107592867D01*
X73651745Y-107630061D01*
X73669743Y-107668782D01*
X73685964Y-107709011D01*
X73700380Y-107750731D01*
X73712964Y-107793923D01*
X73723687Y-107838569D01*
X73732522Y-107884651D01*
X73739442Y-107932151D01*
X73744419Y-107981051D01*
X73747425Y-108031333D01*
X73748434Y-108082979D01*
X73747434Y-108132192D01*
X73744455Y-108180267D01*
X73739532Y-108227177D01*
X73732696Y-108272899D01*
X73723981Y-108317407D01*
X73713419Y-108360677D01*
X73701045Y-108402684D01*
X73686890Y-108443402D01*
X73670989Y-108482807D01*
X73653373Y-108520874D01*
X73634075Y-108557578D01*
X73613130Y-108592895D01*
X73590570Y-108626799D01*
X73566427Y-108659265D01*
X73540735Y-108690270D01*
X73513527Y-108719787D01*
X73484836Y-108747792D01*
X73454695Y-108774260D01*
X73423137Y-108799166D01*
X73390195Y-108822486D01*
X73355901Y-108844194D01*
X73320290Y-108864266D01*
X73283393Y-108882676D01*
X73245245Y-108899401D01*
X73205877Y-108914414D01*
X73165324Y-108927691D01*
X73123617Y-108939208D01*
X73080790Y-108948939D01*
X73036877Y-108956860D01*
X72991909Y-108962945D01*
X72945920Y-108967170D01*
X72898944Y-108969510D01*
X72898944Y-108717627D01*
X72932343Y-108715575D01*
X72964931Y-108712209D01*
X72996691Y-108707545D01*
X73027606Y-108701600D01*
X73057659Y-108694390D01*
X73086836Y-108685934D01*
X73115119Y-108676246D01*
X73142493Y-108665344D01*
X73168940Y-108653245D01*
X73194445Y-108639966D01*
X73218992Y-108625522D01*
X73242563Y-108609931D01*
X73265144Y-108593210D01*
X73286716Y-108575375D01*
X73307266Y-108556444D01*
X73326775Y-108536432D01*
X73345228Y-108515356D01*
X73362609Y-108493234D01*
X73378900Y-108470082D01*
X73394087Y-108445916D01*
X73408152Y-108420754D01*
X73421079Y-108394612D01*
X73432853Y-108367507D01*
X73443456Y-108339455D01*
X73452873Y-108310474D01*
X73461087Y-108280580D01*
X73468082Y-108249790D01*
X73473842Y-108218120D01*
X73478350Y-108185587D01*
X73481591Y-108152209D01*
X73483547Y-108118001D01*
X73484202Y-108082981D01*
X73483503Y-108046825D01*
X73481419Y-108011527D01*
X73477966Y-107977106D01*
X73473162Y-107943582D01*
X73467026Y-107910973D01*
X73459574Y-107879298D01*
X73450824Y-107848576D01*
X73440794Y-107818826D01*
X73429502Y-107790068D01*
X73416965Y-107762320D01*
X73403200Y-107735601D01*
X73388227Y-107709929D01*
X73372061Y-107685326D01*
X73354721Y-107661808D01*
X73336224Y-107639395D01*
X73316588Y-107618107D01*
X73295831Y-107597961D01*
X73273971Y-107578978D01*
X73251024Y-107561175D01*
X73227008Y-107544573D01*
X73201942Y-107529190D01*
X73175843Y-107515045D01*
X73148728Y-107502156D01*
X73120615Y-107490544D01*
X73091521Y-107480227D01*
X73061465Y-107471224D01*
X73030464Y-107463554D01*
X72998536Y-107457236D01*
X72965698Y-107452289D01*
X72931968Y-107448731D01*
X72897363Y-107446583D01*
X72861901Y-107445863D01*
X72827821Y-107446547D01*
X72794578Y-107448586D01*
X72762186Y-107451961D01*
X72730659Y-107456652D01*
X72700008Y-107462640D01*
X72670248Y-107469906D01*
X72641392Y-107478429D01*
X72613452Y-107488191D01*
X72586441Y-107499172D01*
X72560374Y-107511352D01*
X72535262Y-107524713D01*
X72511119Y-107539234D01*
X72487959Y-107554897D01*
X72465793Y-107571681D01*
X72444636Y-107589568D01*
X72424501Y-107608538D01*
X72405400Y-107628571D01*
X72387346Y-107649649D01*
X72370354Y-107671751D01*
X72354435Y-107694858D01*
X72339603Y-107718951D01*
X72325872Y-107744010D01*
X72313254Y-107770016D01*
X72301762Y-107796949D01*
X72291409Y-107824791D01*
X72282209Y-107853520D01*
X72274175Y-107883119D01*
X72267320Y-107913568D01*
X72261656Y-107944846D01*
X72257198Y-107976936D01*
X72253958Y-108009817D01*
X72251949Y-108043469D01*
X71982780Y-108043467D01*
X71985365Y-107995846D01*
X71989859Y-107949309D01*
X71996231Y-107903884D01*
X72004451Y-107859600D01*
X72014488Y-107816484D01*
X72026313Y-107774564D01*
X72039895Y-107733869D01*
X72055204Y-107694427D01*
X72072210Y-107656265D01*
X72090882Y-107619411D01*
X72111189Y-107583894D01*
X72133103Y-107549742D01*
X72156592Y-107516983D01*
X72181625Y-107485644D01*
X72208174Y-107455754D01*
X72236207Y-107427341D01*
X72265694Y-107400432D01*
X72296605Y-107375057D01*
X72328910Y-107351242D01*
X72362578Y-107329016D01*
X72397579Y-107308407D01*
X72433883Y-107289443D01*
X72471459Y-107272153D01*
X72510277Y-107256563D01*
X72550307Y-107242702D01*
X72591518Y-107230599D01*
X72633881Y-107220280D01*
X72677365Y-107211775D01*
X72721939Y-107205111D01*
X72767573Y-107200317D01*
X72814238Y-107197419D01*
X72861902Y-107196447D01*
X72912027Y-107197406D01*
G36*
X72912027Y-107197406D02*
G01*
X72960981Y-107200272D01*
X73008737Y-107205026D01*
X73055267Y-107211650D01*
X73100543Y-107220126D01*
X73144539Y-107230436D01*
X73187226Y-107242562D01*
X73228577Y-107256485D01*
X73268564Y-107272189D01*
X73307160Y-107289654D01*
X73344336Y-107308863D01*
X73380067Y-107329797D01*
X73414323Y-107352438D01*
X73447078Y-107376769D01*
X73478303Y-107402771D01*
X73507971Y-107430427D01*
X73536056Y-107459717D01*
X73562528Y-107490624D01*
X73587360Y-107523130D01*
X73610526Y-107557217D01*
X73631997Y-107592867D01*
X73651745Y-107630061D01*
X73669743Y-107668782D01*
X73685964Y-107709011D01*
X73700380Y-107750731D01*
X73712964Y-107793923D01*
X73723687Y-107838569D01*
X73732522Y-107884651D01*
X73739442Y-107932151D01*
X73744419Y-107981051D01*
X73747425Y-108031333D01*
X73748434Y-108082979D01*
X73747434Y-108132192D01*
X73744455Y-108180267D01*
X73739532Y-108227177D01*
X73732696Y-108272899D01*
X73723981Y-108317407D01*
X73713419Y-108360677D01*
X73701045Y-108402684D01*
X73686890Y-108443402D01*
X73670989Y-108482807D01*
X73653373Y-108520874D01*
X73634075Y-108557578D01*
X73613130Y-108592895D01*
X73590570Y-108626799D01*
X73566427Y-108659265D01*
X73540735Y-108690270D01*
X73513527Y-108719787D01*
X73484836Y-108747792D01*
X73454695Y-108774260D01*
X73423137Y-108799166D01*
X73390195Y-108822486D01*
X73355901Y-108844194D01*
X73320290Y-108864266D01*
X73283393Y-108882676D01*
X73245245Y-108899401D01*
X73205877Y-108914414D01*
X73165324Y-108927691D01*
X73123617Y-108939208D01*
X73080790Y-108948939D01*
X73036877Y-108956860D01*
X72991909Y-108962945D01*
X72945920Y-108967170D01*
X72898944Y-108969510D01*
X72898944Y-108717627D01*
X72932343Y-108715575D01*
X72964931Y-108712209D01*
X72996691Y-108707545D01*
X73027606Y-108701600D01*
X73057659Y-108694390D01*
X73086836Y-108685934D01*
X73115119Y-108676246D01*
X73142493Y-108665344D01*
X73168940Y-108653245D01*
X73194445Y-108639966D01*
X73218992Y-108625522D01*
X73242563Y-108609931D01*
X73265144Y-108593210D01*
X73286716Y-108575375D01*
X73307266Y-108556444D01*
X73326775Y-108536432D01*
X73345228Y-108515356D01*
X73362609Y-108493234D01*
X73378900Y-108470082D01*
X73394087Y-108445916D01*
X73408152Y-108420754D01*
X73421079Y-108394612D01*
X73432853Y-108367507D01*
X73443456Y-108339455D01*
X73452873Y-108310474D01*
X73461087Y-108280580D01*
X73468082Y-108249790D01*
X73473842Y-108218120D01*
X73478350Y-108185587D01*
X73481591Y-108152209D01*
X73483547Y-108118001D01*
X73484202Y-108082981D01*
X73483503Y-108046825D01*
X73481419Y-108011527D01*
X73477966Y-107977106D01*
X73473162Y-107943582D01*
X73467026Y-107910973D01*
X73459574Y-107879298D01*
X73450824Y-107848576D01*
X73440794Y-107818826D01*
X73429502Y-107790068D01*
X73416965Y-107762320D01*
X73403200Y-107735601D01*
X73388227Y-107709929D01*
X73372061Y-107685326D01*
X73354721Y-107661808D01*
X73336224Y-107639395D01*
X73316588Y-107618107D01*
X73295831Y-107597961D01*
X73273971Y-107578978D01*
X73251024Y-107561175D01*
X73227008Y-107544573D01*
X73201942Y-107529190D01*
X73175843Y-107515045D01*
X73148728Y-107502156D01*
X73120615Y-107490544D01*
X73091521Y-107480227D01*
X73061465Y-107471224D01*
X73030464Y-107463554D01*
X72998536Y-107457236D01*
X72965698Y-107452289D01*
X72931968Y-107448731D01*
X72897363Y-107446583D01*
X72861901Y-107445863D01*
X72827821Y-107446547D01*
X72794578Y-107448586D01*
X72762186Y-107451961D01*
X72730659Y-107456652D01*
X72700008Y-107462640D01*
X72670248Y-107469906D01*
X72641392Y-107478429D01*
X72613452Y-107488191D01*
X72586441Y-107499172D01*
X72560374Y-107511352D01*
X72535262Y-107524713D01*
X72511119Y-107539234D01*
X72487959Y-107554897D01*
X72465793Y-107571681D01*
X72444636Y-107589568D01*
X72424501Y-107608538D01*
X72405400Y-107628571D01*
X72387346Y-107649649D01*
X72370354Y-107671751D01*
X72354435Y-107694858D01*
X72339603Y-107718951D01*
X72325872Y-107744010D01*
X72313254Y-107770016D01*
X72301762Y-107796949D01*
X72291409Y-107824791D01*
X72282209Y-107853520D01*
X72274175Y-107883119D01*
X72267320Y-107913568D01*
X72261656Y-107944846D01*
X72257198Y-107976936D01*
X72253958Y-108009817D01*
X72251949Y-108043469D01*
X71982780Y-108043467D01*
X71985365Y-107995846D01*
X71989859Y-107949309D01*
X71996231Y-107903884D01*
X72004451Y-107859600D01*
X72014488Y-107816484D01*
X72026313Y-107774564D01*
X72039895Y-107733869D01*
X72055204Y-107694427D01*
X72072210Y-107656265D01*
X72090882Y-107619411D01*
X72111189Y-107583894D01*
X72133103Y-107549742D01*
X72156592Y-107516983D01*
X72181625Y-107485644D01*
X72208174Y-107455754D01*
X72236207Y-107427341D01*
X72265694Y-107400432D01*
X72296605Y-107375057D01*
X72328910Y-107351242D01*
X72362578Y-107329016D01*
X72397579Y-107308407D01*
X72433883Y-107289443D01*
X72471459Y-107272153D01*
X72510277Y-107256563D01*
X72550307Y-107242702D01*
X72591518Y-107230599D01*
X72633881Y-107220280D01*
X72677365Y-107211775D01*
X72721939Y-107205111D01*
X72767573Y-107200317D01*
X72814238Y-107197419D01*
X72861902Y-107196447D01*
X72912027Y-107197406D01*
G37*
X75494331Y-108944815D02*
X75244918Y-108944815D01*
X75237509Y-107623661D01*
X74323815Y-108944815D01*
X74064523Y-108944815D01*
X75220223Y-107221142D01*
X75494331Y-107221142D01*
X75494331Y-108944815D01*
G36*
X75494331Y-108944815D02*
G01*
X75244918Y-108944815D01*
X75237509Y-107623661D01*
X74323815Y-108944815D01*
X74064523Y-108944815D01*
X75220223Y-107221142D01*
X75494331Y-107221142D01*
X75494331Y-108944815D01*
G37*
X71012290Y-108944815D02*
X70762876Y-108944815D01*
X70755468Y-107623661D01*
X69841773Y-108944815D01*
X69582482Y-108944815D01*
X70738182Y-107221142D01*
X71012290Y-107221142D01*
X71012290Y-108944815D01*
G36*
X71012290Y-108944815D02*
G01*
X70762876Y-108944815D01*
X70755468Y-107623661D01*
X69841773Y-108944815D01*
X69582482Y-108944815D01*
X70738182Y-107221142D01*
X71012290Y-107221142D01*
X71012290Y-108944815D01*
G37*
D11*
X55416675Y-108400000D02*
X56146562Y-108708337D01*
X55416675Y-109016674D01*
X55108338Y-109746562D01*
X54800000Y-109016674D01*
X54070113Y-108708337D01*
X54800000Y-108400000D01*
X55108338Y-107670112D01*
X55416675Y-108400000D01*
G36*
X55416675Y-108400000D02*
G01*
X56146562Y-108708337D01*
X55416675Y-109016674D01*
X55108338Y-109746562D01*
X54800000Y-109016674D01*
X54070113Y-108708337D01*
X54800000Y-108400000D01*
X55108338Y-107670112D01*
X55416675Y-108400000D01*
G37*
D10*
X71656815Y-108431171D02*
X71390115Y-108431171D01*
X71390115Y-107221142D01*
X71656815Y-107221142D01*
X71656815Y-108431171D01*
G36*
X71656815Y-108431171D02*
G01*
X71390115Y-108431171D01*
X71390115Y-107221142D01*
X71656815Y-107221142D01*
X71656815Y-108431171D01*
G37*
X69819548Y-108050878D02*
X69562725Y-108421293D01*
X69562725Y-107221142D01*
X69819548Y-107221142D01*
X69819548Y-108050878D01*
G36*
X69819548Y-108050878D02*
G01*
X69562725Y-108421293D01*
X69562725Y-107221142D01*
X69819548Y-107221142D01*
X69819548Y-108050878D01*
G37*
X76541169Y-107198141D02*
X76600377Y-107203269D01*
X76659187Y-107211914D01*
X76717053Y-107224153D01*
X76773429Y-107240069D01*
X76827769Y-107259739D01*
X76879525Y-107283243D01*
X76928153Y-107310661D01*
X76951122Y-107325863D01*
X76973105Y-107342073D01*
X76994032Y-107359302D01*
X77013836Y-107377558D01*
X77032447Y-107396853D01*
X77049799Y-107417196D01*
X77065822Y-107438597D01*
X77080448Y-107461066D01*
X77093609Y-107484613D01*
X77105237Y-107509248D01*
X77115264Y-107534981D01*
X77123620Y-107561822D01*
X77130238Y-107589780D01*
X77135050Y-107618866D01*
X77137988Y-107649090D01*
X77138982Y-107680461D01*
X77138286Y-107707698D01*
X77136225Y-107733863D01*
X77132835Y-107758987D01*
X77128154Y-107783098D01*
X77122220Y-107806225D01*
X77115069Y-107828397D01*
X77106741Y-107849643D01*
X77097271Y-107869991D01*
X77086699Y-107889472D01*
X77075060Y-107908114D01*
X77062394Y-107925945D01*
X77048736Y-107942994D01*
X77034126Y-107959292D01*
X77018600Y-107974866D01*
X77002195Y-107989745D01*
X76984950Y-108003959D01*
X76966902Y-108017536D01*
X76948089Y-108030505D01*
X76928548Y-108042896D01*
X76908316Y-108054736D01*
X76865930Y-108076884D01*
X76821234Y-108097180D01*
X76774526Y-108115855D01*
X76726107Y-108133141D01*
X76676277Y-108149269D01*
X76625337Y-108164472D01*
X76600237Y-108172584D01*
X76575022Y-108180292D01*
X76524707Y-108194723D01*
X76427782Y-108221270D01*
X76374298Y-108237172D01*
X76317544Y-108255881D01*
X76288800Y-108266587D01*
X76260269Y-108278352D01*
X76232296Y-108291297D01*
X76205223Y-108305540D01*
X76179394Y-108321202D01*
X76155154Y-108338400D01*
X76132845Y-108357256D01*
X76122522Y-108367342D01*
X76112811Y-108377887D01*
X76103755Y-108388906D01*
X76095397Y-108400414D01*
X76087779Y-108412426D01*
X76080945Y-108424956D01*
X76074937Y-108438019D01*
X76069799Y-108451632D01*
X76065573Y-108465807D01*
X76062303Y-108480561D01*
X75807950Y-108487969D01*
X75810180Y-108463468D01*
X75813608Y-108439952D01*
X75818200Y-108417394D01*
X75823924Y-108395766D01*
X75830748Y-108375040D01*
X75838640Y-108355189D01*
X75847565Y-108336186D01*
X75857493Y-108318002D01*
X75868390Y-108300611D01*
X75880225Y-108283984D01*
X75892963Y-108268094D01*
X75906573Y-108252914D01*
X75921023Y-108238415D01*
X75936279Y-108224571D01*
X75952309Y-108211354D01*
X75969081Y-108198735D01*
X75986562Y-108186689D01*
X76004719Y-108175186D01*
X76023521Y-108164199D01*
X76042933Y-108153702D01*
X76083462Y-108134062D01*
X76126045Y-108116047D01*
X76170423Y-108099436D01*
X76216335Y-108084007D01*
X76263519Y-108069541D01*
X76311717Y-108055816D01*
X76336001Y-108047810D01*
X76360604Y-108040382D01*
X76385381Y-108033418D01*
X76410186Y-108026800D01*
X76459305Y-108014144D01*
X76506803Y-108001488D01*
X76599408Y-107969385D01*
X76642932Y-107953565D01*
X76663999Y-107945511D01*
X76684603Y-107937283D01*
X76704210Y-107927291D01*
X76723155Y-107916727D01*
X76741354Y-107905541D01*
X76758725Y-107893682D01*
X76775185Y-107881100D01*
X76790649Y-107867743D01*
X76805036Y-107853562D01*
X76818262Y-107838505D01*
X76824413Y-107830633D01*
X76830243Y-107822523D01*
X76835741Y-107814168D01*
X76840897Y-107805564D01*
X76845700Y-107796702D01*
X76850140Y-107787577D01*
X76854206Y-107778183D01*
X76857889Y-107768512D01*
X76861177Y-107758560D01*
X76864060Y-107748319D01*
X76866529Y-107737784D01*
X76868572Y-107726947D01*
X76870179Y-107715802D01*
X76871340Y-107704344D01*
X76872044Y-107692566D01*
X76872281Y-107680461D01*
X76871533Y-107659890D01*
X76869335Y-107640295D01*
X76865757Y-107621656D01*
X76860869Y-107603952D01*
X76854740Y-107587162D01*
X76847440Y-107571263D01*
X76839039Y-107556235D01*
X76829606Y-107542057D01*
X76819210Y-107528707D01*
X76807922Y-107516165D01*
X76795811Y-107504408D01*
X76782947Y-107493416D01*
X76769399Y-107483167D01*
X76755236Y-107473640D01*
X76740530Y-107464815D01*
X76725349Y-107456668D01*
X76709762Y-107449181D01*
X76693840Y-107442330D01*
X76677652Y-107436095D01*
X76661268Y-107430455D01*
X76628190Y-107420873D01*
X76595162Y-107413414D01*
X76562742Y-107407909D01*
X76531487Y-107404188D01*
X76501954Y-107402079D01*
X76474700Y-107401414D01*
X76435556Y-107402581D01*
X76396999Y-107406122D01*
X76359266Y-107412093D01*
X76322597Y-107420553D01*
X76287230Y-107431559D01*
X76253405Y-107445170D01*
X76237144Y-107452970D01*
X76221359Y-107461444D01*
X76206077Y-107470597D01*
X76191331Y-107480437D01*
X76177149Y-107490972D01*
X76163560Y-107502209D01*
X76150596Y-107514155D01*
X76138286Y-107526817D01*
X76126659Y-107540202D01*
X76115746Y-107554318D01*
X76105577Y-107569172D01*
X76096180Y-107584772D01*
X76087587Y-107601123D01*
X76079826Y-107618234D01*
X76072928Y-107636113D01*
X76066923Y-107654765D01*
X76061840Y-107674198D01*
X76057709Y-107694421D01*
X76054561Y-107715439D01*
X76052424Y-107737260D01*
X75778317Y-107737257D01*
X75780777Y-107700726D01*
X75784891Y-107665665D01*
X75790620Y-107632053D01*
X75797923Y-107599871D01*
X75806762Y-107569097D01*
X75817097Y-107539712D01*
X75828889Y-107511696D01*
X75842098Y-107485027D01*
X75856686Y-107459686D01*
X75872612Y-107435652D01*
X75889838Y-107412905D01*
X75908325Y-107391425D01*
X75928032Y-107371190D01*
X75948920Y-107352182D01*
X75970951Y-107334379D01*
X75994085Y-107317761D01*
X76018282Y-107302308D01*
X76043503Y-107287999D01*
X76069710Y-107274814D01*
X76096861Y-107262734D01*
X76124919Y-107251736D01*
X76153844Y-107241802D01*
X76183596Y-107232910D01*
X76214136Y-107225041D01*
X76245425Y-107218174D01*
X76277423Y-107212288D01*
X76343391Y-107203380D01*
X76411725Y-107198155D01*
X76482109Y-107196449D01*
X76541169Y-107198141D01*
G36*
X76541169Y-107198141D02*
G01*
X76600377Y-107203269D01*
X76659187Y-107211914D01*
X76717053Y-107224153D01*
X76773429Y-107240069D01*
X76827769Y-107259739D01*
X76879525Y-107283243D01*
X76928153Y-107310661D01*
X76951122Y-107325863D01*
X76973105Y-107342073D01*
X76994032Y-107359302D01*
X77013836Y-107377558D01*
X77032447Y-107396853D01*
X77049799Y-107417196D01*
X77065822Y-107438597D01*
X77080448Y-107461066D01*
X77093609Y-107484613D01*
X77105237Y-107509248D01*
X77115264Y-107534981D01*
X77123620Y-107561822D01*
X77130238Y-107589780D01*
X77135050Y-107618866D01*
X77137988Y-107649090D01*
X77138982Y-107680461D01*
X77138286Y-107707698D01*
X77136225Y-107733863D01*
X77132835Y-107758987D01*
X77128154Y-107783098D01*
X77122220Y-107806225D01*
X77115069Y-107828397D01*
X77106741Y-107849643D01*
X77097271Y-107869991D01*
X77086699Y-107889472D01*
X77075060Y-107908114D01*
X77062394Y-107925945D01*
X77048736Y-107942994D01*
X77034126Y-107959292D01*
X77018600Y-107974866D01*
X77002195Y-107989745D01*
X76984950Y-108003959D01*
X76966902Y-108017536D01*
X76948089Y-108030505D01*
X76928548Y-108042896D01*
X76908316Y-108054736D01*
X76865930Y-108076884D01*
X76821234Y-108097180D01*
X76774526Y-108115855D01*
X76726107Y-108133141D01*
X76676277Y-108149269D01*
X76625337Y-108164472D01*
X76600237Y-108172584D01*
X76575022Y-108180292D01*
X76524707Y-108194723D01*
X76427782Y-108221270D01*
X76374298Y-108237172D01*
X76317544Y-108255881D01*
X76288800Y-108266587D01*
X76260269Y-108278352D01*
X76232296Y-108291297D01*
X76205223Y-108305540D01*
X76179394Y-108321202D01*
X76155154Y-108338400D01*
X76132845Y-108357256D01*
X76122522Y-108367342D01*
X76112811Y-108377887D01*
X76103755Y-108388906D01*
X76095397Y-108400414D01*
X76087779Y-108412426D01*
X76080945Y-108424956D01*
X76074937Y-108438019D01*
X76069799Y-108451632D01*
X76065573Y-108465807D01*
X76062303Y-108480561D01*
X75807950Y-108487969D01*
X75810180Y-108463468D01*
X75813608Y-108439952D01*
X75818200Y-108417394D01*
X75823924Y-108395766D01*
X75830748Y-108375040D01*
X75838640Y-108355189D01*
X75847565Y-108336186D01*
X75857493Y-108318002D01*
X75868390Y-108300611D01*
X75880225Y-108283984D01*
X75892963Y-108268094D01*
X75906573Y-108252914D01*
X75921023Y-108238415D01*
X75936279Y-108224571D01*
X75952309Y-108211354D01*
X75969081Y-108198735D01*
X75986562Y-108186689D01*
X76004719Y-108175186D01*
X76023521Y-108164199D01*
X76042933Y-108153702D01*
X76083462Y-108134062D01*
X76126045Y-108116047D01*
X76170423Y-108099436D01*
X76216335Y-108084007D01*
X76263519Y-108069541D01*
X76311717Y-108055816D01*
X76336001Y-108047810D01*
X76360604Y-108040382D01*
X76385381Y-108033418D01*
X76410186Y-108026800D01*
X76459305Y-108014144D01*
X76506803Y-108001488D01*
X76599408Y-107969385D01*
X76642932Y-107953565D01*
X76663999Y-107945511D01*
X76684603Y-107937283D01*
X76704210Y-107927291D01*
X76723155Y-107916727D01*
X76741354Y-107905541D01*
X76758725Y-107893682D01*
X76775185Y-107881100D01*
X76790649Y-107867743D01*
X76805036Y-107853562D01*
X76818262Y-107838505D01*
X76824413Y-107830633D01*
X76830243Y-107822523D01*
X76835741Y-107814168D01*
X76840897Y-107805564D01*
X76845700Y-107796702D01*
X76850140Y-107787577D01*
X76854206Y-107778183D01*
X76857889Y-107768512D01*
X76861177Y-107758560D01*
X76864060Y-107748319D01*
X76866529Y-107737784D01*
X76868572Y-107726947D01*
X76870179Y-107715802D01*
X76871340Y-107704344D01*
X76872044Y-107692566D01*
X76872281Y-107680461D01*
X76871533Y-107659890D01*
X76869335Y-107640295D01*
X76865757Y-107621656D01*
X76860869Y-107603952D01*
X76854740Y-107587162D01*
X76847440Y-107571263D01*
X76839039Y-107556235D01*
X76829606Y-107542057D01*
X76819210Y-107528707D01*
X76807922Y-107516165D01*
X76795811Y-107504408D01*
X76782947Y-107493416D01*
X76769399Y-107483167D01*
X76755236Y-107473640D01*
X76740530Y-107464815D01*
X76725349Y-107456668D01*
X76709762Y-107449181D01*
X76693840Y-107442330D01*
X76677652Y-107436095D01*
X76661268Y-107430455D01*
X76628190Y-107420873D01*
X76595162Y-107413414D01*
X76562742Y-107407909D01*
X76531487Y-107404188D01*
X76501954Y-107402079D01*
X76474700Y-107401414D01*
X76435556Y-107402581D01*
X76396999Y-107406122D01*
X76359266Y-107412093D01*
X76322597Y-107420553D01*
X76287230Y-107431559D01*
X76253405Y-107445170D01*
X76237144Y-107452970D01*
X76221359Y-107461444D01*
X76206077Y-107470597D01*
X76191331Y-107480437D01*
X76177149Y-107490972D01*
X76163560Y-107502209D01*
X76150596Y-107514155D01*
X76138286Y-107526817D01*
X76126659Y-107540202D01*
X76115746Y-107554318D01*
X76105577Y-107569172D01*
X76096180Y-107584772D01*
X76087587Y-107601123D01*
X76079826Y-107618234D01*
X76072928Y-107636113D01*
X76066923Y-107654765D01*
X76061840Y-107674198D01*
X76057709Y-107694421D01*
X76054561Y-107715439D01*
X76052424Y-107737260D01*
X75778317Y-107737257D01*
X75780777Y-107700726D01*
X75784891Y-107665665D01*
X75790620Y-107632053D01*
X75797923Y-107599871D01*
X75806762Y-107569097D01*
X75817097Y-107539712D01*
X75828889Y-107511696D01*
X75842098Y-107485027D01*
X75856686Y-107459686D01*
X75872612Y-107435652D01*
X75889838Y-107412905D01*
X75908325Y-107391425D01*
X75928032Y-107371190D01*
X75948920Y-107352182D01*
X75970951Y-107334379D01*
X75994085Y-107317761D01*
X76018282Y-107302308D01*
X76043503Y-107287999D01*
X76069710Y-107274814D01*
X76096861Y-107262734D01*
X76124919Y-107251736D01*
X76153844Y-107241802D01*
X76183596Y-107232910D01*
X76214136Y-107225041D01*
X76245425Y-107218174D01*
X76277423Y-107212288D01*
X76343391Y-107203380D01*
X76411725Y-107198155D01*
X76482109Y-107196449D01*
X76541169Y-107198141D01*
G37*
X77138982Y-108431171D02*
X77136369Y-108465495D01*
X77132256Y-108498559D01*
X77126678Y-108530375D01*
X77119670Y-108560958D01*
X77111265Y-108590319D01*
X77101499Y-108618473D01*
X77090405Y-108645432D01*
X77078017Y-108671210D01*
X77064371Y-108695819D01*
X77049500Y-108719273D01*
X77033440Y-108741585D01*
X77016223Y-108762767D01*
X76997885Y-108782834D01*
X76978460Y-108801798D01*
X76957983Y-108819672D01*
X76936487Y-108836469D01*
X76914007Y-108852203D01*
X76890578Y-108866887D01*
X76866234Y-108880533D01*
X76841008Y-108893155D01*
X76814936Y-108904767D01*
X76788053Y-108915380D01*
X76760391Y-108925008D01*
X76731986Y-108933665D01*
X76702872Y-108941363D01*
X76673084Y-108948115D01*
X76611620Y-108958836D01*
X76547870Y-108965933D01*
X76482109Y-108969510D01*
X76484580Y-108767015D01*
X76520052Y-108763568D01*
X76555017Y-108757851D01*
X76589259Y-108749847D01*
X76622560Y-108739542D01*
X76654704Y-108726922D01*
X76685474Y-108711973D01*
X76714651Y-108694680D01*
X76728575Y-108685149D01*
X76742020Y-108675028D01*
X76754959Y-108664313D01*
X76767363Y-108653003D01*
X76779207Y-108641096D01*
X76790464Y-108628591D01*
X76801105Y-108615485D01*
X76811104Y-108601776D01*
X76820434Y-108587464D01*
X76829068Y-108572546D01*
X76836978Y-108557020D01*
X76844138Y-108540884D01*
X76850520Y-108524137D01*
X76856097Y-108506777D01*
X76860842Y-108488802D01*
X76864728Y-108470210D01*
X76867727Y-108451000D01*
X76869814Y-108431169D01*
X77138982Y-108431171D01*
G36*
X77138982Y-108431171D02*
G01*
X77136369Y-108465495D01*
X77132256Y-108498559D01*
X77126678Y-108530375D01*
X77119670Y-108560958D01*
X77111265Y-108590319D01*
X77101499Y-108618473D01*
X77090405Y-108645432D01*
X77078017Y-108671210D01*
X77064371Y-108695819D01*
X77049500Y-108719273D01*
X77033440Y-108741585D01*
X77016223Y-108762767D01*
X76997885Y-108782834D01*
X76978460Y-108801798D01*
X76957983Y-108819672D01*
X76936487Y-108836469D01*
X76914007Y-108852203D01*
X76890578Y-108866887D01*
X76866234Y-108880533D01*
X76841008Y-108893155D01*
X76814936Y-108904767D01*
X76788053Y-108915380D01*
X76760391Y-108925008D01*
X76731986Y-108933665D01*
X76702872Y-108941363D01*
X76673084Y-108948115D01*
X76611620Y-108958836D01*
X76547870Y-108965933D01*
X76482109Y-108969510D01*
X76484580Y-108767015D01*
X76520052Y-108763568D01*
X76555017Y-108757851D01*
X76589259Y-108749847D01*
X76622560Y-108739542D01*
X76654704Y-108726922D01*
X76685474Y-108711973D01*
X76714651Y-108694680D01*
X76728575Y-108685149D01*
X76742020Y-108675028D01*
X76754959Y-108664313D01*
X76767363Y-108653003D01*
X76779207Y-108641096D01*
X76790464Y-108628591D01*
X76801105Y-108615485D01*
X76811104Y-108601776D01*
X76820434Y-108587464D01*
X76829068Y-108572546D01*
X76836978Y-108557020D01*
X76844138Y-108540884D01*
X76850520Y-108524137D01*
X76856097Y-108506777D01*
X76860842Y-108488802D01*
X76864728Y-108470210D01*
X76867727Y-108451000D01*
X76869814Y-108431169D01*
X77138982Y-108431171D01*
G37*
X68429987Y-107197406D02*
X68478941Y-107200272D01*
X68526697Y-107205026D01*
X68573226Y-107211650D01*
X68618503Y-107220126D01*
X68662498Y-107230436D01*
X68705185Y-107242562D01*
X68746536Y-107256485D01*
X68786523Y-107272189D01*
X68825119Y-107289654D01*
X68862296Y-107308863D01*
X68898026Y-107329797D01*
X68932282Y-107352438D01*
X68965037Y-107376769D01*
X68996262Y-107402771D01*
X69025931Y-107430427D01*
X69054015Y-107459717D01*
X69080487Y-107490624D01*
X69105320Y-107523130D01*
X69128485Y-107557217D01*
X69149956Y-107592867D01*
X69169705Y-107630061D01*
X69187703Y-107668782D01*
X69203924Y-107709011D01*
X69218340Y-107750731D01*
X69230924Y-107793923D01*
X69241647Y-107838569D01*
X69250482Y-107884651D01*
X69257402Y-107932151D01*
X69262379Y-107981051D01*
X69265385Y-108031333D01*
X69266394Y-108082979D01*
X69265393Y-108132192D01*
X69262415Y-108180267D01*
X69257492Y-108227177D01*
X69250656Y-108272899D01*
X69241941Y-108317407D01*
X69231379Y-108360677D01*
X69219005Y-108402684D01*
X69204850Y-108443402D01*
X69188948Y-108482807D01*
X69171332Y-108520874D01*
X69152035Y-108557578D01*
X69131090Y-108592895D01*
X69108529Y-108626799D01*
X69084387Y-108659265D01*
X69058695Y-108690270D01*
X69031487Y-108719787D01*
X69002796Y-108747792D01*
X68972655Y-108774260D01*
X68941097Y-108799166D01*
X68908155Y-108822486D01*
X68873861Y-108844194D01*
X68838250Y-108864266D01*
X68801353Y-108882676D01*
X68763205Y-108899401D01*
X68723837Y-108914414D01*
X68683284Y-108927691D01*
X68641577Y-108939208D01*
X68598750Y-108948939D01*
X68554836Y-108956860D01*
X68509869Y-108962945D01*
X68463880Y-108967170D01*
X68416903Y-108969510D01*
X68416903Y-108717627D01*
X68450303Y-108715575D01*
X68482891Y-108712209D01*
X68514651Y-108707545D01*
X68545565Y-108701600D01*
X68575619Y-108694390D01*
X68604796Y-108685934D01*
X68633079Y-108676246D01*
X68660453Y-108665344D01*
X68686900Y-108653245D01*
X68712405Y-108639966D01*
X68736951Y-108625522D01*
X68760523Y-108609931D01*
X68783103Y-108593210D01*
X68804676Y-108575375D01*
X68825226Y-108556444D01*
X68844735Y-108536432D01*
X68863188Y-108515356D01*
X68880568Y-108493234D01*
X68896860Y-108470082D01*
X68912047Y-108445916D01*
X68926112Y-108420754D01*
X68939039Y-108394612D01*
X68950813Y-108367507D01*
X68961416Y-108339455D01*
X68970833Y-108310474D01*
X68979047Y-108280580D01*
X68986042Y-108249790D01*
X68991802Y-108218120D01*
X68996310Y-108185587D01*
X68999550Y-108152209D01*
X69001507Y-108118001D01*
X69002162Y-108082981D01*
X69001463Y-108046825D01*
X68999379Y-108011527D01*
X68995926Y-107977106D01*
X68991122Y-107943582D01*
X68984985Y-107910973D01*
X68977533Y-107879298D01*
X68968784Y-107848576D01*
X68958754Y-107818826D01*
X68947462Y-107790068D01*
X68934925Y-107762320D01*
X68921160Y-107735601D01*
X68906187Y-107709929D01*
X68890021Y-107685326D01*
X68872681Y-107661808D01*
X68854184Y-107639395D01*
X68834548Y-107618107D01*
X68813791Y-107597961D01*
X68791931Y-107578978D01*
X68768984Y-107561175D01*
X68744968Y-107544573D01*
X68719902Y-107529190D01*
X68693803Y-107515045D01*
X68666688Y-107502156D01*
X68638575Y-107490544D01*
X68609482Y-107480227D01*
X68579426Y-107471224D01*
X68548425Y-107463554D01*
X68516497Y-107457236D01*
X68483659Y-107452289D01*
X68449928Y-107448731D01*
X68415324Y-107446583D01*
X68379862Y-107445863D01*
X68345782Y-107446547D01*
X68312539Y-107448586D01*
X68280147Y-107451961D01*
X68248620Y-107456652D01*
X68217969Y-107462640D01*
X68188209Y-107469906D01*
X68159353Y-107478429D01*
X68131413Y-107488191D01*
X68104402Y-107499172D01*
X68078335Y-107511352D01*
X68053223Y-107524713D01*
X68029080Y-107539234D01*
X68005920Y-107554897D01*
X67983754Y-107571681D01*
X67962597Y-107589568D01*
X67942461Y-107608538D01*
X67923360Y-107628571D01*
X67905307Y-107649649D01*
X67888314Y-107671751D01*
X67872396Y-107694858D01*
X67857564Y-107718951D01*
X67843832Y-107744010D01*
X67831214Y-107770016D01*
X67819722Y-107796949D01*
X67809370Y-107824791D01*
X67800170Y-107853520D01*
X67792135Y-107883119D01*
X67785280Y-107913568D01*
X67779617Y-107944846D01*
X67775158Y-107976936D01*
X67771918Y-108009817D01*
X67769909Y-108043469D01*
X67500739Y-108043467D01*
X67503324Y-107995846D01*
X67507818Y-107949309D01*
X67514190Y-107903884D01*
X67522409Y-107859600D01*
X67532447Y-107816484D01*
X67544272Y-107774564D01*
X67557854Y-107733869D01*
X67573163Y-107694427D01*
X67590169Y-107656265D01*
X67608841Y-107619411D01*
X67629148Y-107583894D01*
X67651062Y-107549742D01*
X67674550Y-107516983D01*
X67699584Y-107485644D01*
X67726133Y-107455754D01*
X67754166Y-107427341D01*
X67783653Y-107400432D01*
X67814564Y-107375057D01*
X67846869Y-107351242D01*
X67880537Y-107329016D01*
X67915538Y-107308407D01*
X67951842Y-107289443D01*
X67989418Y-107272153D01*
X68028236Y-107256563D01*
X68068266Y-107242702D01*
X68109478Y-107230599D01*
X68151840Y-107220280D01*
X68195324Y-107211775D01*
X68239898Y-107205111D01*
X68285533Y-107200317D01*
X68332198Y-107197419D01*
X68379862Y-107196447D01*
X68429987Y-107197406D01*
G36*
X68429987Y-107197406D02*
G01*
X68478941Y-107200272D01*
X68526697Y-107205026D01*
X68573226Y-107211650D01*
X68618503Y-107220126D01*
X68662498Y-107230436D01*
X68705185Y-107242562D01*
X68746536Y-107256485D01*
X68786523Y-107272189D01*
X68825119Y-107289654D01*
X68862296Y-107308863D01*
X68898026Y-107329797D01*
X68932282Y-107352438D01*
X68965037Y-107376769D01*
X68996262Y-107402771D01*
X69025931Y-107430427D01*
X69054015Y-107459717D01*
X69080487Y-107490624D01*
X69105320Y-107523130D01*
X69128485Y-107557217D01*
X69149956Y-107592867D01*
X69169705Y-107630061D01*
X69187703Y-107668782D01*
X69203924Y-107709011D01*
X69218340Y-107750731D01*
X69230924Y-107793923D01*
X69241647Y-107838569D01*
X69250482Y-107884651D01*
X69257402Y-107932151D01*
X69262379Y-107981051D01*
X69265385Y-108031333D01*
X69266394Y-108082979D01*
X69265393Y-108132192D01*
X69262415Y-108180267D01*
X69257492Y-108227177D01*
X69250656Y-108272899D01*
X69241941Y-108317407D01*
X69231379Y-108360677D01*
X69219005Y-108402684D01*
X69204850Y-108443402D01*
X69188948Y-108482807D01*
X69171332Y-108520874D01*
X69152035Y-108557578D01*
X69131090Y-108592895D01*
X69108529Y-108626799D01*
X69084387Y-108659265D01*
X69058695Y-108690270D01*
X69031487Y-108719787D01*
X69002796Y-108747792D01*
X68972655Y-108774260D01*
X68941097Y-108799166D01*
X68908155Y-108822486D01*
X68873861Y-108844194D01*
X68838250Y-108864266D01*
X68801353Y-108882676D01*
X68763205Y-108899401D01*
X68723837Y-108914414D01*
X68683284Y-108927691D01*
X68641577Y-108939208D01*
X68598750Y-108948939D01*
X68554836Y-108956860D01*
X68509869Y-108962945D01*
X68463880Y-108967170D01*
X68416903Y-108969510D01*
X68416903Y-108717627D01*
X68450303Y-108715575D01*
X68482891Y-108712209D01*
X68514651Y-108707545D01*
X68545565Y-108701600D01*
X68575619Y-108694390D01*
X68604796Y-108685934D01*
X68633079Y-108676246D01*
X68660453Y-108665344D01*
X68686900Y-108653245D01*
X68712405Y-108639966D01*
X68736951Y-108625522D01*
X68760523Y-108609931D01*
X68783103Y-108593210D01*
X68804676Y-108575375D01*
X68825226Y-108556444D01*
X68844735Y-108536432D01*
X68863188Y-108515356D01*
X68880568Y-108493234D01*
X68896860Y-108470082D01*
X68912047Y-108445916D01*
X68926112Y-108420754D01*
X68939039Y-108394612D01*
X68950813Y-108367507D01*
X68961416Y-108339455D01*
X68970833Y-108310474D01*
X68979047Y-108280580D01*
X68986042Y-108249790D01*
X68991802Y-108218120D01*
X68996310Y-108185587D01*
X68999550Y-108152209D01*
X69001507Y-108118001D01*
X69002162Y-108082981D01*
X69001463Y-108046825D01*
X68999379Y-108011527D01*
X68995926Y-107977106D01*
X68991122Y-107943582D01*
X68984985Y-107910973D01*
X68977533Y-107879298D01*
X68968784Y-107848576D01*
X68958754Y-107818826D01*
X68947462Y-107790068D01*
X68934925Y-107762320D01*
X68921160Y-107735601D01*
X68906187Y-107709929D01*
X68890021Y-107685326D01*
X68872681Y-107661808D01*
X68854184Y-107639395D01*
X68834548Y-107618107D01*
X68813791Y-107597961D01*
X68791931Y-107578978D01*
X68768984Y-107561175D01*
X68744968Y-107544573D01*
X68719902Y-107529190D01*
X68693803Y-107515045D01*
X68666688Y-107502156D01*
X68638575Y-107490544D01*
X68609482Y-107480227D01*
X68579426Y-107471224D01*
X68548425Y-107463554D01*
X68516497Y-107457236D01*
X68483659Y-107452289D01*
X68449928Y-107448731D01*
X68415324Y-107446583D01*
X68379862Y-107445863D01*
X68345782Y-107446547D01*
X68312539Y-107448586D01*
X68280147Y-107451961D01*
X68248620Y-107456652D01*
X68217969Y-107462640D01*
X68188209Y-107469906D01*
X68159353Y-107478429D01*
X68131413Y-107488191D01*
X68104402Y-107499172D01*
X68078335Y-107511352D01*
X68053223Y-107524713D01*
X68029080Y-107539234D01*
X68005920Y-107554897D01*
X67983754Y-107571681D01*
X67962597Y-107589568D01*
X67942461Y-107608538D01*
X67923360Y-107628571D01*
X67905307Y-107649649D01*
X67888314Y-107671751D01*
X67872396Y-107694858D01*
X67857564Y-107718951D01*
X67843832Y-107744010D01*
X67831214Y-107770016D01*
X67819722Y-107796949D01*
X67809370Y-107824791D01*
X67800170Y-107853520D01*
X67792135Y-107883119D01*
X67785280Y-107913568D01*
X67779617Y-107944846D01*
X67775158Y-107976936D01*
X67771918Y-108009817D01*
X67769909Y-108043469D01*
X67500739Y-108043467D01*
X67503324Y-107995846D01*
X67507818Y-107949309D01*
X67514190Y-107903884D01*
X67522409Y-107859600D01*
X67532447Y-107816484D01*
X67544272Y-107774564D01*
X67557854Y-107733869D01*
X67573163Y-107694427D01*
X67590169Y-107656265D01*
X67608841Y-107619411D01*
X67629148Y-107583894D01*
X67651062Y-107549742D01*
X67674550Y-107516983D01*
X67699584Y-107485644D01*
X67726133Y-107455754D01*
X67754166Y-107427341D01*
X67783653Y-107400432D01*
X67814564Y-107375057D01*
X67846869Y-107351242D01*
X67880537Y-107329016D01*
X67915538Y-107308407D01*
X67951842Y-107289443D01*
X67989418Y-107272153D01*
X68028236Y-107256563D01*
X68068266Y-107242702D01*
X68109478Y-107230599D01*
X68151840Y-107220280D01*
X68195324Y-107211775D01*
X68239898Y-107205111D01*
X68285533Y-107200317D01*
X68332198Y-107197419D01*
X68379862Y-107196447D01*
X68429987Y-107197406D01*
G37*
X78077370Y-108729974D02*
X78092187Y-108729974D01*
X78628057Y-107221142D01*
X78936738Y-107221142D01*
X78274927Y-108944815D01*
X77894632Y-108944815D01*
X77287149Y-107221142D01*
X77576074Y-107221142D01*
X78077370Y-108729974D01*
G36*
X78077370Y-108729974D02*
G01*
X78092187Y-108729974D01*
X78628057Y-107221142D01*
X78936738Y-107221142D01*
X78274927Y-108944815D01*
X77894632Y-108944815D01*
X77287149Y-107221142D01*
X77576074Y-107221142D01*
X78077370Y-108729974D01*
G37*
D12*
X71170237Y-103902926D02*
X71170237Y-104336259D01*
X71170237Y-104212450D02*
X71201190Y-104274355D01*
X71201190Y-104274355D02*
X71232142Y-104305307D01*
X71232142Y-104305307D02*
X71294047Y-104336259D01*
X71294047Y-104336259D02*
X71355952Y-104336259D01*
X71820237Y-103933879D02*
X71758333Y-103902926D01*
X71758333Y-103902926D02*
X71634523Y-103902926D01*
X71634523Y-103902926D02*
X71572618Y-103933879D01*
X71572618Y-103933879D02*
X71541666Y-103995783D01*
X71541666Y-103995783D02*
X71541666Y-104243402D01*
X71541666Y-104243402D02*
X71572618Y-104305307D01*
X71572618Y-104305307D02*
X71634523Y-104336259D01*
X71634523Y-104336259D02*
X71758333Y-104336259D01*
X71758333Y-104336259D02*
X71820237Y-104305307D01*
X71820237Y-104305307D02*
X71851190Y-104243402D01*
X71851190Y-104243402D02*
X71851190Y-104181498D01*
X71851190Y-104181498D02*
X71541666Y-104119593D01*
X72067857Y-104336259D02*
X72222619Y-103902926D01*
X72222619Y-103902926D02*
X72377380Y-104336259D01*
X72624999Y-103902926D02*
X72624999Y-104336259D01*
X72624999Y-104552926D02*
X72594047Y-104521974D01*
X72594047Y-104521974D02*
X72624999Y-104491021D01*
X72624999Y-104491021D02*
X72655952Y-104521974D01*
X72655952Y-104521974D02*
X72624999Y-104552926D01*
X72624999Y-104552926D02*
X72624999Y-104491021D01*
X72903571Y-103933879D02*
X72965476Y-103902926D01*
X72965476Y-103902926D02*
X73089285Y-103902926D01*
X73089285Y-103902926D02*
X73151190Y-103933879D01*
X73151190Y-103933879D02*
X73182142Y-103995783D01*
X73182142Y-103995783D02*
X73182142Y-104026736D01*
X73182142Y-104026736D02*
X73151190Y-104088640D01*
X73151190Y-104088640D02*
X73089285Y-104119593D01*
X73089285Y-104119593D02*
X72996428Y-104119593D01*
X72996428Y-104119593D02*
X72934523Y-104150545D01*
X72934523Y-104150545D02*
X72903571Y-104212450D01*
X72903571Y-104212450D02*
X72903571Y-104243402D01*
X72903571Y-104243402D02*
X72934523Y-104305307D01*
X72934523Y-104305307D02*
X72996428Y-104336259D01*
X72996428Y-104336259D02*
X73089285Y-104336259D01*
X73089285Y-104336259D02*
X73151190Y-104305307D01*
X73460713Y-103902926D02*
X73460713Y-104336259D01*
X73460713Y-104552926D02*
X73429761Y-104521974D01*
X73429761Y-104521974D02*
X73460713Y-104491021D01*
X73460713Y-104491021D02*
X73491666Y-104521974D01*
X73491666Y-104521974D02*
X73460713Y-104552926D01*
X73460713Y-104552926D02*
X73460713Y-104491021D01*
X73863095Y-103902926D02*
X73801190Y-103933879D01*
X73801190Y-103933879D02*
X73770237Y-103964831D01*
X73770237Y-103964831D02*
X73739285Y-104026736D01*
X73739285Y-104026736D02*
X73739285Y-104212450D01*
X73739285Y-104212450D02*
X73770237Y-104274355D01*
X73770237Y-104274355D02*
X73801190Y-104305307D01*
X73801190Y-104305307D02*
X73863095Y-104336259D01*
X73863095Y-104336259D02*
X73955952Y-104336259D01*
X73955952Y-104336259D02*
X74017856Y-104305307D01*
X74017856Y-104305307D02*
X74048809Y-104274355D01*
X74048809Y-104274355D02*
X74079761Y-104212450D01*
X74079761Y-104212450D02*
X74079761Y-104026736D01*
X74079761Y-104026736D02*
X74048809Y-103964831D01*
X74048809Y-103964831D02*
X74017856Y-103933879D01*
X74017856Y-103933879D02*
X73955952Y-103902926D01*
X73955952Y-103902926D02*
X73863095Y-103902926D01*
X74358332Y-104336259D02*
X74358332Y-103902926D01*
X74358332Y-104274355D02*
X74389285Y-104305307D01*
X74389285Y-104305307D02*
X74451190Y-104336259D01*
X74451190Y-104336259D02*
X74544047Y-104336259D01*
X74544047Y-104336259D02*
X74605951Y-104305307D01*
X74605951Y-104305307D02*
X74636904Y-104243402D01*
X74636904Y-104243402D02*
X74636904Y-103902926D01*
X75782142Y-103902926D02*
X75410713Y-103902926D01*
X75596427Y-103902926D02*
X75596427Y-104552926D01*
X75596427Y-104552926D02*
X75534523Y-104460069D01*
X75534523Y-104460069D02*
X75472618Y-104398164D01*
X75472618Y-104398164D02*
X75410713Y-104367212D01*
X76060713Y-103964831D02*
X76091666Y-103933879D01*
X76091666Y-103933879D02*
X76060713Y-103902926D01*
X76060713Y-103902926D02*
X76029761Y-103933879D01*
X76029761Y-103933879D02*
X76060713Y-103964831D01*
X76060713Y-103964831D02*
X76060713Y-103902926D01*
X76494047Y-104552926D02*
X76555952Y-104552926D01*
X76555952Y-104552926D02*
X76617856Y-104521974D01*
X76617856Y-104521974D02*
X76648809Y-104491021D01*
X76648809Y-104491021D02*
X76679761Y-104429117D01*
X76679761Y-104429117D02*
X76710714Y-104305307D01*
X76710714Y-104305307D02*
X76710714Y-104150545D01*
X76710714Y-104150545D02*
X76679761Y-104026736D01*
X76679761Y-104026736D02*
X76648809Y-103964831D01*
X76648809Y-103964831D02*
X76617856Y-103933879D01*
X76617856Y-103933879D02*
X76555952Y-103902926D01*
X76555952Y-103902926D02*
X76494047Y-103902926D01*
X76494047Y-103902926D02*
X76432142Y-103933879D01*
X76432142Y-103933879D02*
X76401190Y-103964831D01*
X76401190Y-103964831D02*
X76370237Y-104026736D01*
X76370237Y-104026736D02*
X76339285Y-104150545D01*
X76339285Y-104150545D02*
X76339285Y-104305307D01*
X76339285Y-104305307D02*
X76370237Y-104429117D01*
X76370237Y-104429117D02*
X76401190Y-104491021D01*
X76401190Y-104491021D02*
X76432142Y-104521974D01*
X76432142Y-104521974D02*
X76494047Y-104552926D01*
D13*
X69420262Y-105892332D02*
X69377405Y-105849475D01*
X69377405Y-105849475D02*
X69248833Y-105806617D01*
X69248833Y-105806617D02*
X69163119Y-105806617D01*
X69163119Y-105806617D02*
X69034548Y-105849475D01*
X69034548Y-105849475D02*
X68948833Y-105935189D01*
X68948833Y-105935189D02*
X68905976Y-106020903D01*
X68905976Y-106020903D02*
X68863119Y-106192332D01*
X68863119Y-106192332D02*
X68863119Y-106320903D01*
X68863119Y-106320903D02*
X68905976Y-106492332D01*
X68905976Y-106492332D02*
X68948833Y-106578046D01*
X68948833Y-106578046D02*
X69034548Y-106663760D01*
X69034548Y-106663760D02*
X69163119Y-106706617D01*
X69163119Y-106706617D02*
X69248833Y-106706617D01*
X69248833Y-106706617D02*
X69377405Y-106663760D01*
X69377405Y-106663760D02*
X69420262Y-106620903D01*
X70191691Y-105806617D02*
X70191691Y-106278046D01*
X70191691Y-106278046D02*
X70148833Y-106363760D01*
X70148833Y-106363760D02*
X70063119Y-106406617D01*
X70063119Y-106406617D02*
X69891691Y-106406617D01*
X69891691Y-106406617D02*
X69805976Y-106363760D01*
X70191691Y-105849475D02*
X70105976Y-105806617D01*
X70105976Y-105806617D02*
X69891691Y-105806617D01*
X69891691Y-105806617D02*
X69805976Y-105849475D01*
X69805976Y-105849475D02*
X69763119Y-105935189D01*
X69763119Y-105935189D02*
X69763119Y-106020903D01*
X69763119Y-106020903D02*
X69805976Y-106106617D01*
X69805976Y-106106617D02*
X69891691Y-106149475D01*
X69891691Y-106149475D02*
X70105976Y-106149475D01*
X70105976Y-106149475D02*
X70191691Y-106192332D01*
X70620262Y-105806617D02*
X70620262Y-106406617D01*
X70620262Y-106320903D02*
X70663119Y-106363760D01*
X70663119Y-106363760D02*
X70748834Y-106406617D01*
X70748834Y-106406617D02*
X70877405Y-106406617D01*
X70877405Y-106406617D02*
X70963119Y-106363760D01*
X70963119Y-106363760D02*
X71005977Y-106278046D01*
X71005977Y-106278046D02*
X71005977Y-105806617D01*
X71005977Y-106278046D02*
X71048834Y-106363760D01*
X71048834Y-106363760D02*
X71134548Y-106406617D01*
X71134548Y-106406617D02*
X71263119Y-106406617D01*
X71263119Y-106406617D02*
X71348834Y-106363760D01*
X71348834Y-106363760D02*
X71391691Y-106278046D01*
X71391691Y-106278046D02*
X71391691Y-105806617D01*
X72163119Y-105849475D02*
X72077405Y-105806617D01*
X72077405Y-105806617D02*
X71905977Y-105806617D01*
X71905977Y-105806617D02*
X71820262Y-105849475D01*
X71820262Y-105849475D02*
X71777405Y-105935189D01*
X71777405Y-105935189D02*
X71777405Y-106278046D01*
X71777405Y-106278046D02*
X71820262Y-106363760D01*
X71820262Y-106363760D02*
X71905977Y-106406617D01*
X71905977Y-106406617D02*
X72077405Y-106406617D01*
X72077405Y-106406617D02*
X72163119Y-106363760D01*
X72163119Y-106363760D02*
X72205977Y-106278046D01*
X72205977Y-106278046D02*
X72205977Y-106192332D01*
X72205977Y-106192332D02*
X71777405Y-106106617D01*
X72591691Y-105806617D02*
X72591691Y-106406617D01*
X72591691Y-106235189D02*
X72634548Y-106320903D01*
X72634548Y-106320903D02*
X72677406Y-106363760D01*
X72677406Y-106363760D02*
X72763120Y-106406617D01*
X72763120Y-106406617D02*
X72848834Y-106406617D01*
X73534549Y-105806617D02*
X73534549Y-106278046D01*
X73534549Y-106278046D02*
X73491691Y-106363760D01*
X73491691Y-106363760D02*
X73405977Y-106406617D01*
X73405977Y-106406617D02*
X73234549Y-106406617D01*
X73234549Y-106406617D02*
X73148834Y-106363760D01*
X73534549Y-105849475D02*
X73448834Y-105806617D01*
X73448834Y-105806617D02*
X73234549Y-105806617D01*
X73234549Y-105806617D02*
X73148834Y-105849475D01*
X73148834Y-105849475D02*
X73105977Y-105935189D01*
X73105977Y-105935189D02*
X73105977Y-106020903D01*
X73105977Y-106020903D02*
X73148834Y-106106617D01*
X73148834Y-106106617D02*
X73234549Y-106149475D01*
X73234549Y-106149475D02*
X73448834Y-106149475D01*
X73448834Y-106149475D02*
X73534549Y-106192332D01*
X74648834Y-105806617D02*
X74648834Y-106706617D01*
X74648834Y-106706617D02*
X74948834Y-106063760D01*
X74948834Y-106063760D02*
X75248834Y-106706617D01*
X75248834Y-106706617D02*
X75248834Y-105806617D01*
X75805977Y-105806617D02*
X75720262Y-105849475D01*
X75720262Y-105849475D02*
X75677405Y-105892332D01*
X75677405Y-105892332D02*
X75634548Y-105978046D01*
X75634548Y-105978046D02*
X75634548Y-106235189D01*
X75634548Y-106235189D02*
X75677405Y-106320903D01*
X75677405Y-106320903D02*
X75720262Y-106363760D01*
X75720262Y-106363760D02*
X75805977Y-106406617D01*
X75805977Y-106406617D02*
X75934548Y-106406617D01*
X75934548Y-106406617D02*
X76020262Y-106363760D01*
X76020262Y-106363760D02*
X76063120Y-106320903D01*
X76063120Y-106320903D02*
X76105977Y-106235189D01*
X76105977Y-106235189D02*
X76105977Y-105978046D01*
X76105977Y-105978046D02*
X76063120Y-105892332D01*
X76063120Y-105892332D02*
X76020262Y-105849475D01*
X76020262Y-105849475D02*
X75934548Y-105806617D01*
X75934548Y-105806617D02*
X75805977Y-105806617D01*
X76877406Y-105806617D02*
X76877406Y-106706617D01*
X76877406Y-105849475D02*
X76791691Y-105806617D01*
X76791691Y-105806617D02*
X76620263Y-105806617D01*
X76620263Y-105806617D02*
X76534548Y-105849475D01*
X76534548Y-105849475D02*
X76491691Y-105892332D01*
X76491691Y-105892332D02*
X76448834Y-105978046D01*
X76448834Y-105978046D02*
X76448834Y-106235189D01*
X76448834Y-106235189D02*
X76491691Y-106320903D01*
X76491691Y-106320903D02*
X76534548Y-106363760D01*
X76534548Y-106363760D02*
X76620263Y-106406617D01*
X76620263Y-106406617D02*
X76791691Y-106406617D01*
X76791691Y-106406617D02*
X76877406Y-106363760D01*
X77691692Y-106406617D02*
X77691692Y-105806617D01*
X77305977Y-106406617D02*
X77305977Y-105935189D01*
X77305977Y-105935189D02*
X77348834Y-105849475D01*
X77348834Y-105849475D02*
X77434549Y-105806617D01*
X77434549Y-105806617D02*
X77563120Y-105806617D01*
X77563120Y-105806617D02*
X77648834Y-105849475D01*
X77648834Y-105849475D02*
X77691692Y-105892332D01*
X78248835Y-105806617D02*
X78163120Y-105849475D01*
X78163120Y-105849475D02*
X78120263Y-105935189D01*
X78120263Y-105935189D02*
X78120263Y-106706617D01*
X78934549Y-105849475D02*
X78848835Y-105806617D01*
X78848835Y-105806617D02*
X78677407Y-105806617D01*
X78677407Y-105806617D02*
X78591692Y-105849475D01*
X78591692Y-105849475D02*
X78548835Y-105935189D01*
X78548835Y-105935189D02*
X78548835Y-106278046D01*
X78548835Y-106278046D02*
X78591692Y-106363760D01*
X78591692Y-106363760D02*
X78677407Y-106406617D01*
X78677407Y-106406617D02*
X78848835Y-106406617D01*
X78848835Y-106406617D02*
X78934549Y-106363760D01*
X78934549Y-106363760D02*
X78977407Y-106278046D01*
X78977407Y-106278046D02*
X78977407Y-106192332D01*
X78977407Y-106192332D02*
X78548835Y-106106617D01*
D14*
%TO.C,U1*%
X90976000Y-137227000D02*
X90176000Y-137227000D01*
X90976000Y-137227000D02*
X91776000Y-137227000D01*
X90976000Y-134107000D02*
X90176000Y-134107000D01*
X90976000Y-134107000D02*
X91776000Y-134107000D01*
%TO.C,IC1*%
X77582012Y-111981000D02*
X69362012Y-111981000D01*
X69362012Y-120201000D02*
X69362012Y-111981000D01*
X69362012Y-120201000D02*
X77582012Y-120201000D01*
X77582012Y-120201000D02*
X77582012Y-111981000D01*
X70022012Y-111991000D02*
X69372012Y-112716000D01*
X69362012Y-111981000D01*
X70022012Y-111991000D01*
G36*
X70022012Y-111991000D02*
G01*
X69372012Y-112716000D01*
X69362012Y-111981000D01*
X70022012Y-111991000D01*
G37*
%TO.C,JP1*%
X60754500Y-149443000D02*
X60754500Y-151443000D01*
X60754500Y-151443000D02*
X63554500Y-151443000D01*
X63554500Y-149443000D02*
X60754500Y-149443000D01*
X63554500Y-151443000D02*
X63554500Y-149443000D01*
D15*
%TO.C,U6*%
X84348000Y-143900000D02*
X84348000Y-144500000D01*
X87248000Y-143900000D02*
X87248000Y-144500000D01*
D14*
%TO.C,C28*%
X79780000Y-119100580D02*
X79780000Y-118819420D01*
X80800000Y-119100580D02*
X80800000Y-118819420D01*
%TO.C,C38*%
X85437420Y-146532000D02*
X85718580Y-146532000D01*
X85437420Y-147552000D02*
X85718580Y-147552000D01*
%TO.C,C44*%
X61573920Y-146531500D02*
X61855080Y-146531500D01*
X61573920Y-147551500D02*
X61855080Y-147551500D01*
%TO.C,TP1*%
X84866000Y-149000000D02*
X84866000Y-151400000D01*
X84866000Y-151400000D02*
X87266000Y-151400000D01*
X87266000Y-149000000D02*
X84866000Y-149000000D01*
X87266000Y-151400000D02*
X87266000Y-149000000D01*
%TO.C,C32*%
X78700000Y-115177836D02*
X78700000Y-114962164D01*
X79420000Y-115177836D02*
X79420000Y-114962164D01*
D15*
%TO.C,IC2*%
X60484500Y-143902500D02*
X60484500Y-144502500D01*
X63384500Y-143902500D02*
X63384500Y-144502500D01*
D14*
%TO.C,C6*%
X61600080Y-140849500D02*
X61318920Y-140849500D01*
X61600080Y-141869500D02*
X61318920Y-141869500D01*
%TO.C,C31*%
X66280000Y-119182164D02*
X66280000Y-119397836D01*
X67000000Y-119182164D02*
X67000000Y-119397836D01*
%TO.C,C26*%
X74282164Y-110140000D02*
X74497836Y-110140000D01*
X74282164Y-110860000D02*
X74497836Y-110860000D01*
%TO.C,C42*%
X63515000Y-148255836D02*
X63515000Y-148040164D01*
X64235000Y-148255836D02*
X64235000Y-148040164D01*
%TO.C,C33*%
X66160000Y-114120580D02*
X66160000Y-113839420D01*
X67180000Y-114120580D02*
X67180000Y-113839420D01*
%TO.C,C27*%
X67500000Y-116967836D02*
X67500000Y-116752164D01*
X68220000Y-116967836D02*
X68220000Y-116752164D01*
%TO.C,C16*%
X87358000Y-135371420D02*
X87358000Y-135652580D01*
X88378000Y-135371420D02*
X88378000Y-135652580D01*
%TO.C,C25*%
X67500000Y-114087836D02*
X67500000Y-113872164D01*
X68220000Y-114087836D02*
X68220000Y-113872164D01*
%TO.C,J3*%
X49310000Y-125529000D02*
X57940000Y-125529000D01*
X49310000Y-128129000D02*
X57940000Y-128129000D01*
X49310000Y-130669000D02*
X57940000Y-130669000D01*
X49310000Y-133209000D02*
X57940000Y-133209000D01*
X49310000Y-135749000D02*
X57940000Y-135749000D01*
X49310000Y-138349000D02*
X49310000Y-125529000D01*
X49310000Y-138349000D02*
X57940000Y-138349000D01*
X57940000Y-138349000D02*
X57940000Y-125529000D01*
%TO.C,R13*%
X61399000Y-132605141D02*
X61399000Y-132297859D01*
X62159000Y-132605141D02*
X62159000Y-132297859D01*
%TO.C,C17*%
X93584000Y-135706420D02*
X93584000Y-135987580D01*
X94604000Y-135706420D02*
X94604000Y-135987580D01*
%TO.C,C43*%
X83610000Y-149096164D02*
X83610000Y-149311836D01*
X84330000Y-149096164D02*
X84330000Y-149311836D01*
%TO.C,C5*%
X85462580Y-140849000D02*
X85181420Y-140849000D01*
X85462580Y-141869000D02*
X85181420Y-141869000D01*
%TO.C,C29*%
X67490000Y-119582164D02*
X67490000Y-119797836D01*
X68210000Y-119582164D02*
X68210000Y-119797836D01*
%TO.C,C30*%
X78740000Y-119067836D02*
X78740000Y-118852164D01*
X79460000Y-119067836D02*
X79460000Y-118852164D01*
%TO.C,R12*%
X61399000Y-129755359D02*
X61399000Y-130062641D01*
X62159000Y-129755359D02*
X62159000Y-130062641D01*
D16*
%TO.C,J6*%
X65725000Y-144295000D02*
X82125000Y-144295000D01*
X65725000Y-145845000D02*
X65725000Y-144295000D01*
X65725000Y-149645000D02*
X65725000Y-148445000D01*
X67575000Y-149645000D02*
X65725000Y-149645000D01*
X82125000Y-144295000D02*
X82125000Y-145845000D01*
X82125000Y-148445000D02*
X82125000Y-149645000D01*
X82125000Y-149645000D02*
X80375000Y-149645000D01*
%TD*%
M02*
