%TF.GenerationSoftware,KiCad,Pcbnew,9.0.6*%
%TF.CreationDate,2026-03-02T09:31:00+01:00*%
%TF.ProjectId,cansat-camera-pcb,63616e73-6174-42d6-9361-6d6572612d70,1.1*%
%TF.SameCoordinates,Original*%
%TF.FileFunction,Copper,L8,Bot*%
%TF.FilePolarity,Positive*%
%FSLAX46Y46*%
G04 Gerber Fmt 4.6, Leading zero omitted, Abs format (unit mm)*
G04 Created by KiCad (PCBNEW 9.0.6) date 2026-03-02 09:31:00*
%MOMM*%
%LPD*%
G01*
G04 APERTURE LIST*
G04 Aperture macros list*
%AMRoundRect*
0 Rectangle with rounded corners*
0 $1 Rounding radius*
0 $2 $3 $4 $5 $6 $7 $8 $9 X,Y pos of 4 corners*
0 Add a 4 corners polygon primitive as box body*
4,1,4,$2,$3,$4,$5,$6,$7,$8,$9,$2,$3,0*
0 Add four circle primitives for the rounded corners*
1,1,$1+$1,$2,$3*
1,1,$1+$1,$4,$5*
1,1,$1+$1,$6,$7*
1,1,$1+$1,$8,$9*
0 Add four rect primitives between the rounded corners*
20,1,$1+$1,$2,$3,$4,$5,0*
20,1,$1+$1,$4,$5,$6,$7,0*
20,1,$1+$1,$6,$7,$8,$9,0*
20,1,$1+$1,$8,$9,$2,$3,0*%
G04 Aperture macros list end*
%TA.AperFunction,SMDPad,CuDef*%
%ADD10RoundRect,0.140000X-0.140000X-0.170000X0.140000X-0.170000X0.140000X0.170000X-0.140000X0.170000X0*%
%TD*%
%TA.AperFunction,SMDPad,CuDef*%
%ADD11RoundRect,0.140000X-0.170000X0.140000X-0.170000X-0.140000X0.170000X-0.140000X0.170000X0.140000X0*%
%TD*%
%TA.AperFunction,SMDPad,CuDef*%
%ADD12RoundRect,0.140000X0.170000X-0.140000X0.170000X0.140000X-0.170000X0.140000X-0.170000X-0.140000X0*%
%TD*%
%TA.AperFunction,SMDPad,CuDef*%
%ADD13R,1.500000X1.500000*%
%TD*%
%TA.AperFunction,SMDPad,CuDef*%
%ADD14RoundRect,0.135000X-0.135000X-0.185000X0.135000X-0.185000X0.135000X0.185000X-0.135000X0.185000X0*%
%TD*%
%TA.AperFunction,SMDPad,CuDef*%
%ADD15RoundRect,0.100000X0.162635X-0.021213X-0.021213X0.162635X-0.162635X0.021213X0.021213X-0.162635X0*%
%TD*%
%TA.AperFunction,SMDPad,CuDef*%
%ADD16RoundRect,0.100000X-0.100000X0.130000X-0.100000X-0.130000X0.100000X-0.130000X0.100000X0.130000X0*%
%TD*%
%TA.AperFunction,SMDPad,CuDef*%
%ADD17RoundRect,0.225000X0.225000X0.250000X-0.225000X0.250000X-0.225000X-0.250000X0.225000X-0.250000X0*%
%TD*%
%TA.AperFunction,SMDPad,CuDef*%
%ADD18RoundRect,0.225000X-0.250000X0.225000X-0.250000X-0.225000X0.250000X-0.225000X0.250000X0.225000X0*%
%TD*%
%TA.AperFunction,SMDPad,CuDef*%
%ADD19RoundRect,0.225000X-0.225000X-0.250000X0.225000X-0.250000X0.225000X0.250000X-0.225000X0.250000X0*%
%TD*%
%TA.AperFunction,SMDPad,CuDef*%
%ADD20RoundRect,0.140000X0.140000X0.170000X-0.140000X0.170000X-0.140000X-0.170000X0.140000X-0.170000X0*%
%TD*%
%TA.AperFunction,SMDPad,CuDef*%
%ADD21R,2.200000X0.900000*%
%TD*%
%TA.AperFunction,SMDPad,CuDef*%
%ADD22RoundRect,0.100000X0.100000X-0.130000X0.100000X0.130000X-0.100000X0.130000X-0.100000X-0.130000X0*%
%TD*%
%TA.AperFunction,SMDPad,CuDef*%
%ADD23RoundRect,0.100000X-0.130000X-0.100000X0.130000X-0.100000X0.130000X0.100000X-0.130000X0.100000X0*%
%TD*%
%TA.AperFunction,SMDPad,CuDef*%
%ADD24RoundRect,0.100000X0.130000X0.100000X-0.130000X0.100000X-0.130000X-0.100000X0.130000X-0.100000X0*%
%TD*%
%TA.AperFunction,SMDPad,CuDef*%
%ADD25R,0.300000X1.300000*%
%TD*%
%TA.AperFunction,SMDPad,CuDef*%
%ADD26R,2.000000X1.600000*%
%TD*%
%TA.AperFunction,SMDPad,CuDef*%
%ADD27RoundRect,0.150000X-0.150000X0.512500X-0.150000X-0.512500X0.150000X-0.512500X0.150000X0.512500X0*%
%TD*%
%TA.AperFunction,SMDPad,CuDef*%
%ADD28R,1.000000X1.500000*%
%TD*%
%TA.AperFunction,SMDPad,CuDef*%
%ADD29R,1.300000X1.700000*%
%TD*%
%TA.AperFunction,SMDPad,CuDef*%
%ADD30RoundRect,0.100000X0.021213X0.162635X-0.162635X-0.021213X-0.021213X-0.162635X0.162635X0.021213X0*%
%TD*%
%TA.AperFunction,BGAPad,CuDef*%
%ADD31C,0.360000*%
%TD*%
%TA.AperFunction,SMDPad,CuDef*%
%ADD32RoundRect,0.100000X-0.162635X0.021213X0.021213X-0.162635X0.162635X-0.021213X-0.021213X0.162635X0*%
%TD*%
%TA.AperFunction,SMDPad,CuDef*%
%ADD33RoundRect,0.100000X-0.021213X-0.162635X0.162635X0.021213X0.021213X0.162635X-0.162635X-0.021213X0*%
%TD*%
%TA.AperFunction,ViaPad*%
%ADD34C,0.400000*%
%TD*%
%TA.AperFunction,ViaPad*%
%ADD35C,0.800000*%
%TD*%
%TA.AperFunction,ViaPad*%
%ADD36C,0.500000*%
%TD*%
%TA.AperFunction,ViaPad*%
%ADD37C,1.000000*%
%TD*%
%TA.AperFunction,ViaPad*%
%ADD38C,0.600000*%
%TD*%
%TA.AperFunction,ViaPad*%
%ADD39C,0.450000*%
%TD*%
%TA.AperFunction,ViaPad*%
%ADD40C,0.750000*%
%TD*%
%TA.AperFunction,Conductor*%
%ADD41C,0.500000*%
%TD*%
%TA.AperFunction,Conductor*%
%ADD42C,0.300000*%
%TD*%
%TA.AperFunction,Conductor*%
%ADD43C,0.800000*%
%TD*%
%TA.AperFunction,Conductor*%
%ADD44C,0.200000*%
%TD*%
%TA.AperFunction,Conductor*%
%ADD45C,0.118400*%
%TD*%
%TA.AperFunction,Conductor*%
%ADD46C,0.118200*%
%TD*%
%TA.AperFunction,Conductor*%
%ADD47C,0.110000*%
%TD*%
%TA.AperFunction,Conductor*%
%ADD48C,0.130000*%
%TD*%
%TA.AperFunction,Conductor*%
%ADD49C,0.150000*%
%TD*%
G04 APERTURE END LIST*
D10*
%TO.P,C25,1*%
%TO.N,+3.3VA*%
X103598000Y-42854000D03*
%TO.P,C25,2*%
%TO.N,GND*%
X104558000Y-42854000D03*
%TD*%
D11*
%TO.P,C32,1*%
%TO.N,+3.3VA*%
X101248000Y-49434000D03*
%TO.P,C32,2*%
%TO.N,GND*%
X101248000Y-50394000D03*
%TD*%
D12*
%TO.P,C26,1*%
%TO.N,+3.3VA*%
X112353000Y-44569000D03*
%TO.P,C26,2*%
%TO.N,GND*%
X112353000Y-43609000D03*
%TD*%
D13*
%TO.P,TP1,1,1*%
%TO.N,Net-(J2-STROBE)*%
X115828000Y-71224000D03*
%TD*%
D10*
%TO.P,C39,1*%
%TO.N,GND*%
X104593000Y-80904000D03*
%TO.P,C39,2*%
%TO.N,+3.3VA*%
X105553000Y-80904000D03*
%TD*%
D14*
%TO.P,R4,1*%
%TO.N,/CAM_SDA*%
X114138000Y-63649000D03*
%TO.P,R4,2*%
%TO.N,+3.3VA*%
X115158000Y-63649000D03*
%TD*%
D15*
%TO.P,R26,1*%
%TO.N,/FMC_D5*%
X108254274Y-56840274D03*
%TO.P,R26,2*%
%TO.N,Net-(IC1-DQ5)*%
X107801726Y-56387726D03*
%TD*%
D16*
%TO.P,R30,1*%
%TO.N,/FMC_D3*%
X108403001Y-42374000D03*
%TO.P,R30,2*%
%TO.N,Net-(IC1-DQ3)*%
X108402999Y-43014000D03*
%TD*%
D17*
%TO.P,C37,1*%
%TO.N,GND*%
X111523000Y-82194000D03*
%TO.P,C37,2*%
%TO.N,CAMERA_2.8V*%
X109973000Y-82194000D03*
%TD*%
D18*
%TO.P,C28,1*%
%TO.N,+3.3VA*%
X113698000Y-49139000D03*
%TO.P,C28,2*%
%TO.N,GND*%
X113698000Y-50689000D03*
%TD*%
D17*
%TO.P,C23,1*%
%TO.N,GND*%
X93678300Y-75426500D03*
%TO.P,C23,2*%
%TO.N,+3.3VA*%
X92128300Y-75426500D03*
%TD*%
D14*
%TO.P,R5,1*%
%TO.N,+3.3VA*%
X112087000Y-63649000D03*
%TO.P,R5,2*%
%TO.N,/CAM_SCL*%
X113107000Y-63649000D03*
%TD*%
D19*
%TO.P,C40,1*%
%TO.N,GND*%
X103733000Y-82204000D03*
%TO.P,C40,2*%
%TO.N,+3.3VA*%
X105283000Y-82204000D03*
%TD*%
D15*
%TO.P,R37,1*%
%TO.N,/FMC_D14*%
X112928000Y-52864000D03*
%TO.P,R37,2*%
%TO.N,Net-(IC1-DQ14)*%
X112475452Y-52411452D03*
%TD*%
D20*
%TO.P,C42,1*%
%TO.N,GND*%
X107548000Y-80904000D03*
%TO.P,C42,2*%
%TO.N,CAMERA_1.5V*%
X106588000Y-80904000D03*
%TD*%
D21*
%TO.P,J1,1,Pin_1*%
%TO.N,VCC*%
X88728000Y-67539000D03*
%TO.P,J1,2,Pin_2*%
%TO.N,/USART2_RX*%
X88728000Y-65539000D03*
%TO.P,J1,3,Pin_3*%
%TO.N,/USART2_TX*%
X88728000Y-63539000D03*
%TO.P,J1,4,Pin_4*%
%TO.N,GND*%
X88728000Y-61539000D03*
%TO.P,J1,5,Pin_5*%
%TO.N,+3.3V*%
X88728000Y-59539000D03*
%TO.P,J1,6,Pin_6*%
%TO.N,/SWCLK*%
X88728000Y-57539000D03*
%TO.P,J1,7,Pin_7*%
%TO.N,/SWDIO*%
X88728000Y-55539000D03*
%TO.P,J1,8,Pin_8*%
%TO.N,GND*%
X88728000Y-53539000D03*
%TD*%
D12*
%TO.P,C29,1*%
%TO.N,+3.3VA*%
X112368000Y-47384000D03*
%TO.P,C29,2*%
%TO.N,GND*%
X112368000Y-46424000D03*
%TD*%
D17*
%TO.P,C6,1*%
%TO.N,GND*%
X93678300Y-76976500D03*
%TO.P,C6,2*%
%TO.N,+3.3VA*%
X92128300Y-76976500D03*
%TD*%
D20*
%TO.P,C31,1*%
%TO.N,+3.3VA*%
X101278000Y-48409000D03*
%TO.P,C31,2*%
%TO.N,GND*%
X100318000Y-48409000D03*
%TD*%
D17*
%TO.P,C47,1*%
%TO.N,GND*%
X117203000Y-74054000D03*
%TO.P,C47,2*%
%TO.N,+3.3VA*%
X115653000Y-74054000D03*
%TD*%
D11*
%TO.P,C27,1*%
%TO.N,+3.3VA*%
X112368000Y-49434000D03*
%TO.P,C27,2*%
%TO.N,GND*%
X112368000Y-50394000D03*
%TD*%
D22*
%TO.P,R27,1*%
%TO.N,/FMC_D6*%
X109553000Y-57784000D03*
%TO.P,R27,2*%
%TO.N,Net-(IC1-DQ6)*%
X109553000Y-57144000D03*
%TD*%
D19*
%TO.P,C41,1*%
%TO.N,GND*%
X103733000Y-83774000D03*
%TO.P,C41,2*%
%TO.N,+3.3VA*%
X105283000Y-83774000D03*
%TD*%
D20*
%TO.P,C24,1*%
%TO.N,GND*%
X110658000Y-80894000D03*
%TO.P,C24,2*%
%TO.N,CAMERA_2.8V*%
X109698000Y-80894000D03*
%TD*%
D23*
%TO.P,R41,1*%
%TO.N,Net-(IC1-CLK)*%
X114813000Y-48189000D03*
%TO.P,R41,2*%
%TO.N,/FMC_SDCLK*%
X115453000Y-48189000D03*
%TD*%
D24*
%TO.P,R38,1*%
%TO.N,/FMC_D0*%
X116228000Y-51089000D03*
%TO.P,R38,2*%
%TO.N,Net-(IC1-DQ0)*%
X115588000Y-51089000D03*
%TD*%
D20*
%TO.P,C51,1*%
%TO.N,Net-(J2-PCLK)*%
X102088000Y-82034000D03*
%TO.P,C51,2*%
%TO.N,GND*%
X101128000Y-82034000D03*
%TD*%
D17*
%TO.P,C48,1*%
%TO.N,GND*%
X117218000Y-77114000D03*
%TO.P,C48,2*%
%TO.N,+3.3VA*%
X115668000Y-77114000D03*
%TD*%
D22*
%TO.P,R19,1*%
%TO.N,Net-(J2-D8)*%
X95003000Y-43259000D03*
%TO.P,R19,2*%
%TO.N,/DCMI_D6*%
X95003000Y-42619000D03*
%TD*%
D15*
%TO.P,R39,1*%
%TO.N,/FMC_D15*%
X113085322Y-51996322D03*
%TO.P,R39,2*%
%TO.N,Net-(IC1-DQ15)*%
X112632774Y-51543774D03*
%TD*%
D25*
%TO.P,J2,1,STROBE*%
%TO.N,Net-(J2-STROBE)*%
X110703000Y-79384000D03*
%TO.P,J2,2,AGND*%
%TO.N,GND*%
X110203000Y-79384000D03*
%TO.P,J2,3,SDA*%
%TO.N,/CAM_SDA*%
X109703000Y-79384000D03*
%TO.P,J2,4,AVDD*%
%TO.N,CAMERA_2.8V*%
X109203000Y-79384000D03*
%TO.P,J2,5,SCL*%
%TO.N,/CAM_SCL*%
X108703000Y-79384000D03*
%TO.P,J2,6,RST*%
%TO.N,/camera/reset*%
X108203000Y-79384000D03*
%TO.P,J2,7,VSYNC*%
%TO.N,Net-(J2-VSYNC)*%
X107703000Y-79384000D03*
%TO.P,J2,8,PWNDB*%
%TO.N,/camera/pwdnb*%
X107203000Y-79384000D03*
%TO.P,J2,9,HSYNC*%
%TO.N,Net-(J2-HSYNC)*%
X106703000Y-79384000D03*
%TO.P,J2,10,DVDD*%
%TO.N,CAMERA_1.5V*%
X106203000Y-79384000D03*
%TO.P,J2,11,DOVDD*%
%TO.N,+3.3VA*%
X105703000Y-79384000D03*
%TO.P,J2,12,D9*%
%TO.N,Net-(J2-D9)*%
X105203000Y-79384000D03*
%TO.P,J2,13,MCLK*%
%TO.N,/camera/XCLK*%
X104703000Y-79384000D03*
%TO.P,J2,14,D8*%
%TO.N,Net-(J2-D8)*%
X104203000Y-79384000D03*
%TO.P,J2,15,GND*%
%TO.N,GND*%
X103703000Y-79384000D03*
%TO.P,J2,16,D7*%
%TO.N,Net-(J2-D7)*%
X103203000Y-79384000D03*
%TO.P,J2,17,PCLK*%
%TO.N,Net-(J2-PCLK)*%
X102703000Y-79384000D03*
%TO.P,J2,18,D6*%
%TO.N,Net-(J2-D6)*%
X102203000Y-79384000D03*
%TO.P,J2,19,D2*%
%TO.N,Net-(J2-D2)*%
X101703000Y-79384000D03*
%TO.P,J2,20,D5*%
%TO.N,Net-(J2-D5)*%
X101203000Y-79384000D03*
%TO.P,J2,21,D3*%
%TO.N,Net-(J2-D3)*%
X100703000Y-79384000D03*
%TO.P,J2,22,D4*%
%TO.N,Net-(J2-D4)*%
X100203000Y-79384000D03*
%TO.P,J2,23,AF-VCC*%
%TO.N,Net-(J2-AF-VCC)*%
X99703000Y-79384000D03*
%TO.P,J2,24,AF-GND*%
%TO.N,unconnected-(J2-AF-GND-Pad24)*%
X99203000Y-79384000D03*
D26*
%TO.P,J2,25,MP1*%
%TO.N,GND*%
X97503000Y-76704000D03*
%TO.P,J2,26,MP2*%
X112403000Y-76704000D03*
%TD*%
D17*
%TO.P,C44,1*%
%TO.N,GND*%
X108403000Y-83784000D03*
%TO.P,C44,2*%
%TO.N,CAMERA_1.5V*%
X106853000Y-83784000D03*
%TD*%
D24*
%TO.P,R36,1*%
%TO.N,/FMC_D13*%
X115473000Y-49939000D03*
%TO.P,R36,2*%
%TO.N,Net-(IC1-DQ13)*%
X114833000Y-49939000D03*
%TD*%
D22*
%TO.P,R25,1*%
%TO.N,/FMC_D8*%
X105578000Y-54684000D03*
%TO.P,R25,2*%
%TO.N,Net-(IC1-DQ8)*%
X105578000Y-54044000D03*
%TD*%
D15*
%TO.P,R28,1*%
%TO.N,/FMC_D9*%
X111754274Y-57940274D03*
%TO.P,R28,2*%
%TO.N,Net-(IC1-DQ9)*%
X111301726Y-57487726D03*
%TD*%
%TO.P,R29,1*%
%TO.N,/FMC_D10*%
X111129274Y-56540274D03*
%TO.P,R29,2*%
%TO.N,Net-(IC1-DQ10)*%
X110676726Y-56087726D03*
%TD*%
D17*
%TO.P,C45,1*%
%TO.N,GND*%
X93678300Y-73876500D03*
%TO.P,C45,2*%
%TO.N,+3.3VA*%
X92128300Y-73876500D03*
%TD*%
D12*
%TO.P,C30,1*%
%TO.N,+3.3VA*%
X101248000Y-47384000D03*
%TO.P,C30,2*%
%TO.N,GND*%
X101248000Y-46424000D03*
%TD*%
D27*
%TO.P,U3,1,IN*%
%TO.N,+3.3VA*%
X115968000Y-78846500D03*
%TO.P,U3,2,GND*%
%TO.N,GND*%
X116918000Y-78846500D03*
%TO.P,U3,3,EN*%
%TO.N,+3.3VA*%
X117868000Y-78846500D03*
%TO.P,U3,4,NC*%
%TO.N,unconnected-(U3-NC-Pad4)*%
X117868000Y-81121500D03*
%TO.P,U3,5,Vout*%
%TO.N,CAMERA_2.8V*%
X115968000Y-81121500D03*
%TD*%
D22*
%TO.P,R17,1*%
%TO.N,Net-(J2-D6)*%
X98928000Y-72134000D03*
%TO.P,R17,2*%
%TO.N,/DCMI_D4*%
X98928000Y-71494000D03*
%TD*%
D28*
%TO.P,JP1,1,A*%
%TO.N,Net-(J2-AF-VCC)*%
X99218000Y-82784000D03*
%TO.P,JP1,2,B*%
%TO.N,+3.3VA*%
X97918000Y-82784000D03*
%TD*%
D29*
%TO.P,SW2,1,1*%
%TO.N,GND*%
X82562000Y-49945000D03*
%TO.P,SW2,2,2*%
%TO.N,/RST*%
X86880000Y-49945000D03*
%TD*%
D15*
%TO.P,R34,1*%
%TO.N,/FMC_D1*%
X114154274Y-46090274D03*
%TO.P,R34,2*%
%TO.N,Net-(IC1-DQ1)*%
X113701726Y-45637726D03*
%TD*%
D19*
%TO.P,C33,1*%
%TO.N,+3.3VA*%
X103303000Y-41524000D03*
%TO.P,C33,2*%
%TO.N,GND*%
X104853000Y-41524000D03*
%TD*%
D27*
%TO.P,U5,1,IN*%
%TO.N,+3.3VA*%
X92428000Y-78709000D03*
%TO.P,U5,2,GND*%
%TO.N,GND*%
X93378000Y-78709000D03*
%TO.P,U5,3,EN*%
%TO.N,+3.3VA*%
X94328000Y-78709000D03*
%TO.P,U5,4,NC*%
%TO.N,unconnected-(U5-NC-Pad4)*%
X94328000Y-80984000D03*
%TO.P,U5,5,Vout*%
%TO.N,CAMERA_1.5V*%
X92428000Y-80984000D03*
%TD*%
D22*
%TO.P,R31,1*%
%TO.N,/FMC_D4*%
X106353000Y-55109000D03*
%TO.P,R31,2*%
%TO.N,Net-(IC1-DQ4)*%
X106353000Y-54469000D03*
%TD*%
%TO.P,R32,1*%
%TO.N,/FMC_D11*%
X113028000Y-60209000D03*
%TO.P,R32,2*%
%TO.N,Net-(IC1-DQ11)*%
X113028000Y-59569000D03*
%TD*%
D19*
%TO.P,C50,1*%
%TO.N,CAMERA_2.8V*%
X116143000Y-82854000D03*
%TO.P,C50,2*%
%TO.N,GND*%
X117693000Y-82854000D03*
%TD*%
D30*
%TO.P,R35,1*%
%TO.N,/FMC_D2*%
X109954274Y-42437726D03*
%TO.P,R35,2*%
%TO.N,Net-(IC1-DQ2)*%
X109501726Y-42890274D03*
%TD*%
D28*
%TO.P,JP2,1,A*%
%TO.N,Net-(JP2-A)*%
X111928000Y-65589000D03*
%TO.P,JP2,2,C*%
%TO.N,/camera/XCLK*%
X113228000Y-65589000D03*
%TO.P,JP2,3,B*%
%TO.N,Net-(JP2-B)*%
X114528000Y-65589000D03*
%TD*%
D17*
%TO.P,C46,1*%
%TO.N,GND*%
X117218000Y-75564000D03*
%TO.P,C46,2*%
%TO.N,+3.3VA*%
X115668000Y-75564000D03*
%TD*%
D31*
%TO.P,IC1,A1,VSS_1*%
%TO.N,GND*%
X110015988Y-51603000D03*
%TO.P,IC1,A2,DQ15*%
%TO.N,Net-(IC1-DQ15)*%
X110015988Y-50803000D03*
%TO.P,IC1,A3,VSSQ_1*%
%TO.N,GND*%
X110015988Y-50003000D03*
%TO.P,IC1,A7,VDDQ_1*%
%TO.N,+3.3VA*%
X110015988Y-46803000D03*
%TO.P,IC1,A8,DQ0*%
%TO.N,Net-(IC1-DQ0)*%
X110015988Y-46003000D03*
%TO.P,IC1,A9,VDD_1*%
%TO.N,+3.3VA*%
X110015988Y-45203000D03*
%TO.P,IC1,B1,DQ14*%
%TO.N,Net-(IC1-DQ14)*%
X109215988Y-51603000D03*
%TO.P,IC1,B2,DQ13*%
%TO.N,Net-(IC1-DQ13)*%
X109215988Y-50803000D03*
%TO.P,IC1,B3,VDDQ_2*%
%TO.N,+3.3VA*%
X109215988Y-50003000D03*
%TO.P,IC1,B7,VSSQ_2*%
%TO.N,GND*%
X109215988Y-46803000D03*
%TO.P,IC1,B8,DQ2*%
%TO.N,Net-(IC1-DQ2)*%
X109215988Y-46003000D03*
%TO.P,IC1,B9,DQ1*%
%TO.N,Net-(IC1-DQ1)*%
X109215988Y-45203000D03*
%TO.P,IC1,C1,DQ12*%
%TO.N,Net-(IC1-DQ12)*%
X108415988Y-51603000D03*
%TO.P,IC1,C2,DQ11*%
%TO.N,Net-(IC1-DQ11)*%
X108415988Y-50803000D03*
%TO.P,IC1,C3,VSSQ_3*%
%TO.N,GND*%
X108415988Y-50003000D03*
%TO.P,IC1,C7,VDDQ_3*%
%TO.N,+3.3VA*%
X108415988Y-46803000D03*
%TO.P,IC1,C8,DQ4*%
%TO.N,Net-(IC1-DQ4)*%
X108415988Y-46003000D03*
%TO.P,IC1,C9,DQ3*%
%TO.N,Net-(IC1-DQ3)*%
X108415988Y-45203000D03*
%TO.P,IC1,D1,DQ10*%
%TO.N,Net-(IC1-DQ10)*%
X107615988Y-51603000D03*
%TO.P,IC1,D2,DQ9*%
%TO.N,Net-(IC1-DQ9)*%
X107615988Y-50803000D03*
%TO.P,IC1,D3,VDDQ_4*%
%TO.N,+3.3VA*%
X107615988Y-50003000D03*
%TO.P,IC1,D7,VSSQ_4*%
%TO.N,GND*%
X107615988Y-46803000D03*
%TO.P,IC1,D8,DQ6*%
%TO.N,Net-(IC1-DQ6)*%
X107615988Y-46003000D03*
%TO.P,IC1,D9,DQ5*%
%TO.N,Net-(IC1-DQ5)*%
X107615988Y-45203000D03*
%TO.P,IC1,E1,DQ8*%
%TO.N,Net-(IC1-DQ8)*%
X106815988Y-51603000D03*
%TO.P,IC1,E2,NC*%
%TO.N,unconnected-(IC1-NC-PadE2)*%
X106815988Y-50803000D03*
%TO.P,IC1,E3,VSS_2*%
%TO.N,GND*%
X106815988Y-50003000D03*
%TO.P,IC1,E7,VDD_2*%
%TO.N,+3.3VA*%
X106815988Y-46803000D03*
%TO.P,IC1,E8,LDQM*%
%TO.N,/FMC_NBL0*%
X106815988Y-46003000D03*
%TO.P,IC1,E9,DQ7*%
%TO.N,Net-(IC1-DQ7)*%
X106815988Y-45203000D03*
%TO.P,IC1,F1,UDQM*%
%TO.N,/FMC_NBL1*%
X106015988Y-51603000D03*
%TO.P,IC1,F2,CLK*%
%TO.N,Net-(IC1-CLK)*%
X106015988Y-50803000D03*
%TO.P,IC1,F3,CKE*%
%TO.N,/FMC_SDCKE0*%
X106015988Y-50003000D03*
%TO.P,IC1,F7,~{CAS}*%
%TO.N,/FMC_SDNCAS*%
X106015988Y-46803000D03*
%TO.P,IC1,F8,~{RAS}*%
%TO.N,/FMC_SDNRAS*%
X106015988Y-46003000D03*
%TO.P,IC1,F9,~{WE}*%
%TO.N,/FMC_SDNWE*%
X106015988Y-45203000D03*
%TO.P,IC1,G1,A12*%
%TO.N,/FMC_A12*%
X105215988Y-51603000D03*
%TO.P,IC1,G2,A11*%
%TO.N,/FMC_A11*%
X105215988Y-50803000D03*
%TO.P,IC1,G3,A9*%
%TO.N,/FMC_A9*%
X105215988Y-50003000D03*
%TO.P,IC1,G7,BS0*%
%TO.N,/FMC_BS0*%
X105215988Y-46803000D03*
%TO.P,IC1,G8,BS1*%
%TO.N,/FMC_BS1*%
X105215988Y-46003000D03*
%TO.P,IC1,G9,~{CS}*%
%TO.N,/FMC_SDNE0*%
X105215988Y-45203000D03*
%TO.P,IC1,H1,A8*%
%TO.N,/FMC_A8*%
X104415988Y-51603000D03*
%TO.P,IC1,H2,A7*%
%TO.N,/FMC_A7*%
X104415988Y-50803000D03*
%TO.P,IC1,H3,A6*%
%TO.N,/FMC_A6*%
X104415988Y-50003000D03*
%TO.P,IC1,H7,A0*%
%TO.N,/FMC_A0*%
X104415988Y-46803000D03*
%TO.P,IC1,H8,A1*%
%TO.N,/FMC_A1*%
X104415988Y-46003000D03*
%TO.P,IC1,H9,A10*%
%TO.N,/FMC_A10*%
X104415988Y-45203000D03*
%TO.P,IC1,J1,VSS_3*%
%TO.N,GND*%
X103615988Y-51603000D03*
%TO.P,IC1,J2,A5*%
%TO.N,/FMC_A5*%
X103615988Y-50803000D03*
%TO.P,IC1,J3,A4*%
%TO.N,/FMC_A4*%
X103615988Y-50003000D03*
%TO.P,IC1,J7,A3*%
%TO.N,/FMC_A3*%
X103615988Y-46803000D03*
%TO.P,IC1,J8,A2*%
%TO.N,/FMC_A2*%
X103615988Y-46003000D03*
%TO.P,IC1,J9,VDD_3*%
%TO.N,+3.3VA*%
X103615988Y-45203000D03*
%TD*%
D17*
%TO.P,C38,1*%
%TO.N,GND*%
X111523000Y-83784000D03*
%TO.P,C38,2*%
%TO.N,CAMERA_2.8V*%
X109973000Y-83784000D03*
%TD*%
D32*
%TO.P,R40,1*%
%TO.N,Net-(IC1-DQ7)*%
X110101726Y-54012726D03*
%TO.P,R40,2*%
%TO.N,/FMC_D7*%
X110554274Y-54465274D03*
%TD*%
D33*
%TO.P,R22,1*%
%TO.N,Net-(J2-VSYNC)*%
X111226726Y-71840274D03*
%TO.P,R22,2*%
%TO.N,/DCMI_VSYNC*%
X111679274Y-71387726D03*
%TD*%
D17*
%TO.P,C43,1*%
%TO.N,GND*%
X108408000Y-82204000D03*
%TO.P,C43,2*%
%TO.N,CAMERA_1.5V*%
X106858000Y-82204000D03*
%TD*%
D15*
%TO.P,R33,1*%
%TO.N,/FMC_D12*%
X111754274Y-54515274D03*
%TO.P,R33,2*%
%TO.N,Net-(IC1-DQ12)*%
X111301726Y-54062726D03*
%TD*%
D19*
%TO.P,C49,1*%
%TO.N,CAMERA_1.5V*%
X92603000Y-82716500D03*
%TO.P,C49,2*%
%TO.N,GND*%
X94153000Y-82716500D03*
%TD*%
D12*
%TO.P,C2,1*%
%TO.N,/RST*%
X88280000Y-49945000D03*
%TO.P,C2,2*%
%TO.N,GND*%
X88280000Y-48985000D03*
%TD*%
D34*
%TO.N,GND*%
X107615988Y-46803000D03*
D35*
X123313500Y-78446000D03*
D36*
X97151000Y-36707000D03*
D37*
X86343000Y-67534000D03*
D36*
X91666000Y-53603000D03*
D38*
X113703000Y-51739000D03*
D36*
X92626000Y-48203000D03*
D35*
X89327999Y-61539000D03*
D36*
X106898000Y-73034000D03*
D35*
X119812000Y-72606000D03*
D36*
X118678488Y-46653000D03*
D34*
X110015988Y-50003000D03*
D35*
X103733000Y-82204000D03*
D38*
X83906000Y-49945000D03*
D35*
X89327999Y-53539000D03*
D36*
X92830988Y-42153000D03*
X98335988Y-60593000D03*
D35*
X97503000Y-76704000D03*
X111538000Y-82184000D03*
X93678300Y-73876500D03*
D38*
X124088500Y-74388500D03*
D37*
X86343000Y-59534000D03*
D36*
X105295988Y-36213000D03*
D37*
X82673000Y-67534000D03*
D36*
X119005988Y-39980000D03*
X93668000Y-57251000D03*
D38*
X120587000Y-74388500D03*
D36*
X94625988Y-46923000D03*
X107988000Y-73024000D03*
X120262000Y-39089000D03*
D38*
X104853000Y-41524000D03*
D36*
X119005988Y-52383000D03*
D38*
X126088000Y-45219000D03*
D34*
X103618000Y-51604000D03*
D36*
X112368000Y-46424000D03*
D35*
X94153000Y-82716500D03*
D37*
X82673000Y-59534000D03*
D36*
X98560000Y-36460000D03*
D37*
X127233000Y-63534000D03*
D35*
X103733000Y-83774000D03*
D36*
X88280000Y-48985000D03*
X109835988Y-60593000D03*
D35*
X117693000Y-82854000D03*
X112403000Y-76704000D03*
D36*
X100318000Y-48409000D03*
X101128000Y-82034000D03*
D34*
X108418000Y-50004000D03*
D36*
X94628000Y-59211000D03*
D37*
X123063000Y-65534000D03*
D38*
X111903000Y-67889000D03*
D35*
X117218000Y-74014000D03*
D37*
X86343000Y-69534000D03*
X123063000Y-63534000D03*
D36*
X104835988Y-60593000D03*
D35*
X108408000Y-82194000D03*
D36*
X94628000Y-54624000D03*
X115239000Y-62369000D03*
D35*
X108398000Y-83794000D03*
D36*
X100026000Y-36213000D03*
X116488000Y-60103000D03*
D35*
X119812000Y-78446000D03*
D36*
X110295988Y-36213000D03*
D35*
X111528000Y-83784000D03*
X123313500Y-72606000D03*
D37*
X86343000Y-57534000D03*
D36*
X101248000Y-50394000D03*
D37*
X127233000Y-65534000D03*
D34*
X110015988Y-51603000D03*
X106815988Y-50003000D03*
D37*
X82673000Y-69534000D03*
D34*
X109218000Y-46814000D03*
D36*
X101248000Y-46424000D03*
X112353000Y-43609000D03*
%TO.N,/RST*%
X97600000Y-51317000D03*
D34*
X88280000Y-49945000D03*
D36*
%TO.N,+3.3V*%
X94380988Y-42153000D03*
X94625988Y-47883000D03*
X104335988Y-36213000D03*
X97151000Y-37667000D03*
X105795988Y-60593000D03*
X119005988Y-51423000D03*
X119005988Y-39020000D03*
X116278488Y-46153000D03*
X93638000Y-56271000D03*
D35*
X89327999Y-59539000D03*
D36*
X116488000Y-59143000D03*
X110795988Y-60593000D03*
X94625988Y-53723000D03*
D35*
X121362000Y-78446000D03*
D36*
X109335988Y-36213000D03*
X99295988Y-60593000D03*
D35*
%TO.N,VCC*%
X89327999Y-67539000D03*
X125153000Y-67514000D03*
D36*
%TO.N,/SWCLK*%
X115565988Y-38849000D03*
%TO.N,/SWDIO*%
X116360000Y-41153000D03*
%TO.N,/LTE_reset*%
X127233000Y-58534000D03*
X116199000Y-56653000D03*
D38*
X127233000Y-61534000D03*
D36*
X121778000Y-56639000D03*
%TO.N,/LTE_pwrkey*%
X121703000Y-58464000D03*
D38*
X123063000Y-61534000D03*
D36*
X117478488Y-57649000D03*
X123063000Y-58534000D03*
D39*
%TO.N,/DCMI_VSYNC*%
X108065988Y-38890500D03*
D38*
%TO.N,/DCMI_D7*%
X104662100Y-69339000D03*
D39*
X97303488Y-41653000D03*
%TO.N,/DCMI_D4*%
X94153488Y-40653000D03*
%TO.N,/DCMI_D6*%
X95003488Y-41153000D03*
%TO.N,/DCMI_D0*%
X118628488Y-45653000D03*
X121123657Y-45643343D03*
%TO.N,/DCMI_D5*%
X111565988Y-38890500D03*
D38*
X107128000Y-68539000D03*
D34*
%TO.N,/FMC_SDCKE0*%
X97358000Y-53734000D03*
%TO.N,/FMC_A3*%
X92853000Y-45700000D03*
X103615988Y-46803000D03*
%TO.N,/FMC_A9*%
X106953000Y-61739000D03*
X105215988Y-50003000D03*
%TO.N,/FMC_D10*%
X111940500Y-62401500D03*
%TO.N,/FMC_D1*%
X114154274Y-46090274D03*
%TO.N,/FMC_A6*%
X104553000Y-57869000D03*
X104415988Y-50003000D03*
%TO.N,/FMC_D6*%
X109553000Y-57789000D03*
%TO.N,/FMC_D12*%
X115153000Y-56389000D03*
%TO.N,/FMC_A8*%
X104415988Y-51603000D03*
X104378000Y-55264000D03*
%TO.N,/FMC_NBL1*%
X106015988Y-51603000D03*
%TO.N,/FMC_D0*%
X116228000Y-51089000D03*
%TO.N,/FMC_SDNRAS*%
X104008000Y-57934000D03*
X106015988Y-46003000D03*
%TO.N,/FMC_D2*%
X109954274Y-42437726D03*
%TO.N,/FMC_D11*%
X113028000Y-60214000D03*
%TO.N,/FMC_SDNE0*%
X97358000Y-53174000D03*
X105215988Y-45203000D03*
%TO.N,/FMC_A1*%
X92828000Y-44639000D03*
X104415988Y-46003000D03*
%TO.N,/FMC_SDNWE*%
X97358000Y-52154000D03*
X106015988Y-45203000D03*
%TO.N,/FMC_D3*%
X108403001Y-42374000D03*
%TO.N,/FMC_A4*%
X103615988Y-50003000D03*
X92916743Y-46195923D03*
%TO.N,/FMC_A10*%
X104415988Y-45203000D03*
%TO.N,/FMC_A11*%
X105215988Y-50803000D03*
X108128000Y-62039000D03*
%TO.N,/FMC_D15*%
X113065500Y-51976500D03*
%TO.N,/FMC_D8*%
X111578000Y-61289000D03*
%TO.N,/FMC_SDNCAS*%
X107167153Y-43396798D03*
X106015988Y-46803000D03*
%TO.N,/FMC_A5*%
X103615988Y-50803000D03*
X93255501Y-46716501D03*
%TO.N,/FMC_D14*%
X112940500Y-52826500D03*
%TO.N,/FMC_D13*%
X118678000Y-55154000D03*
%TO.N,/FMC_A7*%
X106453385Y-61758674D03*
X104415988Y-50803000D03*
%TO.N,/FMC_A0*%
X104415988Y-46803000D03*
X97403000Y-44139000D03*
%TO.N,/FMC_D5*%
X108253000Y-56839000D03*
%TO.N,/FMC_D4*%
X106353000Y-55109000D03*
%TO.N,/FMC_NBL0*%
X106815988Y-46003000D03*
%TO.N,/FMC_D7*%
X110554274Y-54465274D03*
%TO.N,/FMC_A2*%
X103615988Y-46003000D03*
X92853000Y-45164000D03*
%TO.N,/FMC_SDCLK*%
X116308000Y-47254000D03*
D38*
%TO.N,/CAM_SCL*%
X108678000Y-77339000D03*
D36*
X113107000Y-63649000D03*
%TO.N,/CAM_SDA*%
X114138000Y-63649000D03*
D38*
X109703000Y-76514000D03*
D34*
%TO.N,/FMC_A12*%
X105215988Y-51603000D03*
X116303000Y-50164000D03*
%TO.N,/FMC_D9*%
X111748000Y-57934000D03*
%TO.N,/FMC_BS1*%
X116378000Y-48639000D03*
X105215988Y-46003000D03*
%TO.N,/FMC_BS0*%
X105215988Y-46803000D03*
X116325657Y-49136255D03*
D36*
%TO.N,+3.3VA*%
X112378000Y-47384000D03*
X112087000Y-63649000D03*
D38*
X113698000Y-49139000D03*
D35*
X115668000Y-74014000D03*
D38*
X103453000Y-41489000D03*
X117868000Y-78846500D03*
D35*
X105298000Y-83794000D03*
D40*
X110078000Y-65589000D03*
D35*
X124863500Y-78446000D03*
D36*
X112353000Y-44569000D03*
X101278000Y-48409000D03*
D38*
X94328000Y-78709000D03*
D34*
X105718000Y-78324000D03*
D35*
X97918000Y-82784000D03*
D36*
X101248000Y-47384000D03*
D35*
X92128300Y-73876500D03*
D36*
X115158000Y-63649000D03*
D34*
X105808000Y-73984000D03*
D36*
%TO.N,/I2C1_SDA*%
X101565988Y-38991000D03*
D38*
X82673000Y-51534000D03*
D36*
%TO.N,/I2C1_SCL*%
X102065988Y-36386000D03*
D38*
X82673000Y-53534000D03*
D36*
%TO.N,/DCMI_HSYNC*%
X99565988Y-57915500D03*
D38*
X106153000Y-65339000D03*
%TO.N,/USART2_TX*%
X96078000Y-57989000D03*
X89253000Y-63539000D03*
%TO.N,/USART2_RX*%
X89228000Y-65564000D03*
X97428000Y-59264000D03*
D34*
%TO.N,/camera/reset*%
X108198000Y-78324000D03*
%TO.N,/camera/pwdnb*%
X107968000Y-74024000D03*
D35*
%TO.N,CAMERA_2.8V*%
X109958000Y-83824000D03*
X116143000Y-82854000D03*
D40*
%TO.N,Net-(JP2-A)*%
X111928000Y-65589000D03*
D34*
%TO.N,Net-(J2-D9)*%
X105128000Y-78324000D03*
D38*
%TO.N,Net-(J2-PCLK)*%
X100553000Y-62039000D03*
D34*
%TO.N,Net-(J2-D7)*%
X103238000Y-78324000D03*
%TO.N,Net-(J2-D4)*%
X100103000Y-80504000D03*
%TO.N,Net-(J2-D5)*%
X101228000Y-80504000D03*
%TO.N,Net-(J2-D2)*%
X101718000Y-80863100D03*
%TO.N,Net-(J2-D3)*%
X100703000Y-78339000D03*
D38*
%TO.N,Net-(J2-HSYNC)*%
X106153000Y-67989000D03*
%TO.N,Net-(JP2-B)*%
X120278000Y-43714000D03*
D34*
%TO.N,Net-(IC1-DQ5)*%
X107615988Y-45203000D03*
X107801726Y-56387726D03*
%TO.N,Net-(IC1-DQ4)*%
X106353000Y-54469000D03*
X106459988Y-48914000D03*
%TO.N,Net-(IC1-DQ0)*%
X110015988Y-46003000D03*
X115588000Y-51089000D03*
%TO.N,Net-(IC1-DQ6)*%
X107615988Y-46003000D03*
X109553000Y-57144000D03*
%TO.N,Net-(IC1-DQ7)*%
X106815988Y-45203000D03*
X110115500Y-54026500D03*
%TD*%
D41*
%TO.N,GND*%
X113708000Y-51734000D02*
X113708000Y-50699000D01*
X104558000Y-41819000D02*
X104853000Y-41524000D01*
D42*
X104421000Y-80904000D02*
X104593000Y-80904000D01*
D41*
X116918000Y-77414000D02*
X117218000Y-77114000D01*
X93378000Y-77276800D02*
X93678300Y-76976500D01*
D43*
X93678300Y-75426500D02*
X93678300Y-73876500D01*
X117218000Y-75564000D02*
X117218000Y-74014000D01*
D41*
X112368000Y-50394000D02*
X113403000Y-50394000D01*
X103733000Y-82204000D02*
X103733000Y-81764000D01*
X107548000Y-81334000D02*
X108408000Y-82194000D01*
X107548000Y-80904000D02*
X107548000Y-81334000D01*
X104558000Y-42854000D02*
X104558000Y-41819000D01*
X83906000Y-49945000D02*
X82562000Y-49945000D01*
X116918000Y-78846500D02*
X116918000Y-77414000D01*
X111538000Y-82184000D02*
X111538000Y-81774000D01*
D43*
X93678300Y-76976500D02*
X93678300Y-75426500D01*
D42*
X103703000Y-79384000D02*
X103703000Y-80186000D01*
D41*
X113703000Y-51739000D02*
X113708000Y-51734000D01*
D42*
X110203000Y-79384000D02*
X110203000Y-80439000D01*
D41*
X111538000Y-81774000D02*
X110658000Y-80894000D01*
X93378000Y-78709000D02*
X93378000Y-77276800D01*
D42*
X103703000Y-80186000D02*
X104421000Y-80904000D01*
D43*
X117218000Y-77114000D02*
X117218000Y-75564000D01*
D41*
X113403000Y-50394000D02*
X113698000Y-50689000D01*
X103733000Y-81764000D02*
X104593000Y-80904000D01*
D42*
X110203000Y-80439000D02*
X110658000Y-80894000D01*
D44*
%TO.N,/RST*%
X88280000Y-49945000D02*
X86880000Y-49945000D01*
%TO.N,/SWCLK*%
X85245000Y-54784000D02*
X88000000Y-57539000D01*
X85245000Y-42969000D02*
X85245000Y-54784000D01*
X88648000Y-39566000D02*
X85245000Y-42969000D01*
X115565988Y-38849000D02*
X114848988Y-39566000D01*
X114848988Y-39566000D02*
X88648000Y-39566000D01*
%TO.N,/SWDIO*%
X85646000Y-53091000D02*
X88094000Y-55539000D01*
X115174000Y-39967000D02*
X88872000Y-39967000D01*
X116360000Y-41153000D02*
X115174000Y-39967000D01*
X88872000Y-39967000D02*
X85646000Y-43193000D01*
X85646000Y-43193000D02*
X85646000Y-53091000D01*
%TO.N,/LTE_reset*%
X120842000Y-56653000D02*
X116199000Y-56653000D01*
X121778000Y-56639000D02*
X120856000Y-56639000D01*
X120856000Y-56639000D02*
X120842000Y-56653000D01*
X127233000Y-58534000D02*
X127233000Y-61534000D01*
%TO.N,/LTE_pwrkey*%
X123063000Y-58534000D02*
X123063000Y-61534000D01*
X121703000Y-58464000D02*
X121658000Y-58464000D01*
X121658000Y-58464000D02*
X120843000Y-57649000D01*
X120843000Y-57649000D02*
X117478488Y-57649000D01*
D45*
%TO.N,/DCMI_VSYNC*%
X122603474Y-42534575D02*
X122522863Y-42453964D01*
X114328000Y-68739000D02*
X116653000Y-68739000D01*
X116653000Y-68739000D02*
X123739000Y-61653000D01*
X109042488Y-37914000D02*
X108065988Y-38890500D01*
X123739000Y-61653000D02*
X123739000Y-45650000D01*
X111679274Y-71387726D02*
X114328000Y-68739000D01*
X116003000Y-37914000D02*
X121210473Y-43121472D01*
X121935966Y-43524525D02*
X122603474Y-42857016D01*
X123739000Y-45650000D02*
X121935966Y-43846966D01*
X116003000Y-37914000D02*
X109042488Y-37914000D01*
X122200423Y-42453964D02*
X121532914Y-43121472D01*
X122522863Y-42453964D02*
G75*
G03*
X122200423Y-42453964I-161220J-161218D01*
G01*
X122603474Y-42857016D02*
G75*
G03*
X122603470Y-42534580I-161174J161216D01*
G01*
X121935966Y-43846966D02*
G75*
G02*
X121935920Y-43524480I161234J161266D01*
G01*
X121532914Y-43121472D02*
G75*
G02*
X121210474Y-43121472I-161220J161220D01*
G01*
D46*
%TO.N,/DCMI_D7*%
X95508388Y-53467408D02*
X96678388Y-53467408D01*
X95918388Y-43627408D02*
X95918388Y-43038100D01*
X96678388Y-43867408D02*
X96158388Y-43867408D01*
X95918388Y-43038100D02*
X97303488Y-41653000D01*
X96678388Y-49867408D02*
X96158388Y-49867408D01*
X95918388Y-46027408D02*
X95918388Y-45907408D01*
X96158388Y-44467408D02*
X96678388Y-44467408D01*
X95318388Y-54427408D02*
X95318388Y-54307408D01*
X96678388Y-52267408D02*
X96158388Y-52267408D01*
X96158388Y-45667408D02*
X96678388Y-45667408D01*
X95678388Y-54667408D02*
X95558388Y-54667408D01*
X104662100Y-69339000D02*
X104662100Y-63898100D01*
X95918388Y-49627408D02*
X95918388Y-49507408D01*
X95918388Y-48427408D02*
X95918388Y-48307408D01*
X96918388Y-51427408D02*
X96918388Y-51307408D01*
X96678388Y-46267408D02*
X96158388Y-46267408D01*
X96918388Y-52627408D02*
X96918388Y-52507408D01*
X96918388Y-49027408D02*
X96918388Y-48907408D01*
X96918388Y-47827408D02*
X96918388Y-47707408D01*
X96678388Y-45067408D02*
X96158388Y-45067408D01*
X96918388Y-44227408D02*
X96918388Y-44107408D01*
X95508388Y-52867408D02*
X96678388Y-52867408D01*
X96918388Y-46627408D02*
X96918388Y-46507408D01*
X96158388Y-51667408D02*
X96678388Y-51667408D01*
X95918388Y-55154388D02*
X95918388Y-54907408D01*
X95918388Y-52027408D02*
X95918388Y-51907408D01*
X96158388Y-48067408D02*
X96678388Y-48067408D01*
X96158388Y-50467408D02*
X96678388Y-50467408D01*
X95918388Y-50827408D02*
X95918388Y-50707408D01*
X96918388Y-50227408D02*
X96918388Y-50107408D01*
X96678388Y-51067408D02*
X96158388Y-51067408D01*
X95918388Y-47227408D02*
X95918388Y-47107408D01*
X96158388Y-46867408D02*
X96678388Y-46867408D01*
X96918388Y-45427408D02*
X96918388Y-45307408D01*
X96158388Y-49267408D02*
X96678388Y-49267408D01*
X95558388Y-54067408D02*
X96678388Y-54067408D01*
X96918388Y-53827408D02*
X96918388Y-53707408D01*
X104662100Y-63898100D02*
X95918388Y-55154388D01*
X95268388Y-53227408D02*
X95268388Y-53107408D01*
X95918388Y-44827408D02*
X95918388Y-44707408D01*
X96678388Y-48667408D02*
X96158388Y-48667408D01*
X96678388Y-47467408D02*
X96158388Y-47467408D01*
X96678388Y-51667408D02*
G75*
G03*
X96918408Y-51427408I12J240008D01*
G01*
X96918388Y-53707408D02*
G75*
G03*
X96678388Y-53467412I-239988J8D01*
G01*
X96918388Y-50107408D02*
G75*
G03*
X96678388Y-49867412I-239988J8D01*
G01*
X96158388Y-51067408D02*
G75*
G02*
X95918392Y-50827408I12J240008D01*
G01*
X95918388Y-51907408D02*
G75*
G02*
X96158388Y-51667388I240012J8D01*
G01*
X95918388Y-47107408D02*
G75*
G02*
X96158388Y-46867388I240012J8D01*
G01*
X96158388Y-45067408D02*
G75*
G02*
X95918392Y-44827408I12J240008D01*
G01*
X95918388Y-44707408D02*
G75*
G02*
X96158388Y-44467388I240012J8D01*
G01*
X96158388Y-47467408D02*
G75*
G02*
X95918392Y-47227408I12J240008D01*
G01*
X96678388Y-50467408D02*
G75*
G03*
X96918408Y-50227408I12J240008D01*
G01*
X96158388Y-46267408D02*
G75*
G02*
X95918392Y-46027408I12J240008D01*
G01*
X96918388Y-47707408D02*
G75*
G03*
X96678388Y-47467412I-239988J8D01*
G01*
X95918388Y-49507408D02*
G75*
G02*
X96158388Y-49267388I240012J8D01*
G01*
X96678388Y-44467408D02*
G75*
G03*
X96918408Y-44227408I12J240008D01*
G01*
X96158388Y-49867408D02*
G75*
G02*
X95918392Y-49627408I12J240008D01*
G01*
X96918388Y-52507408D02*
G75*
G03*
X96678388Y-52267412I-239988J8D01*
G01*
X95508388Y-53467408D02*
G75*
G02*
X95268392Y-53227408I12J240008D01*
G01*
X96678388Y-54067408D02*
G75*
G03*
X96918408Y-53827408I12J240008D01*
G01*
X96918388Y-51307408D02*
G75*
G03*
X96678388Y-51067412I-239988J8D01*
G01*
X96678388Y-48067408D02*
G75*
G03*
X96918408Y-47827408I12J240008D01*
G01*
X95918388Y-48307408D02*
G75*
G02*
X96158388Y-48067388I240012J8D01*
G01*
X95918388Y-50707408D02*
G75*
G02*
X96158388Y-50467388I240012J8D01*
G01*
X95918388Y-54907408D02*
G75*
G03*
X95678388Y-54667412I-239988J8D01*
G01*
X96678388Y-52867408D02*
G75*
G03*
X96918408Y-52627408I12J240008D01*
G01*
X96158388Y-43867408D02*
G75*
G02*
X95918392Y-43627408I12J240008D01*
G01*
X96918388Y-48907408D02*
G75*
G03*
X96678388Y-48667412I-239988J8D01*
G01*
X96918388Y-46507408D02*
G75*
G03*
X96678388Y-46267412I-239988J8D01*
G01*
X96158388Y-48667408D02*
G75*
G02*
X95918392Y-48427408I12J240008D01*
G01*
X96678388Y-46867408D02*
G75*
G03*
X96918408Y-46627408I12J240008D01*
G01*
X96918388Y-45307408D02*
G75*
G03*
X96678388Y-45067412I-239988J8D01*
G01*
X96918388Y-44107408D02*
G75*
G03*
X96678388Y-43867412I-239988J8D01*
G01*
X95268388Y-53107408D02*
G75*
G02*
X95508388Y-52867388I240012J8D01*
G01*
X95318388Y-54307408D02*
G75*
G02*
X95558388Y-54067388I240012J8D01*
G01*
X96678388Y-49267408D02*
G75*
G03*
X96918408Y-49027408I12J240008D01*
G01*
X95558388Y-54667408D02*
G75*
G02*
X95318392Y-54427408I12J240008D01*
G01*
X96678388Y-45667408D02*
G75*
G03*
X96918408Y-45427408I12J240008D01*
G01*
X96158388Y-52267408D02*
G75*
G02*
X95918392Y-52027408I12J240008D01*
G01*
X95918388Y-45907408D02*
G75*
G02*
X96158388Y-45667388I240012J8D01*
G01*
%TO.N,/DCMI_D4*%
X93376888Y-47709546D02*
X94070888Y-47709546D01*
X93576888Y-45789546D02*
X94564888Y-45789546D01*
D45*
X98878000Y-63194000D02*
X98878000Y-71489000D01*
D46*
X94820888Y-45405546D02*
X94820888Y-45533546D01*
X92970888Y-49885546D02*
X92970888Y-50013546D01*
X92970888Y-43485546D02*
X92970888Y-43613546D01*
X94770888Y-50525546D02*
X94770888Y-50653546D01*
X94820888Y-44125546D02*
X94820888Y-44253546D01*
X93226888Y-50269546D02*
X94514888Y-50269546D01*
X94170888Y-46529546D02*
X94170888Y-46969546D01*
X98878000Y-59848996D02*
X98878000Y-59864772D01*
D45*
X98878000Y-59864772D02*
X98878000Y-63194000D01*
D46*
X94770888Y-49245546D02*
X94770888Y-49373546D01*
X93970888Y-53085546D02*
X93970888Y-54941884D01*
X93226888Y-51549546D02*
X94564888Y-51549546D01*
X93320888Y-46045546D02*
X93320888Y-46173546D01*
X94820888Y-51805546D02*
X94820888Y-51933546D01*
X92970888Y-52445546D02*
X92970888Y-52573546D01*
X94170888Y-47809546D02*
X94170888Y-48249546D01*
X93226888Y-43869546D02*
X94564888Y-43869546D01*
X92970888Y-48605546D02*
X92970888Y-48733546D01*
X93970888Y-54941884D02*
X98878000Y-59848996D01*
X93453000Y-42455658D02*
X93970888Y-42973546D01*
X93476888Y-45149546D02*
X94564888Y-45149546D01*
X93226888Y-48349546D02*
X94070888Y-48349546D01*
X93576888Y-46429546D02*
X94070888Y-46429546D01*
X93226888Y-49629546D02*
X94514888Y-49629546D01*
X93226888Y-52829546D02*
X93714888Y-52829546D01*
X93226888Y-50909546D02*
X94514888Y-50909546D01*
X93453000Y-40889000D02*
X93453000Y-42455658D01*
X93689000Y-40653000D02*
X93453000Y-40889000D01*
X93714888Y-43229546D02*
X93226888Y-43229546D01*
X93226888Y-48989546D02*
X94514888Y-48989546D01*
X93220888Y-44765546D02*
X93220888Y-44893546D01*
X93376888Y-47069546D02*
X94070888Y-47069546D01*
X92970888Y-51165546D02*
X92970888Y-51293546D01*
X93476888Y-44509546D02*
X94564888Y-44509546D01*
X93226888Y-52189546D02*
X94564888Y-52189546D01*
X93120888Y-47325546D02*
X93120888Y-47453546D01*
X94153488Y-40653000D02*
X93689000Y-40653000D01*
X94514888Y-50269546D02*
G75*
G02*
X94770854Y-50525546I12J-255954D01*
G01*
X94070888Y-47709546D02*
G75*
G02*
X94170854Y-47809546I12J-99954D01*
G01*
X94170888Y-46969546D02*
G75*
G02*
X94070888Y-47069488I-99988J46D01*
G01*
X94564888Y-51549546D02*
G75*
G02*
X94820854Y-51805546I12J-255954D01*
G01*
X92970888Y-51293546D02*
G75*
G03*
X93226888Y-51549512I256012J46D01*
G01*
X94820888Y-45533546D02*
G75*
G02*
X94564888Y-45789488I-255988J46D01*
G01*
X94514888Y-48989546D02*
G75*
G02*
X94770854Y-49245546I12J-255954D01*
G01*
X94820888Y-44253546D02*
G75*
G02*
X94564888Y-44509488I-255988J46D01*
G01*
X93226888Y-48349546D02*
G75*
G03*
X92970946Y-48605546I12J-255954D01*
G01*
X92970888Y-43613546D02*
G75*
G03*
X93226888Y-43869512I256012J46D01*
G01*
X94170888Y-48249546D02*
G75*
G02*
X94070888Y-48349488I-99988J46D01*
G01*
X93320888Y-46173546D02*
G75*
G03*
X93576888Y-46429512I256012J46D01*
G01*
X93226888Y-52189546D02*
G75*
G03*
X92970946Y-52445546I12J-255954D01*
G01*
X94070888Y-46429546D02*
G75*
G02*
X94170854Y-46529546I12J-99954D01*
G01*
X93220888Y-44893546D02*
G75*
G03*
X93476888Y-45149512I256012J46D01*
G01*
X93120888Y-47453546D02*
G75*
G03*
X93376888Y-47709512I256012J46D01*
G01*
X94770888Y-49373546D02*
G75*
G02*
X94514888Y-49629488I-255988J46D01*
G01*
X92970888Y-50013546D02*
G75*
G03*
X93226888Y-50269512I256012J46D01*
G01*
X93970888Y-42973546D02*
G75*
G02*
X93714888Y-43229488I-255988J46D01*
G01*
X93376888Y-47069546D02*
G75*
G03*
X93120946Y-47325546I12J-255954D01*
G01*
X94564888Y-45149546D02*
G75*
G02*
X94820854Y-45405546I12J-255954D01*
G01*
X92970888Y-52573546D02*
G75*
G03*
X93226888Y-52829512I256012J46D01*
G01*
X94564888Y-43869546D02*
G75*
G02*
X94820854Y-44125546I12J-255954D01*
G01*
X92970888Y-48733546D02*
G75*
G03*
X93226888Y-48989512I256012J46D01*
G01*
X93576888Y-45789546D02*
G75*
G03*
X93320946Y-46045546I12J-255954D01*
G01*
X93714888Y-52829546D02*
G75*
G02*
X93970854Y-53085546I12J-255954D01*
G01*
X93226888Y-43229546D02*
G75*
G03*
X92970946Y-43485546I12J-255954D01*
G01*
X94820888Y-51933546D02*
G75*
G02*
X94564888Y-52189488I-255988J46D01*
G01*
X94770888Y-50653546D02*
G75*
G02*
X94514888Y-50909488I-255988J46D01*
G01*
X93226888Y-50909546D02*
G75*
G03*
X92970946Y-51165546I12J-255954D01*
G01*
X93476888Y-44509546D02*
G75*
G03*
X93220946Y-44765546I12J-255954D01*
G01*
X93226888Y-49629546D02*
G75*
G03*
X92970946Y-49885546I12J-255954D01*
G01*
%TO.N,/DCMI_D6*%
X95003488Y-41153000D02*
X95003000Y-41153488D01*
X95003000Y-41153488D02*
X95003000Y-42619000D01*
D45*
%TO.N,/DCMI_D0*%
X120642000Y-45653000D02*
X118628488Y-45653000D01*
X121123657Y-45643343D02*
X120651657Y-45643343D01*
X120651657Y-45643343D02*
X120642000Y-45653000D01*
%TO.N,/DCMI_D5*%
X107128000Y-68539000D02*
X107147400Y-68519600D01*
X122628000Y-45308557D02*
X115742443Y-38423000D01*
X112033488Y-38423000D02*
X111565988Y-38890500D01*
X115742443Y-38423000D02*
X112033488Y-38423000D01*
X113772400Y-68519600D02*
X122628000Y-59664000D01*
X122628000Y-59664000D02*
X122628000Y-45308557D01*
X107147400Y-68519600D02*
X113772400Y-68519600D01*
D47*
%TO.N,/FMC_SDCKE0*%
X99530295Y-51486549D02*
X100209117Y-52165371D01*
X102015488Y-50359000D02*
X105659988Y-50359000D01*
X100803086Y-53268457D02*
X100887938Y-53183604D01*
X98640488Y-53734000D02*
X99615147Y-52759341D01*
X99954560Y-51062286D02*
X100463677Y-51571403D01*
X100887941Y-51486548D02*
X102015488Y-50359000D01*
X100803089Y-51571403D02*
X100887941Y-51486548D01*
X100209115Y-52165369D02*
X100209117Y-52165371D01*
X97358000Y-53734000D02*
X98640488Y-53734000D01*
X100209115Y-52165369D02*
X100887938Y-52844192D01*
X99530296Y-51147137D02*
X99615148Y-51062286D01*
X99954558Y-52759341D02*
X100463674Y-53268457D01*
X105659988Y-50359000D02*
X106015988Y-50003000D01*
X100463674Y-53268457D02*
G75*
G03*
X100803086Y-53268457I169706J169704D01*
G01*
X99615148Y-51062286D02*
G75*
G02*
X99954560Y-51062286I169706J-169701D01*
G01*
X99530295Y-51486549D02*
G75*
G02*
X99530252Y-51147094I169705J169749D01*
G01*
X100463677Y-51571403D02*
G75*
G03*
X100803089Y-51571403I169706J169708D01*
G01*
X99615147Y-52759341D02*
G75*
G02*
X99954558Y-52759340I169706J-169707D01*
G01*
X100887938Y-53183604D02*
G75*
G03*
X100887936Y-52844194I-169738J169704D01*
G01*
%TO.N,/FMC_D10*%
X112528000Y-61814000D02*
X112528000Y-57914000D01*
X111279274Y-56665274D02*
X112528000Y-57914000D01*
X111940500Y-62401500D02*
X112528000Y-61814000D01*
%TO.N,/FMC_D12*%
X115131812Y-56410188D02*
X113548000Y-56410188D01*
X115153000Y-56389000D02*
X115131812Y-56410188D01*
X113079163Y-55177675D02*
X112867030Y-55389807D01*
X113291296Y-55814072D02*
X113503428Y-55601939D01*
X113503428Y-55262528D02*
X113418575Y-55177675D01*
X113548000Y-56410188D02*
X113291296Y-56153484D01*
X112527619Y-55389807D02*
X112527619Y-55388619D01*
X112527619Y-55388619D02*
X111753000Y-54614000D01*
X113291296Y-56153484D02*
G75*
G02*
X113291318Y-55814094I169704J169684D01*
G01*
X113418575Y-55177675D02*
G75*
G03*
X113079163Y-55177675I-169706J-169704D01*
G01*
X113503428Y-55601939D02*
G75*
G03*
X113503462Y-55262495I-169728J169739D01*
G01*
X112867030Y-55389807D02*
G75*
G02*
X112527618Y-55389808I-169706J169703D01*
G01*
%TO.N,/FMC_D8*%
X111403000Y-58264000D02*
X108428000Y-58264000D01*
X105578000Y-55414000D02*
X105578000Y-54684000D01*
X111578000Y-61289000D02*
X111578000Y-58439000D01*
X108428000Y-58264000D02*
X105578000Y-55414000D01*
X111578000Y-58439000D02*
X111403000Y-58264000D01*
D48*
%TO.N,/FMC_D13*%
X115738000Y-53471032D02*
X115738000Y-53591032D01*
X115978000Y-53831032D02*
X116438000Y-53831032D01*
X116454603Y-50530000D02*
X116678000Y-50753397D01*
X115478000Y-49939000D02*
X116069000Y-50530000D01*
X116678000Y-54784000D02*
X117048000Y-55154000D01*
X116069000Y-50530000D02*
X116454603Y-50530000D01*
X116678000Y-50753397D02*
X116678000Y-52991032D01*
X117048000Y-55154000D02*
X118678000Y-55154000D01*
X116438000Y-53231032D02*
X115978000Y-53231032D01*
X116678000Y-54071032D02*
X116678000Y-54784000D01*
X116438000Y-53831032D02*
G75*
G02*
X116677968Y-54071032I0J-239968D01*
G01*
X115978000Y-53231032D02*
G75*
G03*
X115738032Y-53471032I0J-239968D01*
G01*
X115738000Y-53591032D02*
G75*
G03*
X115978000Y-53831000I240000J32D01*
G01*
X116678000Y-52991032D02*
G75*
G02*
X116438000Y-53231000I-240000J32D01*
G01*
D47*
%TO.N,/FMC_SDCLK*%
X116308000Y-47254000D02*
X115348000Y-48214000D01*
D45*
%TO.N,/CAM_SCL*%
X108703000Y-79384000D02*
X108703000Y-77364000D01*
X108703000Y-77364000D02*
X108678000Y-77339000D01*
%TO.N,/CAM_SDA*%
X109703000Y-79384000D02*
X109703000Y-76514000D01*
D41*
%TO.N,+3.3VA*%
X92428000Y-77276200D02*
X92128300Y-76976500D01*
D42*
X105703000Y-78339000D02*
X105718000Y-78324000D01*
X110649988Y-44569000D02*
X112353000Y-44569000D01*
X110015988Y-45203000D02*
X110649988Y-44569000D01*
X106234988Y-47384000D02*
X106815988Y-46803000D01*
D41*
X103453000Y-42709000D02*
X103598000Y-42854000D01*
D42*
X110015988Y-46803000D02*
X110616988Y-47404000D01*
X108415988Y-47476012D02*
X107608000Y-48284000D01*
X107608000Y-48284000D02*
X101403000Y-48284000D01*
X105703000Y-80754000D02*
X105553000Y-80904000D01*
X103615988Y-45203000D02*
X103615988Y-42851988D01*
D41*
X105283000Y-81174000D02*
X105553000Y-80904000D01*
D42*
X110616988Y-47404000D02*
X112358000Y-47404000D01*
X108415988Y-46803000D02*
X108415988Y-47476012D01*
D41*
X115968000Y-78846500D02*
X115968000Y-77414000D01*
X113403000Y-49434000D02*
X113698000Y-49139000D01*
D43*
X115668000Y-74014000D02*
X115668000Y-75564000D01*
X115668000Y-75564000D02*
X115668000Y-77114000D01*
D42*
X101278000Y-48409000D02*
X101278000Y-49404000D01*
X107046988Y-49434000D02*
X107615988Y-50003000D01*
D41*
X92428000Y-78709000D02*
X92428000Y-77276200D01*
X115968000Y-77414000D02*
X115668000Y-77114000D01*
D43*
X92128300Y-73876500D02*
X92128300Y-75426500D01*
X92128300Y-75426500D02*
X92128300Y-76976500D01*
D41*
X105283000Y-82204000D02*
X105283000Y-81174000D01*
X112368000Y-49434000D02*
X113403000Y-49434000D01*
D42*
X112358000Y-49434000D02*
X109784988Y-49434000D01*
X101278000Y-47384000D02*
X106234988Y-47384000D01*
D41*
X103453000Y-41489000D02*
X103453000Y-42709000D01*
D42*
X105703000Y-79384000D02*
X105703000Y-78339000D01*
X109784988Y-49434000D02*
X109215988Y-50003000D01*
X101248000Y-49434000D02*
X107046988Y-49434000D01*
D41*
X105283000Y-83774000D02*
X105283000Y-82204000D01*
D42*
X105703000Y-79384000D02*
X105703000Y-80754000D01*
D45*
%TO.N,/DCMI_HSYNC*%
X100872005Y-59787203D02*
X101013426Y-59928624D01*
X101013426Y-59362939D02*
X101904380Y-58471984D01*
X106153000Y-64502512D02*
X106153000Y-65339000D01*
X101819528Y-58047720D02*
X101904380Y-58132572D01*
X105390412Y-64319751D02*
X105510620Y-64199542D01*
X104966148Y-63895487D02*
X105256062Y-63605574D01*
X101013426Y-59362939D02*
X101013427Y-59362939D01*
X102710480Y-61059993D02*
X102710481Y-61059993D01*
X104407535Y-62757047D02*
X104266113Y-62898468D01*
X103841850Y-62474205D02*
X104874224Y-61441827D01*
X105256061Y-63605574D02*
X105256062Y-63605574D01*
X102752907Y-59320511D02*
X101861953Y-60211466D01*
X104329754Y-60628656D02*
X104414606Y-60713508D01*
X105213636Y-61441828D02*
X105298488Y-61526680D01*
X104414606Y-61052920D02*
X103559007Y-61908520D01*
X104966148Y-64234899D02*
X105051000Y-64319751D01*
X106062163Y-62290355D02*
X106147015Y-62375207D01*
X100758869Y-58768970D02*
X101480116Y-58047720D01*
X101720532Y-60635730D02*
X101861953Y-60777151D01*
X102668055Y-58896247D02*
X102752907Y-58981099D01*
X104266113Y-63181311D02*
X104407534Y-63322732D01*
X103516582Y-59744774D02*
X103601434Y-59829626D01*
X105298488Y-61866092D02*
X104407534Y-62757047D01*
X101861953Y-60211466D02*
X101861954Y-60211466D01*
X103417586Y-62332784D02*
X103559007Y-62474205D01*
X102144796Y-60777151D02*
X103177170Y-59744773D01*
X102710481Y-61059993D02*
X102569059Y-61201414D01*
X103559008Y-61908520D02*
X103417586Y-62049941D01*
X102569059Y-61484257D02*
X102710480Y-61625678D01*
X101296269Y-59928624D02*
X102328643Y-58896246D01*
X101013427Y-59362939D02*
X100872005Y-59504360D01*
X102993323Y-61625678D02*
X103990342Y-60628655D01*
X99565988Y-57915500D02*
X100419457Y-58768969D01*
X105850031Y-64199542D02*
X106153000Y-64502512D01*
X104690377Y-63322732D02*
X105722751Y-62290354D01*
X106147015Y-62714619D02*
X105256061Y-63605574D01*
X101861954Y-60211466D02*
X101720532Y-60352887D01*
X104407534Y-62757047D02*
X104407535Y-62757047D01*
X103601434Y-60169038D02*
X102710480Y-61059993D01*
X103559007Y-61908520D02*
X103559008Y-61908520D01*
X101720532Y-60352887D02*
G75*
G03*
X101720540Y-60635722I141468J-141413D01*
G01*
X104266113Y-62898468D02*
G75*
G03*
X104266102Y-63181322I141387J-141432D01*
G01*
X105298488Y-61526680D02*
G75*
G02*
X105298502Y-61866106I-169688J-169720D01*
G01*
X103177170Y-59744773D02*
G75*
G02*
X103516606Y-59744749I169730J-169727D01*
G01*
X102752907Y-58981099D02*
G75*
G02*
X102752902Y-59320506I-169707J-169701D01*
G01*
X101904380Y-58132572D02*
G75*
G02*
X101904402Y-58472006I-169680J-169728D01*
G01*
X104966148Y-63895487D02*
G75*
G03*
X104966141Y-64234906I169752J-169713D01*
G01*
X103601434Y-59829626D02*
G75*
G02*
X103601402Y-60169006I-169734J-169674D01*
G01*
X103417586Y-62049941D02*
G75*
G03*
X103417548Y-62332821I141414J-141459D01*
G01*
X101861953Y-60777151D02*
G75*
G03*
X102144796Y-60777152I141422J141424D01*
G01*
X100419457Y-58768969D02*
G75*
G03*
X100758906Y-58769007I169743J169669D01*
G01*
X104414606Y-60713508D02*
G75*
G02*
X104414592Y-61052906I-169706J-169692D01*
G01*
X105722751Y-62290354D02*
G75*
G02*
X106062206Y-62290311I169749J-169746D01*
G01*
X104874224Y-61441827D02*
G75*
G02*
X105213606Y-61441857I169676J-169673D01*
G01*
X105510620Y-64199542D02*
G75*
G02*
X105850031Y-64199541I169706J-169707D01*
G01*
X102710480Y-61625678D02*
G75*
G03*
X102993323Y-61625679I141422J141424D01*
G01*
X102328643Y-58896246D02*
G75*
G02*
X102668007Y-58896295I169657J-169754D01*
G01*
X103559007Y-62474205D02*
G75*
G03*
X103841850Y-62474205I141421J141424D01*
G01*
X101480116Y-58047720D02*
G75*
G02*
X101819528Y-58047720I169706J-169708D01*
G01*
X101013426Y-59928624D02*
G75*
G03*
X101296269Y-59928625I141422J141424D01*
G01*
X106147015Y-62375207D02*
G75*
G02*
X106147002Y-62714606I-169715J-169693D01*
G01*
X105051000Y-64319751D02*
G75*
G03*
X105390412Y-64319751I169706J169704D01*
G01*
X100872005Y-59504360D02*
G75*
G03*
X100871986Y-59787222I141395J-141440D01*
G01*
X104407534Y-63322732D02*
G75*
G03*
X104690377Y-63322732I141421J141424D01*
G01*
X102569059Y-61201414D02*
G75*
G03*
X102569094Y-61484222I141441J-141386D01*
G01*
X103990342Y-60628655D02*
G75*
G02*
X104329707Y-60628703I169658J-169745D01*
G01*
D44*
%TO.N,Net-(J2-STROBE)*%
X114303000Y-78039000D02*
X114303000Y-72749000D01*
X112958000Y-79384000D02*
X114303000Y-78039000D01*
X114303000Y-72749000D02*
X115828000Y-71224000D01*
X110703000Y-79384000D02*
X112958000Y-79384000D01*
%TO.N,Net-(J2-AF-VCC)*%
X99703000Y-82299000D02*
X99703000Y-79384000D01*
X99218000Y-82784000D02*
X99703000Y-82299000D01*
D42*
%TO.N,/camera/reset*%
X108203000Y-78439000D02*
X108198000Y-78434000D01*
X108203000Y-79384000D02*
X108203000Y-78439000D01*
%TO.N,/camera/pwdnb*%
X107203000Y-75249000D02*
X107968000Y-74484000D01*
X107968000Y-74484000D02*
X107968000Y-74024000D01*
X107203000Y-79384000D02*
X107203000Y-75249000D01*
D41*
%TO.N,CAMERA_2.8V*%
X109698000Y-81919000D02*
X109973000Y-82194000D01*
X109973000Y-82194000D02*
X109973000Y-83784000D01*
X115968000Y-81121500D02*
X115968000Y-82679000D01*
D42*
X109203000Y-80399000D02*
X109698000Y-80894000D01*
X109203000Y-79384000D02*
X109203000Y-80399000D01*
D41*
X109698000Y-80894000D02*
X109698000Y-81919000D01*
%TO.N,CAMERA_1.5V*%
X106853000Y-83784000D02*
X106853000Y-82209000D01*
X106037000Y-84600000D02*
X106853000Y-83784000D01*
X106858000Y-81174000D02*
X106588000Y-80904000D01*
X94454000Y-84600000D02*
X106037000Y-84600000D01*
D42*
X106203000Y-79384000D02*
X106203000Y-80519000D01*
D41*
X106858000Y-82204000D02*
X106858000Y-81174000D01*
D42*
X106203000Y-80519000D02*
X106588000Y-80904000D01*
D41*
X92428000Y-80984000D02*
X92428000Y-82541500D01*
X92598000Y-82744000D02*
X94454000Y-84600000D01*
D49*
%TO.N,/camera/XCLK*%
X104703000Y-79384000D02*
X104703000Y-70269438D01*
X105203000Y-69769438D02*
X105203000Y-68265834D01*
X105203000Y-68265834D02*
X106079834Y-67389000D01*
X113228000Y-66389000D02*
X113228000Y-65589000D01*
X106079834Y-67389000D02*
X112228000Y-67389000D01*
X112228000Y-67389000D02*
X113228000Y-66389000D01*
X104703000Y-70269438D02*
X105203000Y-69769438D01*
%TO.N,Net-(J2-D9)*%
X105128000Y-78324000D02*
X105203000Y-78399000D01*
D46*
X105203000Y-78399000D02*
X105203000Y-79384000D01*
%TO.N,Net-(J2-PCLK)*%
X100138000Y-72261652D02*
X100138000Y-72141652D01*
X102518000Y-68061652D02*
X102518000Y-67941652D01*
X100138000Y-67461652D02*
X100138000Y-67341652D01*
X100378000Y-70101652D02*
X102278000Y-70101652D01*
X102703000Y-79384000D02*
X102703000Y-81419000D01*
X102518000Y-70461652D02*
X102518000Y-70341652D01*
X100378000Y-71901652D02*
X102278000Y-71901652D01*
X100378000Y-64101652D02*
X102278000Y-64101652D01*
X100378000Y-66501652D02*
X102278000Y-66501652D01*
X100553000Y-62039000D02*
X101328000Y-62814000D01*
X100138000Y-69861652D02*
X100138000Y-69741652D01*
X100378000Y-74901652D02*
X102278000Y-74901652D01*
X100138000Y-65061652D02*
X100138000Y-64941652D01*
X100138000Y-71061652D02*
X100138000Y-70941652D01*
X101328000Y-76164000D02*
X101328000Y-75741652D01*
X100378000Y-68301652D02*
X102278000Y-68301652D01*
X100378000Y-73701652D02*
X102278000Y-73701652D01*
X100378000Y-72501652D02*
X102278000Y-72501652D01*
X102518000Y-69261652D02*
X102518000Y-69141652D01*
X101568000Y-75501652D02*
X102278000Y-75501652D01*
X102518000Y-74061652D02*
X102518000Y-73941652D01*
X100378000Y-64701652D02*
X102278000Y-64701652D01*
X102518000Y-75261652D02*
X102518000Y-75141652D01*
X102703000Y-77539000D02*
X101328000Y-76164000D01*
X100138000Y-63861652D02*
X100138000Y-63741652D01*
X100378000Y-68901652D02*
X102278000Y-68901652D01*
X100378000Y-74301652D02*
X102278000Y-74301652D01*
X100378000Y-65301652D02*
X102278000Y-65301652D01*
X100378000Y-71301652D02*
X102278000Y-71301652D01*
X102518000Y-64461652D02*
X102518000Y-64341652D01*
X100378000Y-69501652D02*
X102278000Y-69501652D01*
X100378000Y-65901652D02*
X102278000Y-65901652D01*
X102518000Y-66861652D02*
X102518000Y-66741652D01*
X100138000Y-66261652D02*
X100138000Y-66141652D01*
X102703000Y-79384000D02*
X102703000Y-77539000D01*
X100378000Y-73101652D02*
X102278000Y-73101652D01*
X100378000Y-70701652D02*
X102278000Y-70701652D01*
X102703000Y-81419000D02*
X102088000Y-82034000D01*
X100138000Y-73461652D02*
X100138000Y-73341652D01*
X102518000Y-71661652D02*
X102518000Y-71541652D01*
X100138000Y-68661652D02*
X100138000Y-68541652D01*
X100378000Y-67701652D02*
X102278000Y-67701652D01*
X102518000Y-72861652D02*
X102518000Y-72741652D01*
X102518000Y-65661652D02*
X102518000Y-65541652D01*
X100378000Y-67101652D02*
X102278000Y-67101652D01*
X101328000Y-63261652D02*
X101328000Y-62814000D01*
X100138000Y-74661652D02*
X100138000Y-74541652D01*
X100378000Y-63501652D02*
X101088000Y-63501652D01*
X102278000Y-64701652D02*
G75*
G03*
X102517952Y-64461652I0J239952D01*
G01*
X102518000Y-69141652D02*
G75*
G03*
X102278000Y-68901700I-240000J-48D01*
G01*
X102278000Y-70701652D02*
G75*
G03*
X102517952Y-70461652I0J239952D01*
G01*
X100138000Y-63741652D02*
G75*
G02*
X100378000Y-63501700I240000J-48D01*
G01*
X100378000Y-68901652D02*
G75*
G02*
X100138048Y-68661652I0J239952D01*
G01*
X102278000Y-69501652D02*
G75*
G03*
X102517952Y-69261652I0J239952D01*
G01*
X102278000Y-65901652D02*
G75*
G03*
X102517952Y-65661652I0J239952D01*
G01*
X100138000Y-66141652D02*
G75*
G02*
X100378000Y-65901700I240000J-48D01*
G01*
X100138000Y-74541652D02*
G75*
G02*
X100378000Y-74301700I240000J-48D01*
G01*
X102278000Y-75501652D02*
G75*
G03*
X102517952Y-75261652I0J239952D01*
G01*
X100378000Y-66501652D02*
G75*
G02*
X100138048Y-66261652I0J239952D01*
G01*
X102278000Y-73101652D02*
G75*
G03*
X102517952Y-72861652I0J239952D01*
G01*
X100138000Y-73341652D02*
G75*
G02*
X100378000Y-73101700I240000J-48D01*
G01*
X100138000Y-69741652D02*
G75*
G02*
X100378000Y-69501700I240000J-48D01*
G01*
X100138000Y-72141652D02*
G75*
G02*
X100378000Y-71901700I240000J-48D01*
G01*
X102278000Y-74301652D02*
G75*
G03*
X102517952Y-74061652I0J239952D01*
G01*
X100138000Y-68541652D02*
G75*
G02*
X100378000Y-68301700I240000J-48D01*
G01*
X102518000Y-67941652D02*
G75*
G03*
X102278000Y-67701700I-240000J-48D01*
G01*
X101328000Y-75741652D02*
G75*
G02*
X101568000Y-75501700I240000J-48D01*
G01*
X102278000Y-71901652D02*
G75*
G03*
X102517952Y-71661652I0J239952D01*
G01*
X100378000Y-65301652D02*
G75*
G02*
X100138048Y-65061652I0J239952D01*
G01*
X102518000Y-65541652D02*
G75*
G03*
X102278000Y-65301700I-240000J-48D01*
G01*
X100378000Y-64101652D02*
G75*
G02*
X100138048Y-63861652I0J239952D01*
G01*
X102518000Y-72741652D02*
G75*
G03*
X102278000Y-72501700I-240000J-48D01*
G01*
X102518000Y-73941652D02*
G75*
G03*
X102278000Y-73701700I-240000J-48D01*
G01*
X102518000Y-66741652D02*
G75*
G03*
X102278000Y-66501700I-240000J-48D01*
G01*
X101088000Y-63501652D02*
G75*
G03*
X101327952Y-63261652I0J239952D01*
G01*
X102278000Y-68301652D02*
G75*
G03*
X102517952Y-68061652I0J239952D01*
G01*
X100378000Y-70101652D02*
G75*
G02*
X100138048Y-69861652I0J239952D01*
G01*
X100138000Y-64941652D02*
G75*
G02*
X100378000Y-64701700I240000J-48D01*
G01*
X100138000Y-67341652D02*
G75*
G02*
X100378000Y-67101700I240000J-48D01*
G01*
X100378000Y-71301652D02*
G75*
G02*
X100138048Y-71061652I0J239952D01*
G01*
X100378000Y-73701652D02*
G75*
G02*
X100138048Y-73461652I0J239952D01*
G01*
X100378000Y-74901652D02*
G75*
G02*
X100138048Y-74661652I0J239952D01*
G01*
X100138000Y-70941652D02*
G75*
G02*
X100378000Y-70701700I240000J-48D01*
G01*
X100378000Y-72501652D02*
G75*
G02*
X100138048Y-72261652I0J239952D01*
G01*
X102518000Y-64341652D02*
G75*
G03*
X102278000Y-64101700I-240000J-48D01*
G01*
X102518000Y-70341652D02*
G75*
G03*
X102278000Y-70101700I-240000J-48D01*
G01*
X100378000Y-67701652D02*
G75*
G02*
X100138048Y-67461652I0J239952D01*
G01*
X102278000Y-67101652D02*
G75*
G03*
X102517952Y-66861652I0J239952D01*
G01*
X102518000Y-71541652D02*
G75*
G03*
X102278000Y-71301700I-240000J-48D01*
G01*
X102518000Y-75141652D02*
G75*
G03*
X102278000Y-74901700I-240000J-48D01*
G01*
D49*
%TO.N,Net-(J2-D7)*%
X103238000Y-78324000D02*
X103203000Y-78359000D01*
D46*
X103203000Y-78359000D02*
X103203000Y-79384000D01*
D45*
%TO.N,Net-(J2-VSYNC)*%
X107703000Y-79384000D02*
X107703000Y-75364000D01*
X107703000Y-75364000D02*
X111226726Y-71840274D01*
D49*
%TO.N,Net-(J2-D4)*%
X100103000Y-80504000D02*
X100178000Y-80429000D01*
X100178000Y-80429000D02*
X100178000Y-79409000D01*
D46*
%TO.N,Net-(J2-D8)*%
X104413000Y-68028262D02*
X104413000Y-67638262D01*
X96106932Y-56374176D02*
X96297850Y-56183257D01*
X95738100Y-45604096D02*
X95738100Y-45484096D01*
X95278100Y-50644096D02*
X95498100Y-50644096D01*
X95278100Y-44644096D02*
X95498100Y-44644096D01*
X104202000Y-69148420D02*
X104203000Y-69147420D01*
X104413000Y-66828262D02*
X104413000Y-66438262D01*
X95498100Y-45244096D02*
X95278100Y-45244096D01*
X95038100Y-52204096D02*
X95038100Y-52084096D01*
X95038100Y-47404096D02*
X95038100Y-47284096D01*
X96955460Y-57222704D02*
X97146378Y-57031785D01*
X95738100Y-44404096D02*
X95738100Y-44284096D01*
X95498100Y-46444096D02*
X95278100Y-46444096D01*
X104203000Y-64293262D02*
X104203000Y-63748996D01*
X96637262Y-56183257D02*
X96722115Y-56268111D01*
X95278100Y-51844096D02*
X95498100Y-51844096D01*
X95038100Y-54584096D02*
X95873587Y-55419583D01*
X95738100Y-46804096D02*
X95738100Y-46684096D01*
X94378100Y-52444096D02*
X94798100Y-52444096D01*
X95498100Y-47644096D02*
X95278100Y-47644096D01*
X99501044Y-59768288D02*
X99691962Y-59577369D01*
X99076780Y-59683436D02*
X99161632Y-59768288D01*
X94863100Y-48844096D02*
X95498100Y-48844096D01*
X103443000Y-64893262D02*
X103443000Y-64773262D01*
X97485790Y-57031785D02*
X97570643Y-57116639D01*
X104202000Y-69529580D02*
X104202000Y-69148420D01*
X104413000Y-65628262D02*
X104413000Y-65238262D01*
X95738100Y-51604096D02*
X95738100Y-51484096D01*
X103683000Y-68133262D02*
X104308000Y-68133262D01*
X103683000Y-67533262D02*
X104308000Y-67533262D01*
X95038100Y-43804096D02*
X95038100Y-43183819D01*
X98228252Y-58834908D02*
X98313104Y-58919760D01*
X95278100Y-47044096D02*
X95498100Y-47044096D01*
X103443000Y-67293262D02*
X103443000Y-67173262D01*
X95278100Y-49444096D02*
X95498100Y-49444096D01*
X98652516Y-58919760D02*
X98843434Y-58728841D01*
X95873587Y-55758994D02*
X95682668Y-55949912D01*
X103683000Y-65133262D02*
X104308000Y-65133262D01*
X94863100Y-48244096D02*
X95498100Y-48244096D01*
X94798100Y-53044096D02*
X94378100Y-53044096D01*
X103683000Y-66333262D02*
X104308000Y-66333262D01*
X103443000Y-66093262D02*
X103443000Y-65973262D01*
X97379724Y-57986380D02*
X97464576Y-58071232D01*
X103963000Y-68733262D02*
X103683000Y-68733262D01*
X95038100Y-46204096D02*
X95038100Y-46084096D01*
X97803988Y-58071232D02*
X97994906Y-57880313D01*
X94688100Y-48669096D02*
X94688100Y-48419096D01*
X95738100Y-48004096D02*
X95738100Y-47884096D01*
X95498100Y-44044096D02*
X95278100Y-44044096D01*
X98419171Y-58304578D02*
X98228252Y-58495496D01*
X95498100Y-50044096D02*
X95278100Y-50044096D01*
X95278100Y-45844096D02*
X95498100Y-45844096D01*
X95498100Y-51244096D02*
X95278100Y-51244096D01*
X95038100Y-54584096D02*
X95038100Y-53284096D01*
X103683000Y-66933262D02*
X104308000Y-66933262D01*
X100031374Y-59577369D02*
X104203000Y-63748996D01*
X94138100Y-52804096D02*
X94138100Y-52684096D01*
X95038100Y-45004096D02*
X95038100Y-44884096D01*
X95738100Y-49204096D02*
X95738100Y-49084096D01*
X95038100Y-49804096D02*
X95038100Y-49684096D01*
X97570643Y-57456050D02*
X97379724Y-57646968D01*
X104203000Y-69147420D02*
X104203000Y-68973262D01*
X104203000Y-79384000D02*
X104203000Y-69530580D01*
X103683000Y-65733262D02*
X104308000Y-65733262D01*
X96531196Y-57137852D02*
X96616048Y-57222704D01*
X99182846Y-58728841D02*
X99267699Y-58813695D01*
X95038100Y-51004096D02*
X95038100Y-50884096D01*
X103443000Y-68493262D02*
X103443000Y-68373262D01*
X96722115Y-56607522D02*
X96531196Y-56798440D01*
X95738100Y-50404096D02*
X95738100Y-50284096D01*
X104203000Y-69530580D02*
X104202000Y-69529580D01*
X98334318Y-57880313D02*
X98419171Y-57965167D01*
X95682668Y-56289324D02*
X95767520Y-56374176D01*
X103683000Y-64533262D02*
X103963000Y-64533262D01*
X99267699Y-59153106D02*
X99076780Y-59344024D01*
X94688100Y-48419096D02*
G75*
G02*
X94863100Y-48244100I175000J-4D01*
G01*
X104308000Y-68133262D02*
G75*
G03*
X104412962Y-68028262I0J104962D01*
G01*
X103683000Y-65133262D02*
G75*
G02*
X103443038Y-64893262I0J239962D01*
G01*
X98419171Y-57965167D02*
G75*
G02*
X98419199Y-58304606I-169671J-169733D01*
G01*
X94378100Y-53044096D02*
G75*
G02*
X94138104Y-52804096I0J239996D01*
G01*
X97464576Y-58071232D02*
G75*
G03*
X97803988Y-58071232I169706J169704D01*
G01*
X96616048Y-57222704D02*
G75*
G03*
X96955460Y-57222704I169706J169704D01*
G01*
X95278100Y-44044096D02*
G75*
G02*
X95038104Y-43804096I0J239996D01*
G01*
X95498100Y-44644096D02*
G75*
G03*
X95738096Y-44404096I0J239996D01*
G01*
X96531196Y-56798440D02*
G75*
G03*
X96531242Y-57137806I169704J-169660D01*
G01*
X104308000Y-66933262D02*
G75*
G03*
X104412962Y-66828262I0J104962D01*
G01*
X95498100Y-48244096D02*
G75*
G03*
X95738096Y-48004096I0J239996D01*
G01*
X95767520Y-56374176D02*
G75*
G03*
X96106932Y-56374176I169706J169704D01*
G01*
X96297850Y-56183257D02*
G75*
G02*
X96637262Y-56183257I169706J-169704D01*
G01*
X103683000Y-66333262D02*
G75*
G02*
X103443038Y-66093262I0J239962D01*
G01*
X95278100Y-47644096D02*
G75*
G02*
X95038104Y-47404096I0J239996D01*
G01*
X103443000Y-67173262D02*
G75*
G02*
X103683000Y-66933300I240000J-38D01*
G01*
X97146378Y-57031785D02*
G75*
G02*
X97485790Y-57031785I169706J-169704D01*
G01*
X94798100Y-52444096D02*
G75*
G03*
X95038096Y-52204096I0J239996D01*
G01*
X103683000Y-67533262D02*
G75*
G02*
X103443038Y-67293262I0J239962D01*
G01*
X95738100Y-45484096D02*
G75*
G03*
X95498100Y-45244100I-240000J-4D01*
G01*
X95498100Y-51844096D02*
G75*
G03*
X95738096Y-51604096I0J239996D01*
G01*
X97570643Y-57116639D02*
G75*
G02*
X97570599Y-57456006I-169743J-169661D01*
G01*
X97994906Y-57880313D02*
G75*
G02*
X98334318Y-57880313I169706J-169704D01*
G01*
X95498100Y-49444096D02*
G75*
G03*
X95738096Y-49204096I0J239996D01*
G01*
X95278100Y-50044096D02*
G75*
G02*
X95038104Y-49804096I0J239996D01*
G01*
X99076780Y-59344024D02*
G75*
G03*
X99076810Y-59683406I169720J-169676D01*
G01*
X99267699Y-58813695D02*
G75*
G02*
X99267699Y-59153105I-169699J-169705D01*
G01*
X95278100Y-51244096D02*
G75*
G02*
X95038104Y-51004096I0J239996D01*
G01*
X95038100Y-47284096D02*
G75*
G02*
X95278100Y-47044100I240000J-4D01*
G01*
X104413000Y-65238262D02*
G75*
G03*
X104308000Y-65133300I-105000J-38D01*
G01*
X95498100Y-45844096D02*
G75*
G03*
X95738096Y-45604096I0J239996D01*
G01*
X95038100Y-44884096D02*
G75*
G02*
X95278100Y-44644100I240000J-4D01*
G01*
X95873587Y-55419583D02*
G75*
G02*
X95873599Y-55759006I-169687J-169717D01*
G01*
X104413000Y-67638262D02*
G75*
G03*
X104308000Y-67533300I-105000J-38D01*
G01*
X104203000Y-68973262D02*
G75*
G03*
X103963000Y-68733300I-240000J-38D01*
G01*
X97379724Y-57646968D02*
G75*
G03*
X97379698Y-57986406I169676J-169732D01*
G01*
X95738100Y-46684096D02*
G75*
G03*
X95498100Y-46444100I-240000J-4D01*
G01*
X99691962Y-59577369D02*
G75*
G02*
X100031374Y-59577369I169706J-169704D01*
G01*
X103963000Y-64533262D02*
G75*
G03*
X104202962Y-64293262I0J239962D01*
G01*
X94863100Y-48844096D02*
G75*
G02*
X94688104Y-48669096I0J174996D01*
G01*
X95038100Y-49684096D02*
G75*
G02*
X95278100Y-49444100I240000J-4D01*
G01*
X96722115Y-56268111D02*
G75*
G02*
X96722099Y-56607506I-169715J-169689D01*
G01*
X95038100Y-53284096D02*
G75*
G03*
X94798100Y-53044100I-240000J-4D01*
G01*
X99161632Y-59768288D02*
G75*
G03*
X99501044Y-59768288I169706J169704D01*
G01*
X95738100Y-51484096D02*
G75*
G03*
X95498100Y-51244100I-240000J-4D01*
G01*
X95278100Y-45244096D02*
G75*
G02*
X95038104Y-45004096I0J239996D01*
G01*
X95682668Y-55949912D02*
G75*
G03*
X95682686Y-56289306I169732J-169688D01*
G01*
X95738100Y-44284096D02*
G75*
G03*
X95498100Y-44044100I-240000J-4D01*
G01*
X95038100Y-52084096D02*
G75*
G02*
X95278100Y-51844100I240000J-4D01*
G01*
X95498100Y-47044096D02*
G75*
G03*
X95738096Y-46804096I0J239996D01*
G01*
X98228252Y-58495496D02*
G75*
G03*
X98228254Y-58834906I169748J-169704D01*
G01*
X98843434Y-58728841D02*
G75*
G02*
X99182846Y-58728841I169706J-169704D01*
G01*
X104308000Y-65733262D02*
G75*
G03*
X104412962Y-65628262I0J104962D01*
G01*
X95498100Y-50644096D02*
G75*
G03*
X95738096Y-50404096I0J239996D01*
G01*
X94138100Y-52684096D02*
G75*
G02*
X94378100Y-52444100I240000J-4D01*
G01*
X103443000Y-68373262D02*
G75*
G02*
X103683000Y-68133300I240000J-38D01*
G01*
X95738100Y-47884096D02*
G75*
G03*
X95498100Y-47644100I-240000J-4D01*
G01*
X95738100Y-50284096D02*
G75*
G03*
X95498100Y-50044100I-240000J-4D01*
G01*
X95738100Y-49084096D02*
G75*
G03*
X95498100Y-48844100I-240000J-4D01*
G01*
X103443000Y-65973262D02*
G75*
G02*
X103683000Y-65733300I240000J-38D01*
G01*
X103443000Y-64773262D02*
G75*
G02*
X103683000Y-64533300I240000J-38D01*
G01*
X104413000Y-66438262D02*
G75*
G03*
X104308000Y-66333300I-105000J-38D01*
G01*
X103683000Y-68733262D02*
G75*
G02*
X103443038Y-68493262I0J239962D01*
G01*
X95038100Y-50884096D02*
G75*
G02*
X95278100Y-50644100I240000J-4D01*
G01*
X95278100Y-46444096D02*
G75*
G02*
X95038104Y-46204096I0J239996D01*
G01*
X98313104Y-58919760D02*
G75*
G03*
X98652516Y-58919760I169706J169704D01*
G01*
X95038100Y-46084096D02*
G75*
G02*
X95278100Y-45844100I240000J-4D01*
G01*
D49*
%TO.N,Net-(J2-D5)*%
X101228000Y-80504000D02*
X101228000Y-79409000D01*
%TO.N,Net-(J2-D2)*%
X101718000Y-80863100D02*
X101718000Y-79369000D01*
D45*
%TO.N,Net-(J2-D3)*%
X100703000Y-79384000D02*
X100703000Y-78339000D01*
D46*
%TO.N,Net-(J2-D6)*%
X102128000Y-79309000D02*
X102128000Y-78389000D01*
X102128000Y-78389000D02*
X98928000Y-75189000D01*
X98928000Y-75189000D02*
X98928000Y-72134000D01*
D45*
%TO.N,Net-(J2-HSYNC)*%
X106153000Y-72795834D02*
X106153000Y-73589000D01*
X105393000Y-71955834D02*
X106913000Y-71955834D01*
X107153000Y-70395834D02*
X107153000Y-70515834D01*
X105393000Y-71355834D02*
X106913000Y-71355834D01*
X106153000Y-67989000D02*
X106153000Y-69315834D01*
X105453000Y-69795834D02*
X105453000Y-69915834D01*
X105693000Y-70155834D02*
X106913000Y-70155834D01*
X107153000Y-71595834D02*
X107153000Y-71715834D01*
X105393000Y-70755834D02*
X106913000Y-70755834D01*
X106153000Y-73589000D02*
X106703000Y-74139000D01*
X106703000Y-74139000D02*
X106703000Y-79384000D01*
X105153000Y-72195834D02*
X105153000Y-72315834D01*
X105393000Y-72555834D02*
X105913000Y-72555834D01*
X105913000Y-69555834D02*
X105693000Y-69555834D01*
X105153000Y-70995834D02*
X105153000Y-71115834D01*
X105153000Y-71115834D02*
G75*
G03*
X105393000Y-71355800I240000J34D01*
G01*
X105393000Y-71955834D02*
G75*
G03*
X105153034Y-72195834I0J-239966D01*
G01*
X105913000Y-72555834D02*
G75*
G02*
X106152966Y-72795834I0J-239966D01*
G01*
X105693000Y-69555834D02*
G75*
G03*
X105453034Y-69795834I0J-239966D01*
G01*
X105153000Y-72315834D02*
G75*
G03*
X105393000Y-72555800I240000J34D01*
G01*
X107153000Y-71715834D02*
G75*
G02*
X106913000Y-71955800I-240000J34D01*
G01*
X106913000Y-70155834D02*
G75*
G02*
X107152966Y-70395834I0J-239966D01*
G01*
X106913000Y-71355834D02*
G75*
G02*
X107152966Y-71595834I0J-239966D01*
G01*
X106153000Y-69315834D02*
G75*
G02*
X105913000Y-69555800I-240000J34D01*
G01*
X105393000Y-70755834D02*
G75*
G03*
X105153034Y-70995834I0J-239966D01*
G01*
X105453000Y-69915834D02*
G75*
G03*
X105693000Y-70155800I240000J34D01*
G01*
X107153000Y-70515834D02*
G75*
G02*
X106913000Y-70755800I-240000J34D01*
G01*
D49*
%TO.N,Net-(JP2-B)*%
X120278000Y-44232000D02*
X122203000Y-46157000D01*
X122203000Y-59189000D02*
X115803000Y-65589000D01*
X122203000Y-46157000D02*
X122203000Y-59189000D01*
X115803000Y-65589000D02*
X114528000Y-65589000D01*
X120278000Y-43714000D02*
X120278000Y-44232000D01*
D47*
%TO.N,Net-(IC1-DQ2)*%
X109215988Y-46003000D02*
X108814988Y-45602000D01*
X108814988Y-45602000D02*
X108814988Y-43577012D01*
X108814988Y-43577012D02*
X109501726Y-42890274D01*
%TO.N,Net-(IC1-DQ8)*%
X105578000Y-52840988D02*
X105578000Y-54044000D01*
X105578000Y-52840988D02*
X106815988Y-51603000D01*
%TO.N,Net-(IC1-DQ1)*%
X109215988Y-45203000D02*
X109650714Y-45637726D01*
X109650714Y-45637726D02*
X113701726Y-45637726D01*
%TO.N,Net-(IC1-DQ4)*%
X106783988Y-48590000D02*
X107734750Y-48590000D01*
X107734750Y-48590000D02*
X108751988Y-47572762D01*
X108751988Y-46339000D02*
X108415988Y-46003000D01*
X108751988Y-47572762D02*
X108751988Y-46339000D01*
X106459988Y-48914000D02*
X106783988Y-48590000D01*
%TO.N,Net-(IC1-DQ11)*%
X113028000Y-59569000D02*
X113028000Y-58996284D01*
X113268000Y-58756284D02*
X113648000Y-58756284D01*
X108078000Y-52764000D02*
X108264440Y-52950440D01*
X109395810Y-53007009D02*
X109028113Y-53374703D01*
X109310958Y-52582745D02*
X109395810Y-52667597D01*
X111723990Y-55335189D02*
X111356293Y-55702883D01*
X113648000Y-58156284D02*
X113268000Y-58156284D01*
X110932032Y-55278621D02*
X111299726Y-54910924D01*
X113028000Y-57916284D02*
X113028000Y-57714000D01*
X108078000Y-51140988D02*
X108078000Y-52764000D01*
X112572518Y-56183717D02*
X112204821Y-56551411D01*
X112204822Y-56890823D02*
X113028000Y-57714000D01*
X108603852Y-52950441D02*
X108971546Y-52582744D01*
X112487666Y-55759453D02*
X112572518Y-55844305D01*
X108415988Y-50803000D02*
X108078000Y-51140988D01*
X111780560Y-56127149D02*
X112148254Y-55759452D01*
X111356294Y-56042295D02*
X111441148Y-56127148D01*
X109028114Y-53714115D02*
X110592620Y-55278620D01*
X113888000Y-58516284D02*
X113888000Y-58396284D01*
X111639138Y-54910925D02*
X111723990Y-54995777D01*
X109028113Y-53374703D02*
G75*
G03*
X109028122Y-53714106I169687J-169697D01*
G01*
X113028000Y-58996284D02*
G75*
G02*
X113268000Y-58756300I240000J-16D01*
G01*
X112204821Y-56551411D02*
G75*
G03*
X112204838Y-56890806I169679J-169689D01*
G01*
X112572518Y-55844305D02*
G75*
G02*
X112572507Y-56183706I-169718J-169695D01*
G01*
X111723990Y-54995777D02*
G75*
G02*
X111724007Y-55335206I-169690J-169723D01*
G01*
X108264440Y-52950440D02*
G75*
G03*
X108603806Y-52950395I169660J169740D01*
G01*
X113648000Y-58756284D02*
G75*
G03*
X113887984Y-58516284I0J239984D01*
G01*
X110592620Y-55278620D02*
G75*
G03*
X110932006Y-55278595I169680J169720D01*
G01*
X113268000Y-58156284D02*
G75*
G02*
X113028016Y-57916284I0J239984D01*
G01*
X109395810Y-52667597D02*
G75*
G02*
X109395807Y-53007006I-169710J-169703D01*
G01*
X113888000Y-58396284D02*
G75*
G03*
X113648000Y-58156300I-240000J-16D01*
G01*
X111356293Y-55702883D02*
G75*
G03*
X111356282Y-56042306I169707J-169717D01*
G01*
X111299726Y-54910924D02*
G75*
G02*
X111639106Y-54910956I169674J-169676D01*
G01*
X111441148Y-56127148D02*
G75*
G03*
X111780605Y-56127195I169752J169748D01*
G01*
X108971546Y-52582744D02*
G75*
G02*
X109311006Y-52582696I169754J-169756D01*
G01*
X112148254Y-55759452D02*
G75*
G02*
X112487706Y-55759412I169746J-169748D01*
G01*
%TO.N,Net-(IC1-DQ3)*%
X108415988Y-45203000D02*
X108415988Y-43026989D01*
D48*
%TO.N,Net-(IC1-DQ13)*%
X109561988Y-50457000D02*
X110159306Y-50457000D01*
X110159306Y-50457000D02*
X110668306Y-49948000D01*
X110668306Y-49948000D02*
X114678000Y-49948000D01*
X109215988Y-50803000D02*
X109561988Y-50457000D01*
D47*
%TO.N,Net-(IC1-DQ10)*%
X110676726Y-56062726D02*
X107615988Y-53001988D01*
X107615988Y-53001988D02*
X107615988Y-51603000D01*
%TO.N,Net-(IC1-DQ15)*%
X112067000Y-50803000D02*
X112753000Y-51489000D01*
X110015988Y-50803000D02*
X110729271Y-50803000D01*
X111683271Y-50803000D02*
X112067000Y-50803000D01*
X111471271Y-50415000D02*
X111471271Y-50591000D01*
X111153271Y-50203000D02*
X111259271Y-50203000D01*
X110941271Y-50591000D02*
X110941271Y-50415000D01*
X110729271Y-50803000D02*
G75*
G03*
X110941300Y-50591000I29J212000D01*
G01*
X110941271Y-50415000D02*
G75*
G02*
X111153271Y-50202971I212029J0D01*
G01*
X111259271Y-50203000D02*
G75*
G02*
X111471300Y-50415000I29J-212000D01*
G01*
X111471271Y-50591000D02*
G75*
G03*
X111683271Y-50803029I212029J0D01*
G01*
%TO.N,Net-(IC1-DQ9)*%
X110203987Y-57111237D02*
X110112063Y-57019313D01*
X108138015Y-54324015D02*
X108300454Y-54486454D01*
X107912960Y-55235988D02*
X108300453Y-54848492D01*
X108818057Y-56141085D02*
X109205550Y-55753589D01*
X107178000Y-53364000D02*
X107178000Y-51240988D01*
X109658100Y-56206139D02*
X109270606Y-56593634D01*
X107178000Y-53364000D02*
X107437978Y-53623978D01*
X107178000Y-51240988D02*
X107615988Y-50803000D01*
X107826887Y-54324014D02*
X107211705Y-54939197D01*
X108003469Y-55688536D02*
X107912959Y-55598026D01*
X108753003Y-55301042D02*
X108365509Y-55688537D01*
X106900577Y-54939196D02*
X106822795Y-54861414D01*
X109205551Y-55391551D02*
X109115043Y-55301043D01*
X110925237Y-57111237D02*
X111301726Y-57487726D01*
X108908566Y-56593633D02*
X108818056Y-56503123D01*
X106822796Y-54550288D02*
X107437977Y-53935104D01*
X110112063Y-56298063D02*
X110020140Y-56206140D01*
X108365509Y-55688537D02*
G75*
G02*
X108003479Y-55688526I-181009J181037D01*
G01*
X108138015Y-54324015D02*
G75*
G03*
X107826937Y-54324063I-155515J-155585D01*
G01*
X109205550Y-55753589D02*
G75*
G03*
X109205521Y-55391581I-181050J180989D01*
G01*
X108300453Y-54848492D02*
G75*
G03*
X108300427Y-54486481I-181053J180992D01*
G01*
X109115043Y-55301043D02*
G75*
G03*
X108752981Y-55301019I-181043J-181057D01*
G01*
X110112062Y-56658687D02*
G75*
G03*
X110112038Y-56298089I-180262J180287D01*
G01*
X107912959Y-55598026D02*
G75*
G02*
X107912952Y-55235981I181041J181026D01*
G01*
X110564611Y-57111236D02*
G75*
G02*
X110203988Y-57111235I-180311J180336D01*
G01*
X107437977Y-53935104D02*
G75*
G03*
X107438019Y-53623938I-155577J155604D01*
G01*
X110112063Y-57019313D02*
G75*
G02*
X110112063Y-56658687I180337J180313D01*
G01*
X110925237Y-57111237D02*
G75*
G03*
X110564588Y-57111212I-180337J-180363D01*
G01*
X108818056Y-56503123D02*
G75*
G02*
X108818052Y-56141081I181044J181023D01*
G01*
X110020140Y-56206140D02*
G75*
G03*
X109658081Y-56206119I-181040J-181060D01*
G01*
X109270606Y-56593634D02*
G75*
G02*
X108908579Y-56593620I-181006J181034D01*
G01*
X107211705Y-54939197D02*
G75*
G02*
X106900536Y-54939238I-155605J155597D01*
G01*
X106822795Y-54861414D02*
G75*
G02*
X106822844Y-54550336I155605J155514D01*
G01*
%TO.N,Net-(IC1-DQ12)*%
X108740812Y-51603000D02*
X108415988Y-51603000D01*
X111200538Y-54062726D02*
X108740812Y-51603000D01*
%TO.N,Net-(IC1-DQ14)*%
X112129012Y-52015012D02*
X112501726Y-52387726D01*
X109628000Y-52015012D02*
X110141012Y-52015012D01*
X111135012Y-52941012D02*
X111135012Y-51339012D01*
X110851012Y-51055012D02*
X110709012Y-51055012D01*
X110425012Y-51339012D02*
X110425012Y-51731012D01*
X111845012Y-52299012D02*
X111845012Y-52941012D01*
X111561012Y-53225012D02*
X111419012Y-53225012D01*
X109628000Y-52015012D02*
X109215988Y-51603000D01*
X111419012Y-53225012D02*
G75*
G02*
X111134988Y-52941012I-12J284012D01*
G01*
X111845012Y-52941012D02*
G75*
G02*
X111561012Y-53225012I-284012J12D01*
G01*
X111135012Y-51339012D02*
G75*
G03*
X110851012Y-51054988I-284012J12D01*
G01*
X110425012Y-51731012D02*
G75*
G02*
X110141012Y-52015012I-284012J12D01*
G01*
X112129012Y-52015012D02*
G75*
G03*
X111845012Y-52299012I-12J-283988D01*
G01*
X110709012Y-51055012D02*
G75*
G03*
X110425012Y-51339012I-12J-283988D01*
G01*
%TO.N,Net-(IC1-CLK)*%
X110595493Y-48624000D02*
X110497493Y-48624000D01*
X108964324Y-48977674D02*
X108808000Y-49134000D01*
X112751493Y-48410000D02*
X112751493Y-48428000D01*
X108808000Y-49134000D02*
X108808000Y-50224000D01*
X111281493Y-48428000D02*
X111281493Y-48000000D01*
X111575493Y-48624000D02*
X111477493Y-48624000D01*
X112947493Y-48214000D02*
X114788000Y-48214000D01*
X109728000Y-48214000D02*
X110105493Y-48214000D01*
X112261493Y-48428000D02*
X112261493Y-48000000D01*
X108808000Y-50224000D02*
X108593000Y-50439000D01*
X110791493Y-48000000D02*
X110791493Y-48428000D01*
X109728000Y-48214000D02*
X108964324Y-48977674D01*
X108593000Y-50439000D02*
X106379988Y-50439000D01*
X111771493Y-48000000D02*
X111771493Y-48428000D01*
X106379988Y-50439000D02*
X106015988Y-50803000D01*
X110301493Y-48428000D02*
X110301493Y-48410000D01*
X112555493Y-48624000D02*
X112457493Y-48624000D01*
X111085493Y-47804000D02*
X110987493Y-47804000D01*
X112065493Y-47804000D02*
X111967493Y-47804000D01*
X110497493Y-48624000D02*
G75*
G02*
X110301500Y-48428000I7J196000D01*
G01*
X110301493Y-48410000D02*
G75*
G03*
X110105493Y-48214007I-195993J0D01*
G01*
X111771493Y-48428000D02*
G75*
G02*
X111575493Y-48623993I-195993J0D01*
G01*
X110791493Y-48428000D02*
G75*
G02*
X110595493Y-48623993I-195993J0D01*
G01*
X112751493Y-48428000D02*
G75*
G02*
X112555493Y-48623993I-195993J0D01*
G01*
X111967493Y-47804000D02*
G75*
G03*
X111771500Y-48000000I7J-196000D01*
G01*
X112457493Y-48624000D02*
G75*
G02*
X112261500Y-48428000I7J196000D01*
G01*
X111477493Y-48624000D02*
G75*
G02*
X111281500Y-48428000I7J196000D01*
G01*
X112947493Y-48214000D02*
G75*
G03*
X112751500Y-48410000I7J-196000D01*
G01*
X111281493Y-48000000D02*
G75*
G03*
X111085493Y-47804007I-195993J0D01*
G01*
X110987493Y-47804000D02*
G75*
G03*
X110791500Y-48000000I7J-196000D01*
G01*
X112261493Y-48000000D02*
G75*
G03*
X112065493Y-47804007I-195993J0D01*
G01*
%TD*%
M02*
