%TF.GenerationSoftware,KiCad,Pcbnew,9.0.6*%
%TF.CreationDate,2026-03-02T09:31:00+01:00*%
%TF.ProjectId,cansat-camera-pcb,63616e73-6174-42d6-9361-6d6572612d70,1.1*%
%TF.SameCoordinates,Original*%
%TF.FileFunction,Copper,L7,Inr*%
%TF.FilePolarity,Positive*%
%FSLAX46Y46*%
G04 Gerber Fmt 4.6, Leading zero omitted, Abs format (unit mm)*
G04 Created by KiCad (PCBNEW 9.0.6) date 2026-03-02 09:31:00*
%MOMM*%
%LPD*%
G01*
G04 APERTURE LIST*
%TA.AperFunction,ViaPad*%
%ADD10C,0.400000*%
%TD*%
%TA.AperFunction,ViaPad*%
%ADD11C,0.800000*%
%TD*%
%TA.AperFunction,ViaPad*%
%ADD12C,0.500000*%
%TD*%
%TA.AperFunction,ViaPad*%
%ADD13C,1.000000*%
%TD*%
%TA.AperFunction,ViaPad*%
%ADD14C,0.600000*%
%TD*%
%TA.AperFunction,ViaPad*%
%ADD15C,0.450000*%
%TD*%
%TA.AperFunction,ViaPad*%
%ADD16C,0.750000*%
%TD*%
G04 APERTURE END LIST*
D10*
%TO.N,GND*%
X107615988Y-46803000D03*
D11*
X123313500Y-78446000D03*
D12*
X97151000Y-36707000D03*
D13*
X86343000Y-67534000D03*
D12*
X91666000Y-53603000D03*
D14*
X113703000Y-51739000D03*
D12*
X92626000Y-48203000D03*
D11*
X89327999Y-61539000D03*
D12*
X106898000Y-73034000D03*
D11*
X119812000Y-72606000D03*
D12*
X118678488Y-46653000D03*
D10*
X110015988Y-50003000D03*
D11*
X103733000Y-82204000D03*
D14*
X83906000Y-49945000D03*
D11*
X89327999Y-53539000D03*
D12*
X92830988Y-42153000D03*
X98335988Y-60593000D03*
D11*
X97503000Y-76704000D03*
X111538000Y-82184000D03*
X93678300Y-73876500D03*
D14*
X124088500Y-74388500D03*
D13*
X86343000Y-59534000D03*
D12*
X105295988Y-36213000D03*
D13*
X82673000Y-67534000D03*
D12*
X119005988Y-39980000D03*
X93668000Y-57251000D03*
D14*
X120587000Y-74388500D03*
D12*
X94625988Y-46923000D03*
X107988000Y-73024000D03*
X120262000Y-39089000D03*
D14*
X104853000Y-41524000D03*
D12*
X119005988Y-52383000D03*
D14*
X126088000Y-45219000D03*
D10*
X103618000Y-51604000D03*
D12*
X112368000Y-46424000D03*
D11*
X94153000Y-82716500D03*
D13*
X82673000Y-59534000D03*
D12*
X98560000Y-36460000D03*
D13*
X127233000Y-63534000D03*
D11*
X103733000Y-83774000D03*
D12*
X88280000Y-48985000D03*
X109835988Y-60593000D03*
D11*
X117693000Y-82854000D03*
X112403000Y-76704000D03*
D12*
X100318000Y-48409000D03*
X101128000Y-82034000D03*
D10*
X108418000Y-50004000D03*
D12*
X94628000Y-59211000D03*
D13*
X123063000Y-65534000D03*
D14*
X111903000Y-67889000D03*
D11*
X117218000Y-74014000D03*
D13*
X86343000Y-69534000D03*
X123063000Y-63534000D03*
D12*
X104835988Y-60593000D03*
D11*
X108408000Y-82194000D03*
D12*
X94628000Y-54624000D03*
X115239000Y-62369000D03*
D11*
X108398000Y-83794000D03*
D12*
X100026000Y-36213000D03*
X116488000Y-60103000D03*
D11*
X119812000Y-78446000D03*
D12*
X110295988Y-36213000D03*
D11*
X111528000Y-83784000D03*
X123313500Y-72606000D03*
D13*
X86343000Y-57534000D03*
D12*
X101248000Y-50394000D03*
D13*
X127233000Y-65534000D03*
D10*
X110015988Y-51603000D03*
X106815988Y-50003000D03*
D13*
X82673000Y-69534000D03*
D10*
X109218000Y-46814000D03*
D12*
X101248000Y-46424000D03*
X112353000Y-43609000D03*
%TO.N,/RST*%
X97600000Y-51317000D03*
D10*
X88280000Y-49945000D03*
D12*
%TO.N,+3.3V*%
X94380988Y-42153000D03*
X94625988Y-47883000D03*
X104335988Y-36213000D03*
X97151000Y-37667000D03*
X105795988Y-60593000D03*
X119005988Y-51423000D03*
X119005988Y-39020000D03*
X116278488Y-46153000D03*
X93638000Y-56271000D03*
D11*
X89327999Y-59539000D03*
D12*
X116488000Y-59143000D03*
X110795988Y-60593000D03*
X94625988Y-53723000D03*
D11*
X121362000Y-78446000D03*
D12*
X109335988Y-36213000D03*
X99295988Y-60593000D03*
D11*
%TO.N,VCC*%
X89327999Y-67539000D03*
X125153000Y-67514000D03*
D12*
%TO.N,/SWCLK*%
X115565988Y-38849000D03*
%TO.N,/SWDIO*%
X116360000Y-41153000D03*
%TO.N,/LTE_reset*%
X127233000Y-58534000D03*
X116199000Y-56653000D03*
D14*
X127233000Y-61534000D03*
D12*
X121778000Y-56639000D03*
%TO.N,/LTE_pwrkey*%
X121703000Y-58464000D03*
D14*
X123063000Y-61534000D03*
D12*
X117478488Y-57649000D03*
X123063000Y-58534000D03*
D15*
%TO.N,/DCMI_VSYNC*%
X108065988Y-38890500D03*
D14*
%TO.N,/DCMI_D7*%
X104662100Y-69339000D03*
D15*
X97303488Y-41653000D03*
%TO.N,/DCMI_D4*%
X94153488Y-40653000D03*
%TO.N,/DCMI_D6*%
X95003488Y-41153000D03*
%TO.N,/DCMI_D0*%
X118628488Y-45653000D03*
X121123657Y-45643343D03*
%TO.N,/DCMI_D5*%
X111565988Y-38890500D03*
D14*
X107128000Y-68539000D03*
D10*
%TO.N,/FMC_SDCKE0*%
X97358000Y-53734000D03*
%TO.N,/FMC_A3*%
X92853000Y-45700000D03*
X103615988Y-46803000D03*
%TO.N,/FMC_A9*%
X106953000Y-61739000D03*
X105215988Y-50003000D03*
%TO.N,/FMC_D10*%
X111940500Y-62401500D03*
%TO.N,/FMC_D1*%
X114154274Y-46090274D03*
%TO.N,/FMC_A6*%
X104553000Y-57869000D03*
X104415988Y-50003000D03*
%TO.N,/FMC_D6*%
X109553000Y-57789000D03*
%TO.N,/FMC_D12*%
X115153000Y-56389000D03*
%TO.N,/FMC_A8*%
X104415988Y-51603000D03*
X104378000Y-55264000D03*
%TO.N,/FMC_NBL1*%
X106015988Y-51603000D03*
%TO.N,/FMC_D0*%
X116228000Y-51089000D03*
%TO.N,/FMC_SDNRAS*%
X104008000Y-57934000D03*
X106015988Y-46003000D03*
%TO.N,/FMC_D2*%
X109954274Y-42437726D03*
%TO.N,/FMC_D11*%
X113028000Y-60214000D03*
%TO.N,/FMC_SDNE0*%
X97358000Y-53174000D03*
X105215988Y-45203000D03*
%TO.N,/FMC_A1*%
X92828000Y-44639000D03*
X104415988Y-46003000D03*
%TO.N,/FMC_SDNWE*%
X97358000Y-52154000D03*
X106015988Y-45203000D03*
%TO.N,/FMC_D3*%
X108403001Y-42374000D03*
%TO.N,/FMC_A4*%
X103615988Y-50003000D03*
X92916743Y-46195923D03*
%TO.N,/FMC_A10*%
X104415988Y-45203000D03*
%TO.N,/FMC_A11*%
X105215988Y-50803000D03*
X108128000Y-62039000D03*
%TO.N,/FMC_D15*%
X113065500Y-51976500D03*
%TO.N,/FMC_D8*%
X111578000Y-61289000D03*
%TO.N,/FMC_SDNCAS*%
X107167153Y-43396798D03*
X106015988Y-46803000D03*
%TO.N,/FMC_A5*%
X103615988Y-50803000D03*
X93255501Y-46716501D03*
%TO.N,/FMC_D14*%
X112940500Y-52826500D03*
%TO.N,/FMC_D13*%
X118678000Y-55154000D03*
%TO.N,/FMC_A7*%
X106453385Y-61758674D03*
X104415988Y-50803000D03*
%TO.N,/FMC_A0*%
X104415988Y-46803000D03*
X97403000Y-44139000D03*
%TO.N,/FMC_D5*%
X108253000Y-56839000D03*
%TO.N,/FMC_D4*%
X106353000Y-55109000D03*
%TO.N,/FMC_NBL0*%
X106815988Y-46003000D03*
%TO.N,/FMC_D7*%
X110554274Y-54465274D03*
%TO.N,/FMC_A2*%
X103615988Y-46003000D03*
X92853000Y-45164000D03*
%TO.N,/FMC_SDCLK*%
X116308000Y-47254000D03*
D14*
%TO.N,/CAM_SCL*%
X108678000Y-77339000D03*
D12*
X113107000Y-63649000D03*
%TO.N,/CAM_SDA*%
X114138000Y-63649000D03*
D14*
X109703000Y-76514000D03*
D10*
%TO.N,/FMC_A12*%
X105215988Y-51603000D03*
X116303000Y-50164000D03*
%TO.N,/FMC_D9*%
X111748000Y-57934000D03*
%TO.N,/FMC_BS1*%
X116378000Y-48639000D03*
X105215988Y-46003000D03*
%TO.N,/FMC_BS0*%
X105215988Y-46803000D03*
X116325657Y-49136255D03*
D12*
%TO.N,+3.3VA*%
X112378000Y-47384000D03*
X112087000Y-63649000D03*
D14*
X113698000Y-49139000D03*
D11*
X115668000Y-74014000D03*
D14*
X103453000Y-41489000D03*
X117868000Y-78846500D03*
D11*
X105298000Y-83794000D03*
D16*
X110078000Y-65589000D03*
D11*
X124863500Y-78446000D03*
D12*
X112353000Y-44569000D03*
X101278000Y-48409000D03*
D14*
X94328000Y-78709000D03*
D10*
X105718000Y-78324000D03*
D11*
X97918000Y-82784000D03*
D12*
X101248000Y-47384000D03*
D11*
X92128300Y-73876500D03*
D12*
X115158000Y-63649000D03*
D10*
X105808000Y-73984000D03*
D12*
%TO.N,/I2C1_SDA*%
X101565988Y-38991000D03*
D14*
X82673000Y-51534000D03*
D12*
%TO.N,/I2C1_SCL*%
X102065988Y-36386000D03*
D14*
X82673000Y-53534000D03*
D12*
%TO.N,/DCMI_HSYNC*%
X99565988Y-57915500D03*
D14*
X106153000Y-65339000D03*
%TO.N,/USART2_TX*%
X96078000Y-57989000D03*
X89253000Y-63539000D03*
%TO.N,/USART2_RX*%
X89228000Y-65564000D03*
X97428000Y-59264000D03*
D10*
%TO.N,/camera/reset*%
X108198000Y-78324000D03*
%TO.N,/camera/pwdnb*%
X107968000Y-74024000D03*
D11*
%TO.N,CAMERA_2.8V*%
X109958000Y-83824000D03*
X116143000Y-82854000D03*
D16*
%TO.N,Net-(JP2-A)*%
X111928000Y-65589000D03*
D10*
%TO.N,Net-(J2-D9)*%
X105128000Y-78324000D03*
D14*
%TO.N,Net-(J2-PCLK)*%
X100553000Y-62039000D03*
D10*
%TO.N,Net-(J2-D7)*%
X103238000Y-78324000D03*
%TO.N,Net-(J2-D4)*%
X100103000Y-80504000D03*
%TO.N,Net-(J2-D5)*%
X101228000Y-80504000D03*
%TO.N,Net-(J2-D2)*%
X101718000Y-80863100D03*
%TO.N,Net-(J2-D3)*%
X100703000Y-78339000D03*
D14*
%TO.N,Net-(J2-HSYNC)*%
X106153000Y-67989000D03*
%TO.N,Net-(JP2-B)*%
X120278000Y-43714000D03*
D10*
%TO.N,Net-(IC1-DQ5)*%
X107615988Y-45203000D03*
X107801726Y-56387726D03*
%TO.N,Net-(IC1-DQ4)*%
X106353000Y-54469000D03*
X106459988Y-48914000D03*
%TO.N,Net-(IC1-DQ0)*%
X110015988Y-46003000D03*
X115588000Y-51089000D03*
%TO.N,Net-(IC1-DQ6)*%
X107615988Y-46003000D03*
X109553000Y-57144000D03*
%TO.N,Net-(IC1-DQ7)*%
X106815988Y-45203000D03*
X110115500Y-54026500D03*
%TD*%
%TA.AperFunction,Conductor*%
%TO.N,GND*%
G36*
X101433739Y-35754185D02*
G01*
X101479494Y-35806989D01*
X101489438Y-35876147D01*
X101469802Y-35927391D01*
X101400907Y-36030498D01*
X101400900Y-36030511D01*
X101344331Y-36167082D01*
X101344328Y-36167092D01*
X101315488Y-36312079D01*
X101315488Y-36312082D01*
X101315488Y-36459918D01*
X101315488Y-36459920D01*
X101315487Y-36459920D01*
X101344328Y-36604907D01*
X101344331Y-36604917D01*
X101400900Y-36741488D01*
X101400907Y-36741501D01*
X101483036Y-36864415D01*
X101483039Y-36864419D01*
X101587568Y-36968948D01*
X101587572Y-36968951D01*
X101710486Y-37051080D01*
X101710499Y-37051087D01*
X101847070Y-37107656D01*
X101847075Y-37107658D01*
X101847079Y-37107658D01*
X101847080Y-37107659D01*
X101992067Y-37136500D01*
X101992070Y-37136500D01*
X102139908Y-37136500D01*
X102237450Y-37117096D01*
X102284901Y-37107658D01*
X102421483Y-37051084D01*
X102544404Y-36968951D01*
X102648939Y-36864416D01*
X102731072Y-36741495D01*
X102787646Y-36604913D01*
X102816488Y-36459918D01*
X102816488Y-36312082D01*
X102816488Y-36312079D01*
X102787647Y-36167092D01*
X102787646Y-36167091D01*
X102787646Y-36167087D01*
X102776045Y-36139079D01*
X102731075Y-36030511D01*
X102731068Y-36030498D01*
X102662174Y-35927391D01*
X102641296Y-35860713D01*
X102659781Y-35793333D01*
X102711759Y-35746643D01*
X102765276Y-35734500D01*
X103536275Y-35734500D01*
X103603314Y-35754185D01*
X103649069Y-35806989D01*
X103659013Y-35876147D01*
X103650836Y-35905952D01*
X103614331Y-35994082D01*
X103614328Y-35994092D01*
X103585488Y-36139079D01*
X103585488Y-36139082D01*
X103585488Y-36286918D01*
X103585488Y-36286920D01*
X103585487Y-36286920D01*
X103614328Y-36431907D01*
X103614331Y-36431917D01*
X103670900Y-36568488D01*
X103670907Y-36568501D01*
X103753036Y-36691415D01*
X103753039Y-36691419D01*
X103857568Y-36795948D01*
X103857572Y-36795951D01*
X103980486Y-36878080D01*
X103980499Y-36878087D01*
X104117070Y-36934656D01*
X104117075Y-36934658D01*
X104117079Y-36934658D01*
X104117080Y-36934659D01*
X104262067Y-36963500D01*
X104262070Y-36963500D01*
X104409908Y-36963500D01*
X104507450Y-36944096D01*
X104554901Y-36934658D01*
X104691483Y-36878084D01*
X104814404Y-36795951D01*
X104918939Y-36691416D01*
X105001072Y-36568495D01*
X105057646Y-36431913D01*
X105067084Y-36384462D01*
X105086488Y-36286920D01*
X105086488Y-36139079D01*
X105057647Y-35994092D01*
X105057646Y-35994091D01*
X105057646Y-35994087D01*
X105030020Y-35927391D01*
X105021140Y-35905952D01*
X105013671Y-35836483D01*
X105044946Y-35774004D01*
X105105036Y-35738352D01*
X105135701Y-35734500D01*
X108536275Y-35734500D01*
X108603314Y-35754185D01*
X108649069Y-35806989D01*
X108659013Y-35876147D01*
X108650836Y-35905952D01*
X108614331Y-35994082D01*
X108614328Y-35994092D01*
X108585488Y-36139079D01*
X108585488Y-36139082D01*
X108585488Y-36286918D01*
X108585488Y-36286920D01*
X108585487Y-36286920D01*
X108614328Y-36431907D01*
X108614331Y-36431917D01*
X108670900Y-36568488D01*
X108670907Y-36568501D01*
X108753036Y-36691415D01*
X108753039Y-36691419D01*
X108857568Y-36795948D01*
X108857572Y-36795951D01*
X108980486Y-36878080D01*
X108980499Y-36878087D01*
X109117070Y-36934656D01*
X109117075Y-36934658D01*
X109117079Y-36934658D01*
X109117080Y-36934659D01*
X109262067Y-36963500D01*
X109262070Y-36963500D01*
X109409908Y-36963500D01*
X109507450Y-36944096D01*
X109554901Y-36934658D01*
X109691483Y-36878084D01*
X109814404Y-36795951D01*
X109918939Y-36691416D01*
X110001072Y-36568495D01*
X110057646Y-36431913D01*
X110067084Y-36384462D01*
X110086488Y-36286920D01*
X110086488Y-36139079D01*
X110057647Y-35994092D01*
X110057646Y-35994091D01*
X110057646Y-35994087D01*
X110030020Y-35927391D01*
X110021140Y-35905952D01*
X110013671Y-35836483D01*
X110044946Y-35774004D01*
X110105036Y-35738352D01*
X110135701Y-35734500D01*
X119558718Y-35734500D01*
X119623360Y-35752682D01*
X119689903Y-35793333D01*
X120378624Y-36214066D01*
X120382149Y-36216301D01*
X121193089Y-36750211D01*
X121196518Y-36752552D01*
X121985957Y-37311511D01*
X121988908Y-37313600D01*
X121992287Y-37316080D01*
X122551179Y-37740920D01*
X122765188Y-37903598D01*
X122768486Y-37906194D01*
X123419841Y-38437051D01*
X123521067Y-38519550D01*
X123524270Y-38522252D01*
X124145899Y-39064918D01*
X124255653Y-39160730D01*
X124258766Y-39163541D01*
X124816879Y-39685084D01*
X124968138Y-39826432D01*
X124971156Y-39829350D01*
X125657649Y-40515843D01*
X125660567Y-40518861D01*
X126312523Y-41216532D01*
X126323455Y-41228230D01*
X126326269Y-41231346D01*
X126566525Y-41506562D01*
X126939743Y-41934087D01*
X126964742Y-41962723D01*
X126967449Y-41965932D01*
X127580804Y-42718512D01*
X127583401Y-42721811D01*
X128170915Y-43494707D01*
X128173399Y-43498091D01*
X128734447Y-44290482D01*
X128736797Y-44293923D01*
X129254212Y-45079810D01*
X129270685Y-45104830D01*
X129272933Y-45108375D01*
X129663344Y-45747459D01*
X129729017Y-45854963D01*
X129734317Y-45863638D01*
X129752500Y-45928281D01*
X129752500Y-75139717D01*
X129734317Y-75204360D01*
X129272933Y-75959624D01*
X129270685Y-75963169D01*
X128736815Y-76774050D01*
X128734447Y-76777517D01*
X128173399Y-77569908D01*
X128170915Y-77573292D01*
X127583401Y-78346188D01*
X127580804Y-78349487D01*
X126967449Y-79102067D01*
X126964742Y-79105276D01*
X126326269Y-79836653D01*
X126323455Y-79839769D01*
X125660567Y-80549138D01*
X125657649Y-80552156D01*
X124971156Y-81238649D01*
X124968138Y-81241567D01*
X124258769Y-81904455D01*
X124255653Y-81907269D01*
X123524276Y-82545742D01*
X123521067Y-82548449D01*
X122768487Y-83161804D01*
X122765188Y-83164401D01*
X121992292Y-83751915D01*
X121988908Y-83754399D01*
X121196517Y-84315447D01*
X121193050Y-84317815D01*
X120382169Y-84851685D01*
X120378624Y-84853933D01*
X119623361Y-85315317D01*
X119558718Y-85333500D01*
X90347282Y-85333500D01*
X90282639Y-85315317D01*
X89527375Y-84853933D01*
X89523830Y-84851685D01*
X89285086Y-84694500D01*
X88712923Y-84317797D01*
X88709482Y-84315447D01*
X87917091Y-83754399D01*
X87913707Y-83751915D01*
X87852389Y-83705304D01*
X104397500Y-83705304D01*
X104397500Y-83882695D01*
X104432103Y-84056658D01*
X104432106Y-84056667D01*
X104499983Y-84220540D01*
X104499990Y-84220553D01*
X104598535Y-84368034D01*
X104598538Y-84368038D01*
X104723961Y-84493461D01*
X104723965Y-84493464D01*
X104871446Y-84592009D01*
X104871459Y-84592016D01*
X104943880Y-84622013D01*
X105035334Y-84659894D01*
X105035336Y-84659894D01*
X105035341Y-84659896D01*
X105209304Y-84694499D01*
X105209307Y-84694500D01*
X105209309Y-84694500D01*
X105386693Y-84694500D01*
X105386694Y-84694499D01*
X105444682Y-84682964D01*
X105560658Y-84659896D01*
X105560661Y-84659894D01*
X105560666Y-84659894D01*
X105724547Y-84592013D01*
X105872035Y-84493464D01*
X105997464Y-84368035D01*
X106096013Y-84220547D01*
X106163894Y-84056666D01*
X106198500Y-83882691D01*
X106198500Y-83735304D01*
X109057500Y-83735304D01*
X109057500Y-83912695D01*
X109092103Y-84086658D01*
X109092106Y-84086667D01*
X109159983Y-84250540D01*
X109159990Y-84250553D01*
X109258535Y-84398034D01*
X109258538Y-84398038D01*
X109383961Y-84523461D01*
X109383965Y-84523464D01*
X109531446Y-84622009D01*
X109531459Y-84622016D01*
X109654363Y-84672923D01*
X109695334Y-84689894D01*
X109695336Y-84689894D01*
X109695341Y-84689896D01*
X109869304Y-84724499D01*
X109869307Y-84724500D01*
X109869309Y-84724500D01*
X110046693Y-84724500D01*
X110046694Y-84724499D01*
X110104682Y-84712964D01*
X110220658Y-84689896D01*
X110220661Y-84689894D01*
X110220666Y-84689894D01*
X110384547Y-84622013D01*
X110532035Y-84523464D01*
X110657464Y-84398035D01*
X110756013Y-84250547D01*
X110823894Y-84086666D01*
X110829862Y-84056667D01*
X110858499Y-83912695D01*
X110858500Y-83912693D01*
X110858500Y-83735306D01*
X110858499Y-83735304D01*
X110823896Y-83561341D01*
X110823893Y-83561332D01*
X110756016Y-83397459D01*
X110756009Y-83397446D01*
X110657464Y-83249965D01*
X110657461Y-83249961D01*
X110532038Y-83124538D01*
X110532034Y-83124535D01*
X110384553Y-83025990D01*
X110384540Y-83025983D01*
X110220667Y-82958106D01*
X110220658Y-82958103D01*
X110046694Y-82923500D01*
X110046691Y-82923500D01*
X109869309Y-82923500D01*
X109869306Y-82923500D01*
X109695341Y-82958103D01*
X109695332Y-82958106D01*
X109531459Y-83025983D01*
X109531446Y-83025990D01*
X109383965Y-83124535D01*
X109383961Y-83124538D01*
X109258538Y-83249961D01*
X109258535Y-83249965D01*
X109159990Y-83397446D01*
X109159983Y-83397459D01*
X109092106Y-83561332D01*
X109092103Y-83561341D01*
X109057500Y-83735304D01*
X106198500Y-83735304D01*
X106198500Y-83705309D01*
X106198500Y-83705306D01*
X106198499Y-83705304D01*
X106163896Y-83531341D01*
X106163893Y-83531332D01*
X106096016Y-83367459D01*
X106096009Y-83367446D01*
X105997464Y-83219965D01*
X105997461Y-83219961D01*
X105872038Y-83094538D01*
X105872034Y-83094535D01*
X105724553Y-82995990D01*
X105724540Y-82995983D01*
X105560667Y-82928106D01*
X105560658Y-82928103D01*
X105386694Y-82893500D01*
X105386691Y-82893500D01*
X105209309Y-82893500D01*
X105209306Y-82893500D01*
X105035341Y-82928103D01*
X105035332Y-82928106D01*
X104871459Y-82995983D01*
X104871446Y-82995990D01*
X104723965Y-83094535D01*
X104723961Y-83094538D01*
X104598538Y-83219961D01*
X104598535Y-83219965D01*
X104499990Y-83367446D01*
X104499983Y-83367459D01*
X104432106Y-83531332D01*
X104432103Y-83531341D01*
X104397500Y-83705304D01*
X87852389Y-83705304D01*
X87140811Y-83164401D01*
X87137512Y-83161804D01*
X86675591Y-82785337D01*
X86565121Y-82695304D01*
X97017500Y-82695304D01*
X97017500Y-82872695D01*
X97052103Y-83046658D01*
X97052106Y-83046667D01*
X97119983Y-83210540D01*
X97119990Y-83210553D01*
X97218535Y-83358034D01*
X97218538Y-83358038D01*
X97343961Y-83483461D01*
X97343965Y-83483464D01*
X97491446Y-83582009D01*
X97491459Y-83582016D01*
X97614363Y-83632923D01*
X97655334Y-83649894D01*
X97655336Y-83649894D01*
X97655341Y-83649896D01*
X97829304Y-83684499D01*
X97829307Y-83684500D01*
X97829309Y-83684500D01*
X98006693Y-83684500D01*
X98006694Y-83684499D01*
X98064682Y-83672964D01*
X98180658Y-83649896D01*
X98180661Y-83649894D01*
X98180666Y-83649894D01*
X98279682Y-83608880D01*
X98338167Y-83584656D01*
X98338167Y-83584655D01*
X98344547Y-83582013D01*
X98492035Y-83483464D01*
X98617464Y-83358035D01*
X98716013Y-83210547D01*
X98783894Y-83046666D01*
X98788008Y-83025987D01*
X98818499Y-82872695D01*
X98818500Y-82872693D01*
X98818500Y-82765304D01*
X115242500Y-82765304D01*
X115242500Y-82942695D01*
X115277103Y-83116658D01*
X115277106Y-83116667D01*
X115344983Y-83280540D01*
X115344990Y-83280553D01*
X115443535Y-83428034D01*
X115443538Y-83428038D01*
X115568961Y-83553461D01*
X115568965Y-83553464D01*
X115716446Y-83652009D01*
X115716459Y-83652016D01*
X115794882Y-83684499D01*
X115880334Y-83719894D01*
X115880336Y-83719894D01*
X115880341Y-83719896D01*
X116054304Y-83754499D01*
X116054307Y-83754500D01*
X116054309Y-83754500D01*
X116231693Y-83754500D01*
X116231694Y-83754499D01*
X116289682Y-83742964D01*
X116405658Y-83719896D01*
X116405661Y-83719894D01*
X116405666Y-83719894D01*
X116569547Y-83652013D01*
X116717035Y-83553464D01*
X116842464Y-83428035D01*
X116941013Y-83280547D01*
X117008894Y-83116666D01*
X117043500Y-82942691D01*
X117043500Y-82765309D01*
X117043500Y-82765306D01*
X117043499Y-82765304D01*
X117008896Y-82591341D01*
X117008893Y-82591332D01*
X116941016Y-82427459D01*
X116941009Y-82427446D01*
X116842464Y-82279965D01*
X116842461Y-82279961D01*
X116717038Y-82154538D01*
X116717034Y-82154535D01*
X116569553Y-82055990D01*
X116569540Y-82055983D01*
X116405667Y-81988106D01*
X116405658Y-81988103D01*
X116231694Y-81953500D01*
X116231691Y-81953500D01*
X116054309Y-81953500D01*
X116054306Y-81953500D01*
X115880341Y-81988103D01*
X115880332Y-81988106D01*
X115716459Y-82055983D01*
X115716446Y-82055990D01*
X115568965Y-82154535D01*
X115568961Y-82154538D01*
X115443538Y-82279961D01*
X115443535Y-82279965D01*
X115344990Y-82427446D01*
X115344983Y-82427459D01*
X115277106Y-82591332D01*
X115277103Y-82591341D01*
X115242500Y-82765304D01*
X98818500Y-82765304D01*
X98818500Y-82695306D01*
X98818499Y-82695304D01*
X98783896Y-82521341D01*
X98783893Y-82521332D01*
X98716016Y-82357459D01*
X98716009Y-82357446D01*
X98617464Y-82209965D01*
X98617461Y-82209961D01*
X98492038Y-82084538D01*
X98492034Y-82084535D01*
X98344553Y-81985990D01*
X98344540Y-81985983D01*
X98180667Y-81918106D01*
X98180658Y-81918103D01*
X98006694Y-81883500D01*
X98006691Y-81883500D01*
X97829309Y-81883500D01*
X97829306Y-81883500D01*
X97655341Y-81918103D01*
X97655332Y-81918106D01*
X97491459Y-81985983D01*
X97491446Y-81985990D01*
X97343965Y-82084535D01*
X97343961Y-82084538D01*
X97218538Y-82209961D01*
X97218535Y-82209965D01*
X97119990Y-82357446D01*
X97119983Y-82357459D01*
X97052106Y-82521332D01*
X97052103Y-82521341D01*
X97017500Y-82695304D01*
X86565121Y-82695304D01*
X86384932Y-82548449D01*
X86381723Y-82545742D01*
X85650346Y-81907269D01*
X85647230Y-81904455D01*
X84937861Y-81241567D01*
X84934843Y-81238649D01*
X84269189Y-80572995D01*
X99402499Y-80572995D01*
X99429418Y-80708322D01*
X99429421Y-80708332D01*
X99482221Y-80835804D01*
X99482228Y-80835817D01*
X99558885Y-80950541D01*
X99558888Y-80950545D01*
X99656454Y-81048111D01*
X99656458Y-81048114D01*
X99771182Y-81124771D01*
X99771195Y-81124778D01*
X99898667Y-81177578D01*
X99898672Y-81177580D01*
X99898676Y-81177580D01*
X99898677Y-81177581D01*
X100034004Y-81204500D01*
X100034007Y-81204500D01*
X100171995Y-81204500D01*
X100286238Y-81181775D01*
X100307328Y-81177580D01*
X100434811Y-81124775D01*
X100549542Y-81048114D01*
X100549545Y-81048111D01*
X100577819Y-81019838D01*
X100639142Y-80986353D01*
X100708834Y-80991337D01*
X100753181Y-81019838D01*
X100781454Y-81048111D01*
X100781458Y-81048114D01*
X100896182Y-81124771D01*
X100896195Y-81124778D01*
X101023667Y-81177578D01*
X101023672Y-81177580D01*
X101044766Y-81181776D01*
X101106677Y-81214158D01*
X101123679Y-81234503D01*
X101173882Y-81309637D01*
X101173888Y-81309645D01*
X101271454Y-81407211D01*
X101271458Y-81407214D01*
X101386182Y-81483871D01*
X101386195Y-81483878D01*
X101513667Y-81536678D01*
X101513672Y-81536680D01*
X101513676Y-81536680D01*
X101513677Y-81536681D01*
X101649004Y-81563600D01*
X101649007Y-81563600D01*
X101786995Y-81563600D01*
X101878041Y-81545489D01*
X101922328Y-81536680D01*
X102049811Y-81483875D01*
X102164542Y-81407214D01*
X102262114Y-81309642D01*
X102338775Y-81194911D01*
X102391580Y-81067428D01*
X102414830Y-80950545D01*
X102418500Y-80932095D01*
X102418500Y-80794104D01*
X102391581Y-80658777D01*
X102391580Y-80658776D01*
X102391580Y-80658772D01*
X102356050Y-80572995D01*
X102338778Y-80531295D01*
X102338771Y-80531282D01*
X102262114Y-80416558D01*
X102262111Y-80416554D01*
X102164545Y-80318988D01*
X102164541Y-80318985D01*
X102049817Y-80242328D01*
X102049804Y-80242321D01*
X101922330Y-80189520D01*
X101922326Y-80189519D01*
X101901227Y-80185322D01*
X101839317Y-80152935D01*
X101822320Y-80132596D01*
X101772114Y-80057458D01*
X101772111Y-80057454D01*
X101674545Y-79959888D01*
X101674541Y-79959885D01*
X101559817Y-79883228D01*
X101559804Y-79883221D01*
X101432332Y-79830421D01*
X101432322Y-79830418D01*
X101296995Y-79803500D01*
X101296993Y-79803500D01*
X101159007Y-79803500D01*
X101159005Y-79803500D01*
X101023677Y-79830418D01*
X101023667Y-79830421D01*
X100896195Y-79883221D01*
X100896182Y-79883228D01*
X100781458Y-79959885D01*
X100781454Y-79959888D01*
X100753181Y-79988162D01*
X100691858Y-80021647D01*
X100622166Y-80016663D01*
X100577819Y-79988162D01*
X100549545Y-79959888D01*
X100549541Y-79959885D01*
X100434817Y-79883228D01*
X100434804Y-79883221D01*
X100307332Y-79830421D01*
X100307322Y-79830418D01*
X100171995Y-79803500D01*
X100171993Y-79803500D01*
X100034007Y-79803500D01*
X100034005Y-79803500D01*
X99898677Y-79830418D01*
X99898667Y-79830421D01*
X99771195Y-79883221D01*
X99771182Y-79883228D01*
X99656458Y-79959885D01*
X99656454Y-79959888D01*
X99558888Y-80057454D01*
X99558885Y-80057458D01*
X99482228Y-80172182D01*
X99482221Y-80172195D01*
X99429421Y-80299667D01*
X99429418Y-80299677D01*
X99402500Y-80435004D01*
X99402500Y-80435007D01*
X99402500Y-80572993D01*
X99402500Y-80572995D01*
X99402499Y-80572995D01*
X84269189Y-80572995D01*
X84248350Y-80552156D01*
X84245432Y-80549138D01*
X84212202Y-80513578D01*
X84121535Y-80416554D01*
X83582541Y-79839766D01*
X83579730Y-79836653D01*
X83414167Y-79646999D01*
X82941252Y-79105270D01*
X82938550Y-79102067D01*
X82920563Y-79079997D01*
X82553939Y-78630153D01*
X93527500Y-78630153D01*
X93527500Y-78787846D01*
X93558261Y-78942489D01*
X93558264Y-78942501D01*
X93618602Y-79088172D01*
X93618609Y-79088185D01*
X93706210Y-79219288D01*
X93706213Y-79219292D01*
X93817707Y-79330786D01*
X93817711Y-79330789D01*
X93948814Y-79418390D01*
X93948827Y-79418397D01*
X94069272Y-79468286D01*
X94094503Y-79478737D01*
X94249153Y-79509499D01*
X94249156Y-79509500D01*
X94249158Y-79509500D01*
X94406844Y-79509500D01*
X94406845Y-79509499D01*
X94561497Y-79478737D01*
X94707179Y-79418394D01*
X94838289Y-79330789D01*
X94949789Y-79219289D01*
X95037394Y-79088179D01*
X95097737Y-78942497D01*
X95128500Y-78787842D01*
X95128500Y-78630158D01*
X95128500Y-78630155D01*
X95128499Y-78630153D01*
X95109511Y-78534695D01*
X95097737Y-78475503D01*
X95097735Y-78475498D01*
X95069775Y-78407995D01*
X100002499Y-78407995D01*
X100029418Y-78543322D01*
X100029421Y-78543332D01*
X100082221Y-78670804D01*
X100082228Y-78670817D01*
X100158885Y-78785541D01*
X100158888Y-78785545D01*
X100256454Y-78883111D01*
X100256458Y-78883114D01*
X100371182Y-78959771D01*
X100371195Y-78959778D01*
X100462461Y-78997581D01*
X100498672Y-79012580D01*
X100498676Y-79012580D01*
X100498677Y-79012581D01*
X100634004Y-79039500D01*
X100634007Y-79039500D01*
X100771995Y-79039500D01*
X100869854Y-79020034D01*
X100907328Y-79012580D01*
X101034811Y-78959775D01*
X101149542Y-78883114D01*
X101247114Y-78785542D01*
X101323775Y-78670811D01*
X101376580Y-78543328D01*
X101391700Y-78467314D01*
X101403500Y-78407995D01*
X101403500Y-78392995D01*
X102537499Y-78392995D01*
X102564418Y-78528322D01*
X102564421Y-78528332D01*
X102617221Y-78655804D01*
X102617228Y-78655817D01*
X102693885Y-78770541D01*
X102693888Y-78770545D01*
X102791454Y-78868111D01*
X102791458Y-78868114D01*
X102906182Y-78944771D01*
X102906195Y-78944778D01*
X103033667Y-78997578D01*
X103033672Y-78997580D01*
X103033676Y-78997580D01*
X103033677Y-78997581D01*
X103169004Y-79024500D01*
X103169007Y-79024500D01*
X103306995Y-79024500D01*
X103398041Y-79006389D01*
X103442328Y-78997580D01*
X103569811Y-78944775D01*
X103684542Y-78868114D01*
X103782114Y-78770542D01*
X103858775Y-78655811D01*
X103911580Y-78528328D01*
X103923717Y-78467314D01*
X103938500Y-78392995D01*
X104427499Y-78392995D01*
X104454418Y-78528322D01*
X104454421Y-78528332D01*
X104507221Y-78655804D01*
X104507228Y-78655817D01*
X104583885Y-78770541D01*
X104583888Y-78770545D01*
X104681454Y-78868111D01*
X104681458Y-78868114D01*
X104796182Y-78944771D01*
X104796195Y-78944778D01*
X104923667Y-78997578D01*
X104923672Y-78997580D01*
X104923676Y-78997580D01*
X104923677Y-78997581D01*
X105059004Y-79024500D01*
X105059007Y-79024500D01*
X105196995Y-79024500D01*
X105288041Y-79006389D01*
X105332328Y-78997580D01*
X105375547Y-78979677D01*
X105445015Y-78972208D01*
X105470448Y-78979676D01*
X105513672Y-78997580D01*
X105513676Y-78997580D01*
X105513677Y-78997581D01*
X105649004Y-79024500D01*
X105649007Y-79024500D01*
X105786995Y-79024500D01*
X105878041Y-79006389D01*
X105922328Y-78997580D01*
X106049811Y-78944775D01*
X106164542Y-78868114D01*
X106262114Y-78770542D01*
X106338775Y-78655811D01*
X106391580Y-78528328D01*
X106403717Y-78467314D01*
X106418500Y-78392995D01*
X107497499Y-78392995D01*
X107524418Y-78528322D01*
X107524421Y-78528332D01*
X107577221Y-78655804D01*
X107577228Y-78655817D01*
X107653885Y-78770541D01*
X107653888Y-78770545D01*
X107751454Y-78868111D01*
X107751458Y-78868114D01*
X107866182Y-78944771D01*
X107866195Y-78944778D01*
X107993667Y-78997578D01*
X107993672Y-78997580D01*
X107993676Y-78997580D01*
X107993677Y-78997581D01*
X108129004Y-79024500D01*
X108129007Y-79024500D01*
X108266995Y-79024500D01*
X108358041Y-79006389D01*
X108402328Y-78997580D01*
X108529811Y-78944775D01*
X108644542Y-78868114D01*
X108742114Y-78770542D01*
X108744044Y-78767653D01*
X117067500Y-78767653D01*
X117067500Y-78925346D01*
X117098261Y-79079989D01*
X117098264Y-79080001D01*
X117158602Y-79225672D01*
X117158609Y-79225685D01*
X117246210Y-79356788D01*
X117246213Y-79356792D01*
X117357707Y-79468286D01*
X117357711Y-79468289D01*
X117488814Y-79555890D01*
X117488827Y-79555897D01*
X117634498Y-79616235D01*
X117634503Y-79616237D01*
X117789153Y-79646999D01*
X117789156Y-79647000D01*
X117789158Y-79647000D01*
X117946844Y-79647000D01*
X117946845Y-79646999D01*
X118101497Y-79616237D01*
X118247179Y-79555894D01*
X118378289Y-79468289D01*
X118489789Y-79356789D01*
X118577394Y-79225679D01*
X118637737Y-79079997D01*
X118668500Y-78925342D01*
X118668500Y-78767658D01*
X118668500Y-78767655D01*
X118668499Y-78767653D01*
X118646252Y-78655811D01*
X118637737Y-78613003D01*
X118608877Y-78543328D01*
X118577397Y-78467327D01*
X118577390Y-78467314D01*
X118545848Y-78420108D01*
X118503883Y-78357304D01*
X120461500Y-78357304D01*
X120461500Y-78534695D01*
X120496103Y-78708658D01*
X120496106Y-78708667D01*
X120563983Y-78872540D01*
X120563990Y-78872553D01*
X120662535Y-79020034D01*
X120662538Y-79020038D01*
X120787961Y-79145461D01*
X120787965Y-79145464D01*
X120935446Y-79244009D01*
X120935459Y-79244016D01*
X121058363Y-79294923D01*
X121099334Y-79311894D01*
X121099336Y-79311894D01*
X121099341Y-79311896D01*
X121273304Y-79346499D01*
X121273307Y-79346500D01*
X121273309Y-79346500D01*
X121450693Y-79346500D01*
X121450694Y-79346499D01*
X121529690Y-79330786D01*
X121624658Y-79311896D01*
X121624661Y-79311894D01*
X121624666Y-79311894D01*
X121788547Y-79244013D01*
X121936035Y-79145464D01*
X122061464Y-79020035D01*
X122160013Y-78872547D01*
X122161851Y-78868111D01*
X122195097Y-78787846D01*
X122227894Y-78708666D01*
X122235426Y-78670804D01*
X122262499Y-78534695D01*
X122262500Y-78534693D01*
X122262500Y-78357306D01*
X122262499Y-78357304D01*
X123963000Y-78357304D01*
X123963000Y-78534695D01*
X123997603Y-78708658D01*
X123997606Y-78708667D01*
X124065483Y-78872540D01*
X124065490Y-78872553D01*
X124164035Y-79020034D01*
X124164038Y-79020038D01*
X124289461Y-79145461D01*
X124289465Y-79145464D01*
X124436946Y-79244009D01*
X124436959Y-79244016D01*
X124559863Y-79294923D01*
X124600834Y-79311894D01*
X124600836Y-79311894D01*
X124600841Y-79311896D01*
X124774804Y-79346499D01*
X124774807Y-79346500D01*
X124774809Y-79346500D01*
X124952193Y-79346500D01*
X124952194Y-79346499D01*
X125031190Y-79330786D01*
X125126158Y-79311896D01*
X125126161Y-79311894D01*
X125126166Y-79311894D01*
X125290047Y-79244013D01*
X125437535Y-79145464D01*
X125562964Y-79020035D01*
X125661513Y-78872547D01*
X125663351Y-78868111D01*
X125696597Y-78787846D01*
X125729394Y-78708666D01*
X125736926Y-78670804D01*
X125763999Y-78534695D01*
X125764000Y-78534693D01*
X125764000Y-78357306D01*
X125763999Y-78357304D01*
X125729396Y-78183341D01*
X125729393Y-78183332D01*
X125661516Y-78019459D01*
X125661509Y-78019446D01*
X125562964Y-77871965D01*
X125562961Y-77871961D01*
X125437538Y-77746538D01*
X125437534Y-77746535D01*
X125290053Y-77647990D01*
X125290040Y-77647983D01*
X125126167Y-77580106D01*
X125126158Y-77580103D01*
X124952194Y-77545500D01*
X124952191Y-77545500D01*
X124774809Y-77545500D01*
X124774806Y-77545500D01*
X124600841Y-77580103D01*
X124600832Y-77580106D01*
X124436959Y-77647983D01*
X124436946Y-77647990D01*
X124289465Y-77746535D01*
X124289461Y-77746538D01*
X124164038Y-77871961D01*
X124164035Y-77871965D01*
X124065490Y-78019446D01*
X124065483Y-78019459D01*
X123997606Y-78183332D01*
X123997603Y-78183341D01*
X123963000Y-78357304D01*
X122262499Y-78357304D01*
X122227896Y-78183341D01*
X122227893Y-78183332D01*
X122160016Y-78019459D01*
X122160009Y-78019446D01*
X122061464Y-77871965D01*
X122061461Y-77871961D01*
X121936038Y-77746538D01*
X121936034Y-77746535D01*
X121788553Y-77647990D01*
X121788540Y-77647983D01*
X121624667Y-77580106D01*
X121624658Y-77580103D01*
X121450694Y-77545500D01*
X121450691Y-77545500D01*
X121273309Y-77545500D01*
X121273306Y-77545500D01*
X121099341Y-77580103D01*
X121099332Y-77580106D01*
X120935459Y-77647983D01*
X120935446Y-77647990D01*
X120787965Y-77746535D01*
X120787961Y-77746538D01*
X120662538Y-77871961D01*
X120662535Y-77871965D01*
X120563990Y-78019446D01*
X120563983Y-78019459D01*
X120496106Y-78183332D01*
X120496103Y-78183341D01*
X120461500Y-78357304D01*
X118503883Y-78357304D01*
X118489789Y-78336211D01*
X118489786Y-78336207D01*
X118378292Y-78224713D01*
X118378288Y-78224710D01*
X118247185Y-78137109D01*
X118247172Y-78137102D01*
X118101501Y-78076764D01*
X118101489Y-78076761D01*
X117946845Y-78046000D01*
X117946842Y-78046000D01*
X117789158Y-78046000D01*
X117789155Y-78046000D01*
X117634510Y-78076761D01*
X117634498Y-78076764D01*
X117488827Y-78137102D01*
X117488814Y-78137109D01*
X117357711Y-78224710D01*
X117357707Y-78224713D01*
X117246213Y-78336207D01*
X117246210Y-78336211D01*
X117158609Y-78467314D01*
X117158602Y-78467327D01*
X117098264Y-78612998D01*
X117098261Y-78613010D01*
X117067500Y-78767653D01*
X108744044Y-78767653D01*
X108783458Y-78708667D01*
X108794144Y-78692675D01*
X108818771Y-78655817D01*
X108818771Y-78655816D01*
X108818775Y-78655811D01*
X108871580Y-78528328D01*
X108883717Y-78467314D01*
X108898500Y-78392995D01*
X108898500Y-78255007D01*
X108898499Y-78255004D01*
X108892462Y-78224653D01*
X108898688Y-78155064D01*
X108941550Y-78099886D01*
X108966619Y-78085904D01*
X109057179Y-78048394D01*
X109188289Y-77960789D01*
X109299789Y-77849289D01*
X109387394Y-77718179D01*
X109447737Y-77572497D01*
X109478500Y-77417842D01*
X109478500Y-77417840D01*
X109479626Y-77412180D01*
X109512010Y-77350269D01*
X109572726Y-77315695D01*
X109617995Y-77314888D01*
X109618093Y-77313903D01*
X109624156Y-77314500D01*
X109624158Y-77314500D01*
X109781844Y-77314500D01*
X109781845Y-77314499D01*
X109936497Y-77283737D01*
X110082179Y-77223394D01*
X110213289Y-77135789D01*
X110324789Y-77024289D01*
X110412394Y-76893179D01*
X110472737Y-76747497D01*
X110503500Y-76592842D01*
X110503500Y-76435158D01*
X110503500Y-76435155D01*
X110503499Y-76435153D01*
X110472738Y-76280510D01*
X110472738Y-76280508D01*
X110472737Y-76280503D01*
X110472735Y-76280498D01*
X110412397Y-76134827D01*
X110412390Y-76134814D01*
X110324789Y-76003711D01*
X110324786Y-76003707D01*
X110213292Y-75892213D01*
X110213288Y-75892210D01*
X110082185Y-75804609D01*
X110082172Y-75804602D01*
X109936501Y-75744264D01*
X109936489Y-75744261D01*
X109781845Y-75713500D01*
X109781842Y-75713500D01*
X109624158Y-75713500D01*
X109624155Y-75713500D01*
X109469510Y-75744261D01*
X109469498Y-75744264D01*
X109323827Y-75804602D01*
X109323814Y-75804609D01*
X109192711Y-75892210D01*
X109192707Y-75892213D01*
X109081213Y-76003707D01*
X109081210Y-76003711D01*
X108993609Y-76134814D01*
X108993602Y-76134827D01*
X108933264Y-76280498D01*
X108933261Y-76280508D01*
X108901373Y-76440820D01*
X108868988Y-76502731D01*
X108808272Y-76537305D01*
X108763001Y-76538115D01*
X108762905Y-76539097D01*
X108756843Y-76538500D01*
X108756842Y-76538500D01*
X108599158Y-76538500D01*
X108599155Y-76538500D01*
X108444510Y-76569261D01*
X108444498Y-76569264D01*
X108298827Y-76629602D01*
X108298814Y-76629609D01*
X108167711Y-76717210D01*
X108167707Y-76717213D01*
X108056213Y-76828707D01*
X108056210Y-76828711D01*
X107968609Y-76959814D01*
X107968602Y-76959827D01*
X107908264Y-77105498D01*
X107908261Y-77105510D01*
X107877500Y-77260153D01*
X107877500Y-77417846D01*
X107909451Y-77578472D01*
X107907529Y-77578854D01*
X107908072Y-77639680D01*
X107870823Y-77698793D01*
X107857679Y-77708910D01*
X107751458Y-77779885D01*
X107751454Y-77779888D01*
X107653888Y-77877454D01*
X107653885Y-77877458D01*
X107577228Y-77992182D01*
X107577221Y-77992195D01*
X107524421Y-78119667D01*
X107524418Y-78119677D01*
X107497500Y-78255004D01*
X107497500Y-78255007D01*
X107497500Y-78392993D01*
X107497500Y-78392995D01*
X107497499Y-78392995D01*
X106418500Y-78392995D01*
X106418500Y-78255004D01*
X106391581Y-78119677D01*
X106391580Y-78119676D01*
X106391580Y-78119672D01*
X106387051Y-78108737D01*
X106338778Y-77992195D01*
X106338771Y-77992182D01*
X106262114Y-77877458D01*
X106262111Y-77877454D01*
X106164545Y-77779888D01*
X106164541Y-77779885D01*
X106049817Y-77703228D01*
X106049804Y-77703221D01*
X105922332Y-77650421D01*
X105922322Y-77650418D01*
X105786995Y-77623500D01*
X105786993Y-77623500D01*
X105649007Y-77623500D01*
X105649005Y-77623500D01*
X105513678Y-77650418D01*
X105513670Y-77650420D01*
X105470452Y-77668322D01*
X105400982Y-77675791D01*
X105375548Y-77668322D01*
X105332329Y-77650420D01*
X105332321Y-77650418D01*
X105196995Y-77623500D01*
X105196993Y-77623500D01*
X105059007Y-77623500D01*
X105059005Y-77623500D01*
X104923677Y-77650418D01*
X104923667Y-77650421D01*
X104796195Y-77703221D01*
X104796182Y-77703228D01*
X104681458Y-77779885D01*
X104681454Y-77779888D01*
X104583888Y-77877454D01*
X104583885Y-77877458D01*
X104507228Y-77992182D01*
X104507221Y-77992195D01*
X104454421Y-78119667D01*
X104454418Y-78119677D01*
X104427500Y-78255004D01*
X104427500Y-78255007D01*
X104427500Y-78392993D01*
X104427500Y-78392995D01*
X104427499Y-78392995D01*
X103938500Y-78392995D01*
X103938500Y-78255004D01*
X103911581Y-78119677D01*
X103911580Y-78119676D01*
X103911580Y-78119672D01*
X103907051Y-78108737D01*
X103858778Y-77992195D01*
X103858771Y-77992182D01*
X103782114Y-77877458D01*
X103782111Y-77877454D01*
X103684545Y-77779888D01*
X103684541Y-77779885D01*
X103569817Y-77703228D01*
X103569804Y-77703221D01*
X103442332Y-77650421D01*
X103442322Y-77650418D01*
X103306995Y-77623500D01*
X103306993Y-77623500D01*
X103169007Y-77623500D01*
X103169005Y-77623500D01*
X103033677Y-77650418D01*
X103033667Y-77650421D01*
X102906195Y-77703221D01*
X102906182Y-77703228D01*
X102791458Y-77779885D01*
X102791454Y-77779888D01*
X102693888Y-77877454D01*
X102693885Y-77877458D01*
X102617228Y-77992182D01*
X102617221Y-77992195D01*
X102564421Y-78119667D01*
X102564418Y-78119677D01*
X102537500Y-78255004D01*
X102537500Y-78255007D01*
X102537500Y-78392993D01*
X102537500Y-78392995D01*
X102537499Y-78392995D01*
X101403500Y-78392995D01*
X101403500Y-78270004D01*
X101403499Y-78270003D01*
X101400516Y-78255007D01*
X101376580Y-78134672D01*
X101369221Y-78116905D01*
X101323778Y-78007195D01*
X101323771Y-78007182D01*
X101247114Y-77892458D01*
X101247111Y-77892454D01*
X101149545Y-77794888D01*
X101149541Y-77794885D01*
X101034817Y-77718228D01*
X101034804Y-77718221D01*
X100907332Y-77665421D01*
X100907322Y-77665418D01*
X100771995Y-77638500D01*
X100771993Y-77638500D01*
X100634007Y-77638500D01*
X100634005Y-77638500D01*
X100498677Y-77665418D01*
X100498667Y-77665421D01*
X100371195Y-77718221D01*
X100371182Y-77718228D01*
X100256458Y-77794885D01*
X100256454Y-77794888D01*
X100158888Y-77892454D01*
X100158885Y-77892458D01*
X100082228Y-78007182D01*
X100082221Y-78007195D01*
X100029421Y-78134667D01*
X100029418Y-78134677D01*
X100002500Y-78270004D01*
X100002500Y-78270007D01*
X100002500Y-78407993D01*
X100002500Y-78407995D01*
X100002499Y-78407995D01*
X95069775Y-78407995D01*
X95037397Y-78329827D01*
X95037391Y-78329816D01*
X94949789Y-78198711D01*
X94949786Y-78198707D01*
X94838292Y-78087213D01*
X94838288Y-78087210D01*
X94707185Y-77999609D01*
X94707172Y-77999602D01*
X94561501Y-77939264D01*
X94561489Y-77939261D01*
X94406845Y-77908500D01*
X94406842Y-77908500D01*
X94249158Y-77908500D01*
X94249155Y-77908500D01*
X94094510Y-77939261D01*
X94094498Y-77939264D01*
X93948827Y-77999602D01*
X93948814Y-77999609D01*
X93817711Y-78087210D01*
X93817707Y-78087213D01*
X93706213Y-78198707D01*
X93706210Y-78198711D01*
X93618609Y-78329814D01*
X93618602Y-78329827D01*
X93558264Y-78475498D01*
X93558261Y-78475510D01*
X93527500Y-78630153D01*
X82553939Y-78630153D01*
X82325194Y-78349486D01*
X82322598Y-78346188D01*
X82210491Y-78198707D01*
X81735080Y-77573287D01*
X81732600Y-77569908D01*
X81425224Y-77135789D01*
X81171552Y-76777517D01*
X81169211Y-76774089D01*
X80635301Y-75963149D01*
X80633066Y-75959624D01*
X80171683Y-75204360D01*
X80153500Y-75139717D01*
X80153500Y-73787804D01*
X91227800Y-73787804D01*
X91227800Y-73965195D01*
X91262403Y-74139158D01*
X91262406Y-74139167D01*
X91330283Y-74303040D01*
X91330290Y-74303053D01*
X91428835Y-74450534D01*
X91428838Y-74450538D01*
X91554261Y-74575961D01*
X91554265Y-74575964D01*
X91701746Y-74674509D01*
X91701759Y-74674516D01*
X91795783Y-74713461D01*
X91865634Y-74742394D01*
X91865636Y-74742394D01*
X91865641Y-74742396D01*
X92039604Y-74776999D01*
X92039607Y-74777000D01*
X92039609Y-74777000D01*
X92216993Y-74777000D01*
X92216994Y-74776999D01*
X92274982Y-74765464D01*
X92390958Y-74742396D01*
X92390961Y-74742394D01*
X92390966Y-74742394D01*
X92554847Y-74674513D01*
X92702335Y-74575964D01*
X92827764Y-74450535D01*
X92926313Y-74303047D01*
X92994194Y-74139166D01*
X93001450Y-74102691D01*
X93011335Y-74052995D01*
X105107499Y-74052995D01*
X105134418Y-74188322D01*
X105134421Y-74188332D01*
X105187221Y-74315804D01*
X105187228Y-74315817D01*
X105263885Y-74430541D01*
X105263888Y-74430545D01*
X105361454Y-74528111D01*
X105361458Y-74528114D01*
X105476182Y-74604771D01*
X105476195Y-74604778D01*
X105572765Y-74644778D01*
X105603672Y-74657580D01*
X105603676Y-74657580D01*
X105603677Y-74657581D01*
X105739004Y-74684500D01*
X105739007Y-74684500D01*
X105876995Y-74684500D01*
X105968041Y-74666389D01*
X106012328Y-74657580D01*
X106139811Y-74604775D01*
X106254542Y-74528114D01*
X106352114Y-74430542D01*
X106428775Y-74315811D01*
X106481580Y-74188328D01*
X106498614Y-74102693D01*
X106500543Y-74092995D01*
X107267499Y-74092995D01*
X107294418Y-74228322D01*
X107294421Y-74228332D01*
X107347221Y-74355804D01*
X107347228Y-74355817D01*
X107423885Y-74470541D01*
X107423888Y-74470545D01*
X107521454Y-74568111D01*
X107521458Y-74568114D01*
X107636182Y-74644771D01*
X107636195Y-74644778D01*
X107707990Y-74674516D01*
X107763672Y-74697580D01*
X107763676Y-74697580D01*
X107763677Y-74697581D01*
X107899004Y-74724500D01*
X107899007Y-74724500D01*
X108036995Y-74724500D01*
X108128041Y-74706389D01*
X108172328Y-74697580D01*
X108299811Y-74644775D01*
X108414542Y-74568114D01*
X108512114Y-74470542D01*
X108588775Y-74355811D01*
X108641580Y-74228328D01*
X108650389Y-74184041D01*
X108668500Y-74092995D01*
X108668500Y-73955008D01*
X108668499Y-73955004D01*
X108662591Y-73925304D01*
X114767500Y-73925304D01*
X114767500Y-74102695D01*
X114802103Y-74276658D01*
X114802106Y-74276667D01*
X114869983Y-74440540D01*
X114869990Y-74440553D01*
X114968535Y-74588034D01*
X114968538Y-74588038D01*
X115093961Y-74713461D01*
X115093965Y-74713464D01*
X115241446Y-74812009D01*
X115241459Y-74812016D01*
X115364363Y-74862923D01*
X115405334Y-74879894D01*
X115405336Y-74879894D01*
X115405341Y-74879896D01*
X115579304Y-74914499D01*
X115579307Y-74914500D01*
X115579309Y-74914500D01*
X115756693Y-74914500D01*
X115756694Y-74914499D01*
X115814682Y-74902964D01*
X115930658Y-74879896D01*
X115930661Y-74879894D01*
X115930666Y-74879894D01*
X116094547Y-74812013D01*
X116242035Y-74713464D01*
X116367464Y-74588035D01*
X116466013Y-74440547D01*
X116533894Y-74276666D01*
X116543509Y-74228332D01*
X116568499Y-74102695D01*
X116568500Y-74102693D01*
X116568500Y-73925306D01*
X116568499Y-73925304D01*
X116533896Y-73751341D01*
X116533893Y-73751332D01*
X116466016Y-73587459D01*
X116466009Y-73587446D01*
X116367464Y-73439965D01*
X116367461Y-73439961D01*
X116242038Y-73314538D01*
X116242034Y-73314535D01*
X116094553Y-73215990D01*
X116094540Y-73215983D01*
X115930667Y-73148106D01*
X115930658Y-73148103D01*
X115756694Y-73113500D01*
X115756691Y-73113500D01*
X115579309Y-73113500D01*
X115579306Y-73113500D01*
X115405341Y-73148103D01*
X115405332Y-73148106D01*
X115241459Y-73215983D01*
X115241446Y-73215990D01*
X115093965Y-73314535D01*
X115093961Y-73314538D01*
X114968538Y-73439961D01*
X114968535Y-73439965D01*
X114869990Y-73587446D01*
X114869983Y-73587459D01*
X114802106Y-73751332D01*
X114802103Y-73751341D01*
X114767500Y-73925304D01*
X108662591Y-73925304D01*
X108660543Y-73915007D01*
X108641581Y-73819679D01*
X108641581Y-73819677D01*
X108641580Y-73819672D01*
X108625012Y-73779672D01*
X108588778Y-73692195D01*
X108588771Y-73692182D01*
X108512114Y-73577458D01*
X108512111Y-73577454D01*
X108414545Y-73479888D01*
X108414541Y-73479885D01*
X108299817Y-73403228D01*
X108299804Y-73403221D01*
X108172332Y-73350421D01*
X108172322Y-73350418D01*
X108036995Y-73323500D01*
X108036993Y-73323500D01*
X107899007Y-73323500D01*
X107899005Y-73323500D01*
X107763677Y-73350418D01*
X107763667Y-73350421D01*
X107636195Y-73403221D01*
X107636182Y-73403228D01*
X107521458Y-73479885D01*
X107521454Y-73479888D01*
X107423888Y-73577454D01*
X107423885Y-73577458D01*
X107347228Y-73692182D01*
X107347221Y-73692195D01*
X107294421Y-73819667D01*
X107294418Y-73819677D01*
X107267500Y-73955004D01*
X107267500Y-73955007D01*
X107267500Y-74092993D01*
X107267500Y-74092995D01*
X107267499Y-74092995D01*
X106500543Y-74092995D01*
X106508500Y-74052995D01*
X106508500Y-73915004D01*
X106481581Y-73779677D01*
X106481580Y-73779676D01*
X106481580Y-73779672D01*
X106445346Y-73692195D01*
X106428778Y-73652195D01*
X106428771Y-73652182D01*
X106352114Y-73537458D01*
X106352111Y-73537454D01*
X106254545Y-73439888D01*
X106254541Y-73439885D01*
X106139817Y-73363228D01*
X106139804Y-73363221D01*
X106012332Y-73310421D01*
X106012322Y-73310418D01*
X105876995Y-73283500D01*
X105876993Y-73283500D01*
X105739007Y-73283500D01*
X105739005Y-73283500D01*
X105603677Y-73310418D01*
X105603667Y-73310421D01*
X105476195Y-73363221D01*
X105476182Y-73363228D01*
X105361458Y-73439885D01*
X105361454Y-73439888D01*
X105263888Y-73537454D01*
X105263885Y-73537458D01*
X105187228Y-73652182D01*
X105187221Y-73652195D01*
X105134421Y-73779667D01*
X105134418Y-73779677D01*
X105107500Y-73915004D01*
X105107500Y-73915007D01*
X105107500Y-74052993D01*
X105107500Y-74052995D01*
X105107499Y-74052995D01*
X93011335Y-74052995D01*
X93028799Y-73965195D01*
X93028800Y-73965193D01*
X93028800Y-73787806D01*
X93028799Y-73787804D01*
X92994196Y-73613841D01*
X92994193Y-73613832D01*
X92926316Y-73449959D01*
X92926309Y-73449946D01*
X92827764Y-73302465D01*
X92827761Y-73302461D01*
X92702338Y-73177038D01*
X92702334Y-73177035D01*
X92554853Y-73078490D01*
X92554840Y-73078483D01*
X92390967Y-73010606D01*
X92390958Y-73010603D01*
X92216994Y-72976000D01*
X92216991Y-72976000D01*
X92039609Y-72976000D01*
X92039606Y-72976000D01*
X91865641Y-73010603D01*
X91865632Y-73010606D01*
X91701759Y-73078483D01*
X91701746Y-73078490D01*
X91554265Y-73177035D01*
X91554261Y-73177038D01*
X91428838Y-73302461D01*
X91428835Y-73302465D01*
X91330290Y-73449946D01*
X91330283Y-73449959D01*
X91262406Y-73613832D01*
X91262403Y-73613841D01*
X91227800Y-73787804D01*
X80153500Y-73787804D01*
X80153500Y-69260153D01*
X103861600Y-69260153D01*
X103861600Y-69417846D01*
X103892361Y-69572489D01*
X103892364Y-69572501D01*
X103952702Y-69718172D01*
X103952709Y-69718185D01*
X104040310Y-69849288D01*
X104040313Y-69849292D01*
X104151807Y-69960786D01*
X104151811Y-69960789D01*
X104282914Y-70048390D01*
X104282927Y-70048397D01*
X104428598Y-70108735D01*
X104428603Y-70108737D01*
X104583253Y-70139499D01*
X104583256Y-70139500D01*
X104583258Y-70139500D01*
X104740944Y-70139500D01*
X104740945Y-70139499D01*
X104895597Y-70108737D01*
X105041279Y-70048394D01*
X105172389Y-69960789D01*
X105283889Y-69849289D01*
X105371494Y-69718179D01*
X105431837Y-69572497D01*
X105462600Y-69417842D01*
X105462600Y-69260158D01*
X105462600Y-69260155D01*
X105462599Y-69260153D01*
X105442834Y-69160789D01*
X105431837Y-69105503D01*
X105408552Y-69049288D01*
X105371497Y-68959827D01*
X105371490Y-68959814D01*
X105283889Y-68828711D01*
X105283886Y-68828707D01*
X105172392Y-68717213D01*
X105172388Y-68717210D01*
X105041285Y-68629609D01*
X105041272Y-68629602D01*
X104895601Y-68569264D01*
X104895589Y-68569261D01*
X104740945Y-68538500D01*
X104740942Y-68538500D01*
X104583258Y-68538500D01*
X104583255Y-68538500D01*
X104428610Y-68569261D01*
X104428598Y-68569264D01*
X104282927Y-68629602D01*
X104282914Y-68629609D01*
X104151811Y-68717210D01*
X104151807Y-68717213D01*
X104040313Y-68828707D01*
X104040310Y-68828711D01*
X103952709Y-68959814D01*
X103952702Y-68959827D01*
X103892364Y-69105498D01*
X103892361Y-69105510D01*
X103861600Y-69260153D01*
X80153500Y-69260153D01*
X80153500Y-67450304D01*
X88427499Y-67450304D01*
X88427499Y-67627695D01*
X88462102Y-67801658D01*
X88462105Y-67801667D01*
X88529982Y-67965540D01*
X88529989Y-67965553D01*
X88628534Y-68113034D01*
X88628537Y-68113038D01*
X88753960Y-68238461D01*
X88753964Y-68238464D01*
X88901445Y-68337009D01*
X88901458Y-68337016D01*
X89004977Y-68379894D01*
X89065333Y-68404894D01*
X89065335Y-68404894D01*
X89065340Y-68404896D01*
X89239303Y-68439499D01*
X89239306Y-68439500D01*
X89239308Y-68439500D01*
X89416692Y-68439500D01*
X89416693Y-68439499D01*
X89474681Y-68427964D01*
X89590657Y-68404896D01*
X89590660Y-68404894D01*
X89590665Y-68404894D01*
X89754546Y-68337013D01*
X89902034Y-68238464D01*
X90027463Y-68113035D01*
X90126012Y-67965547D01*
X90126013Y-67965544D01*
X90126015Y-67965541D01*
X90148957Y-67910153D01*
X105352500Y-67910153D01*
X105352500Y-68067846D01*
X105383261Y-68222489D01*
X105383264Y-68222501D01*
X105443602Y-68368172D01*
X105443609Y-68368185D01*
X105531210Y-68499288D01*
X105531213Y-68499292D01*
X105642707Y-68610786D01*
X105642711Y-68610789D01*
X105773814Y-68698390D01*
X105773827Y-68698397D01*
X105819254Y-68717213D01*
X105919503Y-68758737D01*
X106074153Y-68789499D01*
X106074156Y-68789500D01*
X106074158Y-68789500D01*
X106231844Y-68789500D01*
X106242580Y-68787363D01*
X106255333Y-68784827D01*
X106324924Y-68791051D01*
X106380103Y-68833912D01*
X106394089Y-68858990D01*
X106418604Y-68918176D01*
X106418609Y-68918185D01*
X106506210Y-69049288D01*
X106506213Y-69049292D01*
X106617707Y-69160786D01*
X106617711Y-69160789D01*
X106748814Y-69248390D01*
X106748827Y-69248397D01*
X106894498Y-69308735D01*
X106894503Y-69308737D01*
X107049153Y-69339499D01*
X107049156Y-69339500D01*
X107049158Y-69339500D01*
X107206844Y-69339500D01*
X107206845Y-69339499D01*
X107361497Y-69308737D01*
X107507179Y-69248394D01*
X107638289Y-69160789D01*
X107749789Y-69049289D01*
X107837394Y-68918179D01*
X107897737Y-68772497D01*
X107928500Y-68617842D01*
X107928500Y-68460158D01*
X107928500Y-68460155D01*
X107928499Y-68460153D01*
X107919418Y-68414499D01*
X107897737Y-68305503D01*
X107863352Y-68222489D01*
X107837397Y-68159827D01*
X107837390Y-68159814D01*
X107749789Y-68028711D01*
X107749786Y-68028707D01*
X107638292Y-67917213D01*
X107638288Y-67917210D01*
X107507185Y-67829609D01*
X107507172Y-67829602D01*
X107361501Y-67769264D01*
X107361489Y-67769261D01*
X107206845Y-67738500D01*
X107206842Y-67738500D01*
X107049158Y-67738500D01*
X107049153Y-67738500D01*
X107025658Y-67743173D01*
X107001932Y-67741049D01*
X106978221Y-67743356D01*
X106967767Y-67737990D01*
X106956066Y-67736943D01*
X106937254Y-67722328D01*
X106916061Y-67711450D01*
X106907834Y-67699472D01*
X106900891Y-67694078D01*
X106894194Y-67683746D01*
X106890062Y-67676620D01*
X106862394Y-67609821D01*
X106774789Y-67478711D01*
X106774787Y-67478708D01*
X106721383Y-67425304D01*
X124252500Y-67425304D01*
X124252500Y-67602695D01*
X124287103Y-67776658D01*
X124287106Y-67776667D01*
X124354983Y-67940540D01*
X124354990Y-67940553D01*
X124453535Y-68088034D01*
X124453538Y-68088038D01*
X124578961Y-68213461D01*
X124578965Y-68213464D01*
X124726446Y-68312009D01*
X124726459Y-68312016D01*
X124786816Y-68337016D01*
X124890334Y-68379894D01*
X124890336Y-68379894D01*
X124890341Y-68379896D01*
X125064304Y-68414499D01*
X125064307Y-68414500D01*
X125064309Y-68414500D01*
X125241693Y-68414500D01*
X125241694Y-68414499D01*
X125299682Y-68402964D01*
X125415658Y-68379896D01*
X125415661Y-68379894D01*
X125415666Y-68379894D01*
X125579547Y-68312013D01*
X125727035Y-68213464D01*
X125852464Y-68088035D01*
X125951013Y-67940547D01*
X126018894Y-67776666D01*
X126020367Y-67769264D01*
X126048527Y-67627691D01*
X126053500Y-67602691D01*
X126053500Y-67425309D01*
X126053500Y-67425306D01*
X126053499Y-67425304D01*
X126018896Y-67251341D01*
X126018893Y-67251332D01*
X125951016Y-67087459D01*
X125951009Y-67087446D01*
X125852464Y-66939965D01*
X125852461Y-66939961D01*
X125727038Y-66814538D01*
X125727034Y-66814535D01*
X125579553Y-66715990D01*
X125579540Y-66715983D01*
X125415667Y-66648106D01*
X125415658Y-66648103D01*
X125241694Y-66613500D01*
X125241691Y-66613500D01*
X125064309Y-66613500D01*
X125064306Y-66613500D01*
X124890341Y-66648103D01*
X124890332Y-66648106D01*
X124726459Y-66715983D01*
X124726446Y-66715990D01*
X124578965Y-66814535D01*
X124578961Y-66814538D01*
X124453538Y-66939961D01*
X124453535Y-66939965D01*
X124354990Y-67087446D01*
X124354983Y-67087459D01*
X124287106Y-67251332D01*
X124287103Y-67251341D01*
X124252500Y-67425304D01*
X106721383Y-67425304D01*
X106663292Y-67367213D01*
X106663288Y-67367210D01*
X106532185Y-67279609D01*
X106532172Y-67279602D01*
X106386501Y-67219264D01*
X106386489Y-67219261D01*
X106231845Y-67188500D01*
X106231842Y-67188500D01*
X106074158Y-67188500D01*
X106074155Y-67188500D01*
X105919510Y-67219261D01*
X105919498Y-67219264D01*
X105773827Y-67279602D01*
X105773814Y-67279609D01*
X105642711Y-67367210D01*
X105642707Y-67367213D01*
X105531213Y-67478707D01*
X105531210Y-67478711D01*
X105443609Y-67609814D01*
X105443602Y-67609827D01*
X105383264Y-67755498D01*
X105383261Y-67755510D01*
X105352500Y-67910153D01*
X90148957Y-67910153D01*
X90171133Y-67856614D01*
X90193893Y-67801666D01*
X90198868Y-67776658D01*
X90228498Y-67627695D01*
X90228499Y-67627693D01*
X90228499Y-67450306D01*
X90228498Y-67450304D01*
X90193895Y-67276341D01*
X90193892Y-67276332D01*
X90126015Y-67112459D01*
X90126008Y-67112446D01*
X90027463Y-66964965D01*
X90027460Y-66964961D01*
X89902037Y-66839538D01*
X89902033Y-66839535D01*
X89754552Y-66740990D01*
X89754539Y-66740983D01*
X89590666Y-66673106D01*
X89590657Y-66673103D01*
X89416693Y-66638500D01*
X89416690Y-66638500D01*
X89239308Y-66638500D01*
X89239305Y-66638500D01*
X89065340Y-66673103D01*
X89065331Y-66673106D01*
X88901458Y-66740983D01*
X88901445Y-66740990D01*
X88753964Y-66839535D01*
X88753960Y-66839538D01*
X88628537Y-66964961D01*
X88628534Y-66964965D01*
X88529989Y-67112446D01*
X88529982Y-67112459D01*
X88462105Y-67276332D01*
X88462102Y-67276341D01*
X88427499Y-67450304D01*
X80153500Y-67450304D01*
X80153500Y-65485153D01*
X88427500Y-65485153D01*
X88427500Y-65642846D01*
X88458261Y-65797489D01*
X88458264Y-65797501D01*
X88518602Y-65943172D01*
X88518609Y-65943185D01*
X88606210Y-66074288D01*
X88606213Y-66074292D01*
X88717707Y-66185786D01*
X88717711Y-66185789D01*
X88848814Y-66273390D01*
X88848827Y-66273397D01*
X88994498Y-66333735D01*
X88994503Y-66333737D01*
X89149153Y-66364499D01*
X89149156Y-66364500D01*
X89149158Y-66364500D01*
X89306844Y-66364500D01*
X89306845Y-66364499D01*
X89461497Y-66333737D01*
X89607179Y-66273394D01*
X89738289Y-66185789D01*
X89849789Y-66074289D01*
X89937394Y-65943179D01*
X89997737Y-65797497D01*
X90028500Y-65642842D01*
X90028500Y-65485158D01*
X90028500Y-65485155D01*
X90028499Y-65485153D01*
X89998482Y-65334249D01*
X89997737Y-65330503D01*
X89968597Y-65260153D01*
X105352500Y-65260153D01*
X105352500Y-65417846D01*
X105383261Y-65572489D01*
X105383264Y-65572501D01*
X105443602Y-65718172D01*
X105443609Y-65718185D01*
X105531210Y-65849288D01*
X105531213Y-65849292D01*
X105642707Y-65960786D01*
X105642711Y-65960789D01*
X105773814Y-66048390D01*
X105773827Y-66048397D01*
X105919498Y-66108735D01*
X105919503Y-66108737D01*
X106074153Y-66139499D01*
X106074156Y-66139500D01*
X106074158Y-66139500D01*
X106231844Y-66139500D01*
X106231845Y-66139499D01*
X106386497Y-66108737D01*
X106532179Y-66048394D01*
X106663289Y-65960789D01*
X106774789Y-65849289D01*
X106862394Y-65718179D01*
X106922737Y-65572497D01*
X106927357Y-65549269D01*
X106936608Y-65502766D01*
X109202500Y-65502766D01*
X109202500Y-65675233D01*
X109236143Y-65844366D01*
X109236146Y-65844378D01*
X109302138Y-66003698D01*
X109302145Y-66003711D01*
X109397954Y-66147098D01*
X109397957Y-66147102D01*
X109519897Y-66269042D01*
X109519901Y-66269045D01*
X109663288Y-66364854D01*
X109663301Y-66364861D01*
X109822621Y-66430853D01*
X109822626Y-66430855D01*
X109991766Y-66464499D01*
X109991769Y-66464500D01*
X109991771Y-66464500D01*
X110164231Y-66464500D01*
X110164232Y-66464499D01*
X110333374Y-66430855D01*
X110492705Y-66364858D01*
X110636099Y-66269045D01*
X110758045Y-66147099D01*
X110853858Y-66003705D01*
X110888439Y-65920218D01*
X110932279Y-65865815D01*
X110998573Y-65843750D01*
X111066273Y-65861029D01*
X111113884Y-65912166D01*
X111117561Y-65920219D01*
X111152138Y-66003698D01*
X111152145Y-66003711D01*
X111247954Y-66147098D01*
X111247957Y-66147102D01*
X111369897Y-66269042D01*
X111369901Y-66269045D01*
X111513288Y-66364854D01*
X111513301Y-66364861D01*
X111672621Y-66430853D01*
X111672626Y-66430855D01*
X111841766Y-66464499D01*
X111841769Y-66464500D01*
X111841771Y-66464500D01*
X112014231Y-66464500D01*
X112014232Y-66464499D01*
X112183374Y-66430855D01*
X112342705Y-66364858D01*
X112486099Y-66269045D01*
X112608045Y-66147099D01*
X112703858Y-66003705D01*
X112769855Y-65844374D01*
X112803500Y-65675229D01*
X112803500Y-65502771D01*
X112803500Y-65502768D01*
X112803499Y-65502766D01*
X112786607Y-65417844D01*
X112769855Y-65333626D01*
X112762956Y-65316970D01*
X112703861Y-65174301D01*
X112703854Y-65174288D01*
X112608045Y-65030901D01*
X112608042Y-65030897D01*
X112486102Y-64908957D01*
X112486098Y-64908954D01*
X112342711Y-64813145D01*
X112342698Y-64813138D01*
X112183378Y-64747146D01*
X112183366Y-64747143D01*
X112014232Y-64713500D01*
X112014229Y-64713500D01*
X111841771Y-64713500D01*
X111841768Y-64713500D01*
X111672633Y-64747143D01*
X111672621Y-64747146D01*
X111513301Y-64813138D01*
X111513288Y-64813145D01*
X111369901Y-64908954D01*
X111369897Y-64908957D01*
X111247957Y-65030897D01*
X111247954Y-65030901D01*
X111152145Y-65174288D01*
X111152138Y-65174301D01*
X111117561Y-65257780D01*
X111073720Y-65312184D01*
X111007426Y-65334249D01*
X110939727Y-65316970D01*
X110892116Y-65265833D01*
X110888439Y-65257780D01*
X110853861Y-65174301D01*
X110853854Y-65174288D01*
X110758045Y-65030901D01*
X110758042Y-65030897D01*
X110636102Y-64908957D01*
X110636098Y-64908954D01*
X110492711Y-64813145D01*
X110492698Y-64813138D01*
X110333378Y-64747146D01*
X110333366Y-64747143D01*
X110164232Y-64713500D01*
X110164229Y-64713500D01*
X109991771Y-64713500D01*
X109991768Y-64713500D01*
X109822633Y-64747143D01*
X109822621Y-64747146D01*
X109663301Y-64813138D01*
X109663288Y-64813145D01*
X109519901Y-64908954D01*
X109519897Y-64908957D01*
X109397957Y-65030897D01*
X109397954Y-65030901D01*
X109302145Y-65174288D01*
X109302138Y-65174301D01*
X109236146Y-65333621D01*
X109236143Y-65333633D01*
X109202500Y-65502766D01*
X106936608Y-65502766D01*
X106942631Y-65472487D01*
X106942631Y-65472486D01*
X106953499Y-65417846D01*
X106953500Y-65417844D01*
X106953500Y-65260155D01*
X106953499Y-65260153D01*
X106953027Y-65257780D01*
X106922737Y-65105503D01*
X106891836Y-65030901D01*
X106862397Y-64959827D01*
X106862390Y-64959814D01*
X106774789Y-64828711D01*
X106774786Y-64828707D01*
X106663292Y-64717213D01*
X106663288Y-64717210D01*
X106532185Y-64629609D01*
X106532172Y-64629602D01*
X106386501Y-64569264D01*
X106386489Y-64569261D01*
X106231845Y-64538500D01*
X106231842Y-64538500D01*
X106074158Y-64538500D01*
X106074155Y-64538500D01*
X105919510Y-64569261D01*
X105919498Y-64569264D01*
X105773827Y-64629602D01*
X105773814Y-64629609D01*
X105642711Y-64717210D01*
X105642707Y-64717213D01*
X105531213Y-64828707D01*
X105531210Y-64828711D01*
X105443609Y-64959814D01*
X105443602Y-64959827D01*
X105383264Y-65105498D01*
X105383261Y-65105510D01*
X105352500Y-65260153D01*
X89968597Y-65260153D01*
X89957924Y-65234386D01*
X89937397Y-65184827D01*
X89937390Y-65184814D01*
X89849789Y-65053711D01*
X89849786Y-65053707D01*
X89738292Y-64942213D01*
X89738288Y-64942210D01*
X89607185Y-64854609D01*
X89607172Y-64854602D01*
X89461501Y-64794264D01*
X89461489Y-64794261D01*
X89306845Y-64763500D01*
X89306842Y-64763500D01*
X89149158Y-64763500D01*
X89149155Y-64763500D01*
X88994510Y-64794261D01*
X88994498Y-64794264D01*
X88848827Y-64854602D01*
X88848814Y-64854609D01*
X88717711Y-64942210D01*
X88717707Y-64942213D01*
X88606213Y-65053707D01*
X88606210Y-65053711D01*
X88518609Y-65184814D01*
X88518602Y-65184827D01*
X88458264Y-65330498D01*
X88458261Y-65330510D01*
X88427500Y-65485153D01*
X80153500Y-65485153D01*
X80153500Y-63460153D01*
X88452500Y-63460153D01*
X88452500Y-63617846D01*
X88483261Y-63772489D01*
X88483264Y-63772501D01*
X88543602Y-63918172D01*
X88543609Y-63918185D01*
X88631210Y-64049288D01*
X88631213Y-64049292D01*
X88742707Y-64160786D01*
X88742711Y-64160789D01*
X88873814Y-64248390D01*
X88873827Y-64248397D01*
X89019498Y-64308735D01*
X89019503Y-64308737D01*
X89174153Y-64339499D01*
X89174156Y-64339500D01*
X89174158Y-64339500D01*
X89331844Y-64339500D01*
X89331845Y-64339499D01*
X89486497Y-64308737D01*
X89632179Y-64248394D01*
X89763289Y-64160789D01*
X89874789Y-64049289D01*
X89962394Y-63918179D01*
X90022737Y-63772497D01*
X90053500Y-63617842D01*
X90053500Y-63460158D01*
X90053500Y-63460155D01*
X90053499Y-63460153D01*
X90022738Y-63305510D01*
X90022737Y-63305503D01*
X90017767Y-63293505D01*
X89962397Y-63159827D01*
X89962390Y-63159814D01*
X89874789Y-63028711D01*
X89874786Y-63028707D01*
X89763292Y-62917213D01*
X89763288Y-62917210D01*
X89632185Y-62829609D01*
X89632172Y-62829602D01*
X89486501Y-62769264D01*
X89486489Y-62769261D01*
X89331845Y-62738500D01*
X89331842Y-62738500D01*
X89174158Y-62738500D01*
X89174155Y-62738500D01*
X89019510Y-62769261D01*
X89019498Y-62769264D01*
X88873827Y-62829602D01*
X88873814Y-62829609D01*
X88742711Y-62917210D01*
X88742707Y-62917213D01*
X88631213Y-63028707D01*
X88631210Y-63028711D01*
X88543609Y-63159814D01*
X88543602Y-63159827D01*
X88483264Y-63305498D01*
X88483261Y-63305510D01*
X88452500Y-63460153D01*
X80153500Y-63460153D01*
X80153500Y-61960153D01*
X99752500Y-61960153D01*
X99752500Y-62117846D01*
X99783261Y-62272489D01*
X99783264Y-62272501D01*
X99843602Y-62418172D01*
X99843609Y-62418185D01*
X99931210Y-62549288D01*
X99931213Y-62549292D01*
X100042707Y-62660786D01*
X100042711Y-62660789D01*
X100173814Y-62748390D01*
X100173827Y-62748397D01*
X100319498Y-62808735D01*
X100319503Y-62808737D01*
X100474153Y-62839499D01*
X100474156Y-62839500D01*
X100474158Y-62839500D01*
X100631844Y-62839500D01*
X100631845Y-62839499D01*
X100786497Y-62808737D01*
X100932179Y-62748394D01*
X101063289Y-62660789D01*
X101174789Y-62549289D01*
X101262394Y-62418179D01*
X101322737Y-62272497D01*
X101353500Y-62117842D01*
X101353500Y-61960158D01*
X101353500Y-61960155D01*
X101353499Y-61960153D01*
X101343477Y-61909771D01*
X101322737Y-61805503D01*
X101293760Y-61735545D01*
X101262397Y-61659827D01*
X101262390Y-61659814D01*
X101174789Y-61528711D01*
X101174786Y-61528707D01*
X101063292Y-61417213D01*
X101063288Y-61417210D01*
X100932185Y-61329609D01*
X100932172Y-61329602D01*
X100786501Y-61269264D01*
X100786489Y-61269261D01*
X100631845Y-61238500D01*
X100631842Y-61238500D01*
X100474158Y-61238500D01*
X100474155Y-61238500D01*
X100319510Y-61269261D01*
X100319498Y-61269264D01*
X100173827Y-61329602D01*
X100173814Y-61329609D01*
X100042711Y-61417210D01*
X100042707Y-61417213D01*
X99931213Y-61528707D01*
X99931210Y-61528711D01*
X99843609Y-61659814D01*
X99843602Y-61659827D01*
X99783264Y-61805498D01*
X99783261Y-61805510D01*
X99752500Y-61960153D01*
X80153500Y-61960153D01*
X80153500Y-60666920D01*
X98545487Y-60666920D01*
X98574328Y-60811907D01*
X98574331Y-60811917D01*
X98630900Y-60948488D01*
X98630907Y-60948501D01*
X98713036Y-61071415D01*
X98713039Y-61071419D01*
X98817568Y-61175948D01*
X98817572Y-61175951D01*
X98940486Y-61258080D01*
X98940499Y-61258087D01*
X99077070Y-61314656D01*
X99077075Y-61314658D01*
X99077079Y-61314658D01*
X99077080Y-61314659D01*
X99222067Y-61343500D01*
X99222070Y-61343500D01*
X99369908Y-61343500D01*
X99467450Y-61324096D01*
X99514901Y-61314658D01*
X99651483Y-61258084D01*
X99774404Y-61175951D01*
X99878939Y-61071416D01*
X99961072Y-60948495D01*
X100017646Y-60811913D01*
X100028348Y-60758111D01*
X100046488Y-60666920D01*
X105045487Y-60666920D01*
X105074328Y-60811907D01*
X105074331Y-60811917D01*
X105130900Y-60948488D01*
X105130907Y-60948501D01*
X105213036Y-61071415D01*
X105213039Y-61071419D01*
X105317568Y-61175948D01*
X105317572Y-61175951D01*
X105440486Y-61258080D01*
X105440499Y-61258087D01*
X105577070Y-61314656D01*
X105577075Y-61314658D01*
X105577079Y-61314658D01*
X105577080Y-61314659D01*
X105707907Y-61340683D01*
X105769818Y-61373068D01*
X105804392Y-61433784D01*
X105800652Y-61503553D01*
X105798276Y-61509752D01*
X105779806Y-61554341D01*
X105779803Y-61554351D01*
X105752885Y-61689678D01*
X105752885Y-61689681D01*
X105752885Y-61827667D01*
X105752885Y-61827669D01*
X105752884Y-61827669D01*
X105779803Y-61962996D01*
X105779806Y-61963006D01*
X105832606Y-62090478D01*
X105832613Y-62090491D01*
X105909270Y-62205215D01*
X105909273Y-62205219D01*
X106006839Y-62302785D01*
X106006843Y-62302788D01*
X106121567Y-62379445D01*
X106121580Y-62379452D01*
X106215091Y-62418185D01*
X106249057Y-62432254D01*
X106249061Y-62432254D01*
X106249062Y-62432255D01*
X106384389Y-62459174D01*
X106384392Y-62459174D01*
X106522380Y-62459174D01*
X106657708Y-62432255D01*
X106657708Y-62432254D01*
X106657713Y-62432254D01*
X106684556Y-62421134D01*
X106754023Y-62413665D01*
X106756202Y-62414078D01*
X106884004Y-62439500D01*
X106884007Y-62439500D01*
X107021995Y-62439500D01*
X107129215Y-62418172D01*
X107157328Y-62412580D01*
X107284811Y-62359775D01*
X107330591Y-62329185D01*
X107397266Y-62308307D01*
X107464647Y-62326790D01*
X107502243Y-62366812D01*
X107503840Y-62365746D01*
X107583885Y-62485541D01*
X107583888Y-62485545D01*
X107681454Y-62583111D01*
X107681458Y-62583114D01*
X107796182Y-62659771D01*
X107796195Y-62659778D01*
X107923667Y-62712578D01*
X107923672Y-62712580D01*
X107923676Y-62712580D01*
X107923677Y-62712581D01*
X108059004Y-62739500D01*
X108059007Y-62739500D01*
X108196995Y-62739500D01*
X108288041Y-62721389D01*
X108332328Y-62712580D01*
X108459811Y-62659775D01*
X108574542Y-62583114D01*
X108672114Y-62485542D01*
X108748775Y-62370811D01*
X108750432Y-62366812D01*
X108801551Y-62243397D01*
X108801580Y-62243328D01*
X108818993Y-62155789D01*
X108828500Y-62107995D01*
X108828500Y-61970004D01*
X108801581Y-61834677D01*
X108801580Y-61834676D01*
X108801580Y-61834672D01*
X108798679Y-61827669D01*
X108748778Y-61707195D01*
X108748771Y-61707182D01*
X108672114Y-61592458D01*
X108672111Y-61592454D01*
X108574545Y-61494888D01*
X108574541Y-61494885D01*
X108459817Y-61418228D01*
X108459804Y-61418221D01*
X108332332Y-61365421D01*
X108332322Y-61365418D01*
X108196995Y-61338500D01*
X108196993Y-61338500D01*
X108059007Y-61338500D01*
X108059005Y-61338500D01*
X107923677Y-61365418D01*
X107923667Y-61365421D01*
X107796195Y-61418221D01*
X107796177Y-61418231D01*
X107750407Y-61448814D01*
X107683730Y-61469692D01*
X107616350Y-61451207D01*
X107578760Y-61411184D01*
X107577160Y-61412254D01*
X107497114Y-61292458D01*
X107497111Y-61292454D01*
X107399545Y-61194888D01*
X107399541Y-61194885D01*
X107284817Y-61118228D01*
X107284804Y-61118221D01*
X107157332Y-61065421D01*
X107157322Y-61065418D01*
X107021995Y-61038500D01*
X107021993Y-61038500D01*
X106884007Y-61038500D01*
X106884005Y-61038500D01*
X106748678Y-61065418D01*
X106748675Y-61065419D01*
X106748673Y-61065419D01*
X106748672Y-61065420D01*
X106734196Y-61071416D01*
X106721823Y-61076541D01*
X106703020Y-61078561D01*
X106685426Y-61085484D01*
X106654189Y-61083809D01*
X106652354Y-61084007D01*
X106650183Y-61083595D01*
X106571957Y-61068035D01*
X106510046Y-61035650D01*
X106475472Y-60974935D01*
X106479211Y-60905165D01*
X106481575Y-60898995D01*
X106517646Y-60811913D01*
X106528348Y-60758111D01*
X106546488Y-60666920D01*
X110045487Y-60666920D01*
X110074328Y-60811907D01*
X110074331Y-60811917D01*
X110130900Y-60948488D01*
X110130907Y-60948501D01*
X110213036Y-61071415D01*
X110213039Y-61071419D01*
X110317568Y-61175948D01*
X110317572Y-61175951D01*
X110440486Y-61258080D01*
X110440499Y-61258087D01*
X110577070Y-61314656D01*
X110577075Y-61314658D01*
X110577079Y-61314658D01*
X110577080Y-61314659D01*
X110722067Y-61343500D01*
X110772853Y-61343500D01*
X110839892Y-61363185D01*
X110885647Y-61415989D01*
X110894470Y-61443309D01*
X110904418Y-61493320D01*
X110904421Y-61493332D01*
X110957221Y-61620804D01*
X110957228Y-61620817D01*
X111033885Y-61735541D01*
X111033888Y-61735545D01*
X111131454Y-61833111D01*
X111131458Y-61833114D01*
X111246182Y-61909771D01*
X111246189Y-61909775D01*
X111250931Y-61911739D01*
X111305335Y-61955579D01*
X111327401Y-62021873D01*
X111318041Y-62073753D01*
X111266921Y-62197167D01*
X111266918Y-62197177D01*
X111240000Y-62332504D01*
X111240000Y-62332507D01*
X111240000Y-62470493D01*
X111240000Y-62470495D01*
X111239999Y-62470495D01*
X111266918Y-62605822D01*
X111266921Y-62605832D01*
X111319721Y-62733304D01*
X111319728Y-62733317D01*
X111396385Y-62848041D01*
X111396388Y-62848045D01*
X111493956Y-62945613D01*
X111500450Y-62949952D01*
X111509233Y-62955821D01*
X111554040Y-63009431D01*
X111562749Y-63078756D01*
X111532596Y-63141784D01*
X111528028Y-63146604D01*
X111504048Y-63170584D01*
X111421919Y-63293498D01*
X111421912Y-63293511D01*
X111365343Y-63430082D01*
X111365340Y-63430092D01*
X111336500Y-63575079D01*
X111336500Y-63575082D01*
X111336500Y-63722918D01*
X111336500Y-63722920D01*
X111336499Y-63722920D01*
X111365340Y-63867907D01*
X111365343Y-63867917D01*
X111421912Y-64004488D01*
X111421919Y-64004501D01*
X111504048Y-64127415D01*
X111504051Y-64127419D01*
X111608580Y-64231948D01*
X111608584Y-64231951D01*
X111731498Y-64314080D01*
X111731511Y-64314087D01*
X111868082Y-64370656D01*
X111868087Y-64370658D01*
X111868091Y-64370658D01*
X111868092Y-64370659D01*
X112013079Y-64399500D01*
X112013082Y-64399500D01*
X112160920Y-64399500D01*
X112258462Y-64380096D01*
X112305913Y-64370658D01*
X112442495Y-64314084D01*
X112528109Y-64256879D01*
X112594787Y-64236001D01*
X112662167Y-64254485D01*
X112665891Y-64256879D01*
X112751498Y-64314080D01*
X112751511Y-64314087D01*
X112888082Y-64370656D01*
X112888087Y-64370658D01*
X112888091Y-64370658D01*
X112888092Y-64370659D01*
X113033079Y-64399500D01*
X113033082Y-64399500D01*
X113180920Y-64399500D01*
X113278462Y-64380096D01*
X113325913Y-64370658D01*
X113462495Y-64314084D01*
X113548109Y-64256879D01*
X113553609Y-64253204D01*
X113620287Y-64232326D01*
X113687667Y-64250810D01*
X113691391Y-64253204D01*
X113782498Y-64314080D01*
X113782511Y-64314087D01*
X113919082Y-64370656D01*
X113919087Y-64370658D01*
X113919091Y-64370658D01*
X113919092Y-64370659D01*
X114064079Y-64399500D01*
X114064082Y-64399500D01*
X114211920Y-64399500D01*
X114309462Y-64380096D01*
X114356913Y-64370658D01*
X114493495Y-64314084D01*
X114579109Y-64256879D01*
X114645787Y-64236001D01*
X114713167Y-64254485D01*
X114716891Y-64256879D01*
X114802498Y-64314080D01*
X114802511Y-64314087D01*
X114939082Y-64370656D01*
X114939087Y-64370658D01*
X114939091Y-64370658D01*
X114939092Y-64370659D01*
X115084079Y-64399500D01*
X115084082Y-64399500D01*
X115231920Y-64399500D01*
X115329462Y-64380096D01*
X115376913Y-64370658D01*
X115513495Y-64314084D01*
X115636416Y-64231951D01*
X115740951Y-64127416D01*
X115823084Y-64004495D01*
X115879658Y-63867913D01*
X115898638Y-63772497D01*
X115908500Y-63722920D01*
X115908500Y-63575079D01*
X115879659Y-63430092D01*
X115879658Y-63430091D01*
X115879658Y-63430087D01*
X115828052Y-63305498D01*
X115823087Y-63293511D01*
X115823080Y-63293498D01*
X115740951Y-63170584D01*
X115740948Y-63170580D01*
X115636419Y-63066051D01*
X115636415Y-63066048D01*
X115513501Y-62983919D01*
X115513488Y-62983912D01*
X115376917Y-62927343D01*
X115376907Y-62927340D01*
X115231920Y-62898500D01*
X115231918Y-62898500D01*
X115084082Y-62898500D01*
X115084080Y-62898500D01*
X114939092Y-62927340D01*
X114939082Y-62927343D01*
X114802511Y-62983912D01*
X114802500Y-62983918D01*
X114716890Y-63041121D01*
X114650213Y-63061998D01*
X114582833Y-63043513D01*
X114579110Y-63041121D01*
X114493499Y-62983918D01*
X114493488Y-62983912D01*
X114356917Y-62927343D01*
X114356907Y-62927340D01*
X114211920Y-62898500D01*
X114211918Y-62898500D01*
X114064082Y-62898500D01*
X114064080Y-62898500D01*
X113919092Y-62927340D01*
X113919082Y-62927343D01*
X113782511Y-62983912D01*
X113782500Y-62983918D01*
X113691390Y-63044796D01*
X113624713Y-63065673D01*
X113557333Y-63047188D01*
X113553610Y-63044796D01*
X113462499Y-62983918D01*
X113462488Y-62983912D01*
X113325917Y-62927343D01*
X113325907Y-62927340D01*
X113180920Y-62898500D01*
X113180918Y-62898500D01*
X113033082Y-62898500D01*
X113033080Y-62898500D01*
X112888092Y-62927340D01*
X112888082Y-62927343D01*
X112751511Y-62983912D01*
X112751500Y-62983918D01*
X112665889Y-63041121D01*
X112646811Y-63047094D01*
X112629807Y-63057599D01*
X112614152Y-63057319D01*
X112599211Y-63061998D01*
X112579933Y-63056709D01*
X112559949Y-63056353D01*
X112534827Y-63044334D01*
X112531831Y-63043513D01*
X112528111Y-63041122D01*
X112511438Y-63029982D01*
X112466631Y-62976371D01*
X112457922Y-62907046D01*
X112482027Y-62853639D01*
X112481230Y-62853107D01*
X112484429Y-62848318D01*
X112484483Y-62848200D01*
X112484603Y-62848052D01*
X112484614Y-62848042D01*
X112561275Y-62733311D01*
X112614080Y-62605828D01*
X112641000Y-62470493D01*
X112641000Y-62332507D01*
X112641000Y-62332504D01*
X112614081Y-62197177D01*
X112614080Y-62197176D01*
X112614080Y-62197172D01*
X112596939Y-62155789D01*
X112561278Y-62069695D01*
X112561271Y-62069682D01*
X112484614Y-61954958D01*
X112484611Y-61954954D01*
X112387045Y-61857388D01*
X112387041Y-61857385D01*
X112272317Y-61780728D01*
X112272303Y-61780721D01*
X112267560Y-61778756D01*
X112263968Y-61775861D01*
X112259427Y-61775038D01*
X112237015Y-61754138D01*
X112213159Y-61734911D01*
X112211701Y-61730532D01*
X112208328Y-61727386D01*
X112200774Y-61697694D01*
X112191099Y-61668616D01*
X112191923Y-61662898D01*
X112191103Y-61659673D01*
X112194903Y-61642235D01*
X112197397Y-61624945D01*
X112198783Y-61620791D01*
X112251580Y-61493328D01*
X112259174Y-61455153D01*
X122262500Y-61455153D01*
X122262500Y-61612846D01*
X122293261Y-61767489D01*
X122293264Y-61767501D01*
X122353602Y-61913172D01*
X122353609Y-61913185D01*
X122441210Y-62044288D01*
X122441213Y-62044292D01*
X122552707Y-62155786D01*
X122552711Y-62155789D01*
X122683814Y-62243390D01*
X122683827Y-62243397D01*
X122827212Y-62302788D01*
X122829503Y-62303737D01*
X122974139Y-62332507D01*
X122984153Y-62334499D01*
X122984156Y-62334500D01*
X122984158Y-62334500D01*
X123141844Y-62334500D01*
X123141845Y-62334499D01*
X123296497Y-62303737D01*
X123442179Y-62243394D01*
X123573289Y-62155789D01*
X123684789Y-62044289D01*
X123772394Y-61913179D01*
X123772991Y-61911739D01*
X123807814Y-61827667D01*
X123832737Y-61767497D01*
X123863500Y-61612842D01*
X123863500Y-61455158D01*
X123863500Y-61455155D01*
X123863499Y-61455153D01*
X126432500Y-61455153D01*
X126432500Y-61612846D01*
X126463261Y-61767489D01*
X126463264Y-61767501D01*
X126523602Y-61913172D01*
X126523609Y-61913185D01*
X126611210Y-62044288D01*
X126611213Y-62044292D01*
X126722707Y-62155786D01*
X126722711Y-62155789D01*
X126853814Y-62243390D01*
X126853827Y-62243397D01*
X126997212Y-62302788D01*
X126999503Y-62303737D01*
X127144139Y-62332507D01*
X127154153Y-62334499D01*
X127154156Y-62334500D01*
X127154158Y-62334500D01*
X127311844Y-62334500D01*
X127311845Y-62334499D01*
X127466497Y-62303737D01*
X127612179Y-62243394D01*
X127743289Y-62155789D01*
X127854789Y-62044289D01*
X127942394Y-61913179D01*
X127942991Y-61911739D01*
X127977814Y-61827667D01*
X128002737Y-61767497D01*
X128033500Y-61612842D01*
X128033500Y-61455158D01*
X128033500Y-61455155D01*
X128033499Y-61455153D01*
X128026154Y-61418228D01*
X128002737Y-61300503D01*
X127999403Y-61292454D01*
X127942397Y-61154827D01*
X127942390Y-61154814D01*
X127854789Y-61023711D01*
X127854786Y-61023707D01*
X127743292Y-60912213D01*
X127743288Y-60912210D01*
X127612185Y-60824609D01*
X127612172Y-60824602D01*
X127466501Y-60764264D01*
X127466489Y-60764261D01*
X127311845Y-60733500D01*
X127311842Y-60733500D01*
X127154158Y-60733500D01*
X127154155Y-60733500D01*
X126999510Y-60764261D01*
X126999498Y-60764264D01*
X126853827Y-60824602D01*
X126853814Y-60824609D01*
X126722711Y-60912210D01*
X126722707Y-60912213D01*
X126611213Y-61023707D01*
X126611210Y-61023711D01*
X126523609Y-61154814D01*
X126523602Y-61154827D01*
X126463264Y-61300498D01*
X126463261Y-61300510D01*
X126432500Y-61455153D01*
X123863499Y-61455153D01*
X123856154Y-61418228D01*
X123832737Y-61300503D01*
X123829403Y-61292454D01*
X123772397Y-61154827D01*
X123772390Y-61154814D01*
X123684789Y-61023711D01*
X123684786Y-61023707D01*
X123573292Y-60912213D01*
X123573288Y-60912210D01*
X123442185Y-60824609D01*
X123442172Y-60824602D01*
X123296501Y-60764264D01*
X123296489Y-60764261D01*
X123141845Y-60733500D01*
X123141842Y-60733500D01*
X122984158Y-60733500D01*
X122984155Y-60733500D01*
X122829510Y-60764261D01*
X122829498Y-60764264D01*
X122683827Y-60824602D01*
X122683814Y-60824609D01*
X122552711Y-60912210D01*
X122552707Y-60912213D01*
X122441213Y-61023707D01*
X122441210Y-61023711D01*
X122353609Y-61154814D01*
X122353602Y-61154827D01*
X122293264Y-61300498D01*
X122293261Y-61300510D01*
X122262500Y-61455153D01*
X112259174Y-61455153D01*
X112278500Y-61357993D01*
X112278500Y-61220007D01*
X112278500Y-61220004D01*
X112251581Y-61084677D01*
X112251580Y-61084676D01*
X112251580Y-61084672D01*
X112248212Y-61076541D01*
X112198778Y-60957195D01*
X112198771Y-60957182D01*
X112122114Y-60842458D01*
X112122111Y-60842454D01*
X112024545Y-60744888D01*
X112024541Y-60744885D01*
X111909817Y-60668228D01*
X111909804Y-60668221D01*
X111782332Y-60615421D01*
X111782322Y-60615418D01*
X111641018Y-60587311D01*
X111641416Y-60585306D01*
X111585285Y-60562633D01*
X111544934Y-60505594D01*
X111540622Y-60489592D01*
X111530658Y-60439500D01*
X111517646Y-60374087D01*
X111502291Y-60337016D01*
X111479915Y-60282995D01*
X112327499Y-60282995D01*
X112354418Y-60418322D01*
X112354421Y-60418332D01*
X112407221Y-60545804D01*
X112407228Y-60545817D01*
X112483885Y-60660541D01*
X112483888Y-60660545D01*
X112581454Y-60758111D01*
X112581458Y-60758114D01*
X112696182Y-60834771D01*
X112696195Y-60834778D01*
X112823667Y-60887578D01*
X112823672Y-60887580D01*
X112823676Y-60887580D01*
X112823677Y-60887581D01*
X112959004Y-60914500D01*
X112959007Y-60914500D01*
X113096995Y-60914500D01*
X113188041Y-60896389D01*
X113232328Y-60887580D01*
X113359811Y-60834775D01*
X113474542Y-60758114D01*
X113572114Y-60660542D01*
X113648775Y-60545811D01*
X113701580Y-60418328D01*
X113717755Y-60337013D01*
X113728500Y-60282995D01*
X113728500Y-60145004D01*
X113701581Y-60009677D01*
X113701580Y-60009676D01*
X113701580Y-60009672D01*
X113701578Y-60009667D01*
X113648778Y-59882195D01*
X113648771Y-59882182D01*
X113572114Y-59767458D01*
X113572111Y-59767454D01*
X113474545Y-59669888D01*
X113474541Y-59669885D01*
X113359817Y-59593228D01*
X113359804Y-59593221D01*
X113232332Y-59540421D01*
X113232322Y-59540418D01*
X113096995Y-59513500D01*
X113096993Y-59513500D01*
X112959007Y-59513500D01*
X112959005Y-59513500D01*
X112823677Y-59540418D01*
X112823667Y-59540421D01*
X112696195Y-59593221D01*
X112696182Y-59593228D01*
X112581458Y-59669885D01*
X112581454Y-59669888D01*
X112483888Y-59767454D01*
X112483885Y-59767458D01*
X112407228Y-59882182D01*
X112407221Y-59882195D01*
X112354421Y-60009667D01*
X112354418Y-60009677D01*
X112327500Y-60145004D01*
X112327500Y-60145007D01*
X112327500Y-60282993D01*
X112327500Y-60282995D01*
X112327499Y-60282995D01*
X111479915Y-60282995D01*
X111461075Y-60237511D01*
X111461071Y-60237504D01*
X111441228Y-60207807D01*
X111441227Y-60207805D01*
X111378939Y-60114583D01*
X111274407Y-60010051D01*
X111274403Y-60010048D01*
X111151489Y-59927919D01*
X111151476Y-59927912D01*
X111014905Y-59871343D01*
X111014895Y-59871340D01*
X110869908Y-59842500D01*
X110869906Y-59842500D01*
X110722070Y-59842500D01*
X110722068Y-59842500D01*
X110577080Y-59871340D01*
X110577070Y-59871343D01*
X110440499Y-59927912D01*
X110440486Y-59927919D01*
X110317572Y-60010048D01*
X110317568Y-60010051D01*
X110213039Y-60114580D01*
X110213036Y-60114584D01*
X110130907Y-60237498D01*
X110130900Y-60237511D01*
X110074331Y-60374082D01*
X110074328Y-60374092D01*
X110045488Y-60519079D01*
X110045488Y-60519082D01*
X110045488Y-60666918D01*
X110045488Y-60666920D01*
X110045487Y-60666920D01*
X106546488Y-60666920D01*
X106546488Y-60519079D01*
X106517647Y-60374092D01*
X106517646Y-60374091D01*
X106517646Y-60374087D01*
X106502291Y-60337016D01*
X106461075Y-60237511D01*
X106461068Y-60237498D01*
X106378939Y-60114584D01*
X106378936Y-60114580D01*
X106274407Y-60010051D01*
X106274403Y-60010048D01*
X106151489Y-59927919D01*
X106151476Y-59927912D01*
X106014905Y-59871343D01*
X106014895Y-59871340D01*
X105869908Y-59842500D01*
X105869906Y-59842500D01*
X105722070Y-59842500D01*
X105722068Y-59842500D01*
X105577080Y-59871340D01*
X105577070Y-59871343D01*
X105440499Y-59927912D01*
X105440486Y-59927919D01*
X105317572Y-60010048D01*
X105317568Y-60010051D01*
X105213039Y-60114580D01*
X105213036Y-60114584D01*
X105130907Y-60237498D01*
X105130900Y-60237511D01*
X105074331Y-60374082D01*
X105074328Y-60374092D01*
X105045488Y-60519079D01*
X105045488Y-60519082D01*
X105045488Y-60666918D01*
X105045488Y-60666920D01*
X105045487Y-60666920D01*
X100046488Y-60666920D01*
X100046488Y-60519079D01*
X100017647Y-60374092D01*
X100017646Y-60374091D01*
X100017646Y-60374087D01*
X100002291Y-60337016D01*
X99961075Y-60237511D01*
X99961068Y-60237498D01*
X99878939Y-60114584D01*
X99878936Y-60114580D01*
X99774407Y-60010051D01*
X99774403Y-60010048D01*
X99651489Y-59927919D01*
X99651476Y-59927912D01*
X99514905Y-59871343D01*
X99514895Y-59871340D01*
X99369908Y-59842500D01*
X99369906Y-59842500D01*
X99222070Y-59842500D01*
X99222068Y-59842500D01*
X99077080Y-59871340D01*
X99077070Y-59871343D01*
X98940499Y-59927912D01*
X98940486Y-59927919D01*
X98817572Y-60010048D01*
X98817568Y-60010051D01*
X98713039Y-60114580D01*
X98713036Y-60114584D01*
X98630907Y-60237498D01*
X98630900Y-60237511D01*
X98574331Y-60374082D01*
X98574328Y-60374092D01*
X98545488Y-60519079D01*
X98545488Y-60519082D01*
X98545488Y-60666918D01*
X98545488Y-60666920D01*
X98545487Y-60666920D01*
X80153500Y-60666920D01*
X80153500Y-59450304D01*
X88427499Y-59450304D01*
X88427499Y-59627695D01*
X88462102Y-59801658D01*
X88462105Y-59801667D01*
X88529982Y-59965540D01*
X88529989Y-59965553D01*
X88628534Y-60113034D01*
X88628537Y-60113038D01*
X88753960Y-60238461D01*
X88753964Y-60238464D01*
X88901445Y-60337009D01*
X88901458Y-60337016D01*
X88990974Y-60374094D01*
X89065333Y-60404894D01*
X89065335Y-60404894D01*
X89065340Y-60404896D01*
X89239303Y-60439499D01*
X89239306Y-60439500D01*
X89239308Y-60439500D01*
X89416692Y-60439500D01*
X89416693Y-60439499D01*
X89474681Y-60427964D01*
X89590657Y-60404896D01*
X89590657Y-60404895D01*
X89590665Y-60404894D01*
X89754546Y-60337013D01*
X89902034Y-60238464D01*
X90027463Y-60113035D01*
X90126012Y-59965547D01*
X90193893Y-59801666D01*
X90200698Y-59767458D01*
X90225418Y-59643179D01*
X90228499Y-59627691D01*
X90228499Y-59450309D01*
X90228499Y-59450306D01*
X90228498Y-59450304D01*
X90193895Y-59276341D01*
X90193893Y-59276338D01*
X90193893Y-59276334D01*
X90156125Y-59185153D01*
X96627500Y-59185153D01*
X96627500Y-59342846D01*
X96658261Y-59497489D01*
X96658264Y-59497501D01*
X96718602Y-59643172D01*
X96718609Y-59643185D01*
X96806210Y-59774288D01*
X96806213Y-59774292D01*
X96917707Y-59885786D01*
X96917711Y-59885789D01*
X97048814Y-59973390D01*
X97048827Y-59973397D01*
X97194498Y-60033735D01*
X97194503Y-60033737D01*
X97349153Y-60064499D01*
X97349156Y-60064500D01*
X97349158Y-60064500D01*
X97506844Y-60064500D01*
X97506845Y-60064499D01*
X97661497Y-60033737D01*
X97807179Y-59973394D01*
X97938289Y-59885789D01*
X98049789Y-59774289D01*
X98137394Y-59643179D01*
X98143809Y-59627693D01*
X98179958Y-59540420D01*
X98197737Y-59497497D01*
X98228500Y-59342842D01*
X98228500Y-59216920D01*
X115737499Y-59216920D01*
X115766340Y-59361907D01*
X115766343Y-59361917D01*
X115822912Y-59498488D01*
X115822919Y-59498501D01*
X115905048Y-59621415D01*
X115905051Y-59621419D01*
X116009580Y-59725948D01*
X116009584Y-59725951D01*
X116132498Y-59808080D01*
X116132511Y-59808087D01*
X116269082Y-59864656D01*
X116269087Y-59864658D01*
X116269091Y-59864658D01*
X116269092Y-59864659D01*
X116414079Y-59893500D01*
X116414082Y-59893500D01*
X116561920Y-59893500D01*
X116673321Y-59871340D01*
X116706913Y-59864658D01*
X116843495Y-59808084D01*
X116966416Y-59725951D01*
X117070951Y-59621416D01*
X117153084Y-59498495D01*
X117209658Y-59361913D01*
X117230794Y-59255658D01*
X117238500Y-59216920D01*
X117238500Y-59069079D01*
X117209659Y-58924092D01*
X117209658Y-58924091D01*
X117209658Y-58924087D01*
X117174636Y-58839536D01*
X117153087Y-58787511D01*
X117153080Y-58787498D01*
X117070951Y-58664584D01*
X117070948Y-58664580D01*
X116966419Y-58560051D01*
X116966415Y-58560048D01*
X116933298Y-58537920D01*
X120952499Y-58537920D01*
X120981340Y-58682907D01*
X120981343Y-58682917D01*
X121037912Y-58819488D01*
X121037919Y-58819501D01*
X121120048Y-58942415D01*
X121120051Y-58942419D01*
X121224580Y-59046948D01*
X121224584Y-59046951D01*
X121347498Y-59129080D01*
X121347511Y-59129087D01*
X121482880Y-59185158D01*
X121484087Y-59185658D01*
X121484091Y-59185658D01*
X121484092Y-59185659D01*
X121629079Y-59214500D01*
X121629082Y-59214500D01*
X121776920Y-59214500D01*
X121874462Y-59195096D01*
X121921913Y-59185658D01*
X122058495Y-59129084D01*
X122181416Y-59046951D01*
X122267427Y-58960939D01*
X122328748Y-58927456D01*
X122398440Y-58932440D01*
X122454374Y-58974311D01*
X122458209Y-58979731D01*
X122480048Y-59012415D01*
X122480051Y-59012419D01*
X122584580Y-59116948D01*
X122584584Y-59116951D01*
X122707498Y-59199080D01*
X122707511Y-59199087D01*
X122844082Y-59255656D01*
X122844087Y-59255658D01*
X122844091Y-59255658D01*
X122844092Y-59255659D01*
X122989079Y-59284500D01*
X122989082Y-59284500D01*
X123136920Y-59284500D01*
X123234462Y-59265096D01*
X123281913Y-59255658D01*
X123418495Y-59199084D01*
X123541416Y-59116951D01*
X123645951Y-59012416D01*
X123728084Y-58889495D01*
X123784658Y-58752913D01*
X123795504Y-58698390D01*
X123813500Y-58607920D01*
X126482499Y-58607920D01*
X126511340Y-58752907D01*
X126511343Y-58752917D01*
X126567912Y-58889488D01*
X126567919Y-58889501D01*
X126650048Y-59012415D01*
X126650051Y-59012419D01*
X126754580Y-59116948D01*
X126754584Y-59116951D01*
X126877498Y-59199080D01*
X126877511Y-59199087D01*
X127014082Y-59255656D01*
X127014087Y-59255658D01*
X127014091Y-59255658D01*
X127014092Y-59255659D01*
X127159079Y-59284500D01*
X127159082Y-59284500D01*
X127306920Y-59284500D01*
X127404462Y-59265096D01*
X127451913Y-59255658D01*
X127588495Y-59199084D01*
X127711416Y-59116951D01*
X127815951Y-59012416D01*
X127898084Y-58889495D01*
X127954658Y-58752913D01*
X127965504Y-58698390D01*
X127983500Y-58607920D01*
X127983500Y-58460079D01*
X127954659Y-58315092D01*
X127954658Y-58315091D01*
X127954658Y-58315087D01*
X127954241Y-58314080D01*
X127898087Y-58178511D01*
X127898080Y-58178498D01*
X127815951Y-58055584D01*
X127815948Y-58055580D01*
X127711419Y-57951051D01*
X127711415Y-57951048D01*
X127588501Y-57868919D01*
X127588488Y-57868912D01*
X127451917Y-57812343D01*
X127451907Y-57812340D01*
X127306920Y-57783500D01*
X127306918Y-57783500D01*
X127159082Y-57783500D01*
X127159080Y-57783500D01*
X127014092Y-57812340D01*
X127014082Y-57812343D01*
X126877511Y-57868912D01*
X126877498Y-57868919D01*
X126754584Y-57951048D01*
X126754580Y-57951051D01*
X126650051Y-58055580D01*
X126650048Y-58055584D01*
X126567919Y-58178498D01*
X126567912Y-58178511D01*
X126511343Y-58315082D01*
X126511340Y-58315092D01*
X126482500Y-58460079D01*
X126482500Y-58460082D01*
X126482500Y-58607918D01*
X126482500Y-58607920D01*
X126482499Y-58607920D01*
X123813500Y-58607920D01*
X123813500Y-58460079D01*
X123784659Y-58315092D01*
X123784658Y-58315091D01*
X123784658Y-58315087D01*
X123784241Y-58314080D01*
X123728087Y-58178511D01*
X123728080Y-58178498D01*
X123645951Y-58055584D01*
X123645948Y-58055580D01*
X123541419Y-57951051D01*
X123541415Y-57951048D01*
X123418501Y-57868919D01*
X123418488Y-57868912D01*
X123281917Y-57812343D01*
X123281907Y-57812340D01*
X123136920Y-57783500D01*
X123136918Y-57783500D01*
X122989082Y-57783500D01*
X122989080Y-57783500D01*
X122844092Y-57812340D01*
X122844082Y-57812343D01*
X122707511Y-57868912D01*
X122707498Y-57868919D01*
X122584584Y-57951048D01*
X122498573Y-58037059D01*
X122437249Y-58070543D01*
X122367558Y-58065559D01*
X122311624Y-58023687D01*
X122307790Y-58018268D01*
X122285951Y-57985583D01*
X122181419Y-57881051D01*
X122181415Y-57881048D01*
X122058501Y-57798919D01*
X122058488Y-57798912D01*
X121921917Y-57742343D01*
X121921907Y-57742340D01*
X121776920Y-57713500D01*
X121776918Y-57713500D01*
X121629082Y-57713500D01*
X121629080Y-57713500D01*
X121484092Y-57742340D01*
X121484082Y-57742343D01*
X121347511Y-57798912D01*
X121347498Y-57798919D01*
X121224584Y-57881048D01*
X121224580Y-57881051D01*
X121120051Y-57985580D01*
X121120048Y-57985584D01*
X121037919Y-58108498D01*
X121037912Y-58108511D01*
X120981343Y-58245082D01*
X120981340Y-58245092D01*
X120952500Y-58390079D01*
X120952500Y-58390082D01*
X120952500Y-58537918D01*
X120952500Y-58537920D01*
X120952499Y-58537920D01*
X116933298Y-58537920D01*
X116843501Y-58477919D01*
X116843488Y-58477912D01*
X116706917Y-58421343D01*
X116706907Y-58421340D01*
X116561920Y-58392500D01*
X116561918Y-58392500D01*
X116414082Y-58392500D01*
X116414080Y-58392500D01*
X116269092Y-58421340D01*
X116269082Y-58421343D01*
X116132511Y-58477912D01*
X116132498Y-58477919D01*
X116009584Y-58560048D01*
X116009580Y-58560051D01*
X115905051Y-58664580D01*
X115905048Y-58664584D01*
X115822919Y-58787498D01*
X115822912Y-58787511D01*
X115766343Y-58924082D01*
X115766340Y-58924092D01*
X115737500Y-59069079D01*
X115737500Y-59069082D01*
X115737500Y-59216918D01*
X115737500Y-59216920D01*
X115737499Y-59216920D01*
X98228500Y-59216920D01*
X98228500Y-59185158D01*
X98228500Y-59185155D01*
X98228499Y-59185153D01*
X98209012Y-59087181D01*
X98197738Y-59030508D01*
X98197737Y-59030507D01*
X98197737Y-59030503D01*
X98197735Y-59030498D01*
X98137397Y-58884827D01*
X98137390Y-58884814D01*
X98049789Y-58753711D01*
X98049786Y-58753707D01*
X97938292Y-58642213D01*
X97938288Y-58642210D01*
X97807185Y-58554609D01*
X97807172Y-58554602D01*
X97661501Y-58494264D01*
X97661489Y-58494261D01*
X97506845Y-58463500D01*
X97506842Y-58463500D01*
X97349158Y-58463500D01*
X97349155Y-58463500D01*
X97194510Y-58494261D01*
X97194498Y-58494264D01*
X97048827Y-58554602D01*
X97048814Y-58554609D01*
X96917711Y-58642210D01*
X96917707Y-58642213D01*
X96806213Y-58753707D01*
X96806210Y-58753711D01*
X96718609Y-58884814D01*
X96718602Y-58884827D01*
X96658264Y-59030498D01*
X96658261Y-59030510D01*
X96627500Y-59185153D01*
X90156125Y-59185153D01*
X90132899Y-59129080D01*
X90126015Y-59112459D01*
X90126008Y-59112446D01*
X90027463Y-58964965D01*
X90027460Y-58964961D01*
X89902037Y-58839538D01*
X89902033Y-58839535D01*
X89754552Y-58740990D01*
X89754539Y-58740983D01*
X89590666Y-58673106D01*
X89590657Y-58673103D01*
X89416693Y-58638500D01*
X89416690Y-58638500D01*
X89239308Y-58638500D01*
X89239305Y-58638500D01*
X89065340Y-58673103D01*
X89065331Y-58673106D01*
X88901458Y-58740983D01*
X88901445Y-58740990D01*
X88753964Y-58839535D01*
X88753960Y-58839538D01*
X88628537Y-58964961D01*
X88628534Y-58964965D01*
X88529989Y-59112446D01*
X88529982Y-59112459D01*
X88462105Y-59276332D01*
X88462102Y-59276341D01*
X88427499Y-59450304D01*
X80153500Y-59450304D01*
X80153500Y-57910153D01*
X95277500Y-57910153D01*
X95277500Y-58067846D01*
X95308261Y-58222489D01*
X95308264Y-58222501D01*
X95368602Y-58368172D01*
X95368609Y-58368185D01*
X95456210Y-58499288D01*
X95456213Y-58499292D01*
X95567707Y-58610786D01*
X95567711Y-58610789D01*
X95698814Y-58698390D01*
X95698827Y-58698397D01*
X95830452Y-58752917D01*
X95844503Y-58758737D01*
X95989093Y-58787498D01*
X95999153Y-58789499D01*
X95999156Y-58789500D01*
X95999158Y-58789500D01*
X96156844Y-58789500D01*
X96156845Y-58789499D01*
X96311497Y-58758737D01*
X96457179Y-58698394D01*
X96588289Y-58610789D01*
X96699789Y-58499289D01*
X96787394Y-58368179D01*
X96847737Y-58222497D01*
X96878500Y-58067842D01*
X96878500Y-57989420D01*
X98815487Y-57989420D01*
X98844328Y-58134407D01*
X98844331Y-58134417D01*
X98900900Y-58270988D01*
X98900907Y-58271001D01*
X98983036Y-58393915D01*
X98983039Y-58393919D01*
X99087568Y-58498448D01*
X99087572Y-58498451D01*
X99210486Y-58580580D01*
X99210499Y-58580587D01*
X99283407Y-58610786D01*
X99347075Y-58637158D01*
X99347079Y-58637158D01*
X99347080Y-58637159D01*
X99492067Y-58666000D01*
X99492070Y-58666000D01*
X99639908Y-58666000D01*
X99778154Y-58638500D01*
X99784901Y-58637158D01*
X99921483Y-58580584D01*
X100044404Y-58498451D01*
X100148939Y-58393916D01*
X100231072Y-58270995D01*
X100241806Y-58245082D01*
X100245757Y-58235541D01*
X100287646Y-58134413D01*
X100301342Y-58065559D01*
X100313788Y-58002995D01*
X103307499Y-58002995D01*
X103334418Y-58138322D01*
X103334421Y-58138332D01*
X103387221Y-58265804D01*
X103387228Y-58265817D01*
X103463885Y-58380541D01*
X103463888Y-58380545D01*
X103561454Y-58478111D01*
X103561458Y-58478114D01*
X103676182Y-58554771D01*
X103676195Y-58554778D01*
X103803667Y-58607578D01*
X103803672Y-58607580D01*
X103803676Y-58607580D01*
X103803677Y-58607581D01*
X103939004Y-58634500D01*
X103939007Y-58634500D01*
X104076995Y-58634500D01*
X104196210Y-58610786D01*
X104212328Y-58607580D01*
X104327824Y-58559739D01*
X104397292Y-58552271D01*
X104399468Y-58552684D01*
X104484004Y-58569500D01*
X104484007Y-58569500D01*
X104621995Y-58569500D01*
X104713041Y-58551389D01*
X104757328Y-58542580D01*
X104863865Y-58498451D01*
X104884804Y-58489778D01*
X104884804Y-58489777D01*
X104884811Y-58489775D01*
X104999542Y-58413114D01*
X105097114Y-58315542D01*
X105173775Y-58200811D01*
X105226580Y-58073328D01*
X105242494Y-57993322D01*
X105253500Y-57937995D01*
X105253500Y-57800004D01*
X105226581Y-57664677D01*
X105226580Y-57664676D01*
X105226580Y-57664672D01*
X105203857Y-57609814D01*
X105173778Y-57537195D01*
X105173771Y-57537182D01*
X105097114Y-57422458D01*
X105097111Y-57422454D01*
X104999545Y-57324888D01*
X104999541Y-57324885D01*
X104884817Y-57248228D01*
X104884804Y-57248221D01*
X104757332Y-57195421D01*
X104757322Y-57195418D01*
X104621995Y-57168500D01*
X104621993Y-57168500D01*
X104484007Y-57168500D01*
X104484005Y-57168500D01*
X104348677Y-57195418D01*
X104348667Y-57195421D01*
X104233176Y-57243259D01*
X104163707Y-57250728D01*
X104161534Y-57250316D01*
X104151022Y-57248225D01*
X104076993Y-57233500D01*
X103939007Y-57233500D01*
X103939005Y-57233500D01*
X103803677Y-57260418D01*
X103803667Y-57260421D01*
X103676195Y-57313221D01*
X103676182Y-57313228D01*
X103561458Y-57389885D01*
X103561454Y-57389888D01*
X103463888Y-57487454D01*
X103463885Y-57487458D01*
X103387228Y-57602182D01*
X103387221Y-57602195D01*
X103334421Y-57729667D01*
X103334418Y-57729677D01*
X103307500Y-57865004D01*
X103307500Y-57865007D01*
X103307500Y-58002993D01*
X103307500Y-58002995D01*
X103307499Y-58002995D01*
X100313788Y-58002995D01*
X100316488Y-57989420D01*
X100316488Y-57841579D01*
X100287647Y-57696592D01*
X100287646Y-57696591D01*
X100287646Y-57696587D01*
X100287644Y-57696582D01*
X100231075Y-57560011D01*
X100231068Y-57559998D01*
X100148939Y-57437084D01*
X100148936Y-57437080D01*
X100044407Y-57332551D01*
X100044403Y-57332548D01*
X99921489Y-57250419D01*
X99921476Y-57250412D01*
X99784905Y-57193843D01*
X99784895Y-57193840D01*
X99639908Y-57165000D01*
X99639906Y-57165000D01*
X99492070Y-57165000D01*
X99492068Y-57165000D01*
X99347080Y-57193840D01*
X99347070Y-57193843D01*
X99210499Y-57250412D01*
X99210486Y-57250419D01*
X99087572Y-57332548D01*
X99087568Y-57332551D01*
X98983039Y-57437080D01*
X98983036Y-57437084D01*
X98900907Y-57559998D01*
X98900900Y-57560011D01*
X98844331Y-57696582D01*
X98844328Y-57696592D01*
X98815488Y-57841579D01*
X98815488Y-57841582D01*
X98815488Y-57989418D01*
X98815488Y-57989420D01*
X98815487Y-57989420D01*
X96878500Y-57989420D01*
X96878500Y-57910158D01*
X96878500Y-57910155D01*
X96868460Y-57859682D01*
X96868460Y-57859681D01*
X96847738Y-57755510D01*
X96847737Y-57755503D01*
X96837038Y-57729672D01*
X96787397Y-57609827D01*
X96787390Y-57609814D01*
X96699789Y-57478711D01*
X96699786Y-57478707D01*
X96588292Y-57367213D01*
X96588288Y-57367210D01*
X96457185Y-57279609D01*
X96457172Y-57279602D01*
X96311501Y-57219264D01*
X96311489Y-57219261D01*
X96156845Y-57188500D01*
X96156842Y-57188500D01*
X95999158Y-57188500D01*
X95999155Y-57188500D01*
X95844510Y-57219261D01*
X95844498Y-57219264D01*
X95698827Y-57279602D01*
X95698814Y-57279609D01*
X95567711Y-57367210D01*
X95567707Y-57367213D01*
X95456213Y-57478707D01*
X95456210Y-57478711D01*
X95368609Y-57609814D01*
X95368602Y-57609827D01*
X95308264Y-57755498D01*
X95308261Y-57755510D01*
X95277500Y-57910153D01*
X80153500Y-57910153D01*
X80153500Y-56344920D01*
X92887499Y-56344920D01*
X92916340Y-56489907D01*
X92916343Y-56489917D01*
X92972912Y-56626488D01*
X92972919Y-56626501D01*
X93055048Y-56749415D01*
X93055051Y-56749419D01*
X93159580Y-56853948D01*
X93159584Y-56853951D01*
X93282498Y-56936080D01*
X93282511Y-56936087D01*
X93397699Y-56983799D01*
X93419087Y-56992658D01*
X93419091Y-56992658D01*
X93419092Y-56992659D01*
X93564079Y-57021500D01*
X93564082Y-57021500D01*
X93711920Y-57021500D01*
X93809462Y-57002096D01*
X93856913Y-56992658D01*
X93993495Y-56936084D01*
X94116416Y-56853951D01*
X94220951Y-56749416D01*
X94303084Y-56626495D01*
X94359658Y-56489913D01*
X94366261Y-56456721D01*
X107101225Y-56456721D01*
X107128144Y-56592048D01*
X107128147Y-56592058D01*
X107180947Y-56719530D01*
X107180954Y-56719543D01*
X107257611Y-56834267D01*
X107257614Y-56834271D01*
X107355180Y-56931837D01*
X107355184Y-56931840D01*
X107469908Y-57008497D01*
X107469912Y-57008499D01*
X107469915Y-57008501D01*
X107537233Y-57036385D01*
X107591635Y-57080224D01*
X107604340Y-57103492D01*
X107632223Y-57170807D01*
X107632228Y-57170817D01*
X107708885Y-57285541D01*
X107708888Y-57285545D01*
X107806454Y-57383111D01*
X107806458Y-57383114D01*
X107921182Y-57459771D01*
X107921195Y-57459778D01*
X107990612Y-57488531D01*
X108048672Y-57512580D01*
X108048676Y-57512580D01*
X108048677Y-57512581D01*
X108184004Y-57539500D01*
X108184007Y-57539500D01*
X108321995Y-57539500D01*
X108450420Y-57513954D01*
X108457328Y-57512580D01*
X108584811Y-57459775D01*
X108699542Y-57383114D01*
X108705695Y-57376961D01*
X108734496Y-57361232D01*
X108762729Y-57344486D01*
X108765011Y-57344567D01*
X108767016Y-57343473D01*
X108799750Y-57345812D01*
X108832553Y-57346988D01*
X108834429Y-57348291D01*
X108836708Y-57348454D01*
X108862990Y-57368126D01*
X108889941Y-57386844D01*
X108891494Y-57389462D01*
X108892644Y-57390323D01*
X108907947Y-57417199D01*
X108908718Y-57419061D01*
X108916178Y-57488531D01*
X108908713Y-57513951D01*
X108883395Y-57575077D01*
X108879419Y-57584675D01*
X108879418Y-57584678D01*
X108852500Y-57720004D01*
X108852500Y-57720007D01*
X108852500Y-57857993D01*
X108852500Y-57857995D01*
X108852499Y-57857995D01*
X108879418Y-57993322D01*
X108879421Y-57993332D01*
X108932221Y-58120804D01*
X108932228Y-58120817D01*
X109008885Y-58235541D01*
X109008888Y-58235545D01*
X109106454Y-58333111D01*
X109106458Y-58333114D01*
X109221182Y-58409771D01*
X109221195Y-58409778D01*
X109342634Y-58460079D01*
X109348672Y-58462580D01*
X109348676Y-58462580D01*
X109348677Y-58462581D01*
X109484004Y-58489500D01*
X109484007Y-58489500D01*
X109621995Y-58489500D01*
X109713041Y-58471389D01*
X109757328Y-58462580D01*
X109884811Y-58409775D01*
X109999542Y-58333114D01*
X110097114Y-58235542D01*
X110173775Y-58120811D01*
X110222576Y-58002995D01*
X111047499Y-58002995D01*
X111074418Y-58138322D01*
X111074421Y-58138332D01*
X111127221Y-58265804D01*
X111127228Y-58265817D01*
X111203885Y-58380541D01*
X111203888Y-58380545D01*
X111301454Y-58478111D01*
X111301458Y-58478114D01*
X111416182Y-58554771D01*
X111416195Y-58554778D01*
X111543667Y-58607578D01*
X111543672Y-58607580D01*
X111543676Y-58607580D01*
X111543677Y-58607581D01*
X111679004Y-58634500D01*
X111679007Y-58634500D01*
X111816995Y-58634500D01*
X111936210Y-58610786D01*
X111952328Y-58607580D01*
X112067074Y-58560051D01*
X112079804Y-58554778D01*
X112079804Y-58554777D01*
X112079811Y-58554775D01*
X112194542Y-58478114D01*
X112292114Y-58380542D01*
X112368775Y-58265811D01*
X112421580Y-58138328D01*
X112448200Y-58004501D01*
X112448500Y-58002995D01*
X112448500Y-57865004D01*
X112421581Y-57729677D01*
X112421580Y-57729676D01*
X112421580Y-57729672D01*
X112418783Y-57722920D01*
X112368778Y-57602195D01*
X112368771Y-57602182D01*
X112292114Y-57487458D01*
X112292111Y-57487454D01*
X112194545Y-57389888D01*
X112194541Y-57389885D01*
X112079817Y-57313228D01*
X112079804Y-57313221D01*
X111952332Y-57260421D01*
X111952322Y-57260418D01*
X111816995Y-57233500D01*
X111816993Y-57233500D01*
X111679007Y-57233500D01*
X111679005Y-57233500D01*
X111543677Y-57260418D01*
X111543667Y-57260421D01*
X111416195Y-57313221D01*
X111416182Y-57313228D01*
X111301458Y-57389885D01*
X111301454Y-57389888D01*
X111203888Y-57487454D01*
X111203885Y-57487458D01*
X111127228Y-57602182D01*
X111127221Y-57602195D01*
X111074421Y-57729667D01*
X111074418Y-57729677D01*
X111047500Y-57865004D01*
X111047500Y-57865007D01*
X111047500Y-58002993D01*
X111047500Y-58002995D01*
X111047499Y-58002995D01*
X110222576Y-58002995D01*
X110226580Y-57993328D01*
X110235389Y-57949041D01*
X110253500Y-57857995D01*
X110253500Y-57720004D01*
X110226581Y-57584677D01*
X110226580Y-57584676D01*
X110226580Y-57584672D01*
X110197285Y-57513949D01*
X110189817Y-57444485D01*
X110197282Y-57419056D01*
X110226580Y-57348328D01*
X110245994Y-57250728D01*
X110253500Y-57212995D01*
X110253500Y-57075004D01*
X110226581Y-56939677D01*
X110226580Y-56939676D01*
X110226580Y-56939672D01*
X110198600Y-56872121D01*
X110173778Y-56812195D01*
X110173771Y-56812182D01*
X110097114Y-56697458D01*
X110097111Y-56697454D01*
X109999545Y-56599888D01*
X109999541Y-56599885D01*
X109884817Y-56523228D01*
X109884804Y-56523221D01*
X109757332Y-56470421D01*
X109757322Y-56470418D01*
X109694867Y-56457995D01*
X114452499Y-56457995D01*
X114479418Y-56593322D01*
X114479421Y-56593332D01*
X114532221Y-56720804D01*
X114532228Y-56720817D01*
X114608885Y-56835541D01*
X114608888Y-56835545D01*
X114706454Y-56933111D01*
X114706458Y-56933114D01*
X114821182Y-57009771D01*
X114821195Y-57009778D01*
X114932883Y-57056040D01*
X114948672Y-57062580D01*
X114948676Y-57062580D01*
X114948677Y-57062581D01*
X115084004Y-57089500D01*
X115084007Y-57089500D01*
X115221995Y-57089500D01*
X115339893Y-57066048D01*
X115357328Y-57062580D01*
X115429923Y-57032509D01*
X115499393Y-57025041D01*
X115561872Y-57056316D01*
X115580479Y-57078181D01*
X115616050Y-57131418D01*
X115720580Y-57235948D01*
X115720584Y-57235951D01*
X115843498Y-57318080D01*
X115843511Y-57318087D01*
X115962106Y-57367210D01*
X115980087Y-57374658D01*
X115980091Y-57374658D01*
X115980092Y-57374659D01*
X116125079Y-57403500D01*
X116125082Y-57403500D01*
X116272920Y-57403500D01*
X116406335Y-57376961D01*
X116417913Y-57374658D01*
X116538069Y-57324888D01*
X116554488Y-57318087D01*
X116554488Y-57318086D01*
X116554495Y-57318084D01*
X116561763Y-57313228D01*
X116564625Y-57311316D01*
X116631302Y-57290437D01*
X116698682Y-57308921D01*
X116745373Y-57360899D01*
X116756551Y-57429868D01*
X116755134Y-57438608D01*
X116727988Y-57575077D01*
X116727988Y-57575082D01*
X116727988Y-57722918D01*
X116727988Y-57722920D01*
X116727987Y-57722920D01*
X116756828Y-57867907D01*
X116756831Y-57867917D01*
X116813400Y-58004488D01*
X116813407Y-58004501D01*
X116895536Y-58127415D01*
X116895539Y-58127419D01*
X117000068Y-58231948D01*
X117000072Y-58231951D01*
X117122986Y-58314080D01*
X117122999Y-58314087D01*
X117259570Y-58370656D01*
X117259575Y-58370658D01*
X117259579Y-58370658D01*
X117259580Y-58370659D01*
X117404567Y-58399500D01*
X117404570Y-58399500D01*
X117552408Y-58399500D01*
X117649950Y-58380096D01*
X117697401Y-58370658D01*
X117830463Y-58315542D01*
X117833976Y-58314087D01*
X117833976Y-58314086D01*
X117833983Y-58314084D01*
X117833989Y-58314080D01*
X117883665Y-58280888D01*
X117910027Y-58263273D01*
X117956904Y-58231951D01*
X118061439Y-58127416D01*
X118143572Y-58004495D01*
X118200146Y-57867913D01*
X118213871Y-57798916D01*
X118228988Y-57722920D01*
X118228988Y-57575079D01*
X118200147Y-57430092D01*
X118200146Y-57430091D01*
X118200146Y-57430087D01*
X118183494Y-57389885D01*
X118143575Y-57293511D01*
X118143568Y-57293498D01*
X118061439Y-57170584D01*
X118061436Y-57170580D01*
X117956907Y-57066051D01*
X117956903Y-57066048D01*
X117833989Y-56983919D01*
X117833976Y-56983912D01*
X117697405Y-56927343D01*
X117697395Y-56927340D01*
X117552408Y-56898500D01*
X117552406Y-56898500D01*
X117404570Y-56898500D01*
X117404568Y-56898500D01*
X117259580Y-56927340D01*
X117259570Y-56927343D01*
X117122999Y-56983912D01*
X117122983Y-56983921D01*
X117112855Y-56990688D01*
X117046176Y-57011562D01*
X116978797Y-56993074D01*
X116932110Y-56941092D01*
X116920938Y-56872121D01*
X116922353Y-56863390D01*
X116924232Y-56853948D01*
X116949500Y-56726918D01*
X116949500Y-56712920D01*
X121027499Y-56712920D01*
X121056340Y-56857907D01*
X121056343Y-56857917D01*
X121112912Y-56994488D01*
X121112919Y-56994501D01*
X121195048Y-57117415D01*
X121195051Y-57117419D01*
X121299580Y-57221948D01*
X121299584Y-57221951D01*
X121422498Y-57304080D01*
X121422511Y-57304087D01*
X121559082Y-57360656D01*
X121559087Y-57360658D01*
X121559091Y-57360658D01*
X121559092Y-57360659D01*
X121704079Y-57389500D01*
X121704082Y-57389500D01*
X121851920Y-57389500D01*
X121959370Y-57368126D01*
X121996913Y-57360658D01*
X122116035Y-57311316D01*
X122133488Y-57304087D01*
X122133488Y-57304086D01*
X122133495Y-57304084D01*
X122256416Y-57221951D01*
X122360951Y-57117416D01*
X122443084Y-56994495D01*
X122443845Y-56992659D01*
X122467277Y-56936087D01*
X122499658Y-56857913D01*
X122517144Y-56770007D01*
X122528500Y-56712920D01*
X122528500Y-56565079D01*
X122499659Y-56420092D01*
X122499658Y-56420091D01*
X122499658Y-56420087D01*
X122458204Y-56320007D01*
X122443087Y-56283511D01*
X122443080Y-56283498D01*
X122360951Y-56160584D01*
X122360948Y-56160580D01*
X122256419Y-56056051D01*
X122256415Y-56056048D01*
X122133501Y-55973919D01*
X122133488Y-55973912D01*
X121996917Y-55917343D01*
X121996907Y-55917340D01*
X121851920Y-55888500D01*
X121851918Y-55888500D01*
X121704082Y-55888500D01*
X121704080Y-55888500D01*
X121559092Y-55917340D01*
X121559082Y-55917343D01*
X121422511Y-55973912D01*
X121422498Y-55973919D01*
X121299584Y-56056048D01*
X121299580Y-56056051D01*
X121195051Y-56160580D01*
X121195048Y-56160584D01*
X121112919Y-56283498D01*
X121112912Y-56283511D01*
X121056343Y-56420082D01*
X121056340Y-56420092D01*
X121027500Y-56565079D01*
X121027500Y-56565082D01*
X121027500Y-56712918D01*
X121027500Y-56712920D01*
X121027499Y-56712920D01*
X116949500Y-56712920D01*
X116949500Y-56579082D01*
X116949500Y-56579079D01*
X116920659Y-56434092D01*
X116920658Y-56434091D01*
X116920658Y-56434087D01*
X116873405Y-56320007D01*
X116864087Y-56297511D01*
X116864080Y-56297498D01*
X116781951Y-56174584D01*
X116781948Y-56174580D01*
X116677419Y-56070051D01*
X116677415Y-56070048D01*
X116554501Y-55987919D01*
X116554488Y-55987912D01*
X116417917Y-55931343D01*
X116417907Y-55931340D01*
X116272920Y-55902500D01*
X116272918Y-55902500D01*
X116125082Y-55902500D01*
X116125080Y-55902500D01*
X115980092Y-55931340D01*
X115980082Y-55931343D01*
X115846654Y-55986611D01*
X115777185Y-55994080D01*
X115714706Y-55962805D01*
X115701225Y-55946962D01*
X115700978Y-55947166D01*
X115697111Y-55942454D01*
X115599545Y-55844888D01*
X115599541Y-55844885D01*
X115484817Y-55768228D01*
X115484804Y-55768221D01*
X115357332Y-55715421D01*
X115357322Y-55715418D01*
X115221995Y-55688500D01*
X115221993Y-55688500D01*
X115084007Y-55688500D01*
X115084005Y-55688500D01*
X114948677Y-55715418D01*
X114948667Y-55715421D01*
X114821195Y-55768221D01*
X114821182Y-55768228D01*
X114706458Y-55844885D01*
X114706454Y-55844888D01*
X114608888Y-55942454D01*
X114608885Y-55942458D01*
X114532228Y-56057182D01*
X114532221Y-56057195D01*
X114479421Y-56184667D01*
X114479418Y-56184677D01*
X114452500Y-56320004D01*
X114452500Y-56320007D01*
X114452500Y-56457993D01*
X114452500Y-56457995D01*
X114452499Y-56457995D01*
X109694867Y-56457995D01*
X109621995Y-56443500D01*
X109621993Y-56443500D01*
X109484007Y-56443500D01*
X109484005Y-56443500D01*
X109348677Y-56470418D01*
X109348667Y-56470421D01*
X109221195Y-56523221D01*
X109221182Y-56523228D01*
X109106458Y-56599885D01*
X109106451Y-56599890D01*
X109100296Y-56606046D01*
X109078649Y-56617864D01*
X109059342Y-56633222D01*
X109048517Y-56634316D01*
X109038971Y-56639528D01*
X109014368Y-56637767D01*
X108989826Y-56640248D01*
X108980130Y-56635317D01*
X108969280Y-56634541D01*
X108949531Y-56619756D01*
X108927547Y-56608576D01*
X108920021Y-56597663D01*
X108913348Y-56592667D01*
X108905577Y-56580955D01*
X108901300Y-56573641D01*
X108873775Y-56507189D01*
X108797114Y-56392458D01*
X108792870Y-56388214D01*
X108792869Y-56388212D01*
X108699545Y-56294888D01*
X108699541Y-56294885D01*
X108584817Y-56218228D01*
X108584807Y-56218223D01*
X108517492Y-56190340D01*
X108463089Y-56146499D01*
X108450387Y-56123238D01*
X108422501Y-56055915D01*
X108422499Y-56055912D01*
X108422497Y-56055908D01*
X108345840Y-55941184D01*
X108345837Y-55941180D01*
X108248271Y-55843614D01*
X108248267Y-55843611D01*
X108133543Y-55766954D01*
X108133530Y-55766947D01*
X108006058Y-55714147D01*
X108006048Y-55714144D01*
X107870721Y-55687226D01*
X107870719Y-55687226D01*
X107732733Y-55687226D01*
X107732731Y-55687226D01*
X107597403Y-55714144D01*
X107597393Y-55714147D01*
X107469921Y-55766947D01*
X107469908Y-55766954D01*
X107355184Y-55843611D01*
X107355180Y-55843614D01*
X107257614Y-55941180D01*
X107257611Y-55941184D01*
X107180954Y-56055908D01*
X107180947Y-56055921D01*
X107128147Y-56183393D01*
X107128144Y-56183403D01*
X107101226Y-56318730D01*
X107101226Y-56318733D01*
X107101226Y-56456719D01*
X107101226Y-56456721D01*
X107101225Y-56456721D01*
X94366261Y-56456721D01*
X94373549Y-56420082D01*
X94388500Y-56344920D01*
X94388500Y-56197079D01*
X94359659Y-56052092D01*
X94359658Y-56052091D01*
X94359658Y-56052087D01*
X94327277Y-55973912D01*
X94303087Y-55915511D01*
X94303080Y-55915498D01*
X94220951Y-55792584D01*
X94220948Y-55792580D01*
X94116419Y-55688051D01*
X94116415Y-55688048D01*
X93993501Y-55605919D01*
X93993488Y-55605912D01*
X93856917Y-55549343D01*
X93856907Y-55549340D01*
X93711920Y-55520500D01*
X93711918Y-55520500D01*
X93564082Y-55520500D01*
X93564080Y-55520500D01*
X93419092Y-55549340D01*
X93419082Y-55549343D01*
X93282511Y-55605912D01*
X93282498Y-55605919D01*
X93159584Y-55688048D01*
X93159580Y-55688051D01*
X93055051Y-55792580D01*
X93055048Y-55792584D01*
X92972919Y-55915498D01*
X92972912Y-55915511D01*
X92916343Y-56052082D01*
X92916340Y-56052092D01*
X92887500Y-56197079D01*
X92887500Y-56197082D01*
X92887500Y-56344918D01*
X92887500Y-56344920D01*
X92887499Y-56344920D01*
X80153500Y-56344920D01*
X80153500Y-55332995D01*
X103677499Y-55332995D01*
X103704418Y-55468322D01*
X103704421Y-55468332D01*
X103757221Y-55595804D01*
X103757228Y-55595817D01*
X103833885Y-55710541D01*
X103833888Y-55710545D01*
X103931454Y-55808111D01*
X103931458Y-55808114D01*
X104046182Y-55884771D01*
X104046195Y-55884778D01*
X104124815Y-55917343D01*
X104173672Y-55937580D01*
X104173676Y-55937580D01*
X104173677Y-55937581D01*
X104309004Y-55964500D01*
X104309007Y-55964500D01*
X104446995Y-55964500D01*
X104538041Y-55946389D01*
X104582328Y-55937580D01*
X104709811Y-55884775D01*
X104824542Y-55808114D01*
X104922114Y-55710542D01*
X104998775Y-55595811D01*
X105051580Y-55468328D01*
X105078500Y-55332993D01*
X105078500Y-55195007D01*
X105078500Y-55195004D01*
X105051581Y-55059677D01*
X105051580Y-55059676D01*
X105051580Y-55059672D01*
X105006015Y-54949667D01*
X104998778Y-54932195D01*
X104998771Y-54932182D01*
X104922114Y-54817458D01*
X104922111Y-54817454D01*
X104824545Y-54719888D01*
X104824541Y-54719885D01*
X104709817Y-54643228D01*
X104709804Y-54643221D01*
X104582332Y-54590421D01*
X104582322Y-54590418D01*
X104446995Y-54563500D01*
X104446993Y-54563500D01*
X104309007Y-54563500D01*
X104309005Y-54563500D01*
X104173677Y-54590418D01*
X104173667Y-54590421D01*
X104046195Y-54643221D01*
X104046182Y-54643228D01*
X103931458Y-54719885D01*
X103931454Y-54719888D01*
X103833888Y-54817454D01*
X103833885Y-54817458D01*
X103757228Y-54932182D01*
X103757221Y-54932195D01*
X103704421Y-55059667D01*
X103704418Y-55059677D01*
X103677500Y-55195004D01*
X103677500Y-55195007D01*
X103677500Y-55332993D01*
X103677500Y-55332995D01*
X103677499Y-55332995D01*
X80153500Y-55332995D01*
X80153500Y-54537995D01*
X105652499Y-54537995D01*
X105679418Y-54673321D01*
X105679419Y-54673323D01*
X105679420Y-54673328D01*
X105707678Y-54741550D01*
X105715146Y-54811018D01*
X105707680Y-54836444D01*
X105679420Y-54904672D01*
X105679418Y-54904678D01*
X105652500Y-55040004D01*
X105652500Y-55040007D01*
X105652500Y-55177993D01*
X105652500Y-55177995D01*
X105652499Y-55177995D01*
X105679418Y-55313322D01*
X105679421Y-55313332D01*
X105732221Y-55440804D01*
X105732228Y-55440817D01*
X105808885Y-55555541D01*
X105808888Y-55555545D01*
X105906454Y-55653111D01*
X105906458Y-55653114D01*
X106021182Y-55729771D01*
X106021195Y-55729778D01*
X106114023Y-55768228D01*
X106148672Y-55782580D01*
X106148676Y-55782580D01*
X106148677Y-55782581D01*
X106284004Y-55809500D01*
X106284007Y-55809500D01*
X106421995Y-55809500D01*
X106513041Y-55791389D01*
X106557328Y-55782580D01*
X106684811Y-55729775D01*
X106799542Y-55653114D01*
X106897114Y-55555542D01*
X106973775Y-55440811D01*
X107026580Y-55313328D01*
X107035389Y-55269041D01*
X107044549Y-55222995D01*
X117977499Y-55222995D01*
X118004418Y-55358322D01*
X118004421Y-55358332D01*
X118057221Y-55485804D01*
X118057228Y-55485817D01*
X118133885Y-55600541D01*
X118133888Y-55600545D01*
X118231454Y-55698111D01*
X118231458Y-55698114D01*
X118346182Y-55774771D01*
X118346195Y-55774778D01*
X118473667Y-55827578D01*
X118473672Y-55827580D01*
X118473676Y-55827580D01*
X118473677Y-55827581D01*
X118609004Y-55854500D01*
X118609007Y-55854500D01*
X118746995Y-55854500D01*
X118838041Y-55836389D01*
X118882328Y-55827580D01*
X119009811Y-55774775D01*
X119124542Y-55698114D01*
X119222114Y-55600542D01*
X119298775Y-55485811D01*
X119351580Y-55358328D01*
X119378500Y-55222993D01*
X119378500Y-55085007D01*
X119378500Y-55085004D01*
X119351581Y-54949677D01*
X119351580Y-54949676D01*
X119351580Y-54949672D01*
X119344338Y-54932189D01*
X119298778Y-54822195D01*
X119298771Y-54822182D01*
X119222114Y-54707458D01*
X119222111Y-54707454D01*
X119124545Y-54609888D01*
X119124541Y-54609885D01*
X119009817Y-54533228D01*
X119009804Y-54533221D01*
X118882332Y-54480421D01*
X118882322Y-54480418D01*
X118746995Y-54453500D01*
X118746993Y-54453500D01*
X118609007Y-54453500D01*
X118609005Y-54453500D01*
X118473677Y-54480418D01*
X118473667Y-54480421D01*
X118346195Y-54533221D01*
X118346182Y-54533228D01*
X118231458Y-54609885D01*
X118231454Y-54609888D01*
X118133888Y-54707454D01*
X118133885Y-54707458D01*
X118057228Y-54822182D01*
X118057221Y-54822195D01*
X118004421Y-54949667D01*
X118004418Y-54949677D01*
X117977500Y-55085004D01*
X117977500Y-55085007D01*
X117977500Y-55222993D01*
X117977500Y-55222995D01*
X117977499Y-55222995D01*
X107044549Y-55222995D01*
X107053500Y-55177995D01*
X107053500Y-55040004D01*
X107026581Y-54904677D01*
X107026580Y-54904676D01*
X107026580Y-54904672D01*
X106998321Y-54836450D01*
X106990853Y-54766984D01*
X106998319Y-54741555D01*
X107026580Y-54673328D01*
X107039199Y-54609888D01*
X107053500Y-54537995D01*
X107053500Y-54400004D01*
X107026581Y-54264677D01*
X107026580Y-54264676D01*
X107026580Y-54264672D01*
X107017768Y-54243397D01*
X106973778Y-54137195D01*
X106973776Y-54137191D01*
X106973775Y-54137189D01*
X106945916Y-54095495D01*
X109414999Y-54095495D01*
X109441918Y-54230822D01*
X109441921Y-54230832D01*
X109494721Y-54358304D01*
X109494728Y-54358317D01*
X109571385Y-54473041D01*
X109571388Y-54473045D01*
X109668954Y-54570611D01*
X109668958Y-54570614D01*
X109783682Y-54647271D01*
X109783694Y-54647278D01*
X109842166Y-54671497D01*
X109896570Y-54715337D01*
X109909275Y-54738604D01*
X109933499Y-54797086D01*
X109933500Y-54797087D01*
X110010156Y-54911811D01*
X110010162Y-54911819D01*
X110107728Y-55009385D01*
X110107732Y-55009388D01*
X110222456Y-55086045D01*
X110222469Y-55086052D01*
X110349941Y-55138852D01*
X110349946Y-55138854D01*
X110349950Y-55138854D01*
X110349951Y-55138855D01*
X110485278Y-55165774D01*
X110485281Y-55165774D01*
X110623269Y-55165774D01*
X110714315Y-55147663D01*
X110758602Y-55138854D01*
X110886085Y-55086049D01*
X111000816Y-55009388D01*
X111000819Y-55009385D01*
X111018971Y-54991234D01*
X111098385Y-54911819D01*
X111098388Y-54911816D01*
X111175049Y-54797085D01*
X111227854Y-54669602D01*
X111243604Y-54590421D01*
X111254774Y-54534269D01*
X111254774Y-54396278D01*
X111227855Y-54260951D01*
X111227854Y-54260950D01*
X111227854Y-54260946D01*
X111220582Y-54243390D01*
X111175052Y-54133469D01*
X111175045Y-54133456D01*
X111098388Y-54018732D01*
X111098385Y-54018728D01*
X111000819Y-53921162D01*
X111000811Y-53921156D01*
X110886087Y-53844500D01*
X110886086Y-53844499D01*
X110827604Y-53820275D01*
X110773201Y-53776433D01*
X110760497Y-53753166D01*
X110736278Y-53694694D01*
X110736271Y-53694682D01*
X110659614Y-53579958D01*
X110659611Y-53579954D01*
X110562045Y-53482388D01*
X110562041Y-53482385D01*
X110447317Y-53405728D01*
X110447304Y-53405721D01*
X110319832Y-53352921D01*
X110319822Y-53352918D01*
X110184495Y-53326000D01*
X110184493Y-53326000D01*
X110046507Y-53326000D01*
X110046505Y-53326000D01*
X109911177Y-53352918D01*
X109911167Y-53352921D01*
X109783695Y-53405721D01*
X109783682Y-53405728D01*
X109668958Y-53482385D01*
X109668954Y-53482388D01*
X109571388Y-53579954D01*
X109571385Y-53579958D01*
X109494728Y-53694682D01*
X109494721Y-53694695D01*
X109441921Y-53822167D01*
X109441918Y-53822177D01*
X109415000Y-53957504D01*
X109415000Y-53957507D01*
X109415000Y-54095493D01*
X109415000Y-54095495D01*
X109414999Y-54095495D01*
X106945916Y-54095495D01*
X106897114Y-54022458D01*
X106897112Y-54022455D01*
X106799545Y-53924888D01*
X106799541Y-53924885D01*
X106684817Y-53848228D01*
X106684804Y-53848221D01*
X106557332Y-53795421D01*
X106557322Y-53795418D01*
X106421995Y-53768500D01*
X106421993Y-53768500D01*
X106284007Y-53768500D01*
X106284005Y-53768500D01*
X106148677Y-53795418D01*
X106148667Y-53795421D01*
X106021195Y-53848221D01*
X106021182Y-53848228D01*
X105906458Y-53924885D01*
X105906454Y-53924888D01*
X105808888Y-54022454D01*
X105808885Y-54022458D01*
X105732228Y-54137182D01*
X105732221Y-54137195D01*
X105679421Y-54264667D01*
X105679418Y-54264677D01*
X105652500Y-54400004D01*
X105652500Y-54400007D01*
X105652500Y-54537993D01*
X105652500Y-54537995D01*
X105652499Y-54537995D01*
X80153500Y-54537995D01*
X80153500Y-53455153D01*
X81872500Y-53455153D01*
X81872500Y-53612846D01*
X81903261Y-53767489D01*
X81903264Y-53767501D01*
X81963602Y-53913172D01*
X81963609Y-53913185D01*
X82051210Y-54044288D01*
X82051213Y-54044292D01*
X82162707Y-54155786D01*
X82162711Y-54155789D01*
X82293814Y-54243390D01*
X82293827Y-54243397D01*
X82377643Y-54278114D01*
X82439503Y-54303737D01*
X82594153Y-54334499D01*
X82594156Y-54334500D01*
X82594158Y-54334500D01*
X82751844Y-54334500D01*
X82751845Y-54334499D01*
X82906497Y-54303737D01*
X83052179Y-54243394D01*
X83183289Y-54155789D01*
X83294789Y-54044289D01*
X83382394Y-53913179D01*
X83430550Y-53796920D01*
X93875487Y-53796920D01*
X93904328Y-53941907D01*
X93904331Y-53941917D01*
X93960900Y-54078488D01*
X93960907Y-54078501D01*
X94043036Y-54201415D01*
X94043039Y-54201419D01*
X94147568Y-54305948D01*
X94147572Y-54305951D01*
X94270486Y-54388080D01*
X94270499Y-54388087D01*
X94382551Y-54434500D01*
X94407075Y-54444658D01*
X94407079Y-54444658D01*
X94407080Y-54444659D01*
X94552067Y-54473500D01*
X94552070Y-54473500D01*
X94699908Y-54473500D01*
X94800450Y-54453500D01*
X94844901Y-54444658D01*
X94981483Y-54388084D01*
X95104404Y-54305951D01*
X95208939Y-54201416D01*
X95291072Y-54078495D01*
X95347646Y-53941913D01*
X95367023Y-53844500D01*
X95376488Y-53796920D01*
X95376488Y-53649079D01*
X95347647Y-53504092D01*
X95347646Y-53504091D01*
X95347646Y-53504087D01*
X95345986Y-53500080D01*
X95291075Y-53367511D01*
X95291068Y-53367498D01*
X95208939Y-53244584D01*
X95208936Y-53244580D01*
X95104407Y-53140051D01*
X95104403Y-53140048D01*
X94981489Y-53057919D01*
X94981476Y-53057912D01*
X94844905Y-53001343D01*
X94844895Y-53001340D01*
X94699908Y-52972500D01*
X94699906Y-52972500D01*
X94552070Y-52972500D01*
X94552068Y-52972500D01*
X94407080Y-53001340D01*
X94407070Y-53001343D01*
X94270499Y-53057912D01*
X94270486Y-53057919D01*
X94147572Y-53140048D01*
X94147568Y-53140051D01*
X94043039Y-53244580D01*
X94043036Y-53244584D01*
X93960907Y-53367498D01*
X93960900Y-53367511D01*
X93904331Y-53504082D01*
X93904328Y-53504092D01*
X93875488Y-53649079D01*
X93875488Y-53649082D01*
X93875488Y-53796918D01*
X93875488Y-53796920D01*
X93875487Y-53796920D01*
X83430550Y-53796920D01*
X83442737Y-53767497D01*
X83448934Y-53736339D01*
X83472316Y-53618798D01*
X83473500Y-53612843D01*
X83473500Y-53455155D01*
X83473499Y-53455153D01*
X83463831Y-53406548D01*
X83442737Y-53300503D01*
X83431364Y-53273045D01*
X83382397Y-53154827D01*
X83382390Y-53154814D01*
X83294789Y-53023711D01*
X83294786Y-53023707D01*
X83183292Y-52912213D01*
X83183288Y-52912210D01*
X83052185Y-52824609D01*
X83052172Y-52824602D01*
X82906501Y-52764264D01*
X82906489Y-52764261D01*
X82751845Y-52733500D01*
X82751842Y-52733500D01*
X82594158Y-52733500D01*
X82594155Y-52733500D01*
X82439510Y-52764261D01*
X82439498Y-52764264D01*
X82293827Y-52824602D01*
X82293814Y-52824609D01*
X82162711Y-52912210D01*
X82162707Y-52912213D01*
X82051213Y-53023707D01*
X82051210Y-53023711D01*
X81963609Y-53154814D01*
X81963602Y-53154827D01*
X81903264Y-53300498D01*
X81903261Y-53300510D01*
X81872500Y-53455153D01*
X80153500Y-53455153D01*
X80153500Y-51455153D01*
X81872500Y-51455153D01*
X81872500Y-51612846D01*
X81903261Y-51767489D01*
X81903264Y-51767501D01*
X81963602Y-51913172D01*
X81963609Y-51913185D01*
X82051210Y-52044288D01*
X82051213Y-52044292D01*
X82162707Y-52155786D01*
X82162711Y-52155789D01*
X82293814Y-52243390D01*
X82293827Y-52243397D01*
X82438931Y-52303500D01*
X82439503Y-52303737D01*
X82594153Y-52334499D01*
X82594156Y-52334500D01*
X82594158Y-52334500D01*
X82751844Y-52334500D01*
X82751845Y-52334499D01*
X82906497Y-52303737D01*
X83052179Y-52243394D01*
X83082708Y-52222995D01*
X96657499Y-52222995D01*
X96684418Y-52358322D01*
X96684421Y-52358332D01*
X96737221Y-52485804D01*
X96737228Y-52485817D01*
X96810255Y-52595109D01*
X96831133Y-52661787D01*
X96812648Y-52729167D01*
X96810255Y-52732891D01*
X96737228Y-52842182D01*
X96737221Y-52842195D01*
X96684421Y-52969667D01*
X96684418Y-52969677D01*
X96657500Y-53105004D01*
X96657500Y-53105007D01*
X96657500Y-53242993D01*
X96657500Y-53242995D01*
X96657499Y-53242995D01*
X96684418Y-53378321D01*
X96684420Y-53378329D01*
X96696109Y-53406548D01*
X96703578Y-53476018D01*
X96696109Y-53501452D01*
X96684420Y-53529670D01*
X96684418Y-53529678D01*
X96657500Y-53665004D01*
X96657500Y-53665007D01*
X96657500Y-53802993D01*
X96657500Y-53802995D01*
X96657499Y-53802995D01*
X96684418Y-53938322D01*
X96684421Y-53938332D01*
X96737221Y-54065804D01*
X96737228Y-54065817D01*
X96813885Y-54180541D01*
X96813888Y-54180545D01*
X96911454Y-54278111D01*
X96911458Y-54278114D01*
X97026182Y-54354771D01*
X97026195Y-54354778D01*
X97135382Y-54400004D01*
X97153672Y-54407580D01*
X97153676Y-54407580D01*
X97153677Y-54407581D01*
X97289004Y-54434500D01*
X97289007Y-54434500D01*
X97426995Y-54434500D01*
X97518041Y-54416389D01*
X97562328Y-54407580D01*
X97689811Y-54354775D01*
X97804542Y-54278114D01*
X97902114Y-54180542D01*
X97978775Y-54065811D01*
X98031580Y-53938328D01*
X98054686Y-53822167D01*
X98058500Y-53802995D01*
X98058500Y-53665004D01*
X98031581Y-53529677D01*
X98031580Y-53529676D01*
X98031580Y-53529672D01*
X98019890Y-53501452D01*
X98012422Y-53431984D01*
X98019891Y-53406547D01*
X98020230Y-53405728D01*
X98031580Y-53378328D01*
X98047059Y-53300510D01*
X98058500Y-53242995D01*
X98058500Y-53105004D01*
X98031581Y-52969677D01*
X98031580Y-52969676D01*
X98031580Y-52969672D01*
X98000855Y-52895495D01*
X112239999Y-52895495D01*
X112266918Y-53030822D01*
X112266921Y-53030832D01*
X112319721Y-53158304D01*
X112319728Y-53158317D01*
X112396385Y-53273041D01*
X112396388Y-53273045D01*
X112493954Y-53370611D01*
X112493958Y-53370614D01*
X112608682Y-53447271D01*
X112608695Y-53447278D01*
X112736167Y-53500078D01*
X112736172Y-53500080D01*
X112736176Y-53500080D01*
X112736177Y-53500081D01*
X112871504Y-53527000D01*
X112871507Y-53527000D01*
X113009495Y-53527000D01*
X113124658Y-53504092D01*
X113144828Y-53500080D01*
X113272311Y-53447275D01*
X113387042Y-53370614D01*
X113484614Y-53273042D01*
X113561275Y-53158311D01*
X113562724Y-53154814D01*
X113583355Y-53105004D01*
X113614080Y-53030828D01*
X113641000Y-52895493D01*
X113641000Y-52757507D01*
X113641000Y-52757504D01*
X113614081Y-52622177D01*
X113614080Y-52622176D01*
X113614080Y-52622172D01*
X113586153Y-52554751D01*
X113578685Y-52485287D01*
X113606981Y-52428754D01*
X113605753Y-52427746D01*
X113609616Y-52423039D01*
X113686271Y-52308317D01*
X113686271Y-52308316D01*
X113686275Y-52308311D01*
X113688171Y-52303735D01*
X113713166Y-52243390D01*
X113739080Y-52180828D01*
X113747889Y-52136541D01*
X113766000Y-52045495D01*
X113766000Y-51907504D01*
X113739081Y-51772177D01*
X113739080Y-51772176D01*
X113739080Y-51772172D01*
X113723402Y-51734322D01*
X113686278Y-51644695D01*
X113686271Y-51644682D01*
X113609614Y-51529958D01*
X113609611Y-51529954D01*
X113512045Y-51432388D01*
X113512041Y-51432385D01*
X113397317Y-51355728D01*
X113397304Y-51355721D01*
X113269832Y-51302921D01*
X113269822Y-51302918D01*
X113134495Y-51276000D01*
X113134493Y-51276000D01*
X112996507Y-51276000D01*
X112996505Y-51276000D01*
X112861177Y-51302918D01*
X112861167Y-51302921D01*
X112733695Y-51355721D01*
X112733682Y-51355728D01*
X112618958Y-51432385D01*
X112618954Y-51432388D01*
X112521388Y-51529954D01*
X112521385Y-51529958D01*
X112444728Y-51644682D01*
X112444721Y-51644695D01*
X112391921Y-51772167D01*
X112391918Y-51772177D01*
X112365000Y-51907504D01*
X112365000Y-51907507D01*
X112365000Y-52045493D01*
X112365000Y-52045495D01*
X112364999Y-52045495D01*
X112391918Y-52180822D01*
X112391920Y-52180828D01*
X112409710Y-52223778D01*
X112419845Y-52248244D01*
X112427314Y-52317713D01*
X112399016Y-52374244D01*
X112400247Y-52375254D01*
X112396383Y-52379961D01*
X112319728Y-52494682D01*
X112319721Y-52494695D01*
X112266921Y-52622167D01*
X112266918Y-52622177D01*
X112240000Y-52757504D01*
X112240000Y-52757507D01*
X112240000Y-52895493D01*
X112240000Y-52895495D01*
X112239999Y-52895495D01*
X98000855Y-52895495D01*
X98000854Y-52895493D01*
X97978778Y-52842195D01*
X97978771Y-52842182D01*
X97964155Y-52820308D01*
X97964154Y-52820307D01*
X97922190Y-52757504D01*
X97905743Y-52732889D01*
X97884866Y-52666214D01*
X97903350Y-52598834D01*
X97905744Y-52595109D01*
X97932707Y-52554756D01*
X97978775Y-52485811D01*
X98031580Y-52358328D01*
X98047841Y-52276578D01*
X98058500Y-52222995D01*
X98058500Y-52085004D01*
X98044032Y-52012272D01*
X98050259Y-51942680D01*
X98077968Y-51900398D01*
X98078412Y-51899953D01*
X98078416Y-51899951D01*
X98182951Y-51795416D01*
X98265084Y-51672495D01*
X98276605Y-51644682D01*
X98281397Y-51633111D01*
X98321658Y-51535913D01*
X98342251Y-51432388D01*
X98350500Y-51390920D01*
X98350500Y-51243079D01*
X98321659Y-51098092D01*
X98321658Y-51098091D01*
X98321658Y-51098087D01*
X98305421Y-51058888D01*
X98265087Y-50961511D01*
X98265080Y-50961498D01*
X98182951Y-50838584D01*
X98182948Y-50838580D01*
X98078419Y-50734051D01*
X98078415Y-50734048D01*
X97955501Y-50651919D01*
X97955488Y-50651912D01*
X97818917Y-50595343D01*
X97818907Y-50595340D01*
X97673920Y-50566500D01*
X97673918Y-50566500D01*
X97526082Y-50566500D01*
X97526080Y-50566500D01*
X97381092Y-50595340D01*
X97381082Y-50595343D01*
X97244511Y-50651912D01*
X97244498Y-50651919D01*
X97121584Y-50734048D01*
X97121580Y-50734051D01*
X97017051Y-50838580D01*
X97017048Y-50838584D01*
X96934919Y-50961498D01*
X96934912Y-50961511D01*
X96878343Y-51098082D01*
X96878340Y-51098092D01*
X96849500Y-51243079D01*
X96849500Y-51243082D01*
X96849500Y-51390918D01*
X96849500Y-51390920D01*
X96849499Y-51390920D01*
X96878340Y-51535906D01*
X96880109Y-51541736D01*
X96878762Y-51542144D01*
X96885465Y-51604577D01*
X96854181Y-51667051D01*
X96851122Y-51670220D01*
X96813888Y-51707455D01*
X96813883Y-51707461D01*
X96737228Y-51822182D01*
X96737221Y-51822195D01*
X96684421Y-51949667D01*
X96684418Y-51949677D01*
X96657500Y-52085004D01*
X96657500Y-52085007D01*
X96657500Y-52222993D01*
X96657500Y-52222995D01*
X96657499Y-52222995D01*
X83082708Y-52222995D01*
X83183289Y-52155789D01*
X83294789Y-52044289D01*
X83382394Y-51913179D01*
X83442737Y-51767497D01*
X83473500Y-51612842D01*
X83473500Y-51455158D01*
X83473500Y-51455155D01*
X83473499Y-51455153D01*
X83466668Y-51420811D01*
X83442737Y-51300503D01*
X83442735Y-51300498D01*
X83382397Y-51154827D01*
X83382390Y-51154814D01*
X83294789Y-51023711D01*
X83294786Y-51023707D01*
X83183292Y-50912213D01*
X83183288Y-50912210D01*
X83052185Y-50824609D01*
X83052172Y-50824602D01*
X82906501Y-50764264D01*
X82906489Y-50764261D01*
X82751845Y-50733500D01*
X82751842Y-50733500D01*
X82594158Y-50733500D01*
X82594155Y-50733500D01*
X82439510Y-50764261D01*
X82439498Y-50764264D01*
X82293827Y-50824602D01*
X82293814Y-50824609D01*
X82162711Y-50912210D01*
X82162707Y-50912213D01*
X82051213Y-51023707D01*
X82051210Y-51023711D01*
X81963609Y-51154814D01*
X81963602Y-51154827D01*
X81903264Y-51300498D01*
X81903261Y-51300510D01*
X81872500Y-51455153D01*
X80153500Y-51455153D01*
X80153500Y-50013995D01*
X87579499Y-50013995D01*
X87606418Y-50149322D01*
X87606421Y-50149332D01*
X87659221Y-50276804D01*
X87659228Y-50276817D01*
X87735885Y-50391541D01*
X87735888Y-50391545D01*
X87833454Y-50489111D01*
X87833458Y-50489114D01*
X87948182Y-50565771D01*
X87948195Y-50565778D01*
X88056266Y-50610542D01*
X88075672Y-50618580D01*
X88075676Y-50618580D01*
X88075677Y-50618581D01*
X88211004Y-50645500D01*
X88211007Y-50645500D01*
X88348995Y-50645500D01*
X88440041Y-50627389D01*
X88484328Y-50618580D01*
X88611811Y-50565775D01*
X88726542Y-50489114D01*
X88824114Y-50391542D01*
X88900775Y-50276811D01*
X88953580Y-50149328D01*
X88968963Y-50071995D01*
X102915487Y-50071995D01*
X102942406Y-50207322D01*
X102942409Y-50207332D01*
X102995211Y-50334809D01*
X102998083Y-50340181D01*
X102996853Y-50340837D01*
X103015622Y-50400805D01*
X102997814Y-50465675D01*
X102998083Y-50465819D01*
X102997451Y-50467000D01*
X102997127Y-50468182D01*
X102995304Y-50471017D01*
X102995211Y-50471190D01*
X102942409Y-50598667D01*
X102942406Y-50598677D01*
X102915488Y-50734004D01*
X102915488Y-50734007D01*
X102915488Y-50871993D01*
X102915488Y-50871995D01*
X102915487Y-50871995D01*
X102942406Y-51007322D01*
X102942409Y-51007332D01*
X102995209Y-51134804D01*
X102995216Y-51134817D01*
X103071873Y-51249541D01*
X103071876Y-51249545D01*
X103169442Y-51347111D01*
X103169446Y-51347114D01*
X103284170Y-51423771D01*
X103284183Y-51423778D01*
X103411655Y-51476578D01*
X103411660Y-51476580D01*
X103411664Y-51476580D01*
X103411665Y-51476581D01*
X103546992Y-51503500D01*
X103591488Y-51503500D01*
X103658527Y-51523185D01*
X103704282Y-51575989D01*
X103715488Y-51627500D01*
X103715488Y-51671993D01*
X103715488Y-51671995D01*
X103715487Y-51671995D01*
X103742406Y-51807322D01*
X103742409Y-51807332D01*
X103795209Y-51934804D01*
X103795216Y-51934817D01*
X103871873Y-52049541D01*
X103871876Y-52049545D01*
X103969442Y-52147111D01*
X103969446Y-52147114D01*
X104084170Y-52223771D01*
X104084183Y-52223778D01*
X104211655Y-52276578D01*
X104211660Y-52276580D01*
X104211664Y-52276580D01*
X104211665Y-52276581D01*
X104346992Y-52303500D01*
X104346995Y-52303500D01*
X104484983Y-52303500D01*
X104576029Y-52285389D01*
X104620316Y-52276580D01*
X104747799Y-52223775D01*
X104747804Y-52223771D01*
X104753166Y-52220906D01*
X104753825Y-52222139D01*
X104813760Y-52203365D01*
X104878671Y-52221164D01*
X104878810Y-52220906D01*
X104879947Y-52221514D01*
X104881143Y-52221842D01*
X104884019Y-52223690D01*
X104884181Y-52223777D01*
X105011655Y-52276578D01*
X105011660Y-52276580D01*
X105011664Y-52276580D01*
X105011665Y-52276581D01*
X105146992Y-52303500D01*
X105146995Y-52303500D01*
X105284983Y-52303500D01*
X105376029Y-52285389D01*
X105420316Y-52276580D01*
X105547799Y-52223775D01*
X105547804Y-52223771D01*
X105553166Y-52220906D01*
X105553825Y-52222139D01*
X105613760Y-52203365D01*
X105678671Y-52221164D01*
X105678810Y-52220906D01*
X105679947Y-52221514D01*
X105681143Y-52221842D01*
X105684019Y-52223690D01*
X105684181Y-52223777D01*
X105811655Y-52276578D01*
X105811660Y-52276580D01*
X105811664Y-52276580D01*
X105811665Y-52276581D01*
X105946992Y-52303500D01*
X105946995Y-52303500D01*
X106084983Y-52303500D01*
X106176029Y-52285389D01*
X106220316Y-52276580D01*
X106347799Y-52223775D01*
X106462530Y-52147114D01*
X106560102Y-52049542D01*
X106636763Y-51934811D01*
X106689568Y-51807328D01*
X106708973Y-51709775D01*
X106716488Y-51671995D01*
X106716488Y-51534004D01*
X106689569Y-51398677D01*
X106689568Y-51398676D01*
X106689568Y-51398672D01*
X106649907Y-51302921D01*
X106636766Y-51271195D01*
X106636759Y-51271182D01*
X106561129Y-51157995D01*
X114887499Y-51157995D01*
X114914418Y-51293322D01*
X114914421Y-51293332D01*
X114967221Y-51420804D01*
X114967228Y-51420817D01*
X115043885Y-51535541D01*
X115043888Y-51535545D01*
X115141454Y-51633111D01*
X115141458Y-51633114D01*
X115256182Y-51709771D01*
X115256195Y-51709778D01*
X115383667Y-51762578D01*
X115383672Y-51762580D01*
X115383676Y-51762580D01*
X115383677Y-51762581D01*
X115519004Y-51789500D01*
X115519007Y-51789500D01*
X115656995Y-51789500D01*
X115748041Y-51771389D01*
X115792328Y-51762580D01*
X115860549Y-51734321D01*
X115930016Y-51726853D01*
X115955444Y-51734319D01*
X116023672Y-51762580D01*
X116023676Y-51762580D01*
X116023677Y-51762581D01*
X116159004Y-51789500D01*
X116159007Y-51789500D01*
X116296995Y-51789500D01*
X116388041Y-51771389D01*
X116432328Y-51762580D01*
X116559811Y-51709775D01*
X116674542Y-51633114D01*
X116772114Y-51535542D01*
X116797920Y-51496920D01*
X118255487Y-51496920D01*
X118284328Y-51641907D01*
X118284331Y-51641917D01*
X118340900Y-51778488D01*
X118340907Y-51778501D01*
X118423036Y-51901415D01*
X118423039Y-51901419D01*
X118527568Y-52005948D01*
X118527572Y-52005951D01*
X118650486Y-52088080D01*
X118650499Y-52088087D01*
X118787070Y-52144656D01*
X118787075Y-52144658D01*
X118787079Y-52144658D01*
X118787080Y-52144659D01*
X118932067Y-52173500D01*
X118932070Y-52173500D01*
X119079908Y-52173500D01*
X119177450Y-52154096D01*
X119224901Y-52144658D01*
X119361483Y-52088084D01*
X119484404Y-52005951D01*
X119588939Y-51901416D01*
X119671072Y-51778495D01*
X119727646Y-51641913D01*
X119747573Y-51541736D01*
X119756488Y-51496920D01*
X119756488Y-51349079D01*
X119727647Y-51204092D01*
X119727646Y-51204091D01*
X119727646Y-51204087D01*
X119708554Y-51157995D01*
X119671075Y-51067511D01*
X119671068Y-51067498D01*
X119588939Y-50944584D01*
X119588936Y-50944580D01*
X119484407Y-50840051D01*
X119484403Y-50840048D01*
X119361489Y-50757919D01*
X119361476Y-50757912D01*
X119224905Y-50701343D01*
X119224895Y-50701340D01*
X119079908Y-50672500D01*
X119079906Y-50672500D01*
X118932070Y-50672500D01*
X118932068Y-50672500D01*
X118787080Y-50701340D01*
X118787070Y-50701343D01*
X118650499Y-50757912D01*
X118650486Y-50757919D01*
X118527572Y-50840048D01*
X118527568Y-50840051D01*
X118423039Y-50944580D01*
X118423036Y-50944584D01*
X118340907Y-51067498D01*
X118340900Y-51067511D01*
X118284331Y-51204082D01*
X118284328Y-51204092D01*
X118255488Y-51349079D01*
X118255488Y-51349082D01*
X118255488Y-51496918D01*
X118255488Y-51496920D01*
X118255487Y-51496920D01*
X116797920Y-51496920D01*
X116848775Y-51420811D01*
X116875733Y-51355728D01*
X116900665Y-51295538D01*
X116901578Y-51293332D01*
X116901580Y-51293328D01*
X116928500Y-51157993D01*
X116928500Y-51020007D01*
X116928500Y-51020004D01*
X116901581Y-50884677D01*
X116901580Y-50884676D01*
X116901580Y-50884672D01*
X116848775Y-50757189D01*
X116844983Y-50751514D01*
X116824104Y-50684839D01*
X116842587Y-50617458D01*
X116844983Y-50613730D01*
X116847111Y-50610544D01*
X116847114Y-50610542D01*
X116923775Y-50495811D01*
X116976580Y-50368328D01*
X116994784Y-50276811D01*
X117003500Y-50232995D01*
X117003500Y-50095004D01*
X116976581Y-49959677D01*
X116976580Y-49959676D01*
X116976580Y-49959672D01*
X116955482Y-49908737D01*
X116923778Y-49832195D01*
X116923771Y-49832182D01*
X116858778Y-49734914D01*
X116837900Y-49668237D01*
X116856384Y-49600857D01*
X116866033Y-49587350D01*
X116869762Y-49582805D01*
X116869771Y-49582797D01*
X116946432Y-49468066D01*
X116950235Y-49458886D01*
X116974259Y-49400885D01*
X116999237Y-49340583D01*
X117012994Y-49271421D01*
X117026157Y-49205250D01*
X117026157Y-49067261D01*
X117018720Y-49029874D01*
X117011650Y-48994333D01*
X117017876Y-48924745D01*
X117018656Y-48922812D01*
X117051580Y-48843328D01*
X117066161Y-48770024D01*
X117078500Y-48707995D01*
X117078500Y-48570004D01*
X117051581Y-48434677D01*
X117051580Y-48434676D01*
X117051580Y-48434672D01*
X117024745Y-48369886D01*
X116998778Y-48307195D01*
X116998771Y-48307182D01*
X116922114Y-48192458D01*
X116922111Y-48192454D01*
X116824545Y-48094888D01*
X116824541Y-48094885D01*
X116721770Y-48026215D01*
X116676965Y-47972603D01*
X116668258Y-47903278D01*
X116698413Y-47840250D01*
X116721772Y-47820010D01*
X116738127Y-47809082D01*
X116754542Y-47798114D01*
X116852114Y-47700542D01*
X116928775Y-47585811D01*
X116981580Y-47458328D01*
X117003703Y-47347111D01*
X117008500Y-47322995D01*
X117008500Y-47185004D01*
X116981581Y-47049677D01*
X116981580Y-47049676D01*
X116981580Y-47049672D01*
X116972815Y-47028511D01*
X116928778Y-46922195D01*
X116928771Y-46922182D01*
X116852113Y-46807457D01*
X116848263Y-46802765D01*
X116820950Y-46738455D01*
X116832741Y-46669587D01*
X116856434Y-46636420D01*
X116861439Y-46631416D01*
X116943572Y-46508495D01*
X117000146Y-46371913D01*
X117015524Y-46294606D01*
X117028988Y-46226920D01*
X117028988Y-46079079D01*
X117000147Y-45934092D01*
X117000146Y-45934091D01*
X117000146Y-45934087D01*
X116997741Y-45928281D01*
X116943575Y-45797511D01*
X116943568Y-45797498D01*
X116894763Y-45724457D01*
X117902987Y-45724457D01*
X117930867Y-45864614D01*
X117930869Y-45864620D01*
X117985557Y-45996650D01*
X117985562Y-45996659D01*
X118064955Y-46115478D01*
X118064958Y-46115482D01*
X118166005Y-46216529D01*
X118166009Y-46216532D01*
X118284828Y-46295925D01*
X118284834Y-46295928D01*
X118284835Y-46295929D01*
X118416868Y-46350619D01*
X118416872Y-46350619D01*
X118416873Y-46350620D01*
X118557030Y-46378500D01*
X118557033Y-46378500D01*
X118699945Y-46378500D01*
X118794239Y-46359742D01*
X118840108Y-46350619D01*
X118972141Y-46295929D01*
X119090967Y-46216532D01*
X119192020Y-46115479D01*
X119271417Y-45996653D01*
X119326107Y-45864620D01*
X119344962Y-45769831D01*
X119353988Y-45724457D01*
X119353988Y-45714800D01*
X120398156Y-45714800D01*
X120426036Y-45854957D01*
X120426038Y-45854963D01*
X120480726Y-45986993D01*
X120480731Y-45987002D01*
X120560124Y-46105821D01*
X120560127Y-46105825D01*
X120661174Y-46206872D01*
X120661178Y-46206875D01*
X120779997Y-46286268D01*
X120780003Y-46286271D01*
X120780004Y-46286272D01*
X120912037Y-46340962D01*
X120912041Y-46340962D01*
X120912042Y-46340963D01*
X121052199Y-46368843D01*
X121052202Y-46368843D01*
X121195114Y-46368843D01*
X121289408Y-46350085D01*
X121335277Y-46340962D01*
X121467310Y-46286272D01*
X121586136Y-46206875D01*
X121687189Y-46105822D01*
X121766586Y-45986996D01*
X121821276Y-45854963D01*
X121832770Y-45797180D01*
X121849157Y-45714800D01*
X121849157Y-45571885D01*
X121821277Y-45431728D01*
X121821276Y-45431727D01*
X121821276Y-45431723D01*
X121770583Y-45309340D01*
X121766587Y-45299692D01*
X121766582Y-45299683D01*
X121687189Y-45180864D01*
X121687186Y-45180860D01*
X121586139Y-45079813D01*
X121586135Y-45079810D01*
X121467316Y-45000417D01*
X121467307Y-45000412D01*
X121335277Y-44945724D01*
X121335271Y-44945722D01*
X121195114Y-44917843D01*
X121195112Y-44917843D01*
X121052202Y-44917843D01*
X121052200Y-44917843D01*
X120912042Y-44945722D01*
X120912036Y-44945724D01*
X120780006Y-45000412D01*
X120779997Y-45000417D01*
X120661178Y-45079810D01*
X120661174Y-45079813D01*
X120560127Y-45180860D01*
X120560124Y-45180864D01*
X120480731Y-45299683D01*
X120480726Y-45299692D01*
X120426038Y-45431722D01*
X120426036Y-45431728D01*
X120398157Y-45571885D01*
X120398157Y-45571888D01*
X120398157Y-45714798D01*
X120398157Y-45714800D01*
X120398156Y-45714800D01*
X119353988Y-45714800D01*
X119353988Y-45581542D01*
X119326108Y-45441385D01*
X119326107Y-45441384D01*
X119326107Y-45441380D01*
X119271417Y-45309347D01*
X119271416Y-45309346D01*
X119271413Y-45309340D01*
X119192020Y-45190521D01*
X119192017Y-45190517D01*
X119090970Y-45089470D01*
X119090966Y-45089467D01*
X118972147Y-45010074D01*
X118972138Y-45010069D01*
X118840108Y-44955381D01*
X118840102Y-44955379D01*
X118699945Y-44927500D01*
X118699943Y-44927500D01*
X118557033Y-44927500D01*
X118557031Y-44927500D01*
X118416873Y-44955379D01*
X118416867Y-44955381D01*
X118284837Y-45010069D01*
X118284828Y-45010074D01*
X118166009Y-45089467D01*
X118166005Y-45089470D01*
X118064958Y-45190517D01*
X118064955Y-45190521D01*
X117985562Y-45309340D01*
X117985557Y-45309349D01*
X117930869Y-45441379D01*
X117930867Y-45441385D01*
X117902988Y-45581542D01*
X117902988Y-45581545D01*
X117902988Y-45724455D01*
X117902988Y-45724457D01*
X117902987Y-45724457D01*
X116894763Y-45724457D01*
X116861439Y-45674584D01*
X116861436Y-45674580D01*
X116756907Y-45570051D01*
X116756903Y-45570048D01*
X116633989Y-45487919D01*
X116633976Y-45487912D01*
X116497405Y-45431343D01*
X116497395Y-45431340D01*
X116352408Y-45402500D01*
X116352406Y-45402500D01*
X116204570Y-45402500D01*
X116204568Y-45402500D01*
X116059580Y-45431340D01*
X116059570Y-45431343D01*
X115922999Y-45487912D01*
X115922986Y-45487919D01*
X115800072Y-45570048D01*
X115800068Y-45570051D01*
X115695539Y-45674580D01*
X115695536Y-45674584D01*
X115613407Y-45797498D01*
X115613400Y-45797511D01*
X115556831Y-45934082D01*
X115556828Y-45934092D01*
X115527988Y-46079079D01*
X115527988Y-46079082D01*
X115527988Y-46226918D01*
X115527988Y-46226920D01*
X115527987Y-46226920D01*
X115556828Y-46371907D01*
X115556831Y-46371917D01*
X115613400Y-46508488D01*
X115613407Y-46508501D01*
X115695536Y-46631415D01*
X115695539Y-46631419D01*
X115735062Y-46670941D01*
X115768548Y-46732264D01*
X115763564Y-46801955D01*
X115750484Y-46827514D01*
X115687228Y-46922182D01*
X115687221Y-46922195D01*
X115634421Y-47049667D01*
X115634418Y-47049677D01*
X115607500Y-47185004D01*
X115607500Y-47185007D01*
X115607500Y-47322993D01*
X115607500Y-47322995D01*
X115607499Y-47322995D01*
X115634418Y-47458322D01*
X115634421Y-47458332D01*
X115687221Y-47585804D01*
X115687228Y-47585817D01*
X115763885Y-47700541D01*
X115763888Y-47700545D01*
X115861454Y-47798111D01*
X115861458Y-47798114D01*
X115964229Y-47866784D01*
X116009034Y-47920396D01*
X116017741Y-47989721D01*
X115987586Y-48052749D01*
X115964230Y-48072987D01*
X115931460Y-48094883D01*
X115931454Y-48094888D01*
X115833888Y-48192454D01*
X115833885Y-48192458D01*
X115757228Y-48307182D01*
X115757221Y-48307195D01*
X115704421Y-48434667D01*
X115704418Y-48434677D01*
X115677500Y-48570004D01*
X115677500Y-48570007D01*
X115677500Y-48707993D01*
X115677833Y-48709667D01*
X115692006Y-48780921D01*
X115685777Y-48850512D01*
X115684950Y-48852562D01*
X115655904Y-48922689D01*
X115652076Y-48931930D01*
X115652075Y-48931933D01*
X115625157Y-49067259D01*
X115625157Y-49067261D01*
X115625157Y-49067262D01*
X115625157Y-49205248D01*
X115625157Y-49205250D01*
X115625156Y-49205250D01*
X115652075Y-49340577D01*
X115652078Y-49340587D01*
X115704878Y-49468059D01*
X115704885Y-49468072D01*
X115769878Y-49565340D01*
X115790756Y-49632017D01*
X115772272Y-49699398D01*
X115762632Y-49712893D01*
X115758884Y-49717459D01*
X115682228Y-49832182D01*
X115682221Y-49832195D01*
X115629421Y-49959667D01*
X115629418Y-49959677D01*
X115602500Y-50095004D01*
X115602500Y-50095007D01*
X115602500Y-50232993D01*
X115603786Y-50239460D01*
X115604886Y-50244989D01*
X115598657Y-50314581D01*
X115555793Y-50369758D01*
X115507460Y-50390796D01*
X115383677Y-50415418D01*
X115383667Y-50415421D01*
X115256195Y-50468221D01*
X115256182Y-50468228D01*
X115141458Y-50544885D01*
X115141454Y-50544888D01*
X115043888Y-50642454D01*
X115043885Y-50642458D01*
X114967228Y-50757182D01*
X114967221Y-50757195D01*
X114914421Y-50884667D01*
X114914418Y-50884677D01*
X114887500Y-51020004D01*
X114887500Y-51020007D01*
X114887500Y-51157993D01*
X114887500Y-51157995D01*
X114887499Y-51157995D01*
X106561129Y-51157995D01*
X106560102Y-51156458D01*
X106560099Y-51156454D01*
X106462533Y-51058888D01*
X106462529Y-51058885D01*
X106347805Y-50982228D01*
X106347792Y-50982221D01*
X106220320Y-50929421D01*
X106220310Y-50929418D01*
X106084983Y-50902500D01*
X106084981Y-50902500D01*
X106040488Y-50902500D01*
X105973449Y-50882815D01*
X105927694Y-50830011D01*
X105916488Y-50778500D01*
X105916488Y-50734004D01*
X105889569Y-50598677D01*
X105889568Y-50598676D01*
X105889568Y-50598672D01*
X105836763Y-50471189D01*
X105836762Y-50471187D01*
X105833894Y-50465822D01*
X105835127Y-50465162D01*
X105816353Y-50405228D01*
X105834152Y-50340316D01*
X105833894Y-50340178D01*
X105834502Y-50339040D01*
X105834830Y-50337845D01*
X105836678Y-50334968D01*
X105836759Y-50334816D01*
X105836763Y-50334811D01*
X105889568Y-50207328D01*
X105916488Y-50071993D01*
X105916488Y-49934007D01*
X105916488Y-49934004D01*
X105889569Y-49798677D01*
X105889568Y-49798676D01*
X105889568Y-49798672D01*
X105889566Y-49798667D01*
X105836766Y-49671195D01*
X105836759Y-49671182D01*
X105760102Y-49556458D01*
X105760099Y-49556454D01*
X105662533Y-49458888D01*
X105662529Y-49458885D01*
X105547805Y-49382228D01*
X105547792Y-49382221D01*
X105420320Y-49329421D01*
X105420310Y-49329418D01*
X105284983Y-49302500D01*
X105284981Y-49302500D01*
X105146995Y-49302500D01*
X105146993Y-49302500D01*
X105011665Y-49329418D01*
X105011655Y-49329421D01*
X104884178Y-49382223D01*
X104878807Y-49385095D01*
X104878150Y-49383865D01*
X104818183Y-49402634D01*
X104753312Y-49384826D01*
X104753169Y-49385095D01*
X104751987Y-49384463D01*
X104750806Y-49384139D01*
X104747970Y-49382316D01*
X104747797Y-49382223D01*
X104620320Y-49329421D01*
X104620310Y-49329418D01*
X104484983Y-49302500D01*
X104484981Y-49302500D01*
X104346995Y-49302500D01*
X104346993Y-49302500D01*
X104211665Y-49329418D01*
X104211655Y-49329421D01*
X104084178Y-49382223D01*
X104078807Y-49385095D01*
X104078150Y-49383865D01*
X104018183Y-49402634D01*
X103953312Y-49384826D01*
X103953169Y-49385095D01*
X103951987Y-49384463D01*
X103950806Y-49384139D01*
X103947970Y-49382316D01*
X103947797Y-49382223D01*
X103820320Y-49329421D01*
X103820310Y-49329418D01*
X103684983Y-49302500D01*
X103684981Y-49302500D01*
X103546995Y-49302500D01*
X103546993Y-49302500D01*
X103411665Y-49329418D01*
X103411655Y-49329421D01*
X103284183Y-49382221D01*
X103284170Y-49382228D01*
X103169446Y-49458885D01*
X103169442Y-49458888D01*
X103071876Y-49556454D01*
X103071873Y-49556458D01*
X102995216Y-49671182D01*
X102995209Y-49671195D01*
X102942409Y-49798667D01*
X102942406Y-49798677D01*
X102915488Y-49934004D01*
X102915488Y-49934007D01*
X102915488Y-50071993D01*
X102915488Y-50071995D01*
X102915487Y-50071995D01*
X88968963Y-50071995D01*
X88980500Y-50013993D01*
X88980500Y-49876007D01*
X88980500Y-49876004D01*
X88953581Y-49740677D01*
X88953580Y-49740676D01*
X88953580Y-49740672D01*
X88943965Y-49717459D01*
X88900778Y-49613195D01*
X88900771Y-49613182D01*
X88824114Y-49498458D01*
X88824111Y-49498454D01*
X88726545Y-49400888D01*
X88726541Y-49400885D01*
X88611817Y-49324228D01*
X88611804Y-49324221D01*
X88484332Y-49271421D01*
X88484322Y-49271418D01*
X88348995Y-49244500D01*
X88348993Y-49244500D01*
X88211007Y-49244500D01*
X88211005Y-49244500D01*
X88075677Y-49271418D01*
X88075667Y-49271421D01*
X87948195Y-49324221D01*
X87948182Y-49324228D01*
X87833458Y-49400885D01*
X87833454Y-49400888D01*
X87735888Y-49498454D01*
X87735885Y-49498458D01*
X87659228Y-49613182D01*
X87659221Y-49613195D01*
X87606421Y-49740667D01*
X87606418Y-49740677D01*
X87579500Y-49876004D01*
X87579500Y-49876007D01*
X87579500Y-50013993D01*
X87579500Y-50013995D01*
X87579499Y-50013995D01*
X80153500Y-50013995D01*
X80153500Y-47956920D01*
X93875487Y-47956920D01*
X93904328Y-48101907D01*
X93904331Y-48101917D01*
X93960900Y-48238488D01*
X93960907Y-48238501D01*
X94043036Y-48361415D01*
X94043039Y-48361419D01*
X94147568Y-48465948D01*
X94147572Y-48465951D01*
X94270486Y-48548080D01*
X94270499Y-48548087D01*
X94352844Y-48582195D01*
X94407075Y-48604658D01*
X94407079Y-48604658D01*
X94407080Y-48604659D01*
X94552067Y-48633500D01*
X94552070Y-48633500D01*
X94699908Y-48633500D01*
X94797450Y-48614096D01*
X94844901Y-48604658D01*
X94981483Y-48548084D01*
X95104404Y-48465951D01*
X95208939Y-48361416D01*
X95291072Y-48238495D01*
X95347646Y-48101913D01*
X95369963Y-47989721D01*
X95376488Y-47956920D01*
X95376488Y-47809079D01*
X95347647Y-47664092D01*
X95347646Y-47664091D01*
X95347646Y-47664087D01*
X95322307Y-47602913D01*
X95291075Y-47527511D01*
X95291068Y-47527498D01*
X95244577Y-47457920D01*
X100497499Y-47457920D01*
X100526340Y-47602907D01*
X100526343Y-47602917D01*
X100582912Y-47739488D01*
X100582919Y-47739501D01*
X100656791Y-47850058D01*
X100677669Y-47916736D01*
X100659184Y-47984116D01*
X100656791Y-47987839D01*
X100612922Y-48053493D01*
X100612912Y-48053511D01*
X100556343Y-48190082D01*
X100556340Y-48190092D01*
X100527500Y-48335079D01*
X100527500Y-48335082D01*
X100527500Y-48482918D01*
X100527500Y-48482920D01*
X100527499Y-48482920D01*
X100556340Y-48627907D01*
X100556343Y-48627917D01*
X100612912Y-48764488D01*
X100612919Y-48764501D01*
X100695048Y-48887415D01*
X100695051Y-48887419D01*
X100799580Y-48991948D01*
X100799584Y-48991951D01*
X100922498Y-49074080D01*
X100922511Y-49074087D01*
X101029329Y-49118332D01*
X101059087Y-49130658D01*
X101059091Y-49130658D01*
X101059092Y-49130659D01*
X101204079Y-49159500D01*
X101204082Y-49159500D01*
X101351920Y-49159500D01*
X101449462Y-49140096D01*
X101496913Y-49130658D01*
X101633495Y-49074084D01*
X101756416Y-48991951D01*
X101765372Y-48982995D01*
X105759487Y-48982995D01*
X105786406Y-49118322D01*
X105786409Y-49118332D01*
X105839209Y-49245804D01*
X105839216Y-49245817D01*
X105915873Y-49360541D01*
X105915876Y-49360545D01*
X106013442Y-49458111D01*
X106013446Y-49458114D01*
X106128170Y-49534771D01*
X106128183Y-49534778D01*
X106244093Y-49582789D01*
X106255660Y-49587580D01*
X106255664Y-49587580D01*
X106255665Y-49587581D01*
X106390992Y-49614500D01*
X106390995Y-49614500D01*
X106528983Y-49614500D01*
X106620029Y-49596389D01*
X106664316Y-49587580D01*
X106791799Y-49534775D01*
X106906530Y-49458114D01*
X107004102Y-49360542D01*
X107080763Y-49245811D01*
X107133568Y-49118328D01*
X107145139Y-49060158D01*
X107145140Y-49060153D01*
X112897500Y-49060153D01*
X112897500Y-49217846D01*
X112928261Y-49372489D01*
X112928264Y-49372501D01*
X112988602Y-49518172D01*
X112988609Y-49518185D01*
X113076210Y-49649288D01*
X113076213Y-49649292D01*
X113187707Y-49760786D01*
X113187711Y-49760789D01*
X113318814Y-49848390D01*
X113318827Y-49848397D01*
X113464498Y-49908735D01*
X113464503Y-49908737D01*
X113591528Y-49934004D01*
X113619153Y-49939499D01*
X113619156Y-49939500D01*
X113619158Y-49939500D01*
X113776844Y-49939500D01*
X113776845Y-49939499D01*
X113931497Y-49908737D01*
X114077179Y-49848394D01*
X114208289Y-49760789D01*
X114319789Y-49649289D01*
X114407394Y-49518179D01*
X114467737Y-49372497D01*
X114498500Y-49217842D01*
X114498500Y-49060158D01*
X114498500Y-49060155D01*
X114498499Y-49060153D01*
X114472994Y-48931933D01*
X114467737Y-48905503D01*
X114467735Y-48905498D01*
X114407397Y-48759827D01*
X114407390Y-48759814D01*
X114319789Y-48628711D01*
X114319786Y-48628707D01*
X114208292Y-48517213D01*
X114208288Y-48517210D01*
X114077185Y-48429609D01*
X114077172Y-48429602D01*
X113931501Y-48369264D01*
X113931489Y-48369261D01*
X113776845Y-48338500D01*
X113776842Y-48338500D01*
X113619158Y-48338500D01*
X113619155Y-48338500D01*
X113464510Y-48369261D01*
X113464498Y-48369264D01*
X113318827Y-48429602D01*
X113318814Y-48429609D01*
X113187711Y-48517210D01*
X113187707Y-48517213D01*
X113076213Y-48628707D01*
X113076210Y-48628711D01*
X112988609Y-48759814D01*
X112988602Y-48759827D01*
X112928264Y-48905498D01*
X112928261Y-48905510D01*
X112897500Y-49060153D01*
X107145140Y-49060153D01*
X107151163Y-49029875D01*
X107151163Y-49029874D01*
X107160488Y-48982995D01*
X107160488Y-48845004D01*
X107133569Y-48709677D01*
X107133568Y-48709676D01*
X107133568Y-48709672D01*
X107100033Y-48628711D01*
X107080766Y-48582195D01*
X107080759Y-48582182D01*
X107004102Y-48467458D01*
X107004099Y-48467454D01*
X106906533Y-48369888D01*
X106906529Y-48369885D01*
X106791805Y-48293228D01*
X106791792Y-48293221D01*
X106664320Y-48240421D01*
X106664310Y-48240418D01*
X106528983Y-48213500D01*
X106528981Y-48213500D01*
X106390995Y-48213500D01*
X106390993Y-48213500D01*
X106255665Y-48240418D01*
X106255655Y-48240421D01*
X106128183Y-48293221D01*
X106128170Y-48293228D01*
X106013446Y-48369885D01*
X106013442Y-48369888D01*
X105915876Y-48467454D01*
X105915873Y-48467458D01*
X105839216Y-48582182D01*
X105839209Y-48582195D01*
X105786409Y-48709667D01*
X105786406Y-48709677D01*
X105759488Y-48845004D01*
X105759488Y-48845007D01*
X105759488Y-48982993D01*
X105759488Y-48982995D01*
X105759487Y-48982995D01*
X101765372Y-48982995D01*
X101860951Y-48887416D01*
X101884240Y-48852562D01*
X101939390Y-48770024D01*
X101939390Y-48770023D01*
X101939391Y-48770022D01*
X101939472Y-48769900D01*
X101943084Y-48764495D01*
X101999658Y-48627913D01*
X102009096Y-48580462D01*
X102028500Y-48482920D01*
X102028500Y-48335079D01*
X101999659Y-48190092D01*
X101999658Y-48190091D01*
X101999658Y-48190087D01*
X101964687Y-48105659D01*
X101943087Y-48053511D01*
X101943080Y-48053498D01*
X101869208Y-47942941D01*
X101848330Y-47876263D01*
X101866815Y-47808883D01*
X101869209Y-47805158D01*
X101913079Y-47739503D01*
X101913080Y-47739500D01*
X101913084Y-47739495D01*
X101969658Y-47602913D01*
X101994788Y-47476580D01*
X101998500Y-47457920D01*
X101998500Y-47310079D01*
X101969659Y-47165092D01*
X101969658Y-47165091D01*
X101969658Y-47165087D01*
X101957117Y-47134811D01*
X101913087Y-47028511D01*
X101913080Y-47028498D01*
X101830951Y-46905584D01*
X101830948Y-46905580D01*
X101726419Y-46801051D01*
X101726415Y-46801048D01*
X101603501Y-46718919D01*
X101603488Y-46718912D01*
X101466917Y-46662343D01*
X101466907Y-46662340D01*
X101321920Y-46633500D01*
X101321918Y-46633500D01*
X101174082Y-46633500D01*
X101174080Y-46633500D01*
X101029092Y-46662340D01*
X101029082Y-46662343D01*
X100892511Y-46718912D01*
X100892498Y-46718919D01*
X100769584Y-46801048D01*
X100769580Y-46801051D01*
X100665051Y-46905580D01*
X100665048Y-46905584D01*
X100582919Y-47028498D01*
X100582912Y-47028511D01*
X100526343Y-47165082D01*
X100526340Y-47165092D01*
X100497500Y-47310079D01*
X100497500Y-47310082D01*
X100497500Y-47457918D01*
X100497500Y-47457920D01*
X100497499Y-47457920D01*
X95244577Y-47457920D01*
X95208939Y-47404584D01*
X95208936Y-47404580D01*
X95104407Y-47300051D01*
X95104403Y-47300048D01*
X94981489Y-47217919D01*
X94981476Y-47217912D01*
X94844905Y-47161343D01*
X94844895Y-47161340D01*
X94699908Y-47132500D01*
X94699906Y-47132500D01*
X94552070Y-47132500D01*
X94552068Y-47132500D01*
X94407080Y-47161340D01*
X94407070Y-47161343D01*
X94270499Y-47217912D01*
X94270486Y-47217919D01*
X94147572Y-47300048D01*
X94147568Y-47300051D01*
X94043039Y-47404580D01*
X94043036Y-47404584D01*
X93960907Y-47527498D01*
X93960900Y-47527511D01*
X93904331Y-47664082D01*
X93904328Y-47664092D01*
X93875488Y-47809079D01*
X93875488Y-47809082D01*
X93875488Y-47956918D01*
X93875488Y-47956920D01*
X93875487Y-47956920D01*
X80153500Y-47956920D01*
X80153500Y-45928281D01*
X80171683Y-45863638D01*
X80176983Y-45854963D01*
X80633069Y-45108370D01*
X80635315Y-45104830D01*
X80651788Y-45079810D01*
X80896584Y-44707995D01*
X92127499Y-44707995D01*
X92154418Y-44843321D01*
X92154420Y-44843329D01*
X92172549Y-44887096D01*
X92180018Y-44956566D01*
X92179605Y-44958739D01*
X92152500Y-45095002D01*
X92152500Y-45095007D01*
X92152500Y-45232993D01*
X92152500Y-45232995D01*
X92152499Y-45232995D01*
X92179419Y-45368326D01*
X92179422Y-45368337D01*
X92186138Y-45384551D01*
X92193605Y-45454020D01*
X92186138Y-45479449D01*
X92179422Y-45495662D01*
X92179419Y-45495673D01*
X92152500Y-45631004D01*
X92152500Y-45631007D01*
X92152500Y-45768993D01*
X92152500Y-45768995D01*
X92152499Y-45768995D01*
X92179418Y-45904322D01*
X92179420Y-45904328D01*
X92191744Y-45934082D01*
X92219815Y-46001850D01*
X92227284Y-46071320D01*
X92226872Y-46073493D01*
X92216243Y-46126930D01*
X92216243Y-46264916D01*
X92216243Y-46264918D01*
X92216242Y-46264918D01*
X92243161Y-46400245D01*
X92243164Y-46400255D01*
X92295964Y-46527727D01*
X92295971Y-46527740D01*
X92372628Y-46642464D01*
X92372631Y-46642468D01*
X92470197Y-46740034D01*
X92470201Y-46740037D01*
X92514865Y-46769881D01*
X92559670Y-46823493D01*
X92567591Y-46848791D01*
X92581919Y-46920823D01*
X92581922Y-46920833D01*
X92634722Y-47048305D01*
X92634729Y-47048318D01*
X92711386Y-47163042D01*
X92711389Y-47163046D01*
X92808955Y-47260612D01*
X92808959Y-47260615D01*
X92923683Y-47337272D01*
X92923696Y-47337279D01*
X93051168Y-47390079D01*
X93051173Y-47390081D01*
X93051177Y-47390081D01*
X93051178Y-47390082D01*
X93186505Y-47417001D01*
X93186508Y-47417001D01*
X93324496Y-47417001D01*
X93415542Y-47398890D01*
X93459829Y-47390081D01*
X93587312Y-47337276D01*
X93702043Y-47260615D01*
X93799615Y-47163043D01*
X93876276Y-47048312D01*
X93929081Y-46920829D01*
X93947643Y-46827514D01*
X93956001Y-46785496D01*
X93956001Y-46647505D01*
X93929082Y-46512178D01*
X93929081Y-46512177D01*
X93929081Y-46512173D01*
X93927555Y-46508488D01*
X93876279Y-46384696D01*
X93876272Y-46384683D01*
X93799615Y-46269959D01*
X93799612Y-46269955D01*
X93702046Y-46172389D01*
X93702038Y-46172383D01*
X93657378Y-46142542D01*
X93639636Y-46121313D01*
X93619435Y-46102391D01*
X93615751Y-46092734D01*
X93612572Y-46088930D01*
X93606796Y-46071995D01*
X102915487Y-46071995D01*
X102942406Y-46207322D01*
X102942409Y-46207332D01*
X102995211Y-46334809D01*
X102998083Y-46340181D01*
X102996853Y-46340837D01*
X103015622Y-46400805D01*
X102997814Y-46465675D01*
X102998083Y-46465819D01*
X102997451Y-46467000D01*
X102997127Y-46468182D01*
X102995304Y-46471017D01*
X102995211Y-46471190D01*
X102942409Y-46598667D01*
X102942406Y-46598677D01*
X102915488Y-46734004D01*
X102915488Y-46734007D01*
X102915488Y-46871993D01*
X102915488Y-46871995D01*
X102915487Y-46871995D01*
X102942406Y-47007322D01*
X102942409Y-47007332D01*
X102995209Y-47134804D01*
X102995216Y-47134817D01*
X103071873Y-47249541D01*
X103071876Y-47249545D01*
X103169442Y-47347111D01*
X103169446Y-47347114D01*
X103284170Y-47423771D01*
X103284183Y-47423778D01*
X103367605Y-47458332D01*
X103411660Y-47476580D01*
X103411664Y-47476580D01*
X103411665Y-47476581D01*
X103546992Y-47503500D01*
X103546995Y-47503500D01*
X103684983Y-47503500D01*
X103776029Y-47485389D01*
X103820316Y-47476580D01*
X103947799Y-47423775D01*
X103947804Y-47423771D01*
X103953166Y-47420906D01*
X103953825Y-47422139D01*
X104013760Y-47403365D01*
X104078671Y-47421164D01*
X104078810Y-47420906D01*
X104079947Y-47421514D01*
X104081143Y-47421842D01*
X104084019Y-47423690D01*
X104084181Y-47423777D01*
X104167605Y-47458332D01*
X104211660Y-47476580D01*
X104211664Y-47476580D01*
X104211665Y-47476581D01*
X104346992Y-47503500D01*
X104346995Y-47503500D01*
X104484983Y-47503500D01*
X104576029Y-47485389D01*
X104620316Y-47476580D01*
X104747799Y-47423775D01*
X104747804Y-47423771D01*
X104753166Y-47420906D01*
X104753825Y-47422139D01*
X104813760Y-47403365D01*
X104878671Y-47421164D01*
X104878810Y-47420906D01*
X104879947Y-47421514D01*
X104881143Y-47421842D01*
X104884019Y-47423690D01*
X104884181Y-47423777D01*
X104967605Y-47458332D01*
X105011660Y-47476580D01*
X105011664Y-47476580D01*
X105011665Y-47476581D01*
X105146992Y-47503500D01*
X105146995Y-47503500D01*
X105284983Y-47503500D01*
X105376029Y-47485389D01*
X105420316Y-47476580D01*
X105547799Y-47423775D01*
X105547804Y-47423771D01*
X105553166Y-47420906D01*
X105553825Y-47422139D01*
X105613760Y-47403365D01*
X105678671Y-47421164D01*
X105678810Y-47420906D01*
X105679947Y-47421514D01*
X105681143Y-47421842D01*
X105684019Y-47423690D01*
X105684181Y-47423777D01*
X105767605Y-47458332D01*
X105811660Y-47476580D01*
X105811664Y-47476580D01*
X105811665Y-47476581D01*
X105946992Y-47503500D01*
X105946995Y-47503500D01*
X106084983Y-47503500D01*
X106176029Y-47485389D01*
X106220316Y-47476580D01*
X106265365Y-47457920D01*
X111627499Y-47457920D01*
X111656340Y-47602907D01*
X111656343Y-47602917D01*
X111712912Y-47739488D01*
X111712919Y-47739501D01*
X111795048Y-47862415D01*
X111795051Y-47862419D01*
X111899580Y-47966948D01*
X111899584Y-47966951D01*
X112022498Y-48049080D01*
X112022511Y-48049087D01*
X112150031Y-48101907D01*
X112159087Y-48105658D01*
X112159091Y-48105658D01*
X112159092Y-48105659D01*
X112304079Y-48134500D01*
X112304082Y-48134500D01*
X112451920Y-48134500D01*
X112549462Y-48115096D01*
X112596913Y-48105658D01*
X112733495Y-48049084D01*
X112856416Y-47966951D01*
X112960951Y-47862416D01*
X113043084Y-47739495D01*
X113099658Y-47602913D01*
X113124788Y-47476580D01*
X113128500Y-47457920D01*
X113128500Y-47310079D01*
X113099659Y-47165092D01*
X113099658Y-47165091D01*
X113099658Y-47165087D01*
X113087117Y-47134811D01*
X113043087Y-47028511D01*
X113043080Y-47028498D01*
X112960951Y-46905584D01*
X112960948Y-46905580D01*
X112856419Y-46801051D01*
X112856415Y-46801048D01*
X112733501Y-46718919D01*
X112733488Y-46718912D01*
X112596917Y-46662343D01*
X112596907Y-46662340D01*
X112451920Y-46633500D01*
X112451918Y-46633500D01*
X112304082Y-46633500D01*
X112304080Y-46633500D01*
X112159092Y-46662340D01*
X112159082Y-46662343D01*
X112022511Y-46718912D01*
X112022498Y-46718919D01*
X111899584Y-46801048D01*
X111899580Y-46801051D01*
X111795051Y-46905580D01*
X111795048Y-46905584D01*
X111712919Y-47028498D01*
X111712912Y-47028511D01*
X111656343Y-47165082D01*
X111656340Y-47165092D01*
X111627500Y-47310079D01*
X111627500Y-47310082D01*
X111627500Y-47457918D01*
X111627500Y-47457920D01*
X111627499Y-47457920D01*
X106265365Y-47457920D01*
X106347799Y-47423775D01*
X106462530Y-47347114D01*
X106560102Y-47249542D01*
X106636763Y-47134811D01*
X106689568Y-47007328D01*
X106706502Y-46922195D01*
X106716488Y-46871995D01*
X106716488Y-46827500D01*
X106736173Y-46760461D01*
X106788977Y-46714706D01*
X106840488Y-46703500D01*
X106884983Y-46703500D01*
X106976029Y-46685389D01*
X107020316Y-46676580D01*
X107147799Y-46623775D01*
X107147804Y-46623771D01*
X107153166Y-46620906D01*
X107153825Y-46622139D01*
X107213760Y-46603365D01*
X107278671Y-46621164D01*
X107278810Y-46620906D01*
X107279947Y-46621514D01*
X107281143Y-46621842D01*
X107284019Y-46623690D01*
X107284181Y-46623777D01*
X107394777Y-46669587D01*
X107411660Y-46676580D01*
X107411664Y-46676580D01*
X107411665Y-46676581D01*
X107546992Y-46703500D01*
X107546995Y-46703500D01*
X107684983Y-46703500D01*
X107776029Y-46685389D01*
X107820316Y-46676580D01*
X107929354Y-46631415D01*
X107947792Y-46623778D01*
X107947792Y-46623777D01*
X107947799Y-46623775D01*
X108062530Y-46547114D01*
X108160102Y-46449542D01*
X108236763Y-46334811D01*
X108289568Y-46207328D01*
X108306678Y-46121313D01*
X108316488Y-46071995D01*
X109315487Y-46071995D01*
X109342406Y-46207322D01*
X109342409Y-46207332D01*
X109395209Y-46334804D01*
X109395216Y-46334817D01*
X109471873Y-46449541D01*
X109471876Y-46449545D01*
X109569442Y-46547111D01*
X109569446Y-46547114D01*
X109684170Y-46623771D01*
X109684183Y-46623778D01*
X109794777Y-46669587D01*
X109811660Y-46676580D01*
X109811664Y-46676580D01*
X109811665Y-46676581D01*
X109946992Y-46703500D01*
X109946995Y-46703500D01*
X110084983Y-46703500D01*
X110176029Y-46685389D01*
X110220316Y-46676580D01*
X110329354Y-46631415D01*
X110347792Y-46623778D01*
X110347792Y-46623777D01*
X110347799Y-46623775D01*
X110462530Y-46547114D01*
X110560102Y-46449542D01*
X110636763Y-46334811D01*
X110689568Y-46207328D01*
X110699128Y-46159269D01*
X113453773Y-46159269D01*
X113480692Y-46294596D01*
X113480695Y-46294606D01*
X113533495Y-46422078D01*
X113533502Y-46422091D01*
X113610159Y-46536815D01*
X113610162Y-46536819D01*
X113707728Y-46634385D01*
X113707732Y-46634388D01*
X113822456Y-46711045D01*
X113822469Y-46711052D01*
X113949941Y-46763852D01*
X113949946Y-46763854D01*
X113949950Y-46763854D01*
X113949951Y-46763855D01*
X114085278Y-46790774D01*
X114085281Y-46790774D01*
X114223269Y-46790774D01*
X114328302Y-46769881D01*
X114358602Y-46763854D01*
X114486085Y-46711049D01*
X114600816Y-46634388D01*
X114698388Y-46536816D01*
X114775049Y-46422085D01*
X114827854Y-46294602D01*
X114852164Y-46172389D01*
X114854774Y-46159269D01*
X114854774Y-46021278D01*
X114827855Y-45885951D01*
X114827854Y-45885950D01*
X114827854Y-45885946D01*
X114818614Y-45863638D01*
X114775052Y-45758469D01*
X114775045Y-45758456D01*
X114698388Y-45643732D01*
X114698385Y-45643728D01*
X114600819Y-45546162D01*
X114600815Y-45546159D01*
X114486091Y-45469502D01*
X114486078Y-45469495D01*
X114358606Y-45416695D01*
X114358596Y-45416692D01*
X114223269Y-45389774D01*
X114223267Y-45389774D01*
X114085281Y-45389774D01*
X114085279Y-45389774D01*
X113949951Y-45416692D01*
X113949941Y-45416695D01*
X113822469Y-45469495D01*
X113822456Y-45469502D01*
X113707732Y-45546159D01*
X113707728Y-45546162D01*
X113610162Y-45643728D01*
X113610159Y-45643732D01*
X113533502Y-45758456D01*
X113533495Y-45758469D01*
X113480695Y-45885941D01*
X113480692Y-45885951D01*
X113453774Y-46021278D01*
X113453774Y-46021281D01*
X113453774Y-46159267D01*
X113453774Y-46159269D01*
X113453773Y-46159269D01*
X110699128Y-46159269D01*
X110706678Y-46121313D01*
X110716488Y-46071995D01*
X110716488Y-45934004D01*
X110689569Y-45798677D01*
X110689568Y-45798676D01*
X110689568Y-45798672D01*
X110677622Y-45769831D01*
X110636766Y-45671195D01*
X110636759Y-45671182D01*
X110560102Y-45556458D01*
X110560099Y-45556454D01*
X110462533Y-45458888D01*
X110462529Y-45458885D01*
X110347805Y-45382228D01*
X110347792Y-45382221D01*
X110220320Y-45329421D01*
X110220310Y-45329418D01*
X110084983Y-45302500D01*
X110084981Y-45302500D01*
X109946995Y-45302500D01*
X109946993Y-45302500D01*
X109811665Y-45329418D01*
X109811655Y-45329421D01*
X109684183Y-45382221D01*
X109684170Y-45382228D01*
X109569446Y-45458885D01*
X109569442Y-45458888D01*
X109471876Y-45556454D01*
X109471873Y-45556458D01*
X109395216Y-45671182D01*
X109395209Y-45671195D01*
X109342409Y-45798667D01*
X109342406Y-45798677D01*
X109315488Y-45934004D01*
X109315488Y-45934007D01*
X109315488Y-46071993D01*
X109315488Y-46071995D01*
X109315487Y-46071995D01*
X108316488Y-46071995D01*
X108316488Y-45934004D01*
X108289569Y-45798677D01*
X108289568Y-45798676D01*
X108289568Y-45798672D01*
X108277622Y-45769831D01*
X108236765Y-45671193D01*
X108233894Y-45665822D01*
X108235127Y-45665162D01*
X108216353Y-45605228D01*
X108234152Y-45540316D01*
X108233894Y-45540178D01*
X108234502Y-45539040D01*
X108234830Y-45537845D01*
X108236678Y-45534968D01*
X108236759Y-45534816D01*
X108236763Y-45534811D01*
X108289568Y-45407328D01*
X108305065Y-45329420D01*
X108316488Y-45271995D01*
X108316488Y-45134004D01*
X108289569Y-44998677D01*
X108289568Y-44998676D01*
X108289568Y-44998672D01*
X108272127Y-44956566D01*
X108236766Y-44871195D01*
X108236759Y-44871182D01*
X108160102Y-44756458D01*
X108160099Y-44756454D01*
X108062533Y-44658888D01*
X108062529Y-44658885D01*
X108038636Y-44642920D01*
X111602499Y-44642920D01*
X111631340Y-44787907D01*
X111631343Y-44787917D01*
X111687912Y-44924488D01*
X111687919Y-44924501D01*
X111770048Y-45047415D01*
X111770051Y-45047419D01*
X111874580Y-45151948D01*
X111874584Y-45151951D01*
X111997498Y-45234080D01*
X111997511Y-45234087D01*
X112089030Y-45271995D01*
X112134087Y-45290658D01*
X112134091Y-45290658D01*
X112134092Y-45290659D01*
X112279079Y-45319500D01*
X112279082Y-45319500D01*
X112426920Y-45319500D01*
X112526542Y-45299683D01*
X112571913Y-45290658D01*
X112708495Y-45234084D01*
X112831416Y-45151951D01*
X112935951Y-45047416D01*
X113018084Y-44924495D01*
X113074658Y-44787913D01*
X113090555Y-44707995D01*
X113103500Y-44642920D01*
X113103500Y-44495079D01*
X113074659Y-44350092D01*
X113074658Y-44350091D01*
X113074658Y-44350087D01*
X113049969Y-44290482D01*
X113018087Y-44213511D01*
X113018080Y-44213498D01*
X112935951Y-44090584D01*
X112935946Y-44090578D01*
X112831419Y-43986051D01*
X112831415Y-43986048D01*
X112708501Y-43903919D01*
X112708488Y-43903912D01*
X112571917Y-43847343D01*
X112571907Y-43847340D01*
X112426920Y-43818500D01*
X112426918Y-43818500D01*
X112279082Y-43818500D01*
X112279080Y-43818500D01*
X112134092Y-43847340D01*
X112134082Y-43847343D01*
X111997511Y-43903912D01*
X111997498Y-43903919D01*
X111874584Y-43986048D01*
X111874580Y-43986051D01*
X111770054Y-44090578D01*
X111770048Y-44090584D01*
X111687919Y-44213498D01*
X111687912Y-44213511D01*
X111631343Y-44350082D01*
X111631340Y-44350092D01*
X111602500Y-44495079D01*
X111602500Y-44495082D01*
X111602500Y-44642918D01*
X111602500Y-44642920D01*
X111602499Y-44642920D01*
X108038636Y-44642920D01*
X107962567Y-44592092D01*
X107947805Y-44582228D01*
X107947792Y-44582221D01*
X107820320Y-44529421D01*
X107820310Y-44529418D01*
X107684983Y-44502500D01*
X107684981Y-44502500D01*
X107546995Y-44502500D01*
X107546993Y-44502500D01*
X107411665Y-44529418D01*
X107411655Y-44529421D01*
X107284178Y-44582223D01*
X107278807Y-44585095D01*
X107278150Y-44583865D01*
X107218183Y-44602634D01*
X107153312Y-44584826D01*
X107153169Y-44585095D01*
X107151987Y-44584463D01*
X107150806Y-44584139D01*
X107147970Y-44582316D01*
X107147797Y-44582223D01*
X107020320Y-44529421D01*
X107020310Y-44529418D01*
X106884983Y-44502500D01*
X106884981Y-44502500D01*
X106746995Y-44502500D01*
X106746993Y-44502500D01*
X106611665Y-44529418D01*
X106611655Y-44529421D01*
X106484178Y-44582223D01*
X106478807Y-44585095D01*
X106478150Y-44583865D01*
X106418183Y-44602634D01*
X106353312Y-44584826D01*
X106353169Y-44585095D01*
X106351987Y-44584463D01*
X106350806Y-44584139D01*
X106347970Y-44582316D01*
X106347797Y-44582223D01*
X106220320Y-44529421D01*
X106220310Y-44529418D01*
X106084983Y-44502500D01*
X106084981Y-44502500D01*
X105946995Y-44502500D01*
X105946993Y-44502500D01*
X105811665Y-44529418D01*
X105811655Y-44529421D01*
X105684178Y-44582223D01*
X105678807Y-44585095D01*
X105678150Y-44583865D01*
X105618183Y-44602634D01*
X105553312Y-44584826D01*
X105553169Y-44585095D01*
X105551987Y-44584463D01*
X105550806Y-44584139D01*
X105547970Y-44582316D01*
X105547797Y-44582223D01*
X105420320Y-44529421D01*
X105420310Y-44529418D01*
X105284983Y-44502500D01*
X105284981Y-44502500D01*
X105146995Y-44502500D01*
X105146993Y-44502500D01*
X105011665Y-44529418D01*
X105011655Y-44529421D01*
X104884178Y-44582223D01*
X104878807Y-44585095D01*
X104878150Y-44583865D01*
X104818183Y-44602634D01*
X104753312Y-44584826D01*
X104753169Y-44585095D01*
X104751987Y-44584463D01*
X104750806Y-44584139D01*
X104747970Y-44582316D01*
X104747797Y-44582223D01*
X104620320Y-44529421D01*
X104620310Y-44529418D01*
X104484983Y-44502500D01*
X104484981Y-44502500D01*
X104346995Y-44502500D01*
X104346993Y-44502500D01*
X104211665Y-44529418D01*
X104211655Y-44529421D01*
X104084183Y-44582221D01*
X104084170Y-44582228D01*
X103969446Y-44658885D01*
X103969442Y-44658888D01*
X103871876Y-44756454D01*
X103871873Y-44756458D01*
X103795216Y-44871182D01*
X103795209Y-44871195D01*
X103742409Y-44998667D01*
X103742406Y-44998677D01*
X103715488Y-45134004D01*
X103715488Y-45178500D01*
X103695803Y-45245539D01*
X103642999Y-45291294D01*
X103591488Y-45302500D01*
X103546993Y-45302500D01*
X103411665Y-45329418D01*
X103411655Y-45329421D01*
X103284183Y-45382221D01*
X103284170Y-45382228D01*
X103169446Y-45458885D01*
X103169442Y-45458888D01*
X103071876Y-45556454D01*
X103071873Y-45556458D01*
X102995216Y-45671182D01*
X102995209Y-45671195D01*
X102942409Y-45798667D01*
X102942406Y-45798677D01*
X102915488Y-45934004D01*
X102915488Y-45934007D01*
X102915488Y-46071993D01*
X102915488Y-46071995D01*
X102915487Y-46071995D01*
X93606796Y-46071995D01*
X93606028Y-46069742D01*
X93605265Y-46066715D01*
X93590323Y-45991595D01*
X93554176Y-45904328D01*
X93549927Y-45894069D01*
X93542458Y-45824599D01*
X93542857Y-45822495D01*
X93553500Y-45768993D01*
X93553500Y-45631007D01*
X93553500Y-45631004D01*
X93526581Y-45495677D01*
X93526580Y-45495676D01*
X93526580Y-45495672D01*
X93519861Y-45479452D01*
X93512392Y-45409987D01*
X93519860Y-45384551D01*
X93526580Y-45368328D01*
X93540233Y-45299690D01*
X93553500Y-45232995D01*
X93553500Y-45095004D01*
X93526581Y-44959677D01*
X93526579Y-44959670D01*
X93508450Y-44915904D01*
X93500981Y-44846437D01*
X93501394Y-44844260D01*
X93501578Y-44843330D01*
X93501580Y-44843328D01*
X93528500Y-44707993D01*
X93528500Y-44570007D01*
X93528500Y-44570004D01*
X93501581Y-44434677D01*
X93501580Y-44434676D01*
X93501580Y-44434672D01*
X93463746Y-44343332D01*
X93448778Y-44307195D01*
X93448771Y-44307182D01*
X93382496Y-44207995D01*
X96702499Y-44207995D01*
X96729418Y-44343322D01*
X96729421Y-44343332D01*
X96782221Y-44470804D01*
X96782228Y-44470817D01*
X96858885Y-44585541D01*
X96858888Y-44585545D01*
X96956454Y-44683111D01*
X96956458Y-44683114D01*
X97071182Y-44759771D01*
X97071195Y-44759778D01*
X97198667Y-44812578D01*
X97198672Y-44812580D01*
X97198676Y-44812580D01*
X97198677Y-44812581D01*
X97334004Y-44839500D01*
X97334007Y-44839500D01*
X97471995Y-44839500D01*
X97563041Y-44821389D01*
X97607328Y-44812580D01*
X97734811Y-44759775D01*
X97849542Y-44683114D01*
X97947114Y-44585542D01*
X98023775Y-44470811D01*
X98076580Y-44343328D01*
X98100259Y-44224288D01*
X98103500Y-44207995D01*
X98103500Y-44070004D01*
X98076581Y-43934677D01*
X98076580Y-43934676D01*
X98076580Y-43934672D01*
X98063842Y-43903919D01*
X98023778Y-43807195D01*
X98023771Y-43807182D01*
X97947114Y-43692458D01*
X97947111Y-43692454D01*
X97849545Y-43594888D01*
X97849541Y-43594885D01*
X97734817Y-43518228D01*
X97734804Y-43518221D01*
X97608230Y-43465793D01*
X106466652Y-43465793D01*
X106493571Y-43601120D01*
X106493574Y-43601130D01*
X106546374Y-43728602D01*
X106546381Y-43728615D01*
X106623038Y-43843339D01*
X106623041Y-43843343D01*
X106720607Y-43940909D01*
X106720611Y-43940912D01*
X106835335Y-44017569D01*
X106835348Y-44017576D01*
X106961922Y-44070004D01*
X106962825Y-44070378D01*
X106962829Y-44070378D01*
X106962830Y-44070379D01*
X107098157Y-44097298D01*
X107098160Y-44097298D01*
X107236148Y-44097298D01*
X107327194Y-44079187D01*
X107371481Y-44070378D01*
X107498964Y-44017573D01*
X107613695Y-43940912D01*
X107711267Y-43843340D01*
X107787928Y-43728609D01*
X107826639Y-43635153D01*
X119477500Y-43635153D01*
X119477500Y-43792846D01*
X119508261Y-43947489D01*
X119508264Y-43947501D01*
X119568602Y-44093172D01*
X119568609Y-44093185D01*
X119656210Y-44224288D01*
X119656213Y-44224292D01*
X119767707Y-44335786D01*
X119767711Y-44335789D01*
X119898814Y-44423390D01*
X119898827Y-44423397D01*
X120013311Y-44470817D01*
X120044503Y-44483737D01*
X120199153Y-44514499D01*
X120199156Y-44514500D01*
X120199158Y-44514500D01*
X120356844Y-44514500D01*
X120356845Y-44514499D01*
X120511497Y-44483737D01*
X120657179Y-44423394D01*
X120788289Y-44335789D01*
X120899789Y-44224289D01*
X120987394Y-44093179D01*
X121047737Y-43947497D01*
X121078500Y-43792842D01*
X121078500Y-43635158D01*
X121078500Y-43635155D01*
X121078499Y-43635153D01*
X121071731Y-43601130D01*
X121047737Y-43480503D01*
X121041490Y-43465421D01*
X120987397Y-43334827D01*
X120987390Y-43334814D01*
X120899789Y-43203711D01*
X120899786Y-43203707D01*
X120788292Y-43092213D01*
X120788288Y-43092210D01*
X120657185Y-43004609D01*
X120657172Y-43004602D01*
X120511501Y-42944264D01*
X120511489Y-42944261D01*
X120356845Y-42913500D01*
X120356842Y-42913500D01*
X120199158Y-42913500D01*
X120199155Y-42913500D01*
X120044510Y-42944261D01*
X120044498Y-42944264D01*
X119898827Y-43004602D01*
X119898814Y-43004609D01*
X119767711Y-43092210D01*
X119767707Y-43092213D01*
X119656213Y-43203707D01*
X119656210Y-43203711D01*
X119568609Y-43334814D01*
X119568602Y-43334827D01*
X119508264Y-43480498D01*
X119508261Y-43480510D01*
X119477500Y-43635153D01*
X107826639Y-43635153D01*
X107840733Y-43601126D01*
X107867653Y-43465791D01*
X107867653Y-43327805D01*
X107867653Y-43327802D01*
X107840734Y-43192475D01*
X107840733Y-43192474D01*
X107840733Y-43192470D01*
X107840731Y-43192465D01*
X107795747Y-43083862D01*
X107788278Y-43014393D01*
X107819554Y-42951914D01*
X107879643Y-42916262D01*
X107949468Y-42918756D01*
X107979193Y-42933305D01*
X108071190Y-42994775D01*
X108071192Y-42994776D01*
X108071196Y-42994778D01*
X108198668Y-43047578D01*
X108198673Y-43047580D01*
X108198677Y-43047580D01*
X108198678Y-43047581D01*
X108334005Y-43074500D01*
X108334008Y-43074500D01*
X108471996Y-43074500D01*
X108563042Y-43056389D01*
X108607329Y-43047580D01*
X108734812Y-42994775D01*
X108849543Y-42918114D01*
X108947115Y-42820542D01*
X109023776Y-42705811D01*
X109050878Y-42640378D01*
X109094718Y-42585977D01*
X109161012Y-42563911D01*
X109228711Y-42581189D01*
X109276322Y-42632326D01*
X109280000Y-42640379D01*
X109333497Y-42769534D01*
X109333502Y-42769543D01*
X109410159Y-42884267D01*
X109410162Y-42884271D01*
X109507728Y-42981837D01*
X109507732Y-42981840D01*
X109622456Y-43058497D01*
X109622469Y-43058504D01*
X109703846Y-43092211D01*
X109749946Y-43111306D01*
X109749950Y-43111306D01*
X109749951Y-43111307D01*
X109885278Y-43138226D01*
X109885281Y-43138226D01*
X110023269Y-43138226D01*
X110114315Y-43120115D01*
X110158602Y-43111306D01*
X110286085Y-43058501D01*
X110400816Y-42981840D01*
X110498388Y-42884268D01*
X110575049Y-42769537D01*
X110627854Y-42642054D01*
X110636663Y-42597767D01*
X110654774Y-42506721D01*
X110654774Y-42368730D01*
X110627855Y-42233403D01*
X110627854Y-42233402D01*
X110627854Y-42233398D01*
X110605486Y-42179397D01*
X110575052Y-42105921D01*
X110575045Y-42105908D01*
X110498388Y-41991184D01*
X110498385Y-41991180D01*
X110400819Y-41893614D01*
X110400815Y-41893611D01*
X110286091Y-41816954D01*
X110286078Y-41816947D01*
X110158606Y-41764147D01*
X110158596Y-41764144D01*
X110023269Y-41737226D01*
X110023267Y-41737226D01*
X109885281Y-41737226D01*
X109885279Y-41737226D01*
X109749951Y-41764144D01*
X109749941Y-41764147D01*
X109622469Y-41816947D01*
X109622456Y-41816954D01*
X109507732Y-41893611D01*
X109507728Y-41893614D01*
X109410162Y-41991180D01*
X109410159Y-41991184D01*
X109333502Y-42105908D01*
X109333497Y-42105918D01*
X109306396Y-42171346D01*
X109262555Y-42225750D01*
X109196260Y-42247814D01*
X109128561Y-42230534D01*
X109080951Y-42179397D01*
X109077274Y-42171345D01*
X109023779Y-42042195D01*
X109023772Y-42042182D01*
X108947115Y-41927458D01*
X108947112Y-41927454D01*
X108849546Y-41829888D01*
X108849542Y-41829885D01*
X108734818Y-41753228D01*
X108734805Y-41753221D01*
X108607333Y-41700421D01*
X108607323Y-41700418D01*
X108471996Y-41673500D01*
X108471994Y-41673500D01*
X108334008Y-41673500D01*
X108334006Y-41673500D01*
X108198678Y-41700418D01*
X108198668Y-41700421D01*
X108071196Y-41753221D01*
X108071183Y-41753228D01*
X107956459Y-41829885D01*
X107956455Y-41829888D01*
X107858889Y-41927454D01*
X107858886Y-41927458D01*
X107782229Y-42042182D01*
X107782222Y-42042195D01*
X107729422Y-42169667D01*
X107729419Y-42169677D01*
X107702501Y-42305004D01*
X107702501Y-42305007D01*
X107702501Y-42442993D01*
X107702501Y-42442995D01*
X107702500Y-42442995D01*
X107729419Y-42578322D01*
X107729420Y-42578323D01*
X107729421Y-42578328D01*
X107755124Y-42640381D01*
X107774407Y-42686935D01*
X107781875Y-42756405D01*
X107750599Y-42818884D01*
X107690510Y-42854536D01*
X107620685Y-42852041D01*
X107590954Y-42837489D01*
X107498969Y-42776026D01*
X107498957Y-42776019D01*
X107371485Y-42723219D01*
X107371475Y-42723216D01*
X107236148Y-42696298D01*
X107236146Y-42696298D01*
X107098160Y-42696298D01*
X107098158Y-42696298D01*
X106962830Y-42723216D01*
X106962820Y-42723219D01*
X106835348Y-42776019D01*
X106835335Y-42776026D01*
X106720611Y-42852683D01*
X106720607Y-42852686D01*
X106623041Y-42950252D01*
X106623038Y-42950256D01*
X106546381Y-43064980D01*
X106546374Y-43064993D01*
X106493574Y-43192465D01*
X106493571Y-43192475D01*
X106466653Y-43327802D01*
X106466653Y-43327805D01*
X106466653Y-43465791D01*
X106466653Y-43465793D01*
X106466652Y-43465793D01*
X97608230Y-43465793D01*
X97607332Y-43465421D01*
X97607320Y-43465418D01*
X97496278Y-43443330D01*
X97496277Y-43443330D01*
X97471995Y-43438500D01*
X97471993Y-43438500D01*
X97334007Y-43438500D01*
X97334005Y-43438500D01*
X97198677Y-43465418D01*
X97198667Y-43465421D01*
X97071195Y-43518221D01*
X97071182Y-43518228D01*
X96956458Y-43594885D01*
X96956454Y-43594888D01*
X96858888Y-43692454D01*
X96858885Y-43692458D01*
X96782228Y-43807182D01*
X96782221Y-43807195D01*
X96729421Y-43934667D01*
X96729418Y-43934677D01*
X96702500Y-44070004D01*
X96702500Y-44070007D01*
X96702500Y-44207993D01*
X96702500Y-44207995D01*
X96702499Y-44207995D01*
X93382496Y-44207995D01*
X93372114Y-44192458D01*
X93372111Y-44192454D01*
X93274545Y-44094888D01*
X93274541Y-44094885D01*
X93159817Y-44018228D01*
X93159804Y-44018221D01*
X93032332Y-43965421D01*
X93032322Y-43965418D01*
X92896995Y-43938500D01*
X92896993Y-43938500D01*
X92759007Y-43938500D01*
X92759005Y-43938500D01*
X92623677Y-43965418D01*
X92623667Y-43965421D01*
X92496195Y-44018221D01*
X92496182Y-44018228D01*
X92381458Y-44094885D01*
X92381454Y-44094888D01*
X92283888Y-44192454D01*
X92283885Y-44192458D01*
X92207228Y-44307182D01*
X92207221Y-44307195D01*
X92154421Y-44434667D01*
X92154418Y-44434677D01*
X92127500Y-44570004D01*
X92127500Y-44570007D01*
X92127500Y-44707993D01*
X92127500Y-44707995D01*
X92127499Y-44707995D01*
X80896584Y-44707995D01*
X81169229Y-44293882D01*
X81171533Y-44290508D01*
X81732624Y-43498057D01*
X81735059Y-43494740D01*
X82322621Y-42721781D01*
X82325171Y-42718541D01*
X82938579Y-41965897D01*
X82941227Y-41962758D01*
X83579759Y-41231313D01*
X83582514Y-41228262D01*
X84053308Y-40724457D01*
X93427987Y-40724457D01*
X93455867Y-40864614D01*
X93455869Y-40864620D01*
X93510557Y-40996650D01*
X93510562Y-40996659D01*
X93589955Y-41115478D01*
X93589958Y-41115482D01*
X93691005Y-41216529D01*
X93691009Y-41216532D01*
X93809828Y-41295925D01*
X93809841Y-41295932D01*
X93906007Y-41335765D01*
X93960411Y-41379606D01*
X93982476Y-41445900D01*
X93965197Y-41513599D01*
X93927447Y-41553428D01*
X93902568Y-41570051D01*
X93798039Y-41674580D01*
X93798036Y-41674584D01*
X93715907Y-41797498D01*
X93715900Y-41797511D01*
X93659331Y-41934082D01*
X93659328Y-41934092D01*
X93630488Y-42079079D01*
X93630488Y-42079082D01*
X93630488Y-42226918D01*
X93630488Y-42226920D01*
X93630487Y-42226920D01*
X93659328Y-42371907D01*
X93659331Y-42371917D01*
X93715900Y-42508488D01*
X93715907Y-42508501D01*
X93798036Y-42631415D01*
X93798039Y-42631419D01*
X93902568Y-42735948D01*
X93902572Y-42735951D01*
X94025486Y-42818080D01*
X94025499Y-42818087D01*
X94113496Y-42854536D01*
X94162075Y-42874658D01*
X94162079Y-42874658D01*
X94162080Y-42874659D01*
X94307067Y-42903500D01*
X94307070Y-42903500D01*
X94454908Y-42903500D01*
X94552450Y-42884096D01*
X94599901Y-42874658D01*
X94736483Y-42818084D01*
X94859404Y-42735951D01*
X94963939Y-42631416D01*
X95046072Y-42508495D01*
X95102646Y-42371913D01*
X95117761Y-42295925D01*
X95131488Y-42226920D01*
X95131488Y-42079079D01*
X95115147Y-41996932D01*
X95121374Y-41927341D01*
X95164236Y-41872163D01*
X95209322Y-41852540D01*
X95209276Y-41852388D01*
X95210582Y-41851991D01*
X95212581Y-41851121D01*
X95215108Y-41850619D01*
X95347141Y-41795929D01*
X95454106Y-41724457D01*
X96577987Y-41724457D01*
X96605867Y-41864614D01*
X96605869Y-41864620D01*
X96660557Y-41996650D01*
X96660562Y-41996659D01*
X96739955Y-42115478D01*
X96739958Y-42115482D01*
X96841005Y-42216529D01*
X96841009Y-42216532D01*
X96959828Y-42295925D01*
X96959834Y-42295928D01*
X96959835Y-42295929D01*
X97091868Y-42350619D01*
X97091872Y-42350619D01*
X97091873Y-42350620D01*
X97232030Y-42378500D01*
X97232033Y-42378500D01*
X97374945Y-42378500D01*
X97469239Y-42359742D01*
X97515108Y-42350619D01*
X97647141Y-42295929D01*
X97765967Y-42216532D01*
X97867020Y-42115479D01*
X97946417Y-41996653D01*
X98001107Y-41864620D01*
X98026448Y-41737226D01*
X98028988Y-41724457D01*
X98028988Y-41581542D01*
X98001107Y-41441382D01*
X98001107Y-41441380D01*
X97988172Y-41410153D01*
X102652500Y-41410153D01*
X102652500Y-41567846D01*
X102683261Y-41722489D01*
X102683264Y-41722501D01*
X102743602Y-41868172D01*
X102743609Y-41868185D01*
X102831210Y-41999288D01*
X102831213Y-41999292D01*
X102942707Y-42110786D01*
X102942711Y-42110789D01*
X103073814Y-42198390D01*
X103073827Y-42198397D01*
X103193132Y-42247814D01*
X103219503Y-42258737D01*
X103374153Y-42289499D01*
X103374156Y-42289500D01*
X103374158Y-42289500D01*
X103531844Y-42289500D01*
X103531845Y-42289499D01*
X103686497Y-42258737D01*
X103832179Y-42198394D01*
X103963289Y-42110789D01*
X104074789Y-41999289D01*
X104162394Y-41868179D01*
X104222737Y-41722497D01*
X104253500Y-41567842D01*
X104253500Y-41410158D01*
X104253500Y-41410155D01*
X104253499Y-41410153D01*
X104245893Y-41371917D01*
X104222737Y-41255503D01*
X104212731Y-41231346D01*
X104210898Y-41226920D01*
X115609499Y-41226920D01*
X115638340Y-41371907D01*
X115638343Y-41371917D01*
X115694912Y-41508488D01*
X115694919Y-41508501D01*
X115777048Y-41631415D01*
X115777051Y-41631419D01*
X115881580Y-41735948D01*
X115881584Y-41735951D01*
X116004498Y-41818080D01*
X116004511Y-41818087D01*
X116141082Y-41874656D01*
X116141087Y-41874658D01*
X116141091Y-41874658D01*
X116141092Y-41874659D01*
X116286079Y-41903500D01*
X116286082Y-41903500D01*
X116433920Y-41903500D01*
X116531462Y-41884096D01*
X116578913Y-41874658D01*
X116715495Y-41818084D01*
X116838416Y-41735951D01*
X116942951Y-41631416D01*
X117025084Y-41508495D01*
X117081658Y-41371913D01*
X117094103Y-41309349D01*
X117110500Y-41226920D01*
X117110500Y-41079079D01*
X117081659Y-40934092D01*
X117081658Y-40934091D01*
X117081658Y-40934087D01*
X117052884Y-40864620D01*
X117025087Y-40797511D01*
X117025080Y-40797498D01*
X116942951Y-40674584D01*
X116942948Y-40674580D01*
X116838419Y-40570051D01*
X116838415Y-40570048D01*
X116715501Y-40487919D01*
X116715488Y-40487912D01*
X116578917Y-40431343D01*
X116578907Y-40431340D01*
X116433920Y-40402500D01*
X116433918Y-40402500D01*
X116286082Y-40402500D01*
X116286080Y-40402500D01*
X116141092Y-40431340D01*
X116141082Y-40431343D01*
X116004511Y-40487912D01*
X116004498Y-40487919D01*
X115881584Y-40570048D01*
X115881580Y-40570051D01*
X115777051Y-40674580D01*
X115777048Y-40674584D01*
X115694919Y-40797498D01*
X115694912Y-40797511D01*
X115638343Y-40934082D01*
X115638340Y-40934092D01*
X115609500Y-41079079D01*
X115609500Y-41079082D01*
X115609500Y-41226918D01*
X115609500Y-41226920D01*
X115609499Y-41226920D01*
X104210898Y-41226920D01*
X104166794Y-41120442D01*
X104162395Y-41109824D01*
X104162394Y-41109821D01*
X104162392Y-41109818D01*
X104162390Y-41109814D01*
X104074789Y-40978711D01*
X104074786Y-40978707D01*
X103963292Y-40867213D01*
X103963288Y-40867210D01*
X103832185Y-40779609D01*
X103832172Y-40779602D01*
X103686501Y-40719264D01*
X103686489Y-40719261D01*
X103531845Y-40688500D01*
X103531842Y-40688500D01*
X103374158Y-40688500D01*
X103374155Y-40688500D01*
X103219510Y-40719261D01*
X103219498Y-40719264D01*
X103073827Y-40779602D01*
X103073814Y-40779609D01*
X102942711Y-40867210D01*
X102942707Y-40867213D01*
X102831213Y-40978707D01*
X102831210Y-40978711D01*
X102743609Y-41109814D01*
X102743602Y-41109827D01*
X102683264Y-41255498D01*
X102683261Y-41255510D01*
X102652500Y-41410153D01*
X97988172Y-41410153D01*
X97946417Y-41309347D01*
X97946416Y-41309346D01*
X97946413Y-41309340D01*
X97867020Y-41190521D01*
X97867017Y-41190517D01*
X97765970Y-41089470D01*
X97765966Y-41089467D01*
X97647147Y-41010074D01*
X97647138Y-41010069D01*
X97515108Y-40955381D01*
X97515102Y-40955379D01*
X97374945Y-40927500D01*
X97374943Y-40927500D01*
X97232033Y-40927500D01*
X97232031Y-40927500D01*
X97091873Y-40955379D01*
X97091867Y-40955381D01*
X96959837Y-41010069D01*
X96959828Y-41010074D01*
X96841009Y-41089467D01*
X96841005Y-41089470D01*
X96739958Y-41190517D01*
X96739955Y-41190521D01*
X96660562Y-41309340D01*
X96660557Y-41309349D01*
X96605869Y-41441379D01*
X96605867Y-41441385D01*
X96577988Y-41581542D01*
X96577988Y-41581545D01*
X96577988Y-41724455D01*
X96577988Y-41724457D01*
X96577987Y-41724457D01*
X95454106Y-41724457D01*
X95465967Y-41716532D01*
X95567020Y-41615479D01*
X95608481Y-41553428D01*
X95639797Y-41506562D01*
X95639797Y-41506561D01*
X95646411Y-41496662D01*
X95646411Y-41496661D01*
X95646417Y-41496653D01*
X95701107Y-41364620D01*
X95722813Y-41255498D01*
X95728988Y-41224457D01*
X95728988Y-41081542D01*
X95701108Y-40941385D01*
X95701107Y-40941384D01*
X95701107Y-40941380D01*
X95646417Y-40809347D01*
X95646416Y-40809346D01*
X95646413Y-40809340D01*
X95567020Y-40690521D01*
X95567017Y-40690517D01*
X95465970Y-40589470D01*
X95465966Y-40589467D01*
X95347147Y-40510074D01*
X95347138Y-40510069D01*
X95215108Y-40455381D01*
X95215102Y-40455379D01*
X95074945Y-40427500D01*
X95074943Y-40427500D01*
X94932033Y-40427500D01*
X94928212Y-40427500D01*
X94861173Y-40407815D01*
X94815418Y-40355011D01*
X94813651Y-40350953D01*
X94796418Y-40309350D01*
X94796418Y-40309349D01*
X94796417Y-40309347D01*
X94796415Y-40309344D01*
X94796413Y-40309340D01*
X94717020Y-40190521D01*
X94717017Y-40190517D01*
X94615970Y-40089470D01*
X94615966Y-40089467D01*
X94497147Y-40010074D01*
X94497138Y-40010069D01*
X94365108Y-39955381D01*
X94365102Y-39955379D01*
X94224945Y-39927500D01*
X94224943Y-39927500D01*
X94082033Y-39927500D01*
X94082031Y-39927500D01*
X93941873Y-39955379D01*
X93941867Y-39955381D01*
X93809837Y-40010069D01*
X93809828Y-40010074D01*
X93691009Y-40089467D01*
X93691005Y-40089470D01*
X93589958Y-40190517D01*
X93589955Y-40190521D01*
X93510562Y-40309340D01*
X93510557Y-40309349D01*
X93455869Y-40441379D01*
X93455867Y-40441385D01*
X93427988Y-40581542D01*
X93427988Y-40581545D01*
X93427988Y-40724455D01*
X93427988Y-40724457D01*
X93427987Y-40724457D01*
X84053308Y-40724457D01*
X84245461Y-40518830D01*
X84248320Y-40515873D01*
X84934873Y-39829320D01*
X84937830Y-39826461D01*
X85647262Y-39163514D01*
X85650313Y-39160759D01*
X85760098Y-39064920D01*
X100815487Y-39064920D01*
X100844328Y-39209907D01*
X100844331Y-39209917D01*
X100900900Y-39346488D01*
X100900907Y-39346501D01*
X100983036Y-39469415D01*
X100983039Y-39469419D01*
X101087568Y-39573948D01*
X101087572Y-39573951D01*
X101210486Y-39656080D01*
X101210499Y-39656087D01*
X101347070Y-39712656D01*
X101347075Y-39712658D01*
X101347079Y-39712658D01*
X101347080Y-39712659D01*
X101492067Y-39741500D01*
X101492070Y-39741500D01*
X101639908Y-39741500D01*
X101737450Y-39722096D01*
X101784901Y-39712658D01*
X101921483Y-39656084D01*
X102044404Y-39573951D01*
X102148939Y-39469416D01*
X102231072Y-39346495D01*
X102287646Y-39209913D01*
X102310719Y-39093920D01*
X102316488Y-39064920D01*
X102316488Y-38961957D01*
X107340487Y-38961957D01*
X107368367Y-39102114D01*
X107368369Y-39102120D01*
X107423057Y-39234150D01*
X107423062Y-39234159D01*
X107502455Y-39352978D01*
X107502458Y-39352982D01*
X107603505Y-39454029D01*
X107603509Y-39454032D01*
X107722328Y-39533425D01*
X107722334Y-39533428D01*
X107722335Y-39533429D01*
X107854368Y-39588119D01*
X107854372Y-39588119D01*
X107854373Y-39588120D01*
X107994530Y-39616000D01*
X107994533Y-39616000D01*
X108137445Y-39616000D01*
X108231739Y-39597242D01*
X108277608Y-39588119D01*
X108409641Y-39533429D01*
X108528467Y-39454032D01*
X108629520Y-39352979D01*
X108708917Y-39234153D01*
X108763607Y-39102120D01*
X108791488Y-38961957D01*
X110840487Y-38961957D01*
X110868367Y-39102114D01*
X110868369Y-39102120D01*
X110923057Y-39234150D01*
X110923062Y-39234159D01*
X111002455Y-39352978D01*
X111002458Y-39352982D01*
X111103505Y-39454029D01*
X111103509Y-39454032D01*
X111222328Y-39533425D01*
X111222334Y-39533428D01*
X111222335Y-39533429D01*
X111354368Y-39588119D01*
X111354372Y-39588119D01*
X111354373Y-39588120D01*
X111494530Y-39616000D01*
X111494533Y-39616000D01*
X111637445Y-39616000D01*
X111731739Y-39597242D01*
X111777608Y-39588119D01*
X111909641Y-39533429D01*
X112028467Y-39454032D01*
X112129520Y-39352979D01*
X112208917Y-39234153D01*
X112263607Y-39102120D01*
X112291488Y-38961955D01*
X112291488Y-38922920D01*
X114815487Y-38922920D01*
X114844328Y-39067907D01*
X114844331Y-39067917D01*
X114900900Y-39204488D01*
X114900907Y-39204501D01*
X114983036Y-39327415D01*
X114983039Y-39327419D01*
X115087568Y-39431948D01*
X115087572Y-39431951D01*
X115210486Y-39514080D01*
X115210499Y-39514087D01*
X115257198Y-39533430D01*
X115347075Y-39570658D01*
X115347079Y-39570658D01*
X115347080Y-39570659D01*
X115492067Y-39599500D01*
X115492070Y-39599500D01*
X115639908Y-39599500D01*
X115768361Y-39573948D01*
X115784901Y-39570658D01*
X115921483Y-39514084D01*
X116044404Y-39431951D01*
X116148939Y-39327416D01*
X116231072Y-39204495D01*
X116276874Y-39093920D01*
X118255487Y-39093920D01*
X118284328Y-39238907D01*
X118284331Y-39238917D01*
X118340900Y-39375488D01*
X118340907Y-39375501D01*
X118423036Y-39498415D01*
X118423039Y-39498419D01*
X118527568Y-39602948D01*
X118527572Y-39602951D01*
X118650486Y-39685080D01*
X118650499Y-39685087D01*
X118787070Y-39741656D01*
X118787075Y-39741658D01*
X118787079Y-39741658D01*
X118787080Y-39741659D01*
X118932067Y-39770500D01*
X118932070Y-39770500D01*
X119079908Y-39770500D01*
X119177450Y-39751096D01*
X119224901Y-39741658D01*
X119361483Y-39685084D01*
X119484404Y-39602951D01*
X119588939Y-39498416D01*
X119671072Y-39375495D01*
X119727646Y-39238913D01*
X119743198Y-39160730D01*
X119756488Y-39093920D01*
X119756488Y-38946079D01*
X119727647Y-38801092D01*
X119727646Y-38801091D01*
X119727646Y-38801087D01*
X119724371Y-38793181D01*
X119671075Y-38664511D01*
X119671068Y-38664498D01*
X119588939Y-38541584D01*
X119588936Y-38541580D01*
X119484407Y-38437051D01*
X119484403Y-38437048D01*
X119361489Y-38354919D01*
X119361476Y-38354912D01*
X119224905Y-38298343D01*
X119224895Y-38298340D01*
X119079908Y-38269500D01*
X119079906Y-38269500D01*
X118932070Y-38269500D01*
X118932068Y-38269500D01*
X118787080Y-38298340D01*
X118787070Y-38298343D01*
X118650499Y-38354912D01*
X118650486Y-38354919D01*
X118527572Y-38437048D01*
X118527568Y-38437051D01*
X118423039Y-38541580D01*
X118423036Y-38541584D01*
X118340907Y-38664498D01*
X118340900Y-38664511D01*
X118284331Y-38801082D01*
X118284328Y-38801092D01*
X118255488Y-38946079D01*
X118255488Y-38946082D01*
X118255488Y-39093918D01*
X118255488Y-39093920D01*
X118255487Y-39093920D01*
X116276874Y-39093920D01*
X116287646Y-39067913D01*
X116297084Y-39020462D01*
X116316488Y-38922920D01*
X116316488Y-38775079D01*
X116287647Y-38630092D01*
X116287646Y-38630091D01*
X116287646Y-38630087D01*
X116250987Y-38541584D01*
X116231075Y-38493511D01*
X116231068Y-38493498D01*
X116148939Y-38370584D01*
X116148936Y-38370580D01*
X116044407Y-38266051D01*
X116044403Y-38266048D01*
X115921489Y-38183919D01*
X115921476Y-38183912D01*
X115784905Y-38127343D01*
X115784895Y-38127340D01*
X115639908Y-38098500D01*
X115639906Y-38098500D01*
X115492070Y-38098500D01*
X115492068Y-38098500D01*
X115347080Y-38127340D01*
X115347070Y-38127343D01*
X115210499Y-38183912D01*
X115210486Y-38183919D01*
X115087572Y-38266048D01*
X115087568Y-38266051D01*
X114983039Y-38370580D01*
X114983036Y-38370584D01*
X114900907Y-38493498D01*
X114900900Y-38493511D01*
X114844331Y-38630082D01*
X114844328Y-38630092D01*
X114815488Y-38775079D01*
X114815488Y-38775082D01*
X114815488Y-38922918D01*
X114815488Y-38922920D01*
X114815487Y-38922920D01*
X112291488Y-38922920D01*
X112291488Y-38819045D01*
X112291488Y-38819042D01*
X112291487Y-38819040D01*
X112286344Y-38793181D01*
X112263608Y-38678885D01*
X112263607Y-38678884D01*
X112263607Y-38678880D01*
X112208917Y-38546847D01*
X112208916Y-38546846D01*
X112208913Y-38546840D01*
X112129520Y-38428021D01*
X112129517Y-38428017D01*
X112028470Y-38326970D01*
X112028466Y-38326967D01*
X111909647Y-38247574D01*
X111909638Y-38247569D01*
X111777608Y-38192881D01*
X111777602Y-38192879D01*
X111637445Y-38165000D01*
X111637443Y-38165000D01*
X111494533Y-38165000D01*
X111494531Y-38165000D01*
X111354373Y-38192879D01*
X111354367Y-38192881D01*
X111222337Y-38247569D01*
X111222328Y-38247574D01*
X111103509Y-38326967D01*
X111103505Y-38326970D01*
X111002458Y-38428017D01*
X111002455Y-38428021D01*
X110923062Y-38546840D01*
X110923057Y-38546849D01*
X110868369Y-38678879D01*
X110868367Y-38678885D01*
X110840488Y-38819042D01*
X110840488Y-38819045D01*
X110840488Y-38961955D01*
X110840488Y-38961957D01*
X110840487Y-38961957D01*
X108791488Y-38961957D01*
X108791488Y-38961955D01*
X108791488Y-38819045D01*
X108791488Y-38819042D01*
X108763608Y-38678885D01*
X108763607Y-38678884D01*
X108763607Y-38678880D01*
X108708917Y-38546847D01*
X108708916Y-38546846D01*
X108708913Y-38546840D01*
X108629520Y-38428021D01*
X108629517Y-38428017D01*
X108528470Y-38326970D01*
X108528466Y-38326967D01*
X108409647Y-38247574D01*
X108409638Y-38247569D01*
X108277608Y-38192881D01*
X108277602Y-38192879D01*
X108137445Y-38165000D01*
X108137443Y-38165000D01*
X107994533Y-38165000D01*
X107994531Y-38165000D01*
X107854373Y-38192879D01*
X107854367Y-38192881D01*
X107722337Y-38247569D01*
X107722328Y-38247574D01*
X107603509Y-38326967D01*
X107603505Y-38326970D01*
X107502458Y-38428017D01*
X107502455Y-38428021D01*
X107423062Y-38546840D01*
X107423057Y-38546849D01*
X107368369Y-38678879D01*
X107368367Y-38678885D01*
X107340488Y-38819042D01*
X107340488Y-38819045D01*
X107340488Y-38961955D01*
X107340488Y-38961957D01*
X107340487Y-38961957D01*
X102316488Y-38961957D01*
X102316488Y-38917079D01*
X102316487Y-38917077D01*
X102300588Y-38837144D01*
X102287647Y-38772091D01*
X102287644Y-38772082D01*
X102231075Y-38635511D01*
X102231068Y-38635498D01*
X102148939Y-38512584D01*
X102148936Y-38512580D01*
X102044407Y-38408051D01*
X102044403Y-38408048D01*
X101921489Y-38325919D01*
X101921476Y-38325912D01*
X101784905Y-38269343D01*
X101784895Y-38269340D01*
X101639908Y-38240500D01*
X101639906Y-38240500D01*
X101492070Y-38240500D01*
X101492068Y-38240500D01*
X101347080Y-38269340D01*
X101347070Y-38269343D01*
X101210499Y-38325912D01*
X101210486Y-38325919D01*
X101087572Y-38408048D01*
X101087568Y-38408051D01*
X100983039Y-38512580D01*
X100983036Y-38512584D01*
X100900907Y-38635498D01*
X100900900Y-38635511D01*
X100844331Y-38772082D01*
X100844328Y-38772092D01*
X100815488Y-38917079D01*
X100815488Y-38917082D01*
X100815488Y-39064918D01*
X100815488Y-39064920D01*
X100815487Y-39064920D01*
X85760098Y-39064920D01*
X86381758Y-38522227D01*
X86384897Y-38519579D01*
X87137541Y-37906171D01*
X87140781Y-37903621D01*
X87354820Y-37740920D01*
X96400499Y-37740920D01*
X96429340Y-37885907D01*
X96429343Y-37885917D01*
X96485912Y-38022488D01*
X96485919Y-38022501D01*
X96568048Y-38145415D01*
X96568051Y-38145419D01*
X96672580Y-38249948D01*
X96672584Y-38249951D01*
X96795498Y-38332080D01*
X96795511Y-38332087D01*
X96888452Y-38370584D01*
X96932087Y-38388658D01*
X96932091Y-38388658D01*
X96932092Y-38388659D01*
X97077079Y-38417500D01*
X97077082Y-38417500D01*
X97224920Y-38417500D01*
X97322462Y-38398096D01*
X97369913Y-38388658D01*
X97506495Y-38332084D01*
X97629416Y-38249951D01*
X97733951Y-38145416D01*
X97816084Y-38022495D01*
X97872658Y-37885913D01*
X97901500Y-37740918D01*
X97901500Y-37593082D01*
X97901500Y-37593079D01*
X97872659Y-37448092D01*
X97872658Y-37448091D01*
X97872658Y-37448087D01*
X97817981Y-37316084D01*
X97816087Y-37311511D01*
X97816080Y-37311498D01*
X97733951Y-37188584D01*
X97733948Y-37188580D01*
X97629419Y-37084051D01*
X97629415Y-37084048D01*
X97506501Y-37001919D01*
X97506488Y-37001912D01*
X97369917Y-36945343D01*
X97369907Y-36945340D01*
X97224920Y-36916500D01*
X97224918Y-36916500D01*
X97077082Y-36916500D01*
X97077080Y-36916500D01*
X96932092Y-36945340D01*
X96932082Y-36945343D01*
X96795511Y-37001912D01*
X96795498Y-37001919D01*
X96672584Y-37084048D01*
X96672580Y-37084051D01*
X96568051Y-37188580D01*
X96568048Y-37188584D01*
X96485919Y-37311498D01*
X96485912Y-37311511D01*
X96429343Y-37448082D01*
X96429340Y-37448092D01*
X96400500Y-37593079D01*
X96400500Y-37593082D01*
X96400500Y-37740918D01*
X96400500Y-37740920D01*
X96400499Y-37740920D01*
X87354820Y-37740920D01*
X87913740Y-37316059D01*
X87917057Y-37313624D01*
X88709508Y-36752533D01*
X88712882Y-36750229D01*
X89523876Y-36216284D01*
X89527375Y-36214066D01*
X90282639Y-35752682D01*
X90347282Y-35734500D01*
X101366700Y-35734500D01*
X101433739Y-35754185D01*
G37*
%TD.AperFunction*%
%TD*%
M02*
