%TF.GenerationSoftware,KiCad,Pcbnew,9.0.4*%
%TF.CreationDate,2025-10-08T12:20:32+02:00*%
%TF.ProjectId,cansat-camera-pcb,63616e73-6174-42d6-9361-6d6572612d70,1.0*%
%TF.SameCoordinates,Original*%
%TF.FileFunction,Copper,L7,Inr*%
%TF.FilePolarity,Positive*%
%FSLAX46Y46*%
G04 Gerber Fmt 4.6, Leading zero omitted, Abs format (unit mm)*
G04 Created by KiCad (PCBNEW 9.0.4) date 2025-10-08 12:20:32*
%MOMM*%
%LPD*%
G01*
G04 APERTURE LIST*
%TA.AperFunction,ViaPad*%
%ADD10C,0.600000*%
%TD*%
%TA.AperFunction,ViaPad*%
%ADD11C,0.500000*%
%TD*%
%TA.AperFunction,ViaPad*%
%ADD12C,1.000000*%
%TD*%
%TA.AperFunction,ViaPad*%
%ADD13C,0.800000*%
%TD*%
G04 APERTURE END LIST*
D10*
%TO.N,GND*%
X60070000Y-118695000D03*
X92590000Y-108615000D03*
D11*
X73472012Y-114491000D03*
D10*
X60070000Y-121290000D03*
X50210000Y-115420000D03*
D11*
X87662000Y-116291000D03*
D10*
X89010000Y-140895000D03*
D12*
X55815000Y-134620000D03*
D11*
X71452954Y-117130292D03*
D10*
X72200000Y-124400000D03*
X62330000Y-138490000D03*
X75400000Y-124400000D03*
X51830000Y-112110000D03*
X76500000Y-130200000D03*
X85798000Y-142945000D03*
X75000000Y-130200000D03*
X93140000Y-140895000D03*
X79189000Y-151111000D03*
X87413000Y-128382000D03*
X60073000Y-109990000D03*
X89010000Y-144900000D03*
D11*
X62862000Y-105315000D03*
D10*
X89010000Y-148905000D03*
X86840000Y-138600000D03*
X74000000Y-128400000D03*
D11*
X83137000Y-127787000D03*
D10*
X77200000Y-125200000D03*
X55210000Y-116120000D03*
D11*
X68490000Y-111130000D03*
D12*
X92035000Y-110441000D03*
D10*
X62234500Y-141359500D03*
D11*
X61779000Y-132961500D03*
D10*
X61934500Y-142947500D03*
X89391000Y-122436000D03*
D11*
X91555000Y-116130000D03*
D13*
X87868000Y-136287000D03*
D10*
X70600000Y-125200000D03*
D13*
X60097000Y-125500000D03*
D10*
X55305000Y-140770000D03*
D13*
X59990000Y-126856500D03*
D11*
X80805000Y-128290000D03*
D10*
X56620000Y-146210000D03*
X81300000Y-122510000D03*
X70600000Y-124400000D03*
D11*
X81200000Y-118127000D03*
X75452012Y-103981000D03*
D10*
X57500000Y-106270000D03*
X60070000Y-116100000D03*
X74600000Y-124400000D03*
D12*
X55815000Y-126620000D03*
D11*
X66640000Y-119770000D03*
X72672012Y-117691000D03*
X69354000Y-128933000D03*
X67860000Y-116400000D03*
D12*
X51645000Y-134620000D03*
D10*
X83402084Y-147260833D03*
X66992012Y-103711000D03*
X57760000Y-113790000D03*
D11*
X72655000Y-151140000D03*
D10*
X70600000Y-130200000D03*
X62330000Y-135930000D03*
X74200000Y-130200000D03*
D11*
X70452012Y-103981000D03*
D10*
X86353000Y-147042000D03*
D11*
X71872012Y-114491000D03*
D10*
X87378000Y-120465000D03*
X91540000Y-146235000D03*
D11*
X61530000Y-117854000D03*
D10*
X86783000Y-126622000D03*
D11*
X74409000Y-151140000D03*
D10*
X76500000Y-129400000D03*
X86097000Y-141359000D03*
D11*
X81952012Y-103981000D03*
D10*
X66680000Y-142160000D03*
X89500000Y-105915000D03*
X77100000Y-128400000D03*
D12*
X96205000Y-130620000D03*
D10*
X80850000Y-142160000D03*
X87560000Y-117955000D03*
X70600000Y-131000000D03*
X94450000Y-143585000D03*
X74200000Y-131000000D03*
X66475000Y-147215000D03*
D11*
X63875000Y-147668000D03*
D10*
X59310000Y-144900000D03*
X73000000Y-125200000D03*
D11*
X86582012Y-109611000D03*
X79060000Y-114590000D03*
D10*
X81310000Y-107820000D03*
D12*
X92035000Y-132620000D03*
D10*
X59310000Y-140770000D03*
X73140000Y-122510000D03*
D11*
X66640000Y-112370000D03*
D10*
X71400000Y-125200000D03*
D12*
X55815000Y-136620000D03*
D10*
X62489500Y-147041500D03*
X67450000Y-129930000D03*
X71400000Y-124400000D03*
X75000000Y-131000000D03*
D11*
X85582012Y-117571000D03*
D10*
X72200000Y-125200000D03*
D11*
X61362012Y-124461000D03*
D10*
X75400000Y-125200000D03*
X77200000Y-124400000D03*
X73800000Y-125200000D03*
D12*
X92035000Y-130620000D03*
D11*
X77210000Y-112880000D03*
D10*
X65190000Y-111920000D03*
X71400000Y-131000000D03*
D11*
X74992012Y-128201000D03*
D10*
X65190000Y-107820000D03*
X87467012Y-122341000D03*
X81920000Y-130180000D03*
X73760000Y-138650000D03*
X59310000Y-149030000D03*
X97270000Y-140895000D03*
X66670000Y-138520000D03*
D11*
X88622000Y-110891000D03*
X89277000Y-107228000D03*
D10*
X62890000Y-128720000D03*
D13*
X86798000Y-132842000D03*
D10*
X97520000Y-115215000D03*
X51300000Y-140770000D03*
X74200000Y-129400000D03*
X61130000Y-104090000D03*
X76500000Y-131000000D03*
X86190000Y-104295000D03*
X53970000Y-143300000D03*
D11*
X74880000Y-109720000D03*
D10*
X74600000Y-125200000D03*
D12*
X55815000Y-124620000D03*
D11*
X67850000Y-120170000D03*
D10*
X75000000Y-129400000D03*
D12*
X96205000Y-132620000D03*
D11*
X81772012Y-125610000D03*
D13*
X94094000Y-135072000D03*
D10*
X73000000Y-124400000D03*
X89626000Y-135667000D03*
X54530000Y-109020000D03*
D11*
X87317000Y-108188000D03*
X61362012Y-112111000D03*
D10*
X71400000Y-129400000D03*
D11*
X83970000Y-149684000D03*
D12*
X51645000Y-136620000D03*
D10*
X71400000Y-130200000D03*
X73800000Y-124400000D03*
X95340000Y-111585000D03*
X80850000Y-138700000D03*
D11*
%TO.N,/RST*%
X85537000Y-112677000D03*
D10*
X92035000Y-114759000D03*
D11*
%TO.N,+3.3V*%
X63822000Y-105315000D03*
X69357000Y-129739000D03*
X86337000Y-108218000D03*
X61362012Y-113071000D03*
X69492012Y-103981000D03*
X61779000Y-130419000D03*
X86582012Y-110571000D03*
X61362012Y-125421000D03*
D13*
X88348000Y-132842000D03*
D11*
X80992012Y-103981000D03*
X64032000Y-118332000D03*
X74492012Y-103981000D03*
D13*
X59990000Y-137026500D03*
D11*
X85582012Y-116611000D03*
X75816952Y-132198952D03*
D10*
X85917012Y-122341000D03*
D11*
X83137000Y-126827000D03*
D13*
%TO.N,VCC*%
X87868000Y-134737000D03*
D11*
%TO.N,/camera/2.8V_camera*%
X83970000Y-148724000D03*
X78378000Y-148376000D03*
%TO.N,/DCMI_PIXCLK*%
X71695000Y-151140000D03*
X79722012Y-104116000D03*
X72175000Y-145118000D03*
%TO.N,/OV5640_RESET*%
X64917000Y-120941000D03*
X77775000Y-145118000D03*
X77236000Y-151140000D03*
%TO.N,/SWCLK*%
X61779000Y-131941500D03*
%TO.N,/BOOT0*%
X79785000Y-128290000D03*
%TO.N,/SWDIO*%
X61779000Y-129399000D03*
%TO.N,/LTE_reset*%
X86778000Y-125227000D03*
D12*
X96205000Y-128620000D03*
%TO.N,/LTE_pwrkey*%
X92035000Y-128620000D03*
D11*
X86754000Y-124285000D03*
%TO.N,/DCMI_VSYNC*%
X77075000Y-145118000D03*
X72022012Y-132736000D03*
%TO.N,/DCMI_D7*%
X74975000Y-145118000D03*
X83134512Y-122841000D03*
%TO.N,/I2C1_SCL*%
X78475000Y-145118000D03*
%TO.N,/DCMI_D2*%
X68675000Y-145118000D03*
X71592000Y-135824000D03*
X72722012Y-132736000D03*
D10*
%TO.N,/OV5640_PWDN*%
X68950000Y-135938000D03*
X70079500Y-134785500D03*
D11*
X64917000Y-120241000D03*
X76181000Y-151140000D03*
X76375000Y-145118000D03*
D10*
%TO.N,/camera/DATA1*%
X62804500Y-150443000D03*
X68675000Y-150984000D03*
D11*
%TO.N,/DCMI_D4*%
X71475000Y-145118000D03*
X81230500Y-145609500D03*
X83134512Y-123841000D03*
%TO.N,/DCMI_D6*%
X73575000Y-145118000D03*
X85134512Y-123346000D03*
%TO.N,/DCMI_D1*%
X64917000Y-119541000D03*
X69375000Y-145118000D03*
%TO.N,/DCMI_HYSNC*%
X75675000Y-145118000D03*
X80722012Y-106547000D03*
%TO.N,/DCMI_D0*%
X70775000Y-145118000D03*
X64917000Y-118841000D03*
%TO.N,/DCMI_D3*%
X70075000Y-145118000D03*
X72087000Y-136733000D03*
X73422012Y-132736000D03*
%TO.N,/DCMI_D5*%
X72875000Y-145118000D03*
D10*
X68722012Y-128120000D03*
D11*
%TO.N,/I2C1_SDA*%
X79175000Y-145118000D03*
%TO.N,/FMC_SDCKE0*%
X82920000Y-110841000D03*
%TO.N,/FMC_A3*%
X76672012Y-117691000D03*
%TO.N,/FMC_A9*%
X73222012Y-108210000D03*
X75072012Y-114491000D03*
%TO.N,/FMC_D10*%
X67723012Y-107090000D03*
%TO.N,/FMC_D1*%
X69305765Y-119842268D03*
X64977057Y-113790000D03*
%TO.N,/FMC_A6*%
X76680000Y-112140000D03*
%TO.N,/FMC_D6*%
X72672012Y-118491000D03*
X70604544Y-108210000D03*
X70121862Y-106790000D03*
%TO.N,/FMC_D12*%
X66623012Y-107090000D03*
%TO.N,/FMC_A8*%
X75872012Y-112891000D03*
%TO.N,/FMC_NBL1*%
X79730000Y-123440000D03*
X78380000Y-110680000D03*
X76430000Y-110680000D03*
%TO.N,/FMC_D0*%
X64250000Y-113260000D03*
%TO.N,/FMC_SDNRAS*%
X74272012Y-118491000D03*
X76340000Y-107430000D03*
X77405000Y-111355000D03*
%TO.N,/FMC_D2*%
X71070000Y-118500000D03*
%TO.N,/FMC_D11*%
X71872012Y-113691000D03*
%TO.N,/FMC_SDNE0*%
X82920000Y-111842629D03*
X80860384Y-114930384D03*
X75072012Y-119291000D03*
%TO.N,/FMC_A1*%
X75872012Y-118491000D03*
%TO.N,/FMC_SDNWE*%
X76660000Y-120630000D03*
X82920000Y-112606003D03*
X81660000Y-114930384D03*
%TO.N,/FMC_D3*%
X67772012Y-124830000D03*
%TO.N,/FMC_A4*%
X76672012Y-114491000D03*
%TO.N,/FMC_A10*%
X75872012Y-119291000D03*
X73311597Y-111908403D03*
X72460000Y-108210000D03*
X75490000Y-117140000D03*
%TO.N,/FMC_A11*%
X75070000Y-113680000D03*
%TO.N,/FMC_D15*%
X64940000Y-110450000D03*
%TO.N,/FMC_D8*%
X68824012Y-106790000D03*
%TO.N,/FMC_SDNCAS*%
X76230000Y-122750000D03*
X74272012Y-117691000D03*
%TO.N,/FMC_A5*%
X76672012Y-113691000D03*
%TO.N,/FMC_D14*%
X64160000Y-109890000D03*
%TO.N,/FMC_D13*%
X71072012Y-113691000D03*
%TO.N,/FMC_A7*%
X75872012Y-113691000D03*
%TO.N,/FMC_A0*%
X76210000Y-117160000D03*
X77590000Y-121140000D03*
%TO.N,/FMC_D5*%
X71206732Y-106693268D03*
X72672012Y-119291000D03*
%TO.N,/FMC_D4*%
X71330000Y-108210000D03*
X72280000Y-104080000D03*
X71872012Y-118491000D03*
%TO.N,/FMC_NBL0*%
X73472012Y-118491000D03*
%TO.N,/FMC_D7*%
X73472012Y-119291000D03*
X68630000Y-103640000D03*
X69460000Y-107090000D03*
%TO.N,/FMC_A2*%
X77253183Y-118691000D03*
%TO.N,/FMC_SDCLK*%
X74272012Y-115400000D03*
X74272012Y-113691000D03*
D12*
%TO.N,/UART4_RX*%
X55815000Y-130620000D03*
D10*
X57607000Y-127621000D03*
D11*
%TO.N,/FMC_A12*%
X75072012Y-112891000D03*
X61240000Y-114340000D03*
%TO.N,/FMC_D9*%
X72672012Y-113691000D03*
%TO.N,/FMC_BS1*%
X64917000Y-116240000D03*
X66560000Y-116220000D03*
X75072012Y-118491000D03*
%TO.N,/FMC_BS0*%
X64917000Y-115512706D03*
%TO.N,/I2C4_SDA*%
X64160000Y-111860000D03*
D12*
X51645000Y-118620000D03*
D11*
%TO.N,/I2C4_SCL*%
X58005000Y-120620000D03*
D12*
X51645000Y-120620000D03*
D11*
%TO.N,/camera/XCLK*%
X73755000Y-148087000D03*
D10*
%TO.N,+3.3VA*%
X60684500Y-141359500D03*
D11*
X66640000Y-118810000D03*
X67850000Y-119210000D03*
X80290000Y-121440000D03*
X73221013Y-110262183D03*
D13*
X94094000Y-136622000D03*
D10*
X61504500Y-150443000D03*
D11*
X78256000Y-151140000D03*
D10*
X62884500Y-142947500D03*
X86748000Y-142945000D03*
D11*
X73472012Y-117691000D03*
D10*
X84547000Y-141359000D03*
X84848000Y-142945000D03*
D11*
X79060000Y-115550000D03*
X79022012Y-130510000D03*
D10*
X60984500Y-142947500D03*
D11*
X75111000Y-148669000D03*
X66670000Y-114755000D03*
X67860000Y-117340000D03*
X71872012Y-117691000D03*
%TD*%
%TA.AperFunction,Conductor*%
%TO.N,GND*%
G36*
X67914309Y-103140185D02*
G01*
X67960064Y-103192989D01*
X67970008Y-103262147D01*
X67961831Y-103291953D01*
X67908342Y-103421086D01*
X67908340Y-103421092D01*
X67879500Y-103566079D01*
X67879500Y-103566082D01*
X67879500Y-103713918D01*
X67879500Y-103713920D01*
X67879499Y-103713920D01*
X67908340Y-103858907D01*
X67908343Y-103858917D01*
X67964912Y-103995488D01*
X67964919Y-103995501D01*
X68047048Y-104118415D01*
X68047051Y-104118419D01*
X68151580Y-104222948D01*
X68151584Y-104222951D01*
X68274498Y-104305080D01*
X68274511Y-104305087D01*
X68411082Y-104361656D01*
X68411087Y-104361658D01*
X68411091Y-104361658D01*
X68411092Y-104361659D01*
X68556079Y-104390500D01*
X68556082Y-104390500D01*
X68703918Y-104390500D01*
X68763086Y-104378730D01*
X68832675Y-104384956D01*
X68887853Y-104427818D01*
X68890380Y-104431458D01*
X68909059Y-104459414D01*
X68909063Y-104459419D01*
X69013592Y-104563948D01*
X69013596Y-104563951D01*
X69136510Y-104646080D01*
X69136523Y-104646087D01*
X69264142Y-104698948D01*
X69273099Y-104702658D01*
X69273103Y-104702658D01*
X69273104Y-104702659D01*
X69418091Y-104731500D01*
X69418094Y-104731500D01*
X69565932Y-104731500D01*
X69663474Y-104712096D01*
X69710925Y-104702658D01*
X69816559Y-104658902D01*
X69847500Y-104646087D01*
X69847500Y-104646086D01*
X69847507Y-104646084D01*
X69970428Y-104563951D01*
X70074963Y-104459416D01*
X70157096Y-104336495D01*
X70213670Y-104199913D01*
X70229881Y-104118415D01*
X70242512Y-104054920D01*
X70242512Y-103907079D01*
X70213671Y-103762092D01*
X70213670Y-103762091D01*
X70213670Y-103762087D01*
X70168590Y-103653254D01*
X70157099Y-103625511D01*
X70157092Y-103625498D01*
X70074963Y-103502584D01*
X70074960Y-103502580D01*
X69970428Y-103398048D01*
X69894929Y-103347602D01*
X69850124Y-103293990D01*
X69841417Y-103224665D01*
X69871571Y-103161638D01*
X69931014Y-103124918D01*
X69963820Y-103120500D01*
X72011899Y-103120500D01*
X72078938Y-103140185D01*
X72124693Y-103192989D01*
X72134637Y-103262147D01*
X72105612Y-103325703D01*
X72059351Y-103359061D01*
X71924511Y-103414912D01*
X71924498Y-103414919D01*
X71801584Y-103497048D01*
X71801580Y-103497051D01*
X71697051Y-103601580D01*
X71697048Y-103601584D01*
X71614919Y-103724498D01*
X71614912Y-103724511D01*
X71558343Y-103861082D01*
X71558340Y-103861092D01*
X71529500Y-104006079D01*
X71529500Y-104006082D01*
X71529500Y-104153918D01*
X71529500Y-104153920D01*
X71529499Y-104153920D01*
X71558340Y-104298907D01*
X71558343Y-104298917D01*
X71614912Y-104435488D01*
X71614919Y-104435501D01*
X71697048Y-104558415D01*
X71697051Y-104558419D01*
X71801580Y-104662948D01*
X71801584Y-104662951D01*
X71924498Y-104745080D01*
X71924511Y-104745087D01*
X72011424Y-104781087D01*
X72061087Y-104801658D01*
X72061091Y-104801658D01*
X72061092Y-104801659D01*
X72206079Y-104830500D01*
X72206082Y-104830500D01*
X72353920Y-104830500D01*
X72451462Y-104811096D01*
X72498913Y-104801658D01*
X72604547Y-104757902D01*
X72635488Y-104745087D01*
X72635488Y-104745086D01*
X72635495Y-104745084D01*
X72758416Y-104662951D01*
X72862951Y-104558416D01*
X72945084Y-104435495D01*
X73001658Y-104298913D01*
X73030500Y-104153918D01*
X73030500Y-104006082D01*
X73030500Y-104006079D01*
X73001659Y-103861092D01*
X73001658Y-103861091D01*
X73001658Y-103861087D01*
X72960649Y-103762082D01*
X72945087Y-103724511D01*
X72945080Y-103724498D01*
X72862951Y-103601584D01*
X72862948Y-103601580D01*
X72758419Y-103497051D01*
X72758415Y-103497048D01*
X72635501Y-103414919D01*
X72635488Y-103414912D01*
X72500649Y-103359061D01*
X72446245Y-103315220D01*
X72424180Y-103248926D01*
X72441459Y-103181227D01*
X72492596Y-103133616D01*
X72548101Y-103120500D01*
X74020204Y-103120500D01*
X74087243Y-103140185D01*
X74132998Y-103192989D01*
X74142942Y-103262147D01*
X74113917Y-103325703D01*
X74089095Y-103347602D01*
X74013595Y-103398048D01*
X73909063Y-103502580D01*
X73909060Y-103502584D01*
X73826931Y-103625498D01*
X73826924Y-103625511D01*
X73770355Y-103762082D01*
X73770352Y-103762092D01*
X73741512Y-103907079D01*
X73741512Y-103907082D01*
X73741512Y-104054918D01*
X73741512Y-104054920D01*
X73741511Y-104054920D01*
X73770352Y-104199907D01*
X73770355Y-104199917D01*
X73826924Y-104336488D01*
X73826931Y-104336501D01*
X73909060Y-104459415D01*
X73909063Y-104459419D01*
X74013592Y-104563948D01*
X74013596Y-104563951D01*
X74136510Y-104646080D01*
X74136523Y-104646087D01*
X74264142Y-104698948D01*
X74273099Y-104702658D01*
X74273103Y-104702658D01*
X74273104Y-104702659D01*
X74418091Y-104731500D01*
X74418094Y-104731500D01*
X74565932Y-104731500D01*
X74663474Y-104712096D01*
X74710925Y-104702658D01*
X74816559Y-104658902D01*
X74847500Y-104646087D01*
X74847500Y-104646086D01*
X74847507Y-104646084D01*
X74970428Y-104563951D01*
X75074963Y-104459416D01*
X75157096Y-104336495D01*
X75213670Y-104199913D01*
X75229881Y-104118415D01*
X75242512Y-104054920D01*
X75242512Y-103907079D01*
X75213671Y-103762092D01*
X75213670Y-103762091D01*
X75213670Y-103762087D01*
X75168590Y-103653254D01*
X75157099Y-103625511D01*
X75157092Y-103625498D01*
X75074963Y-103502584D01*
X75074960Y-103502580D01*
X74970428Y-103398048D01*
X74894929Y-103347602D01*
X74850124Y-103293990D01*
X74841417Y-103224665D01*
X74871571Y-103161638D01*
X74931014Y-103124918D01*
X74963820Y-103120500D01*
X80520204Y-103120500D01*
X80587243Y-103140185D01*
X80632998Y-103192989D01*
X80642942Y-103262147D01*
X80613917Y-103325703D01*
X80589095Y-103347602D01*
X80513595Y-103398048D01*
X80409063Y-103502580D01*
X80409060Y-103502584D01*
X80397235Y-103520282D01*
X80343622Y-103565087D01*
X80274297Y-103573794D01*
X80211270Y-103543639D01*
X80206452Y-103539072D01*
X80200431Y-103533051D01*
X80200427Y-103533048D01*
X80077513Y-103450919D01*
X80077500Y-103450912D01*
X79940929Y-103394343D01*
X79940919Y-103394340D01*
X79811014Y-103368500D01*
X79811012Y-103368500D01*
X79795930Y-103365500D01*
X79648094Y-103365500D01*
X79633012Y-103368500D01*
X79633010Y-103368500D01*
X79503104Y-103394340D01*
X79503094Y-103394343D01*
X79366523Y-103450912D01*
X79366510Y-103450919D01*
X79243596Y-103533048D01*
X79243592Y-103533051D01*
X79139063Y-103637580D01*
X79139060Y-103637584D01*
X79056931Y-103760498D01*
X79056924Y-103760511D01*
X79000355Y-103897082D01*
X79000352Y-103897092D01*
X78971512Y-104042079D01*
X78971512Y-104042082D01*
X78971512Y-104189918D01*
X78971512Y-104189920D01*
X78971511Y-104189920D01*
X79000352Y-104334907D01*
X79000355Y-104334917D01*
X79056924Y-104471488D01*
X79056931Y-104471501D01*
X79139060Y-104594415D01*
X79139063Y-104594419D01*
X79243592Y-104698948D01*
X79243596Y-104698951D01*
X79366510Y-104781080D01*
X79366523Y-104781087D01*
X79485818Y-104830500D01*
X79503099Y-104837658D01*
X79503103Y-104837658D01*
X79503104Y-104837659D01*
X79648091Y-104866500D01*
X79648094Y-104866500D01*
X79795932Y-104866500D01*
X79893474Y-104847096D01*
X79940925Y-104837658D01*
X80077507Y-104781084D01*
X80200428Y-104698951D01*
X80304963Y-104594416D01*
X80316786Y-104576720D01*
X80370395Y-104531914D01*
X80439720Y-104523204D01*
X80502749Y-104553356D01*
X80507571Y-104557927D01*
X80513592Y-104563948D01*
X80513596Y-104563951D01*
X80636510Y-104646080D01*
X80636523Y-104646087D01*
X80764142Y-104698948D01*
X80773099Y-104702658D01*
X80773103Y-104702658D01*
X80773104Y-104702659D01*
X80918091Y-104731500D01*
X80918094Y-104731500D01*
X81065932Y-104731500D01*
X81163474Y-104712096D01*
X81210925Y-104702658D01*
X81316559Y-104658902D01*
X81347500Y-104646087D01*
X81347500Y-104646086D01*
X81347507Y-104646084D01*
X81470428Y-104563951D01*
X81574963Y-104459416D01*
X81657096Y-104336495D01*
X81713670Y-104199913D01*
X81729881Y-104118415D01*
X81742512Y-104054920D01*
X81742512Y-103907079D01*
X81713671Y-103762092D01*
X81713670Y-103762091D01*
X81713670Y-103762087D01*
X81668590Y-103653254D01*
X81657099Y-103625511D01*
X81657092Y-103625498D01*
X81574963Y-103502584D01*
X81574960Y-103502580D01*
X81470428Y-103398048D01*
X81394929Y-103347602D01*
X81350124Y-103293990D01*
X81341417Y-103224665D01*
X81371571Y-103161638D01*
X81431014Y-103124918D01*
X81463820Y-103120500D01*
X88446417Y-103120500D01*
X88511059Y-103138682D01*
X88661360Y-103230500D01*
X89189898Y-103553379D01*
X89193443Y-103555627D01*
X89995882Y-104083938D01*
X89999343Y-104086302D01*
X90094840Y-104153918D01*
X90783415Y-104641461D01*
X90786799Y-104643945D01*
X91551637Y-105225334D01*
X91554920Y-105227919D01*
X92287953Y-105825342D01*
X92299629Y-105834858D01*
X92302832Y-105837560D01*
X92975655Y-106424916D01*
X93026564Y-106469358D01*
X93029677Y-106472169D01*
X93430845Y-106847051D01*
X93731627Y-107128125D01*
X93734645Y-107131043D01*
X94413956Y-107810354D01*
X94416874Y-107813372D01*
X95072827Y-108515319D01*
X95075641Y-108518435D01*
X95287016Y-108760567D01*
X95436372Y-108931657D01*
X95707434Y-109242161D01*
X95710141Y-109245370D01*
X96315426Y-109988049D01*
X96317068Y-109990063D01*
X96319665Y-109993362D01*
X96901054Y-110758200D01*
X96903538Y-110761584D01*
X97458693Y-111545650D01*
X97461061Y-111549117D01*
X97989372Y-112351556D01*
X97991620Y-112355101D01*
X98295225Y-112852087D01*
X98362058Y-112961491D01*
X98406317Y-113033940D01*
X98424500Y-113098583D01*
X98424500Y-142141415D01*
X98406317Y-142206058D01*
X97991620Y-142884898D01*
X97989372Y-142888443D01*
X97461061Y-143690882D01*
X97458693Y-143694349D01*
X96903538Y-144478415D01*
X96901054Y-144481799D01*
X96319665Y-145246637D01*
X96317068Y-145249936D01*
X95710141Y-145994629D01*
X95707434Y-145997838D01*
X95075641Y-146721564D01*
X95072827Y-146724680D01*
X94416874Y-147426627D01*
X94413956Y-147429645D01*
X93734645Y-148108956D01*
X93731627Y-148111874D01*
X93029680Y-148767827D01*
X93026564Y-148770641D01*
X92302838Y-149402434D01*
X92299629Y-149405141D01*
X91554936Y-150012068D01*
X91551637Y-150014665D01*
X90786799Y-150596054D01*
X90783415Y-150598538D01*
X89999349Y-151153693D01*
X89995882Y-151156061D01*
X89193443Y-151684372D01*
X89189898Y-151686620D01*
X88616748Y-152036753D01*
X88513519Y-152099815D01*
X88511060Y-152101317D01*
X88446417Y-152119500D01*
X78437649Y-152119500D01*
X78370610Y-152099815D01*
X78324855Y-152047011D01*
X78314911Y-151977853D01*
X78343936Y-151914297D01*
X78402714Y-151876523D01*
X78413457Y-151873883D01*
X78452797Y-151866057D01*
X78474913Y-151861658D01*
X78611495Y-151805084D01*
X78734416Y-151722951D01*
X78838951Y-151618416D01*
X78921084Y-151495495D01*
X78977658Y-151358913D01*
X79000616Y-151243499D01*
X79006500Y-151213920D01*
X79006500Y-151066079D01*
X78977659Y-150921092D01*
X78977658Y-150921091D01*
X78977658Y-150921087D01*
X78936689Y-150822179D01*
X78921087Y-150784511D01*
X78921080Y-150784498D01*
X78838951Y-150661584D01*
X78838948Y-150661580D01*
X78734419Y-150557051D01*
X78734415Y-150557048D01*
X78611501Y-150474919D01*
X78611488Y-150474912D01*
X78474917Y-150418343D01*
X78474907Y-150418340D01*
X78329920Y-150389500D01*
X78329918Y-150389500D01*
X78182082Y-150389500D01*
X78182080Y-150389500D01*
X78037092Y-150418340D01*
X78037082Y-150418343D01*
X77900511Y-150474912D01*
X77900500Y-150474918D01*
X77814890Y-150532121D01*
X77748213Y-150552998D01*
X77680833Y-150534513D01*
X77677110Y-150532121D01*
X77591499Y-150474918D01*
X77591488Y-150474912D01*
X77454917Y-150418343D01*
X77454907Y-150418340D01*
X77309920Y-150389500D01*
X77309918Y-150389500D01*
X77162082Y-150389500D01*
X77162080Y-150389500D01*
X77017092Y-150418340D01*
X77017082Y-150418343D01*
X76880511Y-150474912D01*
X76880498Y-150474919D01*
X76777391Y-150543814D01*
X76710713Y-150564692D01*
X76643333Y-150546207D01*
X76639609Y-150543814D01*
X76536501Y-150474919D01*
X76536488Y-150474912D01*
X76399917Y-150418343D01*
X76399907Y-150418340D01*
X76254920Y-150389500D01*
X76254918Y-150389500D01*
X76107082Y-150389500D01*
X76107080Y-150389500D01*
X75962092Y-150418340D01*
X75962082Y-150418343D01*
X75825511Y-150474912D01*
X75825498Y-150474919D01*
X75702584Y-150557048D01*
X75702580Y-150557051D01*
X75598051Y-150661580D01*
X75598048Y-150661584D01*
X75515919Y-150784498D01*
X75515912Y-150784511D01*
X75459343Y-150921082D01*
X75459340Y-150921092D01*
X75430500Y-151066079D01*
X75430500Y-151066082D01*
X75430500Y-151213918D01*
X75430500Y-151213920D01*
X75430499Y-151213920D01*
X75459340Y-151358907D01*
X75459343Y-151358917D01*
X75515912Y-151495488D01*
X75515919Y-151495501D01*
X75598048Y-151618415D01*
X75598051Y-151618419D01*
X75702580Y-151722948D01*
X75702584Y-151722951D01*
X75825498Y-151805080D01*
X75825511Y-151805087D01*
X75962082Y-151861656D01*
X75962087Y-151861658D01*
X75962091Y-151861658D01*
X75962092Y-151861659D01*
X76023543Y-151873883D01*
X76085454Y-151906268D01*
X76120028Y-151966984D01*
X76116288Y-152036753D01*
X76075421Y-152093425D01*
X76010403Y-152119007D01*
X75999351Y-152119500D01*
X71876649Y-152119500D01*
X71809610Y-152099815D01*
X71763855Y-152047011D01*
X71753911Y-151977853D01*
X71782936Y-151914297D01*
X71841714Y-151876523D01*
X71852457Y-151873883D01*
X71891797Y-151866057D01*
X71913913Y-151861658D01*
X72050495Y-151805084D01*
X72173416Y-151722951D01*
X72277951Y-151618416D01*
X72360084Y-151495495D01*
X72416658Y-151358913D01*
X72439616Y-151243499D01*
X72445500Y-151213920D01*
X72445500Y-151066079D01*
X72416659Y-150921092D01*
X72416658Y-150921091D01*
X72416658Y-150921087D01*
X72375689Y-150822179D01*
X72360087Y-150784511D01*
X72360080Y-150784498D01*
X72277951Y-150661584D01*
X72277948Y-150661580D01*
X72173419Y-150557051D01*
X72173415Y-150557048D01*
X72050501Y-150474919D01*
X72050488Y-150474912D01*
X71913917Y-150418343D01*
X71913907Y-150418340D01*
X71768920Y-150389500D01*
X71768918Y-150389500D01*
X71621082Y-150389500D01*
X71621080Y-150389500D01*
X71476092Y-150418340D01*
X71476082Y-150418343D01*
X71339511Y-150474912D01*
X71339498Y-150474919D01*
X71216584Y-150557048D01*
X71216580Y-150557051D01*
X71112051Y-150661580D01*
X71112048Y-150661584D01*
X71029919Y-150784498D01*
X71029912Y-150784511D01*
X70973343Y-150921082D01*
X70973340Y-150921092D01*
X70944500Y-151066079D01*
X70944500Y-151066082D01*
X70944500Y-151213918D01*
X70944500Y-151213920D01*
X70944499Y-151213920D01*
X70973340Y-151358907D01*
X70973343Y-151358917D01*
X71029912Y-151495488D01*
X71029919Y-151495501D01*
X71112048Y-151618415D01*
X71112051Y-151618419D01*
X71216580Y-151722948D01*
X71216584Y-151722951D01*
X71339498Y-151805080D01*
X71339511Y-151805087D01*
X71476082Y-151861656D01*
X71476087Y-151861658D01*
X71476091Y-151861658D01*
X71476092Y-151861659D01*
X71537543Y-151873883D01*
X71599454Y-151906268D01*
X71634028Y-151966984D01*
X71630288Y-152036753D01*
X71589421Y-152093425D01*
X71524403Y-152119007D01*
X71513351Y-152119500D01*
X59403583Y-152119500D01*
X59338940Y-152101317D01*
X59336481Y-152099815D01*
X59019654Y-151906268D01*
X58660101Y-151686620D01*
X58656556Y-151684372D01*
X57854117Y-151156061D01*
X57850650Y-151153693D01*
X57066584Y-150598538D01*
X57063200Y-150596054D01*
X56879984Y-150456783D01*
X56758126Y-150364153D01*
X60704000Y-150364153D01*
X60704000Y-150521846D01*
X60734761Y-150676489D01*
X60734764Y-150676501D01*
X60795102Y-150822172D01*
X60795109Y-150822185D01*
X60882710Y-150953288D01*
X60882713Y-150953292D01*
X60994207Y-151064786D01*
X60994211Y-151064789D01*
X61125314Y-151152390D01*
X61125327Y-151152397D01*
X61270998Y-151212735D01*
X61271003Y-151212737D01*
X61425653Y-151243499D01*
X61425656Y-151243500D01*
X61425658Y-151243500D01*
X61583344Y-151243500D01*
X61583345Y-151243499D01*
X61737997Y-151212737D01*
X61874826Y-151156061D01*
X61883672Y-151152397D01*
X61883672Y-151152396D01*
X61883679Y-151152394D01*
X62014789Y-151064789D01*
X62016736Y-151062842D01*
X62066819Y-151012760D01*
X62128142Y-150979275D01*
X62197834Y-150984259D01*
X62242181Y-151012760D01*
X62294207Y-151064786D01*
X62294211Y-151064789D01*
X62425314Y-151152390D01*
X62425327Y-151152397D01*
X62570998Y-151212735D01*
X62571003Y-151212737D01*
X62725653Y-151243499D01*
X62725656Y-151243500D01*
X62725658Y-151243500D01*
X62883344Y-151243500D01*
X62883345Y-151243499D01*
X63037997Y-151212737D01*
X63174826Y-151156061D01*
X63183672Y-151152397D01*
X63183672Y-151152396D01*
X63183679Y-151152394D01*
X63314789Y-151064789D01*
X63426289Y-150953289D01*
X63458452Y-150905153D01*
X67874500Y-150905153D01*
X67874500Y-151062846D01*
X67905261Y-151217489D01*
X67905264Y-151217501D01*
X67965602Y-151363172D01*
X67965609Y-151363185D01*
X68053210Y-151494288D01*
X68053213Y-151494292D01*
X68164707Y-151605786D01*
X68164711Y-151605789D01*
X68295814Y-151693390D01*
X68295827Y-151693397D01*
X68427360Y-151747879D01*
X68441503Y-151753737D01*
X68596153Y-151784499D01*
X68596156Y-151784500D01*
X68596158Y-151784500D01*
X68753844Y-151784500D01*
X68753845Y-151784499D01*
X68908497Y-151753737D01*
X69054179Y-151693394D01*
X69185289Y-151605789D01*
X69296789Y-151494289D01*
X69384394Y-151363179D01*
X69444737Y-151217497D01*
X69475500Y-151062842D01*
X69475500Y-150905158D01*
X69475500Y-150905155D01*
X69475499Y-150905153D01*
X69460585Y-150830175D01*
X69444737Y-150750503D01*
X69407906Y-150661584D01*
X69384397Y-150604827D01*
X69384390Y-150604814D01*
X69296789Y-150473711D01*
X69296786Y-150473707D01*
X69185292Y-150362213D01*
X69185288Y-150362210D01*
X69054185Y-150274609D01*
X69054172Y-150274602D01*
X68908501Y-150214264D01*
X68908489Y-150214261D01*
X68753845Y-150183500D01*
X68753842Y-150183500D01*
X68596158Y-150183500D01*
X68596155Y-150183500D01*
X68441510Y-150214261D01*
X68441498Y-150214264D01*
X68295827Y-150274602D01*
X68295814Y-150274609D01*
X68164711Y-150362210D01*
X68164707Y-150362213D01*
X68053213Y-150473707D01*
X68053210Y-150473711D01*
X67965609Y-150604814D01*
X67965602Y-150604827D01*
X67905264Y-150750498D01*
X67905261Y-150750510D01*
X67874500Y-150905153D01*
X63458452Y-150905153D01*
X63464711Y-150895786D01*
X63508552Y-150830175D01*
X63513891Y-150822183D01*
X63513894Y-150822179D01*
X63574237Y-150676497D01*
X63605000Y-150521842D01*
X63605000Y-150364158D01*
X63605000Y-150364155D01*
X63604999Y-150364153D01*
X63575184Y-150214264D01*
X63574237Y-150209503D01*
X63563466Y-150183500D01*
X63513897Y-150063827D01*
X63513890Y-150063814D01*
X63426289Y-149932711D01*
X63426286Y-149932707D01*
X63314792Y-149821213D01*
X63314788Y-149821210D01*
X63183685Y-149733609D01*
X63183672Y-149733602D01*
X63038001Y-149673264D01*
X63037989Y-149673261D01*
X62883345Y-149642500D01*
X62883342Y-149642500D01*
X62725658Y-149642500D01*
X62725655Y-149642500D01*
X62571010Y-149673261D01*
X62570998Y-149673264D01*
X62425327Y-149733602D01*
X62425314Y-149733609D01*
X62294211Y-149821210D01*
X62294207Y-149821213D01*
X62242181Y-149873240D01*
X62180858Y-149906725D01*
X62111166Y-149901741D01*
X62066819Y-149873240D01*
X62014792Y-149821213D01*
X62014788Y-149821210D01*
X61883685Y-149733609D01*
X61883672Y-149733602D01*
X61738001Y-149673264D01*
X61737989Y-149673261D01*
X61583345Y-149642500D01*
X61583342Y-149642500D01*
X61425658Y-149642500D01*
X61425655Y-149642500D01*
X61271010Y-149673261D01*
X61270998Y-149673264D01*
X61125327Y-149733602D01*
X61125314Y-149733609D01*
X60994211Y-149821210D01*
X60994207Y-149821213D01*
X60882713Y-149932707D01*
X60882710Y-149932711D01*
X60795109Y-150063814D01*
X60795102Y-150063827D01*
X60734764Y-150209498D01*
X60734761Y-150209510D01*
X60704000Y-150364153D01*
X56758126Y-150364153D01*
X56298362Y-150014665D01*
X56295063Y-150012068D01*
X56249496Y-149974931D01*
X55550370Y-149405141D01*
X55547161Y-149402434D01*
X55533671Y-149390658D01*
X54823435Y-148770641D01*
X54820319Y-148767827D01*
X54635461Y-148595082D01*
X54170857Y-148160920D01*
X73004499Y-148160920D01*
X73033340Y-148305907D01*
X73033343Y-148305917D01*
X73089912Y-148442488D01*
X73089919Y-148442501D01*
X73172048Y-148565415D01*
X73172051Y-148565419D01*
X73276580Y-148669948D01*
X73276584Y-148669951D01*
X73399498Y-148752080D01*
X73399511Y-148752087D01*
X73510158Y-148797918D01*
X73536087Y-148808658D01*
X73536091Y-148808658D01*
X73536092Y-148808659D01*
X73681079Y-148837500D01*
X73681082Y-148837500D01*
X73828920Y-148837500D01*
X73926462Y-148818096D01*
X73973913Y-148808658D01*
X74110495Y-148752084D01*
X74141319Y-148731488D01*
X74178476Y-148706661D01*
X74245153Y-148685783D01*
X74312534Y-148704267D01*
X74359224Y-148756246D01*
X74368984Y-148785571D01*
X74389340Y-148887907D01*
X74389343Y-148887917D01*
X74445912Y-149024488D01*
X74445919Y-149024501D01*
X74528048Y-149147415D01*
X74528051Y-149147419D01*
X74632580Y-149251948D01*
X74632584Y-149251951D01*
X74755498Y-149334080D01*
X74755511Y-149334087D01*
X74888277Y-149389080D01*
X74892087Y-149390658D01*
X74892091Y-149390658D01*
X74892092Y-149390659D01*
X75037079Y-149419500D01*
X75037082Y-149419500D01*
X75184920Y-149419500D01*
X75282462Y-149400096D01*
X75329913Y-149390658D01*
X75466495Y-149334084D01*
X75589416Y-149251951D01*
X75693951Y-149147416D01*
X75776084Y-149024495D01*
X75832658Y-148887913D01*
X75853016Y-148785571D01*
X75861500Y-148742920D01*
X75861500Y-148595079D01*
X75832659Y-148450092D01*
X75832658Y-148450091D01*
X75832658Y-148450087D01*
X75832589Y-148449920D01*
X77627499Y-148449920D01*
X77656340Y-148594907D01*
X77656343Y-148594917D01*
X77712912Y-148731488D01*
X77712919Y-148731501D01*
X77795048Y-148854415D01*
X77795051Y-148854419D01*
X77899580Y-148958948D01*
X77899584Y-148958951D01*
X78022498Y-149041080D01*
X78022511Y-149041087D01*
X78115252Y-149079501D01*
X78159087Y-149097658D01*
X78159091Y-149097658D01*
X78159092Y-149097659D01*
X78304079Y-149126500D01*
X78304082Y-149126500D01*
X78451920Y-149126500D01*
X78549462Y-149107096D01*
X78596913Y-149097658D01*
X78733495Y-149041084D01*
X78856416Y-148958951D01*
X78960951Y-148854416D01*
X78998700Y-148797920D01*
X83219499Y-148797920D01*
X83248340Y-148942907D01*
X83248343Y-148942917D01*
X83304912Y-149079488D01*
X83304919Y-149079501D01*
X83387048Y-149202415D01*
X83387051Y-149202419D01*
X83491580Y-149306948D01*
X83491584Y-149306951D01*
X83614498Y-149389080D01*
X83614511Y-149389087D01*
X83751082Y-149445656D01*
X83751087Y-149445658D01*
X83751091Y-149445658D01*
X83751092Y-149445659D01*
X83896079Y-149474500D01*
X83896082Y-149474500D01*
X84043920Y-149474500D01*
X84141462Y-149455096D01*
X84188913Y-149445658D01*
X84325495Y-149389084D01*
X84448416Y-149306951D01*
X84552951Y-149202416D01*
X84635084Y-149079495D01*
X84691658Y-148942913D01*
X84709262Y-148854415D01*
X84720500Y-148797920D01*
X84720500Y-148650079D01*
X84691659Y-148505092D01*
X84691658Y-148505091D01*
X84691658Y-148505087D01*
X84682500Y-148482978D01*
X84635087Y-148368511D01*
X84635080Y-148368498D01*
X84552951Y-148245584D01*
X84552948Y-148245580D01*
X84448419Y-148141051D01*
X84448415Y-148141048D01*
X84325501Y-148058919D01*
X84325488Y-148058912D01*
X84188917Y-148002343D01*
X84188907Y-148002340D01*
X84043920Y-147973500D01*
X84043918Y-147973500D01*
X83896082Y-147973500D01*
X83896080Y-147973500D01*
X83751092Y-148002340D01*
X83751082Y-148002343D01*
X83614511Y-148058912D01*
X83614498Y-148058919D01*
X83491584Y-148141048D01*
X83491580Y-148141051D01*
X83387051Y-148245580D01*
X83387048Y-148245584D01*
X83304919Y-148368498D01*
X83304912Y-148368511D01*
X83248343Y-148505082D01*
X83248340Y-148505092D01*
X83219500Y-148650079D01*
X83219500Y-148650082D01*
X83219500Y-148797918D01*
X83219500Y-148797920D01*
X83219499Y-148797920D01*
X78998700Y-148797920D01*
X79043084Y-148731495D01*
X79062019Y-148685783D01*
X79098985Y-148596538D01*
X79098985Y-148596537D01*
X79098986Y-148596536D01*
X79099656Y-148594918D01*
X79099656Y-148594917D01*
X79099658Y-148594913D01*
X79117527Y-148505082D01*
X79128500Y-148449920D01*
X79128500Y-148302079D01*
X79099659Y-148157092D01*
X79099658Y-148157091D01*
X79099658Y-148157087D01*
X79093015Y-148141049D01*
X79043087Y-148020511D01*
X79043080Y-148020498D01*
X78960951Y-147897584D01*
X78960948Y-147897580D01*
X78856419Y-147793051D01*
X78856415Y-147793048D01*
X78733501Y-147710919D01*
X78733488Y-147710912D01*
X78596917Y-147654343D01*
X78596907Y-147654340D01*
X78451920Y-147625500D01*
X78451918Y-147625500D01*
X78304082Y-147625500D01*
X78304080Y-147625500D01*
X78159092Y-147654340D01*
X78159082Y-147654343D01*
X78022511Y-147710912D01*
X78022498Y-147710919D01*
X77899584Y-147793048D01*
X77899580Y-147793051D01*
X77795051Y-147897580D01*
X77795048Y-147897584D01*
X77712919Y-148020498D01*
X77712912Y-148020511D01*
X77656343Y-148157082D01*
X77656340Y-148157092D01*
X77627500Y-148302079D01*
X77627500Y-148302082D01*
X77627500Y-148449918D01*
X77627500Y-148449920D01*
X77627499Y-148449920D01*
X75832589Y-148449920D01*
X75829513Y-148442495D01*
X75788485Y-148343442D01*
X75776085Y-148313508D01*
X75776084Y-148313505D01*
X75776082Y-148313502D01*
X75776080Y-148313498D01*
X75693951Y-148190584D01*
X75693948Y-148190580D01*
X75589419Y-148086051D01*
X75589415Y-148086048D01*
X75466501Y-148003919D01*
X75466488Y-148003912D01*
X75329917Y-147947343D01*
X75329907Y-147947340D01*
X75184920Y-147918500D01*
X75184918Y-147918500D01*
X75037082Y-147918500D01*
X75037080Y-147918500D01*
X74892092Y-147947340D01*
X74892082Y-147947343D01*
X74755511Y-148003912D01*
X74755495Y-148003921D01*
X74687521Y-148049339D01*
X74620844Y-148070216D01*
X74553464Y-148051731D01*
X74506774Y-147999751D01*
X74497015Y-147970427D01*
X74482525Y-147897584D01*
X74476658Y-147868087D01*
X74445577Y-147793051D01*
X74420087Y-147731511D01*
X74420080Y-147731498D01*
X74337951Y-147608584D01*
X74337948Y-147608580D01*
X74233419Y-147504051D01*
X74233415Y-147504048D01*
X74110501Y-147421919D01*
X74110488Y-147421912D01*
X73973917Y-147365343D01*
X73973907Y-147365340D01*
X73828920Y-147336500D01*
X73828918Y-147336500D01*
X73681082Y-147336500D01*
X73681080Y-147336500D01*
X73536092Y-147365340D01*
X73536082Y-147365343D01*
X73399511Y-147421912D01*
X73399498Y-147421919D01*
X73276584Y-147504048D01*
X73276580Y-147504051D01*
X73172051Y-147608580D01*
X73172048Y-147608584D01*
X73089919Y-147731498D01*
X73089912Y-147731511D01*
X73033343Y-147868082D01*
X73033340Y-147868092D01*
X73004500Y-148013079D01*
X73004500Y-148013082D01*
X73004500Y-148160918D01*
X73004500Y-148160920D01*
X73004499Y-148160920D01*
X54170857Y-148160920D01*
X54118372Y-148111874D01*
X54115354Y-148108956D01*
X53436043Y-147429645D01*
X53433125Y-147426627D01*
X52777169Y-146724677D01*
X52774358Y-146721564D01*
X52433544Y-146331158D01*
X52142560Y-145997832D01*
X52139858Y-145994629D01*
X52115706Y-145964995D01*
X51532919Y-145249920D01*
X51530334Y-145246638D01*
X51488740Y-145191920D01*
X67924499Y-145191920D01*
X67953340Y-145336907D01*
X67953343Y-145336917D01*
X68009912Y-145473488D01*
X68009919Y-145473501D01*
X68092048Y-145596415D01*
X68092051Y-145596419D01*
X68196580Y-145700948D01*
X68196584Y-145700951D01*
X68319498Y-145783080D01*
X68319511Y-145783087D01*
X68456082Y-145839656D01*
X68456087Y-145839658D01*
X68456091Y-145839658D01*
X68456092Y-145839659D01*
X68601079Y-145868500D01*
X68601082Y-145868500D01*
X68748920Y-145868500D01*
X68846462Y-145849096D01*
X68893913Y-145839658D01*
X68977549Y-145805014D01*
X69047016Y-145797546D01*
X69072447Y-145805013D01*
X69156087Y-145839658D01*
X69156091Y-145839658D01*
X69156092Y-145839659D01*
X69301079Y-145868500D01*
X69301082Y-145868500D01*
X69448920Y-145868500D01*
X69546462Y-145849096D01*
X69593913Y-145839658D01*
X69677549Y-145805014D01*
X69747016Y-145797546D01*
X69772447Y-145805013D01*
X69856087Y-145839658D01*
X69856091Y-145839658D01*
X69856092Y-145839659D01*
X70001079Y-145868500D01*
X70001082Y-145868500D01*
X70148920Y-145868500D01*
X70246462Y-145849096D01*
X70293913Y-145839658D01*
X70377549Y-145805014D01*
X70447016Y-145797546D01*
X70472447Y-145805013D01*
X70556087Y-145839658D01*
X70556091Y-145839658D01*
X70556092Y-145839659D01*
X70701079Y-145868500D01*
X70701082Y-145868500D01*
X70848920Y-145868500D01*
X70946462Y-145849096D01*
X70993913Y-145839658D01*
X71077549Y-145805014D01*
X71147016Y-145797546D01*
X71172447Y-145805013D01*
X71256087Y-145839658D01*
X71256091Y-145839658D01*
X71256092Y-145839659D01*
X71401079Y-145868500D01*
X71401082Y-145868500D01*
X71548920Y-145868500D01*
X71646462Y-145849096D01*
X71693913Y-145839658D01*
X71777549Y-145805014D01*
X71847016Y-145797546D01*
X71872447Y-145805013D01*
X71956087Y-145839658D01*
X71956091Y-145839658D01*
X71956092Y-145839659D01*
X72101079Y-145868500D01*
X72101082Y-145868500D01*
X72248920Y-145868500D01*
X72346462Y-145849096D01*
X72393913Y-145839658D01*
X72477549Y-145805014D01*
X72547016Y-145797546D01*
X72572447Y-145805013D01*
X72656087Y-145839658D01*
X72656091Y-145839658D01*
X72656092Y-145839659D01*
X72801079Y-145868500D01*
X72801082Y-145868500D01*
X72948920Y-145868500D01*
X73046462Y-145849096D01*
X73093913Y-145839658D01*
X73177549Y-145805014D01*
X73247016Y-145797546D01*
X73272447Y-145805013D01*
X73356087Y-145839658D01*
X73356091Y-145839658D01*
X73356092Y-145839659D01*
X73501079Y-145868500D01*
X73501082Y-145868500D01*
X73648920Y-145868500D01*
X73746462Y-145849096D01*
X73793913Y-145839658D01*
X73930495Y-145783084D01*
X74053416Y-145700951D01*
X74157951Y-145596416D01*
X74171897Y-145575543D01*
X74225509Y-145530738D01*
X74294834Y-145522031D01*
X74357862Y-145552185D01*
X74378103Y-145575544D01*
X74392050Y-145596418D01*
X74496580Y-145700948D01*
X74496584Y-145700951D01*
X74619498Y-145783080D01*
X74619511Y-145783087D01*
X74756082Y-145839656D01*
X74756087Y-145839658D01*
X74756091Y-145839658D01*
X74756092Y-145839659D01*
X74901079Y-145868500D01*
X74901082Y-145868500D01*
X75048920Y-145868500D01*
X75146462Y-145849096D01*
X75193913Y-145839658D01*
X75277549Y-145805014D01*
X75347016Y-145797546D01*
X75372447Y-145805013D01*
X75456087Y-145839658D01*
X75456091Y-145839658D01*
X75456092Y-145839659D01*
X75601079Y-145868500D01*
X75601082Y-145868500D01*
X75748920Y-145868500D01*
X75846462Y-145849096D01*
X75893913Y-145839658D01*
X75977549Y-145805014D01*
X76047016Y-145797546D01*
X76072447Y-145805013D01*
X76156087Y-145839658D01*
X76156091Y-145839658D01*
X76156092Y-145839659D01*
X76301079Y-145868500D01*
X76301082Y-145868500D01*
X76448920Y-145868500D01*
X76546462Y-145849096D01*
X76593913Y-145839658D01*
X76677549Y-145805014D01*
X76747016Y-145797546D01*
X76772447Y-145805013D01*
X76856087Y-145839658D01*
X76856091Y-145839658D01*
X76856092Y-145839659D01*
X77001079Y-145868500D01*
X77001082Y-145868500D01*
X77148920Y-145868500D01*
X77246462Y-145849096D01*
X77293913Y-145839658D01*
X77377549Y-145805014D01*
X77447016Y-145797546D01*
X77472447Y-145805013D01*
X77556087Y-145839658D01*
X77556091Y-145839658D01*
X77556092Y-145839659D01*
X77701079Y-145868500D01*
X77701082Y-145868500D01*
X77848920Y-145868500D01*
X77946462Y-145849096D01*
X77993913Y-145839658D01*
X78077549Y-145805014D01*
X78147016Y-145797546D01*
X78172447Y-145805013D01*
X78256087Y-145839658D01*
X78256091Y-145839658D01*
X78256092Y-145839659D01*
X78401079Y-145868500D01*
X78401082Y-145868500D01*
X78548920Y-145868500D01*
X78646462Y-145849096D01*
X78693913Y-145839658D01*
X78777549Y-145805014D01*
X78847016Y-145797546D01*
X78872447Y-145805013D01*
X78956087Y-145839658D01*
X78956091Y-145839658D01*
X78956092Y-145839659D01*
X79101079Y-145868500D01*
X79101082Y-145868500D01*
X79248920Y-145868500D01*
X79346462Y-145849096D01*
X79393913Y-145839658D01*
X79530495Y-145783084D01*
X79653416Y-145700951D01*
X79670947Y-145683420D01*
X80479999Y-145683420D01*
X80508840Y-145828407D01*
X80508843Y-145828417D01*
X80565412Y-145964988D01*
X80565419Y-145965001D01*
X80647548Y-146087915D01*
X80647551Y-146087919D01*
X80752080Y-146192448D01*
X80752084Y-146192451D01*
X80874998Y-146274580D01*
X80875011Y-146274587D01*
X81011582Y-146331156D01*
X81011587Y-146331158D01*
X81011591Y-146331158D01*
X81011592Y-146331159D01*
X81156579Y-146360000D01*
X81156582Y-146360000D01*
X81304420Y-146360000D01*
X81401962Y-146340596D01*
X81449413Y-146331158D01*
X81585995Y-146274584D01*
X81708916Y-146192451D01*
X81813451Y-146087916D01*
X81895584Y-145964995D01*
X81952158Y-145828413D01*
X81961596Y-145780962D01*
X81981000Y-145683420D01*
X81981000Y-145535579D01*
X81952159Y-145390592D01*
X81952158Y-145390591D01*
X81952158Y-145390587D01*
X81952156Y-145390582D01*
X81895587Y-145254011D01*
X81895580Y-145253998D01*
X81813451Y-145131084D01*
X81813448Y-145131080D01*
X81708919Y-145026551D01*
X81708915Y-145026548D01*
X81586001Y-144944419D01*
X81585988Y-144944412D01*
X81449417Y-144887843D01*
X81449407Y-144887840D01*
X81304420Y-144859000D01*
X81304418Y-144859000D01*
X81156582Y-144859000D01*
X81156580Y-144859000D01*
X81011592Y-144887840D01*
X81011582Y-144887843D01*
X80875011Y-144944412D01*
X80874998Y-144944419D01*
X80752084Y-145026548D01*
X80752080Y-145026551D01*
X80647551Y-145131080D01*
X80647548Y-145131084D01*
X80565419Y-145253998D01*
X80565412Y-145254011D01*
X80508843Y-145390582D01*
X80508840Y-145390592D01*
X80480000Y-145535579D01*
X80480000Y-145535582D01*
X80480000Y-145683418D01*
X80480000Y-145683420D01*
X80479999Y-145683420D01*
X79670947Y-145683420D01*
X79757951Y-145596416D01*
X79840084Y-145473495D01*
X79896658Y-145336913D01*
X79914615Y-145246638D01*
X79925500Y-145191920D01*
X79925500Y-145044079D01*
X79896659Y-144899092D01*
X79896658Y-144899091D01*
X79896658Y-144899087D01*
X79891999Y-144887840D01*
X79840087Y-144762511D01*
X79840080Y-144762498D01*
X79757951Y-144639584D01*
X79757948Y-144639580D01*
X79653419Y-144535051D01*
X79653415Y-144535048D01*
X79530501Y-144452919D01*
X79530488Y-144452912D01*
X79393917Y-144396343D01*
X79393907Y-144396340D01*
X79248920Y-144367500D01*
X79248918Y-144367500D01*
X79101082Y-144367500D01*
X79101080Y-144367500D01*
X78956093Y-144396340D01*
X78956085Y-144396342D01*
X78872452Y-144430984D01*
X78802982Y-144438453D01*
X78777548Y-144430984D01*
X78693914Y-144396342D01*
X78693906Y-144396340D01*
X78548920Y-144367500D01*
X78548918Y-144367500D01*
X78401082Y-144367500D01*
X78401080Y-144367500D01*
X78256093Y-144396340D01*
X78256085Y-144396342D01*
X78172452Y-144430984D01*
X78102982Y-144438453D01*
X78077548Y-144430984D01*
X77993914Y-144396342D01*
X77993906Y-144396340D01*
X77848920Y-144367500D01*
X77848918Y-144367500D01*
X77701082Y-144367500D01*
X77701080Y-144367500D01*
X77556093Y-144396340D01*
X77556085Y-144396342D01*
X77472452Y-144430984D01*
X77402982Y-144438453D01*
X77377548Y-144430984D01*
X77293914Y-144396342D01*
X77293906Y-144396340D01*
X77148920Y-144367500D01*
X77148918Y-144367500D01*
X77001082Y-144367500D01*
X77001080Y-144367500D01*
X76856093Y-144396340D01*
X76856085Y-144396342D01*
X76772452Y-144430984D01*
X76702982Y-144438453D01*
X76677548Y-144430984D01*
X76593914Y-144396342D01*
X76593906Y-144396340D01*
X76448920Y-144367500D01*
X76448918Y-144367500D01*
X76301082Y-144367500D01*
X76301080Y-144367500D01*
X76156093Y-144396340D01*
X76156085Y-144396342D01*
X76072452Y-144430984D01*
X76002982Y-144438453D01*
X75977548Y-144430984D01*
X75893914Y-144396342D01*
X75893906Y-144396340D01*
X75748920Y-144367500D01*
X75748918Y-144367500D01*
X75601082Y-144367500D01*
X75601080Y-144367500D01*
X75456093Y-144396340D01*
X75456085Y-144396342D01*
X75372452Y-144430984D01*
X75302982Y-144438453D01*
X75277548Y-144430984D01*
X75193914Y-144396342D01*
X75193906Y-144396340D01*
X75048920Y-144367500D01*
X75048918Y-144367500D01*
X74901082Y-144367500D01*
X74901080Y-144367500D01*
X74756092Y-144396340D01*
X74756082Y-144396343D01*
X74619511Y-144452912D01*
X74619498Y-144452919D01*
X74496584Y-144535048D01*
X74496580Y-144535051D01*
X74392051Y-144639580D01*
X74392046Y-144639586D01*
X74378101Y-144660457D01*
X74324489Y-144705261D01*
X74255164Y-144713968D01*
X74192136Y-144683813D01*
X74171899Y-144660457D01*
X74157953Y-144639586D01*
X74157948Y-144639580D01*
X74053419Y-144535051D01*
X74053415Y-144535048D01*
X73930501Y-144452919D01*
X73930488Y-144452912D01*
X73793917Y-144396343D01*
X73793907Y-144396340D01*
X73648920Y-144367500D01*
X73648918Y-144367500D01*
X73501082Y-144367500D01*
X73501080Y-144367500D01*
X73356093Y-144396340D01*
X73356085Y-144396342D01*
X73272452Y-144430984D01*
X73202982Y-144438453D01*
X73177548Y-144430984D01*
X73093914Y-144396342D01*
X73093906Y-144396340D01*
X72948920Y-144367500D01*
X72948918Y-144367500D01*
X72801082Y-144367500D01*
X72801080Y-144367500D01*
X72656093Y-144396340D01*
X72656085Y-144396342D01*
X72572452Y-144430984D01*
X72502982Y-144438453D01*
X72477548Y-144430984D01*
X72393914Y-144396342D01*
X72393906Y-144396340D01*
X72248920Y-144367500D01*
X72248918Y-144367500D01*
X72101082Y-144367500D01*
X72101080Y-144367500D01*
X71956093Y-144396340D01*
X71956085Y-144396342D01*
X71872452Y-144430984D01*
X71802982Y-144438453D01*
X71777548Y-144430984D01*
X71693914Y-144396342D01*
X71693906Y-144396340D01*
X71548920Y-144367500D01*
X71548918Y-144367500D01*
X71401082Y-144367500D01*
X71401080Y-144367500D01*
X71256093Y-144396340D01*
X71256085Y-144396342D01*
X71172452Y-144430984D01*
X71102982Y-144438453D01*
X71077548Y-144430984D01*
X70993914Y-144396342D01*
X70993906Y-144396340D01*
X70848920Y-144367500D01*
X70848918Y-144367500D01*
X70701082Y-144367500D01*
X70701080Y-144367500D01*
X70556093Y-144396340D01*
X70556085Y-144396342D01*
X70472452Y-144430984D01*
X70402982Y-144438453D01*
X70377548Y-144430984D01*
X70293914Y-144396342D01*
X70293906Y-144396340D01*
X70148920Y-144367500D01*
X70148918Y-144367500D01*
X70001082Y-144367500D01*
X70001080Y-144367500D01*
X69856093Y-144396340D01*
X69856085Y-144396342D01*
X69772452Y-144430984D01*
X69702982Y-144438453D01*
X69677548Y-144430984D01*
X69593914Y-144396342D01*
X69593906Y-144396340D01*
X69448920Y-144367500D01*
X69448918Y-144367500D01*
X69301082Y-144367500D01*
X69301080Y-144367500D01*
X69156093Y-144396340D01*
X69156085Y-144396342D01*
X69072452Y-144430984D01*
X69002982Y-144438453D01*
X68977548Y-144430984D01*
X68893914Y-144396342D01*
X68893906Y-144396340D01*
X68748920Y-144367500D01*
X68748918Y-144367500D01*
X68601082Y-144367500D01*
X68601080Y-144367500D01*
X68456092Y-144396340D01*
X68456082Y-144396343D01*
X68319511Y-144452912D01*
X68319498Y-144452919D01*
X68196584Y-144535048D01*
X68196580Y-144535051D01*
X68092051Y-144639580D01*
X68092048Y-144639584D01*
X68009919Y-144762498D01*
X68009912Y-144762511D01*
X67953343Y-144899082D01*
X67953340Y-144899092D01*
X67924500Y-145044079D01*
X67924500Y-145044082D01*
X67924500Y-145191918D01*
X67924500Y-145191920D01*
X67924499Y-145191920D01*
X51488740Y-145191920D01*
X51428771Y-145113028D01*
X51428771Y-145113027D01*
X50948945Y-144481799D01*
X50946461Y-144478415D01*
X50427523Y-143745499D01*
X50391302Y-143694343D01*
X50388938Y-143690882D01*
X50308881Y-143569286D01*
X50147511Y-143324185D01*
X49860627Y-142888443D01*
X49858379Y-142884898D01*
X49443683Y-142206058D01*
X49425500Y-142141415D01*
X49425500Y-141280653D01*
X59884000Y-141280653D01*
X59884000Y-141438346D01*
X59914761Y-141592989D01*
X59914764Y-141593001D01*
X59975102Y-141738672D01*
X59975109Y-141738685D01*
X60062710Y-141869788D01*
X60062713Y-141869792D01*
X60174207Y-141981286D01*
X60174211Y-141981289D01*
X60305314Y-142068890D01*
X60305327Y-142068897D01*
X60434887Y-142122562D01*
X60489291Y-142166403D01*
X60511356Y-142232697D01*
X60494077Y-142300396D01*
X60475117Y-142324804D01*
X60362710Y-142437211D01*
X60275109Y-142568314D01*
X60275102Y-142568327D01*
X60214764Y-142713998D01*
X60214761Y-142714010D01*
X60184000Y-142868653D01*
X60184000Y-143026346D01*
X60214761Y-143180989D01*
X60214764Y-143181001D01*
X60275102Y-143326672D01*
X60275109Y-143326685D01*
X60362710Y-143457788D01*
X60362713Y-143457792D01*
X60474207Y-143569286D01*
X60474211Y-143569289D01*
X60605314Y-143656890D01*
X60605327Y-143656897D01*
X60744967Y-143714737D01*
X60751003Y-143717237D01*
X60893085Y-143745499D01*
X60905653Y-143747999D01*
X60905656Y-143748000D01*
X60905658Y-143748000D01*
X61063344Y-143748000D01*
X61063345Y-143747999D01*
X61217997Y-143717237D01*
X61363679Y-143656894D01*
X61494789Y-143569289D01*
X61606289Y-143457789D01*
X61693894Y-143326679D01*
X61694933Y-143324172D01*
X61754235Y-143181001D01*
X61754237Y-143180997D01*
X61785000Y-143026342D01*
X61785000Y-142868658D01*
X61785000Y-142868655D01*
X61784999Y-142868653D01*
X62084000Y-142868653D01*
X62084000Y-143026346D01*
X62114761Y-143180989D01*
X62114764Y-143181001D01*
X62175102Y-143326672D01*
X62175109Y-143326685D01*
X62262710Y-143457788D01*
X62262713Y-143457792D01*
X62374207Y-143569286D01*
X62374211Y-143569289D01*
X62505314Y-143656890D01*
X62505327Y-143656897D01*
X62644967Y-143714737D01*
X62651003Y-143717237D01*
X62793085Y-143745499D01*
X62805653Y-143747999D01*
X62805656Y-143748000D01*
X62805658Y-143748000D01*
X62963344Y-143748000D01*
X62963345Y-143747999D01*
X63117997Y-143717237D01*
X63263679Y-143656894D01*
X63394789Y-143569289D01*
X63506289Y-143457789D01*
X63593894Y-143326679D01*
X63594933Y-143324172D01*
X63654235Y-143181001D01*
X63654237Y-143180997D01*
X63685000Y-143026342D01*
X63685000Y-142868658D01*
X63685000Y-142868655D01*
X63684999Y-142868653D01*
X63654238Y-142714010D01*
X63654237Y-142714003D01*
X63653204Y-142711510D01*
X63593897Y-142568327D01*
X63593890Y-142568314D01*
X63506289Y-142437211D01*
X63506286Y-142437207D01*
X63394792Y-142325713D01*
X63394788Y-142325710D01*
X63263685Y-142238109D01*
X63263672Y-142238102D01*
X63118001Y-142177764D01*
X63117989Y-142177761D01*
X62963345Y-142147000D01*
X62963342Y-142147000D01*
X62805658Y-142147000D01*
X62805655Y-142147000D01*
X62651010Y-142177761D01*
X62650998Y-142177764D01*
X62505327Y-142238102D01*
X62505314Y-142238109D01*
X62374211Y-142325710D01*
X62374207Y-142325713D01*
X62262713Y-142437207D01*
X62262710Y-142437211D01*
X62175109Y-142568314D01*
X62175102Y-142568327D01*
X62114764Y-142713998D01*
X62114761Y-142714010D01*
X62084000Y-142868653D01*
X61784999Y-142868653D01*
X61754238Y-142714010D01*
X61754237Y-142714003D01*
X61753204Y-142711510D01*
X61693897Y-142568327D01*
X61693890Y-142568314D01*
X61606289Y-142437211D01*
X61606286Y-142437207D01*
X61494792Y-142325713D01*
X61494788Y-142325710D01*
X61363685Y-142238109D01*
X61363676Y-142238104D01*
X61234111Y-142184437D01*
X61179708Y-142140596D01*
X61157643Y-142074302D01*
X61174922Y-142006603D01*
X61193883Y-141982194D01*
X61194785Y-141981291D01*
X61194789Y-141981289D01*
X61306289Y-141869789D01*
X61393894Y-141738679D01*
X61454237Y-141592997D01*
X61485000Y-141438342D01*
X61485000Y-141280658D01*
X61484900Y-141280153D01*
X83746500Y-141280153D01*
X83746500Y-141437846D01*
X83777261Y-141592489D01*
X83777264Y-141592501D01*
X83837602Y-141738172D01*
X83837609Y-141738185D01*
X83925210Y-141869288D01*
X83925213Y-141869292D01*
X84036707Y-141980786D01*
X84036711Y-141980789D01*
X84167814Y-142068390D01*
X84167827Y-142068397D01*
X84296680Y-142121769D01*
X84351084Y-142165610D01*
X84373149Y-142231904D01*
X84355870Y-142299603D01*
X84336910Y-142324011D01*
X84226210Y-142434711D01*
X84138609Y-142565814D01*
X84138602Y-142565827D01*
X84078264Y-142711498D01*
X84078261Y-142711510D01*
X84047500Y-142866153D01*
X84047500Y-143023846D01*
X84078261Y-143178489D01*
X84078264Y-143178501D01*
X84138602Y-143324172D01*
X84138609Y-143324185D01*
X84226210Y-143455288D01*
X84226213Y-143455292D01*
X84337707Y-143566786D01*
X84337711Y-143566789D01*
X84468814Y-143654390D01*
X84468827Y-143654397D01*
X84614498Y-143714735D01*
X84614503Y-143714737D01*
X84769153Y-143745499D01*
X84769156Y-143745500D01*
X84769158Y-143745500D01*
X84926844Y-143745500D01*
X84926845Y-143745499D01*
X85081497Y-143714737D01*
X85221136Y-143656897D01*
X85227172Y-143654397D01*
X85227172Y-143654396D01*
X85227179Y-143654394D01*
X85358289Y-143566789D01*
X85469789Y-143455289D01*
X85557394Y-143324179D01*
X85617737Y-143178497D01*
X85648500Y-143023842D01*
X85648500Y-142866158D01*
X85648500Y-142866155D01*
X85648499Y-142866153D01*
X85947500Y-142866153D01*
X85947500Y-143023846D01*
X85978261Y-143178489D01*
X85978264Y-143178501D01*
X86038602Y-143324172D01*
X86038609Y-143324185D01*
X86126210Y-143455288D01*
X86126213Y-143455292D01*
X86237707Y-143566786D01*
X86237711Y-143566789D01*
X86368814Y-143654390D01*
X86368827Y-143654397D01*
X86514498Y-143714735D01*
X86514503Y-143714737D01*
X86669153Y-143745499D01*
X86669156Y-143745500D01*
X86669158Y-143745500D01*
X86826844Y-143745500D01*
X86826845Y-143745499D01*
X86981497Y-143714737D01*
X87121136Y-143656897D01*
X87127172Y-143654397D01*
X87127172Y-143654396D01*
X87127179Y-143654394D01*
X87258289Y-143566789D01*
X87369789Y-143455289D01*
X87457394Y-143324179D01*
X87517737Y-143178497D01*
X87548500Y-143023842D01*
X87548500Y-142866158D01*
X87548500Y-142866155D01*
X87548499Y-142866153D01*
X87517737Y-142711503D01*
X87481597Y-142624252D01*
X87457397Y-142565827D01*
X87457390Y-142565814D01*
X87369789Y-142434711D01*
X87369786Y-142434707D01*
X87258292Y-142323213D01*
X87258288Y-142323210D01*
X87127185Y-142235609D01*
X87127172Y-142235602D01*
X86981501Y-142175264D01*
X86981489Y-142175261D01*
X86826845Y-142144500D01*
X86826842Y-142144500D01*
X86669158Y-142144500D01*
X86669155Y-142144500D01*
X86514510Y-142175261D01*
X86514498Y-142175264D01*
X86368827Y-142235602D01*
X86368814Y-142235609D01*
X86237711Y-142323210D01*
X86237707Y-142323213D01*
X86126213Y-142434707D01*
X86126210Y-142434711D01*
X86038609Y-142565814D01*
X86038602Y-142565827D01*
X85978264Y-142711498D01*
X85978261Y-142711510D01*
X85947500Y-142866153D01*
X85648499Y-142866153D01*
X85617737Y-142711503D01*
X85581597Y-142624252D01*
X85557397Y-142565827D01*
X85557390Y-142565814D01*
X85469789Y-142434711D01*
X85469786Y-142434707D01*
X85358292Y-142323213D01*
X85358288Y-142323210D01*
X85227185Y-142235609D01*
X85227176Y-142235604D01*
X85098318Y-142182230D01*
X85043915Y-142138389D01*
X85021850Y-142072095D01*
X85039129Y-142004396D01*
X85058086Y-141979991D01*
X85168789Y-141869289D01*
X85256394Y-141738179D01*
X85316737Y-141592497D01*
X85347500Y-141437842D01*
X85347500Y-141280158D01*
X85347500Y-141280155D01*
X85347499Y-141280153D01*
X85316737Y-141125503D01*
X85256604Y-140980327D01*
X85256397Y-140979827D01*
X85256390Y-140979814D01*
X85168789Y-140848711D01*
X85168786Y-140848707D01*
X85057292Y-140737213D01*
X85057288Y-140737210D01*
X84926185Y-140649609D01*
X84926172Y-140649602D01*
X84780501Y-140589264D01*
X84780489Y-140589261D01*
X84625845Y-140558500D01*
X84625842Y-140558500D01*
X84468158Y-140558500D01*
X84468155Y-140558500D01*
X84313510Y-140589261D01*
X84313498Y-140589264D01*
X84167827Y-140649602D01*
X84167814Y-140649609D01*
X84036711Y-140737210D01*
X84036707Y-140737213D01*
X83925213Y-140848707D01*
X83925210Y-140848711D01*
X83837609Y-140979814D01*
X83837602Y-140979827D01*
X83777264Y-141125498D01*
X83777261Y-141125510D01*
X83746500Y-141280153D01*
X61484900Y-141280153D01*
X61454237Y-141126003D01*
X61454028Y-141125498D01*
X61393897Y-140980327D01*
X61393890Y-140980314D01*
X61306289Y-140849211D01*
X61306286Y-140849207D01*
X61194792Y-140737713D01*
X61194788Y-140737710D01*
X61063685Y-140650109D01*
X61063672Y-140650102D01*
X60918001Y-140589764D01*
X60917989Y-140589761D01*
X60763345Y-140559000D01*
X60763342Y-140559000D01*
X60605658Y-140559000D01*
X60605655Y-140559000D01*
X60451010Y-140589761D01*
X60450998Y-140589764D01*
X60305327Y-140650102D01*
X60305314Y-140650109D01*
X60174211Y-140737710D01*
X60174207Y-140737713D01*
X60062713Y-140849207D01*
X60062710Y-140849211D01*
X59975109Y-140980314D01*
X59975102Y-140980327D01*
X59914764Y-141125998D01*
X59914761Y-141126010D01*
X59884000Y-141280653D01*
X49425500Y-141280653D01*
X49425500Y-136937804D01*
X59089500Y-136937804D01*
X59089500Y-137115195D01*
X59124103Y-137289158D01*
X59124106Y-137289167D01*
X59191983Y-137453040D01*
X59191990Y-137453053D01*
X59290535Y-137600534D01*
X59290538Y-137600538D01*
X59415961Y-137725961D01*
X59415965Y-137725964D01*
X59563446Y-137824509D01*
X59563459Y-137824516D01*
X59686363Y-137875423D01*
X59727334Y-137892394D01*
X59727336Y-137892394D01*
X59727341Y-137892396D01*
X59901304Y-137926999D01*
X59901307Y-137927000D01*
X59901309Y-137927000D01*
X60078693Y-137927000D01*
X60078694Y-137926999D01*
X60136682Y-137915464D01*
X60252658Y-137892396D01*
X60252661Y-137892394D01*
X60252666Y-137892394D01*
X60416547Y-137824513D01*
X60564035Y-137725964D01*
X60689464Y-137600535D01*
X60788013Y-137453047D01*
X60855894Y-137289166D01*
X60874419Y-137196038D01*
X60890499Y-137115195D01*
X60890500Y-137115193D01*
X60890500Y-136937806D01*
X60890499Y-136937804D01*
X60855896Y-136763841D01*
X60855893Y-136763832D01*
X60788016Y-136599959D01*
X60788009Y-136599946D01*
X60689464Y-136452465D01*
X60689461Y-136452461D01*
X60564038Y-136327038D01*
X60564034Y-136327035D01*
X60416553Y-136228490D01*
X60416540Y-136228483D01*
X60252667Y-136160606D01*
X60252658Y-136160603D01*
X60078694Y-136126000D01*
X60078691Y-136126000D01*
X59901309Y-136126000D01*
X59901306Y-136126000D01*
X59727341Y-136160603D01*
X59727332Y-136160606D01*
X59563459Y-136228483D01*
X59563446Y-136228490D01*
X59415965Y-136327035D01*
X59415961Y-136327038D01*
X59290538Y-136452461D01*
X59290535Y-136452465D01*
X59191990Y-136599946D01*
X59191983Y-136599959D01*
X59124106Y-136763832D01*
X59124103Y-136763841D01*
X59089500Y-136937804D01*
X49425500Y-136937804D01*
X49425500Y-135859153D01*
X68149500Y-135859153D01*
X68149500Y-136016846D01*
X68180261Y-136171489D01*
X68180264Y-136171501D01*
X68240602Y-136317172D01*
X68240609Y-136317185D01*
X68328210Y-136448288D01*
X68328213Y-136448292D01*
X68439707Y-136559786D01*
X68439711Y-136559789D01*
X68570814Y-136647390D01*
X68570827Y-136647397D01*
X68716498Y-136707735D01*
X68716503Y-136707737D01*
X68871153Y-136738499D01*
X68871156Y-136738500D01*
X68871158Y-136738500D01*
X69028844Y-136738500D01*
X69028845Y-136738499D01*
X69183497Y-136707737D01*
X69329179Y-136647394D01*
X69460289Y-136559789D01*
X69571789Y-136448289D01*
X69659394Y-136317179D01*
X69719737Y-136171497D01*
X69750500Y-136016842D01*
X69750500Y-135897920D01*
X70841499Y-135897920D01*
X70870340Y-136042907D01*
X70870343Y-136042917D01*
X70926912Y-136179488D01*
X70926919Y-136179501D01*
X71009048Y-136302415D01*
X71009051Y-136302419D01*
X71113580Y-136406948D01*
X71113588Y-136406954D01*
X71236494Y-136489077D01*
X71236496Y-136489078D01*
X71236505Y-136489084D01*
X71266110Y-136501346D01*
X71320512Y-136545185D01*
X71342579Y-136611478D01*
X71340276Y-136640095D01*
X71336500Y-136659080D01*
X71336500Y-136659082D01*
X71336500Y-136806918D01*
X71336500Y-136806920D01*
X71336499Y-136806920D01*
X71365340Y-136951907D01*
X71365343Y-136951917D01*
X71421912Y-137088488D01*
X71421919Y-137088501D01*
X71504048Y-137211415D01*
X71504051Y-137211419D01*
X71608580Y-137315948D01*
X71608584Y-137315951D01*
X71731498Y-137398080D01*
X71731511Y-137398087D01*
X71864212Y-137453053D01*
X71868087Y-137454658D01*
X71868091Y-137454658D01*
X71868092Y-137454659D01*
X72013079Y-137483500D01*
X72013082Y-137483500D01*
X72160920Y-137483500D01*
X72258462Y-137464096D01*
X72305913Y-137454658D01*
X72442495Y-137398084D01*
X72565416Y-137315951D01*
X72669951Y-137211416D01*
X72752084Y-137088495D01*
X72808658Y-136951913D01*
X72837500Y-136806918D01*
X72837500Y-136659082D01*
X72837500Y-136659080D01*
X72837500Y-136659079D01*
X72816082Y-136551409D01*
X72816082Y-136551408D01*
X72812481Y-136533304D01*
X93193500Y-136533304D01*
X93193500Y-136710695D01*
X93228103Y-136884658D01*
X93228106Y-136884667D01*
X93295983Y-137048540D01*
X93295990Y-137048553D01*
X93394535Y-137196034D01*
X93394538Y-137196038D01*
X93519961Y-137321461D01*
X93519965Y-137321464D01*
X93667446Y-137420009D01*
X93667459Y-137420016D01*
X93790363Y-137470923D01*
X93831334Y-137487894D01*
X93831336Y-137487894D01*
X93831341Y-137487896D01*
X94005304Y-137522499D01*
X94005307Y-137522500D01*
X94005309Y-137522500D01*
X94182693Y-137522500D01*
X94182694Y-137522499D01*
X94240682Y-137510964D01*
X94356658Y-137487896D01*
X94356661Y-137487894D01*
X94356666Y-137487894D01*
X94520547Y-137420013D01*
X94668035Y-137321464D01*
X94793464Y-137196035D01*
X94892013Y-137048547D01*
X94959894Y-136884666D01*
X94994500Y-136710691D01*
X94994500Y-136533309D01*
X94994500Y-136533306D01*
X94994499Y-136533304D01*
X94959896Y-136359341D01*
X94959893Y-136359332D01*
X94892016Y-136195459D01*
X94892009Y-136195446D01*
X94793464Y-136047965D01*
X94793461Y-136047961D01*
X94668038Y-135922538D01*
X94668034Y-135922535D01*
X94520553Y-135823990D01*
X94520540Y-135823983D01*
X94356667Y-135756106D01*
X94356658Y-135756103D01*
X94182694Y-135721500D01*
X94182691Y-135721500D01*
X94005309Y-135721500D01*
X94005306Y-135721500D01*
X93831341Y-135756103D01*
X93831332Y-135756106D01*
X93667459Y-135823983D01*
X93667446Y-135823990D01*
X93519965Y-135922535D01*
X93519961Y-135922538D01*
X93394538Y-136047961D01*
X93394535Y-136047965D01*
X93295990Y-136195446D01*
X93295983Y-136195459D01*
X93228106Y-136359332D01*
X93228103Y-136359341D01*
X93193500Y-136533304D01*
X72812481Y-136533304D01*
X72808659Y-136514094D01*
X72808658Y-136514087D01*
X72798302Y-136489085D01*
X72752087Y-136377511D01*
X72752080Y-136377498D01*
X72669951Y-136254584D01*
X72669948Y-136254580D01*
X72565419Y-136150051D01*
X72565415Y-136150048D01*
X72442501Y-136067919D01*
X72442491Y-136067914D01*
X72412888Y-136055652D01*
X72358485Y-136011811D01*
X72336420Y-135945516D01*
X72338725Y-135916895D01*
X72342500Y-135897920D01*
X72342500Y-135750079D01*
X72313659Y-135605092D01*
X72313658Y-135605091D01*
X72313658Y-135605087D01*
X72313656Y-135605082D01*
X72257087Y-135468511D01*
X72257080Y-135468498D01*
X72174951Y-135345584D01*
X72174948Y-135345580D01*
X72070419Y-135241051D01*
X72070415Y-135241048D01*
X71947501Y-135158919D01*
X71947488Y-135158912D01*
X71810917Y-135102343D01*
X71810907Y-135102340D01*
X71665920Y-135073500D01*
X71665918Y-135073500D01*
X71518082Y-135073500D01*
X71518080Y-135073500D01*
X71373092Y-135102340D01*
X71373082Y-135102343D01*
X71236511Y-135158912D01*
X71236498Y-135158919D01*
X71113584Y-135241048D01*
X71113580Y-135241051D01*
X71009051Y-135345580D01*
X71009048Y-135345584D01*
X70926919Y-135468498D01*
X70926912Y-135468511D01*
X70870343Y-135605082D01*
X70870340Y-135605092D01*
X70841500Y-135750079D01*
X70841500Y-135750082D01*
X70841500Y-135897918D01*
X70841500Y-135897920D01*
X70841499Y-135897920D01*
X69750500Y-135897920D01*
X69750500Y-135859158D01*
X69750500Y-135859155D01*
X69750499Y-135859153D01*
X69732404Y-135768182D01*
X69719826Y-135704951D01*
X69726053Y-135635360D01*
X69768915Y-135580182D01*
X69834805Y-135556937D01*
X69865635Y-135559142D01*
X70000655Y-135586000D01*
X70000658Y-135586000D01*
X70158344Y-135586000D01*
X70158345Y-135585999D01*
X70312997Y-135555237D01*
X70458679Y-135494894D01*
X70589789Y-135407289D01*
X70701289Y-135295789D01*
X70788894Y-135164679D01*
X70849237Y-135018997D01*
X70880000Y-134864342D01*
X70880000Y-134706658D01*
X70880000Y-134706655D01*
X70871994Y-134666409D01*
X70871994Y-134666408D01*
X70868393Y-134648304D01*
X86967500Y-134648304D01*
X86967500Y-134825695D01*
X87002103Y-134999658D01*
X87002106Y-134999667D01*
X87069983Y-135163540D01*
X87069990Y-135163553D01*
X87168535Y-135311034D01*
X87168538Y-135311038D01*
X87293961Y-135436461D01*
X87293965Y-135436464D01*
X87441446Y-135535009D01*
X87441459Y-135535016D01*
X87499706Y-135559142D01*
X87605334Y-135602894D01*
X87605336Y-135602894D01*
X87605341Y-135602896D01*
X87779304Y-135637499D01*
X87779307Y-135637500D01*
X87779309Y-135637500D01*
X87956693Y-135637500D01*
X87956694Y-135637499D01*
X88014682Y-135625964D01*
X88130658Y-135602896D01*
X88130661Y-135602894D01*
X88130666Y-135602894D01*
X88294547Y-135535013D01*
X88442035Y-135436464D01*
X88567464Y-135311035D01*
X88666013Y-135163547D01*
X88733894Y-134999666D01*
X88768500Y-134825691D01*
X88768500Y-134648309D01*
X88768500Y-134648306D01*
X88768499Y-134648304D01*
X88733896Y-134474341D01*
X88733893Y-134474332D01*
X88666016Y-134310459D01*
X88666009Y-134310446D01*
X88567464Y-134162965D01*
X88567461Y-134162961D01*
X88442038Y-134037538D01*
X88442034Y-134037535D01*
X88340366Y-133969602D01*
X88295561Y-133915990D01*
X88286854Y-133846665D01*
X88317009Y-133783637D01*
X88376452Y-133746918D01*
X88409257Y-133742500D01*
X88436693Y-133742500D01*
X88436694Y-133742499D01*
X88494682Y-133730964D01*
X88610658Y-133707896D01*
X88610661Y-133707894D01*
X88610666Y-133707894D01*
X88774547Y-133640013D01*
X88922035Y-133541464D01*
X89047464Y-133416035D01*
X89146013Y-133268547D01*
X89213894Y-133104666D01*
X89216516Y-133091488D01*
X89248499Y-132930695D01*
X89248500Y-132930693D01*
X89248500Y-132753306D01*
X89248499Y-132753304D01*
X89213896Y-132579341D01*
X89213893Y-132579332D01*
X89146016Y-132415459D01*
X89146009Y-132415446D01*
X89047464Y-132267965D01*
X89047461Y-132267961D01*
X88922038Y-132142538D01*
X88922034Y-132142535D01*
X88774553Y-132043990D01*
X88774540Y-132043983D01*
X88610667Y-131976106D01*
X88610658Y-131976103D01*
X88436694Y-131941500D01*
X88436691Y-131941500D01*
X88259309Y-131941500D01*
X88259306Y-131941500D01*
X88085341Y-131976103D01*
X88085332Y-131976106D01*
X87921459Y-132043983D01*
X87921446Y-132043990D01*
X87773965Y-132142535D01*
X87773961Y-132142538D01*
X87648538Y-132267961D01*
X87648535Y-132267965D01*
X87549990Y-132415446D01*
X87549983Y-132415459D01*
X87482106Y-132579332D01*
X87482103Y-132579341D01*
X87447500Y-132753304D01*
X87447500Y-132930695D01*
X87482103Y-133104658D01*
X87482106Y-133104667D01*
X87549983Y-133268540D01*
X87549990Y-133268553D01*
X87648535Y-133416034D01*
X87648538Y-133416038D01*
X87773961Y-133541461D01*
X87773965Y-133541464D01*
X87875634Y-133609398D01*
X87920439Y-133663010D01*
X87929146Y-133732335D01*
X87898991Y-133795363D01*
X87839548Y-133832082D01*
X87806743Y-133836500D01*
X87779306Y-133836500D01*
X87605341Y-133871103D01*
X87605332Y-133871106D01*
X87441459Y-133938983D01*
X87441446Y-133938990D01*
X87293965Y-134037535D01*
X87293961Y-134037538D01*
X87168538Y-134162961D01*
X87168535Y-134162965D01*
X87069990Y-134310446D01*
X87069983Y-134310459D01*
X87002106Y-134474332D01*
X87002103Y-134474341D01*
X86967500Y-134648304D01*
X70868393Y-134648304D01*
X70849238Y-134552010D01*
X70849237Y-134552003D01*
X70817065Y-134474332D01*
X70788897Y-134406327D01*
X70788890Y-134406314D01*
X70701289Y-134275211D01*
X70701286Y-134275207D01*
X70589792Y-134163713D01*
X70589788Y-134163710D01*
X70458685Y-134076109D01*
X70458672Y-134076102D01*
X70313001Y-134015764D01*
X70312989Y-134015761D01*
X70158345Y-133985000D01*
X70158342Y-133985000D01*
X70000658Y-133985000D01*
X70000655Y-133985000D01*
X69846010Y-134015761D01*
X69845998Y-134015764D01*
X69700327Y-134076102D01*
X69700314Y-134076109D01*
X69569211Y-134163710D01*
X69569207Y-134163713D01*
X69457713Y-134275207D01*
X69457710Y-134275211D01*
X69370109Y-134406314D01*
X69370102Y-134406327D01*
X69309764Y-134551998D01*
X69309761Y-134552010D01*
X69279000Y-134706653D01*
X69279000Y-134864346D01*
X69309673Y-135018549D01*
X69303446Y-135088140D01*
X69260583Y-135143318D01*
X69194693Y-135166562D01*
X69163865Y-135164357D01*
X69028846Y-135137500D01*
X69028842Y-135137500D01*
X68871158Y-135137500D01*
X68871155Y-135137500D01*
X68716510Y-135168261D01*
X68716498Y-135168264D01*
X68570827Y-135228602D01*
X68570814Y-135228609D01*
X68439711Y-135316210D01*
X68439707Y-135316213D01*
X68328213Y-135427707D01*
X68328210Y-135427711D01*
X68240609Y-135558814D01*
X68240602Y-135558827D01*
X68180264Y-135704498D01*
X68180261Y-135704510D01*
X68149500Y-135859153D01*
X49425500Y-135859153D01*
X49425500Y-132809920D01*
X71271511Y-132809920D01*
X71300352Y-132954907D01*
X71300355Y-132954917D01*
X71356924Y-133091488D01*
X71356931Y-133091501D01*
X71439060Y-133214415D01*
X71439063Y-133214419D01*
X71543592Y-133318948D01*
X71543596Y-133318951D01*
X71666510Y-133401080D01*
X71666523Y-133401087D01*
X71803094Y-133457656D01*
X71803099Y-133457658D01*
X71803103Y-133457658D01*
X71803104Y-133457659D01*
X71948091Y-133486500D01*
X71948094Y-133486500D01*
X72095932Y-133486500D01*
X72193474Y-133467096D01*
X72240925Y-133457658D01*
X72324561Y-133423014D01*
X72394028Y-133415546D01*
X72419459Y-133423013D01*
X72503099Y-133457658D01*
X72503103Y-133457658D01*
X72503104Y-133457659D01*
X72648091Y-133486500D01*
X72648094Y-133486500D01*
X72795932Y-133486500D01*
X72893474Y-133467096D01*
X72940925Y-133457658D01*
X73024561Y-133423014D01*
X73094028Y-133415546D01*
X73119459Y-133423013D01*
X73203099Y-133457658D01*
X73203103Y-133457658D01*
X73203104Y-133457659D01*
X73348091Y-133486500D01*
X73348094Y-133486500D01*
X73495932Y-133486500D01*
X73593474Y-133467096D01*
X73640925Y-133457658D01*
X73777507Y-133401084D01*
X73900428Y-133318951D01*
X74004963Y-133214416D01*
X74087096Y-133091495D01*
X74143670Y-132954913D01*
X74153108Y-132907462D01*
X74172512Y-132809920D01*
X74172512Y-132662079D01*
X74143671Y-132517092D01*
X74143670Y-132517091D01*
X74143670Y-132517087D01*
X74103421Y-132419916D01*
X74087099Y-132380511D01*
X74087092Y-132380498D01*
X74015178Y-132272872D01*
X75066451Y-132272872D01*
X75095292Y-132417859D01*
X75095295Y-132417869D01*
X75151864Y-132554440D01*
X75151871Y-132554453D01*
X75234000Y-132677367D01*
X75234003Y-132677371D01*
X75338532Y-132781900D01*
X75338536Y-132781903D01*
X75461450Y-132864032D01*
X75461463Y-132864039D01*
X75598034Y-132920608D01*
X75598039Y-132920610D01*
X75598043Y-132920610D01*
X75598044Y-132920611D01*
X75743031Y-132949452D01*
X75743034Y-132949452D01*
X75890872Y-132949452D01*
X75988414Y-132930048D01*
X76035865Y-132920610D01*
X76172447Y-132864036D01*
X76295368Y-132781903D01*
X76399903Y-132677368D01*
X76482036Y-132554447D01*
X76538610Y-132417865D01*
X76567452Y-132272870D01*
X76567452Y-132125034D01*
X76567452Y-132125031D01*
X76538611Y-131980044D01*
X76538610Y-131980043D01*
X76538610Y-131980039D01*
X76492028Y-131867579D01*
X76482039Y-131843463D01*
X76482032Y-131843450D01*
X76399903Y-131720536D01*
X76399900Y-131720532D01*
X76295371Y-131616003D01*
X76295367Y-131616000D01*
X76172453Y-131533871D01*
X76172440Y-131533864D01*
X76035869Y-131477295D01*
X76035859Y-131477292D01*
X75890872Y-131448452D01*
X75890870Y-131448452D01*
X75743034Y-131448452D01*
X75743032Y-131448452D01*
X75598044Y-131477292D01*
X75598034Y-131477295D01*
X75461463Y-131533864D01*
X75461450Y-131533871D01*
X75338536Y-131616000D01*
X75338532Y-131616003D01*
X75234003Y-131720532D01*
X75234000Y-131720536D01*
X75151871Y-131843450D01*
X75151864Y-131843463D01*
X75095295Y-131980034D01*
X75095292Y-131980044D01*
X75066452Y-132125031D01*
X75066452Y-132125034D01*
X75066452Y-132272870D01*
X75066452Y-132272872D01*
X75066451Y-132272872D01*
X74015178Y-132272872D01*
X74004963Y-132257584D01*
X74004960Y-132257580D01*
X73900431Y-132153051D01*
X73900427Y-132153048D01*
X73777513Y-132070919D01*
X73777500Y-132070912D01*
X73640929Y-132014343D01*
X73640919Y-132014340D01*
X73495932Y-131985500D01*
X73495930Y-131985500D01*
X73348094Y-131985500D01*
X73348092Y-131985500D01*
X73203105Y-132014340D01*
X73203097Y-132014342D01*
X73119464Y-132048984D01*
X73049994Y-132056453D01*
X73024560Y-132048984D01*
X72940926Y-132014342D01*
X72940918Y-132014340D01*
X72795932Y-131985500D01*
X72795930Y-131985500D01*
X72648094Y-131985500D01*
X72648092Y-131985500D01*
X72503105Y-132014340D01*
X72503097Y-132014342D01*
X72419464Y-132048984D01*
X72349994Y-132056453D01*
X72324560Y-132048984D01*
X72240926Y-132014342D01*
X72240918Y-132014340D01*
X72095932Y-131985500D01*
X72095930Y-131985500D01*
X71948094Y-131985500D01*
X71948092Y-131985500D01*
X71803104Y-132014340D01*
X71803094Y-132014343D01*
X71666523Y-132070912D01*
X71666510Y-132070919D01*
X71543596Y-132153048D01*
X71543592Y-132153051D01*
X71439063Y-132257580D01*
X71439060Y-132257584D01*
X71356931Y-132380498D01*
X71356924Y-132380511D01*
X71300355Y-132517082D01*
X71300352Y-132517092D01*
X71271512Y-132662079D01*
X71271512Y-132662082D01*
X71271512Y-132809918D01*
X71271512Y-132809920D01*
X71271511Y-132809920D01*
X49425500Y-132809920D01*
X49425500Y-130718543D01*
X54814499Y-130718543D01*
X54852947Y-130911829D01*
X54852950Y-130911839D01*
X54928364Y-131093907D01*
X54928371Y-131093920D01*
X55037860Y-131257781D01*
X55037863Y-131257785D01*
X55177214Y-131397136D01*
X55177218Y-131397139D01*
X55341079Y-131506628D01*
X55341092Y-131506635D01*
X55523160Y-131582049D01*
X55523165Y-131582051D01*
X55523169Y-131582051D01*
X55523170Y-131582052D01*
X55716456Y-131620500D01*
X55716459Y-131620500D01*
X55913543Y-131620500D01*
X56043582Y-131594632D01*
X56106835Y-131582051D01*
X56288914Y-131506632D01*
X56452782Y-131397139D01*
X56592139Y-131257782D01*
X56701632Y-131093914D01*
X56777051Y-130911835D01*
X56804370Y-130774495D01*
X56815500Y-130718543D01*
X56815500Y-130521456D01*
X56777052Y-130328170D01*
X56777051Y-130328169D01*
X56777051Y-130328165D01*
X56731178Y-130217416D01*
X56701635Y-130146092D01*
X56701628Y-130146079D01*
X56592139Y-129982218D01*
X56592136Y-129982214D01*
X56452785Y-129842863D01*
X56452781Y-129842860D01*
X56288920Y-129733371D01*
X56288907Y-129733364D01*
X56106839Y-129657950D01*
X56106829Y-129657947D01*
X55913543Y-129619500D01*
X55913541Y-129619500D01*
X55716459Y-129619500D01*
X55716457Y-129619500D01*
X55523170Y-129657947D01*
X55523160Y-129657950D01*
X55341092Y-129733364D01*
X55341079Y-129733371D01*
X55177218Y-129842860D01*
X55177214Y-129842863D01*
X55037863Y-129982214D01*
X55037860Y-129982218D01*
X54928371Y-130146079D01*
X54928364Y-130146092D01*
X54852950Y-130328160D01*
X54852947Y-130328170D01*
X54814500Y-130521456D01*
X54814500Y-130521459D01*
X54814500Y-130718541D01*
X54814500Y-130718543D01*
X54814499Y-130718543D01*
X49425500Y-130718543D01*
X49425500Y-129472920D01*
X61028499Y-129472920D01*
X61057340Y-129617907D01*
X61057343Y-129617917D01*
X61113912Y-129754488D01*
X61113918Y-129754499D01*
X61171121Y-129840110D01*
X61191998Y-129906787D01*
X61173513Y-129974167D01*
X61171121Y-129977890D01*
X61113918Y-130063500D01*
X61113912Y-130063511D01*
X61057343Y-130200082D01*
X61057340Y-130200092D01*
X61028500Y-130345079D01*
X61028500Y-130345082D01*
X61028500Y-130492918D01*
X61028500Y-130492920D01*
X61028499Y-130492920D01*
X61057340Y-130637907D01*
X61057343Y-130637917D01*
X61113912Y-130774488D01*
X61113919Y-130774501D01*
X61196048Y-130897415D01*
X61196051Y-130897419D01*
X61300580Y-131001948D01*
X61300584Y-131001951D01*
X61413123Y-131077148D01*
X61457928Y-131130760D01*
X61466635Y-131200085D01*
X61436480Y-131263113D01*
X61413123Y-131283352D01*
X61300584Y-131358548D01*
X61300580Y-131358551D01*
X61196051Y-131463080D01*
X61196048Y-131463084D01*
X61113919Y-131585998D01*
X61113912Y-131586011D01*
X61057343Y-131722582D01*
X61057340Y-131722592D01*
X61028500Y-131867579D01*
X61028500Y-131867582D01*
X61028500Y-132015418D01*
X61028500Y-132015420D01*
X61028499Y-132015420D01*
X61057340Y-132160407D01*
X61057343Y-132160417D01*
X61113912Y-132296988D01*
X61113919Y-132297001D01*
X61196048Y-132419915D01*
X61196051Y-132419919D01*
X61300580Y-132524448D01*
X61300584Y-132524451D01*
X61423498Y-132606580D01*
X61423511Y-132606587D01*
X61557482Y-132662079D01*
X61560087Y-132663158D01*
X61560091Y-132663158D01*
X61560092Y-132663159D01*
X61705079Y-132692000D01*
X61705082Y-132692000D01*
X61852920Y-132692000D01*
X61950462Y-132672596D01*
X61997913Y-132663158D01*
X62134495Y-132606584D01*
X62134501Y-132606580D01*
X62214858Y-132552888D01*
X62236901Y-132538157D01*
X62257416Y-132524451D01*
X62361951Y-132419916D01*
X62444084Y-132296995D01*
X62500658Y-132160413D01*
X62518460Y-132070919D01*
X62529500Y-132015420D01*
X62529500Y-131867579D01*
X62500659Y-131722592D01*
X62500658Y-131722591D01*
X62500658Y-131722587D01*
X62500656Y-131722582D01*
X62444087Y-131586011D01*
X62444080Y-131585998D01*
X62361951Y-131463084D01*
X62361948Y-131463080D01*
X62257416Y-131358548D01*
X62144876Y-131283352D01*
X62100071Y-131229740D01*
X62091364Y-131160415D01*
X62121518Y-131097388D01*
X62144876Y-131077148D01*
X62257416Y-131001951D01*
X62361948Y-130897419D01*
X62361951Y-130897416D01*
X62444084Y-130774495D01*
X62500658Y-130637913D01*
X62511398Y-130583920D01*
X78271511Y-130583920D01*
X78300352Y-130728907D01*
X78300355Y-130728917D01*
X78356924Y-130865488D01*
X78356931Y-130865501D01*
X78439060Y-130988415D01*
X78439063Y-130988419D01*
X78543592Y-131092948D01*
X78543596Y-131092951D01*
X78666510Y-131175080D01*
X78666523Y-131175087D01*
X78803094Y-131231656D01*
X78803099Y-131231658D01*
X78803103Y-131231658D01*
X78803104Y-131231659D01*
X78948091Y-131260500D01*
X78948094Y-131260500D01*
X79095932Y-131260500D01*
X79193474Y-131241096D01*
X79240925Y-131231658D01*
X79377507Y-131175084D01*
X79500428Y-131092951D01*
X79604963Y-130988416D01*
X79687096Y-130865495D01*
X79743670Y-130728913D01*
X79761771Y-130637917D01*
X79772512Y-130583920D01*
X79772512Y-130436079D01*
X79743671Y-130291092D01*
X79743670Y-130291091D01*
X79743670Y-130291087D01*
X79705975Y-130200082D01*
X79687099Y-130154511D01*
X79687092Y-130154498D01*
X79604963Y-130031584D01*
X79604960Y-130031580D01*
X79500431Y-129927051D01*
X79500427Y-129927048D01*
X79377513Y-129844919D01*
X79377500Y-129844912D01*
X79240929Y-129788343D01*
X79240919Y-129788340D01*
X79095932Y-129759500D01*
X79095930Y-129759500D01*
X78948094Y-129759500D01*
X78948092Y-129759500D01*
X78803104Y-129788340D01*
X78803094Y-129788343D01*
X78666523Y-129844912D01*
X78666510Y-129844919D01*
X78543596Y-129927048D01*
X78543592Y-129927051D01*
X78439063Y-130031580D01*
X78439060Y-130031584D01*
X78356931Y-130154498D01*
X78356924Y-130154511D01*
X78300355Y-130291082D01*
X78300352Y-130291092D01*
X78271512Y-130436079D01*
X78271512Y-130436082D01*
X78271512Y-130583918D01*
X78271512Y-130583920D01*
X78271511Y-130583920D01*
X62511398Y-130583920D01*
X62523823Y-130521459D01*
X62529500Y-130492920D01*
X62529500Y-130345079D01*
X62500659Y-130200092D01*
X62500658Y-130200091D01*
X62500658Y-130200087D01*
X62481780Y-130154511D01*
X62444087Y-130063511D01*
X62444080Y-130063498D01*
X62386879Y-129977891D01*
X62366001Y-129911213D01*
X62384485Y-129843833D01*
X62386879Y-129840109D01*
X62444080Y-129754501D01*
X62444081Y-129754499D01*
X62444084Y-129754495D01*
X62500658Y-129617913D01*
X62529500Y-129472918D01*
X62529500Y-129325082D01*
X62529500Y-129325079D01*
X62500659Y-129180092D01*
X62500658Y-129180091D01*
X62500658Y-129180087D01*
X62490701Y-129156048D01*
X62444087Y-129043511D01*
X62444080Y-129043498D01*
X62361951Y-128920584D01*
X62361948Y-128920580D01*
X62257419Y-128816051D01*
X62257415Y-128816048D01*
X62134501Y-128733919D01*
X62134488Y-128733912D01*
X61997917Y-128677343D01*
X61997907Y-128677340D01*
X61852920Y-128648500D01*
X61852918Y-128648500D01*
X61705082Y-128648500D01*
X61705080Y-128648500D01*
X61560092Y-128677340D01*
X61560082Y-128677343D01*
X61423511Y-128733912D01*
X61423498Y-128733919D01*
X61300584Y-128816048D01*
X61300580Y-128816051D01*
X61196051Y-128920580D01*
X61196048Y-128920584D01*
X61113919Y-129043498D01*
X61113912Y-129043511D01*
X61057343Y-129180082D01*
X61057340Y-129180092D01*
X61028500Y-129325079D01*
X61028500Y-129325082D01*
X61028500Y-129472918D01*
X61028500Y-129472920D01*
X61028499Y-129472920D01*
X49425500Y-129472920D01*
X49425500Y-127542153D01*
X56806500Y-127542153D01*
X56806500Y-127699846D01*
X56837261Y-127854489D01*
X56837264Y-127854501D01*
X56897602Y-128000172D01*
X56897609Y-128000185D01*
X56985210Y-128131288D01*
X56985213Y-128131292D01*
X57096707Y-128242786D01*
X57096711Y-128242789D01*
X57227814Y-128330390D01*
X57227827Y-128330397D01*
X57373498Y-128390735D01*
X57373503Y-128390737D01*
X57528153Y-128421499D01*
X57528156Y-128421500D01*
X57528158Y-128421500D01*
X57685844Y-128421500D01*
X57685845Y-128421499D01*
X57840497Y-128390737D01*
X57986179Y-128330394D01*
X58117289Y-128242789D01*
X58228789Y-128131289D01*
X58289016Y-128041153D01*
X67921512Y-128041153D01*
X67921512Y-128198846D01*
X67952273Y-128353489D01*
X67952276Y-128353501D01*
X68012614Y-128499172D01*
X68012621Y-128499185D01*
X68100222Y-128630288D01*
X68100225Y-128630292D01*
X68211719Y-128741786D01*
X68211723Y-128741789D01*
X68342826Y-128829390D01*
X68342839Y-128829397D01*
X68488510Y-128889735D01*
X68488515Y-128889737D01*
X68599629Y-128911839D01*
X68643165Y-128920499D01*
X68643168Y-128920500D01*
X68643170Y-128920500D01*
X68800850Y-128920500D01*
X68800854Y-128920500D01*
X68802059Y-128920260D01*
X68802704Y-128920317D01*
X68806919Y-128919903D01*
X68806997Y-128920701D01*
X68871649Y-128926480D01*
X68926831Y-128969337D01*
X68950083Y-129035224D01*
X68934022Y-129103223D01*
X68895156Y-129144974D01*
X68878588Y-129156045D01*
X68878580Y-129156051D01*
X68774051Y-129260580D01*
X68774048Y-129260584D01*
X68691919Y-129383498D01*
X68691912Y-129383511D01*
X68635343Y-129520082D01*
X68635340Y-129520092D01*
X68606500Y-129665079D01*
X68606500Y-129665082D01*
X68606500Y-129812918D01*
X68606500Y-129812920D01*
X68606499Y-129812920D01*
X68635340Y-129957907D01*
X68635343Y-129957917D01*
X68691912Y-130094488D01*
X68691919Y-130094501D01*
X68774048Y-130217415D01*
X68774051Y-130217419D01*
X68878580Y-130321948D01*
X68878584Y-130321951D01*
X69001498Y-130404080D01*
X69001511Y-130404087D01*
X69078755Y-130436082D01*
X69138087Y-130460658D01*
X69138091Y-130460658D01*
X69138092Y-130460659D01*
X69283079Y-130489500D01*
X69283082Y-130489500D01*
X69430920Y-130489500D01*
X69528462Y-130470096D01*
X69575913Y-130460658D01*
X69712495Y-130404084D01*
X69835416Y-130321951D01*
X69939951Y-130217416D01*
X70022084Y-130094495D01*
X70078658Y-129957913D01*
X70094670Y-129877416D01*
X70107500Y-129812920D01*
X70107500Y-129665079D01*
X70078659Y-129520092D01*
X70078658Y-129520091D01*
X70078658Y-129520087D01*
X70059120Y-129472918D01*
X70022087Y-129383511D01*
X70022080Y-129383498D01*
X69939951Y-129260584D01*
X69939948Y-129260580D01*
X69835419Y-129156051D01*
X69835415Y-129156048D01*
X69712501Y-129073919D01*
X69712488Y-129073912D01*
X69575917Y-129017343D01*
X69575907Y-129017340D01*
X69430920Y-128988500D01*
X69430918Y-128988500D01*
X69283082Y-128988500D01*
X69276990Y-128988500D01*
X69276990Y-128987337D01*
X69214459Y-128975475D01*
X69163751Y-128927408D01*
X69147080Y-128859556D01*
X69169739Y-128793463D01*
X69202064Y-128761992D01*
X69232301Y-128741789D01*
X69343801Y-128630289D01*
X69431406Y-128499179D01*
X69487432Y-128363920D01*
X79034499Y-128363920D01*
X79063340Y-128508907D01*
X79063343Y-128508917D01*
X79119912Y-128645488D01*
X79119919Y-128645501D01*
X79202048Y-128768415D01*
X79202051Y-128768419D01*
X79306580Y-128872948D01*
X79306584Y-128872951D01*
X79429498Y-128955080D01*
X79429511Y-128955087D01*
X79566082Y-129011656D01*
X79566087Y-129011658D01*
X79566091Y-129011658D01*
X79566092Y-129011659D01*
X79711079Y-129040500D01*
X79711082Y-129040500D01*
X79858920Y-129040500D01*
X79975348Y-129017340D01*
X80003913Y-129011658D01*
X80140495Y-128955084D01*
X80263416Y-128872951D01*
X80367951Y-128768416D01*
X80401275Y-128718543D01*
X91034499Y-128718543D01*
X91072947Y-128911829D01*
X91072950Y-128911839D01*
X91148364Y-129093907D01*
X91148371Y-129093920D01*
X91257860Y-129257781D01*
X91257863Y-129257785D01*
X91397214Y-129397136D01*
X91397218Y-129397139D01*
X91561079Y-129506628D01*
X91561092Y-129506635D01*
X91743160Y-129582049D01*
X91743165Y-129582051D01*
X91743169Y-129582051D01*
X91743170Y-129582052D01*
X91936456Y-129620500D01*
X91936459Y-129620500D01*
X92133543Y-129620500D01*
X92263582Y-129594632D01*
X92326835Y-129582051D01*
X92508914Y-129506632D01*
X92672782Y-129397139D01*
X92812139Y-129257782D01*
X92921632Y-129093914D01*
X92997051Y-128911835D01*
X93016104Y-128816049D01*
X93035500Y-128718543D01*
X95204499Y-128718543D01*
X95242947Y-128911829D01*
X95242950Y-128911839D01*
X95318364Y-129093907D01*
X95318371Y-129093920D01*
X95427860Y-129257781D01*
X95427863Y-129257785D01*
X95567214Y-129397136D01*
X95567218Y-129397139D01*
X95731079Y-129506628D01*
X95731092Y-129506635D01*
X95913160Y-129582049D01*
X95913165Y-129582051D01*
X95913169Y-129582051D01*
X95913170Y-129582052D01*
X96106456Y-129620500D01*
X96106459Y-129620500D01*
X96303543Y-129620500D01*
X96433582Y-129594632D01*
X96496835Y-129582051D01*
X96678914Y-129506632D01*
X96842782Y-129397139D01*
X96982139Y-129257782D01*
X97091632Y-129093914D01*
X97167051Y-128911835D01*
X97186104Y-128816049D01*
X97205500Y-128718543D01*
X97205500Y-128521456D01*
X97167052Y-128328170D01*
X97167051Y-128328169D01*
X97167051Y-128328165D01*
X97167049Y-128328160D01*
X97091635Y-128146092D01*
X97091628Y-128146079D01*
X96982139Y-127982218D01*
X96982136Y-127982214D01*
X96842785Y-127842863D01*
X96842781Y-127842860D01*
X96678920Y-127733371D01*
X96678907Y-127733364D01*
X96496839Y-127657950D01*
X96496829Y-127657947D01*
X96303543Y-127619500D01*
X96303541Y-127619500D01*
X96106459Y-127619500D01*
X96106457Y-127619500D01*
X95913170Y-127657947D01*
X95913160Y-127657950D01*
X95731092Y-127733364D01*
X95731079Y-127733371D01*
X95567218Y-127842860D01*
X95567214Y-127842863D01*
X95427863Y-127982214D01*
X95427860Y-127982218D01*
X95318371Y-128146079D01*
X95318364Y-128146092D01*
X95242950Y-128328160D01*
X95242947Y-128328170D01*
X95204500Y-128521456D01*
X95204500Y-128521459D01*
X95204500Y-128718541D01*
X95204500Y-128718543D01*
X95204499Y-128718543D01*
X93035500Y-128718543D01*
X93035500Y-128521456D01*
X92997052Y-128328170D01*
X92997051Y-128328169D01*
X92997051Y-128328165D01*
X92997049Y-128328160D01*
X92921635Y-128146092D01*
X92921628Y-128146079D01*
X92812139Y-127982218D01*
X92812136Y-127982214D01*
X92672785Y-127842863D01*
X92672781Y-127842860D01*
X92508920Y-127733371D01*
X92508907Y-127733364D01*
X92326839Y-127657950D01*
X92326829Y-127657947D01*
X92133543Y-127619500D01*
X92133541Y-127619500D01*
X91936459Y-127619500D01*
X91936457Y-127619500D01*
X91743170Y-127657947D01*
X91743160Y-127657950D01*
X91561092Y-127733364D01*
X91561079Y-127733371D01*
X91397218Y-127842860D01*
X91397214Y-127842863D01*
X91257863Y-127982214D01*
X91257860Y-127982218D01*
X91148371Y-128146079D01*
X91148364Y-128146092D01*
X91072950Y-128328160D01*
X91072947Y-128328170D01*
X91034500Y-128521456D01*
X91034500Y-128521459D01*
X91034500Y-128718541D01*
X91034500Y-128718543D01*
X91034499Y-128718543D01*
X80401275Y-128718543D01*
X80450084Y-128645495D01*
X80506658Y-128508913D01*
X80530165Y-128390738D01*
X80535500Y-128363920D01*
X80535500Y-128216079D01*
X80506659Y-128071092D01*
X80506658Y-128071091D01*
X80506658Y-128071087D01*
X80494259Y-128041153D01*
X80450087Y-127934511D01*
X80450080Y-127934498D01*
X80367951Y-127811584D01*
X80367948Y-127811580D01*
X80263419Y-127707051D01*
X80263415Y-127707048D01*
X80140501Y-127624919D01*
X80140488Y-127624912D01*
X80003917Y-127568343D01*
X80003907Y-127568340D01*
X79858920Y-127539500D01*
X79858918Y-127539500D01*
X79711082Y-127539500D01*
X79711080Y-127539500D01*
X79566092Y-127568340D01*
X79566082Y-127568343D01*
X79429511Y-127624912D01*
X79429498Y-127624919D01*
X79306584Y-127707048D01*
X79306580Y-127707051D01*
X79202051Y-127811580D01*
X79202048Y-127811584D01*
X79119919Y-127934498D01*
X79119912Y-127934511D01*
X79063343Y-128071082D01*
X79063340Y-128071092D01*
X79034500Y-128216079D01*
X79034500Y-128216082D01*
X79034500Y-128363918D01*
X79034500Y-128363920D01*
X79034499Y-128363920D01*
X69487432Y-128363920D01*
X69491749Y-128353497D01*
X69507060Y-128276520D01*
X69522512Y-128198845D01*
X69522512Y-128041155D01*
X69522511Y-128041153D01*
X69491750Y-127886510D01*
X69491749Y-127886503D01*
X69491747Y-127886498D01*
X69431409Y-127740827D01*
X69431402Y-127740814D01*
X69343801Y-127609711D01*
X69343798Y-127609707D01*
X69232304Y-127498213D01*
X69232300Y-127498210D01*
X69101197Y-127410609D01*
X69101184Y-127410602D01*
X68955513Y-127350264D01*
X68955501Y-127350261D01*
X68800857Y-127319500D01*
X68800854Y-127319500D01*
X68643170Y-127319500D01*
X68643167Y-127319500D01*
X68488522Y-127350261D01*
X68488510Y-127350264D01*
X68342839Y-127410602D01*
X68342826Y-127410609D01*
X68211723Y-127498210D01*
X68211719Y-127498213D01*
X68100225Y-127609707D01*
X68100222Y-127609711D01*
X68012621Y-127740814D01*
X68012614Y-127740827D01*
X67952276Y-127886498D01*
X67952273Y-127886510D01*
X67921512Y-128041153D01*
X58289016Y-128041153D01*
X58316394Y-128000179D01*
X58376737Y-127854497D01*
X58407500Y-127699842D01*
X58407500Y-127542158D01*
X58407500Y-127542155D01*
X58407499Y-127542153D01*
X58397540Y-127492087D01*
X58376737Y-127387503D01*
X58361311Y-127350261D01*
X58316397Y-127241827D01*
X58316390Y-127241814D01*
X58228789Y-127110711D01*
X58228786Y-127110707D01*
X58117292Y-126999213D01*
X58117288Y-126999210D01*
X57986185Y-126911609D01*
X57986172Y-126911602D01*
X57960383Y-126900920D01*
X82386499Y-126900920D01*
X82415340Y-127045907D01*
X82415343Y-127045917D01*
X82471912Y-127182488D01*
X82471919Y-127182501D01*
X82554048Y-127305415D01*
X82554051Y-127305419D01*
X82658580Y-127409948D01*
X82658584Y-127409951D01*
X82781498Y-127492080D01*
X82781511Y-127492087D01*
X82918082Y-127548656D01*
X82918087Y-127548658D01*
X82918091Y-127548658D01*
X82918092Y-127548659D01*
X83063079Y-127577500D01*
X83063082Y-127577500D01*
X83210920Y-127577500D01*
X83308462Y-127558096D01*
X83355913Y-127548658D01*
X83477703Y-127498211D01*
X83492488Y-127492087D01*
X83492488Y-127492086D01*
X83492495Y-127492084D01*
X83615416Y-127409951D01*
X83719951Y-127305416D01*
X83802084Y-127182495D01*
X83858658Y-127045913D01*
X83868096Y-126998462D01*
X83887500Y-126900920D01*
X83887500Y-126753079D01*
X83858659Y-126608092D01*
X83858658Y-126608091D01*
X83858658Y-126608087D01*
X83858656Y-126608082D01*
X83802087Y-126471511D01*
X83802080Y-126471498D01*
X83719951Y-126348584D01*
X83719948Y-126348580D01*
X83615419Y-126244051D01*
X83615415Y-126244048D01*
X83492501Y-126161919D01*
X83492488Y-126161912D01*
X83355917Y-126105343D01*
X83355907Y-126105340D01*
X83210920Y-126076500D01*
X83210918Y-126076500D01*
X83063082Y-126076500D01*
X83063080Y-126076500D01*
X82918092Y-126105340D01*
X82918082Y-126105343D01*
X82781511Y-126161912D01*
X82781498Y-126161919D01*
X82658584Y-126244048D01*
X82658580Y-126244051D01*
X82554051Y-126348580D01*
X82554048Y-126348584D01*
X82471919Y-126471498D01*
X82471912Y-126471511D01*
X82415343Y-126608082D01*
X82415340Y-126608092D01*
X82386500Y-126753079D01*
X82386500Y-126753082D01*
X82386500Y-126900918D01*
X82386500Y-126900920D01*
X82386499Y-126900920D01*
X57960383Y-126900920D01*
X57865335Y-126861551D01*
X57840497Y-126851263D01*
X57840489Y-126851261D01*
X57685845Y-126820500D01*
X57685842Y-126820500D01*
X57528158Y-126820500D01*
X57528155Y-126820500D01*
X57373510Y-126851261D01*
X57373498Y-126851264D01*
X57227827Y-126911602D01*
X57227814Y-126911609D01*
X57096711Y-126999210D01*
X57096707Y-126999213D01*
X56985213Y-127110707D01*
X56985210Y-127110711D01*
X56897609Y-127241814D01*
X56897602Y-127241827D01*
X56837264Y-127387498D01*
X56837261Y-127387510D01*
X56806500Y-127542153D01*
X49425500Y-127542153D01*
X49425500Y-125494920D01*
X60611511Y-125494920D01*
X60640352Y-125639907D01*
X60640355Y-125639917D01*
X60696924Y-125776488D01*
X60696931Y-125776501D01*
X60779060Y-125899415D01*
X60779063Y-125899419D01*
X60883592Y-126003948D01*
X60883596Y-126003951D01*
X61006510Y-126086080D01*
X61006523Y-126086087D01*
X61053012Y-126105343D01*
X61143099Y-126142658D01*
X61143103Y-126142658D01*
X61143104Y-126142659D01*
X61288091Y-126171500D01*
X61288094Y-126171500D01*
X61435932Y-126171500D01*
X61533474Y-126152096D01*
X61580925Y-126142658D01*
X61717507Y-126086084D01*
X61840428Y-126003951D01*
X61944963Y-125899416D01*
X62027096Y-125776495D01*
X62083670Y-125639913D01*
X62101225Y-125551659D01*
X62112512Y-125494920D01*
X62112512Y-125347079D01*
X62083671Y-125202092D01*
X62083670Y-125202091D01*
X62083670Y-125202087D01*
X62076800Y-125185501D01*
X62027099Y-125065511D01*
X62027092Y-125065498D01*
X61944963Y-124942584D01*
X61944960Y-124942580D01*
X61906300Y-124903920D01*
X67021511Y-124903920D01*
X67050352Y-125048907D01*
X67050355Y-125048917D01*
X67106924Y-125185488D01*
X67106931Y-125185501D01*
X67189060Y-125308415D01*
X67189063Y-125308419D01*
X67293592Y-125412948D01*
X67293596Y-125412951D01*
X67416510Y-125495080D01*
X67416523Y-125495087D01*
X67553094Y-125551656D01*
X67553099Y-125551658D01*
X67553103Y-125551658D01*
X67553104Y-125551659D01*
X67698091Y-125580500D01*
X67698094Y-125580500D01*
X67845932Y-125580500D01*
X67943474Y-125561096D01*
X67990925Y-125551658D01*
X68127507Y-125495084D01*
X68250428Y-125412951D01*
X68354963Y-125308416D01*
X68437096Y-125185495D01*
X68493670Y-125048913D01*
X68514821Y-124942584D01*
X68522512Y-124903920D01*
X68522512Y-124756079D01*
X68493671Y-124611092D01*
X68493670Y-124611091D01*
X68493670Y-124611087D01*
X68450178Y-124506087D01*
X68437099Y-124474511D01*
X68437092Y-124474498D01*
X68354963Y-124351584D01*
X68354960Y-124351580D01*
X68250431Y-124247051D01*
X68250427Y-124247048D01*
X68127513Y-124164919D01*
X68127500Y-124164912D01*
X67990929Y-124108343D01*
X67990919Y-124108340D01*
X67845932Y-124079500D01*
X67845930Y-124079500D01*
X67698094Y-124079500D01*
X67698092Y-124079500D01*
X67553104Y-124108340D01*
X67553094Y-124108343D01*
X67416523Y-124164912D01*
X67416510Y-124164919D01*
X67293596Y-124247048D01*
X67293592Y-124247051D01*
X67189063Y-124351580D01*
X67189060Y-124351584D01*
X67106931Y-124474498D01*
X67106924Y-124474511D01*
X67050355Y-124611082D01*
X67050352Y-124611092D01*
X67021512Y-124756079D01*
X67021512Y-124756082D01*
X67021512Y-124903918D01*
X67021512Y-124903920D01*
X67021511Y-124903920D01*
X61906300Y-124903920D01*
X61840431Y-124838051D01*
X61840427Y-124838048D01*
X61717513Y-124755919D01*
X61717500Y-124755912D01*
X61580929Y-124699343D01*
X61580919Y-124699340D01*
X61435932Y-124670500D01*
X61435930Y-124670500D01*
X61288094Y-124670500D01*
X61288092Y-124670500D01*
X61143104Y-124699340D01*
X61143094Y-124699343D01*
X61006523Y-124755912D01*
X61006510Y-124755919D01*
X60883596Y-124838048D01*
X60883592Y-124838051D01*
X60779063Y-124942580D01*
X60779060Y-124942584D01*
X60696931Y-125065498D01*
X60696924Y-125065511D01*
X60640355Y-125202082D01*
X60640352Y-125202092D01*
X60611512Y-125347079D01*
X60611512Y-125347082D01*
X60611512Y-125494918D01*
X60611512Y-125494920D01*
X60611511Y-125494920D01*
X49425500Y-125494920D01*
X49425500Y-123513920D01*
X78979499Y-123513920D01*
X79008340Y-123658907D01*
X79008343Y-123658917D01*
X79064912Y-123795488D01*
X79064919Y-123795501D01*
X79147048Y-123918415D01*
X79147051Y-123918419D01*
X79251580Y-124022948D01*
X79251584Y-124022951D01*
X79374498Y-124105080D01*
X79374511Y-124105087D01*
X79511082Y-124161656D01*
X79511087Y-124161658D01*
X79511091Y-124161658D01*
X79511092Y-124161659D01*
X79656079Y-124190500D01*
X79656082Y-124190500D01*
X79803920Y-124190500D01*
X79932554Y-124164912D01*
X79948913Y-124161658D01*
X80077627Y-124108343D01*
X80085488Y-124105087D01*
X80085488Y-124105086D01*
X80085495Y-124105084D01*
X80208416Y-124022951D01*
X80312951Y-123918416D01*
X80395084Y-123795495D01*
X80451658Y-123658913D01*
X80461096Y-123611462D01*
X80480500Y-123513920D01*
X80480500Y-123366079D01*
X80451659Y-123221092D01*
X80451658Y-123221091D01*
X80451658Y-123221087D01*
X80446381Y-123208348D01*
X80395087Y-123084511D01*
X80395080Y-123084498D01*
X80312951Y-122961584D01*
X80312948Y-122961580D01*
X80266288Y-122914920D01*
X82384011Y-122914920D01*
X82412852Y-123059907D01*
X82412855Y-123059917D01*
X82469424Y-123196488D01*
X82469431Y-123196501D01*
X82519951Y-123272109D01*
X82540829Y-123338787D01*
X82522344Y-123406167D01*
X82519951Y-123409891D01*
X82469431Y-123485498D01*
X82469424Y-123485511D01*
X82412855Y-123622082D01*
X82412852Y-123622092D01*
X82384012Y-123767079D01*
X82384012Y-123767082D01*
X82384012Y-123914918D01*
X82384012Y-123914920D01*
X82384011Y-123914920D01*
X82412852Y-124059907D01*
X82412855Y-124059917D01*
X82469424Y-124196488D01*
X82469431Y-124196501D01*
X82551560Y-124319415D01*
X82551563Y-124319419D01*
X82656092Y-124423948D01*
X82656096Y-124423951D01*
X82779010Y-124506080D01*
X82779023Y-124506087D01*
X82915594Y-124562656D01*
X82915599Y-124562658D01*
X82915603Y-124562658D01*
X82915604Y-124562659D01*
X83060591Y-124591500D01*
X83060594Y-124591500D01*
X83208432Y-124591500D01*
X83305974Y-124572096D01*
X83353425Y-124562658D01*
X83490007Y-124506084D01*
X83612928Y-124423951D01*
X83677959Y-124358920D01*
X86003499Y-124358920D01*
X86032340Y-124503907D01*
X86032343Y-124503917D01*
X86088912Y-124640488D01*
X86088919Y-124640501D01*
X86132062Y-124705068D01*
X86152940Y-124771745D01*
X86134456Y-124839125D01*
X86132063Y-124842848D01*
X86112915Y-124871504D01*
X86112914Y-124871506D01*
X86056343Y-125008082D01*
X86056340Y-125008092D01*
X86027500Y-125153079D01*
X86027500Y-125153082D01*
X86027500Y-125300918D01*
X86027500Y-125300920D01*
X86027499Y-125300920D01*
X86056340Y-125445907D01*
X86056343Y-125445917D01*
X86112912Y-125582488D01*
X86112919Y-125582501D01*
X86195048Y-125705415D01*
X86195051Y-125705419D01*
X86299580Y-125809948D01*
X86299584Y-125809951D01*
X86422498Y-125892080D01*
X86422511Y-125892087D01*
X86559082Y-125948656D01*
X86559087Y-125948658D01*
X86559091Y-125948658D01*
X86559092Y-125948659D01*
X86704079Y-125977500D01*
X86704082Y-125977500D01*
X86851920Y-125977500D01*
X86949462Y-125958096D01*
X86996913Y-125948658D01*
X87133495Y-125892084D01*
X87256416Y-125809951D01*
X87360951Y-125705416D01*
X87443084Y-125582495D01*
X87499658Y-125445913D01*
X87528500Y-125300918D01*
X87528500Y-125153082D01*
X87528500Y-125153079D01*
X87499659Y-125008092D01*
X87499658Y-125008091D01*
X87499658Y-125008087D01*
X87456510Y-124903918D01*
X87443087Y-124871511D01*
X87443080Y-124871498D01*
X87399937Y-124806930D01*
X87379059Y-124740252D01*
X87397544Y-124672872D01*
X87399906Y-124669195D01*
X87419084Y-124640495D01*
X87475658Y-124503913D01*
X87491564Y-124423951D01*
X87504500Y-124358920D01*
X87504500Y-124211079D01*
X87475659Y-124066092D01*
X87475658Y-124066091D01*
X87475658Y-124066087D01*
X87457789Y-124022948D01*
X87419087Y-123929511D01*
X87419080Y-123929498D01*
X87336951Y-123806584D01*
X87336948Y-123806580D01*
X87232419Y-123702051D01*
X87232415Y-123702048D01*
X87109501Y-123619919D01*
X87109488Y-123619912D01*
X86972917Y-123563343D01*
X86972907Y-123563340D01*
X86827920Y-123534500D01*
X86827918Y-123534500D01*
X86680082Y-123534500D01*
X86680080Y-123534500D01*
X86535092Y-123563340D01*
X86535082Y-123563343D01*
X86398511Y-123619912D01*
X86398498Y-123619919D01*
X86275584Y-123702048D01*
X86275580Y-123702051D01*
X86171051Y-123806580D01*
X86171048Y-123806584D01*
X86088919Y-123929498D01*
X86088912Y-123929511D01*
X86032343Y-124066082D01*
X86032340Y-124066092D01*
X86003500Y-124211079D01*
X86003500Y-124211082D01*
X86003500Y-124358918D01*
X86003500Y-124358920D01*
X86003499Y-124358920D01*
X83677959Y-124358920D01*
X83717463Y-124319416D01*
X83799596Y-124196495D01*
X83856170Y-124059913D01*
X83865884Y-124011080D01*
X83885012Y-123914920D01*
X83885012Y-123767079D01*
X83856171Y-123622092D01*
X83856170Y-123622091D01*
X83856170Y-123622087D01*
X83855269Y-123619912D01*
X83799599Y-123485511D01*
X83799595Y-123485504D01*
X83790344Y-123471659D01*
X83755774Y-123419920D01*
X84384011Y-123419920D01*
X84412852Y-123564907D01*
X84412855Y-123564917D01*
X84469424Y-123701488D01*
X84469431Y-123701501D01*
X84551560Y-123824415D01*
X84551563Y-123824419D01*
X84656092Y-123928948D01*
X84656096Y-123928951D01*
X84779010Y-124011080D01*
X84779023Y-124011087D01*
X84911794Y-124066082D01*
X84915599Y-124067658D01*
X84915603Y-124067658D01*
X84915604Y-124067659D01*
X85060591Y-124096500D01*
X85060594Y-124096500D01*
X85208432Y-124096500D01*
X85274424Y-124083373D01*
X85324872Y-124073337D01*
X85353425Y-124067658D01*
X85490007Y-124011084D01*
X85612928Y-123928951D01*
X85717463Y-123824416D01*
X85799226Y-123702049D01*
X85799592Y-123701501D01*
X85799592Y-123701500D01*
X85799596Y-123701495D01*
X85856170Y-123564913D01*
X85868983Y-123500500D01*
X85885012Y-123419920D01*
X85885012Y-123265990D01*
X85887581Y-123265990D01*
X85898499Y-123208348D01*
X85946552Y-123157627D01*
X85990056Y-123143574D01*
X85989880Y-123142689D01*
X86076346Y-123125488D01*
X86150509Y-123110737D01*
X86296191Y-123050394D01*
X86427301Y-122962789D01*
X86538801Y-122851289D01*
X86626406Y-122720179D01*
X86627167Y-122718343D01*
X86666102Y-122624343D01*
X86686749Y-122574497D01*
X86717512Y-122419842D01*
X86717512Y-122262158D01*
X86717512Y-122262155D01*
X86717511Y-122262153D01*
X86698594Y-122167051D01*
X86686749Y-122107503D01*
X86679706Y-122090500D01*
X86626409Y-121961827D01*
X86626402Y-121961814D01*
X86538801Y-121830711D01*
X86538798Y-121830707D01*
X86427304Y-121719213D01*
X86427300Y-121719210D01*
X86296197Y-121631609D01*
X86296184Y-121631602D01*
X86150513Y-121571264D01*
X86150501Y-121571261D01*
X85995857Y-121540500D01*
X85995854Y-121540500D01*
X85838170Y-121540500D01*
X85838167Y-121540500D01*
X85683522Y-121571261D01*
X85683510Y-121571264D01*
X85537839Y-121631602D01*
X85537826Y-121631609D01*
X85406723Y-121719210D01*
X85406719Y-121719213D01*
X85295225Y-121830707D01*
X85295222Y-121830711D01*
X85207621Y-121961814D01*
X85207614Y-121961827D01*
X85147276Y-122107498D01*
X85147273Y-122107510D01*
X85116512Y-122262153D01*
X85116512Y-122262158D01*
X85116512Y-122419842D01*
X85116513Y-122419846D01*
X85123803Y-122456498D01*
X85117574Y-122526090D01*
X85074711Y-122581266D01*
X85026378Y-122602305D01*
X84915603Y-122624340D01*
X84915594Y-122624343D01*
X84779023Y-122680912D01*
X84779010Y-122680919D01*
X84656096Y-122763048D01*
X84656092Y-122763051D01*
X84551563Y-122867580D01*
X84551560Y-122867584D01*
X84469431Y-122990498D01*
X84469424Y-122990511D01*
X84412855Y-123127082D01*
X84412852Y-123127092D01*
X84384012Y-123272079D01*
X84384012Y-123272082D01*
X84384012Y-123419918D01*
X84384012Y-123419920D01*
X84384011Y-123419920D01*
X83755774Y-123419920D01*
X83749071Y-123409888D01*
X83743097Y-123390812D01*
X83732592Y-123373805D01*
X83732871Y-123358152D01*
X83728194Y-123343214D01*
X83733482Y-123323934D01*
X83733840Y-123303946D01*
X83745856Y-123278829D01*
X83746678Y-123275834D01*
X83749043Y-123272151D01*
X83799193Y-123197097D01*
X83799195Y-123197096D01*
X83799591Y-123196503D01*
X83799592Y-123196500D01*
X83799596Y-123196495D01*
X83856170Y-123059913D01*
X83869975Y-122990511D01*
X83885012Y-122914920D01*
X83885012Y-122767079D01*
X83856171Y-122622092D01*
X83856170Y-122622091D01*
X83856170Y-122622087D01*
X83845157Y-122595500D01*
X83799599Y-122485511D01*
X83799592Y-122485498D01*
X83717463Y-122362584D01*
X83717460Y-122362580D01*
X83612931Y-122258051D01*
X83612927Y-122258048D01*
X83490013Y-122175919D01*
X83490000Y-122175912D01*
X83353429Y-122119343D01*
X83353419Y-122119340D01*
X83208432Y-122090500D01*
X83208430Y-122090500D01*
X83060594Y-122090500D01*
X83060592Y-122090500D01*
X82915604Y-122119340D01*
X82915594Y-122119343D01*
X82779023Y-122175912D01*
X82779010Y-122175919D01*
X82656096Y-122258048D01*
X82656092Y-122258051D01*
X82551563Y-122362580D01*
X82551560Y-122362584D01*
X82469431Y-122485498D01*
X82469424Y-122485511D01*
X82412855Y-122622082D01*
X82412852Y-122622092D01*
X82384012Y-122767079D01*
X82384012Y-122767082D01*
X82384012Y-122914918D01*
X82384012Y-122914920D01*
X82384011Y-122914920D01*
X80266288Y-122914920D01*
X80208416Y-122857048D01*
X80085501Y-122774919D01*
X80085488Y-122774912D01*
X79948917Y-122718343D01*
X79948907Y-122718340D01*
X79803920Y-122689500D01*
X79803918Y-122689500D01*
X79656082Y-122689500D01*
X79656080Y-122689500D01*
X79511092Y-122718340D01*
X79511082Y-122718343D01*
X79374511Y-122774912D01*
X79374498Y-122774919D01*
X79251584Y-122857048D01*
X79251580Y-122857051D01*
X79147051Y-122961580D01*
X79147048Y-122961584D01*
X79064919Y-123084498D01*
X79064912Y-123084511D01*
X79008343Y-123221082D01*
X79008340Y-123221092D01*
X78979500Y-123366079D01*
X78979500Y-123366082D01*
X78979500Y-123513918D01*
X78979500Y-123513920D01*
X78979499Y-123513920D01*
X49425500Y-123513920D01*
X49425500Y-122823920D01*
X75479499Y-122823920D01*
X75508340Y-122968907D01*
X75508343Y-122968917D01*
X75564912Y-123105488D01*
X75564919Y-123105501D01*
X75647048Y-123228415D01*
X75647051Y-123228419D01*
X75751580Y-123332948D01*
X75751584Y-123332951D01*
X75874498Y-123415080D01*
X75874511Y-123415087D01*
X76011082Y-123471656D01*
X76011087Y-123471658D01*
X76011091Y-123471658D01*
X76011092Y-123471659D01*
X76156079Y-123500500D01*
X76156082Y-123500500D01*
X76303920Y-123500500D01*
X76401462Y-123481096D01*
X76448913Y-123471658D01*
X76585495Y-123415084D01*
X76708416Y-123332951D01*
X76737421Y-123303946D01*
X76769059Y-123272309D01*
X76812948Y-123228419D01*
X76812951Y-123228416D01*
X76895084Y-123105495D01*
X76951658Y-122968913D01*
X76971815Y-122867580D01*
X76980500Y-122823920D01*
X76980500Y-122676079D01*
X76951659Y-122531092D01*
X76951658Y-122531091D01*
X76951658Y-122531087D01*
X76932780Y-122485511D01*
X76895087Y-122394511D01*
X76895080Y-122394498D01*
X76812951Y-122271584D01*
X76812948Y-122271580D01*
X76708419Y-122167051D01*
X76708415Y-122167048D01*
X76585501Y-122084919D01*
X76585488Y-122084912D01*
X76448917Y-122028343D01*
X76448907Y-122028340D01*
X76303920Y-121999500D01*
X76303918Y-121999500D01*
X76156082Y-121999500D01*
X76156080Y-121999500D01*
X76011092Y-122028340D01*
X76011082Y-122028343D01*
X75874511Y-122084912D01*
X75874498Y-122084919D01*
X75751584Y-122167048D01*
X75751580Y-122167051D01*
X75647051Y-122271580D01*
X75647048Y-122271584D01*
X75564919Y-122394498D01*
X75564912Y-122394511D01*
X75508343Y-122531082D01*
X75508340Y-122531092D01*
X75479500Y-122676079D01*
X75479500Y-122676082D01*
X75479500Y-122823918D01*
X75479500Y-122823920D01*
X75479499Y-122823920D01*
X49425500Y-122823920D01*
X49425500Y-118718543D01*
X50644499Y-118718543D01*
X50682947Y-118911829D01*
X50682950Y-118911839D01*
X50758364Y-119093907D01*
X50758371Y-119093920D01*
X50867860Y-119257781D01*
X50867863Y-119257785D01*
X51007214Y-119397136D01*
X51007218Y-119397139D01*
X51171079Y-119506628D01*
X51176456Y-119509502D01*
X51175490Y-119511308D01*
X51222612Y-119549285D01*
X51244673Y-119615580D01*
X51227391Y-119683279D01*
X51176251Y-119730887D01*
X51172660Y-119732526D01*
X51171079Y-119733371D01*
X51007218Y-119842860D01*
X51007214Y-119842863D01*
X50867863Y-119982214D01*
X50867860Y-119982218D01*
X50758371Y-120146079D01*
X50758364Y-120146092D01*
X50682950Y-120328160D01*
X50682947Y-120328170D01*
X50644500Y-120521456D01*
X50644500Y-120521459D01*
X50644500Y-120718541D01*
X50644500Y-120718543D01*
X50644499Y-120718543D01*
X50682947Y-120911829D01*
X50682950Y-120911839D01*
X50758364Y-121093907D01*
X50758371Y-121093920D01*
X50867860Y-121257781D01*
X50867863Y-121257785D01*
X51007214Y-121397136D01*
X51007218Y-121397139D01*
X51171079Y-121506628D01*
X51171092Y-121506635D01*
X51353160Y-121582049D01*
X51353165Y-121582051D01*
X51353169Y-121582051D01*
X51353170Y-121582052D01*
X51546456Y-121620500D01*
X51546459Y-121620500D01*
X51743543Y-121620500D01*
X51873582Y-121594632D01*
X51936835Y-121582051D01*
X52118914Y-121506632D01*
X52282782Y-121397139D01*
X52422139Y-121257782D01*
X52531632Y-121093914D01*
X52607051Y-120911835D01*
X52634287Y-120774912D01*
X52645500Y-120718543D01*
X52645500Y-120693920D01*
X57254499Y-120693920D01*
X57283340Y-120838907D01*
X57283343Y-120838917D01*
X57339912Y-120975488D01*
X57339919Y-120975501D01*
X57422048Y-121098415D01*
X57422051Y-121098419D01*
X57526580Y-121202948D01*
X57526584Y-121202951D01*
X57649498Y-121285080D01*
X57649511Y-121285087D01*
X57771935Y-121335796D01*
X57786087Y-121341658D01*
X57786091Y-121341658D01*
X57786092Y-121341659D01*
X57931079Y-121370500D01*
X57931082Y-121370500D01*
X58078920Y-121370500D01*
X58176462Y-121351096D01*
X58223913Y-121341658D01*
X58336353Y-121295084D01*
X58360488Y-121285087D01*
X58360488Y-121285086D01*
X58360495Y-121285084D01*
X58483416Y-121202951D01*
X58587951Y-121098416D01*
X58670084Y-120975495D01*
X58726658Y-120838913D01*
X58736096Y-120791462D01*
X58755500Y-120693920D01*
X58755500Y-120546079D01*
X58726659Y-120401092D01*
X58726658Y-120401091D01*
X58726658Y-120401087D01*
X58693828Y-120321828D01*
X58670087Y-120264511D01*
X58670080Y-120264498D01*
X58587951Y-120141584D01*
X58587948Y-120141580D01*
X58483419Y-120037051D01*
X58483415Y-120037048D01*
X58360501Y-119954919D01*
X58360488Y-119954912D01*
X58223917Y-119898343D01*
X58223907Y-119898340D01*
X58078920Y-119869500D01*
X58078918Y-119869500D01*
X57931082Y-119869500D01*
X57931080Y-119869500D01*
X57786092Y-119898340D01*
X57786082Y-119898343D01*
X57649511Y-119954912D01*
X57649498Y-119954919D01*
X57526584Y-120037048D01*
X57526580Y-120037051D01*
X57422051Y-120141580D01*
X57422048Y-120141584D01*
X57339919Y-120264498D01*
X57339912Y-120264511D01*
X57283343Y-120401082D01*
X57283340Y-120401092D01*
X57254500Y-120546079D01*
X57254500Y-120546082D01*
X57254500Y-120693918D01*
X57254500Y-120693920D01*
X57254499Y-120693920D01*
X52645500Y-120693920D01*
X52645500Y-120521456D01*
X52607052Y-120328170D01*
X52607051Y-120328169D01*
X52607051Y-120328165D01*
X52584827Y-120274511D01*
X52531635Y-120146092D01*
X52531628Y-120146079D01*
X52422139Y-119982218D01*
X52422136Y-119982214D01*
X52282785Y-119842863D01*
X52282781Y-119842860D01*
X52118920Y-119733371D01*
X52113544Y-119730498D01*
X52114510Y-119728689D01*
X52067397Y-119690728D01*
X52045326Y-119624436D01*
X52062600Y-119556735D01*
X52113734Y-119509121D01*
X52117331Y-119507477D01*
X52118907Y-119506634D01*
X52118914Y-119506632D01*
X52282782Y-119397139D01*
X52422139Y-119257782D01*
X52531632Y-119093914D01*
X52607051Y-118911835D01*
X52631097Y-118790949D01*
X52645500Y-118718543D01*
X52645500Y-118521456D01*
X52622518Y-118405920D01*
X63281499Y-118405920D01*
X63310340Y-118550907D01*
X63310343Y-118550917D01*
X63366912Y-118687488D01*
X63366919Y-118687501D01*
X63449048Y-118810415D01*
X63449051Y-118810419D01*
X63553580Y-118914948D01*
X63553584Y-118914951D01*
X63676498Y-118997080D01*
X63676511Y-118997087D01*
X63795777Y-119046488D01*
X63813087Y-119053658D01*
X63813091Y-119053658D01*
X63813092Y-119053659D01*
X63958079Y-119082500D01*
X64109003Y-119082500D01*
X64176042Y-119102185D01*
X64221797Y-119154989D01*
X64231741Y-119224147D01*
X64223564Y-119253952D01*
X64195342Y-119322085D01*
X64195340Y-119322093D01*
X64166500Y-119467079D01*
X64166500Y-119467082D01*
X64166500Y-119614918D01*
X64166500Y-119614920D01*
X64166499Y-119614920D01*
X64195340Y-119759906D01*
X64195342Y-119759914D01*
X64229984Y-119843548D01*
X64237453Y-119913018D01*
X64229984Y-119938452D01*
X64195342Y-120022085D01*
X64195340Y-120022093D01*
X64166500Y-120167079D01*
X64166500Y-120167082D01*
X64166500Y-120314918D01*
X64166500Y-120314920D01*
X64166499Y-120314920D01*
X64195340Y-120459906D01*
X64195342Y-120459914D01*
X64229984Y-120543548D01*
X64237453Y-120613018D01*
X64229984Y-120638452D01*
X64195342Y-120722085D01*
X64195340Y-120722093D01*
X64166500Y-120867079D01*
X64166500Y-120867082D01*
X64166500Y-121014918D01*
X64166500Y-121014920D01*
X64166499Y-121014920D01*
X64195340Y-121159907D01*
X64195343Y-121159917D01*
X64251912Y-121296488D01*
X64251919Y-121296501D01*
X64334048Y-121419415D01*
X64334051Y-121419419D01*
X64438580Y-121523948D01*
X64438584Y-121523951D01*
X64561498Y-121606080D01*
X64561511Y-121606087D01*
X64689031Y-121658907D01*
X64698087Y-121662658D01*
X64698091Y-121662658D01*
X64698092Y-121662659D01*
X64843079Y-121691500D01*
X64843082Y-121691500D01*
X64990920Y-121691500D01*
X65088462Y-121672096D01*
X65135913Y-121662658D01*
X65272495Y-121606084D01*
X65395416Y-121523951D01*
X65499951Y-121419416D01*
X65582084Y-121296495D01*
X65582669Y-121295084D01*
X65613321Y-121221082D01*
X65638658Y-121159913D01*
X65667500Y-121014918D01*
X65667500Y-120867082D01*
X65667500Y-120867079D01*
X65638659Y-120722092D01*
X65638658Y-120722091D01*
X65638658Y-120722087D01*
X65604014Y-120638450D01*
X65596546Y-120568984D01*
X65604015Y-120543548D01*
X65638658Y-120459913D01*
X65650360Y-120401087D01*
X65667500Y-120314920D01*
X65667500Y-120167079D01*
X65638659Y-120022092D01*
X65638658Y-120022091D01*
X65638658Y-120022087D01*
X65604014Y-119938450D01*
X65596546Y-119868984D01*
X65604015Y-119843548D01*
X65638658Y-119759913D01*
X65652880Y-119688415D01*
X65667500Y-119614920D01*
X65667500Y-119467079D01*
X65638659Y-119322092D01*
X65638658Y-119322091D01*
X65638658Y-119322087D01*
X65604014Y-119238450D01*
X65601414Y-119214262D01*
X65594576Y-119190911D01*
X65597386Y-119176805D01*
X65596546Y-119168984D01*
X65599624Y-119155980D01*
X65601487Y-119149651D01*
X65638658Y-119059913D01*
X65661054Y-118947320D01*
X65662631Y-118941966D01*
X65678638Y-118917097D01*
X65692351Y-118890883D01*
X65697341Y-118888041D01*
X65700448Y-118883215D01*
X65727355Y-118870950D01*
X65753067Y-118856309D01*
X65758801Y-118856616D01*
X65764024Y-118854236D01*
X65793289Y-118858465D01*
X65822836Y-118860049D01*
X65827494Y-118863408D01*
X65833175Y-118864229D01*
X65855516Y-118883615D01*
X65879508Y-118900916D01*
X65882168Y-118906742D01*
X65885947Y-118910021D01*
X65890023Y-118923941D01*
X65903200Y-118952794D01*
X65918340Y-119028907D01*
X65918343Y-119028917D01*
X65974912Y-119165488D01*
X65974919Y-119165501D01*
X66057048Y-119288415D01*
X66057051Y-119288419D01*
X66161580Y-119392948D01*
X66161584Y-119392951D01*
X66284498Y-119475080D01*
X66284511Y-119475087D01*
X66421082Y-119531656D01*
X66421087Y-119531658D01*
X66421091Y-119531658D01*
X66421092Y-119531659D01*
X66566079Y-119560500D01*
X66566082Y-119560500D01*
X66713920Y-119560500D01*
X66826206Y-119538164D01*
X66858913Y-119531658D01*
X66995495Y-119475084D01*
X66995500Y-119475080D01*
X66999249Y-119473077D01*
X67067650Y-119458828D01*
X67132897Y-119483822D01*
X67172274Y-119534975D01*
X67184916Y-119565495D01*
X67184917Y-119565497D01*
X67184919Y-119565500D01*
X67267048Y-119688415D01*
X67267051Y-119688419D01*
X67371580Y-119792948D01*
X67371584Y-119792951D01*
X67494498Y-119875080D01*
X67494511Y-119875087D01*
X67631082Y-119931656D01*
X67631087Y-119931658D01*
X67631091Y-119931658D01*
X67631092Y-119931659D01*
X67776079Y-119960500D01*
X67776082Y-119960500D01*
X67923920Y-119960500D01*
X68034758Y-119938452D01*
X68068913Y-119931658D01*
X68205495Y-119875084D01*
X68328416Y-119792951D01*
X68330212Y-119791155D01*
X68343584Y-119777784D01*
X68404907Y-119744299D01*
X68474599Y-119749283D01*
X68530532Y-119791155D01*
X68554949Y-119856619D01*
X68555265Y-119865465D01*
X68555265Y-119916186D01*
X68555265Y-119916188D01*
X68555264Y-119916188D01*
X68584105Y-120061175D01*
X68584108Y-120061185D01*
X68640677Y-120197756D01*
X68640684Y-120197769D01*
X68722813Y-120320683D01*
X68722816Y-120320687D01*
X68827345Y-120425216D01*
X68827349Y-120425219D01*
X68950263Y-120507348D01*
X68950276Y-120507355D01*
X69067915Y-120556082D01*
X69086852Y-120563926D01*
X69086856Y-120563926D01*
X69086857Y-120563927D01*
X69231844Y-120592768D01*
X69231847Y-120592768D01*
X69379685Y-120592768D01*
X69499250Y-120568984D01*
X69524678Y-120563926D01*
X69661260Y-120507352D01*
X69784181Y-120425219D01*
X69888716Y-120320684D01*
X69970849Y-120197763D01*
X70027423Y-120061181D01*
X70048329Y-119956084D01*
X70056265Y-119916188D01*
X70056265Y-119768347D01*
X70027424Y-119623360D01*
X70027423Y-119623359D01*
X70027423Y-119623355D01*
X70026033Y-119620000D01*
X69970852Y-119486779D01*
X69970845Y-119486766D01*
X69888716Y-119363852D01*
X69888713Y-119363848D01*
X69784184Y-119259319D01*
X69784180Y-119259316D01*
X69661266Y-119177187D01*
X69661253Y-119177180D01*
X69524682Y-119120611D01*
X69524672Y-119120608D01*
X69379685Y-119091768D01*
X69379683Y-119091768D01*
X69231847Y-119091768D01*
X69231845Y-119091768D01*
X69086857Y-119120608D01*
X69086847Y-119120611D01*
X68950276Y-119177180D01*
X68950263Y-119177187D01*
X68827349Y-119259316D01*
X68827345Y-119259319D01*
X68812181Y-119274484D01*
X68750858Y-119307969D01*
X68681166Y-119302985D01*
X68625233Y-119261113D01*
X68600816Y-119195649D01*
X68600500Y-119186803D01*
X68600500Y-119136079D01*
X68571659Y-118991092D01*
X68571658Y-118991091D01*
X68571658Y-118991087D01*
X68555797Y-118952794D01*
X68515087Y-118854511D01*
X68515080Y-118854498D01*
X68432951Y-118731584D01*
X68432948Y-118731580D01*
X68328419Y-118627051D01*
X68328415Y-118627048D01*
X68248904Y-118573920D01*
X70319499Y-118573920D01*
X70348340Y-118718907D01*
X70348343Y-118718917D01*
X70404912Y-118855488D01*
X70404919Y-118855501D01*
X70487048Y-118978415D01*
X70487051Y-118978419D01*
X70591580Y-119082948D01*
X70591584Y-119082951D01*
X70714498Y-119165080D01*
X70714511Y-119165087D01*
X70851082Y-119221656D01*
X70851087Y-119221658D01*
X70851091Y-119221658D01*
X70851092Y-119221659D01*
X70996079Y-119250500D01*
X70996082Y-119250500D01*
X71143920Y-119250500D01*
X71276400Y-119224147D01*
X71288913Y-119221658D01*
X71340474Y-119200300D01*
X71431124Y-119162753D01*
X71431878Y-119164574D01*
X71491377Y-119152174D01*
X71528903Y-119161214D01*
X71653099Y-119212658D01*
X71653103Y-119212658D01*
X71653104Y-119212659D01*
X71798091Y-119241500D01*
X71804154Y-119242097D01*
X71804024Y-119243412D01*
X71864551Y-119261185D01*
X71910306Y-119313989D01*
X71920084Y-119358939D01*
X71920915Y-119358858D01*
X71921511Y-119364920D01*
X71950352Y-119509907D01*
X71950355Y-119509917D01*
X72006924Y-119646488D01*
X72006931Y-119646501D01*
X72089060Y-119769415D01*
X72089063Y-119769419D01*
X72193592Y-119873948D01*
X72193596Y-119873951D01*
X72316510Y-119956080D01*
X72316523Y-119956087D01*
X72453094Y-120012656D01*
X72453099Y-120012658D01*
X72453103Y-120012658D01*
X72453104Y-120012659D01*
X72598091Y-120041500D01*
X72598094Y-120041500D01*
X72745932Y-120041500D01*
X72843533Y-120022085D01*
X72890925Y-120012658D01*
X73024559Y-119957304D01*
X73094029Y-119949836D01*
X73119464Y-119957304D01*
X73253099Y-120012658D01*
X73253103Y-120012658D01*
X73253104Y-120012659D01*
X73398091Y-120041500D01*
X73398094Y-120041500D01*
X73545932Y-120041500D01*
X73643533Y-120022085D01*
X73690925Y-120012658D01*
X73827507Y-119956084D01*
X73950428Y-119873951D01*
X74054963Y-119769416D01*
X74137096Y-119646495D01*
X74148071Y-119620000D01*
X74157451Y-119597354D01*
X74201291Y-119542950D01*
X74267585Y-119520885D01*
X74335285Y-119538164D01*
X74382896Y-119589301D01*
X74386573Y-119597354D01*
X74406924Y-119646488D01*
X74406931Y-119646501D01*
X74489060Y-119769415D01*
X74489063Y-119769419D01*
X74593592Y-119873948D01*
X74593596Y-119873951D01*
X74716510Y-119956080D01*
X74716523Y-119956087D01*
X74853094Y-120012656D01*
X74853099Y-120012658D01*
X74853103Y-120012658D01*
X74853104Y-120012659D01*
X74998091Y-120041500D01*
X74998094Y-120041500D01*
X75145932Y-120041500D01*
X75243533Y-120022085D01*
X75290925Y-120012658D01*
X75424559Y-119957304D01*
X75494029Y-119949836D01*
X75519464Y-119957304D01*
X75653099Y-120012658D01*
X75653103Y-120012658D01*
X75653104Y-120012659D01*
X75798091Y-120041500D01*
X75918617Y-120041500D01*
X75985656Y-120061185D01*
X76031411Y-120113989D01*
X76041355Y-120183147D01*
X76021719Y-120234391D01*
X75994919Y-120274499D01*
X75994912Y-120274511D01*
X75938343Y-120411082D01*
X75938340Y-120411092D01*
X75909500Y-120556079D01*
X75909500Y-120556082D01*
X75909500Y-120703918D01*
X75909500Y-120703920D01*
X75909499Y-120703920D01*
X75938340Y-120848907D01*
X75938343Y-120848917D01*
X75994912Y-120985488D01*
X75994919Y-120985501D01*
X76077048Y-121108415D01*
X76077051Y-121108419D01*
X76181580Y-121212948D01*
X76181584Y-121212951D01*
X76304498Y-121295080D01*
X76304511Y-121295087D01*
X76416947Y-121341659D01*
X76441087Y-121351658D01*
X76441091Y-121351658D01*
X76441092Y-121351659D01*
X76586079Y-121380500D01*
X76586082Y-121380500D01*
X76733919Y-121380500D01*
X76753919Y-121376521D01*
X76766558Y-121374007D01*
X76836150Y-121380233D01*
X76891328Y-121423095D01*
X76905313Y-121448170D01*
X76924913Y-121495488D01*
X76924916Y-121495494D01*
X76924919Y-121495501D01*
X77007048Y-121618415D01*
X77007051Y-121618419D01*
X77111580Y-121722948D01*
X77111584Y-121722951D01*
X77234498Y-121805080D01*
X77234511Y-121805087D01*
X77371082Y-121861656D01*
X77371087Y-121861658D01*
X77371091Y-121861658D01*
X77371092Y-121861659D01*
X77516079Y-121890500D01*
X77516082Y-121890500D01*
X77663920Y-121890500D01*
X77761462Y-121871096D01*
X77808913Y-121861658D01*
X77945495Y-121805084D01*
X78068416Y-121722951D01*
X78172951Y-121618416D01*
X78242773Y-121513920D01*
X79539499Y-121513920D01*
X79568340Y-121658907D01*
X79568343Y-121658917D01*
X79624912Y-121795488D01*
X79624919Y-121795501D01*
X79707048Y-121918415D01*
X79707051Y-121918419D01*
X79811580Y-122022948D01*
X79811584Y-122022951D01*
X79934498Y-122105080D01*
X79934511Y-122105087D01*
X80071082Y-122161656D01*
X80071087Y-122161658D01*
X80071091Y-122161658D01*
X80071092Y-122161659D01*
X80216079Y-122190500D01*
X80216082Y-122190500D01*
X80363920Y-122190500D01*
X80481816Y-122167048D01*
X80508913Y-122161658D01*
X80645495Y-122105084D01*
X80768416Y-122022951D01*
X80872951Y-121918416D01*
X80955084Y-121795495D01*
X81011658Y-121658913D01*
X81029093Y-121571263D01*
X81040500Y-121513920D01*
X81040500Y-121366079D01*
X81011659Y-121221092D01*
X81011658Y-121221091D01*
X81011658Y-121221087D01*
X80986319Y-121159913D01*
X80955087Y-121084511D01*
X80955080Y-121084498D01*
X80872951Y-120961584D01*
X80872948Y-120961580D01*
X80768419Y-120857051D01*
X80768415Y-120857048D01*
X80645501Y-120774919D01*
X80645488Y-120774912D01*
X80508917Y-120718343D01*
X80508907Y-120718340D01*
X80363920Y-120689500D01*
X80363918Y-120689500D01*
X80216082Y-120689500D01*
X80216080Y-120689500D01*
X80071092Y-120718340D01*
X80071082Y-120718343D01*
X79934511Y-120774912D01*
X79934498Y-120774919D01*
X79811584Y-120857048D01*
X79811580Y-120857051D01*
X79707051Y-120961580D01*
X79707048Y-120961584D01*
X79624919Y-121084498D01*
X79624912Y-121084511D01*
X79568343Y-121221082D01*
X79568340Y-121221092D01*
X79539500Y-121366079D01*
X79539500Y-121366082D01*
X79539500Y-121513918D01*
X79539500Y-121513920D01*
X79539499Y-121513920D01*
X78242773Y-121513920D01*
X78255084Y-121495495D01*
X78311658Y-121358913D01*
X78340500Y-121213918D01*
X78340500Y-121066082D01*
X78340500Y-121066079D01*
X78311659Y-120921092D01*
X78311658Y-120921091D01*
X78311658Y-120921087D01*
X78307823Y-120911829D01*
X78255087Y-120784511D01*
X78255080Y-120784498D01*
X78172951Y-120661584D01*
X78172948Y-120661580D01*
X78068419Y-120557051D01*
X78068415Y-120557048D01*
X77945501Y-120474919D01*
X77945488Y-120474912D01*
X77808917Y-120418343D01*
X77808907Y-120418340D01*
X77663920Y-120389500D01*
X77663918Y-120389500D01*
X77516082Y-120389500D01*
X77516081Y-120389500D01*
X77483436Y-120395993D01*
X77413845Y-120389764D01*
X77358668Y-120346900D01*
X77344686Y-120321828D01*
X77325085Y-120274507D01*
X77325080Y-120274498D01*
X77242951Y-120151584D01*
X77242948Y-120151580D01*
X77138419Y-120047051D01*
X77138415Y-120047048D01*
X77015501Y-119964919D01*
X77015488Y-119964912D01*
X76878917Y-119908343D01*
X76878907Y-119908340D01*
X76733920Y-119879500D01*
X76733918Y-119879500D01*
X76613395Y-119879500D01*
X76546356Y-119859815D01*
X76500601Y-119807011D01*
X76490657Y-119737853D01*
X76510293Y-119686609D01*
X76517812Y-119675354D01*
X76537096Y-119646495D01*
X76593670Y-119509913D01*
X76620141Y-119376838D01*
X76652526Y-119314927D01*
X76713242Y-119280353D01*
X76783011Y-119284092D01*
X76810649Y-119297927D01*
X76897681Y-119356080D01*
X76897694Y-119356087D01*
X77034265Y-119412656D01*
X77034270Y-119412658D01*
X77034274Y-119412658D01*
X77034275Y-119412659D01*
X77179262Y-119441500D01*
X77179265Y-119441500D01*
X77327103Y-119441500D01*
X77424645Y-119422096D01*
X77472096Y-119412658D01*
X77589934Y-119363848D01*
X77608671Y-119356087D01*
X77608671Y-119356086D01*
X77608678Y-119356084D01*
X77731599Y-119273951D01*
X77836134Y-119169416D01*
X77918267Y-119046495D01*
X77974841Y-118909913D01*
X77985504Y-118856309D01*
X78003683Y-118764920D01*
X78003683Y-118617079D01*
X77974842Y-118472092D01*
X77974841Y-118472091D01*
X77974841Y-118472087D01*
X77967558Y-118454505D01*
X77918270Y-118335511D01*
X77918263Y-118335498D01*
X77836134Y-118212584D01*
X77836131Y-118212580D01*
X77731602Y-118108051D01*
X77731598Y-118108048D01*
X77608684Y-118025919D01*
X77608675Y-118025914D01*
X77482736Y-117973749D01*
X77428333Y-117929908D01*
X77406268Y-117863614D01*
X77408572Y-117834995D01*
X77408588Y-117834919D01*
X77422512Y-117764918D01*
X77422512Y-117617082D01*
X77422512Y-117617079D01*
X77393671Y-117472092D01*
X77393670Y-117472091D01*
X77393670Y-117472087D01*
X77379985Y-117439049D01*
X77337099Y-117335511D01*
X77337092Y-117335498D01*
X77254963Y-117212584D01*
X77254960Y-117212580D01*
X77150431Y-117108051D01*
X77150427Y-117108048D01*
X77027513Y-117025919D01*
X77027501Y-117025912D01*
X77001497Y-117015142D01*
X76947093Y-116971302D01*
X76935000Y-116946295D01*
X76933989Y-116946715D01*
X76875087Y-116804511D01*
X76875080Y-116804498D01*
X76795180Y-116684920D01*
X84831511Y-116684920D01*
X84860352Y-116829907D01*
X84860355Y-116829917D01*
X84916924Y-116966488D01*
X84916931Y-116966501D01*
X84999060Y-117089415D01*
X84999063Y-117089419D01*
X85103592Y-117193948D01*
X85103596Y-117193951D01*
X85226510Y-117276080D01*
X85226523Y-117276087D01*
X85363094Y-117332656D01*
X85363099Y-117332658D01*
X85363103Y-117332658D01*
X85363104Y-117332659D01*
X85508091Y-117361500D01*
X85508094Y-117361500D01*
X85655932Y-117361500D01*
X85786602Y-117335507D01*
X85800925Y-117332658D01*
X85937507Y-117276084D01*
X86060428Y-117193951D01*
X86164963Y-117089416D01*
X86247096Y-116966495D01*
X86303670Y-116829913D01*
X86318164Y-116757048D01*
X86332512Y-116684920D01*
X86332512Y-116537079D01*
X86303670Y-116392087D01*
X86303668Y-116392082D01*
X86247099Y-116255511D01*
X86247092Y-116255498D01*
X86164963Y-116132584D01*
X86164960Y-116132580D01*
X86060431Y-116028051D01*
X86060427Y-116028048D01*
X85937513Y-115945919D01*
X85937500Y-115945912D01*
X85800929Y-115889343D01*
X85800919Y-115889340D01*
X85655932Y-115860500D01*
X85655930Y-115860500D01*
X85508094Y-115860500D01*
X85508092Y-115860500D01*
X85363104Y-115889340D01*
X85363094Y-115889343D01*
X85226523Y-115945912D01*
X85226510Y-115945919D01*
X85103596Y-116028048D01*
X85103592Y-116028051D01*
X84999063Y-116132580D01*
X84999060Y-116132584D01*
X84916931Y-116255498D01*
X84916924Y-116255511D01*
X84860355Y-116392082D01*
X84860354Y-116392087D01*
X84831512Y-116537079D01*
X84831512Y-116537082D01*
X84831512Y-116684918D01*
X84831512Y-116684920D01*
X84831511Y-116684920D01*
X76795180Y-116684920D01*
X76792951Y-116681584D01*
X76792948Y-116681580D01*
X76688419Y-116577051D01*
X76688415Y-116577048D01*
X76565501Y-116494919D01*
X76565488Y-116494912D01*
X76428917Y-116438343D01*
X76428907Y-116438340D01*
X76283920Y-116409500D01*
X76283918Y-116409500D01*
X76136082Y-116409500D01*
X76136080Y-116409500D01*
X75991092Y-116438340D01*
X75991082Y-116438343D01*
X75921594Y-116467126D01*
X75852124Y-116474595D01*
X75826690Y-116467126D01*
X75708917Y-116418343D01*
X75708907Y-116418340D01*
X75563920Y-116389500D01*
X75563918Y-116389500D01*
X75416082Y-116389500D01*
X75416080Y-116389500D01*
X75271092Y-116418340D01*
X75271082Y-116418343D01*
X75134511Y-116474912D01*
X75134498Y-116474919D01*
X75011584Y-116557048D01*
X75011580Y-116557051D01*
X74907051Y-116661580D01*
X74907048Y-116661584D01*
X74824919Y-116784498D01*
X74824912Y-116784511D01*
X74768343Y-116921082D01*
X74768340Y-116921091D01*
X74767832Y-116923649D01*
X74767196Y-116924863D01*
X74766573Y-116926919D01*
X74766183Y-116926800D01*
X74735442Y-116985558D01*
X74674723Y-117020128D01*
X74604954Y-117016383D01*
X74598763Y-117014010D01*
X74490925Y-116969342D01*
X74490919Y-116969340D01*
X74345932Y-116940500D01*
X74345930Y-116940500D01*
X74198094Y-116940500D01*
X74198092Y-116940500D01*
X74053104Y-116969340D01*
X74053094Y-116969343D01*
X73919464Y-117024694D01*
X73849994Y-117032163D01*
X73824560Y-117024694D01*
X73690929Y-116969343D01*
X73690919Y-116969340D01*
X73545932Y-116940500D01*
X73545930Y-116940500D01*
X73398094Y-116940500D01*
X73398092Y-116940500D01*
X73253104Y-116969340D01*
X73253094Y-116969343D01*
X73116523Y-117025912D01*
X73116510Y-117025919D01*
X72993596Y-117108048D01*
X72993592Y-117108051D01*
X72889063Y-117212580D01*
X72889060Y-117212584D01*
X72806931Y-117335498D01*
X72806926Y-117335507D01*
X72786573Y-117384646D01*
X72742732Y-117439049D01*
X72676438Y-117461114D01*
X72608739Y-117443835D01*
X72561128Y-117392698D01*
X72557451Y-117384646D01*
X72537097Y-117335507D01*
X72537092Y-117335498D01*
X72454963Y-117212584D01*
X72454960Y-117212580D01*
X72350431Y-117108051D01*
X72350427Y-117108048D01*
X72227513Y-117025919D01*
X72227500Y-117025912D01*
X72090929Y-116969343D01*
X72090919Y-116969340D01*
X71945932Y-116940500D01*
X71945930Y-116940500D01*
X71798094Y-116940500D01*
X71798092Y-116940500D01*
X71653104Y-116969340D01*
X71653094Y-116969343D01*
X71516523Y-117025912D01*
X71516510Y-117025919D01*
X71393596Y-117108048D01*
X71393592Y-117108051D01*
X71289063Y-117212580D01*
X71289060Y-117212584D01*
X71206931Y-117335498D01*
X71206924Y-117335511D01*
X71150355Y-117472082D01*
X71150352Y-117472092D01*
X71121512Y-117617079D01*
X71121512Y-117625500D01*
X71101827Y-117692539D01*
X71049023Y-117738294D01*
X71002102Y-117748501D01*
X71002142Y-117748903D01*
X70998696Y-117749242D01*
X70997512Y-117749500D01*
X70996080Y-117749500D01*
X70851092Y-117778340D01*
X70851082Y-117778343D01*
X70714511Y-117834912D01*
X70714498Y-117834919D01*
X70591584Y-117917048D01*
X70591580Y-117917051D01*
X70487051Y-118021580D01*
X70487048Y-118021584D01*
X70404919Y-118144498D01*
X70404912Y-118144511D01*
X70348343Y-118281082D01*
X70348340Y-118281092D01*
X70319500Y-118426079D01*
X70319500Y-118426082D01*
X70319500Y-118573918D01*
X70319500Y-118573920D01*
X70319499Y-118573920D01*
X68248904Y-118573920D01*
X68205501Y-118544919D01*
X68205492Y-118544914D01*
X68180472Y-118534551D01*
X68180470Y-118534550D01*
X68068917Y-118488343D01*
X68068907Y-118488340D01*
X67923920Y-118459500D01*
X67923918Y-118459500D01*
X67776082Y-118459500D01*
X67776080Y-118459500D01*
X67631092Y-118488340D01*
X67631082Y-118488343D01*
X67494506Y-118544914D01*
X67490736Y-118546930D01*
X67422333Y-118561170D01*
X67357090Y-118536168D01*
X67317725Y-118485022D01*
X67305087Y-118454511D01*
X67305080Y-118454498D01*
X67222951Y-118331584D01*
X67222948Y-118331580D01*
X67118419Y-118227051D01*
X67118415Y-118227048D01*
X66995501Y-118144919D01*
X66995488Y-118144912D01*
X66858917Y-118088343D01*
X66858907Y-118088340D01*
X66713920Y-118059500D01*
X66713918Y-118059500D01*
X66566082Y-118059500D01*
X66566080Y-118059500D01*
X66421092Y-118088340D01*
X66421082Y-118088343D01*
X66284511Y-118144912D01*
X66284498Y-118144919D01*
X66161584Y-118227048D01*
X66161580Y-118227051D01*
X66057051Y-118331580D01*
X66057048Y-118331584D01*
X65974919Y-118454498D01*
X65974912Y-118454511D01*
X65918343Y-118591082D01*
X65918340Y-118591091D01*
X65897033Y-118698206D01*
X65864647Y-118760116D01*
X65803931Y-118794690D01*
X65734161Y-118790949D01*
X65677490Y-118750082D01*
X65653799Y-118698204D01*
X65639645Y-118627049D01*
X65638658Y-118622087D01*
X65625819Y-118591091D01*
X65582087Y-118485511D01*
X65582080Y-118485498D01*
X65499951Y-118362584D01*
X65499948Y-118362580D01*
X65395419Y-118258051D01*
X65395415Y-118258048D01*
X65272501Y-118175919D01*
X65272488Y-118175912D01*
X65135917Y-118119343D01*
X65135907Y-118119340D01*
X64990920Y-118090500D01*
X64990918Y-118090500D01*
X64843082Y-118090500D01*
X64843081Y-118090500D01*
X64839687Y-118090834D01*
X64837927Y-118090500D01*
X64836990Y-118090500D01*
X64836990Y-118090322D01*
X64771042Y-118077810D01*
X64720335Y-118029742D01*
X64712980Y-118014882D01*
X64697087Y-117976511D01*
X64697085Y-117976508D01*
X64697084Y-117976505D01*
X64661300Y-117922951D01*
X64614954Y-117853588D01*
X64614948Y-117853580D01*
X64510419Y-117749051D01*
X64510415Y-117749048D01*
X64387501Y-117666919D01*
X64387488Y-117666912D01*
X64250917Y-117610343D01*
X64250907Y-117610340D01*
X64105920Y-117581500D01*
X64105918Y-117581500D01*
X63958082Y-117581500D01*
X63958080Y-117581500D01*
X63813092Y-117610340D01*
X63813082Y-117610343D01*
X63676511Y-117666912D01*
X63676498Y-117666919D01*
X63553584Y-117749048D01*
X63553580Y-117749051D01*
X63449051Y-117853580D01*
X63449048Y-117853584D01*
X63366919Y-117976498D01*
X63366912Y-117976511D01*
X63310343Y-118113082D01*
X63310340Y-118113092D01*
X63281500Y-118258079D01*
X63281500Y-118258082D01*
X63281500Y-118405918D01*
X63281500Y-118405920D01*
X63281499Y-118405920D01*
X52622518Y-118405920D01*
X52607052Y-118328170D01*
X52607051Y-118328169D01*
X52607051Y-118328165D01*
X52578009Y-118258051D01*
X52531635Y-118146092D01*
X52531628Y-118146079D01*
X52422139Y-117982218D01*
X52422136Y-117982214D01*
X52282785Y-117842863D01*
X52282781Y-117842860D01*
X52118920Y-117733371D01*
X52118907Y-117733364D01*
X51936839Y-117657950D01*
X51936829Y-117657947D01*
X51743543Y-117619500D01*
X51743541Y-117619500D01*
X51546459Y-117619500D01*
X51546457Y-117619500D01*
X51353170Y-117657947D01*
X51353160Y-117657950D01*
X51171092Y-117733364D01*
X51171079Y-117733371D01*
X51007218Y-117842860D01*
X51007214Y-117842863D01*
X50867863Y-117982214D01*
X50867860Y-117982218D01*
X50758371Y-118146079D01*
X50758364Y-118146092D01*
X50682950Y-118328160D01*
X50682947Y-118328170D01*
X50644500Y-118521456D01*
X50644500Y-118521459D01*
X50644500Y-118718541D01*
X50644500Y-118718543D01*
X50644499Y-118718543D01*
X49425500Y-118718543D01*
X49425500Y-114413920D01*
X60489499Y-114413920D01*
X60518340Y-114558907D01*
X60518343Y-114558917D01*
X60574912Y-114695488D01*
X60574919Y-114695501D01*
X60657048Y-114818415D01*
X60657051Y-114818419D01*
X60761580Y-114922948D01*
X60761584Y-114922951D01*
X60884498Y-115005080D01*
X60884511Y-115005087D01*
X60979690Y-115044511D01*
X61021087Y-115061658D01*
X61021091Y-115061658D01*
X61021092Y-115061659D01*
X61166079Y-115090500D01*
X61166082Y-115090500D01*
X61313920Y-115090500D01*
X61411462Y-115071096D01*
X61458913Y-115061658D01*
X61595495Y-115005084D01*
X61718416Y-114922951D01*
X61822951Y-114818416D01*
X61905084Y-114695495D01*
X61961658Y-114558913D01*
X61982311Y-114455087D01*
X61990500Y-114413920D01*
X61990500Y-114266079D01*
X61961659Y-114121092D01*
X61961658Y-114121091D01*
X61961658Y-114121087D01*
X61947558Y-114087047D01*
X61905087Y-113984511D01*
X61905080Y-113984498D01*
X61822951Y-113861584D01*
X61822948Y-113861580D01*
X61812324Y-113850956D01*
X61778839Y-113789633D01*
X61783823Y-113719941D01*
X61825695Y-113664008D01*
X61831087Y-113660191D01*
X61840428Y-113653951D01*
X61944963Y-113549416D01*
X62027096Y-113426495D01*
X62083670Y-113289913D01*
X62100153Y-113207048D01*
X62112512Y-113144920D01*
X62112512Y-112997079D01*
X62083671Y-112852092D01*
X62083670Y-112852091D01*
X62083670Y-112852087D01*
X62083668Y-112852082D01*
X62027099Y-112715511D01*
X62027092Y-112715498D01*
X61944963Y-112592584D01*
X61944960Y-112592580D01*
X61840431Y-112488051D01*
X61840427Y-112488048D01*
X61717513Y-112405919D01*
X61717500Y-112405912D01*
X61580929Y-112349343D01*
X61580919Y-112349340D01*
X61435932Y-112320500D01*
X61435930Y-112320500D01*
X61288094Y-112320500D01*
X61288092Y-112320500D01*
X61143104Y-112349340D01*
X61143094Y-112349343D01*
X61006523Y-112405912D01*
X61006510Y-112405919D01*
X60883596Y-112488048D01*
X60883592Y-112488051D01*
X60779063Y-112592580D01*
X60779060Y-112592584D01*
X60696931Y-112715498D01*
X60696924Y-112715511D01*
X60640355Y-112852082D01*
X60640352Y-112852092D01*
X60611512Y-112997079D01*
X60611512Y-112997082D01*
X60611512Y-113144918D01*
X60611512Y-113144920D01*
X60611511Y-113144920D01*
X60640352Y-113289907D01*
X60640355Y-113289917D01*
X60696924Y-113426488D01*
X60696931Y-113426501D01*
X60779060Y-113549415D01*
X60779062Y-113549418D01*
X60789684Y-113560039D01*
X60823171Y-113621361D01*
X60818189Y-113691053D01*
X60776320Y-113746988D01*
X60770901Y-113750822D01*
X60761588Y-113757045D01*
X60761580Y-113757051D01*
X60657051Y-113861580D01*
X60657048Y-113861584D01*
X60574919Y-113984498D01*
X60574912Y-113984511D01*
X60518343Y-114121082D01*
X60518340Y-114121092D01*
X60489500Y-114266079D01*
X60489500Y-114266082D01*
X60489500Y-114413918D01*
X60489500Y-114413920D01*
X60489499Y-114413920D01*
X49425500Y-114413920D01*
X49425500Y-113098583D01*
X49443683Y-113033940D01*
X49483145Y-112969342D01*
X49858386Y-112355088D01*
X49860627Y-112351556D01*
X49869279Y-112338415D01*
X50388960Y-111549084D01*
X50391283Y-111545683D01*
X50946467Y-110761574D01*
X50948945Y-110758200D01*
X51329134Y-110258048D01*
X51530346Y-109993345D01*
X51532896Y-109990107D01*
X51554238Y-109963920D01*
X63409499Y-109963920D01*
X63438340Y-110108907D01*
X63438343Y-110108917D01*
X63494912Y-110245488D01*
X63494919Y-110245501D01*
X63577048Y-110368415D01*
X63577051Y-110368419D01*
X63681580Y-110472948D01*
X63681584Y-110472951D01*
X63804498Y-110555080D01*
X63804511Y-110555087D01*
X63940860Y-110611564D01*
X63941087Y-110611658D01*
X63941091Y-110611658D01*
X63941092Y-110611659D01*
X64086079Y-110640500D01*
X64086082Y-110640500D01*
X64123719Y-110640500D01*
X64190758Y-110660185D01*
X64236513Y-110712989D01*
X64238280Y-110717048D01*
X64274912Y-110805488D01*
X64274919Y-110805501D01*
X64349585Y-110917246D01*
X64370463Y-110983924D01*
X64351978Y-111051304D01*
X64300000Y-111097994D01*
X64240010Y-111108543D01*
X64240010Y-111109500D01*
X64234572Y-111109500D01*
X64234339Y-111109541D01*
X64233922Y-111109500D01*
X64233918Y-111109500D01*
X64086082Y-111109500D01*
X64086080Y-111109500D01*
X63941092Y-111138340D01*
X63941082Y-111138343D01*
X63804511Y-111194912D01*
X63804498Y-111194919D01*
X63681584Y-111277048D01*
X63681580Y-111277051D01*
X63577051Y-111381580D01*
X63577048Y-111381584D01*
X63494919Y-111504498D01*
X63494912Y-111504511D01*
X63438343Y-111641082D01*
X63438340Y-111641092D01*
X63409500Y-111786079D01*
X63409500Y-111786082D01*
X63409500Y-111933918D01*
X63409500Y-111933920D01*
X63409499Y-111933920D01*
X63438340Y-112078907D01*
X63438343Y-112078917D01*
X63494912Y-112215488D01*
X63494919Y-112215501D01*
X63577048Y-112338415D01*
X63577051Y-112338419D01*
X63681581Y-112442949D01*
X63681584Y-112442951D01*
X63750236Y-112488823D01*
X63795040Y-112542433D01*
X63803749Y-112611758D01*
X63773595Y-112674786D01*
X63769027Y-112679605D01*
X63667048Y-112781584D01*
X63584919Y-112904498D01*
X63584912Y-112904511D01*
X63528343Y-113041082D01*
X63528340Y-113041092D01*
X63499500Y-113186079D01*
X63499500Y-113186082D01*
X63499500Y-113333918D01*
X63499500Y-113333920D01*
X63499499Y-113333920D01*
X63528340Y-113478907D01*
X63528343Y-113478917D01*
X63584912Y-113615488D01*
X63584919Y-113615501D01*
X63667048Y-113738415D01*
X63667051Y-113738419D01*
X63771580Y-113842948D01*
X63771584Y-113842951D01*
X63894498Y-113925080D01*
X63894511Y-113925087D01*
X64031082Y-113981656D01*
X64031087Y-113981658D01*
X64031091Y-113981658D01*
X64031092Y-113981659D01*
X64176079Y-114010500D01*
X64182142Y-114011097D01*
X64181947Y-114013068D01*
X64240241Y-114030185D01*
X64285996Y-114082989D01*
X64287763Y-114087047D01*
X64311971Y-114145492D01*
X64311976Y-114145501D01*
X64394105Y-114268415D01*
X64394108Y-114268419D01*
X64498637Y-114372948D01*
X64498641Y-114372951D01*
X64621555Y-114455080D01*
X64621568Y-114455087D01*
X64758139Y-114511656D01*
X64758144Y-114511658D01*
X64818994Y-114523762D01*
X64880905Y-114556146D01*
X64915479Y-114616862D01*
X64911740Y-114686631D01*
X64870874Y-114743304D01*
X64818996Y-114766996D01*
X64698091Y-114791046D01*
X64698082Y-114791049D01*
X64561511Y-114847618D01*
X64561498Y-114847625D01*
X64438584Y-114929754D01*
X64438580Y-114929757D01*
X64334051Y-115034286D01*
X64334048Y-115034290D01*
X64251919Y-115157204D01*
X64251912Y-115157217D01*
X64195343Y-115293788D01*
X64195340Y-115293798D01*
X64166500Y-115438785D01*
X64166500Y-115438788D01*
X64166500Y-115586624D01*
X64166500Y-115586626D01*
X64166499Y-115586626D01*
X64195340Y-115731613D01*
X64195343Y-115731623D01*
X64235637Y-115828901D01*
X64243106Y-115898370D01*
X64235637Y-115923805D01*
X64195343Y-116021082D01*
X64195340Y-116021092D01*
X64166500Y-116166079D01*
X64166500Y-116166082D01*
X64166500Y-116313918D01*
X64166500Y-116313920D01*
X64166499Y-116313920D01*
X64195340Y-116458907D01*
X64195343Y-116458917D01*
X64251912Y-116595488D01*
X64251919Y-116595501D01*
X64334048Y-116718415D01*
X64334051Y-116718419D01*
X64438580Y-116822948D01*
X64438584Y-116822951D01*
X64561498Y-116905080D01*
X64561511Y-116905087D01*
X64660997Y-116946295D01*
X64698087Y-116961658D01*
X64698091Y-116961658D01*
X64698092Y-116961659D01*
X64843079Y-116990500D01*
X64843082Y-116990500D01*
X64990920Y-116990500D01*
X65111596Y-116966495D01*
X65135913Y-116961658D01*
X65272495Y-116905084D01*
X65395416Y-116822951D01*
X65499951Y-116718416D01*
X65582084Y-116595495D01*
X65628081Y-116484447D01*
X65671921Y-116430044D01*
X65738215Y-116407979D01*
X65805915Y-116425258D01*
X65853526Y-116476395D01*
X65857203Y-116484448D01*
X65894912Y-116575488D01*
X65894919Y-116575501D01*
X65977048Y-116698415D01*
X65977051Y-116698419D01*
X66081580Y-116802948D01*
X66081584Y-116802951D01*
X66204498Y-116885080D01*
X66204511Y-116885087D01*
X66318970Y-116932497D01*
X66341087Y-116941658D01*
X66341091Y-116941658D01*
X66341092Y-116941659D01*
X66486079Y-116970500D01*
X66486082Y-116970500D01*
X66633920Y-116970500D01*
X66753490Y-116946715D01*
X66778913Y-116941658D01*
X66915495Y-116885084D01*
X67021967Y-116813941D01*
X67088643Y-116793064D01*
X67156023Y-116811548D01*
X67202714Y-116863527D01*
X67213890Y-116932497D01*
X67196715Y-116978556D01*
X67197789Y-116979130D01*
X67194912Y-116984511D01*
X67138343Y-117121082D01*
X67138340Y-117121092D01*
X67109500Y-117266079D01*
X67109500Y-117266082D01*
X67109500Y-117413918D01*
X67109500Y-117413920D01*
X67109499Y-117413920D01*
X67138340Y-117558907D01*
X67138343Y-117558917D01*
X67194912Y-117695488D01*
X67194919Y-117695501D01*
X67277048Y-117818415D01*
X67277051Y-117818419D01*
X67381580Y-117922948D01*
X67381584Y-117922951D01*
X67504498Y-118005080D01*
X67504511Y-118005087D01*
X67635877Y-118059500D01*
X67641087Y-118061658D01*
X67641091Y-118061658D01*
X67641092Y-118061659D01*
X67786079Y-118090500D01*
X67786082Y-118090500D01*
X67933920Y-118090500D01*
X68031462Y-118071096D01*
X68078913Y-118061658D01*
X68184547Y-118017902D01*
X68215488Y-118005087D01*
X68215488Y-118005086D01*
X68215495Y-118005084D01*
X68338416Y-117922951D01*
X68442951Y-117818416D01*
X68525084Y-117695495D01*
X68526309Y-117692539D01*
X68581656Y-117558917D01*
X68581658Y-117558913D01*
X68610500Y-117413918D01*
X68610500Y-117266082D01*
X68610500Y-117266079D01*
X68581659Y-117121092D01*
X68581658Y-117121091D01*
X68581658Y-117121087D01*
X68576258Y-117108051D01*
X68525087Y-116984511D01*
X68525080Y-116984498D01*
X68442951Y-116861584D01*
X68442948Y-116861580D01*
X68338419Y-116757051D01*
X68338415Y-116757048D01*
X68215501Y-116674919D01*
X68215488Y-116674912D01*
X68078917Y-116618343D01*
X68078907Y-116618340D01*
X67933920Y-116589500D01*
X67933918Y-116589500D01*
X67786082Y-116589500D01*
X67786080Y-116589500D01*
X67641092Y-116618340D01*
X67641082Y-116618343D01*
X67504511Y-116674912D01*
X67504500Y-116674918D01*
X67398032Y-116746058D01*
X67331355Y-116766935D01*
X67263975Y-116748450D01*
X67217285Y-116696471D01*
X67206109Y-116627501D01*
X67223290Y-116581447D01*
X67222211Y-116580870D01*
X67225080Y-116575500D01*
X67225084Y-116575495D01*
X67281658Y-116438913D01*
X67291487Y-116389500D01*
X67310500Y-116293920D01*
X67310500Y-116146079D01*
X67281659Y-116001092D01*
X67281658Y-116001091D01*
X67281658Y-116001087D01*
X67258807Y-115945919D01*
X67225087Y-115864511D01*
X67225080Y-115864498D01*
X67142951Y-115741584D01*
X67142948Y-115741580D01*
X67038419Y-115637051D01*
X67038413Y-115637046D01*
X67023902Y-115627350D01*
X66979097Y-115573737D01*
X66970391Y-115504412D01*
X67000547Y-115441385D01*
X67023904Y-115421146D01*
X67025490Y-115420085D01*
X67025495Y-115420084D01*
X67148416Y-115337951D01*
X67252951Y-115233416D01*
X67335084Y-115110495D01*
X67391658Y-114973913D01*
X67402068Y-114921580D01*
X67420500Y-114828920D01*
X67420500Y-114681079D01*
X67391659Y-114536092D01*
X67391658Y-114536091D01*
X67391658Y-114536087D01*
X67381539Y-114511658D01*
X67335087Y-114399511D01*
X67335080Y-114399498D01*
X67252951Y-114276584D01*
X67252948Y-114276580D01*
X67148419Y-114172051D01*
X67148415Y-114172048D01*
X67025501Y-114089919D01*
X67025488Y-114089912D01*
X66888917Y-114033343D01*
X66888907Y-114033340D01*
X66743920Y-114004500D01*
X66743918Y-114004500D01*
X66596082Y-114004500D01*
X66596080Y-114004500D01*
X66451092Y-114033340D01*
X66451082Y-114033343D01*
X66314511Y-114089912D01*
X66314498Y-114089919D01*
X66191584Y-114172048D01*
X66191580Y-114172051D01*
X66087051Y-114276580D01*
X66087048Y-114276584D01*
X66004919Y-114399498D01*
X66004912Y-114399511D01*
X65948343Y-114536082D01*
X65948340Y-114536092D01*
X65919500Y-114681079D01*
X65919500Y-114681082D01*
X65919500Y-114828918D01*
X65919500Y-114828920D01*
X65919499Y-114828920D01*
X65948340Y-114973907D01*
X65948343Y-114973917D01*
X66004912Y-115110488D01*
X66004919Y-115110501D01*
X66087048Y-115233415D01*
X66087051Y-115233419D01*
X66191580Y-115337948D01*
X66191584Y-115337951D01*
X66206096Y-115347648D01*
X66250901Y-115401260D01*
X66259608Y-115470585D01*
X66229453Y-115533613D01*
X66206096Y-115553852D01*
X66081584Y-115637048D01*
X66081580Y-115637051D01*
X65977051Y-115741580D01*
X65977048Y-115741584D01*
X65894919Y-115864498D01*
X65894914Y-115864508D01*
X65848918Y-115975552D01*
X65835022Y-115992795D01*
X65825111Y-116012596D01*
X65813528Y-116019467D01*
X65805077Y-116029956D01*
X65784064Y-116036949D01*
X65765021Y-116048248D01*
X65751560Y-116047767D01*
X65738782Y-116052020D01*
X65717327Y-116046543D01*
X65695196Y-116045753D01*
X65684131Y-116038070D01*
X65671083Y-116034740D01*
X65655995Y-116018535D01*
X65637804Y-116005904D01*
X65626504Y-115986859D01*
X65623473Y-115983603D01*
X65619805Y-115975573D01*
X65598361Y-115923803D01*
X65590895Y-115854335D01*
X65598363Y-115828901D01*
X65638656Y-115731623D01*
X65638658Y-115731619D01*
X65654487Y-115652042D01*
X65667500Y-115586626D01*
X65667500Y-115438785D01*
X65638659Y-115293798D01*
X65638658Y-115293797D01*
X65638658Y-115293793D01*
X65638656Y-115293788D01*
X65582087Y-115157217D01*
X65582080Y-115157204D01*
X65499951Y-115034290D01*
X65499948Y-115034286D01*
X65395419Y-114929757D01*
X65395415Y-114929754D01*
X65272501Y-114847625D01*
X65272488Y-114847618D01*
X65135917Y-114791049D01*
X65135907Y-114791046D01*
X65075061Y-114778943D01*
X65013150Y-114746558D01*
X64978576Y-114685842D01*
X64982317Y-114616072D01*
X65023183Y-114559401D01*
X65075061Y-114535709D01*
X65126393Y-114525498D01*
X65195970Y-114511658D01*
X65332552Y-114455084D01*
X65455473Y-114372951D01*
X65560008Y-114268416D01*
X65642141Y-114145495D01*
X65698715Y-114008913D01*
X65712788Y-113938164D01*
X65727557Y-113863920D01*
X65727557Y-113764920D01*
X70321511Y-113764920D01*
X70350352Y-113909907D01*
X70350355Y-113909917D01*
X70406924Y-114046488D01*
X70406931Y-114046501D01*
X70489060Y-114169415D01*
X70489063Y-114169419D01*
X70593592Y-114273948D01*
X70593596Y-114273951D01*
X70716510Y-114356080D01*
X70716523Y-114356087D01*
X70821359Y-114399511D01*
X70853099Y-114412658D01*
X70853103Y-114412658D01*
X70853104Y-114412659D01*
X70998091Y-114441500D01*
X70998094Y-114441500D01*
X71145932Y-114441500D01*
X71243474Y-114422096D01*
X71290925Y-114412658D01*
X71424559Y-114357304D01*
X71494029Y-114349836D01*
X71519464Y-114357304D01*
X71653099Y-114412658D01*
X71653103Y-114412658D01*
X71653104Y-114412659D01*
X71798091Y-114441500D01*
X71798094Y-114441500D01*
X71945932Y-114441500D01*
X72043474Y-114422096D01*
X72090925Y-114412658D01*
X72224559Y-114357304D01*
X72294029Y-114349836D01*
X72319464Y-114357304D01*
X72453099Y-114412658D01*
X72453103Y-114412658D01*
X72453104Y-114412659D01*
X72598091Y-114441500D01*
X72598094Y-114441500D01*
X72745932Y-114441500D01*
X72843474Y-114422096D01*
X72890925Y-114412658D01*
X73027507Y-114356084D01*
X73150428Y-114273951D01*
X73254963Y-114169416D01*
X73337096Y-114046495D01*
X73352663Y-114008913D01*
X73357451Y-113997354D01*
X73401291Y-113942950D01*
X73467585Y-113920885D01*
X73535285Y-113938164D01*
X73582896Y-113989301D01*
X73586573Y-113997354D01*
X73606924Y-114046488D01*
X73606931Y-114046501D01*
X73689060Y-114169415D01*
X73689063Y-114169419D01*
X73793592Y-114273948D01*
X73793596Y-114273951D01*
X73916510Y-114356080D01*
X73916523Y-114356087D01*
X74021359Y-114399511D01*
X74053099Y-114412658D01*
X74053103Y-114412658D01*
X74053104Y-114412659D01*
X74109527Y-114423883D01*
X74171438Y-114456268D01*
X74206012Y-114516984D01*
X74202271Y-114586754D01*
X74161405Y-114643425D01*
X74109527Y-114667117D01*
X74053104Y-114678340D01*
X74053094Y-114678343D01*
X73916523Y-114734912D01*
X73916510Y-114734919D01*
X73793596Y-114817048D01*
X73793592Y-114817051D01*
X73689063Y-114921580D01*
X73689060Y-114921584D01*
X73606931Y-115044498D01*
X73606924Y-115044511D01*
X73550355Y-115181082D01*
X73550352Y-115181092D01*
X73521512Y-115326079D01*
X73521512Y-115326082D01*
X73521512Y-115473918D01*
X73521512Y-115473920D01*
X73521511Y-115473920D01*
X73550352Y-115618907D01*
X73550355Y-115618917D01*
X73606924Y-115755488D01*
X73606931Y-115755501D01*
X73689060Y-115878415D01*
X73689063Y-115878419D01*
X73793592Y-115982948D01*
X73793596Y-115982951D01*
X73916510Y-116065080D01*
X73916523Y-116065087D01*
X74053094Y-116121656D01*
X74053099Y-116121658D01*
X74053103Y-116121658D01*
X74053104Y-116121659D01*
X74198091Y-116150500D01*
X74198094Y-116150500D01*
X74345932Y-116150500D01*
X74443474Y-116131096D01*
X74490925Y-116121658D01*
X74627507Y-116065084D01*
X74750428Y-115982951D01*
X74854963Y-115878416D01*
X74937096Y-115755495D01*
X74991596Y-115623920D01*
X78309499Y-115623920D01*
X78338340Y-115768907D01*
X78338342Y-115768913D01*
X78394912Y-115905488D01*
X78394919Y-115905501D01*
X78477048Y-116028415D01*
X78477051Y-116028419D01*
X78581580Y-116132948D01*
X78581584Y-116132951D01*
X78704498Y-116215080D01*
X78704511Y-116215087D01*
X78841082Y-116271656D01*
X78841087Y-116271658D01*
X78841091Y-116271658D01*
X78841092Y-116271659D01*
X78986079Y-116300500D01*
X78986082Y-116300500D01*
X79133920Y-116300500D01*
X79231462Y-116281096D01*
X79278913Y-116271658D01*
X79415495Y-116215084D01*
X79538416Y-116132951D01*
X79642951Y-116028416D01*
X79725084Y-115905495D01*
X79736301Y-115878416D01*
X79781658Y-115768913D01*
X79781659Y-115768907D01*
X79810500Y-115623920D01*
X79810500Y-115476079D01*
X79781659Y-115331092D01*
X79781658Y-115331091D01*
X79781658Y-115331087D01*
X79768144Y-115298461D01*
X79725087Y-115194511D01*
X79725080Y-115194498D01*
X79642951Y-115071584D01*
X79642948Y-115071580D01*
X79575672Y-115004304D01*
X80109883Y-115004304D01*
X80138724Y-115149291D01*
X80138727Y-115149301D01*
X80195296Y-115285872D01*
X80195303Y-115285885D01*
X80277432Y-115408799D01*
X80277435Y-115408803D01*
X80381964Y-115513332D01*
X80381968Y-115513335D01*
X80504882Y-115595464D01*
X80504895Y-115595471D01*
X80605279Y-115637051D01*
X80641471Y-115652042D01*
X80641475Y-115652042D01*
X80641476Y-115652043D01*
X80786463Y-115680884D01*
X80786466Y-115680884D01*
X80934304Y-115680884D01*
X81031846Y-115661480D01*
X81079297Y-115652042D01*
X81212741Y-115596767D01*
X81282208Y-115589299D01*
X81307639Y-115596766D01*
X81441087Y-115652042D01*
X81441091Y-115652042D01*
X81441092Y-115652043D01*
X81586079Y-115680884D01*
X81586082Y-115680884D01*
X81733920Y-115680884D01*
X81831462Y-115661480D01*
X81878913Y-115652042D01*
X82015495Y-115595468D01*
X82138416Y-115513335D01*
X82242951Y-115408800D01*
X82325084Y-115285879D01*
X82381658Y-115149297D01*
X82396646Y-115073948D01*
X82410500Y-115004304D01*
X82410500Y-114856463D01*
X82381658Y-114711471D01*
X82368686Y-114680153D01*
X91234500Y-114680153D01*
X91234500Y-114837846D01*
X91265261Y-114992489D01*
X91265264Y-114992501D01*
X91325602Y-115138172D01*
X91325609Y-115138185D01*
X91413210Y-115269288D01*
X91413213Y-115269292D01*
X91524707Y-115380786D01*
X91524711Y-115380789D01*
X91655814Y-115468390D01*
X91655827Y-115468397D01*
X91764319Y-115513335D01*
X91801503Y-115528737D01*
X91927764Y-115553852D01*
X91956153Y-115559499D01*
X91956156Y-115559500D01*
X91956158Y-115559500D01*
X92113844Y-115559500D01*
X92113845Y-115559499D01*
X92268497Y-115528737D01*
X92400843Y-115473918D01*
X92414172Y-115468397D01*
X92414172Y-115468396D01*
X92414179Y-115468394D01*
X92545289Y-115380789D01*
X92656789Y-115269289D01*
X92744394Y-115138179D01*
X92804737Y-114992497D01*
X92835500Y-114837842D01*
X92835500Y-114680158D01*
X92835500Y-114680155D01*
X92835499Y-114680153D01*
X92828193Y-114643425D01*
X92804737Y-114525503D01*
X92799002Y-114511658D01*
X92744397Y-114379827D01*
X92744390Y-114379814D01*
X92656789Y-114248711D01*
X92656786Y-114248707D01*
X92545292Y-114137213D01*
X92545288Y-114137210D01*
X92414185Y-114049609D01*
X92414172Y-114049602D01*
X92268501Y-113989264D01*
X92268489Y-113989261D01*
X92113845Y-113958500D01*
X92113842Y-113958500D01*
X91956158Y-113958500D01*
X91956155Y-113958500D01*
X91801510Y-113989261D01*
X91801498Y-113989264D01*
X91655827Y-114049602D01*
X91655814Y-114049609D01*
X91524711Y-114137210D01*
X91524707Y-114137213D01*
X91413213Y-114248707D01*
X91413210Y-114248711D01*
X91325609Y-114379814D01*
X91325602Y-114379827D01*
X91265264Y-114525498D01*
X91265261Y-114525510D01*
X91234500Y-114680153D01*
X82368686Y-114680153D01*
X82325087Y-114574895D01*
X82325080Y-114574882D01*
X82242951Y-114451968D01*
X82242948Y-114451964D01*
X82138419Y-114347435D01*
X82138415Y-114347432D01*
X82015501Y-114265303D01*
X82015488Y-114265296D01*
X81878917Y-114208727D01*
X81878907Y-114208724D01*
X81733920Y-114179884D01*
X81733918Y-114179884D01*
X81586082Y-114179884D01*
X81586080Y-114179884D01*
X81441092Y-114208724D01*
X81441082Y-114208727D01*
X81307644Y-114263999D01*
X81238175Y-114271468D01*
X81212740Y-114263999D01*
X81079301Y-114208727D01*
X81079291Y-114208724D01*
X80934304Y-114179884D01*
X80934302Y-114179884D01*
X80786466Y-114179884D01*
X80786464Y-114179884D01*
X80641476Y-114208724D01*
X80641466Y-114208727D01*
X80504895Y-114265296D01*
X80504882Y-114265303D01*
X80381968Y-114347432D01*
X80381964Y-114347435D01*
X80277435Y-114451964D01*
X80277432Y-114451968D01*
X80195303Y-114574882D01*
X80195296Y-114574895D01*
X80138727Y-114711466D01*
X80138724Y-114711476D01*
X80109884Y-114856463D01*
X80109884Y-114856466D01*
X80109884Y-115004302D01*
X80109884Y-115004304D01*
X80109883Y-115004304D01*
X79575672Y-115004304D01*
X79538416Y-114967048D01*
X79518103Y-114953476D01*
X79415501Y-114884919D01*
X79415488Y-114884912D01*
X79278917Y-114828343D01*
X79278907Y-114828340D01*
X79133920Y-114799500D01*
X79133918Y-114799500D01*
X78986082Y-114799500D01*
X78986080Y-114799500D01*
X78841092Y-114828340D01*
X78841082Y-114828343D01*
X78704511Y-114884912D01*
X78704498Y-114884919D01*
X78581584Y-114967048D01*
X78581580Y-114967051D01*
X78477051Y-115071580D01*
X78477048Y-115071584D01*
X78394919Y-115194498D01*
X78394912Y-115194511D01*
X78338343Y-115331082D01*
X78338340Y-115331092D01*
X78309500Y-115476079D01*
X78309500Y-115476082D01*
X78309500Y-115623918D01*
X78309500Y-115623920D01*
X78309499Y-115623920D01*
X74991596Y-115623920D01*
X74993670Y-115618913D01*
X75005488Y-115559500D01*
X75022512Y-115473920D01*
X75022512Y-115365500D01*
X75042197Y-115298461D01*
X75095001Y-115252706D01*
X75139951Y-115242927D01*
X75139870Y-115242097D01*
X75145932Y-115241500D01*
X75243474Y-115222096D01*
X75290925Y-115212658D01*
X75427507Y-115156084D01*
X75550428Y-115073951D01*
X75654963Y-114969416D01*
X75737096Y-114846495D01*
X75744616Y-114828340D01*
X75757451Y-114797354D01*
X75801291Y-114742950D01*
X75867585Y-114720885D01*
X75935285Y-114738164D01*
X75982896Y-114789301D01*
X75986573Y-114797354D01*
X76006924Y-114846488D01*
X76006931Y-114846501D01*
X76089060Y-114969415D01*
X76089063Y-114969419D01*
X76193592Y-115073948D01*
X76193596Y-115073951D01*
X76316510Y-115156080D01*
X76316523Y-115156087D01*
X76409288Y-115194511D01*
X76453099Y-115212658D01*
X76453103Y-115212658D01*
X76453104Y-115212659D01*
X76598091Y-115241500D01*
X76598094Y-115241500D01*
X76745932Y-115241500D01*
X76843474Y-115222096D01*
X76890925Y-115212658D01*
X77027507Y-115156084D01*
X77150428Y-115073951D01*
X77254963Y-114969416D01*
X77337096Y-114846495D01*
X77393670Y-114709913D01*
X77406896Y-114643425D01*
X77422512Y-114564920D01*
X77422512Y-114417079D01*
X77393671Y-114272092D01*
X77393670Y-114272091D01*
X77393670Y-114272087D01*
X77338316Y-114138452D01*
X77330848Y-114068983D01*
X77338317Y-114043547D01*
X77351758Y-114011097D01*
X77393670Y-113909913D01*
X77406990Y-113842951D01*
X77422512Y-113764920D01*
X77422512Y-113617079D01*
X77393671Y-113472092D01*
X77393670Y-113472091D01*
X77393670Y-113472087D01*
X77378100Y-113434498D01*
X77337099Y-113335511D01*
X77337092Y-113335498D01*
X77254963Y-113212584D01*
X77254960Y-113212580D01*
X77150431Y-113108051D01*
X77150427Y-113108048D01*
X77022442Y-113022531D01*
X77023435Y-113021044D01*
X76979609Y-112978002D01*
X76964140Y-112909866D01*
X76987964Y-112844184D01*
X77031326Y-112810202D01*
X77030125Y-112807954D01*
X77035488Y-112805086D01*
X77035495Y-112805084D01*
X77158416Y-112722951D01*
X77262951Y-112618416D01*
X77345084Y-112495495D01*
X77346801Y-112491351D01*
X77379428Y-112412580D01*
X77401658Y-112358913D01*
X77411776Y-112308048D01*
X77430500Y-112213920D01*
X77431097Y-112207858D01*
X77433095Y-112208054D01*
X77450185Y-112149856D01*
X77502989Y-112104101D01*
X77530308Y-112095278D01*
X77590893Y-112083226D01*
X77623913Y-112076658D01*
X77760495Y-112020084D01*
X77883416Y-111937951D01*
X77987951Y-111833416D01*
X78070084Y-111710495D01*
X78126658Y-111573913D01*
X78136737Y-111523244D01*
X78169121Y-111461333D01*
X78229837Y-111426759D01*
X78282544Y-111425818D01*
X78306082Y-111430500D01*
X78306083Y-111430500D01*
X78453920Y-111430500D01*
X78572153Y-111406981D01*
X78598913Y-111401658D01*
X78735495Y-111345084D01*
X78858416Y-111262951D01*
X78962951Y-111158416D01*
X79045084Y-111035495D01*
X79095028Y-110914920D01*
X82169499Y-110914920D01*
X82198340Y-111059907D01*
X82198343Y-111059917D01*
X82254912Y-111196488D01*
X82254919Y-111196501D01*
X82305983Y-111272923D01*
X82326861Y-111339601D01*
X82308376Y-111406981D01*
X82305984Y-111410704D01*
X82254918Y-111487129D01*
X82254912Y-111487140D01*
X82198343Y-111623711D01*
X82198340Y-111623721D01*
X82169500Y-111768708D01*
X82169500Y-111768711D01*
X82169500Y-111916547D01*
X82169500Y-111916549D01*
X82169499Y-111916549D01*
X82198340Y-112061536D01*
X82198343Y-112061546D01*
X82246109Y-112176864D01*
X82253578Y-112246333D01*
X82246109Y-112271768D01*
X82198343Y-112387085D01*
X82198340Y-112387095D01*
X82169500Y-112532082D01*
X82169500Y-112532085D01*
X82169500Y-112679921D01*
X82169500Y-112679923D01*
X82169499Y-112679923D01*
X82198340Y-112824910D01*
X82198343Y-112824920D01*
X82254912Y-112961491D01*
X82254919Y-112961504D01*
X82337048Y-113084418D01*
X82337051Y-113084422D01*
X82441580Y-113188951D01*
X82441584Y-113188954D01*
X82564498Y-113271083D01*
X82564511Y-113271090D01*
X82701082Y-113327659D01*
X82701087Y-113327661D01*
X82701091Y-113327661D01*
X82701092Y-113327662D01*
X82846079Y-113356503D01*
X82846082Y-113356503D01*
X82993920Y-113356503D01*
X83099469Y-113335507D01*
X83138913Y-113327661D01*
X83275495Y-113271087D01*
X83398416Y-113188954D01*
X83502951Y-113084419D01*
X83585084Y-112961498D01*
X83641658Y-112824916D01*
X83656377Y-112750920D01*
X84786499Y-112750920D01*
X84815340Y-112895907D01*
X84815343Y-112895917D01*
X84871912Y-113032488D01*
X84871919Y-113032501D01*
X84954048Y-113155415D01*
X84954051Y-113155419D01*
X85058580Y-113259948D01*
X85058584Y-113259951D01*
X85181498Y-113342080D01*
X85181511Y-113342087D01*
X85284259Y-113384646D01*
X85318087Y-113398658D01*
X85318091Y-113398658D01*
X85318092Y-113398659D01*
X85463079Y-113427500D01*
X85463082Y-113427500D01*
X85610920Y-113427500D01*
X85708462Y-113408096D01*
X85755913Y-113398658D01*
X85892495Y-113342084D01*
X86015416Y-113259951D01*
X86119951Y-113155416D01*
X86202084Y-113032495D01*
X86258658Y-112895913D01*
X86272782Y-112824910D01*
X86287500Y-112750920D01*
X86287500Y-112603079D01*
X86258659Y-112458092D01*
X86258658Y-112458091D01*
X86258658Y-112458087D01*
X86253325Y-112445211D01*
X86202087Y-112321511D01*
X86202080Y-112321498D01*
X86119951Y-112198584D01*
X86119948Y-112198580D01*
X86015419Y-112094051D01*
X86015415Y-112094048D01*
X85892501Y-112011919D01*
X85892488Y-112011912D01*
X85755917Y-111955343D01*
X85755907Y-111955340D01*
X85610920Y-111926500D01*
X85610918Y-111926500D01*
X85463082Y-111926500D01*
X85463080Y-111926500D01*
X85318092Y-111955340D01*
X85318082Y-111955343D01*
X85181511Y-112011912D01*
X85181498Y-112011919D01*
X85058584Y-112094048D01*
X85058580Y-112094051D01*
X84954051Y-112198580D01*
X84954048Y-112198584D01*
X84871919Y-112321498D01*
X84871912Y-112321511D01*
X84815343Y-112458082D01*
X84815340Y-112458092D01*
X84786500Y-112603079D01*
X84786500Y-112603082D01*
X84786500Y-112750918D01*
X84786500Y-112750920D01*
X84786499Y-112750920D01*
X83656377Y-112750920D01*
X83670500Y-112679923D01*
X83670500Y-112532082D01*
X83641659Y-112387095D01*
X83641658Y-112387094D01*
X83641658Y-112387090D01*
X83593889Y-112271767D01*
X83586421Y-112202300D01*
X83593890Y-112176864D01*
X83641658Y-112061542D01*
X83657416Y-111982323D01*
X83670500Y-111916549D01*
X83670500Y-111768708D01*
X83641659Y-111623721D01*
X83641658Y-111623720D01*
X83641658Y-111623716D01*
X83641656Y-111623711D01*
X83585087Y-111487140D01*
X83585080Y-111487127D01*
X83534016Y-111410705D01*
X83513138Y-111344028D01*
X83531622Y-111276648D01*
X83533985Y-111272969D01*
X83585084Y-111196495D01*
X83641658Y-111059913D01*
X83656326Y-110986172D01*
X83670500Y-110914920D01*
X83670500Y-110767079D01*
X83646200Y-110644920D01*
X85831511Y-110644920D01*
X85860352Y-110789907D01*
X85860355Y-110789917D01*
X85916924Y-110926488D01*
X85916931Y-110926501D01*
X85999060Y-111049415D01*
X85999063Y-111049419D01*
X86103592Y-111153948D01*
X86103596Y-111153951D01*
X86226510Y-111236080D01*
X86226523Y-111236087D01*
X86315454Y-111272923D01*
X86363099Y-111292658D01*
X86363103Y-111292658D01*
X86363104Y-111292659D01*
X86508091Y-111321500D01*
X86508094Y-111321500D01*
X86655932Y-111321500D01*
X86753474Y-111302096D01*
X86800925Y-111292658D01*
X86937507Y-111236084D01*
X87060428Y-111153951D01*
X87164963Y-111049416D01*
X87247096Y-110926495D01*
X87303670Y-110789913D01*
X87332512Y-110644918D01*
X87332512Y-110497082D01*
X87332512Y-110497079D01*
X87303671Y-110352092D01*
X87303670Y-110352091D01*
X87303670Y-110352087D01*
X87297049Y-110336103D01*
X87247099Y-110215511D01*
X87247092Y-110215498D01*
X87164963Y-110092584D01*
X87164960Y-110092580D01*
X87060431Y-109988051D01*
X87060427Y-109988048D01*
X86937513Y-109905919D01*
X86937500Y-109905912D01*
X86800929Y-109849343D01*
X86800919Y-109849340D01*
X86655932Y-109820500D01*
X86655930Y-109820500D01*
X86508094Y-109820500D01*
X86508092Y-109820500D01*
X86363104Y-109849340D01*
X86363094Y-109849343D01*
X86226523Y-109905912D01*
X86226510Y-109905919D01*
X86103596Y-109988048D01*
X86103592Y-109988051D01*
X85999063Y-110092580D01*
X85999060Y-110092584D01*
X85916931Y-110215498D01*
X85916924Y-110215511D01*
X85860355Y-110352082D01*
X85860352Y-110352092D01*
X85831512Y-110497079D01*
X85831512Y-110497082D01*
X85831512Y-110644918D01*
X85831512Y-110644920D01*
X85831511Y-110644920D01*
X83646200Y-110644920D01*
X83641659Y-110622092D01*
X83641658Y-110622091D01*
X83641658Y-110622087D01*
X83637338Y-110611658D01*
X83607012Y-110538442D01*
X83585085Y-110485508D01*
X83585084Y-110485505D01*
X83585082Y-110485502D01*
X83585080Y-110485498D01*
X83502951Y-110362584D01*
X83502948Y-110362580D01*
X83398419Y-110258051D01*
X83398415Y-110258048D01*
X83275501Y-110175919D01*
X83275488Y-110175912D01*
X83138917Y-110119343D01*
X83138907Y-110119340D01*
X82993920Y-110090500D01*
X82993918Y-110090500D01*
X82846082Y-110090500D01*
X82846080Y-110090500D01*
X82701092Y-110119340D01*
X82701082Y-110119343D01*
X82564511Y-110175912D01*
X82564498Y-110175919D01*
X82441584Y-110258048D01*
X82441580Y-110258051D01*
X82337051Y-110362580D01*
X82337048Y-110362584D01*
X82254919Y-110485498D01*
X82254912Y-110485511D01*
X82198343Y-110622082D01*
X82198340Y-110622092D01*
X82169500Y-110767079D01*
X82169500Y-110767082D01*
X82169500Y-110914918D01*
X82169500Y-110914920D01*
X82169499Y-110914920D01*
X79095028Y-110914920D01*
X79101658Y-110898913D01*
X79130500Y-110753918D01*
X79130500Y-110606082D01*
X79130500Y-110606079D01*
X79101659Y-110461092D01*
X79101658Y-110461091D01*
X79101658Y-110461087D01*
X79063274Y-110368419D01*
X79045087Y-110324511D01*
X79045080Y-110324498D01*
X78962951Y-110201584D01*
X78962948Y-110201580D01*
X78858419Y-110097051D01*
X78858415Y-110097048D01*
X78735501Y-110014919D01*
X78735488Y-110014912D01*
X78598917Y-109958343D01*
X78598907Y-109958340D01*
X78453920Y-109929500D01*
X78453918Y-109929500D01*
X78306082Y-109929500D01*
X78306080Y-109929500D01*
X78161092Y-109958340D01*
X78161082Y-109958343D01*
X78024511Y-110014912D01*
X78024498Y-110014919D01*
X77901584Y-110097048D01*
X77901580Y-110097051D01*
X77797051Y-110201580D01*
X77797048Y-110201584D01*
X77714919Y-110324498D01*
X77714912Y-110324511D01*
X77658343Y-110461082D01*
X77658340Y-110461091D01*
X77648262Y-110511757D01*
X77615876Y-110573668D01*
X77555160Y-110608241D01*
X77526645Y-110611564D01*
X77514430Y-110611564D01*
X77478918Y-110604500D01*
X77331082Y-110604500D01*
X77295570Y-110611564D01*
X77283354Y-110611564D01*
X77261079Y-110605023D01*
X77237953Y-110602954D01*
X77228182Y-110595363D01*
X77216315Y-110591879D01*
X77201113Y-110574335D01*
X77182776Y-110560090D01*
X77176726Y-110546191D01*
X77170560Y-110539075D01*
X77169046Y-110528547D01*
X77161737Y-110511755D01*
X77151659Y-110461094D01*
X77151659Y-110461092D01*
X77151658Y-110461087D01*
X77113274Y-110368419D01*
X77095087Y-110324511D01*
X77095080Y-110324498D01*
X77012951Y-110201584D01*
X77012948Y-110201580D01*
X76908419Y-110097051D01*
X76908415Y-110097048D01*
X76785501Y-110014919D01*
X76785488Y-110014912D01*
X76648917Y-109958343D01*
X76648907Y-109958340D01*
X76503920Y-109929500D01*
X76503918Y-109929500D01*
X76356082Y-109929500D01*
X76356080Y-109929500D01*
X76211092Y-109958340D01*
X76211082Y-109958343D01*
X76074511Y-110014912D01*
X76074498Y-110014919D01*
X75951584Y-110097048D01*
X75951580Y-110097051D01*
X75847051Y-110201580D01*
X75847048Y-110201584D01*
X75764919Y-110324498D01*
X75764912Y-110324511D01*
X75708343Y-110461082D01*
X75708340Y-110461092D01*
X75679500Y-110606079D01*
X75679500Y-110606082D01*
X75679500Y-110753918D01*
X75679500Y-110753920D01*
X75679499Y-110753920D01*
X75708340Y-110898907D01*
X75708343Y-110898917D01*
X75764912Y-111035488D01*
X75764919Y-111035501D01*
X75847048Y-111158415D01*
X75847051Y-111158419D01*
X75951580Y-111262948D01*
X75951584Y-111262951D01*
X76074498Y-111345080D01*
X76074511Y-111345087D01*
X76142791Y-111373369D01*
X76197195Y-111417209D01*
X76219260Y-111483503D01*
X76201981Y-111551203D01*
X76183021Y-111575611D01*
X76097048Y-111661584D01*
X76014919Y-111784498D01*
X76014912Y-111784511D01*
X75958343Y-111921082D01*
X75958340Y-111921092D01*
X75934550Y-112040692D01*
X75902165Y-112102603D01*
X75841449Y-112137177D01*
X75812933Y-112140500D01*
X75798092Y-112140500D01*
X75653104Y-112169340D01*
X75653094Y-112169343D01*
X75519464Y-112224694D01*
X75449994Y-112232163D01*
X75424560Y-112224694D01*
X75290929Y-112169343D01*
X75290919Y-112169340D01*
X75145932Y-112140500D01*
X75145930Y-112140500D01*
X74998094Y-112140500D01*
X74998092Y-112140500D01*
X74853104Y-112169340D01*
X74853094Y-112169343D01*
X74716523Y-112225912D01*
X74716510Y-112225919D01*
X74593596Y-112308048D01*
X74593592Y-112308051D01*
X74489063Y-112412580D01*
X74489060Y-112412584D01*
X74406931Y-112535498D01*
X74406924Y-112535511D01*
X74350355Y-112672082D01*
X74350352Y-112672092D01*
X74321511Y-112817079D01*
X74320915Y-112823142D01*
X74319599Y-112823012D01*
X74301827Y-112883539D01*
X74249023Y-112929294D01*
X74204072Y-112939072D01*
X74204154Y-112939903D01*
X74198091Y-112940499D01*
X74053104Y-112969340D01*
X74053094Y-112969343D01*
X73916523Y-113025912D01*
X73916510Y-113025919D01*
X73793596Y-113108048D01*
X73793592Y-113108051D01*
X73689063Y-113212580D01*
X73689060Y-113212584D01*
X73606931Y-113335498D01*
X73606926Y-113335507D01*
X73586573Y-113384646D01*
X73542732Y-113439049D01*
X73476438Y-113461114D01*
X73408739Y-113443835D01*
X73361128Y-113392698D01*
X73357451Y-113384646D01*
X73337097Y-113335507D01*
X73337092Y-113335498D01*
X73254963Y-113212584D01*
X73254960Y-113212580D01*
X73150431Y-113108051D01*
X73150427Y-113108048D01*
X73027513Y-113025919D01*
X73027500Y-113025912D01*
X72890929Y-112969343D01*
X72890919Y-112969340D01*
X72745932Y-112940500D01*
X72745930Y-112940500D01*
X72598094Y-112940500D01*
X72598092Y-112940500D01*
X72453104Y-112969340D01*
X72453094Y-112969343D01*
X72319464Y-113024694D01*
X72249994Y-113032163D01*
X72224560Y-113024694D01*
X72090929Y-112969343D01*
X72090919Y-112969340D01*
X71945932Y-112940500D01*
X71945930Y-112940500D01*
X71798094Y-112940500D01*
X71798092Y-112940500D01*
X71653104Y-112969340D01*
X71653094Y-112969343D01*
X71519464Y-113024694D01*
X71449994Y-113032163D01*
X71424560Y-113024694D01*
X71290929Y-112969343D01*
X71290919Y-112969340D01*
X71145932Y-112940500D01*
X71145930Y-112940500D01*
X70998094Y-112940500D01*
X70998092Y-112940500D01*
X70853104Y-112969340D01*
X70853094Y-112969343D01*
X70716523Y-113025912D01*
X70716510Y-113025919D01*
X70593596Y-113108048D01*
X70593592Y-113108051D01*
X70489063Y-113212580D01*
X70489060Y-113212584D01*
X70406931Y-113335498D01*
X70406924Y-113335511D01*
X70350355Y-113472082D01*
X70350352Y-113472092D01*
X70321512Y-113617079D01*
X70321512Y-113617082D01*
X70321512Y-113764918D01*
X70321512Y-113764920D01*
X70321511Y-113764920D01*
X65727557Y-113764920D01*
X65727557Y-113716079D01*
X65711465Y-113635182D01*
X65698716Y-113571092D01*
X65698715Y-113571091D01*
X65698715Y-113571087D01*
X65689740Y-113549419D01*
X65642144Y-113434511D01*
X65642137Y-113434498D01*
X65560008Y-113311584D01*
X65560005Y-113311580D01*
X65455476Y-113207051D01*
X65455472Y-113207048D01*
X65332558Y-113124919D01*
X65332545Y-113124912D01*
X65195974Y-113068343D01*
X65195964Y-113068340D01*
X65050977Y-113039499D01*
X65044915Y-113038903D01*
X65045109Y-113036931D01*
X64986816Y-113019815D01*
X64941061Y-112967011D01*
X64939294Y-112962953D01*
X64915085Y-112904507D01*
X64915080Y-112904498D01*
X64832951Y-112781584D01*
X64832948Y-112781580D01*
X64728419Y-112677051D01*
X64659763Y-112631176D01*
X64614959Y-112577563D01*
X64606252Y-112508238D01*
X64636407Y-112445211D01*
X64640955Y-112440411D01*
X64742951Y-112338416D01*
X64825084Y-112215495D01*
X64881658Y-112078913D01*
X64894986Y-112011912D01*
X64910500Y-111933920D01*
X64910500Y-111786079D01*
X64881659Y-111641092D01*
X64881658Y-111641091D01*
X64881658Y-111641087D01*
X64854537Y-111575611D01*
X64825087Y-111504511D01*
X64825080Y-111504498D01*
X64750414Y-111392753D01*
X64729536Y-111326076D01*
X64748020Y-111258695D01*
X64799999Y-111212005D01*
X64859990Y-111201459D01*
X64859990Y-111200500D01*
X64865449Y-111200500D01*
X64865677Y-111200460D01*
X64866081Y-111200499D01*
X64866082Y-111200500D01*
X64866083Y-111200500D01*
X65013920Y-111200500D01*
X65111462Y-111181096D01*
X65158913Y-111171658D01*
X65295495Y-111115084D01*
X65418416Y-111032951D01*
X65522951Y-110928416D01*
X65605084Y-110805495D01*
X65661658Y-110668913D01*
X65676288Y-110595363D01*
X65690500Y-110523920D01*
X65690500Y-110376079D01*
X65682548Y-110336103D01*
X72470512Y-110336103D01*
X72499353Y-110481090D01*
X72499356Y-110481100D01*
X72555925Y-110617671D01*
X72555932Y-110617684D01*
X72638061Y-110740598D01*
X72638064Y-110740602D01*
X72742593Y-110845131D01*
X72742597Y-110845134D01*
X72865511Y-110927263D01*
X72865524Y-110927270D01*
X73002097Y-110983840D01*
X73005522Y-110984879D01*
X73007096Y-110985910D01*
X73007727Y-110986172D01*
X73007677Y-110986291D01*
X73063962Y-111023175D01*
X73092419Y-111086987D01*
X73081860Y-111156054D01*
X73035637Y-111208448D01*
X73016982Y-111218101D01*
X72956105Y-111243317D01*
X72956095Y-111243322D01*
X72833181Y-111325451D01*
X72833177Y-111325454D01*
X72728648Y-111429983D01*
X72728645Y-111429987D01*
X72646516Y-111552901D01*
X72646509Y-111552914D01*
X72589940Y-111689485D01*
X72589937Y-111689495D01*
X72561097Y-111834482D01*
X72561097Y-111834485D01*
X72561097Y-111982321D01*
X72561097Y-111982323D01*
X72561096Y-111982323D01*
X72589937Y-112127310D01*
X72589940Y-112127320D01*
X72646509Y-112263891D01*
X72646516Y-112263904D01*
X72728645Y-112386818D01*
X72728648Y-112386822D01*
X72833177Y-112491351D01*
X72833181Y-112491354D01*
X72956095Y-112573483D01*
X72956108Y-112573490D01*
X73092679Y-112630059D01*
X73092684Y-112630061D01*
X73092688Y-112630061D01*
X73092689Y-112630062D01*
X73237676Y-112658903D01*
X73237679Y-112658903D01*
X73385517Y-112658903D01*
X73483059Y-112639499D01*
X73530510Y-112630061D01*
X73667092Y-112573487D01*
X73790013Y-112491354D01*
X73894548Y-112386819D01*
X73976681Y-112263898D01*
X74033255Y-112127316D01*
X74043332Y-112076656D01*
X74062097Y-111982323D01*
X74062097Y-111834482D01*
X74033256Y-111689495D01*
X74033255Y-111689494D01*
X74033255Y-111689490D01*
X73986085Y-111575611D01*
X73976684Y-111552914D01*
X73976677Y-111552901D01*
X73894548Y-111429987D01*
X73894545Y-111429983D01*
X73790016Y-111325454D01*
X73790012Y-111325451D01*
X73667098Y-111243322D01*
X73667085Y-111243315D01*
X73530511Y-111186745D01*
X73527079Y-111185704D01*
X73525501Y-111184670D01*
X73524883Y-111184414D01*
X73524931Y-111184296D01*
X73468642Y-111147403D01*
X73440189Y-111083590D01*
X73450753Y-111014523D01*
X73496980Y-110962132D01*
X73515620Y-110952487D01*
X73576508Y-110927267D01*
X73699429Y-110845134D01*
X73803964Y-110740599D01*
X73886097Y-110617678D01*
X73888630Y-110611564D01*
X73904050Y-110574335D01*
X73942671Y-110481096D01*
X73963561Y-110376079D01*
X73971513Y-110336103D01*
X73971513Y-110188262D01*
X73942672Y-110043275D01*
X73942671Y-110043274D01*
X73942671Y-110043270D01*
X73930928Y-110014919D01*
X73886100Y-109906694D01*
X73886093Y-109906681D01*
X73803964Y-109783767D01*
X73803961Y-109783763D01*
X73699432Y-109679234D01*
X73699428Y-109679231D01*
X73576514Y-109597102D01*
X73576501Y-109597095D01*
X73439930Y-109540526D01*
X73439920Y-109540523D01*
X73294933Y-109511683D01*
X73294931Y-109511683D01*
X73147095Y-109511683D01*
X73147093Y-109511683D01*
X73002105Y-109540523D01*
X73002095Y-109540526D01*
X72865524Y-109597095D01*
X72865511Y-109597102D01*
X72742597Y-109679231D01*
X72742593Y-109679234D01*
X72638064Y-109783763D01*
X72638061Y-109783767D01*
X72555932Y-109906681D01*
X72555925Y-109906694D01*
X72499356Y-110043265D01*
X72499353Y-110043275D01*
X72470513Y-110188262D01*
X72470513Y-110188265D01*
X72470513Y-110336101D01*
X72470513Y-110336103D01*
X72470512Y-110336103D01*
X65682548Y-110336103D01*
X65661659Y-110231092D01*
X65661658Y-110231091D01*
X65661658Y-110231087D01*
X65649437Y-110201584D01*
X65605085Y-110094507D01*
X65605080Y-110094498D01*
X65522951Y-109971584D01*
X65522948Y-109971580D01*
X65418419Y-109867051D01*
X65418415Y-109867048D01*
X65295501Y-109784919D01*
X65295488Y-109784912D01*
X65158917Y-109728343D01*
X65158907Y-109728340D01*
X65013920Y-109699500D01*
X65013918Y-109699500D01*
X64976281Y-109699500D01*
X64909242Y-109679815D01*
X64863487Y-109627011D01*
X64861720Y-109622952D01*
X64825087Y-109534511D01*
X64825080Y-109534498D01*
X64742951Y-109411584D01*
X64742948Y-109411580D01*
X64638419Y-109307051D01*
X64638415Y-109307048D01*
X64515501Y-109224919D01*
X64515488Y-109224912D01*
X64378917Y-109168343D01*
X64378907Y-109168340D01*
X64233920Y-109139500D01*
X64233918Y-109139500D01*
X64086082Y-109139500D01*
X64086080Y-109139500D01*
X63941092Y-109168340D01*
X63941082Y-109168343D01*
X63804511Y-109224912D01*
X63804498Y-109224919D01*
X63681584Y-109307048D01*
X63681580Y-109307051D01*
X63577051Y-109411580D01*
X63577048Y-109411584D01*
X63494919Y-109534498D01*
X63494912Y-109534511D01*
X63438343Y-109671082D01*
X63438340Y-109671092D01*
X63409500Y-109816079D01*
X63409500Y-109816082D01*
X63409500Y-109963918D01*
X63409500Y-109963920D01*
X63409499Y-109963920D01*
X51554238Y-109963920D01*
X52139887Y-109245335D01*
X52142535Y-109242196D01*
X52774387Y-108518402D01*
X52777142Y-108515351D01*
X53433154Y-107813341D01*
X53436013Y-107810384D01*
X54082477Y-107163920D01*
X65872511Y-107163920D01*
X65901352Y-107308907D01*
X65901355Y-107308917D01*
X65957924Y-107445488D01*
X65957931Y-107445501D01*
X66040060Y-107568415D01*
X66040063Y-107568419D01*
X66144592Y-107672948D01*
X66144596Y-107672951D01*
X66267510Y-107755080D01*
X66267523Y-107755087D01*
X66400951Y-107810354D01*
X66404099Y-107811658D01*
X66404103Y-107811658D01*
X66404104Y-107811659D01*
X66549091Y-107840500D01*
X66549094Y-107840500D01*
X66696932Y-107840500D01*
X66833308Y-107813372D01*
X66841925Y-107811658D01*
X66978507Y-107755084D01*
X67101428Y-107672951D01*
X67101429Y-107672949D01*
X67104121Y-107671151D01*
X67170798Y-107650273D01*
X67238178Y-107668757D01*
X67241903Y-107671151D01*
X67244594Y-107672949D01*
X67244596Y-107672951D01*
X67367517Y-107755084D01*
X67367519Y-107755085D01*
X67367523Y-107755087D01*
X67500951Y-107810354D01*
X67504099Y-107811658D01*
X67504103Y-107811658D01*
X67504104Y-107811659D01*
X67649091Y-107840500D01*
X67649094Y-107840500D01*
X67796932Y-107840500D01*
X67933308Y-107813372D01*
X67941925Y-107811658D01*
X68078507Y-107755084D01*
X68201428Y-107672951D01*
X68305963Y-107568416D01*
X68343974Y-107511527D01*
X68397585Y-107466724D01*
X68466910Y-107458016D01*
X68494525Y-107465856D01*
X68605099Y-107511658D01*
X68605103Y-107511658D01*
X68605104Y-107511659D01*
X68750091Y-107540500D01*
X68750094Y-107540500D01*
X68797770Y-107540500D01*
X68864809Y-107560185D01*
X68885451Y-107576819D01*
X68981580Y-107672948D01*
X68981584Y-107672951D01*
X69104498Y-107755080D01*
X69104511Y-107755087D01*
X69237939Y-107810354D01*
X69241087Y-107811658D01*
X69241091Y-107811658D01*
X69241092Y-107811659D01*
X69386079Y-107840500D01*
X69386082Y-107840500D01*
X69533920Y-107840500D01*
X69670296Y-107813372D01*
X69678913Y-107811658D01*
X69738272Y-107787070D01*
X69807737Y-107779602D01*
X69870217Y-107810876D01*
X69905870Y-107870965D01*
X69903377Y-107940790D01*
X69900284Y-107949083D01*
X69882886Y-107991086D01*
X69882884Y-107991092D01*
X69854044Y-108136079D01*
X69854044Y-108136082D01*
X69854044Y-108283918D01*
X69854044Y-108283920D01*
X69854043Y-108283920D01*
X69882884Y-108428907D01*
X69882887Y-108428917D01*
X69939456Y-108565488D01*
X69939463Y-108565501D01*
X70021592Y-108688415D01*
X70021595Y-108688419D01*
X70126124Y-108792948D01*
X70126128Y-108792951D01*
X70249042Y-108875080D01*
X70249055Y-108875087D01*
X70289267Y-108891743D01*
X70385631Y-108931658D01*
X70385635Y-108931658D01*
X70385636Y-108931659D01*
X70530623Y-108960500D01*
X70530626Y-108960500D01*
X70678464Y-108960500D01*
X70783249Y-108939656D01*
X70823457Y-108931658D01*
X70919821Y-108891742D01*
X70989288Y-108884274D01*
X71014719Y-108891741D01*
X71111087Y-108931658D01*
X71111091Y-108931658D01*
X71111092Y-108931659D01*
X71256079Y-108960500D01*
X71256082Y-108960500D01*
X71403920Y-108960500D01*
X71508705Y-108939656D01*
X71548913Y-108931658D01*
X71666191Y-108883080D01*
X71685488Y-108875087D01*
X71685488Y-108875086D01*
X71685495Y-108875084D01*
X71808416Y-108792951D01*
X71808420Y-108792946D01*
X71813126Y-108789086D01*
X71814143Y-108790325D01*
X71868623Y-108760567D01*
X71938315Y-108765540D01*
X71976210Y-108789893D01*
X71976874Y-108789086D01*
X71981584Y-108792951D01*
X72104498Y-108875080D01*
X72104511Y-108875087D01*
X72144723Y-108891743D01*
X72241087Y-108931658D01*
X72241091Y-108931658D01*
X72241092Y-108931659D01*
X72386079Y-108960500D01*
X72386082Y-108960500D01*
X72533920Y-108960500D01*
X72638705Y-108939656D01*
X72678913Y-108931658D01*
X72793555Y-108884171D01*
X72863022Y-108876703D01*
X72888453Y-108884170D01*
X73003099Y-108931658D01*
X73003103Y-108931658D01*
X73003104Y-108931659D01*
X73148091Y-108960500D01*
X73148094Y-108960500D01*
X73295932Y-108960500D01*
X73400717Y-108939656D01*
X73440925Y-108931658D01*
X73558203Y-108883080D01*
X73577500Y-108875087D01*
X73577500Y-108875086D01*
X73577507Y-108875084D01*
X73700428Y-108792951D01*
X73804963Y-108688416D01*
X73887096Y-108565495D01*
X73943670Y-108428913D01*
X73953108Y-108381462D01*
X73970921Y-108291920D01*
X85586499Y-108291920D01*
X85615340Y-108436907D01*
X85615343Y-108436917D01*
X85671912Y-108573488D01*
X85671919Y-108573501D01*
X85754048Y-108696415D01*
X85754051Y-108696419D01*
X85858580Y-108800948D01*
X85858584Y-108800951D01*
X85981498Y-108883080D01*
X85981511Y-108883087D01*
X86118082Y-108939656D01*
X86118087Y-108939658D01*
X86118091Y-108939658D01*
X86118092Y-108939659D01*
X86263079Y-108968500D01*
X86263082Y-108968500D01*
X86410920Y-108968500D01*
X86508462Y-108949096D01*
X86555913Y-108939658D01*
X86689622Y-108884274D01*
X86692488Y-108883087D01*
X86692488Y-108883086D01*
X86692495Y-108883084D01*
X86815416Y-108800951D01*
X86919951Y-108696416D01*
X87002084Y-108573495D01*
X87058658Y-108436913D01*
X87087500Y-108291918D01*
X87087500Y-108144082D01*
X87087500Y-108144079D01*
X87058659Y-107999092D01*
X87058658Y-107999091D01*
X87058658Y-107999087D01*
X87034511Y-107940790D01*
X87002087Y-107862511D01*
X87002080Y-107862498D01*
X86919951Y-107739584D01*
X86919948Y-107739580D01*
X86815419Y-107635051D01*
X86815415Y-107635048D01*
X86692501Y-107552919D01*
X86692488Y-107552912D01*
X86555917Y-107496343D01*
X86555907Y-107496340D01*
X86410920Y-107467500D01*
X86410918Y-107467500D01*
X86263082Y-107467500D01*
X86263080Y-107467500D01*
X86118092Y-107496340D01*
X86118082Y-107496343D01*
X85981511Y-107552912D01*
X85981498Y-107552919D01*
X85858584Y-107635048D01*
X85858580Y-107635051D01*
X85754051Y-107739580D01*
X85754048Y-107739584D01*
X85671919Y-107862498D01*
X85671912Y-107862511D01*
X85615343Y-107999082D01*
X85615340Y-107999092D01*
X85586500Y-108144079D01*
X85586500Y-108144082D01*
X85586500Y-108291918D01*
X85586500Y-108291920D01*
X85586499Y-108291920D01*
X73970921Y-108291920D01*
X73972512Y-108283920D01*
X73972512Y-108136079D01*
X73943671Y-107991092D01*
X73943670Y-107991091D01*
X73943670Y-107991087D01*
X73943668Y-107991082D01*
X73887099Y-107854511D01*
X73887092Y-107854498D01*
X73804963Y-107731584D01*
X73804960Y-107731580D01*
X73700431Y-107627051D01*
X73700427Y-107627048D01*
X73577513Y-107544919D01*
X73577500Y-107544912D01*
X73478536Y-107503920D01*
X75589499Y-107503920D01*
X75618340Y-107648907D01*
X75618343Y-107648917D01*
X75674912Y-107785488D01*
X75674919Y-107785501D01*
X75757048Y-107908415D01*
X75757051Y-107908419D01*
X75861580Y-108012948D01*
X75861584Y-108012951D01*
X75984498Y-108095080D01*
X75984511Y-108095087D01*
X76102797Y-108144082D01*
X76121087Y-108151658D01*
X76121091Y-108151658D01*
X76121092Y-108151659D01*
X76266079Y-108180500D01*
X76266082Y-108180500D01*
X76413920Y-108180500D01*
X76511462Y-108161096D01*
X76558913Y-108151658D01*
X76695495Y-108095084D01*
X76695501Y-108095080D01*
X76785586Y-108034888D01*
X76802893Y-108023322D01*
X76818416Y-108012951D01*
X76922951Y-107908416D01*
X77005084Y-107785495D01*
X77061658Y-107648913D01*
X77077670Y-107568416D01*
X77090500Y-107503920D01*
X77090500Y-107356079D01*
X77061659Y-107211092D01*
X77061658Y-107211091D01*
X77061658Y-107211087D01*
X77045337Y-107171684D01*
X77005087Y-107074511D01*
X77005080Y-107074498D01*
X76922951Y-106951584D01*
X76922948Y-106951580D01*
X76818419Y-106847051D01*
X76818415Y-106847048D01*
X76695501Y-106764919D01*
X76695488Y-106764912D01*
X76558917Y-106708343D01*
X76558907Y-106708340D01*
X76413920Y-106679500D01*
X76413918Y-106679500D01*
X76266082Y-106679500D01*
X76266080Y-106679500D01*
X76121092Y-106708340D01*
X76121082Y-106708343D01*
X75984511Y-106764912D01*
X75984498Y-106764919D01*
X75861584Y-106847048D01*
X75861580Y-106847051D01*
X75757051Y-106951580D01*
X75757048Y-106951584D01*
X75674919Y-107074498D01*
X75674912Y-107074511D01*
X75618343Y-107211082D01*
X75618340Y-107211092D01*
X75589500Y-107356079D01*
X75589500Y-107356082D01*
X75589500Y-107503918D01*
X75589500Y-107503920D01*
X75589499Y-107503920D01*
X73478536Y-107503920D01*
X73440929Y-107488343D01*
X73440919Y-107488340D01*
X73356797Y-107471607D01*
X73295932Y-107459500D01*
X73295930Y-107459500D01*
X73148094Y-107459500D01*
X73148092Y-107459500D01*
X73003104Y-107488340D01*
X73003094Y-107488343D01*
X72888458Y-107535827D01*
X72818989Y-107543296D01*
X72793554Y-107535827D01*
X72678917Y-107488343D01*
X72678907Y-107488340D01*
X72533920Y-107459500D01*
X72533918Y-107459500D01*
X72386082Y-107459500D01*
X72386080Y-107459500D01*
X72241092Y-107488340D01*
X72241082Y-107488343D01*
X72104511Y-107544912D01*
X72104498Y-107544919D01*
X71981584Y-107627048D01*
X71976874Y-107630914D01*
X71975858Y-107629676D01*
X71921358Y-107659436D01*
X71851666Y-107654452D01*
X71829497Y-107643557D01*
X71817394Y-107636027D01*
X71808416Y-107627049D01*
X71685495Y-107544916D01*
X71641959Y-107526883D01*
X71633315Y-107521505D01*
X71616557Y-107502729D01*
X71596962Y-107486939D01*
X71593689Y-107477107D01*
X71586791Y-107469378D01*
X71582845Y-107444525D01*
X71574897Y-107420645D01*
X71577459Y-107410604D01*
X71575835Y-107400372D01*
X71585952Y-107377330D01*
X71592176Y-107352945D01*
X71600529Y-107344132D01*
X71603925Y-107336398D01*
X71614529Y-107329361D01*
X71629926Y-107313117D01*
X71685148Y-107276219D01*
X71789683Y-107171684D01*
X71871816Y-107048763D01*
X71928390Y-106912181D01*
X71937828Y-106864730D01*
X71957232Y-106767188D01*
X71957232Y-106620920D01*
X79971511Y-106620920D01*
X80000352Y-106765907D01*
X80000355Y-106765917D01*
X80056924Y-106902488D01*
X80056931Y-106902501D01*
X80139060Y-107025415D01*
X80139063Y-107025419D01*
X80243592Y-107129948D01*
X80243596Y-107129951D01*
X80366510Y-107212080D01*
X80366523Y-107212087D01*
X80479792Y-107259004D01*
X80503099Y-107268658D01*
X80503103Y-107268658D01*
X80503104Y-107268659D01*
X80648091Y-107297500D01*
X80648094Y-107297500D01*
X80795932Y-107297500D01*
X80902924Y-107276217D01*
X80940925Y-107268658D01*
X81077507Y-107212084D01*
X81200428Y-107129951D01*
X81304963Y-107025416D01*
X81387096Y-106902495D01*
X81443670Y-106765913D01*
X81472512Y-106620918D01*
X81472512Y-106473082D01*
X81472512Y-106473079D01*
X81443671Y-106328092D01*
X81443670Y-106328091D01*
X81443670Y-106328087D01*
X81443668Y-106328082D01*
X81387099Y-106191511D01*
X81387092Y-106191498D01*
X81304963Y-106068584D01*
X81304960Y-106068580D01*
X81200431Y-105964051D01*
X81200427Y-105964048D01*
X81077513Y-105881919D01*
X81077500Y-105881912D01*
X80940929Y-105825343D01*
X80940919Y-105825340D01*
X80795932Y-105796500D01*
X80795930Y-105796500D01*
X80648094Y-105796500D01*
X80648092Y-105796500D01*
X80503104Y-105825340D01*
X80503094Y-105825343D01*
X80366523Y-105881912D01*
X80366510Y-105881919D01*
X80243596Y-105964048D01*
X80243592Y-105964051D01*
X80139063Y-106068580D01*
X80139060Y-106068584D01*
X80056931Y-106191498D01*
X80056924Y-106191511D01*
X80000355Y-106328082D01*
X80000352Y-106328092D01*
X79971512Y-106473079D01*
X79971512Y-106473082D01*
X79971512Y-106620918D01*
X79971512Y-106620920D01*
X79971511Y-106620920D01*
X71957232Y-106620920D01*
X71957232Y-106619347D01*
X71957231Y-106619345D01*
X71931739Y-106491188D01*
X71931738Y-106491184D01*
X71930350Y-106484210D01*
X71928390Y-106474355D01*
X71927863Y-106473082D01*
X71871819Y-106337779D01*
X71871812Y-106337766D01*
X71789683Y-106214852D01*
X71789680Y-106214848D01*
X71685151Y-106110319D01*
X71685147Y-106110316D01*
X71562233Y-106028187D01*
X71562220Y-106028180D01*
X71425649Y-105971611D01*
X71425639Y-105971608D01*
X71280652Y-105942768D01*
X71280650Y-105942768D01*
X71132814Y-105942768D01*
X71132812Y-105942768D01*
X70987824Y-105971608D01*
X70987814Y-105971611D01*
X70851243Y-106028180D01*
X70851230Y-106028187D01*
X70728316Y-106110316D01*
X70728311Y-106110320D01*
X70691001Y-106147630D01*
X70629678Y-106181115D01*
X70559986Y-106176129D01*
X70534431Y-106163050D01*
X70477368Y-106124922D01*
X70477350Y-106124912D01*
X70340779Y-106068343D01*
X70340769Y-106068340D01*
X70195782Y-106039500D01*
X70195780Y-106039500D01*
X70047944Y-106039500D01*
X70047942Y-106039500D01*
X69902954Y-106068340D01*
X69902944Y-106068343D01*
X69766373Y-106124912D01*
X69766360Y-106124919D01*
X69643446Y-106207048D01*
X69643442Y-106207051D01*
X69560618Y-106289876D01*
X69499295Y-106323361D01*
X69429603Y-106318377D01*
X69385256Y-106289876D01*
X69302431Y-106207051D01*
X69302427Y-106207048D01*
X69179513Y-106124919D01*
X69179500Y-106124912D01*
X69042929Y-106068343D01*
X69042919Y-106068340D01*
X68897932Y-106039500D01*
X68897930Y-106039500D01*
X68750094Y-106039500D01*
X68750092Y-106039500D01*
X68605104Y-106068340D01*
X68605094Y-106068343D01*
X68468523Y-106124912D01*
X68468510Y-106124919D01*
X68345596Y-106207048D01*
X68345592Y-106207051D01*
X68241063Y-106311580D01*
X68241060Y-106311584D01*
X68203050Y-106368471D01*
X68149438Y-106413276D01*
X68080113Y-106421983D01*
X68052496Y-106414141D01*
X67941929Y-106368343D01*
X67941919Y-106368340D01*
X67796932Y-106339500D01*
X67796930Y-106339500D01*
X67649094Y-106339500D01*
X67649092Y-106339500D01*
X67504104Y-106368340D01*
X67504094Y-106368343D01*
X67367523Y-106424912D01*
X67367510Y-106424919D01*
X67241903Y-106508848D01*
X67175225Y-106529726D01*
X67107845Y-106511241D01*
X67104121Y-106508848D01*
X66978513Y-106424919D01*
X66978500Y-106424912D01*
X66841929Y-106368343D01*
X66841919Y-106368340D01*
X66696932Y-106339500D01*
X66696930Y-106339500D01*
X66549094Y-106339500D01*
X66549092Y-106339500D01*
X66404104Y-106368340D01*
X66404094Y-106368343D01*
X66267523Y-106424912D01*
X66267510Y-106424919D01*
X66144596Y-106507048D01*
X66144592Y-106507051D01*
X66040063Y-106611580D01*
X66040060Y-106611584D01*
X65957931Y-106734498D01*
X65957924Y-106734511D01*
X65901355Y-106871082D01*
X65901352Y-106871092D01*
X65872512Y-107016079D01*
X65872512Y-107016082D01*
X65872512Y-107163918D01*
X65872512Y-107163920D01*
X65872511Y-107163920D01*
X54082477Y-107163920D01*
X54115384Y-107131013D01*
X54118341Y-107128154D01*
X54820351Y-106472142D01*
X54823402Y-106469387D01*
X55547196Y-105837535D01*
X55550335Y-105834887D01*
X56097532Y-105388920D01*
X63071499Y-105388920D01*
X63100340Y-105533907D01*
X63100343Y-105533917D01*
X63156912Y-105670488D01*
X63156919Y-105670501D01*
X63239048Y-105793415D01*
X63239051Y-105793419D01*
X63343580Y-105897948D01*
X63343584Y-105897951D01*
X63466498Y-105980080D01*
X63466511Y-105980087D01*
X63582619Y-106028180D01*
X63603087Y-106036658D01*
X63603091Y-106036658D01*
X63603092Y-106036659D01*
X63748079Y-106065500D01*
X63748082Y-106065500D01*
X63895920Y-106065500D01*
X63993462Y-106046096D01*
X64040913Y-106036658D01*
X64177495Y-105980084D01*
X64300416Y-105897951D01*
X64404951Y-105793416D01*
X64487084Y-105670495D01*
X64543658Y-105533913D01*
X64572500Y-105388918D01*
X64572500Y-105241082D01*
X64572500Y-105241079D01*
X64543659Y-105096092D01*
X64543658Y-105096091D01*
X64543658Y-105096087D01*
X64543656Y-105096082D01*
X64487087Y-104959511D01*
X64487080Y-104959498D01*
X64404951Y-104836584D01*
X64404948Y-104836580D01*
X64300419Y-104732051D01*
X64300415Y-104732048D01*
X64177501Y-104649919D01*
X64177488Y-104649912D01*
X64040917Y-104593343D01*
X64040907Y-104593340D01*
X63895920Y-104564500D01*
X63895918Y-104564500D01*
X63748082Y-104564500D01*
X63748080Y-104564500D01*
X63603092Y-104593340D01*
X63603082Y-104593343D01*
X63466511Y-104649912D01*
X63466498Y-104649919D01*
X63343584Y-104732048D01*
X63343580Y-104732051D01*
X63239051Y-104836580D01*
X63239048Y-104836584D01*
X63156919Y-104959498D01*
X63156912Y-104959511D01*
X63100343Y-105096082D01*
X63100340Y-105096092D01*
X63071500Y-105241079D01*
X63071500Y-105241082D01*
X63071500Y-105388918D01*
X63071500Y-105388920D01*
X63071499Y-105388920D01*
X56097532Y-105388920D01*
X56295107Y-105227896D01*
X56298345Y-105225346D01*
X57063208Y-104643938D01*
X57066584Y-104641461D01*
X57850683Y-104086283D01*
X57854084Y-104083960D01*
X58656568Y-103555619D01*
X58660101Y-103553379D01*
X58693381Y-103533049D01*
X59338940Y-103138682D01*
X59403583Y-103120500D01*
X67847270Y-103120500D01*
X67914309Y-103140185D01*
G37*
%TD.AperFunction*%
%TD*%
M02*
